<?xml version="1.0" encoding="UTF-8"?>
<svg width="79.375mm" height="27.199mm" version="1.1" viewBox="0 0 79.375 27.199" xmlns="http://www.w3.org/2000/svg" xmlns:cc="http://creativecommons.org/ns#" xmlns:dc="http://purl.org/dc/elements/1.1/" xmlns:rdf="http://www.w3.org/1999/02/22-rdf-syntax-ns#">
 <metadata>
  <rdf:RDF>
   <cc:Work rdf:about="">
    <dc:format>image/svg+xml</dc:format>
    <dc:type rdf:resource="http://purl.org/dc/dcmitype/StillImage"/>
    <dc:title/>
   </cc:Work>
  </rdf:RDF>
 </metadata>
 <g transform="translate(-24.118 -53.552)">
  <g transform="matrix(.48786 0 0 .48786 70.212 9.2881)">
   <g transform="matrix(0 .35278 .35278 0 -94.483 143.29)">
    <path d="m0 0v107.06h-15.945v-81.766h-133.04v-25.292h148.98" fill="#231f20"/>
   </g>
   <g fill="#231f20">
    <path d="m-16.506 97.941v5.624h6.115v-5.624z"/>
    <path d="m-68.939 97.941v5.624h48.398v-5.624z"/>
    <path d="m-79.083 97.941v5.624h6.1115v-5.624z"/>
    <path d="m-44.49 137.67v5.6222h99.243v-5.6222z"/>
   </g>
   <g transform="matrix(0 .35278 .35278 0 -57.573 109.07)">
    <path d="m0 0c0.132-9.887 5.239-15.845 13.162-22.164 8.055-6.322 15.038-7.772 25.292-7.284 3.648 0.089 6.992 0.565 10.083 1.388l11.391-12.468c0.108-0.016 0.688-1.041 0.695-1.739-7e-3 -0.886-1.59-1.024-2.764-1.029h-57.859v-17.334c22.352 0.154 31.456-0.126 54.384 0 2.905-0.126 10.548 2.324 14.548 8.671 2.073 3.469 2.497 5.633 1.051 8.663-1.337 2.792-10.371 12.316-15.384 17.448 5.195 2.448 9.637 6.125 13.646 10.949 2.331 2.627 1.174 3.067 0.687 5.211-0.233 1.041-18.138 18.655-18.012 18.701h30.142c0.77-0.046 7.123 1.245 11.44 4.849 1.303 1.446 2.614 3.183 3.121 4.155 1.951 2.928 1.951 8.846 1.384 9.014h-97.007zm41.221 9.013 9.017-8.312c0.403-0.506 0.695-1.272 0.682-1.402 2.324-2.605-12.803-10.5-22.513-10.382-7.3-0.196-12.408 1.415-18.015 5.542-6.662 4.97-7.086 14.508-6.229 14.554h37.058" fill="#231f20"/>
   </g>
   <g transform="matrix(0 .35278 .35278 0 50.354 128.62)">
    <path d="m0 0c-0.129-0.563-0.129-1.07-0.696-1.382l-24.595-12.829c-0.442-0.417-0.918-0.417-1.73-0.356-0.362 0.23-0.624 0.448-1.049 0.695l-25.979 26.684v-8.665l20.791-20.44c0.285-0.443 0.539-0.786 0.35-1.382 0.06-0.513-0.379-0.717-1.04-1.041l-19.758-10.053c-0.784-0.311-1.396-0.237-1.722-0.691-0.243-0.557-0.327-0.999 0-1.376l53.347-53.008c0.04 0.093-0.58-5.584-2.77-7.967-2.142-2.512-7.146-3.926-7.279-3.824l-30.831 31.532c-0.594 0.381-1.194 0.352-2.075 0.352-0.643-0.173-0.931-0.692-1.729-1.049-7.527-4.4-8.596-12.038-8.663-20.787-0.124-11.223 4.92-18.403 13.859-25.292 8.075-6.011 19.032-7.089 24.939-6.925 2.48 0.107 4.997 0.579 7.512 1.304l10.846-11.691c-7e-3 -0.181 0.571-1.177 0.703-1.739-0.132-1.023-1.714-1.173-2.778-1.035h-70.673v143.43h-15.942v-143.43h-20.439v-19.753h20.439v-10.055h15.942v10.438c17.96 0.123 39.001-0.031 58.054-0.051l17.466-18.692c0.108-0.138 0.688-1.15 0.695-1.738-7e-3 -1.001-1.59-1.141-2.764-1.029h-57.859v-17.679c18.689 0.331 28.135 0.164 44.127 0.061l15.801-17.035c0.108 0.033 0.688-0.973 0.695-1.38-7e-3 -1.181-1.59-1.32-2.764-1.388h-57.859v-17.334c19.657 0.194 29.073-0.012 46.654-0.012l13.274-14.539c0.108 0.049 0.688-0.968 0.695-1.369-7e-3 -1.176-1.59-1.337-2.764-1.395h-57.859v-17.329c22.352 0.218 31.456-0.067 54.384 0 2.905-0.067 10.548 2.382 14.548 8.665 2.073 3.539 2.497 5.699 1.051 8.664-1.315 2.785-10.055 12.054-15.112 17.331 3.178 0.178 10.266 2.693 14.061 8.647 2.073 3.525 2.497 5.705 1.051 8.671-1.555 3.291-13.48 15.605-17.444 19.758 0.624 0 1.216-0.016 1.845-0.016 2.905 0.097 10.548 2.553 14.548 8.671 2.073 3.703 2.497 5.865 1.051 9.008-1.5 3.019-14.444 16.285-19.491 21.466 1.078 0 2.152 0 3.212 0.013 2.865-0.081 10.524 2.362 14.541 8.661 2.044 3.536 2.471 5.696 1.041 8.658-1.292 2.686-10.825 12.694-16.858 18.868 10.334 4.854 18.878 13.624 18.932 20.622-0.068 1.275-5.696 6.913-5.542 6.941l-42.271 41.924c-0.79 0.809-1.618 1.308-1.377 2.423-0.024 0.521 0.11 0.99 0.689 1.376l15.242 7.983 30.495-31.193v10.047l-24.602 23.906 19.75 11.081c4.501 2.43 7.685 8.355 6.925 11.439-0.234 1.682-1.046 2.897-2.424 4.165l-14.21 14.547h-8.647l8.316-9.352c0.622-0.584 1.503-0.802 1.724-1.73zm-29.096-99.775c-8.448 0.271-16.467 1.08-19.757 8.66-1.642 4.143-1.834 7.364-0.352 11.426 1.7 4.171 5.748 6.33 5.899 6.228l23.562-24.595c0.094 0-5.658-1.648-9.352-1.719" fill="#231f20"/>
   </g>
   <g transform="matrix(0 .35278 .35278 0 66.594 140.85)">
    <path d="m0 0c7.344 0 12.282-5.238 12.282-11.39h-0.043c0.043-6.341-4.895-11.447-12.239-11.447s-12.246 5.106-12.246 11.447c0 6.152 4.902 11.39 12.246 11.39zm1.348-14.051v1.729l7.228 3.973v4.338l-7.513-4.393c-0.175 2.286-1.314 4.144-4.484 4.144-3.923 0-5.195-2.628-5.195-7.056v-6.415h17.192v3.68zm-2.91 0h-4.132v2.581c0 1.383 0.127 3.28 1.9 3.28 1.889 0 2.232-0.973 2.232-2.616zm1.562 18.658c-10.084 0-15.96-7.556-15.96-15.997 0-8.485 5.876-16.042 15.96-16.042 10.092 0 15.958 7.557 15.958 16.042 0 8.441-5.866 15.997-15.958 15.997" fill="#231f20"/>
   </g>
  </g>
 </g>
</svg>
