<?xml version="1.0" encoding="UTF-8" standalone="no"?>
<svg
   xmlns:dc="http://purl.org/dc/elements/1.1/"
   xmlns:cc="http://creativecommons.org/ns#"
   xmlns:rdf="http://www.w3.org/1999/02/22-rdf-syntax-ns#"
   xmlns:svg="http://www.w3.org/2000/svg"
   xmlns="http://www.w3.org/2000/svg"
   xmlns:sodipodi="http://sodipodi.sourceforge.net/DTD/sodipodi-0.dtd"
   xmlns:inkscape="http://www.inkscape.org/namespaces/inkscape"
   width="79.375mm"
   height="25.779182mm"
   viewBox="0 0 79.375 25.779181"
   version="1.1"
   id="svg5622"
   inkscape:version="1.0.2 (1.0.2+r75+1)"
   sodipodi:docname="300Pentel.svg">
  <defs
     id="defs5616" />
  <sodipodi:namedview
     id="base"
     pagecolor="#ffffff"
     bordercolor="#666666"
     borderopacity="1.0"
     inkscape:pageopacity="0.0"
     inkscape:pageshadow="2"
     inkscape:zoom="2.8"
     inkscape:cx="156.68711"
     inkscape:cy="119.9184"
     inkscape:document-units="mm"
     inkscape:current-layer="layer1"
     inkscape:document-rotation="0"
     showgrid="false"
     fit-margin-top="0"
     fit-margin-left="0"
     fit-margin-right="0"
     fit-margin-bottom="0"
     inkscape:window-width="1920"
     inkscape:window-height="1031"
     inkscape:window-x="0"
     inkscape:window-y="0"
     inkscape:window-maximized="1" />
  <metadata
     id="metadata5619">
    <rdf:RDF>
      <cc:Work
         rdf:about="">
        <dc:format>image/svg+xml</dc:format>
        <dc:type
           rdf:resource="http://purl.org/dc/dcmitype/StillImage" />
        <dc:title></dc:title>
      </cc:Work>
    </rdf:RDF>
  </metadata>
  <g
     inkscape:label="Warstwa 1"
     inkscape:groupmode="layer"
     id="layer1">
    <g
       id="g7293"
       transform="matrix(0.73581367,0,0,0.73581367,9.3418632,-10.549177)">
      <path
         style="fill:#f5cfd1;stroke-width:0.0846667"
         d="m 22.195129,49.245465 -0.635,-0.108757 -0.539611,-0.141587 -0.539611,-0.141587 -0.645722,-0.254867 -0.645723,-0.254868 -0.635,-0.340576 -0.635,-0.340575 -0.528959,-0.377329 -0.528959,-0.377329 -0.471975,-0.413014 -0.471974,-0.413014 -0.548337,-0.620023 -0.548338,-0.620023 -0.382339,-0.57703 -0.382337,-0.57703 -0.37333,-0.735304 -0.37333,-0.735302 -0.251904,-0.777571 -0.251904,-0.777571 -0.131324,-0.692282 -0.131324,-0.692283 v -0.315202 -0.315203 l -0.05487,-0.05487 -0.05487,-0.05487 -0.577044,0.544353 -0.577043,0.544354 -0.447584,0.356314 -0.447586,0.356314 -0.7619996,0.503445 -0.7620001,0.503445 -0.8602861,0.415704 -0.8602854,0.415704 -0.8856624,0.290121 -0.8856625,0.290121 -0.9210514,0.181365 -0.9210523,0.181364 -1.2373966,0.04735 -1.2373975,0.04735 -0.83693593,-0.102804 -0.8369368,-0.102804 -0.63499997,-0.127844 -0.6350001,-0.127845 -0.9101667,-0.293486 -0.9101667,-0.293485 v -4.56776 -4.567759 h 0.068744 0.068744 l 0.1848502,0.250023 0.1848502,0.250023 0.5719055,0.456112 0.5719056,0.456111 0.4656667,0.261549 0.4656667,0.261549 0.65094694,0.212418 0.65094699,0.212419 0.81807476,0.09122 0.81807471,0.09122 0.7163656,-0.08902 0.7163664,-0.08902 L 3.8911853,35.187332 4.5421306,34.979146 5.1625798,34.633502 5.783029,34.28786 6.4131869,33.689271 7.0433449,33.090683 7.4191626,32.525372 7.7949818,31.960058 8.0458797,31.331321 8.2967775,30.702583 8.4302867,29.99473 8.563795,29.286876 V 28.79932 28.311764 L 8.4338452,27.566578 8.3038963,26.821392 8.0553403,26.200654 7.8067835,25.579914 7.4964726,25.094819 7.1861608,24.609724 6.842906,24.202645 6.4996512,23.795565 5.9018901,23.341864 5.3041282,22.888163 4.7931446,22.633499 4.28216,22.378836 3.6501445,22.180376 3.0181282,21.981916 H 1.7481281 0.47812807 l -0.63201636,0.19846 -0.63201552,0.19846 -0.51098449,0.254663 -0.5109837,0.254664 -0.6057477,0.459817 -0.6057477,0.459818 -0.3962611,0.481335 -0.3962612,0.481335 -0.3266,0.553057 -0.3266006,0.553058 -0.2114181,0.635 -0.2114181,0.635 -0.089167,0.550333 -0.089167,0.550333 -6.435e-4,10.181167 -6.357e-4,10.181167 H -8.8775389 -12.687539 V 38.067671 27.52576 l 0.131665,-0.824589 0.131665,-0.824588 0.169481,-0.677334 0.169482,-0.677333 0.26079,-0.719667 0.260791,-0.719666 0.328156,-0.656462 0.328156,-0.656461 0.348528,-0.569428 0.348529,-0.569428 0.5161511,-0.679111 0.5161513,-0.679111 0.740491,-0.735199 0.740491,-0.735199 0.6585698,-0.496192 0.6585697,-0.496191 0.635,-0.391088 0.635,-0.391088 0.6773334,-0.310805 0.6773333,-0.310806 0.6773334,-0.24334 0.6773333,-0.24334 0.6773334,-0.166519 0.6773333,-0.166519 0.67733338,-0.106151 0.67733335,-0.106151 1.39700007,-0.0041 1.397,-0.0041 0.7196667,0.11239 0.7196667,0.11239 0.508,0.122514 0.508,0.122514 0.6773334,0.21887 0.6773333,0.218871 0.8466667,0.383632 0.8466667,0.383631 0.6536538,0.403754 0.6536546,0.403753 0.6805593,0.518066 0.68056,0.518066 0.730384,0.735334 0.730384,0.735333 0.485614,0.637929 0.485615,0.637929 0.348527,0.569428 0.348529,0.569428 0.328156,0.656461 0.328156,0.656462 0.259432,0.719666 0.259431,0.719667 0.175316,0.677333 0.175315,0.677334 0.126849,0.804333 0.126851,0.804333 3.38e-4,0.917281 3.39e-4,0.917282 0.347744,-0.282282 0.347743,-0.282281 0.510048,-0.365413 0.510046,-0.365413 0.687377,-0.37144 0.687375,-0.371439 0.592667,-0.222918 0.592667,-0.222918 0.762,-0.204347 0.762,-0.204346 1.114779,-0.101056 1.114778,-0.101057 0.959555,0.100715 0.959554,0.100715 0.804334,0.213461 0.804333,0.213463 0.465667,0.182002 0.465667,0.182002 0.585823,0.290439 0.585824,0.290439 0.34551,0.221212 0.345509,0.221213 0.685243,0.526754 0.685243,0.526753 0.575803,0.619589 0.575802,0.61959 0.428462,0.613834 0.428463,0.613833 0.04616,-0.0014 0.04616,-0.0014 0.200759,-0.46376 0.200758,-0.463761 0.382994,-0.571962 0.382994,-0.57196 0.385155,-0.451667 0.385156,-0.451668 0.682092,-0.54852 0.682092,-0.54852 0.931333,-0.462447 0.931334,-0.462446 0.846666,-0.212446 0.846667,-0.212446 0.889,-0.04816 0.889,-0.04816 0.838322,0.13795 0.838321,0.137951 0.643346,0.214955 0.643344,0.214955 0.697928,0.370113 0.697929,0.370114 0.487404,0.375213 0.487406,0.375213 0.53602,0.540342 0.536019,0.540342 0.460637,0.689506 0.460637,0.689506 0.330957,0.792161 0.330959,0.792161 0.175219,0.859966 0.175219,0.859967 v 7.204533 7.204534 h -3.256977 -3.256977 l -0.02386,-7.3025 -0.02386,-7.3025 -0.194636,-0.422279 -0.194635,-0.422279 -0.186365,-0.199935 -0.186364,-0.199935 -0.413792,-0.210604 -0.413792,-0.210603 -0.44455,-0.04588 -0.44455,-0.04588 -0.472471,0.148611 -0.472471,0.14861 -0.330942,0.283274 -0.330941,0.283273 -0.200912,0.404482 -0.200909,0.404487 -0.02384,7.345825 -0.02384,7.345826 -3.278156,-0.02216 -3.278157,-0.02216 v -7.006188 -7.006187 l -0.0181,2e-5 -0.0181,2.1e-5 -4.667183,3.228026 -4.667183,3.228025 -0.114966,-0.116525 -0.114966,-0.116526 -1.356847,-1.901488 -1.356848,-1.901488 0.06939,-0.04584 0.06939,-0.04585 2.727661,-1.905 2.727659,-1.905 -0.407616,-0.186265 -0.407618,-0.186266 -0.504622,-0.131234 -0.504621,-0.131235 -0.723045,0.0013 -0.723045,0.0013 -0.550334,0.129321 -0.550333,0.129321 -0.635,0.312052 -0.635,0.312052 -0.686404,0.67921 -0.686403,0.679208 -0.352369,0.719667 -0.352368,0.719667 -0.13381,0.635 -0.133809,0.635 0.04316,0.769772 0.04316,0.769773 0.213258,0.613224 0.213258,0.613224 0.28116,0.475182 0.28116,0.475183 0.515989,0.522044 0.515989,0.522046 0.584678,0.343474 0.584677,0.343475 0.567944,0.172282 0.567945,0.172282 0.617389,0.05201 0.617389,0.05201 0.702309,-0.126628 0.702309,-0.126628 0.544794,-0.254939 0.544794,-0.25494 0.365532,-0.251493 0.365532,-0.251493 0.320778,-0.325265 0.320777,-0.325266 0.139831,0.205183 0.13983,0.205183 1.671588,2.334817 1.671589,2.334817 -0.315831,0.277947 -0.315832,0.277947 -0.635,0.429978 -0.635,0.429979 -0.846666,0.408261 -0.846667,0.408263 -0.759475,0.21997 -0.759475,0.21997 -0.764525,0.124003 -0.764525,0.124002 -1.143,-0.0083 -1.143,-0.0083 -0.635,-0.108757 z m 49.911001,-0.0056 -0.677333,-0.114448 -0.742386,-0.21568 -0.742386,-0.215681 -0.787855,-0.368167 -0.787855,-0.368166 -0.742266,-0.488821 -0.742266,-0.48882 -0.809195,-0.772767 -0.809194,-0.77277 -0.410799,-0.541793 -0.410798,-0.541793 v 2.039439 2.039438 l -0.402167,0.06869 -0.402167,0.06869 -2.032,-1.7e-4 -2.032,-1.69e-4 -0.709168,-0.111892 -0.709169,-0.111892 -0.645498,-0.163565 -0.645498,-0.163566 -0.465667,-0.184989 -0.465667,-0.184989 -0.580578,-0.343753 -0.580579,-0.343753 -0.520088,-0.520647 -0.520088,-0.520647 -0.284925,-0.473237 -0.284927,-0.473237 -0.24471,-0.709953 -0.244709,-0.709952 -0.126033,-0.836163 -0.126031,-0.836093 -4.99e-4,-10.436161 -4.99e-4,-10.436161 3.280833,0.02216 3.280834,0.02216 0.02224,3.026834 0.02224,3.026833 h 2.706785 2.706784 l 0.02265,2.083938 0.02265,2.083938 0.276851,-0.385624 0.276851,-0.385625 0.441274,-0.482824 0.441275,-0.482825 0.678874,-0.563865 0.678875,-0.563865 0.635984,-0.393808 0.635985,-0.393808 0.634015,-0.289451 0.634016,-0.28945 0.550334,-0.187255 0.550333,-0.187255 0.804333,-0.176317 0.804334,-0.176317 1.397,8.3e-5 1.397,8.2e-5 0.758926,0.147245 0.758927,0.147244 0.770695,0.246874 0.770687,0.246874 0.814358,0.414617 0.814366,0.414618 0.704021,0.494108 0.70402,0.494108 0.8255,0.829142 0.8255,0.829143 v -4.784863 -4.784862 h 3.302 3.302 v 10.017918 10.017917 l 0.133249,0.391058 0.133248,0.391057 0.368241,0.339434 0.36824,0.339434 0.493345,0.149008 0.493344,0.149006 1.756757,0.0034 1.756757,0.0034 7.6e-5,2.809074 7.7e-5,2.809075 -0.486834,0.06959 -0.486833,0.06959 -1.989667,-0.002 -1.989666,-0.002 L 89.515629,48.453184 88.806461,48.343211 88.160963,48.179646 87.515464,48.01608 87.049797,47.831091 86.584131,47.646102 86.015933,47.3085 85.447726,46.970899 84.973373,46.507761 84.499028,46.044623 84.226164,45.61261 83.9533,45.180596 83.715378,44.643802 83.477457,44.10701 83.30422,43.331469 l -0.173228,-0.77554 -0.05143,-3.922815 -0.05143,-3.922815 -4.557785,3.150844 -4.557776,3.150844 -0.116832,-0.117029 -0.116831,-0.117029 -1.349494,-1.901663 -1.349493,-1.901665 0.944105,-0.662626 0.944105,-0.662628 1.846462,-1.288042 1.846453,-1.288043 -0.40712,-0.186266 -0.407128,-0.186266 -0.504622,-0.131234 -0.504622,-0.131234 -0.723044,0.0013 -0.723045,0.0013 -0.550334,0.129321 -0.550333,0.129321 -0.635,0.312052 -0.635,0.312052 -0.686404,0.679209 -0.686403,0.679209 -0.352369,0.719667 -0.352368,0.719667 -0.13381,0.635 -0.133809,0.635 0.04442,0.762 0.04442,0.762 0.212018,0.621023 0.212018,0.621024 0.281144,0.470614 0.281143,0.470615 0.508,0.519215 0.508,0.519216 0.508813,0.309079 0.508813,0.309078 0.67652,0.232546 0.676521,0.232546 0.931333,0.0014 0.931333,0.0014 0.503572,-0.150231 0.503572,-0.150231 0.512428,-0.256632 0.512428,-0.256631 0.381,-0.301991 0.381,-0.301991 0.182914,-0.217313 0.182906,-0.217312 0.0473,0.04676 0.04729,0.04676 1.777729,2.493238 1.777721,2.493239 -0.314596,0.282166 -0.314596,0.282165 -0.700913,0.465573 -0.700904,0.465573 -0.800371,0.374016 -0.800371,0.374015 -0.73986,0.214404 -0.739868,0.214403 -0.764523,0.124002 -0.764523,0.124002 -1.143,-0.0083 -1.143,-0.0083 -0.677334,-0.114449 z M 63.512463,42.76334 v -0.08887 l -0.126735,-0.245079 -0.126735,-0.245078 -0.255282,-0.787588 -0.255281,-0.787588 -0.120053,-0.719962 -0.120055,-0.719963 -0.05509,-0.677333 -0.05509,-0.677333 0.09178,-0.985105 0.09178,-0.985103 0.202963,-0.800101 0.202963,-0.800101 0.262418,-0.655359 0.262418,-0.655359 v -0.03594 -0.03594 H 61.268797 59.02513 v 4.174376 4.174376 l 0.21447,0.430385 0.21447,0.430386 0.314697,0.216507 0.314696,0.216506 0.254,0.09699 0.254,0.09699 0.550334,0.06594 0.550333,0.06594 0.910167,0.01113 0.910166,0.01113 z"
         id="path7307" />
      <path
         style="fill:#efabb0;stroke-width:0.0846667"
         d="M 22.237462,49.245096 21.560129,49.125453 20.80125,48.904993 20.042372,48.684532 19.446584,48.424793 18.850795,48.165052 18.280427,47.833911 17.710059,47.502769 17.044373,47.001159 16.378685,46.499549 15.654472,45.738525 14.930259,44.977501 14.457013,44.266257 13.983767,43.555012 13.60903,42.759131 13.234292,41.96325 13.055504,41.412916 12.876716,40.862583 12.709922,40.04495 12.543128,39.227316 V 38.83845 38.449583 h -0.0493 -0.0493 L 11.879997,39.009151 11.315464,39.56872 10.63813,40.098724 9.960797,40.628728 9.4650805,40.944439 8.9693647,41.260151 8.1199074,41.685404 7.2704493,42.110658 6.455149,42.387908 5.639848,42.665159 4.8369895,42.836811 4.0341302,43.008464 3.193413,43.112059 2.352695,43.215655 1.2460796,43.162995 0.13946339,43.110335 -0.58020329,42.98984 -1.29987,42.869346 l -0.6773333,-0.175444 -0.6773334,-0.175444 -0.508,-0.198012 -0.508,-0.198013 -0.021909,-4.56037 -0.021909,-4.56037 0.5722425,0.548968 0.5722426,0.548969 0.4038972,0.27523 0.4038973,0.275231 0.5274361,0.246804 0.5274361,0.246804 0.65850603,0.168406 0.65850603,0.168405 0.73849404,0.05457 0.738494,0.05457 0.7955492,-0.1385 0.79555,-0.138499 0.6227843,-0.249375 0.6227852,-0.249375 0.4816162,-0.308086 0.481617,-0.308087 0.3641471,-0.304389 0.3641471,-0.30439 0.4131217,-0.511851 0.4131217,-0.511853 0.2653496,-0.473226 0.2653504,-0.473226 0.2073589,-0.593507 0.2073588,-0.593507 0.087931,-0.541933 0.087932,-0.541934 6.773e-4,-0.60448 6.773e-4,-0.60448 L 8.4364504,27.467251 8.3090304,26.795546 8.097567,26.255959 7.8861043,25.71637 7.5332137,25.119144 7.1803238,24.521916 6.5809304,23.925896 5.9815369,23.329875 5.4795406,23.001138 4.9775443,22.672401 4.3937888,22.427134 3.8100333,22.181865 3.2024517,22.052607 2.5948702,21.923349 H 1.7482035 0.90153677 l -0.60758156,0.129258 -0.60758157,0.129258 -0.58375552,0.245269 -0.58375552,0.245267 -0.5019963,0.327563 -0.5019963,0.327562 -0.635,0.641035 -0.635,0.641035 -0.3580952,0.634925 -0.3580957,0.634927 -0.2094996,0.599634 -0.2094997,0.599633 -0.087932,0.541934 -0.088007,0.541934 -6.396e-4,10.2235 -6.396e-4,10.2235 h -3.8100001 -3.8100005 l 3.9e-4,-10.435167 3.9e-4,-10.435167 0.164824,-1.100666 0.164824,-1.100667 0.215648,-0.733297 0.215649,-0.733297 0.33763,-0.826621 0.33763,-0.826622 0.403341,-0.70813 0.403341,-0.70813 0.6425547,-0.864618 0.6425546,-0.864619 0.7121121,-0.708424 0.7121122,-0.708424 0.6367775,-0.487121 0.6367777,-0.487121 0.5694279,-0.348529 0.5694279,-0.348528 0.6864637,-0.345147 0.6864637,-0.345147 0.6741693,-0.248574 0.6741685,-0.248574 0.8198291,-0.205209 0.81982819,-0.205208 0.67733336,-0.104354 0.67733335,-0.104354 1.397,0.0039 1.3970001,0.0039 0.762,0.12896 0.762,0.12896 0.6773334,0.173975 0.6773333,0.173974 0.6997608,0.256304 0.6997607,0.256304 0.6125726,0.306099 0.6125727,0.306099 0.508,0.30317 0.508,0.30317 0.8043326,0.607909 0.804334,0.607909 0.846666,0.879695 0.846667,0.879694 0.476494,0.676391 0.476495,0.676391 0.390161,0.677333 0.390161,0.677333 0.345964,0.846667 0.345964,0.846667 0.203152,0.699704 0.203151,0.699705 0.13945,0.781962 0.139449,0.781962 0.05345,1.141132 0.05345,1.141133 0.338666,-0.30084 0.338667,-0.300838 0.550333,-0.382454 0.550334,-0.382454 0.465666,-0.260139 0.465667,-0.260138 0.74766,-0.308344 0.74766,-0.308344 0.829958,-0.205354 0.829957,-0.205353 1.032934,-0.09426 1.032933,-0.09426 0.959407,0.09368 0.959405,0.09368 0.793494,0.201286 0.793494,0.201287 0.758882,0.311622 0.758883,0.311623 0.592667,0.344306 0.592666,0.344307 0.465667,0.341857 0.465667,0.341857 0.562498,0.494074 0.562497,0.494074 0.466526,0.570762 0.466526,0.570762 0.299571,0.445717 0.29957,0.445718 0.262186,-0.549362 0.262187,-0.549364 0.412738,-0.616021 0.412738,-0.616022 0.705814,-0.683952 0.705816,-0.683953 0.508,-0.341626 0.508,-0.341627 0.508,-0.253771 0.508,-0.253773 0.538606,-0.184299 0.538605,-0.184299 0.562061,-0.115639 0.562061,-0.11564 0.593194,-0.05706 0.593195,-0.05706 0.888472,0.09642 0.888472,0.09642 0.465667,0.128896 0.465667,0.128895 0.465666,0.1676 0.465667,0.167599 0.550333,0.299897 0.550334,0.299898 0.550333,0.406759 0.550334,0.406759 0.556142,0.579117 0.556142,0.579117 0.342534,0.508 0.342533,0.508 0.298045,0.592667 0.298046,0.592666 0.184901,0.592667 0.184902,0.592667 0.121095,0.677333 0.121095,0.677333 8.5e-5,7.133167 8.4e-5,7.133167 H 47.72475 44.467759 l -0.02384,-7.344833 -0.02384,-7.344834 -0.197943,-0.40194 -0.197943,-0.40194 -0.341095,-0.291965 -0.341095,-0.291964 -0.386212,-0.131595 -0.386149,-0.131596 h -0.393168 -0.393169 l -0.391386,0.133358 -0.391386,0.133359 -0.375949,0.330925 -0.37595,0.330924 -0.157914,0.361216 -0.157913,0.361218 -0.02341,7.344834 -0.02342,7.344833 h -3.257418 -3.257418 v -7.064036 -7.064038 l -4.712382,3.258798 -4.712382,3.258797 -0.101204,-0.110594 -0.101204,-0.110594 -1.289999,-1.812006 -1.289998,-1.812007 -0.03961,-0.10321 -0.03961,-0.10321 2.763662,-1.933034 2.76366,-1.933033 -0.14651,-0.107131 -0.146512,-0.107131 -0.559127,-0.193286 -0.559127,-0.193285 -1.185333,0.0034 -1.185333,0.0034 -0.570785,0.218632 -0.570784,0.218632 -0.474903,0.285934 -0.474901,0.285935 -0.520647,0.520647 -0.520647,0.520647 -0.28116,0.467023 -0.28116,0.467023 -0.214618,0.617135 -0.214618,0.617133 -0.04494,0.815627 -0.04494,0.815627 0.145025,0.651858 0.145024,0.651857 0.34462,0.688529 0.344619,0.688528 0.601411,0.60727 0.601411,0.607269 0.550333,0.302798 0.550333,0.302798 0.54546,0.17704 0.545461,0.177042 0.686118,0.05274 0.68612,0.05274 0.715754,-0.143843 0.715754,-0.143842 0.592667,-0.283713 0.592667,-0.283712 0.592666,-0.499043 0.592667,-0.499042 1.722518,2.418266 1.722519,2.418267 0.04654,0.114075 0.04653,0.114074 -0.245054,0.201748 -0.245054,0.201747 -0.602234,0.42206 -0.602235,0.422059 -0.766563,0.386603 -0.766564,0.386602 -0.620868,0.213737 -0.620869,0.213736 -0.762,0.17159 -0.762,0.17159 -1.397001,0.03193 -1.397,0.03193 -0.677333,-0.119644 z m 49.779404,-0.0321 -0.85127,-0.155142 -0.715066,-0.237076 -0.715066,-0.237076 -0.609656,-0.276673 -0.609655,-0.276673 -0.850224,-0.560612 -0.850224,-0.560611 -0.763656,-0.726718 -0.763657,-0.726718 -0.401131,-0.54643 -0.401131,-0.54643 -0.02265,2.029313 -0.02265,2.029313 -0.273683,0.05036 -0.273683,0.05036 -1.481666,0.05542 -1.481667,0.05542 -1.100667,-0.09836 -1.100666,-0.09836 -0.762713,-0.16038 -0.762711,-0.16038 -0.578265,-0.217659 -0.578264,-0.217658 -0.52169,-0.27578 -0.521691,-0.27578 -0.686651,-0.6777 -0.68665,-0.6777 -0.395953,-0.804334 -0.395953,-0.804333 -0.183495,-0.804333 -0.183494,-0.804334 -0.02813,-10.7315 -0.02813,-10.7315 h 3.262731 3.262731 v 3.005667 3.005666 h 2.750188 2.750187 l 0.02265,2.07516 0.02265,2.075161 0.69102,-0.838782 0.691019,-0.838782 0.790647,-0.632452 0.790647,-0.632453 0.762487,-0.456789 0.762487,-0.45679 0.71918,-0.284292 0.71918,-0.284292 0.772757,-0.196116 0.772756,-0.196117 0.876817,-0.09648 0.876817,-0.09648 0.805764,0.0541 0.805756,0.0541 0.719666,0.127039 0.719667,0.127039 0.592667,0.177718 0.592666,0.177717 0.592667,0.250115 0.592667,0.250115 0.592667,0.34313 0.592666,0.343131 0.606772,0.446705 0.606773,0.446705 0.769061,0.777901 0.769061,0.7779 v -4.752615 -4.752616 h 3.300662 3.300654 l 0.02251,10.1455 0.0225,10.145499 0.25682,0.415371 0.256819,0.415369 0.469824,0.240276 0.469824,0.240275 0.628023,0.08187 0.628024,0.08187 1.354667,-0.01888 1.354666,-0.01889 v 2.784583 2.784583 l -0.338666,0.08355 -0.338667,0.08354 -2.116667,0.0013 -2.116666,0.0013 -0.677334,-0.107453 -0.677333,-0.107452 -0.786003,-0.205218 -0.786003,-0.205216 -0.621902,-0.287339 -0.621911,-0.287339 -0.463067,-0.342087 -0.463068,-0.342087 -0.432274,-0.485005 -0.432274,-0.485004 -0.295402,-0.562142 -0.295394,-0.562143 -0.212716,-0.734026 -0.212708,-0.734026 -0.08761,-0.998489 -0.0876,-0.998488 -8.47e-4,-3.196167 -8.46e-4,-3.196166 h -0.04697 -0.04697 l -4.537575,3.138259 -4.537583,3.138259 -0.102032,-0.111426 -0.10204,-0.111426 -1.289999,-1.812006 -1.289995,-1.812007 -0.03995,-0.104105 -0.03995,-0.104104 2.765707,-1.930892 2.765713,-1.930893 -0.148217,-0.108377 -0.148218,-0.108378 -0.559122,-0.193286 -0.55913,-0.193285 -1.185333,0.0034 -1.185334,0.0034 -0.570788,0.218632 -0.570781,0.218632 -0.473978,0.285935 -0.473978,0.285934 -0.502419,0.49659 -0.50242,0.496591 -0.330926,0.561743 -0.330924,0.561743 -0.183683,0.550333 -0.183683,0.550333 -0.04526,0.811765 -0.04527,0.811765 0.145024,0.651858 0.145025,0.651857 0.34462,0.688529 0.344618,0.688527 0.601411,0.60727 0.601411,0.60727 0.550334,0.302797 0.550333,0.302798 0.550333,0.178675 0.550334,0.178677 0.726592,0.05161 0.726593,0.05161 0.670407,-0.149126 0.670408,-0.149125 0.454719,-0.201069 0.454719,-0.201068 0.518948,-0.371974 0.518947,-0.371972 0.203056,-0.218489 0.203056,-0.218487 1.798659,2.516487 1.798659,2.516488 -0.266048,0.232129 -0.266048,0.23213 -0.602234,0.421086 -0.602234,0.421086 -0.766564,0.386602 -0.766563,0.386603 -0.62087,0.213736 -0.620869,0.213736 -0.762,0.17159 -0.762,0.17159 -1.397,0.03363 -1.397,0.03364 -0.851264,-0.155143 z M 63.38564,42.378858 63.176285,41.90547 62.971968,41.257025 62.767652,40.60858 l -0.145218,-0.762 -0.145217,-0.762 0.0016,-1.27 0.0016,-1.27 0.170113,-0.846667 0.170113,-0.846667 0.249892,-0.719666 0.249892,-0.719667 0.140103,-0.318864 0.140102,-0.318864 -2.308873,0.02253 -2.308878,0.02253 v 4.106334 4.106333 l 0.116312,0.338667 0.116312,0.338667 0.206437,0.276401 0.206439,0.2764 0.422322,0.214007 0.422322,0.214007 0.482595,0.07077 0.482594,0.07077 1.078432,0.01032 1.078433,0.01032 z"
         id="path7305" />
      <path
         style="fill:#ea8c92;stroke-width:0.0846667"
         d="m 22.364462,49.245724 -0.719667,-0.107306 -0.516578,-0.136474 -0.516579,-0.136473 -0.566596,-0.213266 -0.566595,-0.213266 -0.607312,-0.300142 -0.607313,-0.300142 -0.683973,-0.459816 -0.683973,-0.459817 -0.65374,-0.60238 -0.653739,-0.602381 -0.488371,-0.605505 -0.488371,-0.605506 -0.352855,-0.550334 -0.352855,-0.550333 -0.295785,-0.64061 -0.295783,-0.640609 -0.224376,-0.668401 -0.224374,-0.668401 -0.161249,-0.831825 -0.16125,-0.831825 v -0.335665 -0.335664 h -0.05139 -0.05139 l -0.848536,0.806817 -0.848536,0.806819 -0.8915865,0.596191 -0.8915858,0.596191 -0.8119872,0.407413 -0.8119872,0.407412 -0.9025645,0.30834 -0.9025636,0.30834 -0.7484364,0.162248 -0.7484356,0.162248 -1.0755851,0.103228 -1.075585,0.103228 -1.1680817,-0.09938 -1.16808169,-0.09938 -0.80433331,-0.169122 -0.8043334,-0.169122 -0.7831667,-0.260051 -0.7831667,-0.260051 v -4.541406 -4.541405 l 0.5291667,0.51115 0.5291667,0.51115 0.3215233,0.234615 0.3215234,0.234615 0.6944767,0.321954 0.69447664,0.321955 0.59266669,0.156574 0.59266668,0.156574 1.14299999,-0.0075 1.1430001,-0.0075 0.762,-0.229261 0.762,-0.229262 L 5.001854,34.755006 5.5462446,34.456807 6.0450963,34.072949 6.5439481,33.689092 7.0011989,33.134746 7.4584489,32.5804 7.7939355,31.935553 8.1294221,31.290705 8.3107756,30.658023 8.492129,30.02534 8.539032,29.089623 8.585934,28.153906 8.4412349,27.438535 8.296537,26.723252 8.0423203,26.111953 7.7881035,25.500655 7.4517677,24.980278 7.1154328,24.459902 6.6754472,23.993846 6.2354616,23.52779 5.7184412,23.158257 5.2014208,22.788723 4.6601078,22.535425 4.1187949,22.282128 3.4414615,22.102114 2.7641281,21.922099 h -1.016 -1.01600002 l -0.67733335,0.180015 -0.67733336,0.180014 -0.54131297,0.253297 -0.541313,0.253298 -0.5170204,0.369534 -0.5170204,0.369533 -0.4273592,0.454731 -0.4273593,0.454731 -0.2598843,0.381 -0.2598852,0.381 -0.2631141,0.522509 -0.2631142,0.522509 -0.1914653,0.620491 -0.1914653,0.620488 -0.04351,10.541 -0.04351,10.541001 -3.7921612,0.02204 -3.7921615,0.02204 0.03187,-10.817041 0.03187,-10.817041 0.132863,-0.635 0.132862,-0.635 0.137792,-0.550333 0.137793,-0.550333 0.177102,-0.508 0.177103,-0.508 0.385501,-0.846667 0.385502,-0.846667 0.420027,-0.677333 0.420026,-0.677334 0.526874,-0.677333 0.5268737,-0.677333 0.8410347,-0.804334 0.8410346,-0.804333 0.8004282,-0.571869 0.8004281,-0.571868 1.1006667,-0.545469 1.1006667,-0.545469 0.7620001,-0.253769 0.762,-0.253768 0.8799492,-0.178133 0.87994911,-0.178133 1.0250509,-0.07201 1.02505089,-0.07201 0.9736667,0.07236 0.9736667,0.07236 0.5431976,0.0925 0.5431977,0.0925 0.6421357,0.172634 0.6421357,0.172634 0.5923772,0.209968 0.5923762,0.209968 0.6776238,0.318369 0.6776229,0.318369 0.762,0.474754 0.7619999,0.474754 0.677334,0.545335 0.677333,0.545334 0.678542,0.708999 0.678544,0.708998 0.388168,0.508 0.388169,0.508 0.418856,0.677369 0.418857,0.677368 0.38763,0.846632 0.387631,0.846632 0.177102,0.508 0.177103,0.508 0.13728,0.548834 0.137281,0.548835 0.123516,0.678832 0.123516,0.678832 0.05108,1.121833 0.05108,1.121834 h 0.03732 0.03731 l 0.436837,-0.369249 0.436837,-0.369248 0.508,-0.343205 0.508,-0.343205 0.762,-0.378209 0.762,-0.37821 0.824752,-0.263441 0.824753,-0.263439 0.741581,-0.133485 0.741581,-0.133483 1.27,-0.0021 1.27,-0.0021 0.855477,0.176398 0.855477,0.176398 0.668523,0.222587 0.668523,0.222586 0.745675,0.371681 0.745673,0.371683 0.608993,0.413778 0.608992,0.413778 0.517611,0.453368 0.51761,0.453369 0.423687,0.465667 0.423686,0.465667 0.473611,0.660522 0.473612,0.660524 0.310292,-0.61819 0.310292,-0.61819 0.3068,-0.464813 0.306799,-0.464813 0.550334,-0.58651 0.550333,-0.58651 0.667885,-0.497095 0.667883,-0.497096 0.686783,-0.330947 0.686783,-0.330947 0.739186,-0.212913 0.739187,-0.212912 0.822641,-0.08416 0.822642,-0.08416 0.867055,0.08215 0.867057,0.08215 0.729129,0.211294 0.72913,0.211293 0.609654,0.29195 0.609652,0.291951 0.546867,0.360404 0.546868,0.360403 0.573597,0.541103 0.573597,0.541102 0.416898,0.562536 0.416897,0.562536 0.337936,0.635 0.337935,0.635 0.217415,0.641148 0.217417,0.641148 0.129446,0.798185 0.129447,0.798186 3.38e-4,7.0485 3.39e-4,7.0485 h -3.257418 -3.257418 l -0.02342,-7.344833 -0.02341,-7.344834 -0.137575,-0.302491 -0.137576,-0.30249 -0.277741,-0.316331 -0.277742,-0.316331 -0.346683,-0.184496 -0.346683,-0.184495 h -0.719667 -0.719666 l -0.338667,0.182064 -0.338667,0.182065 -0.270876,0.282586 -0.270875,0.282586 -0.152458,0.338667 -0.152457,0.338666 -0.04233,7.323667 -0.04233,7.323667 -3.238017,0.02217 -3.238016,0.02217 -0.02165,-7.056184 -0.02165,-7.056185 -4.572,3.165698 -4.572,3.165698 -0.136283,0.0761 -0.136283,0.0761 -1.424615,-1.997085 -1.424615,-1.997086 0.163898,-0.122229 0.163898,-0.122229 2.616512,-1.827092 2.616513,-1.827092 -0.152386,-0.111428 -0.152385,-0.111426 -0.516794,-0.171735 -0.516793,-0.171736 -0.635,-0.07988 -0.635,-0.07988 -0.550334,0.06957 -0.550333,0.06957 -0.381,0.102529 -0.381,0.10253 -0.667643,0.346133 -0.667643,0.346133 -0.560024,0.557544 -0.560023,0.557542 -0.319742,0.548885 -0.319742,0.548885 -0.177104,0.550333 -0.177104,0.550333 -0.04074,0.889 -0.04074,0.889 0.135407,0.576692 0.135407,0.576692 0.31515,0.650975 0.31515,0.650975 0.680748,0.68443 0.680747,0.684431 0.718618,0.354261 0.718616,0.354261 0.592667,0.124005 0.592667,0.124005 h 0.550333 0.550333 l 0.556844,-0.118042 0.556843,-0.11804 0.563846,-0.255661 0.563847,-0.25566 0.491821,-0.378448 0.491821,-0.378447 0.112356,-0.135381 0.112357,-0.135381 h 0.06689 0.06689 l 1.743078,2.453055 1.743079,2.453054 -0.0017,0.06578 -0.0017,0.06578 -0.702372,0.528573 -0.702372,0.528574 -0.883395,0.461043 -0.883396,0.461043 -0.774213,0.259124 -0.774213,0.259125 -0.991034,0.169426 -0.991025,0.169421 -0.944086,-0.0093 -0.944086,-0.0093 z m 50.091748,0.02979 -0.581259,-0.07464 -0.676457,-0.172715 -0.676456,-0.172714 -0.520287,-0.195854 -0.520287,-0.195854 -0.613928,-0.309188 -0.613926,-0.309188 -0.486741,-0.309401 -0.486739,-0.309402 -0.592667,-0.48337 -0.592666,-0.48337 -0.466592,-0.497284 -0.466592,-0.497283 -0.337742,-0.449554 -0.337741,-0.449553 -0.02266,2.030473 -0.02266,2.030475 -0.570009,0.07008 -0.57001,0.07008 -1.862667,-0.01096 -1.862667,-0.01095 -0.846666,-0.139772 -0.846667,-0.139772 -0.635,-0.176377 -0.635,-0.176378 -0.51961,-0.234757 L 55.572896,47.44353 55.06637,47.099554 54.559842,46.755578 54.076883,46.22208 53.593924,45.688583 53.261031,45.01125 52.92814,44.333916 l -0.170081,-0.674567 -0.17008,-0.674566 -0.0827,-0.934101 -0.0827,-0.934099 -7.24e-4,-10.011834 -7.24e-4,-10.011833 h 3.259666 3.259667 v 3.005667 3.005666 h 2.751667 2.751667 l 0.0027,2.0955 0.0027,2.0955 0.209714,-0.254 0.209714,-0.254 0.655444,-0.719666 0.655443,-0.719667 0.481162,-0.400206 0.481161,-0.400205 0.577384,-0.373508 0.577383,-0.373507 0.677122,-0.338405 0.677122,-0.338404 0.635,-0.215952 0.635,-0.215951 0.889,-0.182244 0.889,-0.182244 1.227667,-1.69e-4 1.227666,-1.69e-4 0.804334,0.139632 0.804333,0.139632 0.87437,0.291186 0.874361,0.291185 0.607305,0.30385 0.607298,0.30385 0.680889,0.45197 0.680881,0.45197 0.595427,0.535511 0.595418,0.53551 0.395859,0.447327 0.395859,0.447326 v -4.786493 -4.786493 h 3.302 3.302 l 0.0019,10.054167 0.0019,10.054167 0.172128,0.379477 0.172136,0.379477 0.14351,0.158841 0.14351,0.15884 0.395926,0.20078 0.395927,0.200779 0.583226,0.09049 0.583235,0.09049 1.412791,-0.02525 1.41279,-0.02526 v 2.809074 2.809075 l -0.486833,0.0679 -0.486834,0.0679 -1.905,-0.0049 -1.905,-0.0049 -0.904333,-0.145842 -0.904333,-0.145842 -0.535,-0.155377 -0.535001,-0.155376 -0.465666,-0.184874 -0.465667,-0.184874 -0.610023,-0.37875 -0.610024,-0.378748 -0.44831,-0.496726 -0.44831,-0.496727 -0.285936,-0.474015 -0.285936,-0.474016 -0.201354,-0.554733 -0.201355,-0.554732 -0.137465,-0.735719 -0.137456,-0.735718 -0.05258,-3.811878 -0.05259,-3.811877 -4.445,3.076577 -4.445001,3.076578 -0.136279,0.07575 -0.136288,0.07575 -1.420614,-1.991484 -1.420623,-1.991483 0.07524,-0.071 0.07524,-0.071 2.701324,-1.883817 2.701324,-1.883817 -0.152527,-0.111533 -0.152536,-0.111532 -0.516788,-0.171735 -0.516797,-0.171736 -0.635,-0.07988 -0.635,-0.07988 -0.550333,0.06957 -0.550334,0.06957 -0.381,0.102529 -0.381,0.10253 -0.669747,0.347227 -0.669747,0.347229 -0.55792,0.560918 -0.557919,0.560918 -0.319742,0.544415 -0.319741,0.544415 -0.176159,0.550333 -0.17616,0.550333 -0.04453,0.824258 -0.04453,0.824259 0.101715,0.517009 0.101715,0.517008 0.222077,0.5214 0.222076,0.5214 0.318138,0.47581 0.318137,0.475811 0.533498,0.482959 0.533497,0.482959 0.677333,0.333922 0.677334,0.333922 0.592666,0.124005 0.592667,0.124005 h 0.550333 0.550334 l 0.590237,-0.125028 0.590236,-0.125029 0.602497,-0.286125 0.602496,-0.286124 0.561552,-0.476377 0.561552,-0.476377 h 0.03818 0.03818 l 1.742364,2.449989 1.742364,2.44999 -0.0036,0.06884 -0.0036,0.06884 -0.435313,0.338667 -0.435306,0.338666 -0.422063,0.287055 -0.422063,0.287055 -0.938183,0.449475 -0.938192,0.449475 -0.7599,0.21875 -0.759892,0.21875 -0.827049,0.12422 -0.827041,0.12422 -0.910726,-0.01071 -0.910725,-0.01071 -0.581254,-0.07464 z m -9.103759,-6.994768 -0.235075,-0.5715 -0.177778,-0.592667 -0.177778,-0.592667 -0.13683,-0.719667 -0.136831,-0.719666 -0.0026,-1.185334 -0.0026,-1.185333 0.133798,-0.768372 0.133798,-0.768373 0.202024,-0.67096 0.202023,-0.670962 0.221273,-0.497368 0.221272,-0.497368 v -0.0318 -0.0318 h -2.333359 -2.333357 l 0.02619,4.212167 0.02619,4.212167 0.152208,0.33751 0.152208,0.337512 0.185014,0.196939 0.185015,0.196939 0.272776,0.168585 0.272776,0.168585 0.533002,0.115734 0.533001,0.115734 1.159365,0.0067 1.159365,0.0067 -0.235075,-0.5715 z"
         id="path7303" />
      <path
         style="fill:#e77b83;stroke-width:0.0846667"
         d="m 22.491462,49.246932 -0.762,-0.106681 -0.550333,-0.144142 -0.550334,-0.144141 -0.592666,-0.210715 -0.592667,-0.210714 -0.804333,-0.426635 -0.804334,-0.426635 -0.635,-0.470672 -0.635,-0.47067 -0.765721,-0.770005 -0.76572,-0.770006 -0.565979,-0.852012 -0.565979,-0.852013 -0.298234,-0.645488 -0.298234,-0.645489 -0.251756,-0.788499 -0.251756,-0.788499 -0.129144,-0.751924 -0.129144,-0.751924 v -0.337957 -0.337958 l -0.828581,0.793549 -0.828581,0.793547 -0.782045,0.550334 -0.7820461,0.550333 -0.8235399,0.442041 -0.82354,0.44204 -0.8891686,0.332169 -0.8891693,0.332169 -0.9741281,0.218479 -0.9741282,0.218479 -1.0153692,0.09107 -1.0153702,0.09107 -0.8043333,-0.05119 -0.80433337,-0.05119 -0.63500002,-0.08643 -0.63500002,-0.08643 L -1.6385387,42.7575 -2.315872,42.590797 -2.9720387,42.375904 -3.6282054,42.161011 v -4.533478 -4.533478 l 0.6254547,0.594122 0.6254556,0.594121 0.5810444,0.336442 0.5810454,0.336444 0.47348394,0.174683 0.47348396,0.174684 0.64477986,0.133182 0.64477984,0.133183 0.6597363,-6.77e-4 0.6597362,-6.78e-4 0.5419336,-0.08793 0.5419335,-0.08793 0.5900505,-0.206152 0.5900497,-0.206151 0.5419623,-0.303082 0.5419624,-0.303083 0.5096357,-0.424124 0.5096367,-0.424123 0.3784058,-0.480905 0.3784067,-0.480904 0.329968,-0.635 0.329968,-0.635 0.1983774,-0.635 0.1983766,-0.635 -0.00216,-1.27 -0.00215,-1.27 -0.1980387,-0.635 -0.1980379,-0.635 -0.2558948,-0.508 -0.2558949,-0.508 -0.3169018,-0.46567 -0.3169023,-0.465666 -0.4970103,-0.470135 -0.4970103,-0.470135 -0.381,-0.259309 -0.381,-0.259309 L 4.7798265,22.586936 4.3401914,22.364919 3.5944931,22.141005 2.848794,21.917091 l -1.0583334,-0.0048 -1.05833337,-0.0048 -0.59266668,0.153017 -0.59266669,0.153018 -0.60745376,0.277911 -0.6074545,0.27791 -0.4085455,0.279156 -0.4085463,0.279154 -0.4943365,0.469014 -0.4943374,0.469013 -0.2880199,0.392362 -0.2880191,0.39236 -0.2875033,0.582427 -0.2875031,0.582428 -0.2001404,0.592666 -0.2001395,0.592743 -0.023384,10.562166 -0.023383,10.562167 H -8.8797557 -12.687539 V 38.373887 28.222858 l 0.08915,-0.876805 0.08915,-0.876804 0.128057,-0.635 0.128058,-0.635 0.326316,-0.983173 0.326315,-0.983173 0.35474,-0.71016 0.35474,-0.710161 0.3025,-0.508 0.302501,-0.508 0.6286721,-0.825545 0.6286723,-0.825545 0.825058,-0.783122 0.8250581,-0.783121 0.6686705,-0.477484 0.6686705,-0.477484 0.7609239,-0.434103 0.7609237,-0.434103 0.9747431,-0.376801 0.9747428,-0.376801 0.8466667,-0.205991 0.84666666,-0.205991 0.70696331,-0.09899 0.70696245,-0.09899 1.28270428,0.0027 1.2827034,0.0027 0.9736667,0.168244 0.9736667,0.168243 0.762,0.220716 0.7620001,0.220715 0.889,0.37863 0.889,0.378629 0.7196667,0.436603 0.7196667,0.436602 0.6042083,0.446179 0.604209,0.446179 0.717937,0.679587 0.717936,0.679587 0.540522,0.683938 0.540521,0.683937 0.319966,0.481761 0.319964,0.48176 0.452705,0.889 0.452705,0.889 0.259378,0.719667 0.25938,0.719666 0.140963,0.550334 0.140964,0.550333 0.120201,0.719667 0.120201,0.719667 0.05352,1.12562 0.05352,1.12562 0.261937,-0.249619 0.261939,-0.24962 0.645282,-0.459641 0.645282,-0.459641 0.763888,-0.394533 L 19.55247,27.190236 20.4293,26.9 l 0.876829,-0.290236 0.829826,-0.138424 0.829827,-0.138424 1.131786,8.63e-4 1.131786,8.64e-4 0.790055,0.135783 0.790053,0.135783 0.889,0.296034 0.889,0.296033 0.793497,0.417679 0.793497,0.417679 0.657996,0.473761 0.657997,0.473762 0.735702,0.741038 0.735702,0.741038 0.497492,0.695966 0.497492,0.695966 0.311304,-0.618628 0.311303,-0.618629 0.331011,-0.487836 0.331012,-0.487836 0.52229,-0.558329 0.522289,-0.558329 0.468709,-0.35655 0.468708,-0.35655 0.511931,-0.307445 0.511931,-0.307445 0.671566,-0.268908 0.671566,-0.268909 0.763837,-0.159719 0.763835,-0.15972 1.016,-0.0029 1.016,-0.0029 0.635,0.122762 0.635,0.122761 0.540286,0.18206 0.540285,0.18206 0.647397,0.325505 0.647396,0.325505 0.674985,0.500679 0.674985,0.500678 0.49304,0.545005 0.493041,0.545004 0.362644,0.550334 0.362644,0.550333 0.21374,0.423334 0.21374,0.423333 0.255973,0.804333 0.255972,0.804334 0.09253,0.762 0.09253,0.762 2.54e-4,6.879166 2.54e-4,6.879167 h -3.259664 -3.259667 v -7.13894 -7.138967 L 44.330715,33.803233 44.198938,33.359488 43.886215,33.01258 43.573494,32.665672 43.150161,32.468119 42.726827,32.270565 h -0.550333 -0.550333 l -0.423334,0.200479 -0.423333,0.20048 -0.266063,0.265506 -0.266065,0.265507 -0.157269,0.316354 -0.157301,0.316358 -0.02254,7.344834 -0.02254,7.344833 H 36.62991 33.372102 l -0.02165,-7.016819 -0.02165,-7.016819 -4.696412,3.247507 -4.696412,3.247508 -0.0565,-0.06186 -0.0565,-0.06186 -1.364254,-1.922972 -1.364254,-1.92297 v -0.03053 -0.03054 l 2.78534,-1.941161 2.785339,-1.941162 -0.213324,-0.113943 -0.213324,-0.113944 -0.476516,-0.165154 -0.476515,-0.165155 -0.667558,-0.0848 -0.667557,-0.0848 -0.644776,0.09623 -0.644776,0.09623 -0.550333,0.215462 -0.550333,0.215463 -0.569103,0.37462 -0.569102,0.374622 -0.431059,0.481925 -0.431059,0.481925 -0.332497,0.677333 -0.332497,0.677334 -0.127842,0.504622 -0.127841,0.504621 0.0013,0.765379 0.0013,0.765378 0.12932,0.550333 0.129321,0.550333 0.301524,0.611152 0.301525,0.611152 0.511441,0.558148 0.511441,0.558148 0.474629,0.317724 0.474629,0.317724 0.437538,0.184502 0.437539,0.184501 0.536128,0.12639 0.536129,0.12639 0.642623,0.0013 0.642623,0.0013 0.652818,-0.166962 0.652817,-0.166963 0.575883,-0.302618 0.575883,-0.302618 0.483549,-0.43098 0.483549,-0.43098 0.07065,0.07506 0.07065,0.07506 1.709125,2.399939 1.709124,2.399938 -0.197644,0.211534 -0.197644,0.211534 -0.756846,0.507027 -0.756847,0.507027 -0.555487,0.279598 -0.555487,0.279598 -0.751735,0.265203 -0.751735,0.265203 -0.560598,0.12272 -0.560598,0.122721 -0.662294,0.08748 -0.662293,0.08748 -0.734707,-0.009 -0.734707,-0.009 -0.762,-0.10668 z m 50.334335,0.06582 -0.296333,-0.03173 L 71.823405,49.152828 71.117346,49.024633 70.341739,48.76497 69.56613,48.505307 68.973464,48.20806 68.380797,47.910813 67.78813,47.529527 67.195463,47.148242 66.77213,46.80569 l -0.423333,-0.342552 -0.492341,-0.47194 -0.492342,-0.471939 -0.438992,-0.589357 -0.438992,-0.589357 -0.02265,2.041716 -0.02265,2.041716 -0.52768,0.06262 -0.52768,0.06262 -1.820333,-8.64e-4 -1.820333,-8.63e-4 -0.677334,-0.09954 -0.677333,-0.09954 -0.572396,-0.124625 -0.572396,-0.124626 -0.687467,-0.250894 -0.687467,-0.250894 -0.619332,-0.386013 -0.619332,-0.386013 -0.502661,-0.548565 -0.502661,-0.548566 -0.349809,-0.697144 -0.349809,-0.697144 -0.166452,-0.663 -0.166453,-0.663001 -0.08638,-1.063794 -0.08638,-1.063802 v -9.893705 -9.893705 h 3.259666 3.259667 v 3.005667 3.005666 h 2.751667 2.751667 v 2.122213 2.122214 l 0.493582,-0.61938 0.493581,-0.61938 0.734014,-0.693108 0.734014,-0.693106 0.698571,-0.459667 0.698571,-0.459667 0.621443,-0.312622 0.621441,-0.312622 0.860225,-0.286453 0.860225,-0.286454 0.791768,-0.13608 0.791769,-0.136081 h 1.169433 1.169442 l 0.748123,0.136413 0.748131,0.136414 0.719667,0.212593 0.719667,0.212594 0.933551,0.455798 0.933552,0.455799 0.715569,0.510486 0.715569,0.510486 0.707788,0.699638 0.707796,0.699639 0.08023,0.148167 0.08024,0.148166 h 0.08169 0.08169 v -4.783666 -4.783667 h 3.214691 3.214684 l 0.02382,10.011833 0.02381,10.011834 0.222605,0.474722 0.222606,0.474724 0.291211,0.222116 0.291203,0.222116 0.375191,0.142985 0.375184,0.142986 1.8415,0.0363 1.8415,0.0363 v 2.777396 2.777396 l -0.529167,0.06306 -0.529166,0.06307 -1.862667,-0.002 -1.862667,-0.002 -1.092073,-0.186522 -1.092073,-0.186522 -0.72826,-0.256481 -0.728261,-0.25648 -0.557225,-0.324763 -0.557217,-0.324763 -0.428159,-0.384952 -0.428159,-0.384952 -0.389645,-0.572152 -0.389636,-0.572153 -0.254796,-0.700894 -0.254796,-0.700894 -0.127016,-0.728363 -0.127017,-0.728363 v -3.79891 -3.798909 h -0.04115 -0.04116 l -4.530928,3.132695 -4.530937,3.132694 -0.07661,0.02114 -0.07661,0.02114 -1.404976,-1.963527 -1.404967,-1.963526 v -0.032 -0.032 l 2.785796,-1.941477 2.785796,-1.941477 -0.182296,-0.103583 -0.182296,-0.103585 -0.436347,-0.167344 -0.436355,-0.167345 -0.720242,-0.09585 -0.720242,-0.09585 -0.663745,0.0991 -0.663736,0.0991 -0.550333,0.215462 -0.550333,0.215463 -0.568357,0.374125 -0.568357,0.374125 -0.428854,0.482421 -0.428856,0.482421 -0.335447,0.677333 -0.335446,0.677334 -0.127842,0.504622 -0.127841,0.504621 0.0013,0.765379 0.0013,0.765378 0.12932,0.550333 0.129321,0.550333 0.312053,0.635 0.312051,0.635001 0.67921,0.682132 0.679209,0.682133 0.609559,0.315072 0.609556,0.315071 0.652822,0.166962 0.652814,0.166963 h 0.650249 0.650248 l 0.652814,-0.166963 0.652822,-0.166962 0.575878,-0.302619 0.575885,-0.302617 0.483549,-0.43098 0.483548,-0.430981 0.06996,0.07506 0.06996,0.07506 1.702672,2.386188 1.702664,2.386187 v 0.05558 0.05557 l -0.1905,0.161001 -0.1905,0.160999 -0.719667,0.497879 -0.719666,0.497879 -0.592667,0.297457 -0.592667,0.297456 -0.751738,0.265203 -0.75173,0.265203 -0.560604,0.12272 -0.560595,0.122721 -0.662296,0.08748 -0.662288,0.08748 -0.777045,-0.01355 -0.777037,-0.01355 -0.296334,-0.03174 z m -9.307291,-6.650998 -0.07443,-0.1905 -0.170365,-0.392608 -0.170366,-0.392609 -0.179612,-0.640097 -0.179611,-0.640098 -0.124964,-0.702961 -0.124965,-0.702961 -0.0019,-1.162709 -0.0019,-1.162708 0.135987,-0.742292 0.135988,-0.742291 0.171868,-0.592667 0.171867,-0.592666 0.245482,-0.580366 0.245481,-0.580365 v -0.03347 -0.03347 h -2.332033 -2.332032 l 0.02486,4.212167 0.02487,4.212167 0.176379,0.381 0.176377,0.381 0.302729,0.265795 0.302728,0.265796 0.409894,0.131742 0.409893,0.131742 0.211667,0.03543 0.211667,0.03543 1.204404,0.01153 1.204405,0.01153 -0.07443,-0.1905 z"
         id="path7301" />
      <path
         style="fill:#e25c65;stroke-width:0.0846667"
         d="M 22.754672,49.287669 22.171215,49.213928 21.527005,49.07091 20.882795,48.927892 20.163129,48.674334 19.443462,48.420777 18.887975,48.14118 18.332488,47.861582 17.539917,47.33144 16.747344,46.801297 15.972697,46.033274 15.198049,45.26525 14.767164,44.679913 14.336277,44.094578 13.965467,43.409913 13.594656,42.72525 13.372098,42.174916 13.14954,41.624583 13.017472,41.20125 l -0.132068,-0.423334 -0.122377,-0.592667 -0.122376,-0.592666 -0.05954,-0.612197 -0.05954,-0.612197 -0.82213,0.78153 -0.822131,0.78153 -0.796924,0.570188 -0.7969243,0.570188 -1.1006667,0.54624 -1.1006667,0.54624 -0.762,0.250447 -0.7620001,0.250446 -0.8063721,0.174469 -0.8063721,0.174468 -1.0714652,0.08701 -1.0714643,0.087 -1.04316281,-0.08187 -1.04316364,-0.08188 -0.46566668,-0.07813 -0.46566667,-0.07813 -0.5503334,-0.139427 -0.5503333,-0.139428 -0.6559466,-0.22825 -0.6559465,-0.228249 -2.54e-4,-4.524622 -2.54e-4,-4.524622 0.5291667,0.529753 0.5291666,0.529752 0.6028039,0.377258 0.6028038,0.377259 0.66719621,0.242995 0.66719621,0.242996 0.65872447,0.105811 0.65872361,0.10581 0.8652764,-0.04885 0.8652756,-0.04885 L 3.6385511,35.320284 4.2590418,35.143299 4.7815511,34.881458 5.3040605,34.619617 5.8200429,34.25373 6.3360244,33.887843 6.7590115,33.425028 7.1819994,32.962212 7.4971177,32.487466 7.8122369,32.012719 8.0605541,31.410543 8.3088721,30.808367 8.4471294,30.126039 8.5853867,29.443711 8.5442277,28.422147 8.5030687,27.400583 8.2327382,26.596249 7.9624085,25.791916 7.6154682,25.199249 7.2685279,24.606583 6.4979613,23.840409 5.7273938,23.074237 4.8324477,22.630261 3.9375015,22.186285 3.0967809,22.011738 2.2560604,21.837191 l -0.8466667,0.04789 -0.84666669,0.04789 -0.63500002,0.17845 -0.63500002,0.178449 -0.75510987,0.396356 -0.7551098,0.396356 -0.6613094,0.620985 -0.6613085,0.620984 -0.3847727,0.57878 -0.3847727,0.578781 -0.249931,0.606089 -0.2499311,0.606089 -0.1290442,0.624743 -0.1289765,0.624743 v 10.29057 10.290569 h -3.8136463 -3.8136459 l 0.03249,-10.689167 0.03249,-10.689166 0.13175,-0.677334 0.13175,-0.677333 0.179135,-0.695616 0.179135,-0.695616 0.258605,-0.701384 0.258605,-0.701384 0.462982,-0.889 0.462983,-0.889 0.531101,-0.741964 0.5311003,-0.741963 0.5361946,-0.598884 0.5361945,-0.598885 0.7288843,-0.637547 0.7288845,-0.637547 0.762,-0.504713 0.762,-0.504713 0.7699361,-0.371643 0.7699364,-0.371644 0.693448,-0.255682 0.693448,-0.255683 0.653282,-0.165734 0.653283,-0.165735 0.82458815,-0.131665 0.82458901,-0.131665 H 1.7481281 3.0622844 l 0.824589,0.131665 0.8245881,0.131665 0.653283,0.165735 0.6532821,0.165734 0.6590512,0.243433 0.6590505,0.243433 0.6965967,0.340881 0.6965959,0.340881 0.5310708,0.319072 0.53107,0.319071 0.5080003,0.381511 0.508,0.38151 0.586309,0.513205 0.586309,0.513204 0.629999,0.719667 0.629998,0.719666 0.529683,0.804334 0.529683,0.804333 0.349589,0.69678 0.34959,0.69678 0.216011,0.57322 0.216011,0.57322 0.214619,0.762 0.214619,0.762 0.117593,0.719667 0.117594,0.719667 0.05666,1.110161 0.05666,1.110162 0.656134,-0.529726 0.656133,-0.529726 0.610007,-0.356263 0.610006,-0.356263 0.641683,-0.292424 0.641683,-0.292424 0.703554,-0.203883 0.703554,-0.203881 0.741828,-0.129763 0.741829,-0.129763 1.153077,-2.54e-4 1.153076,-2.54e-4 0.710729,0.123941 0.710729,0.12394 0.760862,0.216764 0.760861,0.216764 1.016,0.503493 1.016,0.503493 0.724516,0.546206 0.724516,0.546206 0.768413,0.803774 0.768413,0.803775 0.366528,0.557488 0.366528,0.55749 0.04554,-0.0014 0.04554,-0.0014 0.199198,-0.460223 0.199198,-0.460224 0.432778,-0.660165 0.43278,-0.660165 0.680357,-0.684947 0.680356,-0.684946 0.539952,-0.362699 0.539953,-0.3627 0.772381,-0.365117 0.772381,-0.365117 0.719666,-0.195904 0.719667,-0.195903 h 1.439333 1.439334 l 0.635,0.161462 0.635,0.161463 0.57338,0.232226 0.573381,0.232228 0.622564,0.356203 0.622564,0.356205 0.676765,0.576313 0.676766,0.576313 0.560758,0.747168 0.560758,0.747167 0.339034,0.697038 0.339035,0.697038 0.203045,0.700921 0.203045,0.700921 0.09338,0.762 0.09338,0.762 2.54e-4,6.836834 2.54e-4,6.836833 h -3.25785 -3.257852 L 44.443142,41.18011 44.420161,33.835276 44.233201,33.485755 44.04624,33.136232 43.662552,32.798496 43.278863,32.46076 42.895075,32.353306 42.511288,32.245852 H 42.176494 41.8417 l -0.36177,0.101383 -0.361769,0.101383 -0.381,0.27714 -0.381,0.277139 -0.211667,0.41619 -0.211667,0.416189 -0.02254,7.344834 -0.02254,7.344833 H 36.629939 33.37213 l -0.02165,-7.019489 -0.02165,-7.019488 -4.698887,3.247701 -4.698888,3.247701 -0.05079,-0.05938 -0.05082,-0.05941 -1.367488,-1.92034 -1.367488,-1.920339 v -0.02987 -0.02987 l 2.793726,-1.944461 2.793726,-1.944462 -0.50555,-0.239316 -0.50555,-0.239316 -0.700676,-0.126343 -0.700676,-0.126343 -0.623377,0.05255 -0.623377,0.05255 -0.664784,0.210006 -0.664785,0.210005 -0.634753,0.424549 -0.634754,0.424549 -0.425043,0.476887 -0.425043,0.476889 -0.33896,0.651523 -0.33896,0.651523 -0.134801,0.58125 -0.1348,0.581251 0.0035,0.762888 0.0035,0.762889 0.131274,0.508 0.131273,0.508 0.309846,0.635 0.309846,0.635001 0.726048,0.722681 0.726048,0.722682 0.635,0.311056 0.635,0.311056 0.592667,0.139354 0.592667,0.139355 0.889,-0.04407 0.889,-0.04407 0.488975,-0.172695 0.488976,-0.172694 0.496738,-0.264759 0.496739,-0.264759 0.480159,-0.427958 0.480158,-0.427959 0.06809,0.07506 0.06809,0.07506 1.714953,2.41081 1.714953,2.41081 -0.327915,0.289365 -0.327915,0.289364 -0.754714,0.492862 -0.754713,0.49286 -0.769287,0.336677 -0.769286,0.336677 -0.747791,0.216059 -0.747792,0.216059 -0.522208,0.08667 -0.522209,0.08666 -1.058334,0.03598 -1.058333,0.03598 -0.583457,-0.07374 z m 49.690125,-0.03601 -0.762,-0.114116 -0.38647,-0.09149 -0.386472,-0.09149 -0.756528,-0.266833 -0.75653,-0.266835 -0.491707,-0.248004 -0.491707,-0.248003 -0.60896,-0.389804 -0.60896,-0.389804 -0.592666,-0.484367 -0.592667,-0.484366 -0.384499,-0.413317 -0.384499,-0.413318 -0.377501,-0.501603 -0.377501,-0.501603 -0.04233,2.024244 -0.04233,2.024245 -0.338666,0.06065 -0.338667,0.06065 -1.996504,0.0079 -1.996504,0.0079 -0.908493,-0.134898 -0.908493,-0.134898 -0.735669,-0.212311 -0.735671,-0.212311 -0.607726,-0.303408 -0.607725,-0.303406 -0.471081,-0.369735 -0.47108,-0.369735 -0.385606,-0.486139 -0.385606,-0.48614 -0.291609,-0.599863 -0.291609,-0.599862 -0.188082,-0.670138 -0.188082,-0.670136 -0.02683,-10.943167 -0.02683,-10.943167 h 3.21977 3.21977 v 3.005667 3.005666 h 2.751667 2.751667 v 2.12816 2.128161 l 0.494067,-0.625327 0.494066,-0.625327 0.729425,-0.689222 0.729424,-0.689223 0.61801,-0.410946 0.618008,-0.410948 0.777754,-0.398517 0.777754,-0.398518 0.830912,-0.25602 0.830913,-0.256018 0.751925,-0.129128 0.751925,-0.129127 h 1.157909 1.15791 l 0.884166,0.164138 0.884165,0.164139 0.677334,0.221897 0.677333,0.221898 0.853186,0.417603 0.853178,0.417603 0.770136,0.554683 0.770137,0.554683 0.765446,0.800678 0.765454,0.800678 h 0.0454 0.0454 v -4.783666 -4.783667 h 3.217333 3.217333 v 9.721117 9.721117 l 0.09059,0.502383 0.09059,0.502383 0.20646,0.316777 0.206468,0.316777 0.316772,0.208669 0.31678,0.208668 0.508,0.132446 0.508,0.132445 1.629834,0.0059 1.629833,0.0059 v 2.775477 2.775479 l -0.492523,0.05572 -0.492531,0.05572 -1.772302,0.0022 -1.772311,0.0022 -0.804333,-0.09781 -0.804334,-0.09781 -0.804333,-0.202856 -0.804333,-0.202857 -0.762,-0.373516 -0.762,-0.373516 -0.465667,-0.373919 -0.465667,-0.37392 -0.353712,-0.459391 -0.353712,-0.459392 -0.251019,-0.508 -0.25102,-0.508 -0.1725,-0.561185 -0.172491,-0.561186 -0.0906,-0.651441 -0.09061,-0.651441 v -3.719207 -3.719207 h -0.04834 -0.04833 l -4.534053,3.136127 -4.534044,3.136126 -0.06632,0.01771 -0.06631,0.01771 -1.404976,-1.963527 -1.404967,-1.963515 v -0.02887 -0.02887 l 2.790088,-1.944283 2.790089,-1.944282 -0.05959,-0.05323 -0.05959,-0.05323 -0.550333,-0.214766 -0.550334,-0.214766 -0.671897,-0.100337 -0.671898,-0.100337 -0.555769,0.05907 -0.555769,0.05907 -0.653161,0.205845 -0.653162,0.205845 -0.634754,0.424549 -0.634753,0.424549 -0.433114,0.482883 -0.433115,0.482884 -0.36734,0.762 -0.36734,0.762 -0.0918,0.448667 -0.0918,0.448668 v 0.780701 0.780701 l 0.175328,0.632695 0.17533,0.632697 0.26765,0.508602 0.267651,0.508603 0.721187,0.722681 0.721187,0.722682 0.635,0.311056 0.635,0.311056 0.592667,0.139354 0.592666,0.139355 0.889,-0.04635 0.889,-0.04635 0.40469,-0.128621 0.404698,-0.12862 0.601083,-0.315862 0.601082,-0.315862 0.459131,-0.41962 0.45913,-0.419619 0.07118,0.07603 0.07118,0.07603 1.712375,2.411203 1.712375,2.411203 -0.327466,0.288971 -0.327456,0.288972 -0.754711,0.492862 -0.754718,0.49286 -0.769282,0.336677 -0.76929,0.336677 -0.747792,0.216059 -0.747793,0.216059 -0.522208,0.08712 -0.522207,0.08712 -1.100666,0.0377 -1.100667,0.0377 z m -8.867737,-6.436277 0.02226,-0.02177 -0.223018,-0.499848 -0.223017,-0.499848 -0.163221,-0.550333 -0.163219,-0.550333 -0.165192,-0.8465 -0.165193,-0.846499 2.54e-4,-1.143167 2.54e-4,-1.143168 0.132041,-0.762 0.132039,-0.762 0.178146,-0.592667 0.178146,-0.592666 0.239876,-0.583145 0.239878,-0.583145 v -0.03069 -0.03069 h -2.32833 -2.328334 v 4.048633 4.048633 l 0.131779,0.443746 0.131778,0.443745 0.298135,0.330001 0.298136,0.33 0.480253,0.18517 0.480253,0.185169 1.100666,0.06111 1.100667,0.0611 0.296333,-0.03854 0.296334,-0.03854 0.02226,-0.02177 z"
         id="path7299" />
      <path
         style="fill:#dc3a45;stroke-width:0.0846667"
         d="m 22.842474,49.276554 -0.749654,-0.07214 -0.727335,-0.172743 -0.727335,-0.172741 -0.766678,-0.302901 -0.766677,-0.302901 -0.550333,-0.300196 -0.550333,-0.300195 -0.67224,-0.470067 -0.67224,-0.470067 -0.767094,-0.768141 -0.767093,-0.76814 -0.518381,-0.759868 -0.51838,-0.759867 -0.357811,-0.713244 -0.357811,-0.713244 -0.289855,-0.88485 -0.289856,-0.884852 -0.143096,-1.04893 -0.143095,-1.048931 -0.595857,0.579773 -0.595858,0.579772 -0.465667,0.382364 -0.465667,0.382365 -0.6730048,0.449999 -0.6730061,0.449997 -0.8943399,0.44733 -0.89434,0.447329 -0.8969163,0.300127 -0.8969172,0.300128 -0.8353527,0.17188 -0.8353536,0.171881 -1.0183842,0.0699 -1.0183851,0.0699 -0.93133335,-0.06494 -0.93133336,-0.06494 -0.38100001,-0.05825 -0.38100002,-0.05825 -0.67733336,-0.164806 -0.6773333,-0.164806 -0.6985001,-0.224641 -0.6985,-0.224642 v -4.521531 -4.521531 l 0.4753712,0.483027 0.4753712,0.483027 0.6177229,0.403254 0.6177229,0.403254 0.54667494,0.218849 0.54667406,0.218849 0.70748061,0.143353 0.70747979,0.143354 1.0182513,-0.04788 1.0182513,-0.04788 0.4656667,-0.141693 0.4656667,-0.141694 0.508,-0.212398 0.508,-0.212399 0.5725126,-0.383478 0.5725127,-0.383479 0.541655,-0.574183 0.541655,-0.574182 0.3586209,-0.603649 0.3586209,-0.603648 0.2528723,-0.73639 0.2528722,-0.736391 0.040389,-1.143 0.040389,-1.143 L 8.404233,27.163402 8.2262383,26.418221 7.9398025,25.808735 7.6533675,25.199249 7.3467616,24.775916 7.0401556,24.352583 6.5531419,23.858549 6.0661282,23.364515 5.5095329,22.994122 4.9529368,22.623729 4.3241996,22.373102 3.6954615,22.122476 3.0428644,21.988696 2.3902672,21.854916 H 1.7481281 1.105989 l -0.65259714,0.134224 -0.65259714,0.134224 -0.60459199,0.23413 -0.60459203,0.23413 -0.5807413,0.386604 -0.5807414,0.386604 -0.4976512,0.493875 -0.4976521,0.493876 -0.3374881,0.496383 -0.3374888,0.496383 -0.2338121,0.519617 -0.2338121,0.519617 -0.139636,0.48588 -0.139636,0.48588 -0.080394,0.826454 -0.080394,0.826452 -0.00218,9.757834 -0.00218,9.757833 h -3.7718831 -3.7718835 l 0.03105,-10.646833 0.03105,-10.646834 0.135141,-0.719666 0.13514,-0.719667 0.175258,-0.677333 0.175258,-0.677334 0.299617,-0.79966 0.299616,-0.79966 0.384562,-0.722901 0.384561,-0.7229 0.475089,-0.706692 0.47509,-0.706692 0.6492856,-0.734081 0.6492855,-0.734081 0.5423817,-0.470242 0.5423817,-0.470243 0.508,-0.382139 0.508,-0.382139 0.508,-0.30252 0.5080001,-0.302519 0.7046604,-0.351975 0.7046603,-0.351974 0.607673,-0.2193 0.607673,-0.219301 0.7196667,-0.191713 0.7196667,-0.191713 0.85676995,-0.135278 0.85676997,-0.135277 h 1.23964108 1.239642 l 0.824589,0.131665 0.8245882,0.131665 0.6773333,0.169482 0.6773334,0.169481 0.7196667,0.26083 0.7196667,0.26083 0.762,0.380143 0.762,0.380143 0.8043334,0.530417 0.8043336,0.530417 0.719666,0.634233 0.719667,0.634232 0.469376,0.539064 0.469377,0.539065 0.38674,0.508 0.386741,0.508 0.347724,0.568647 0.347724,0.568647 0.264242,0.523459 0.26424,0.523457 0.288908,0.757068 0.288907,0.757067 0.176552,0.690827 0.176552,0.690828 0.114217,0.719667 0.114215,0.719666 0.05924,1.079967 0.05924,1.079966 0.433007,-0.369731 0.433007,-0.369732 0.740708,-0.482654 0.740708,-0.482655 0.561,-0.25437 0.561001,-0.25437 0.560959,-0.200235 0.560958,-0.200237 0.508,-0.12517 0.508,-0.125172 0.730114,-0.104341 0.730115,-0.104342 1.217219,0.04521 1.217219,0.04521 0.655313,0.139409 0.655314,0.139409 0.653749,0.213405 0.653751,0.213406 0.765269,0.370347 0.76527,0.370347 0.677334,0.449717 0.677333,0.449717 0.934889,0.931781 0.934891,0.931781 0.413555,0.613833 0.413554,0.613834 h 0.05414 0.05414 l 0.184751,-0.4445 0.184751,-0.4445 0.402329,-0.608977 0.402328,-0.608977 0.486508,-0.548632 0.486506,-0.548631 0.689112,-0.519261 0.689111,-0.519261 0.602381,-0.303629 0.602383,-0.303629 0.583344,-0.198653 0.583345,-0.198653 0.674841,-0.128016 0.674843,-0.128015 h 0.912627 0.912627 l 0.700224,0.13283 0.700223,0.132831 0.673842,0.245921 0.673841,0.245922 0.555512,0.305348 0.555513,0.305348 0.513943,0.391162 0.513942,0.391162 0.536403,0.554571 0.536403,0.554572 0.376844,0.566352 0.376843,0.566353 0.33046,0.705184 0.330461,0.705184 0.171397,0.633464 0.171396,0.633463 0.08773,0.876804 0.08773,0.876804 v 6.679696 6.679696 h -3.258294 -3.258295 l -0.02254,-7.344833 -0.02254,-7.344834 -0.204886,-0.400923 -0.204888,-0.400924 -0.176112,-0.164242 -0.176114,-0.164243 -0.460418,-0.230451 -0.460419,-0.230452 H 42.165697 41.59409 l -0.46908,0.229499 -0.469079,0.2295 -0.253366,0.307376 -0.253366,0.307377 -0.129362,0.379657 -0.129362,0.379658 v 7.223918 7.223917 h -3.259181 -3.25918 l -0.02165,-7.026614 -0.02165,-7.026616 -4.699,3.250715 -4.699001,3.250714 -0.01043,-0.01293 -0.01043,-0.01293 -1.414641,-1.980406 -1.41464,-1.980406 0.07724,-0.05159 0.07724,-0.05159 2.726631,-1.90396 2.726631,-1.903961 -0.134492,-0.09834 -0.134493,-0.09834 -0.736315,-0.241363 -0.736317,-0.241363 -0.931333,0.003 -0.931333,0.003 -0.592667,0.193923 -0.592667,0.193922 -0.523268,0.290778 -0.523268,0.290778 -0.486437,0.443655 -0.486438,0.443655 -0.401755,0.614422 -0.401753,0.614423 -0.175657,0.528577 -0.175657,0.528578 -0.08297,0.656167 -0.08297,0.656166 0.07867,0.620508 0.07867,0.620507 0.139495,0.41666 0.139494,0.416659 0.2492,0.471792 0.249201,0.471792 0.342889,0.417208 0.342889,0.417208 0.436499,0.362752 0.436498,0.362752 0.571197,0.287572 0.571197,0.287572 0.645039,0.143508 0.64504,0.143507 0.858097,-0.04031 0.858096,-0.04031 0.614996,-0.216275 0.614997,-0.216276 0.443337,-0.28191 0.443337,-0.281909 0.403472,-0.373977 0.403471,-0.373976 0.03374,0.03397 0.03374,0.03397 1.742427,2.449249 1.742427,2.449249 -0.128787,0.142308 -0.128788,0.142309 -0.661883,0.476559 -0.661883,0.47656 -0.923303,0.457026 -0.923302,0.457026 -0.550334,0.175487 -0.550333,0.175488 -0.567885,0.12848 -0.567885,0.128479 -0.913782,0.08665 -0.913782,0.08665 -0.296333,-0.01137 -0.296333,-0.01137 -0.749655,-0.07214 z m 49.800883,-0.0014 -0.648106,-0.0743 -0.791227,-0.200801 -0.791227,-0.200802 -0.71918,-0.284292 -0.71918,-0.284292 -0.762487,-0.457506 -0.762487,-0.457506 -0.730225,-0.579731 -0.730225,-0.57973 -0.582108,-0.688784 -0.582108,-0.688783 -0.187825,-0.222343 -0.187824,-0.222344 -0.0027,2.005836 -0.0027,2.005837 -0.105834,0.06811 -0.105833,0.06811 -2.055106,0.03026 -2.055104,0.03026 -0.865896,-0.09815 -0.865894,-0.09815 -0.846001,-0.21122 -0.846,-0.211221 -0.762666,-0.367975 -0.762667,-0.367975 -0.465666,-0.374809 -0.465667,-0.374808 -0.353711,-0.459391 -0.353712,-0.459392 -0.251021,-0.508 -0.251022,-0.508 -0.172493,-0.561185 -0.172493,-0.561186 -0.09061,-0.651441 -0.09061,-0.651439 V 31.585456 21.092916 h 3.217334 3.217333 v 3.005667 3.005666 h 2.750213 2.750213 l 0.02262,2.126267 0.02262,2.126267 0.292429,-0.407312 0.29243,-0.407313 0.554237,-0.587684 0.554237,-0.587683 0.592667,-0.480203 0.592667,-0.480204 0.722055,-0.439324 0.722054,-0.439323 0.6848,-0.288813 0.6848,-0.288812 0.663139,-0.186076 0.663138,-0.186077 0.724004,-0.117533 0.72401,-0.117532 1.005899,-3.39e-4 1.005891,-3.39e-4 0.856776,0.135882 0.856767,0.135881 0.851603,0.278608 0.851603,0.278606 0.651984,0.309392 0.651976,0.309391 0.782421,0.518657 0.782414,0.518657 0.9525,0.959267 0.9525,0.959267 v -4.82647 -4.826471 h 3.215335 3.215327 l 0.02317,10.054167 0.02317,10.054166 0.152459,0.338667 0.152459,0.338667 0.260858,0.269539 0.260867,0.269539 0.423545,0.182206 0.423553,0.182206 1.110463,0.08124 1.110463,0.08124 0.783166,-0.05622 0.783167,-0.05622 v 2.764393 2.764392 l -0.148167,0.06084 -0.148166,0.06084 h -2.455281 -2.455333 l -0.846667,-0.15922 -0.846667,-0.159224 -0.615882,-0.200423 -0.615874,-0.200422 -0.485351,-0.245004 -0.485352,-0.245005 -0.507433,-0.381877 -0.507441,-0.381877 -0.363787,-0.447901 -0.363796,-0.447902 -0.334272,-0.682237 -0.334281,-0.682236 -0.125815,-0.508 -0.125823,-0.508 -0.0846,-0.592667 -0.08461,-0.592667 -0.0017,-3.704167 -0.0017,-3.704166 -0.0635,0.0025 -0.0635,0.0025 -4.572,3.164861 -4.572001,3.164862 -0.01042,-0.01351 -0.01043,-0.01351 -1.414636,-1.980405 -1.414643,-1.980406 0.07869,-0.05159 0.07869,-0.0516 2.724807,-1.904237 2.724802,-1.904236 -0.149216,-0.109112 -0.149217,-0.109111 -0.678883,-0.223997 -0.678874,-0.223997 -0.973667,-0.0042 -0.973666,-0.0042 -0.592667,0.194814 -0.592667,0.194815 -0.528282,0.293582 -0.528281,0.293582 -0.498797,0.461797 -0.498796,0.461798 -0.355568,0.545745 -0.355567,0.545745 -0.206446,0.593636 -0.206445,0.593635 -0.081,0.63884 -0.081,0.638839 0.07867,0.620508 0.07867,0.620507 0.139495,0.416659 0.139494,0.41666 0.2492,0.471792 0.249201,0.471792 0.342889,0.417208 0.342889,0.417208 0.432993,0.35745 0.432993,0.357451 0.484924,0.258461 0.484925,0.258462 0.653956,0.167255 0.653957,0.167254 0.727295,-0.0013 0.727287,-0.0013 0.550334,-0.129321 0.550333,-0.129321 0.606611,-0.299279 0.606603,-0.299278 0.518905,-0.469582 0.518905,-0.469582 0.04077,0.04077 0.04078,0.04077 1.738867,2.446161 1.738867,2.446162 -0.322817,0.286458 -0.322817,0.286459 -0.602903,0.397812 -0.602895,0.397812 -0.734204,0.358695 -0.734195,0.358695 -0.483235,0.167789 -0.483235,0.16779 -0.691642,0.162714 -0.691634,0.162714 -0.917033,0.08696 -0.917025,0.08696 -0.423333,-0.011 -0.423333,-0.011 -0.648107,-0.0743 z M 63.59713,42.854663 v -0.08225 l -0.205511,-0.464696 -0.205511,-0.464696 -0.210813,-0.701885 -0.210814,-0.701885 -0.134009,-0.798086 -0.134009,-0.798086 3.39e-4,-0.979914 3.39e-4,-0.979914 0.130052,-0.801929 0.130051,-0.80193 0.197652,-0.679737 0.197652,-0.679737 0.22229,-0.526616 0.222289,-0.526615 v -0.04488 -0.04488 h -2.33131 -2.33131 l 0.02414,4.2545 0.02414,4.2545 0.182746,0.338667 0.182746,0.338667 0.240588,0.228294 0.240587,0.228293 0.419839,0.185652 0.41984,0.185652 0.85016,0.06033 0.850161,0.06033 0.613833,0.01255 0.613837,0.01255 z"
         id="path7297" />
      <path
         style="fill:#d3000e;stroke-width:0.0846667"
         d="m 23.126462,49.277919 -0.804333,-0.05952 -0.641388,-0.135446 -0.641386,-0.135445 -0.744713,-0.25173 -0.744712,-0.251728 -0.889023,-0.470534 -0.889022,-0.470534 -0.518878,-0.393481 -0.518878,-0.393481 -0.381,-0.344219 -0.381,-0.344219 -0.536193,-0.592832 -0.536191,-0.592831 -0.470468,-0.712017 -0.470468,-0.712016 -0.31945,-0.684984 -0.319451,-0.684983 -0.217524,-0.670293 -0.217524,-0.670293 -0.125909,-0.684374 -0.125909,-0.684373 -0.05105,-0.486834 -0.05105,-0.486833 h -0.06952 -0.06952 l -0.0457,0.119098 -0.0457,0.119098 -0.873523,0.777506 -0.873523,0.777506 -0.8053454,0.538044 -0.8053451,0.538043 -0.972655,0.462589 -0.9726549,0.46259 -0.6773333,0.229214 -0.6773334,0.229215 -0.9313334,0.205467 -0.9313333,0.205467 -1.502129,0.05087 -1.50212893,0.05087 -0.78387112,-0.105373 -0.78387112,-0.105374 -0.84666673,-0.198606 -0.8466667,-0.198606 -0.5503333,-0.207268 -0.5503334,-0.207268 -0.021898,-4.475766 -0.021898,-4.475768 0.5831764,0.551061 0.5831764,0.551061 0.6115312,0.364342 0.6115313,0.364343 0.77452392,0.262666 0.77452391,0.262665 1.14300007,0.03837 1.143,0.03838 0.737384,-0.176143 0.7373841,-0.176143 0.5442331,-0.246766 0.5442323,-0.246767 0.4963829,-0.337489 0.4963837,-0.337488 0.4916407,-0.496131 0.4916408,-0.496131 0.2957889,-0.445625 0.2957889,-0.445625 0.247799,-0.529563 0.2477991,-0.529562 0.1784544,-0.677333 0.1784545,-0.677334 v -1.016 -1.016 L 8.4002986,27.061916 8.2224359,26.384583 7.9221817,25.749583 7.6219266,25.114583 7.1406067,24.485143 6.659286,23.855703 6.0388072,23.362632 5.4183283,22.869559 4.7262282,22.537144 4.0341282,22.204728 3.4837948,22.053356 2.9334615,21.901984 H 1.7481281 0.56279474 l -0.55033335,0.151372 -0.55033335,0.151372 -0.68391284,0.328452 -0.6839128,0.328454 -0.5911604,0.462552 -0.5911605,0.462551 -0.4434595,0.536923 -0.4434594,0.536923 -0.3778052,0.762 -0.3778055,0.762 -0.1882434,0.677333 -0.1882433,0.677333 -0.025443,10.392834 -0.025443,10.392833 h -3.7648087 -3.7648085 l 0.0025,-9.800167 0.0025,-9.800166 0.07813,-1.067385 0.07813,-1.067384 0.177692,-0.879949 0.177693,-0.879949 0.300162,-0.883582 0.300162,-0.883583 0.420721,-0.852084 0.42072,-0.852085 0.551797,-0.821928 0.551797,-0.821929 0.6068667,-0.677031 0.6068667,-0.677031 0.508,-0.452592 0.508,-0.452591 0.508,-0.386232 0.5080001,-0.386233 0.570102,-0.348614 0.5701019,-0.348615 0.6123661,-0.308383 0.6123665,-0.308382 0.7833876,-0.283575 0.7833877,-0.283575 0.6588108,-0.168016 0.6588109,-0.168016 0.99916995,-0.130795 0.99916914,-0.130795 H 1.7481281 2.6284557 l 0.9991692,0.130559 0.99917,0.130559 0.8043333,0.217744 0.8043334,0.217744 0.8745906,0.343189 0.8745897,0.343188 0.7582637,0.434072 0.7582637,0.434071 0.7494267,0.528946 0.749427,0.528945 0.818476,0.811854 0.818477,0.811853 0.491006,0.645138 0.491007,0.645138 0.319872,0.500174 0.319872,0.500174 0.378344,0.765879 0.378343,0.76588 0.244454,0.662997 0.244455,0.662998 0.177775,0.695615 0.177774,0.695617 0.11593,0.719666 0.115929,0.719667 0.02486,1.036712 0.02486,1.036712 0.04739,4.23e-4 0.04739,4.24e-4 0.436256,-0.372383 0.436257,-0.372382 0.588882,-0.391487 0.588881,-0.391488 0.874801,-0.416724 0.874802,-0.416724 0.759896,-0.219186 0.759896,-0.219186 0.827047,-0.12422 0.827047,-0.12422 0.86839,5.08e-4 0.86839,5.08e-4 0.804334,0.122155 0.804333,0.122155 0.762,0.218826 0.762,0.218824 1.019423,0.497467 1.019423,0.497467 0.716243,0.53101 0.716245,0.53101 0.446452,0.422172 0.446453,0.422171 0.45527,0.557372 0.45527,0.557372 0.298685,0.454485 0.298685,0.454485 0.312217,-0.623818 0.312218,-0.623818 0.377064,-0.570528 0.377064,-0.570527 0.633483,-0.633484 0.633484,-0.633484 0.715475,-0.47606 0.715475,-0.47606 0.698352,-0.294653 0.698353,-0.294654 0.677333,-0.167576 0.677334,-0.167577 1.016,-0.04767 1.016,-0.04767 0.786272,0.137333 0.786271,0.137334 0.568396,0.199856 0.568394,0.199857 0.574068,0.27262 0.574067,0.27262 0.6536,0.488255 0.653599,0.488254 0.560535,0.585483 0.560536,0.585483 0.397319,0.614192 0.397317,0.614191 0.24469,0.527232 0.24469,0.527231 0.213537,0.743105 0.213536,0.743104 0.08675,1.068357 0.08675,1.068357 v 6.464706 6.464704 H 47.72213 44.462463 l -0.0014,-7.3025 -0.0014,-7.3025 -0.232845,-0.46245 -0.232845,-0.46245 -0.364028,-0.277654 -0.364028,-0.277653 -0.4729,-0.137476 -0.4729,-0.137475 -0.370646,0.0508 -0.370645,0.0508 -0.409676,0.176237 -0.409675,0.176238 -0.260818,0.269539 -0.260816,0.269539 -0.194838,0.423333 -0.194836,0.423334 -0.02429,7.260167 -0.02429,7.260166 h -3.21564 -3.215641 l 0.0226,-7.027344 0.0226,-7.027345 -0.05489,1.2e-5 -0.05489,1.1e-5 -4.644114,3.214621 -4.644114,3.214622 -0.05481,0.0027 -0.05481,0.0028 -1.363354,-1.908469 -1.363354,-1.908468 v -0.07399 -0.07399 l 2.6035,-1.82189 2.6035,-1.821891 0.164746,-0.122468 0.164747,-0.12247 L 26.353524,32.866546 25.991426,32.681817 25.349733,32.5177 24.708041,32.353583 H 24.057795 23.40755 l -0.652819,0.166962 -0.652817,0.166963 -0.609559,0.315902 -0.60956,0.3159 -0.686745,0.681304 -0.686744,0.681302 -0.345328,0.719667 -0.345328,0.719666 -0.142954,0.71425 -0.142953,0.714251 0.05666,0.682749 0.05666,0.68275 0.23659,0.687303 0.23659,0.687303 0.399853,0.601466 0.399855,0.601466 0.473268,0.421817 0.473269,0.421818 0.55899,0.291586 0.55899,0.291587 0.423333,0.142001 0.423334,0.142002 0.618656,0.06952 0.618656,0.06952 0.634255,-0.07874 0.634257,-0.07874 0.54554,-0.19802 0.545538,-0.19802 0.466863,-0.282949 0.466863,-0.282948 0.394897,-0.362554 0.394895,-0.362553 0.0151,0.0209 0.0151,0.0209 1.676756,2.370667 1.676756,2.370667 0.07526,0.09756 0.07526,0.09756 -0.744332,0.560289 -0.744332,0.560289 -0.817861,0.421447 -0.817861,0.421447 -0.875473,0.292922 -0.875472,0.292921 -0.762,0.124181 -0.762,0.124182 -0.677333,0.0317 -0.677334,0.0317 z m 49.837807,0.0023 -0.750527,-0.06528 -0.646471,-0.143759 -0.646474,-0.143759 -0.635,-0.212142 -0.635,-0.212142 L 68.973464,48.16404 68.29613,47.824945 67.597559,47.365206 66.898988,46.905466 66.16546,46.21236 65.43193,45.51925 64.937864,44.893923 64.443797,44.268596 v 2.034435 2.034435 l -0.148167,0.0637 -0.148167,0.0637 -1.836689,0.04018 -1.836689,0.04018 -0.999644,-0.101818 -0.999644,-0.101818 -0.688083,-0.15914 -0.688084,-0.159139 -0.573111,-0.215719 -0.57311,-0.215718 -0.43214,-0.24928 -0.432139,-0.24928 -0.406338,-0.338358 -0.406338,-0.338357 -0.334001,-0.404187 -0.333999,-0.404186 -0.301949,-0.574609 -0.301948,-0.574608 -0.227048,-0.824543 -0.227048,-0.824543 -0.02429,-10.8585 -0.02429,-10.8585 h 3.219788 3.219788 v 3.005667 3.005666 h 2.750213 2.750213 l 0.02262,2.131334 0.02262,2.131333 0.376972,-0.5015 0.376971,-0.5015 0.427362,-0.455272 0.427362,-0.455273 0.592666,-0.483836 0.592667,-0.483836 0.557439,-0.350767 0.557438,-0.350768 0.797228,-0.377054 0.797229,-0.377056 0.762,-0.221324 0.762,-0.221323 0.846666,-0.131152 0.846667,-0.131152 1.185333,0.05051 1.185334,0.05051 0.621589,0.124637 0.62158,0.124637 0.699143,0.213253 0.699152,0.213253 0.965268,0.489857 0.965268,0.489858 0.677333,0.498452 0.677334,0.498452 0.8255,0.845204 0.8255,0.845204 V 25.93093 21.092923 h 3.215987 3.215987 l 0.02251,10.0965 0.02251,10.0965 0.237718,0.428748 0.237711,0.428749 0.354956,0.23075 0.354948,0.230751 0.465667,0.139329 0.465667,0.139327 1.672124,0.0055 1.672124,0.0055 4.3e-5,2.721442 4.2e-5,2.721441 -0.148167,0.0637 -0.148166,0.0637 -1.836691,0.04018 -1.836691,0.04018 -0.999643,-0.101818 -0.999642,-0.101818 -0.679882,-0.157227 -0.679882,-0.157228 -0.62092,-0.230153 -0.62092,-0.230153 -0.604198,-0.397195 -0.604198,-0.397197 -0.470205,-0.49959 -0.470196,-0.49959 -0.272703,-0.479585 -0.272695,-0.479584 -0.171551,-0.494082 -0.171552,-0.494083 -0.13506,-0.550333 -0.135069,-0.550333 -0.03583,-4.042834 -0.03583,-4.042833 h -0.06279 -0.0628 l -4.524527,3.129949 -4.524528,3.129949 -0.05481,0.0027 -0.05481,0.0027 -1.363354,-1.908469 -1.363353,-1.908468 v -0.07531 -0.07531 l 2.751666,-1.918723 2.751667,-1.918721 v -0.03278 -0.03278 L 76.290281,32.858088 75.944765,32.681817 75.303068,32.5177 74.661379,32.353583 H 74.01113 73.360882 l -0.652814,0.166962 -0.652822,0.166963 -0.609556,0.315071 -0.60956,0.315072 -0.690298,0.691354 -0.690299,0.691354 -0.338205,0.710446 -0.338204,0.710444 -0.113728,0.465667 -0.113727,0.465667 0.006,0.889 0.006,0.889 0.254458,0.729636 0.254458,0.729636 0.399853,0.601466 0.399855,0.601466 0.481925,0.432261 0.481925,0.432261 0.762,0.366306 0.762,0.366305 0.454923,0.103776 0.454914,0.103776 0.772752,-0.0062 0.772745,-0.0062 0.508,-0.132995 0.508,-0.132996 0.592666,-0.289988 0.592667,-0.289989 0.550333,-0.455966 0.550334,-0.455966 1.754809,2.461727 1.754819,2.461727 -0.273152,0.236249 -0.273143,0.236249 -0.593335,0.408669 -0.593345,0.408668 -0.706179,0.355062 -0.706188,0.355062 -0.859476,0.287569 -0.859477,0.287569 -0.762,0.123863 -0.762,0.123864 -0.762,0.03604 -0.762,0.03604 -0.750528,-0.06528 z m -9.367139,-6.43052 v -0.08722 l -0.222716,-0.526616 -0.222715,-0.526615 -0.161118,-0.550334 -0.161118,-0.550333 -0.126306,-0.635 -0.126308,-0.635 -0.0518,-0.931334 -0.0518,-0.931333 0.10306,-0.884682 0.103062,-0.884683 0.20727,-0.797742 0.207271,-0.797742 0.25161,-0.591274 0.25161,-0.591275 v -0.0758 -0.0758 h -2.331284 -2.331284 l 0.02412,4.296833 0.02412,4.296834 0.224558,0.381 0.224559,0.381 0.265434,0.19537 0.265433,0.195371 0.356674,0.130124 0.356675,0.130124 0.635,0.06483 0.635,0.06483 0.8255,0.01184 0.8255,0.01184 z"
         id="path7295" />
    </g>
  </g>
</svg>
