<?xml version="1.0" encoding="UTF-8"?>
<svg width="79.375mm" height="25.956mm" version="1.1" viewBox="0 0 79.375 25.956" xmlns="http://www.w3.org/2000/svg" xmlns:cc="http://creativecommons.org/ns#" xmlns:dc="http://purl.org/dc/elements/1.1/" xmlns:rdf="http://www.w3.org/1999/02/22-rdf-syntax-ns#">
 <metadata>
  <rdf:RDF>
   <cc:Work rdf:about="">
    <dc:format>image/svg+xml</dc:format>
    <dc:type rdf:resource="http://purl.org/dc/dcmitype/StillImage"/>
    <dc:title/>
   </cc:Work>
  </rdf:RDF>
 </metadata>
 <g transform="matrix(.1389 0 0 .1389 -1.6543 -15.779)" fill="#211e1e">
  <path d="m512.53 230.71c1.5898-4.4219 13.797-4.9531 7.0742-11.676-1.418-6.0117 4.0703-8.668 7.0742-11.852-2.2969-1.5938-5.6602-2.6524-8.3125-4.2461-6.5469-4.5976-10.969-12.203-10.969-21.227 0-12.207 8.5547-21.934 18.285-25.828 10.359-4.2969 21.344 1.9453 30.891 0.88671 3.0117-1.9492 3.7188-5.6641 2.832-9.1992l-1.0586-2.6524 3.9648-1.6172c0.46875 0.125 0.86719 0.58204 1.1641 1.6172 3.8906 7.0742 1.2383 16.094-3.1836 22.109 3.8906 10.613 2.1211 24.414-6.1914 32.02-7.0742 7.4297-18.926 4.7773-24.414 12.914-0.88281 3.0039 1.2383 4.9531 3.1836 6.0156 15.219 1.5898 29.723 2.2969 39.805 13.09l2.8281 3.5391c8.8476 10.082 10.262 28.301 4.0703 40.332-6.8984 14.684-20.695 24.41-37.148 25.473-17.691 0.88281-34.32-7.0742-40.688-22.465-6.8984-14.332-2.8281-33.082 7.2539-44.051m66.867 30.25c0-11.32-6.3711-20.344-14.152-26.711-10.613-7.0742-29.895-12.914-42.809-4.7774-7.7852 4.7774-12.383 12.207-12.738 21.586 0.71093 14.504 10.613 26.004 22.113 32.191 10.438 4.7773 24.59 5.8398 35.203 0.35547 7.4297-4.9531 12.738-13.09 12.383-22.645m-22.996-81.551c-2.4766-10.789-8.8438-21.402-21.227-22.996-5.6641 0.88672-10.617 3.5391-12.914 8.4922-3.1875 8.8438 0.52734 18.398 5.8398 24.941 5.125 5.1289 13.086 9.375 21.047 6.1914 5.6602-2.6523 8.1367-10.082 7.2539-16.629"/>
  <path d="m508.46 216.28h-24.234v-2.7031l5.1914-0.0742 0.11328-48.773c-1.25-4.2969-3.7148-6.1953-7.9609-6.1953-4.9531 0.17969-9.082 4.2969-10.602 8.9727v42.582c0.63281 3.0976 4.8047 3.918 7.7734 3.4141v2.7773h-24.238v-2.7774h5.4726l-0.10547-46.773-4.4414 3.9375-2.1602-2.2266 18.219-17.336 2.1367 2.125-2.6562 2.6524v4.9297c4.2969-5.4336 12.371-9.3516 20.332-6.875 4.4258 1.9453 8.9141 5.7695 9.2695 11.074l0.28516 45.004c0.70703 3.0039 3.3594 3.1836 6.0156 3.7148h1.5898z"/>
  <path d="m451.76 216.28h-24.5v-2.7773l5.8594 0.0664 0.15625-46.188-0.0859-1.3906-4.6758 4.5508-1.7812-2.1016 17.867-17.336 1.9453 2.125-2.3633 2.9062 0.0625 52.992c0.17578 2.125 1.9492 3.3633 3.3633 4.0703 1.25 1.0625 4.1524 0.6836 4.1524 0.6836z"/>
  <path d="m364.96 176.3c-0.62891-7.1484 1.8086-14.859-5.9766-16.98-2.8281-1.2383-6.3672 0-8.6641 1.2383-3.7188 2.6523-5.4492 4.6758-5.4492 11.496v35.887c0.50781 3.793 2.0234 4.9297 4.5625 5.1562 1.5312 0.15234 4.2812 0.15234 4.2812 0.15234v3.0312h-25.27l0.11328-2.6523h5.4453l0.12891-47.133-4.5234 3.3008-1.9258-2.2891 18.031-16.324 2.3008 1.9453-3.1445 3.2617v4.5469c3.0352-4.4219 8.5156-7.4023 14.531-7.582l1.5156 0.0625 3.2227 0.69531 0.82031 0.44141v-5.1172h3.1602l0.0625 26.863z"/>
  <path d="m298.13 217.62c-15.215 1.9453-27.598-4.4219-34.141-17.691-5.3086-10.789-1.5938-24.586 4.4219-33.254 8.4922-9.9062 21.227-15.57 35.379-12.914 9.9062 1.9414 19.469 8.0586 22.629 18.926h-55.355c-4.0703 8.3164-2.6523 20.344 3.0078 27.242 6.7227 8.8477 17.867 14.684 29.719 12.031 8.8438-1.7695 16.27-7.7852 20.168-15.746l2.4727 0.88672c-4.5977 12.027-15.035 18.926-28.301 20.52m14.77-48.293-0.61719-0.88281c-4.4258-6.3711-11.32-10.441-19.992-10.266-8.1367 0-15.211 4.7812-18.926 11.148z"/>
  <path d="m241.51 213.88v2.3984h-25.148l0.0859-2.1992c3.0039-0.35156 7.625-0.57812 6.8672-4.75v-45.488c-1.0156-4.9297-6.3828-6.3672-10.805-6.1914-4.0703 0.35156-7.7461 3.6641-9.1641 7.2031l-0.0352 41.797c-0.35156 3.1875 1.1758 5.8398 3.7148 6.5469 0.86328 0.97266 3.4726 0.29297 4.5352 0.58985v2.418h-24.891s0.125-1.8203 0.0117-2.125c2.3008-0.88281 6.6836 0.8125 6.0156-3.5391v-81.371l-0.35547-0.35547-4.2852 3.3125-1.9024-2.25 18.039-16.273 1.9492 1.9414-2.832 3.0117-0.0898 39.977c2.5273-1.8945 5.9297-3.5352 8.582-4.2422 4.7734-1.2422 10.082-1.418 14.504 0.35156 8.25 3.6406 6.9023 12.738 7.0781 20.52l0.35156 34.676c0.31641 2.5234 2.125 3.5352 4.25 3.8906 0.88282-0.0898 3.5234 0.15235 3.5234 0.15235"/>
  <path d="m151.3 217.62c-11.852-3.7148-21.406-14.504-22.113-27.598-1.0586-13.441 6.0156-24.059 15.922-30.602 8.8438-5.4844 21.645-7.2266 32.082-4.043l0.11328-4.8008h3.1719l-0.125 33.965h-3.0469v-20.699c-6.3672-4.2461-15.391-7.0742-23.703-4.2461-6.0156 1.9453-13.27 6.8984-15.391 13.621-4.2461 12.914 1.7695 26.711 11.32 34.852 7.2539 5.8359 19.812 6.3672 28.305 2.2969 2.2852-0.37891 6.0352-3.5469 6.6836-4.4453l1.7695 2.1484c-8.8476 8.1367-21.367 12.734-34.988 9.5508"/>
  <path d="m249.46 137.17c3.2109 0 5.8125-2.5976 5.8125-5.8047 0-3.2109-2.6016-5.8086-5.8125-5.8086-3.2031 0-5.8047 2.5977-5.8047 5.8086 0 3.207 2.6016 5.8047 5.8047 5.8047"/>
  <path d="m425.66 216.39h-24.238v-2.7031l5.1953-0.0781 0.11718-48.77c-1.2539-4.3008-3.7188-6.1914-7.9648-6.1914-4.9531 0.17578-9.0859 4.293-10.602 8.9688v42.582c0.63281 3.0976 4.8008 3.918 7.7734 3.4102v2.7812h-24.238v-2.7812h5.4727l-0.10547-46.766-4.4453 3.9336-2.1562-2.2226 18.219-17.34 2.1328 2.125-2.6523 2.6524v4.9297c4.2969-5.4336 12.371-9.3516 20.332-6.875 4.4219 1.9453 8.9141 5.7695 9.2656 11.074l0.28516 45.004c0.71094 3.0078 3.3633 3.1836 6.0156 3.7148l1.543-0.33987z"/>
  <path d="m437.49 137.17c3.207 0 5.8047-2.5976 5.8047-5.8047 0-3.2109-2.5977-5.8086-5.8047-5.8086s-5.8086 2.5977-5.8086 5.8086c0 3.207 2.6016 5.8047 5.8086 5.8047"/>
  <path d="m143.18 234.11c2.6523 22.645-8.3125 44.402-26.184 55.195-22.109 13.27-58.727 15.387-81.371 1.4141-16.629-10.258-26.535-28.48-22.996-49.531l1.9453-6.7226 0.88281-3.1836c7.9609-16.453 21.406-26.004 41.039-25.652 12.914 0.70703 25.121 5.8398 31.668 16.984 3.8906 5.4844 3.8906 15.922 0 21.402-3.0078 6.7226-10.613 8.668-18.043 8.8476-3.0078-0.17968-6.1953 0.35157-8.4922-1.4141-0.70703-1.5938-0.17969-3.1875 0.53125-4.6016 6.8984-0.17578 11.32-5.1289 14.152-10.969 1.5898-4.4219 0.52734-9.375-1.0625-13.266-4.5977-8.1406-13.445-10.793-22.645-10.613-13.266 1.0586-22.82 10.789-26.359 22.465-4.7734 16.805 1.9492 34.496 13.801 44.934 12.559 11.496 36.266 17.512 54.309 10.258 15.215-2.3008 27.242-16.273 31.133-30.602 3.3633-13.09-0.88282-27.953-10.438-35.027-20.52-17.512-46.523-22.82-63.152-45.109-6.1914-10.082-7.6055-26.184-1.0586-36.973 7.4297-13.621 22.816-19.812 38.738-17.688 5.1328 0.88281 10.438 3.1836 15.391 4.9531 0.08985-4.1211 0.21485-12.207 0.21485-12.207h7.5664l-0.043 62.488-6.6758-0.043c-0.17968-17.336 1.9453-39.805-16.098-46.703-5.8398-2.4766-13.801-1.2383-19.281 1.2383-6.0156 3.0078-9.5547 9.1992-10.793 16.098-0.35156 16.984 15.391 24.766 27.418 30.781 22.469 11.676 48.824 22.113 55.195 50.418"/>
  <path d="m239.53 251.07c-4.5312 1.4805-9.5938 1.8828-13.945-3.3047-2.7344-3.2656-1.4961-7.9414-0.54297-8.6562 0.67188-0.50391 2.5274-2.0195 3.875 0.84375 1.6367 3.4805 2.1875 5.3906 4.2109 6.7383 2.0195 1.3477 4.9883 1.6328 8.9297-1.8516 4.3789-3.8789 4.3789-10.445 4.5469-14.492 0.16797-4.043-0.16797-66.715-0.16797-66.715l-5.4726 5.082-1.8945-1.7695 18.184-17.535 1.9414 1.7656-2.9024 3.6133s0.53906 71.719-0.082 76.066c-0.67578 4.7148-4.0391 9.8047-6.9102 13.48-4.2109 5.3906-9.7695 6.7344-9.7695 6.7344"/>
 </g>
</svg>
