<?xml version="1.0" encoding="UTF-8" standalone="no"?>
<svg
   xmlns:dc="http://purl.org/dc/elements/1.1/"
   xmlns:cc="http://creativecommons.org/ns#"
   xmlns:rdf="http://www.w3.org/1999/02/22-rdf-syntax-ns#"
   xmlns:svg="http://www.w3.org/2000/svg"
   xmlns="http://www.w3.org/2000/svg"
   xmlns:sodipodi="http://sodipodi.sourceforge.net/DTD/sodipodi-0.dtd"
   xmlns:inkscape="http://www.inkscape.org/namespaces/inkscape"
   width="79.375mm"
   height="18.520834mm"
   viewBox="0 0 79.375 18.520833"
   version="1.1"
   id="svg5622"
   inkscape:version="1.0.2 (1.0.2+r75+1)"
   sodipodi:docname="300Talens.svg">
  <defs
     id="defs5616" />
  <sodipodi:namedview
     id="base"
     pagecolor="#ffffff"
     bordercolor="#666666"
     borderopacity="1.0"
     inkscape:pageopacity="0.0"
     inkscape:pageshadow="2"
     inkscape:zoom="1.4"
     inkscape:cx="47.678224"
     inkscape:cy="101.96778"
     inkscape:document-units="mm"
     inkscape:current-layer="layer1"
     inkscape:document-rotation="0"
     showgrid="false"
     fit-margin-top="0"
     fit-margin-left="0"
     fit-margin-right="0"
     fit-margin-bottom="0"
     inkscape:window-width="1920"
     inkscape:window-height="1031"
     inkscape:window-x="0"
     inkscape:window-y="0"
     inkscape:window-maximized="1" />
  <metadata
     id="metadata5619">
    <rdf:RDF>
      <cc:Work
         rdf:about="">
        <dc:format>image/svg+xml</dc:format>
        <dc:type
           rdf:resource="http://purl.org/dc/dcmitype/StillImage" />
        <dc:title></dc:title>
      </cc:Work>
    </rdf:RDF>
  </metadata>
  <g
     inkscape:label="Warstwa 1"
     inkscape:groupmode="layer"
     id="layer1">
    <g
       id="surface747050"
       transform="matrix(0.31113153,0,0,0.31113153,-6.9761523,-6.9761523)">
      <path
         style="fill:#ff7f14;fill-opacity:1;fill-rule:nonzero;stroke:none"
         d="m 73.019531,78.46875 -1.820312,0.08203 V 67.734375 l 2.59375,-0.07813 h 3.226562 l -0.09766,1.042969 -4.332031,-0.175781 -0.09375,4.09375 3.78125,-0.109376 -0.222656,1.027344 -3.558594,-0.109375 0.09375,4.175781 4.808594,-0.160156 -0.09375,1.027344 z m 0,0"
         id="path7524" />
      <path
         style="fill:#ff7f14;fill-opacity:1;fill-rule:nonzero;stroke:none"
         d="M 80.277344,78.46875 79.0625,78.56641 v -7.464844 l 0.835938,-0.01562 0.207031,0.902343 c 0.933593,-0.648437 1.976562,-1.011719 2.8125,-1.011719 1.125,0 1.582031,0.472657 1.914062,1.027344 1.027344,-0.714844 2.054688,-1.027344 2.832031,-1.027344 1.390626,0 2.210938,0.582032 2.210938,2.402344 v 5.089844 l -1.214844,0.09766 v -4.871094 c 0,-1.265624 -0.839844,-1.675781 -2.105468,-1.675781 -0.140626,0 -0.394532,0.0625 -0.726563,0.1875 -0.332031,0.144531 -0.617187,0.269531 -0.820313,0.382813 0.0625,0.171875 0.07813,0.519531 0.07813,0.945312 v 4.933594 l -1.21875,0.09766 v -4.871094 c 0,-1.265624 -0.789063,-1.675781 -2.054688,-1.675781 -0.191406,0 -0.441406,0.0625 -0.773438,0.1875 -0.332031,0.144531 -0.585937,0.253907 -0.761718,0.367188 z m 0,0"
         id="path7526" />
      <path
         style="fill:#ff7f14;fill-opacity:1;fill-rule:nonzero;stroke:none"
         d="m 93.054688,77.554688 c 0.269531,0.07812 0.886718,0.125 1.375,0.125 1.914062,0 2.894531,-0.839844 2.894531,-2.78125 0,-1.960938 -1.214844,-2.925782 -2.703125,-2.925782 -0.191406,0 -0.441406,0.07813 -0.773438,0.21875 -0.332031,0.144532 -0.585937,0.269532 -0.792968,0.382813 z m 0.09766,4.300781 -1.3125,0.09375 V 71.164062 l 0.835937,-0.07812 0.191407,0.902343 c 0.902343,-0.648437 1.769531,-1.011719 2.84375,-1.011719 1.566406,0 2.910156,1.183594 2.910156,3.570313 0,1.347656 -0.570313,2.390625 -1.28125,3.066406 -0.679688,0.652344 -1.46875,0.9375 -2.355469,0.9375 -0.695313,0 -1.421875,-0.144531 -1.945313,-0.316406 z m 0,0"
         id="path7528" />
      <path
         style="fill:#ff7f14;fill-opacity:1;fill-rule:nonzero;stroke:none"
         d="m 101.94141,76.96875 c 0.4414,0.617188 1.05859,0.917969 1.83203,0.917969 1.45703,0 2.27734,-1.171875 2.27734,-2.941407 0,-1.789062 -0.91406,-3.273437 -2.44922,-3.273437 -1.4375,0 -2.33984,1.058594 -2.33984,2.957031 0,0.945313 0.22266,1.722656 0.67969,2.339844 m 1.53515,1.691406 c -1.94531,0 -3.605466,-1.550781 -3.605466,-3.859375 0,-2.308593 1.707036,-3.90625 3.968746,-3.90625 1.92969,0 3.58985,1.535157 3.58985,3.84375 0,2.292969 -1.71094,3.921875 -3.95313,3.921875"
         id="path7530" />
      <path
         style="fill:#ff7f14;fill-opacity:1;fill-rule:nonzero;stroke:none"
         d="M 111.67969,78.566406 111,78.644531 l -2.95703,-7.480469 1.26562,-0.191406 2.13282,5.757813 1.66015,-5.550781 0.72657,-0.09375 1.99609,5.722656 2.00391,-5.835938 0.99609,0.175782 -2.85938,7.417968 -0.61718,0.07813 -1.96094,-5.457031 z m 0,0"
         id="path7532" />
      <path
         style="fill:#ff7f14;fill-opacity:1;fill-rule:nonzero;stroke:none"
         d="m 120.76953,73.710938 3.71485,-0.07813 c -0.20313,-1.25 -0.75782,-1.898437 -1.62891,-1.898437 -0.96484,0 -1.81641,0.773437 -2.08594,1.976563 m 4.78906,3.636718 c -0.58203,0.757813 -1.60937,1.3125 -2.73437,1.3125 -1.86328,0 -3.49219,-1.25 -3.49219,-3.621094 0,-2.71875 1.99219,-4.144531 3.63672,-4.144531 1.15234,0 2.73438,0.761719 2.8125,3.589844 l -5.08984,-0.01563 c 0.0156,2.074219 0.94922,3.179688 2.60937,3.179688 0.77344,0 1.4375,-0.347657 1.99219,-0.808594 z m 0,0"
         id="path7534" />
      <path
         style="fill:#ff7f14;fill-opacity:1;fill-rule:nonzero;stroke:none"
         d="m 128.80078,78.46875 -1.23437,0.09766 v -7.402344 l 0.85546,-0.07812 0.1875,0.917968 c 0.76172,-0.523437 1.55079,-0.886718 2.45313,-1.09375 0.0469,0.128906 0.23437,1.332032 0.23437,1.425782 -0.6289,0 -1.92578,0.09375 -2.49609,0.140624 z m 0,0"
         id="path7536" />
      <path
         style="fill:#ff7f14;fill-opacity:1;fill-rule:nonzero;stroke:none"
         d="m 136.5,81.617188 1.84766,-3.386719 -3.19141,-7.003907 1.29687,-0.253906 2.4961,5.851563 2.08594,-5.816407 1.01171,0.203126 -4.34765,10.660156 z m 0,0"
         id="path7538" />
      <path
         style="fill:#ff7f14;fill-opacity:1;fill-rule:nonzero;stroke:none"
         d="m 144.65625,76.96875 c 0.44141,0.617188 1.05859,0.917969 1.83203,0.917969 1.45703,0 2.27734,-1.171875 2.27734,-2.941407 0,-1.789062 -0.91406,-3.273437 -2.44921,-3.273437 -1.4375,0 -2.33985,1.058594 -2.33985,2.957031 0,0.945313 0.22266,1.722656 0.67969,2.339844 m 1.53516,1.691406 c -1.94532,0 -3.60547,-1.550781 -3.60547,-3.859375 0,-2.308593 1.70703,-3.90625 3.96875,-3.90625 1.92968,0 3.58984,1.535157 3.58984,3.84375 0,2.292969 -1.71094,3.921875 -3.95312,3.921875"
         id="path7540" />
      <path
         style="fill:#ff7f14;fill-opacity:1;fill-rule:nonzero;stroke:none"
         d="m 156.92578,77.570312 c -0.94922,0.644532 -1.94531,0.976563 -2.78516,0.976563 -1.45312,0 -2.30859,-0.679687 -2.30859,-2.386719 v -4.996094 l 1.23438,-0.07812 v 4.773437 c 0,1.25 0.93359,1.679687 2.19921,1.679687 0.33204,0 1.1836,-0.382812 1.48438,-0.554687 v -5.820313 l 1.23437,-0.07812 v 7.367187 l -0.83984,0.113281 z m 0,0"
         id="path7542" />
      <path
         style="fill:#ff7f14;fill-opacity:1;fill-rule:nonzero;stroke:none"
         d="m 161.65234,78.46875 -1.23437,0.09766 v -7.402344 l 0.85156,-0.07812 0.19141,0.917968 c 0.75781,-0.523437 1.55078,-0.886718 2.44922,-1.09375 0.0469,0.128906 0.23828,1.332032 0.23828,1.425782 -0.63282,0 -1.92969,0.09375 -2.4961,0.140624 z m 0,0"
         id="path7544" />
      <path
         style="fill:#ff7f14;fill-opacity:1;fill-rule:nonzero;stroke:none"
         d="m 175.04297,77.363281 c -0.63281,0.742188 -1.61328,1.296875 -2.70703,1.296875 -1.92578,0 -3.73047,-1.21875 -3.73047,-3.652344 0,-1.265624 0.55469,-2.308593 1.20312,-2.957031 0.71094,-0.695312 1.69141,-1.171875 2.94141,-1.171875 0.96484,0 1.5625,0.207032 1.99219,0.414063 l -0.17578,0.980469 C 174.125,72.066406 173.34766,71.8125 172.57422,71.8125 c -1.3125,0 -2.59375,0.777344 -2.59375,2.769531 0,1.992188 1.25,3.066407 2.78515,3.066407 0.77344,0 1.42188,-0.347657 2.00782,-0.808594 z m 0,0"
         id="path7546" />
      <path
         style="fill:#ff7f14;fill-opacity:1;fill-rule:nonzero;stroke:none"
         d="m 177.78906,78.46875 -1.23047,0.09766 v -7.402344 l 0.85157,-0.07812 0.1914,0.917968 c 0.75781,-0.523437 1.55078,-0.886718 2.44922,-1.09375 0.0508,0.128906 0.23828,1.332032 0.23828,1.425782 -0.63281,0 -1.92969,0.09375 -2.5,0.140624 z m 0,0"
         id="path7548" />
      <path
         style="fill:#ff7f14;fill-opacity:1;fill-rule:nonzero;stroke:none"
         d="m 182.45703,73.710938 3.71484,-0.07813 c -0.20703,-1.25 -0.76171,-1.898437 -1.6289,-1.898437 -0.96485,0 -1.82031,0.773437 -2.08594,1.976563 m 4.78906,3.636718 c -0.58593,0.757813 -1.61328,1.3125 -2.73437,1.3125 -1.86719,0 -3.4961,-1.25 -3.4961,-3.621094 0,-2.71875 1.99219,-4.144531 3.63672,-4.144531 1.15625,0 2.73438,0.761719 2.81641,3.589844 L 182.375,74.46875 c 0.0156,2.074219 0.94922,3.179688 2.60937,3.179688 0.77344,0 1.44141,-0.347657 1.99219,-0.808594 z m 0,0"
         id="path7550" />
      <path
         style="fill:#ff7f14;fill-opacity:1;fill-rule:nonzero;stroke:none"
         d="m 191.32422,77.632812 c 0.2539,0 1.13672,-0.410156 1.5,-0.617187 v -1.945313 c -1.19922,0.125 -3.05078,0.632813 -3.05078,1.5 0,0.523438 0.46093,1.0625 1.55078,1.0625 m 1.66015,-0.128906 c -0.63281,0.570313 -1.55078,1.046875 -2.54687,1.046875 -1.12109,0 -1.91406,-0.730469 -1.91406,-1.695312 0,-0.835938 0.63281,-1.578125 1.77343,-1.972657 0.36329,-0.113281 0.78907,-0.207031 1.28125,-0.285156 0.48829,-0.06641 0.91407,-0.09766 1.2461,-0.09766 v -0.265625 c 0,-1.519531 -0.50391,-2.246094 -1.5,-2.261719 -0.58594,0.04687 -1.34375,0.234375 -1.97656,0.441406 l -0.0625,-0.773437 c 0.30078,-0.175781 0.69531,-0.332031 1.21484,-0.476563 0.50781,-0.140624 1.01562,-0.203124 1.51953,-0.203124 0.99609,0 2.03906,0.550781 2.03906,2.574218 v 3.75 l 0.0781,1.183594 -0.75781,0.09766 z m 0,0"
         id="path7552" />
      <path
         style="fill:#ff7f14;fill-opacity:1;fill-rule:nonzero;stroke:none"
         d="m 200.69922,78.042969 c -0.44531,0.234375 -1.35938,0.554687 -2.19922,0.554687 -0.96484,0 -1.53125,-0.460937 -1.53125,-1.789062 v -4.835938 l -1.50391,0.04687 0.0977,-0.933593 1.39062,0.04687 0.48829,-2.210937 0.72656,-0.08203 v 2.292968 l 2.08594,-0.04687 -0.0937,0.933593 -1.96094,-0.04687 v 4.757813 c 0,0.585937 0.23828,0.835937 0.94922,0.855469 0.52343,0.01562 1.14062,-0.09766 1.51953,-0.160157 z m 0,0"
         id="path7554" />
      <path
         style="fill:#ff7f14;fill-opacity:1;fill-rule:nonzero;stroke:none"
         d="m 203.44922,78.46875 -1.23438,0.09766 v -7.402344 l 1.23438,-0.07812 z m -0.10938,-9.21875 -1.09375,0.144531 -0.0625,-1.800781 1.34375,-0.191406 z m 0,0"
         id="path7556" />
      <path
         style="fill:#ff7f14;fill-opacity:1;fill-rule:nonzero;stroke:none"
         d="m 208.71484,78.566406 -0.58593,0.07813 -3.19532,-7.449219 1.3125,-0.234374 2.32422,5.925781 2.3086,-5.894531 1.02734,0.15625 z m 0,0"
         id="path7558" />
      <path
         style="fill:#ff7f14;fill-opacity:1;fill-rule:nonzero;stroke:none"
         d="m 214.625,78.46875 -1.23438,0.09766 v -7.402344 l 1.23438,-0.07812 z m -0.10938,-9.21875 -1.09375,0.144531 -0.0625,-1.800781 1.34375,-0.191406 z m 0,0"
         id="path7560" />
      <path
         style="fill:#ff7f14;fill-opacity:1;fill-rule:nonzero;stroke:none"
         d="m 221.45703,78.042969 c -0.44531,0.234375 -1.36328,0.554687 -2.19922,0.554687 -0.96484,0 -1.53515,-0.460937 -1.53515,-1.789062 v -4.835938 l -1.5,0.04687 0.0937,-0.933593 1.39062,0.04687 0.49219,-2.210937 0.72656,-0.08203 v 2.292968 l 2.08594,-0.04687 -0.0937,0.933593 -1.96094,-0.04687 v 4.757813 c 0,0.585937 0.23828,0.835937 0.94922,0.855469 0.51953,0.01562 1.13672,-0.09766 1.51562,-0.160157 z m 0,0"
         id="path7562" />
      <path
         style="fill:#ff7f14;fill-opacity:1;fill-rule:nonzero;stroke:none"
         d="m 223.21094,81.617188 1.84765,-3.386719 -3.1914,-7.003907 1.29687,-0.253906 2.4961,5.851563 2.08593,-5.816407 1.01172,0.203126 -4.34765,10.660156 z m 0,0"
         id="path7564" />
      <path
         style="fill:#2e2e2e;fill-opacity:1;fill-rule:nonzero;stroke:none"
         d="M 25.214844,24.539062 25.054688,34.5625 29.296875,34.402344 c 1.507813,-0.417969 3.371094,-2.214844 3.371094,-4.851563 0,-2.953125 -1.925781,-4.847656 -5.109375,-4.945312 z m 12.429687,19.882813 -2.855469,0.707031 -6.234374,-9.023437 -3.5,-0.06641 0.160156,8.738282 -2.792969,0.191406 V 22.964844 l 5.460937,-0.15625 c 2.472657,-0.09766 4.398438,0.445312 5.714844,1.570312 1.320313,1.15625 1.992188,2.667969 1.992188,4.496094 0,1.222656 -0.417969,2.445312 -1.21875,3.632812 -0.804688,1.21875 -1.960938,2.152344 -3.46875,2.761719 v 0.09766 z m 0,0"
         id="path7566" />
      <path
         style="fill:#2e2e2e;fill-opacity:1;fill-rule:nonzero;stroke:none"
         d="m 51.28125,43.332031 c 4.816406,0 8.160156,-3.566406 8.160156,-9.28125 0,-5.6875 -3.921875,-9.765625 -8.386718,-9.765625 -4.753907,0 -8.15625,3.53125 -8.15625,9.3125 0,5.558594 3.984374,9.734375 8.382812,9.734375 m -0.449219,1.832031 c -6.136719,0 -10.921875,-4.5625 -10.921875,-11.371093 0,-6.265625 5.460938,-11.371094 11.5625,-11.371094 6.167969,0 10.953125,4.59375 10.953125,11.402344 0,6.328125 -5.714843,11.339843 -11.59375,11.339843"
         id="path7568" />
      <path
         style="fill:#2e2e2e;fill-opacity:1;fill-rule:nonzero;stroke:none"
         d="m 74.484375,44.777344 -2.792969,0.191406 v -10.4375 l -8.289062,-11.371094 3.019531,-0.386718 6.972656,10.183593 7.195313,-10.183593 2.40625,0.386718 -8.542969,11.46875 z m 0,0"
         id="path7570" />
      <path
         style="fill:#2e2e2e;fill-opacity:1;fill-rule:nonzero;stroke:none"
         d="m 91.550781,26.597656 -4.398437,10.890625 9.089844,0.15625 z m 10.472659,18.148438 -2.957034,0.320312 -2.183594,-5.8125 -10.566406,0.191406 -2.183594,5.558594 -2.410156,-0.257812 9.476563,-21.941406 1.285156,-0.320313 z m 0,0"
         id="path7572" />
      <path
         style="fill:#2e2e2e;fill-opacity:1;fill-rule:nonzero;stroke:none"
         d="M 111.77344,44.777344 105.95703,44.9375 V 23 l 2.82813,-0.195312 -0.12891,9.285156 0.0625,10.953125 9.34766,-0.351563 -0.19141,2.085938 z m 0,0"
         id="path7574" />
      <path
         style="fill:#2e2e2e;fill-opacity:1;fill-rule:nonzero;stroke:none"
         d="m 176.46875,44.777344 -2.79688,0.191406 V 24.605469 l -8.51171,0.320312 0.1914,-2.121093 h 9.44531 l 9.92579,-0.191407 -0.19141,2.25 -8,-0.289062 -0.16016,8.0625 z m 0,0"
         id="path7576" />
      <path
         style="fill:#2e2e2e;fill-opacity:1;fill-rule:nonzero;stroke:none"
         d="m 193.04297,26.597656 -4.39844,10.890625 9.08984,0.15625 z m 10.47265,18.148438 -2.95312,0.320312 -2.1875,-5.8125 -10.56641,0.191406 -2.18359,5.558594 -2.41016,-0.257812 9.47657,-21.941406 1.28515,-0.320313 z m 0,0"
         id="path7578" />
      <path
         style="fill:#2e2e2e;fill-opacity:1;fill-rule:nonzero;stroke:none"
         d="m 213.26562,44.777344 -5.8164,0.160156 V 23 l 2.82812,-0.195312 -0.1289,9.285156 0.0625,10.953125 9.35156,-0.351563 -0.19531,2.085938 z m 0,0"
         id="path7580" />
      <path
         style="fill:#2e2e2e;fill-opacity:1;fill-rule:nonzero;stroke:none"
         d="M 227.24219,44.777344 223.55078,44.9375 V 22.964844 l 5.26563,-0.160156 h 6.55468 l -0.1914,2.121093 -8.80469,-0.351562 -0.19141,8.316406 7.67578,-0.222656 -0.44921,2.085937 -7.22657,-0.222656 0.19141,8.480469 9.76562,-0.320313 -0.1914,2.085938 z m 0,0"
         id="path7582" />
      <path
         style="fill:#2e2e2e;fill-opacity:1;fill-rule:nonzero;stroke:none"
         d="M 243.03906,44.777344 240.53516,44.96875 240.76172,23 242.81641,22.804688 256.37109,39.796875 256.11328,23 258.62109,22.804688 258.33203,44.808594 257.39844,44.96875 242.75,27.175781 Z m 0,0"
         id="path7584" />
      <path
         style="fill:#2e2e2e;fill-opacity:1;fill-rule:nonzero;stroke:none"
         d="m 269.66797,45.003906 c -1.28516,0 -2.53516,-0.257812 -3.78906,-0.773437 -1.25391,-0.511719 -2.1836,-1.125 -2.85938,-1.796875 l 1.38281,-1.476563 c 1.69922,1.28125 3.53125,2.246094 6.00391,2.246094 2.69922,0 4.59375,-1.253906 4.59375,-3.660156 0,-1.285157 -0.44922,-2.25 -1.31641,-2.859375 -0.86718,-0.613282 -2.02343,-1.191406 -3.46875,-1.800782 -3.01953,-1.1875 -6.26562,-2.441406 -6.26562,-6.457031 0,-3.210937 2.92578,-5.84375 6.9414,-5.84375 2.08594,0 4.26954,0.578125 5.52344,1.507813 l -0.51562,1.894531 c -1.28125,-0.609375 -3.75782,-1.476563 -5.58594,-1.476563 -2.08984,0 -3.82422,0.996094 -3.82422,3.085938 0,1.347656 0.44922,2.34375 1.31641,2.953125 0.86718,0.644531 2.02343,1.253906 3.4375,1.832031 2.98828,1.285156 6.29687,2.3125 6.29687,6.261719 0,4.242187 -3.82422,6.363281 -7.87109,6.363281"
         id="path7586" />
      <path
         style="fill:#ffffff;fill-opacity:1;fill-rule:nonzero;stroke:none"
         d="m 130.43359,44.917969 h 22.42188 V 22.5 h -22.42188 z m 0,0"
         id="path7588" />
      <path
         style="fill:#ff0000;fill-opacity:1;fill-rule:nonzero;stroke:none"
         d="m 141.64453,43.988281 c -5.67578,0 -10.27734,-4.601562 -10.27734,-10.277343 0,-5.675782 4.60156,-10.277344 10.27734,-10.277344 5.67578,0 10.27734,4.601562 10.27734,10.277344 0,5.675781 -4.60156,10.277343 -10.27734,10.277343 m -11.21094,0.929688 h 22.42188 V 22.5 h -22.42188 z m 0,0"
         id="path7590" />
      <path
         style="fill:#ff0000;fill-opacity:1;fill-rule:nonzero;stroke:none"
         d="m 132.62109,35.511719 c 0.19141,1.007812 1.25,3.507812 2.98047,2.882812 1.28516,-0.460937 1.37891,-1.644531 1.6211,-2.992187 0.23437,-1.296875 0.53515,-3.691406 0.96875,-4.230469 0.0273,-0.02734 -0.008,-0.07422 -0.0547,-0.07422 -1.03125,0.03516 -1.71094,2.328125 -2.07422,3.40625 -0.70703,2.089844 -2.9375,2.257813 -3.30469,0.992188 -0.0117,-0.04687 -0.15234,-0.03516 -0.13672,0.01563"
         id="path7592" />
      <path
         style="fill:#ff0000;fill-opacity:1;fill-rule:nonzero;stroke:none"
         d="m 149.63672,30.242188 c -0.0156,-0.04297 -0.0352,-0.08594 -0.0547,-0.128907 -0.64453,-1.539062 0.23438,-1.761719 0.28906,-1.117187 0.0234,0.320312 -0.0898,0.792968 -0.23437,1.246094 m -5.80469,3.5625 c -0.0352,-0.121094 -0.0586,-0.261719 -0.0508,-0.429688 0.0273,-0.511719 0.32031,-1.082031 0.65625,-1.15625 0.12891,-0.02734 0.25781,0.0039 0.27344,0.210938 0,0.464843 -0.48438,1.011718 -0.87891,1.375 m -4.16406,1.375 c -0.0547,0.527343 -0.37891,1.050781 -0.6836,1.054687 -0.30468,0.0039 -0.5039,-0.433594 -0.41796,-1.042969 0.0703,-0.523437 0.33984,-0.957031 0.64062,-0.960937 0.30469,-0.0039 0.50781,0.421875 0.46094,0.949219 m 10.8125,-3.296876 c -0.25,-0.554687 -0.42578,-0.773437 -0.67578,-1.28125 0.21875,-0.601562 0.45703,-1.410156 0.41797,-1.765624 -0.17579,-1.441407 -2.14063,0.08984 -1.72266,1.964843 0.10937,0.503907 0.23437,0.894531 0.36328,1.230469 -0.57812,1.199219 -0.84375,0.984375 -0.79687,0.5625 0.0352,-0.316406 0.10546,-0.886719 0.10546,-0.886719 0.1875,-1.148437 -0.4375,-1.226562 -0.82421,-0.976562 -0.21094,0.140625 -0.48829,0.539062 -0.6211,0.820312 l 0.11328,-0.554687 -1.05468,0.40625 -0.33204,1.757812 c -0.4414,0.988282 -0.87109,1.152344 -1.17968,1.109375 -0.10157,-0.01953 -0.1836,-0.07031 -0.26172,-0.140625 0.97265,-0.867187 1.32812,-1.574218 1.23828,-2.101562 -0.0898,-0.53125 -0.50391,-0.554688 -0.78906,-0.464844 -0.78125,0.234375 -1.42188,1.007812 -1.58985,2.066406 -0.0586,0.347656 -0.0469,0.664063 0.0195,0.929688 -0.66796,1.0625 -0.73828,0.460937 -0.65625,0.05469 0.19141,-0.988281 0.89454,-5 0.89454,-5 l -1.0586,0.421875 c 0,0 -0.65625,3.542969 -0.88281,4.890625 -0.49219,1.210938 -0.64453,0.761719 -0.56641,0.355469 0.1836,-0.992188 0.42188,-2.238281 0.42188,-2.238281 l -1.02344,0.390625 c 0,0 -0.0742,0.320312 -0.17187,0.808594 -0.13672,-0.390626 -0.38672,-0.648438 -0.71485,-0.683594 -0.6289,-0.07031 -1.30859,0.738281 -1.51172,1.800781 -0.19922,1.0625 0.14844,1.980469 0.78125,2.042969 0.44922,0.04687 0.91797,-0.347656 1.22657,-0.957032 0.16796,0.378907 0.58203,0.351563 0.82812,0.1875 0.26563,-0.179687 0.52344,-0.574218 0.69531,-0.933593 0.0937,0.507812 0.49219,0.511719 0.78516,0.351562 0.45312,-0.246093 0.90234,-0.839843 1.09766,-1.113281 0.17968,0.308594 0.46484,0.480469 0.8164,0.4375 0.46875,-0.05859 1.04297,-0.621094 1.42969,-1.300781 l -0.14844,0.789062 1.05469,-0.410156 0.37109,-1.945313 c 0.52735,-1.25 0.66797,-0.824218 0.625,-0.441406 0,0 -0.043,0.359375 -0.10547,0.910156 -0.1289,1.132813 0.38282,1.207032 0.75,0.988282 0.54297,-0.324219 0.88672,-0.984375 1.1836,-1.574219 0.23047,0.523437 0.47265,0.957031 0.69922,1.585937 1.52343,4.296876 -4.25,3.867188 -6.55078,3.941407 -2.12891,0.08984 -2.35547,1.921875 -2.57422,3.324219 7.9414,0 11.49218,-5.808594 9.89453,-9.359376"
         id="path7594" />
      <path
         style="fill:#ff0000;fill-opacity:1;fill-rule:nonzero;stroke:none"
         d="m 142.71875,25.863281 c -0.12891,0.980469 -0.19141,3.007813 -2.11328,3.332031 -3.125,0.523438 -7.34375,1.871094 -8.01953,4.917969 -0.008,0.04297 -0.11328,0.0625 -0.125,0.01953 -0.125,-4.808593 4.17578,-8.269531 10.25781,-8.269531"
         id="path7596" />
    </g>
  </g>
</svg>
