<?xml version="1.0" encoding="UTF-8"?>
<svg width="79.375mm" height="69.009mm" version="1.1" viewBox="0 0 79.375 69.009" xmlns="http://www.w3.org/2000/svg" xmlns:cc="http://creativecommons.org/ns#" xmlns:dc="http://purl.org/dc/elements/1.1/" xmlns:rdf="http://www.w3.org/1999/02/22-rdf-syntax-ns#">
 <metadata>
  <rdf:RDF>
   <cc:Work rdf:about="">
    <dc:format>image/svg+xml</dc:format>
    <dc:type rdf:resource="http://purl.org/dc/dcmitype/StillImage"/>
    <dc:title/>
   </cc:Work>
  </rdf:RDF>
 </metadata>
 <g transform="translate(21.555 -1.0664)">
  <g transform="matrix(.46643 0 0 .46643 -42.177 -15.352)">
   <g transform="matrix(0 .35278 .35278 0 214.39 162.91)">
    <path d="m0 0v-2.893l-6.305 0.141-2.393 0.178 1.886-0.457 6.812-2.018v-2.608l-6.842-2.083-1.826-0.492 2.363 0.207 6.305 0.181v-2.858h-11.837v3.74l8.558 2.683-8.558 2.505v3.774zm0-17.222v-2.967h-9.445v-3.598h-2.392v10.129h2.392v-3.564h9.445" fill="#231f20"/>
   </g>
   <g transform="matrix(0 .35278 .35278 0 72.616 36.217)">
    <path d="m0 0c14.995 13.218 14.854 41.026 14.854 52.249 0 11.231-0.635 32.245-1.078 38.589 0 0 5.557 4.448 5.094 14.413-0.464 9.955-0.942 18.962-0.942 18.962s-1.801-3.472-4.498-3.628c0 0-1.175-15.229-2.578-18.865l-0.208-0.029-0.967 23.911s7.862 1.555 9.474 10.061l0.307 0.035c0.93-7.991 3.076-62.972 3.076-79.178 0-16.216 1.658-50.023-22.016-56.807l-0.518 0.287" fill="#231f20" fill-rule="evenodd"/>
   </g>
   <g transform="matrix(0 .35278 .35278 0 74.115 42.471)">
    <path d="m0 0c14.999 13.231 14.857 41.029 14.857 52.259 0 11.221-0.023 27.759-0.455 34.102 0 0 5.821 5.136 5.231 16.802-0.504 9.967-0.759 18.159-0.759 18.159s-1.592-2.823-4.415-3.077c0 0-0.766-13.659-2.181-17.286l-0.224-0.061-1.358 22.071s7.313 1.537 9.446 9.988l0.334 0.074c0.942-7.998 2.056-60.295 2.056-76.51s1.673-50.021-22.001-56.79l-0.531 0.269" fill="#231f20" fill-rule="evenodd"/>
   </g>
   <g transform="matrix(0 .35278 .35278 0 75.929 49.235)">
    <path d="m0 0c15.022 13.19 13.525 40.558 13.547 51.777 0.023 11.223-1.287 30.731-1.7 37.075 0 0 5.743 3.149 5.3 13.118-0.458 9.964-1.116 18.252-1.116 18.252s-1.727-3.19-4.48-3.628c0 0-1.151-13.208-2.262-17.04l-0.234-0.033-1.243 21.554s8.318 2.194 9.371 10.93l0.347 0.062c0.926-8 4.086-59.709 4.053-75.924-0.034-16.218 2.618-49.694-21.067-56.431l-0.516 0.288" fill="#231f20" fill-rule="evenodd"/>
   </g>
   <g transform="matrix(0 .35278 .35278 0 77.874 55.644)">
    <path d="m0 0c14.996 13.221 12.582 41.1 12.582 52.319 0 11.238-1.25 29.619-1.692 35.964 0 0 5.789 3.167 5.311 13.137-0.464 9.954-0.998 16.487-0.998 16.487s-1.542-3.374-4.258-3.765c0 0-0.404-11.965-1.808-15.596l-0.231-0.044-1.383 20.549s7.625 1.699 8.845 10.325l0.35 0.083c0.944-8.012 3.889-56.527 3.889-72.744 0-16.221 3.576-50.225-20.097-56.994l-0.51 0.279" fill="#231f20" fill-rule="evenodd"/>
   </g>
   <g transform="matrix(0 .35278 .35278 0 83.269 68.1)">
    <path d="m0 0c14.929 13.3 12.296 40.645 12.235 51.867-0.056 11.23-1.735 26.316-2.198 32.658 0 0 5.723 3.194 5.202 13.149-0.513 9.952-1.036 16.134-1.036 16.134s-2.066-3.367-4.299-4.145c0 0-0.378-10.977-1.772-14.614l-0.258-0.049-1.444 18.993s7.329 2.06 8.896 10.941l0.336 0.112c0.977-7.991 4.498-52.539 4.579-68.754 0.082-16.216 3.912-49.677-19.725-56.563l-0.516 0.271" fill="#231f20" fill-rule="evenodd"/>
   </g>
   <g transform="matrix(0 .35278 .35278 0 137.09 88.766)">
    <path d="m0 0c2.478-14.1-2.826-19.76-2.826-19.76 1.312-6.226 3.035-16.723 4.011-22.625 1.837-11.067 7.193-47.97-0.788-60.401l0.462-0.246c15.662 13.569 11.139 43.365 8.668 61.243-2.234 16.063-6.093 33.22-8.917 42.033" fill="#231f20" fill-rule="evenodd"/>
   </g>
   <g transform="matrix(0 .35278 .35278 0 80.068 61.638)">
    <path d="m0 0c14.995 13.221 12.489 40.577 12.489 51.813 0 11.22-1.736 29.731-2.168 36.075 0 0 6.45 3.789 5.981 13.742-0.463 9.967-1.032 15.846-1.032 15.846s-1.567-2.929-4.426-3.836c0 0-0.521-11.324-1.94-14.961l-0.241-0.028-1.185 19.995s7.368 1.519 8.927 9.584l0.392 0.119c0.941-8.003 4.253-52.467 4.253-68.683s3.122-53.161-20.551-59.946l-0.499 0.28" fill="#231f20" fill-rule="evenodd"/>
   </g>
   <g transform="matrix(0 .35278 .35278 0 87.211 75.184)">
    <path d="m0 0c13.676 13.989 9.606 47.409 9.036 58.623-0.3 5.973-1.585 17.639-2.185 23.974 0 0 5.401 4.648 4.674 14.594-0.727 9.957-1.38 14.687-1.38 14.687s-2.117-3.236-3.839-3.361c0 0-0.205-10.453-1.521-14.12l-0.24-0.057-2.005 18.37s7.647 1.596 8.428 9.667l0.395 0.153c1.556-9.971 5.268-47.546 5.665-63.748 0.439-18.053 5.685-47.516-16.585-59.054l-0.443 0.272" fill="#231f20" fill-rule="evenodd"/>
   </g>
   <g transform="matrix(0 .35278 .35278 0 133.97 84.36)">
    <path d="m0 0c3.657-9.812 6.497-41.684 7.432-57.872 1.044-18.023 3.237-50.438-12.911-59.38l-0.448 0.267c8.953 11.736 6.322 45.214 5.381 56.403-0.502 5.955-2.037 16.692-2.755 23.628 0 0 6.304 5.076 4.608 17.275-1.372 9.873-1.706 10.22-1.706 10.22s-1.994-4.018-4.074-4.733c0 0-0.206-7.14-1.399-10.846l-0.22-0.046-1.965 15.055s6.328 2.373 7.685 9.857l0.372 0.172" fill="#231f20" fill-rule="evenodd"/>
   </g>
   <g transform="matrix(0 .35278 .35278 0 141.4 45.411)">
    <path d="m0 0c-2.346-0.858-7.157-0.498-7.157-0.498l-0.127-0.36c-4.248-10.613-14.289-14.352-17.123-14.261l0.059-0.453c0.166-0.032 0.357-0.06 0.577-0.085 16.96-2.036 23.771 15.657 23.771 15.657" fill="#231f20"/>
   </g>
   <g transform="matrix(0 .35278 .35278 0 166.57 90.456)">
    <path d="m0 0c-5.485 2.506-11.115 3.887-14.529 4.314 0.077 0.582 0.107 1.081 0.107 1.471 0 0.588-0.051 0.916-0.053 0.93l-0.01 0.06-0.053 0.026c-6.087 3.062-12.163 2.595-17.375 0.824-6.355 11.599-16.111 23.429-23.603 39.741-4.004 8.583-6.057 12.159-5.775 18.079 0.319 6.735 0.919 11.279 0.319 14.399-0.6 3.118-2.082 6.322-2.345 8.69-0.341 3.054 4.803 4.362 6.981 4.201-0.082-1.211-0.226-3.106 0.581-6.414 0.765-3.141 0.403-6.059-0.322-8.917l0.348-0.143c2.7 3.76 2.289 7.752 1.823 11.245-0.484 3.632 8e-3 4.734 2.913 5.543 2.906 0.806 6.607-1.209 6.607-1.209-0.573-0.574-1.552-2.298-1.149-4.717 0.385-2.314 0.421-6.535-1.285-11.046l0.333-0.136c2.882 3.752 3.794 6.373 3.947 10.053 0.162 3.875 1.776 5.488 4.922 5.166 3.148-0.322 6.557-1.882 6.879-6.08 0.608-7.889-7.198-8.194-8.086-19.25-0.888-11.057 6.133-18.883 21.466-39.059 10.937-14.39 15.59-23.643 17.359-27.771zm-36.124-12.727c-5.222-1.951-10.127-2.827-12.469-3.162 0.606 0.519 1.183 1.053 1.713 1.611 2.248 2.364 3.408 4.337 4.186 6.67 4.413 2.805 14.658 5.764 14.762 5.791l0.593 0.142-0.604 0.088c-5.584 0.812-11.116-0.114-13.29-0.562 13.815 11.194 22.503 6.549 23.165 5.291-1.366-7.227-11.43-13.395-18.056-15.869zm24.92-8.565c-0.142-0.48-1.184-3.522-5.539-6.616-4.085-2.897-11.95-6.389-26.509-7.155 1.445 0.932 2.672 1.885 3.701 2.8 3.35 2.982 5.832 5.984 6.698 7.747 2.295 0.466 10.115 2.157 12.849 2.157h0.469l-0.414 0.221c-0.045 0.025-3.945 2.034-11.626 1.874-2.35 2.329-4.786 3.613-6.395 4.27 0.296 0.096 0.587 0.188 0.875 0.285 5.944 1.22 17.191 2.448 25.891-5.583zm-0.479-26.39c-0.262-0.402-2.406-3.375-6.301-5.291-3.856-1.898-10.701-3.636-21.476-1.332 2.081 1.176 4.03 2.703 5.657 4.695 2.16 0.477 10.047 2.129 15.783 2.129h0.678l-0.639 0.227c-0.086 0.029-7.21 2.545-14.993 3.042-3.049 4.525-6.998 6.288-7.707 6.574 1.5 0.095 3.194 0.238 5.008 0.457h0.731c0.476 0 0.98 8e-3 1.507 0.018 5.836 0.1 15.095 0.791 21.752-10.519zm-48.845-7.973c1.648 1.489 2.924 3.065 3.904 4.619 0.616 0.169 1.256 0.348 1.934 0.537 3.47 0.975 7.788 2.187 11.363 2.669l0.42 0.055-0.388 0.168c-0.053 0.023-4.741 1.985-12.794 1.264-2.863 3.219-6.121 4.575-7.766 5.085 4.143 0.276 7.745 0.938 10.859 1.842 5.883-0.017 12.647-1.624 16.78-7.404-0.548-0.852-7.392-9.912-24.312-8.835zm26.847-2.365c1.68-0.538 4.257-1.578 6.904-3.47 4.1-2.934 10.028-9.047 11.074-19.207-1.375 1.114-9.799 7.486-18.608 9.095-0.073 1.053-0.223 2.042-0.439 2.975 2.722-0.201 7.986-0.807 11.178-2.584l0.397-0.219-0.24 0.385c-0.031 0.051-3.005 4.648-13.372 7.506-2.346 3.951-5.687 6.162-7.193 7.01 1.225-0.293 5.251-1.174 10.299-1.491zm-52.668-18.417c1.099 1.017 2.243 2.99 2.253 3.005 2.414 0.493 7.768 1.691 12.494 3.241l0.565 0.187-0.593 0.043c-0.103 8e-3 -8.247 0.608-14.306 1.324-1.589 2.422-3.523 3.226-4.095 3.586 1.265 0.34 2.571 0.795 3.903 1.399 6.028-0.12 10.972 0.524 15.031 1.66 1.843-0.828 6.172-2.994 9.503-6.703-0.506-0.827-5.83-8.649-24.755-7.742zm-21.603-0.716c0.911 0.741 1.821 1.668 2.717 2.812 0.708-0.032 7.307-0.3 10.99 0.759l0.377 0.11-0.375 0.116c-0.075 0.024-7.57 2.355-11.856 3.723l-2.668 1.719c1.855 0.728 3.301 1.578 4.755 2.832 0.22-0.041 0.387-0.101 0.652-0.148l0.608-0.12c11.56-1.617 14.086-7.906 14.45-8.657-7.034-6.033-15.449-4.321-19.65-3.146zm5.562 13.6c1.359 1.448 2.523 3.129 3.51 4.99 1.478 0.063 7.394 0.413 11.221 2.065l0.308 0.135-0.324 0.086c-0.054 0.013-4.943 1.342-9.3 2.112 0.558 1.593 1.024 3.265 1.405 4.999 2.738-0.242 9.325-1.943 13.413-6.6-0.511-0.858-5.892-9.218-20.233-7.787zm50.191 5.621c13.296-4.712 13.843-11.548 13.863-12.238-5.037-4.902-15.765-3.162-20.927-2.325-0.209 0.032-0.407 0.065-0.599 0.095 0.667 0.694 1.298 1.447 1.887 2.263l0.029 0.045-5e-3 0.021c2.508 0.49 7.454 1.43 12.992 2.342l0.577 0.096-0.57 0.133c-0.091 0.023-6.976 1.641-13.38 2.318-2.121 2.546-4.272 3.953-7.755 5.761 1.119 0.565 2.142 1.171 3.074 1.81l0.069-0.012c0.05-8e-3 4.847-0.814 10.745-0.309zm-32.939 12.274c3.863 0.058 7.253 0.502 10.23 1.235 3.729 0.35 10.347 0.603 14.807-4.64-0.213-0.488-1.618-3.511-5.05-6.386-3.216-2.698-8.878-5.768-17.914-5.694 1.602 1.071 3.215 2.392 4.81 3.996 2.183 0.59 6.856 2.068 11.34 4.907l0.403 0.255-0.475-0.04c-0.091-8e-3 -6.743-0.554-11.525-0.873-2.94 3.543-7.275 5.59-8.722 6.203 0.757 0.312 1.452 0.66 2.096 1.037zm-9.236 4.997c1.88 0.593 5.813 1.811 8.415 2.441l0.287 0.069-0.257 0.145c-0.098 0.059-2.493 1.393-8.266 1.5 0.028 1.734 4e-3 3.472-0.072 5.199 9.336-0.279 12.857-5.316 13.214-5.869-3.101-7.302-9.919-8.906-13.978-9.184 0.303 1.858 0.518 3.765 0.657 5.699zm18.18 13.867c3.228 0.827 11.426 2.704 16.253-2.249-0.122-0.468-0.973-3.376-4.072-6.512-2.924-2.959-8.471-6.69-18.496-8.205 2.423 2.162 3.651 4.586 4.217 6.042l0.065-0.057 0.062 0.019c0.056 0.018 5.615 1.719 10.109 4.447l0.351 0.213-0.411 6e-3c-0.066 1e-3 -5.332 0.054-10.479-0.235-1.302 1.873-4.144 3.345-5.604 4.005 2.482 0.523 5.268 1.306 8.005 2.526zm-18.456 0.743-0.016 0.184c1.399 0.947 4.083 2.707 5.276 4.017l0.228 0.289 0.479 0.655c-0.038-0.01-4.051-1.149-6.24-1.546-0.068 1.257-0.072 2.097-0.055 3.149 6.339 1.437 10.97 4.836 11.969 5.615-0.369-8.965-9.472-14.191-11.4-15.198-0.068 0.951-0.145 1.899-0.241 2.835zm29.381 18.98c-0.114-0.948-0.234-5.476-3.441-9.945-3.012-4.199-9.435-9.095-20.616-11.156l-0.165 5e-3c2.278 1.253 4.019 2.61 5.34 4.001 1.359 0.953 2.71 1.914 4.121 2.924 2.77 1.982 5.635 4.031 9.084 6.35l0.656 0.441-10.303-3.145c0.048 0.231 0.089 0.461 0.124 0.689 1.631 1.592 6.812 6.229 15.2 9.836zm8.031-18.361c-1.642 1.413-3.739 2.219-5.061 2.616 2.798 0.828 5.326 1.807 7.576 2.932 5.78 1.542 10.03 1.005 12.775 0.118 3.484-1.125 5.75-2.834 6.056-3.17-5.132-12.645-20.063-14.945-27.003-15.621 3.23 2.701 5.352 5.824 6.74 8.727l0.018 0.037c0.509 0.176 1.07 0.377 1.657 0.586 2.808 0.998 6.653 2.369 9.544 2.775l0.425 0.059-0.397 0.168c-0.048 0.017-4.279 1.719-12.33 0.773zm3.214 21.395c4.518 2.683 8.93 4.464 9.735 4.772 3e-3 -0.145 4e-3 -0.286 4e-3 -0.428 0-10.676-7.684-16.398-13.65-19.11-4.149-1.885-8.33-2.732-10.823-3.102 1.186 1.138 2.273 2.432 3.211 3.913 4.162 4.113 14.434 8.744 14.543 8.792l0.576 0.259-0.63-0.034c-4.586-0.241-9.998-1.772-11.708-2.288l0.029 0.129c1.188 1.285 3.965 4.288 8.713 7.097zm1.369 104.09c-2.681-2.397-2.395-3.473-3.3-4.742-2.199 0.026-3.282 7e-3 -4.881-0.713-0.101 3.925 4.027 5.783 8.181 5.455zm15.354-0.831c-2.686-0.244-4.742-2.316-6.021-3.916-1.52 0.773-5.3 2.046-7.076 1.499 1.66 5.211 8.971 5.37 13.097 2.417zm13.874-2.665c-4.065-0.026-6.384-2.311-7.808-3.95-1.62 1.071-4.574 2.426-6.318 2.071 2.217 3.447 10.226 4.767 14.126 1.879zm34.628-2.504c2.373 3.227 10.155 4.701 12.784 0.849-0.466 0.05-2.747 0.127-4.599-0.595-0.848-0.332-1.554-0.84-2.187-1.198-1.766 0.952-4.062 1.079-5.998 0.944zm27.832-3.942c-4.827 0.93-6.839-0.756-6.839-0.756-1.105 1.719-3.4 3.877-5.557 4.4 3.359 2.979 10.737 1.724 12.396-3.644zm11.395-9.16c-3.078 1.092-5.71 1.828-8.856 0.67-1.067 1.404-2.522 2.862-4.22 3.643 5.041 2.738 10.451 0.218 13.076-4.313zm-53.584-344.66c6.33-1.325 9.255-8.627 6.108-13.791-3.147-5.165-10.773-5.167-16.26-1.535-5.488 3.632-8.251 10.348-8.251 10.348 6.39 4.294 12.807 6.149 18.403 4.978zm-26.623 338.86c3.519 3.52 5.226 8.958 2.88 13.652-2.346 4.693 7.678 6.633 7.678 6.633-4.797 6.208-12.904 6.056-15.569 4.226-7.997 6.381-13.225 3.962-16.083 1.872-12.457 2.707-14.107-6.693-13.606-9.184-2.678-2.215-0.998-7.665-0.118-10.372 1.008-3.104 1.034-5.231 0.56-11.791-0.484-6.679-1.755-10.285 6.457-25.962 8.859-17.921 16.693-31.353 20.637-38.797-1.834-0.978-3.48-2.042-4.877-3.052-0.321 1.936-0.799 3.16-0.807 3.178l-0.048 0.12-0.114-0.058c-1.737-0.874-3.318-1.64-4.848-2.383-6.414-3.112-10.89-5.291-14.423-9.567 0.034 0.602 0.056 1.217 0.056 1.851v4e-3c0 0.812-0.029 1.654-0.085 2.504l-0.01 0.161-0.151-0.06c-0.035-0.013-3.581-1.443-9.651-4.66-4.009-2.136-7.233-4.799-8.624-6.026-0.402 2.359-1.257 3.946-1.268 3.967l-0.099 0.18-0.105-0.178c-1.731-2.914-9.627-6.223-12.767-7.312 1.035 8.66 5.364 7.976 5.364 7.976-6.518 10.348-17.68 9.965-20.433 9.573 2.155 8.205 3.902 16.807-2.516 25.892l-0.584-0.041c2.905-9.481 0.409-17.818-1.418-25.351-17.445 13.21-20.548 7.639-20.548 7.639l-3.229 0.814c-6.4 1.419-8.703-2.346-9.166-5.938-0.428-3.238-0.803-14.723-0.886-18.341-0.064-3.588-0.797-3.621-2.038-4.924-7.601-7.98-3.521-21.582-2.733-27.624 0.778-6.029 1.217-19.455 0.511-28.107h0.454c2.743 7.066 4.367 23.88 1.604 37.47-1.719 8.425 2.808 13.022 4.145 14.82 1.333 1.804 1.014 1 1.801 9.855 0.789 8.851 2.274 15.521 3.215 18.341 0.942 2.825 4.151 1.75 5.672 1.289 0 0-1.646-5.171-1.778-7.903l0.557-0.225c5.866 12.8 17.28 4.212 19.075 2.834-3.074-0.596-7.111-3.208-8.089-12.584-1.321-12.78 5.973-18.887 13.175-18.887 5.167 0 8.377 4.323 7.004 13.22-0.088 0.562-0.348 1.401-0.495 1.986l-0.381-2e-3c2e-3 -0.941 0.062-1.984 0.062-1.984 0-3.463-1.134-8.187-6.145-8.187-5.015 0-9.264 5.216-8.813 12.332 0.34 5.529 1.485 12.107 6.561 12.134-1.462-6.499-1.994-12.4 2.532-17.929l0.585 0.043c-1.801 5.806-0.145 11.807 1.516 18.037 3.099-2.016 4.512-4 4.512-4 6.653 0.463 12.472-3.253 12.472-3.253-5.647-2.894-6.633-9.946-6.247-26.95 0.392-17.004-2.277-29.924-16.912-34.781l-0.361-0.104-0.01-0.217 0.557-0.222 7.575-3.424c-0.655-0.811-4.962-5.586-13.79-3.557-0.621 0.139-1.13 0.282-1.37 0.321l-0.136-0.198c0.132-0.117 0.661-0.523 0.922-0.72 1.707-1.301 6.544-4.36 11.862-2.252 9.582-3.561 16.208-2.246 20.097-0.48 0.394 0.18 0.763 0.368 1.117 0.562 4.583-0.856 18.027-2.576 27.307 4.187 11.534-2.615 18.393-1.713 22.125-0.468 0.327 0.108 0.63 0.222 0.921 0.337 2.517-0.279 4.825-0.671 6.943-1.161-23.747-33.422-44.058-13.958-80.589-14.396-26.523-0.312-45.373-27.714-43.283-60.946 1.648-26.185 3.485-70.617 2.208-90.516l0.486 2e-3c5.9 7.954 3.299 63.84 1.95 90.209-1.704 33.26 20.901 56.246 47.29 53.748 32.731-3.1 60.379-11.265 73.504 21.514 13.991-3.701 19.02-11.784 20.323-18.774h0.584c0.013 0.233 0.021 0.542 0.021 0.953 0 0.129 2e-3 0.315 5e-3 0.546 5e-3 0.409 0.013 0.974 0.013 1.665 0 7-1.317 13.029-2.768 18.399-2.14 7.921-5.698 13.286-10.589 15.996 6.24 0.937 11.855 2.072 16.841 9.608l0.027 0.044-0.012 0.048c-0.029 0.121-3.039 11.128-15.064 13.294 6.622 2.465 13.025 7.338 15.371 14.392l0.017 0.052-0.027 0.046c-0.064 0.108-6.18 9.258-18.627 9.697 5.054 3.386 7.717 7.155 9.095 10.303 9.97-2.441 15.489-5.812 18.048-7.781-0.573-4.205-1.519-8.56-1.519-8.56l0.454-0.114s0.368 0.598 0.647 1.209c5.652 10.763 3.914 28.1 0.605 44.48-3.309 16.383-10.386 31.323-4.842 39.221 5.653 8.051 5.327 11.78 7.102 17.592 1.775 5.811 7.419 5.725 10.619 5.085-0.86-1.519-1.07-3.679-2.216-6.3-1.155-2.645-3.422-5.791-6.054-8.4l0.48-0.207c4.417 1.57 8.485 6.672 9.801 10.308 1.371 3.794 1.226 4.915 5.414 5.614 4.543 0.757 7.2-4.702 7.2-4.702s-0.533 0.133-2.603-1.535c-2.31-1.858-6.211-9.445-8.973-12.799l0.481-0.208c4.418 1.647 5.886 6.359 10.96 10.378 3.72 2.951 10.024-1.988 10.504-8.704 0.371-5.192-4.915-7.01-10.025-9.813-14.996-9.006-9.49-19.834-4.798-37.75 4.693-17.915 13.011-50.655 13.011-69.211 0-18.555-8.286-23.92-11.87-31.717-2.18-4.738-0.308-10.841 1.05-15.541h0.36c0.212 6.838 3.361 11.61 6.417 15.102 3.367-5.981 14.984-27.137 5.103-66.66-5.81-23.241-25.877-47.729-44.329-69.94-11.385-13.703-20.265-24.618-21.968-41.233-1.819-17.762 8.587-35.528 22.353-34.685 14.997 0.917 16.602 17.813 8.733 25.001-7.457 6.817-18.316 1.895-18.316 1.895s-2.29 5.233-0.034 14.437c2.118 8.636 11.118 14.786 25.191 11.611 12.118-2.734 30.808-16.48 31.651-43.076 0.843-26.595-22.033-43.976-37.927-47.358-10.114-2.153-30.972-3.628-50.132 15.788-26.677 27.034-8.735 71.035-8.735 71.035l-0.524 0.02s-7.802-10.393-10.604-26.638c-17.028-17.087-46.705-21.727-60.074-17.069l-0.041-0.447c16.263-13.118 42.493-4.025 59.468 12.739-0.752-7.598 3.314-24.377 2.742-24.931-3.464-3.36-15.754-17.134-16.569-44.12 0 0-8.974 11.137-6.98 30.291 0 0-13.763-15.174-26.163-17.243 0 0-0.395 14.902 10.096 26.783-3.797 0.072-6.864 1.751-6.864 1.751-1.537-4.251-7.251-16.707-5.471-31.123 0 0 14.065-0.562 23.867 6.885 0 0 2.964-17.886 16.672-26.04 0 0-5.265 27.629 16.814 49.341 4.541-13.2 36.681-48.349 78.222-27.909 2.951 1.266 6.67 3.328 10.516 6.326 0.203 0.145 0.404 0.278 0.607 0.424l7e-3 0.06c7.418 5.959 15.175 15.425 18.687 29.478 5.972 23.886-6.268 42.824-14.231 51.646-7.961 8.823-28.405 17.648-45.297 12.374 6.779 10.007 25.823 29.267 39.919 51.11 14.095 21.843 20.121 38.195 21.412 60.04 1.236 20.914-5.913 34.528-12.001 45.565 4.207 4.618 10.339 13.149 7.734 29.227-3.093 19.089-18.236 65.478-21.435 79.131-3.199 13.649-2.88 14.289 7.891 20.687 10.772 6.399 12.036 11.588 10.314 16.565 1.889 1.422 5.149 2.308 9.629-0.676-0.854 6.078-4.693 10.452-11.411 12.582-4.799 10.027-10.907 9.658-16.3 8.01-8.442 6.148-16.67 0.332-18.199-3.449-2.16-0.401-5.485-3.129-6.318-7.069-0.858-4.059-3.16-9.08-6.572-13.24-3.413-4.158-5.285-8.671-3.259-17.736 2.666-11.305 8.022-36.764 7.703-39.963-2.986 4.905-19.735 23.572-29.892 36.017-10.158 12.447-3.413 19.942 0.106 23.461" fill="#231f20"/>
   </g>
   <g transform="matrix(0 .35278 .35278 0 151.85 41.817)">
    <path d="m0 0c0-3.115-2.968-7.567-2.968-7.567l-0.675 12.412s3.643-1.729 3.643-4.845zm-2.55 13.681c-3.513-4.336-4.049-7.875-3.182-14.869 0.83-6.693 1.187-11.535 1.187-11.535s2.245 1.652 5.583 8.624c3.337 6.972-0.519 12.407-2.968 13.518-0.676 0.495 1.3 2.922 1.3 2.922 0.319 0.375 0.041 0.756-0.434 1.166l-0.038 0.032-0.078 0.064c-0.453 0.377-0.66 0.577-1.37 0.078" fill="#231f20"/>
   </g>
   <g transform="matrix(0 .35278 .35278 0 156.63 41.428)">
    <path d="m0 0c0.035-0.026-0.129 0.113 0 0" fill="#231f20"/>
   </g>
   <g transform="matrix(0 .35278 .35278 0 73.211 143.1)">
    <path d="m0 0v-2.082l-52.702-19.644v-0.233l52.702-17.91v-1.963l-55.945-21.025c-8.894-3.346-10.396-4.845-10.86-10.746h-1.963v29.12h1.963c1.048-5.319 4.977-5.086 9.365-3.47l32.567 12.021v0.224l-34.185 11.556c-5.549-2.426-6.815-4.043-7.747-9.598h-1.963v28.775h1.963c1.16-4.156 4.161-5.086 7.747-3.692l34.185 12.593v0.227l-27.829 9.357c-7.867 2.66-12.709 3.122-14.103-4.161h-1.963v21.027h1.963c0.579-5.428 5.087-9.236 15.366-12.711l51.439-17.665" fill="#231f20"/>
   </g>
   <g transform="matrix(0 .35278 .35278 0 95.404 135.94)">
    <path d="m0 0c5.065 0 6.525 1.265 7.991 7.214h1.662v-26.997h-1.662c-1.757 7.015-3.704 7.213-9.259 7.213h-37.58c-5.076 0-6.53-1.265-7.991-7.213h-1.662v26.997h1.662c1.555-6.818 3.703-7.214 9.151-7.214h37.688" fill="#231f20"/>
   </g>
   <g transform="matrix(0 .35278 .35278 0 123.84 139.35)">
    <path d="m0 0v-1.86l-46.837-41.028h34.62c6.237 0 9.487 1.844 10.555 8.377h1.662v-19.69h-1.662c-0.978 6.144-5.777 7.609-11.33 7.512h-37.944c-4.486-4.389-5.16-5.268-5.648-7.603h-1.661v17.156l38.205 33.326h-25.636c-6.913 0-9.549-1.165-10.908-7.215h-1.661v19.306h1.661c0.384-6.533 4.286-8.281 9.35-8.281h47.234" fill="#231f20"/>
   </g>
   <g transform="matrix(0 .35278 .35278 0 144.46 123.48)">
    <path d="m0 0v-1.661c-6.622-2.143-11.79-8.284-11.79-14.127 0-5.171 3.414-9.362 7.702-9.362 2.145 0 4.286 1.069 6.042 2.823 2.834 2.833 9.746 15.889 13.252 19.401 4.295 4.282 8.187 6.234 13.163 6.234 12.569 0 16.56-11.302 16.56-18.314 0-6.834-2.235-11.012-2.235-13.943 0-1.265 0.68-2.346 1.854-2.925v-1.663h-17.156v1.663c8.478 1.66 14.334 7.12 14.334 15.295 0 6.145-3.413 10.538-8.097 10.538-1.848 0-4.38-0.792-6.529-2.928-4.387-4.39-8.576-14.425-13.361-19.201-3.401-3.415-7.594-5.065-12.081-5.065-9.836 0-16.668 7.4-16.668 17.938 0 2.133 0.397 4.083 0.779 5.84 0.397 1.753 0.779 3.416 0.779 4.867 0 0.884-0.476 1.863-1.558 2.929v1.661h15.01" fill="#231f20"/>
   </g>
   <g transform="matrix(0 .35278 .35278 0 162.16 119.32)">
    <path d="m0 0c0-11.21 9.257-17.355 27.302-17.355 13.737 0 26.214 4.484 26.214 17.355 0 9.547-7.503 17.447-26.322 17.447-15.982 0-27.194-4.97-27.194-17.447zm56.719 0c0-18.043-12.472-31.001-29.905-31.001-17.45 0-30.034 12.958-30.034 31.001 0 18.119 12.584 31.085 30.034 31.085 17.433 0 29.905-12.966 29.905-31.085" fill="#231f20"/>
   </g>
   <g transform="matrix(0 .35278 .35278 0 185.66 129.77)">
    <path d="m0 0c0.916 12.599-3.059 18.846-14.066 18.846-8.517 0-13.175-5.233-13.175-14.306v-4.54zm-19.969-14.18c-5.572 0-7.715-1.246-9.086-8.401h-1.928v31.095c0 18.385 7.386 25.766 16.687 25.766 6.811 0 13.053-3.868 15.772-13.396h0.227c1.711 7.371 24.629 15.415 30.639 21.431 1.715 1.698 2.383 3.183 2.844 6.012h1.93v-18.724c-8.632-7.254-25.196-12.917-30.299-18.013-2.959-2.958-3.075-5.69-3.075-11.59h22.144c5.897 0 8.387 2.382 9.3 8.514h1.93v-31.095h-1.93c-0.461 5.456-3.173 8.401-8.516 8.401h-46.639" fill="#231f20"/>
   </g>
   <g transform="matrix(0 .35278 .35278 0 70.953 182.64)">
    <path d="m0 0v-2.191l-54.06-48.638h41.354c7.401 0 9.475 2.198 10.741 9.929h1.965v-23.333h-1.965c-1.15 7.281-5.085 9.014-11.663 8.898h-45.291c-5.305-5.204-6.12-6.241-6.7-9.014h-1.963v20.337l45.291 39.506h-30.387c-8.204 0-11.324-1.379-12.941-8.547h-1.963v22.871h1.963c0.465-7.737 5.088-9.818 11.093-9.818h54.526" fill="#231f20"/>
   </g>
   <g transform="matrix(0 .35278 .35278 0 91.644 175.69)">
    <path d="m0 0v-1.846c-4.971-0.687-7.304-3.219-7.304-7.9v-10.035h16.759c5.174 0 7.02 2.144 7.02 7.792v3.311c0 7.03-5.157 10.142-10.62 11.989v1.659l13.836-1.069v-43.465h-1.66c-1.363 6.329-3.311 7.215-9.154 7.215h-36.65c-4.97 0-6.723-1.175-7.901-7.215h-1.648v42.78h12.662v-1.659c-7.303-1.845-9.455-3.997-9.455-10.325v-11.013h23.591v10.035c0 4.589-1.95 6.724-7.107 7.9v1.846h17.631" fill="#231f20"/>
   </g>
   <g transform="matrix(0 .35278 .35278 0 118.56 182.64)">
    <path d="m0 0v-1.755l-43.465-16.562v-0.199l43.465-15.101v-1.659l-46.197-17.742c-7.504-2.821-8.769-4.084-9.168-9.058h-1.648v24.559h1.648c0.889-4.488 4.192-4.29 7.901-2.93l27.483 10.142v0.198l-28.85 9.745c-4.675-2.044-5.755-3.413-6.534-8.097h-1.648v24.277h1.648c0.98-3.508 3.513-4.297 6.534-3.122l28.85 10.624v0.19l-23.484 7.898c-6.632 2.244-10.722 2.636-11.9-3.508h-1.648v17.735h1.648c0.489-4.573 4.289-7.792 12.97-10.717l42.395-14.918" fill="#231f20"/>
   </g>
   <g transform="matrix(0 .35278 .35278 0 135.02 182.64)">
    <path d="m0 0h-1.66c-1.164 6.039-3.113 7.212-8.576 7.212h-43.57v-5.748c0-6.829 2.833-10.721 9.363-12.675v-1.658l-13.742 0.589v1.754c0.379 0.672 0.685 1.651 0.868 2.627 0.198 1.066 0.304 2.146 0.304 3.02v36.74c0 1.863-0.304 4.299-1.172 5.656v1.756l13.742 0.578v-1.644c-6.53-1.954-9.363-5.858-9.363-12.672v-5.754h43.667c5.559 0 7.512 1.662 8.479 7.014h1.66v-26.795" fill="#231f20"/>
   </g>
   <g transform="matrix(0 .35278 .35278 0 163.18 163.14)">
    <path d="m0 0c0-11.211 9.258-17.357 27.283-17.357 13.744 0 26.219 4.484 26.219 17.357 0 9.547-7.505 17.446-26.313 17.446-15.984 0-27.189-4.977-27.189-17.446zm56.717 0c0-18.032-12.477-30.993-29.921-30.993-17.449 0-30.015 12.961-30.015 30.993 0 18.127 12.566 31.084 30.015 31.084 17.444 0 29.921-12.957 29.921-31.084" fill="#231f20"/>
   </g>
   <g transform="matrix(0 .35278 .35278 0 199.43 182.64)">
    <path d="m0 0v-2.195l-54.06-48.637h41.354c7.401 0 9.475 2.199 10.741 9.932h1.965v-23.335h-1.965c-1.15 7.282-5.085 9.012-11.663 8.897h-45.291c-5.305-5.19-6.12-6.238-6.7-9.014h-1.963v20.339l45.291 39.508h-30.387c-8.204 0-11.324-1.384-12.941-8.552h-1.963v22.876h1.963c0.465-7.735 5.088-9.819 11.093-9.819h54.526" fill="#231f20"/>
   </g>
   <g transform="matrix(0 .35278 .35278 0 124.44 148.15)">
    <path d="m0 0c-0.676 2.337-2.745 4.383-4.814 4.383-4.021 0-7.302-2.246-7.294-5.719 6e-3 -2.347 1.604-3.882 4.008-3.882 2.417 0 4.555 1.464 8.1 5.218zm22.208-0.143c-0.062 2.279-0.87 4.486-2.543 6.625-3.756-3.077-10.951-8.209-14.424-12.09 1.808-2.613 4.058-4.44 6.733-4.44 5.818 0 10.389 4.267 10.234 9.905zm-20.269 23.479c1.21-4.343 5.354-5.482 12.976-9.759 4.079 3.544 6.692 6.357 6.692 9.561 0 1.208-0.405 2.212-1.407 3.274l0.731 0.874c3.485-2.14 5.285-5.484 5.285-9.701 0-3.612-1.205-6.084-4.68-9.557 3.204-4.361 4.68-8.434 4.68-13.246 0-7.632-4.217-12.914-10.234-12.914-5.143 0-9.604 4.301-12.543 10.779-3.755-3.414-6.11-5.297-8.995-5.297-4.82 0-9.359 4.283-9.359 12.706 0 6.959 2.881 11.104 7.687 11.104 4.018 0 7.899-3.204 9.167-9.293 3.682 3.546 6.958 6.695 10.964 9.972-3.402 1.867-5.346 2.541-7.155 2.541-2.01 0-3.149-0.743-3.809-2.541h-1.141v11.497h1.141" fill="#231f20"/>
   </g>
   <path d="m81.449 149.12v1.1948h32.151v-1.1948z" fill="#231f20"/>
   <path d="m137.7 149.2v1.118h32.148v-1.118z" fill="#231f20"/>
  </g>
 </g>
</svg>
