<?xml version="1.0" encoding="UTF-8" standalone="no"?>
<svg
   width="9.087mm"
   height="9.1044mm"
   version="1.1"
   viewBox="0 0 9.087 9.1044"
   id="svg10084"
   sodipodi:docname="facebookpage_icon.svg"
   inkscape:version="1.1.1 (3bf5ae0d25, 2021-09-20)"
   xmlns:inkscape="http://www.inkscape.org/namespaces/inkscape"
   xmlns:sodipodi="http://sodipodi.sourceforge.net/DTD/sodipodi-0.dtd"
   xmlns="http://www.w3.org/2000/svg"
   xmlns:svg="http://www.w3.org/2000/svg"
   xmlns:rdf="http://www.w3.org/1999/02/22-rdf-syntax-ns#"
   xmlns:cc="http://creativecommons.org/ns#"
   xmlns:dc="http://purl.org/dc/elements/1.1/">
  <defs
     id="defs10088" />
  <sodipodi:namedview
     pagecolor="#ffffff"
     bordercolor="#666666"
     borderopacity="1"
     objecttolerance="10"
     gridtolerance="10"
     guidetolerance="10"
     inkscape:pageopacity="0"
     inkscape:pageshadow="2"
     inkscape:window-width="1920"
     inkscape:window-height="1026"
     id="namedview10086"
     showgrid="false"
     inkscape:zoom="10.403853"
     inkscape:cx="13.985203"
     inkscape:cy="30.085008"
     inkscape:window-x="0"
     inkscape:window-y="0"
     inkscape:window-maximized="1"
     inkscape:current-layer="svg10084"
     inkscape:pagecheckerboard="0"
     inkscape:document-units="mm"
     inkscape:snap-global="true"
     inkscape:snap-object-midpoints="true" />
  <metadata
     id="metadata10072">
    <rdf:RDF>
      <cc:Work
         rdf:about="">
        <dc:format>image/svg+xml</dc:format>
        <dc:type
           rdf:resource="http://purl.org/dc/dcmitype/StillImage" />
      </cc:Work>
    </rdf:RDF>
  </metadata>
  <rect
     x="-0.0010007477"
     y="0.0060146484"
     width="9.0869999"
     height="9.0869999"
     ry="2.6877999"
     fill="#015bbb"
     id="rect10074"
     style="fill:#a5e2dd;fill-opacity:1;stroke:none;stroke-opacity:1;stroke-width:0.02645833;stroke-miterlimit:4;stroke-dasharray:none" />
  <g
     id="g1257"
     transform="matrix(1.1685851,0,0,1.1685851,4.6644305,-6.1515619)">
    <g
       id="main"
       transform="matrix(0.0289366,0,0,0.0289366,-5.6070964,5.0421814)"
       style="clip-rule:evenodd;fill-rule:evenodd;stroke-linejoin:round;stroke-miterlimit:2">
        <g
   transform="matrix(0.982236,0,0,0.982236,0.894025,3.10044)"
   id="g58">
            <g
   transform="matrix(23,0,0,23,143,174.333)"
   id="g4">
                <path
   d="M 0.755,-0.682 H 0.583 v 0.338 c 0,0.06 0,0.086 -0.012,0.116 -0.014,0.035 -0.06,0.1 -0.159,0.1 -0.067,0 -0.136,-0.034 -0.158,-0.11 C 0.242,-0.276 0.242,-0.316 0.242,-0.344 V -0.682 H 0.07 v 0.376 c 0,0.11 0.025,0.158 0.052,0.194 0.092,0.119 0.234,0.121 0.287,0.121 0.105,0 0.217,-0.026 0.287,-0.11 0.058,-0.071 0.059,-0.156 0.059,-0.21 z"
   style="fill-rule:nonzero"
   id="path2" />

            </g>

            <g
   transform="matrix(23,0,0,23,161.952,174.333)"
   id="g8">
                <path
   d="M 0.207,-0.461 H 0.062 V 0 h 0.145 v -0.199 c 0.002,-0.004 0.01,-0.029 0.012,-0.034 0.026,-0.056 0.054,-0.101 0.108,-0.101 0.037,0 0.07,0.024 0.085,0.034 l 0.04,-0.128 C 0.418,-0.453 0.39,-0.47 0.356,-0.47 c -0.052,0 -0.1,0.038 -0.149,0.141 z"
   style="fill-rule:nonzero"
   id="path6" />

            </g>

            <g
   transform="matrix(23,0,0,23,172.164,174.333)"
   id="g12">
                <path
   d="M 0.207,-0.682 H 0.062 V 0 h 0.145 v -0.035 c 0.038,0.028 0.082,0.044 0.129,0.044 0.125,0 0.215,-0.098 0.215,-0.241 0,-0.157 -0.109,-0.238 -0.225,-0.238 -0.059,0 -0.089,0.018 -0.119,0.035 z m 0,0.341 c 0.016,-0.012 0.049,-0.029 0.084,-0.029 0.038,0 0.075,0.019 0.093,0.047 0.019,0.028 0.022,0.071 0.022,0.091 0,0.122 -0.077,0.139 -0.113,0.139 -0.04,0 -0.07,-0.022 -0.086,-0.034 z"
   style="fill-rule:nonzero"
   id="path10" />

            </g>

            <g
   transform="matrix(23,0,0,23,185.619,174.333)"
   id="g16">
                <path
   d="M 0.532,-0.114 C 0.506,-0.1 0.491,-0.092 0.476,-0.092 0.453,-0.092 0.453,-0.113 0.453,-0.129 V -0.311 C 0.453,-0.367 0.446,-0.383 0.439,-0.395 0.398,-0.469 0.281,-0.47 0.258,-0.47 c -0.064,0 -0.134,0.014 -0.201,0.056 v 0.118 c 0.014,-0.016 0.081,-0.078 0.171,-0.078 0.08,0 0.079,0.054 0.079,0.078 -0.021,0.006 -0.123,0.039 -0.146,0.047 -0.034,0.012 -0.128,0.045 -0.128,0.137 0,0.074 0.06,0.121 0.129,0.121 0.071,0 0.118,-0.029 0.152,-0.051 0.005,0.018 0.014,0.051 0.082,0.051 0.044,0 0.102,-0.021 0.136,-0.042 z m -0.225,0.002 c -0.037,0.034 -0.077,0.034 -0.081,0.034 -0.02,0 -0.046,-0.017 -0.046,-0.049 0,-0.041 0.041,-0.061 0.054,-0.067 0.011,-0.005 0.063,-0.025 0.073,-0.029 z"
   style="fill-rule:nonzero"
   id="path14" />

            </g>

            <g
   transform="matrix(23,0,0,23,197.786,174.333)"
   id="g20">
                <path
   d="M 0.207,-0.461 H 0.062 V 0 h 0.145 v -0.297 c 0.006,-0.01 0.043,-0.072 0.101,-0.072 0.029,0 0.055,0.015 0.065,0.043 0.007,0.017 0.007,0.037 0.007,0.066 V 0 h 0.146 v -0.272 c 0,-0.041 -0.001,-0.074 -0.018,-0.108 -0.02,-0.041 -0.066,-0.09 -0.151,-0.09 -0.067,0 -0.111,0.03 -0.15,0.075 z"
   style="fill-rule:nonzero"
   id="path18" />

            </g>

            <g
   transform="matrix(23,0,0,23,217.612,174.333)"
   id="g24">
                <path
   d="M 0.532,-0.638 C 0.423,-0.685 0.355,-0.691 0.301,-0.691 c -0.171,0 -0.258,0.09 -0.258,0.194 0,0.144 0.124,0.192 0.222,0.226 0.09,0.031 0.129,0.045 0.129,0.09 0,0.061 -0.08,0.062 -0.102,0.062 -0.1,0 -0.178,-0.048 -0.237,-0.085 v 0.147 c 0.017,0.012 0.126,0.066 0.241,0.066 0.102,0 0.267,-0.044 0.267,-0.202 0,-0.132 -0.102,-0.184 -0.188,-0.215 -0.098,-0.035 -0.165,-0.059 -0.165,-0.1 0,-0.007 0.003,-0.056 0.103,-0.056 0.087,0 0.172,0.043 0.219,0.066 z"
   style="fill-rule:nonzero"
   id="path22" />

            </g>

            <g
   transform="matrix(23,0,0,23,231.412,174.333)"
   id="g28">
                <path
   d="M 0.209,-0.682 H 0.063 V 0 H 0.209 V -0.227 L 0.391,0 H 0.568 L 0.38,-0.233 0.56,-0.461 H 0.391 l -0.182,0.228 z"
   style="fill-rule:nonzero"
   id="path26" />

            </g>

            <g
   transform="matrix(23,0,0,23,244.43,174.333)"
   id="g32">
                <path
   d="m 0.51,-0.145 c -0.045,0.033 -0.087,0.064 -0.17,0.064 -0.09,0 -0.147,-0.042 -0.153,-0.126 H 0.518 C 0.521,-0.413 0.377,-0.47 0.281,-0.47 c -0.129,0 -0.244,0.092 -0.244,0.24 0,0.099 0.059,0.239 0.263,0.239 0.033,0 0.125,-10e-4 0.21,-0.061 z M 0.19,-0.283 c 0.003,-0.04 0.029,-0.099 0.1,-0.099 0.069,0 0.096,0.058 0.1,0.099 z"
   style="fill-rule:nonzero"
   id="path30" />

            </g>

            <g
   transform="matrix(23,0,0,23,257.356,174.333)"
   id="g36">
                <path
   d="M 0.379,-0.461 H 0.213 V -0.606 H 0.193 L 0,-0.388 v 0.027 h 0.066 v 0.167 c 0,0.069 0.006,0.103 0.028,0.134 0.034,0.047 0.092,0.069 0.15,0.069 0.065,0 0.109,-0.019 0.135,-0.029 V -0.125 C 0.348,-0.11 0.321,-0.098 0.282,-0.098 0.267,-0.098 0.225,-0.102 0.217,-0.148 0.213,-0.172 0.213,-0.188 0.213,-0.26 v -0.101 h 0.166 z"
   style="fill-rule:nonzero"
   id="path34" />

            </g>

            <g
   transform="matrix(23,0,0,23,266.717,174.333)"
   id="g40">
                <path
   d="m 0.46,-0.126 c -0.056,0.02 -0.09,0.032 -0.133,0.032 -0.093,0 -0.135,-0.069 -0.135,-0.136 0,-0.053 0.03,-0.133 0.143,-0.133 0.049,0 0.095,0.019 0.118,0.031 V -0.44 c -0.05,-0.019 -0.111,-0.03 -0.155,-0.03 -0.128,0 -0.261,0.079 -0.261,0.241 0,0.155 0.117,0.238 0.267,0.238 0.072,0 0.132,-0.022 0.156,-0.031 z"
   style="fill-rule:nonzero"
   id="path38" />

            </g>

            <g
   transform="matrix(23,0,0,23,278.102,174.333)"
   id="g44">
                <path
   d="M 0.21,-0.682 H 0.062 V 0 H 0.21 v -0.294 c 0.019,-0.037 0.055,-0.07 0.095,-0.07 0.074,0 0.074,0.079 0.074,0.115 V 0 H 0.523 V -0.28 C 0.523,-0.331 0.516,-0.365 0.491,-0.402 0.45,-0.462 0.392,-0.47 0.357,-0.47 0.32,-0.47 0.266,-0.462 0.21,-0.393 Z"
   style="fill-rule:nonzero"
   id="path42" />

            </g>

            <g
   transform="matrix(23,0,0,23,291.511,174.333)"
   id="g48">
                <path
   d="m 0.51,-0.145 c -0.045,0.033 -0.087,0.064 -0.17,0.064 -0.09,0 -0.147,-0.042 -0.153,-0.126 H 0.518 C 0.521,-0.413 0.377,-0.47 0.281,-0.47 c -0.129,0 -0.244,0.092 -0.244,0.24 0,0.099 0.059,0.239 0.263,0.239 0.033,0 0.125,-10e-4 0.21,-0.061 z M 0.19,-0.283 c 0.003,-0.04 0.029,-0.099 0.1,-0.099 0.069,0 0.096,0.058 0.1,0.099 z"
   style="fill-rule:nonzero"
   id="path46" />

            </g>

            <g
   transform="matrix(23,0,0,23,304.437,174.333)"
   id="g52">
                <path
   d="M 0.207,-0.461 H 0.062 V 0 h 0.145 v -0.199 c 0.002,-0.004 0.01,-0.029 0.012,-0.034 0.026,-0.056 0.054,-0.101 0.108,-0.101 0.037,0 0.07,0.024 0.085,0.034 l 0.04,-0.128 C 0.418,-0.453 0.39,-0.47 0.356,-0.47 c -0.052,0 -0.1,0.038 -0.149,0.141 z"
   style="fill-rule:nonzero"
   id="path50" />

            </g>

            <g
   transform="matrix(23,0,0,23,314.649,174.333)"
   id="g56">
                <path
   d="M 0.377,-0.436 C 0.354,-0.448 0.309,-0.47 0.226,-0.47 c -0.122,0 -0.188,0.065 -0.188,0.144 0,0.049 0.025,0.088 0.061,0.11 0.019,0.01 0.03,0.015 0.077,0.035 0.07,0.029 0.088,0.036 0.088,0.062 0,0.019 -0.022,0.035 -0.07,0.035 -0.027,0 -0.074,-0.005 -0.147,-0.043 v 0.102 C 0.07,-0.012 0.14,0.009 0.212,0.009 0.33,0.009 0.4,-0.044 0.4,-0.138 0.4,-0.23 0.318,-0.264 0.227,-0.3 0.18,-0.32 0.17,-0.327 0.17,-0.345 c 0,-0.031 0.051,-0.033 0.064,-0.033 0.044,0 0.093,0.018 0.143,0.046 z"
   style="fill-rule:nonzero"
   id="path54" />

            </g>

        </g>

        <g
   transform="translate(-11,-6)"
   id="g84">
            <g
   transform="matrix(22.6,0,0,22.6,152.333,201)"
   id="g62">
                <path
   d="M 0.08,-0.682 V 0 h 0.075 v -0.308 h 0.12 c 0.171,0 0.225,-0.094 0.225,-0.187 0,-0.093 -0.054,-0.187 -0.225,-0.187 z m 0.187,0.066 c 0.137,0 0.153,0.072 0.153,0.121 0,0.049 -0.016,0.121 -0.153,0.121 H 0.155 v -0.242 z"
   style="fill-rule:nonzero"
   id="path60" />

            </g>

            <g
   transform="matrix(22.6,0,0,22.6,162.662,201)"
   id="g66">
                <path
   d="m 0.275,-0.458 c -0.129,0 -0.233,0.104 -0.233,0.233 0,0.129 0.104,0.234 0.233,0.234 0.129,0 0.234,-0.105 0.234,-0.234 0,-0.129 -0.105,-0.233 -0.234,-0.233 z m 0.001,0.061 c 0.094,0 0.162,0.077 0.162,0.172 0,0.095 -0.068,0.173 -0.162,0.173 -0.094,0 -0.163,-0.078 -0.163,-0.173 0,-0.095 0.069,-0.172 0.163,-0.172 z"
   style="fill-rule:nonzero"
   id="path64" />

            </g>

            <g
   transform="matrix(22.6,0,0,22.6,175.092,201)"
   id="g70">
                <rect
   x="0.064999998"
   y="-0.68199998"
   width="0.068999998"
   height="0.68199998"
   style="fill-rule:nonzero"
   id="rect68" />

            </g>

            <g
   transform="matrix(22.6,0,0,22.6,179.544,201)"
   id="g74">
                <path
   d="m 0.427,-0.079 c -0.027,0.022 -0.049,0.032 -0.058,0.032 -0.01,0 -0.012,-0.005 -0.012,-0.024 v -0.247 c 0,-0.051 -0.024,-0.14 -0.152,-0.14 -0.073,0 -0.124,0.036 -0.146,0.055 v 0.071 c 0.039,-0.036 0.081,-0.065 0.14,-0.065 0.084,0 0.089,0.057 0.089,0.086 v 0.04 c -0.186,0.033 -0.246,0.093 -0.246,0.166 0,0.066 0.053,0.114 0.116,0.114 0.04,0 0.075,-0.009 0.131,-0.051 0.004,0.021 0.012,0.051 0.049,0.051 0.012,0 0.033,-10e-4 0.089,-0.041 z m -0.139,-0.01 c -0.017,0.016 -0.053,0.048 -0.101,0.048 -0.026,0 -0.076,-0.015 -0.076,-0.069 0,-0.056 0.062,-0.095 0.177,-0.116 z"
   style="fill-rule:nonzero"
   id="path72" />

            </g>

            <g
   transform="matrix(22.6,0,0,22.6,189.397,201)"
   id="g78">
                <path
   d="M 0.065,-0.449 V 0 h 0.069 v -0.318 c 0.042,-0.071 0.099,-0.079 0.125,-0.079 0.079,0 0.108,0.059 0.108,0.135 V 0 h 0.069 v -0.268 c 0,-0.116 -0.06,-0.19 -0.161,-0.19 -0.064,0 -0.108,0.033 -0.141,0.077 v -0.068 z"
   style="fill-rule:nonzero"
   id="path76" />

            </g>

            <g
   transform="matrix(22.6,0,0,22.6,200.471,201)"
   id="g82">
                <path
   d="M 0.448,0 V -0.682 H 0.379 v 0.251 C 0.36,-0.439 0.32,-0.458 0.265,-0.458 0.121,-0.458 0.042,-0.35 0.042,-0.224 0.042,-0.08 0.133,0 0.29,0 Z M 0.379,-0.061 H 0.291 c -0.106,0 -0.178,-0.057 -0.178,-0.165 0,-0.09 0.052,-0.171 0.163,-0.171 0.051,0 0.087,0.02 0.103,0.029 z"
   style="fill-rule:nonzero"
   id="path80" />

            </g>

        </g>

        <path
   d="M 116.053,87.583 V 195.25 H 64.719 c -0.53,0 -1.039,-0.211 -1.414,-0.586 -0.375,-0.375 -0.586,-0.884 -0.586,-1.414 0,-13.435 0,-90.406 0,-103.708 0,-1.082 0.877,-1.959 1.959,-1.959 z m 5.666,0 h 6.5 c 0.531,0 1.039,0.211 1.415,0.586 0.375,0.375 0.585,0.884 0.585,1.414 0,13.421 0,90.246 0,103.667 0,0.53 -0.21,1.039 -0.585,1.414 -0.376,0.375 -0.884,0.586 -1.415,0.586 h -6.5 z m -29.666,87.584 h -4 v 7.333 h 4 z m 15,-6.334 h -4.667 v 9.334 h 4.667 z M 90.386,153.5 h -6.333 v 10.333 h 6.333 z m -13,-6.333 h -5.333 v 10.666 h 5.333 z m 16.333,-10 h -5.333 v 10.666 h 5.333 z m 14.334,-6 h -6.334 v 10 h 6.334 z m -28.667,-7.334 h -6.333 v 10 h 6.333 z m 23.333,-4.666 h -5.333 v 10 h 5.333 z m -13,0 h -5 v 8.333 h 5 z m -4.666,-14 h -6.334 v 11 h 6.334 z m 17.666,-10 H 96.386 V 105.5 h 6.333 z"
   id="path86" />

    </g>
    <path
       id="polska"
       d="M 2.7144555,8.1173593 2.8506673,7.6759291 c 0,0 -0.019045,0.077079 -0.00465,0.2009035 0.018287,0.1574247 0.073487,0.218679 0.073487,0.218679 L 2.7763291,8.4312642 c 0,0 -0.052552,0.021801 -0.084914,0.083892 C 2.6541303,8.5866915 2.5864038,8.7104852 2.5690463,8.7407717 2.4657842,8.9208339 2.3202202,9.0708573 2.1207412,9.2130149 1.9234765,9.3535931 1.6155329,9.4326848 1.3694784,9.4355648 1.0762135,9.4389868 0.67383366,9.2924318 0.42483722,9.0604831 0.25243959,8.8998842 0.0861581,8.7095407 -0.03782141,8.5969883 c -0.0964027,-0.087515 -0.22437705,-0.061022 -0.28535261,-0.024155 -0.0490994,0.029698 -0.0459871,0.070607 0.0366813,0.097641 0.13385822,0.043773 0.18144022,0.095799 0.24362352,0.2620184 0.02952778,0.078968 0.04186844,0.1605214 0.04186844,0.1605214 0,0 -0.03678972,-0.102782 -0.1478247,-0.2163409 -0.0593343,-0.060697 -0.0805782,-0.080578 -0.13766726,-0.080578 -0.0571046,0 -0.051391,0.045677 0.0114116,0.102782 0.0628181,0.057089 0.16350988,0.1526557 0.18843894,0.2683668 0.0017342,0.00805 -0.12435112,-0.076769 -0.15861697,-0.1452853 -0.0342504,-0.068532 -0.0824672,0.00506 -0.14528534,0.096434 -0.0628027,0.091355 -0.12625563,0.1160982 -0.15479244,0.1503486 -0.0285523,0.034266 0.10928529,0.265781 0.047582,0.2639229 -0.081182,-0.00243 -0.43090117,-0.012093 -0.44664829,-0.010142 -0.10516668,0.01296 0.0843872,-0.2284029 -0.00127,-0.2455281 -0.0856413,-0.017125 -0.21253188,-0.07296 -0.28295268,-0.1268905 -0.060991,-0.046699 -0.1484595,-0.1427459 -0.1827099,-0.245528 -0.034266,-0.1027666 -0.045693,-0.336883 0.057089,-0.5595568 0.1027821,-0.2226893 0.1484596,-0.2487023 0.1294299,-0.2836029 -0.019339,-0.035443 -0.086942,0.1598711 -0.1319692,0.1046865 -0.07649,-0.093755 -0.023474,-0.1789008 0.05393,-0.2150712 0.069012,-0.032253 -0.1230815,-0.098973 -0.1230815,-0.098973 0,0 0.1402067,-0.1065756 0.168759,-0.078039 0.028552,0.028552 0.0076,-0.054348 0.096496,-0.1379925 0.05119,-0.048155 0.1490324,-0.016165 0.074803,0.040924 -0.07423,0.057104 -0.00189,0.073455 0.045105,0.030255 0.0944827,-0.086834 0.22326224,-0.018828 0.0690891,0.066813 -0.1541576,0.085657 0.11990724,-0.051391 0.12562079,0.068532 0.005714,0.1199072 -0.15987109,0.022839 -0.15987109,0.022839 -0.00149,0 -0.014632,0.3156236 0.11419362,0.5195929 0.0166762,0.0264 0.0685162,0.079943 0.0742298,0.057105 0.005714,-0.022839 -0.005714,-0.2569552 0.17129827,-0.5253219 0.17699635,-0.2683513 0.40222501,-0.3461579 0.52213226,-0.3404443 0.11990724,0.00571 0.25314612,0.028939 0.38446499,0.137435 0.0590401,0.048759 0.10922336,0.07567 0.20085702,0.1728002 C 0.63095877,8.0664793 0.7339576,8.139331 0.94184431,8.13834 1.3230886,8.1365284 1.6579278,7.5731625 1.6579278,7.5731625 1.6140309,7.7874596 1.6070787,7.9677695 1.5369057,8.1045697 1.4933495,8.1894988 1.3580822,8.3009673 1.264157,8.3491222 1.1140871,8.4260771 0.98982888,8.4354914 0.89921716,8.4323636 0.67118591,8.4244823 0.52946187,8.3496641 0.35965005,8.1958627 0.2383957,8.08602 0.13033363,7.9795837 0.01042639,7.9339062 c -0.11990724,-0.045678 -0.29691907,-0.039979 -0.41111276,0.051391 -0.11420918,0.091355 -0.0754994,0.1300492 -0.0241084,0.1243357 0.0513755,-0.0057 0.1046711,-0.073595 0.24551256,-0.095799 0.0785653,-0.012372 0.19345572,-0.031789 0.37796175,0.1341679 0.0608981,0.054766 0.25455516,0.2384519 0.36549723,0.3379513 0.14283888,0.1280828 0.3574456,0.1920622 0.50832063,0.1893835 0.1181111,-0.00211 0.3040107,-0.012604 0.5175335,-0.1430402 0.1050582,-0.064196 0.1578583,-0.1202014 0.2203513,-0.1805112 0.040723,-0.039298 0.030658,-0.1264259 0.037502,-0.227257 0.00833,-0.1228492 0.151897,-0.065791 0.1399125,-0.1759125 -0.021229,-0.1951744 0.096155,-0.3371152 0.1332079,-0.3258894 0,0 -0.032671,0.081399 -0.00454,0.1800312 0.012852,0.045058 0.071179,0.095659 0.088274,0.1454711 C 2.3111931,8.2582163 2.248313,8.2939531 2.0778973,8.3518164 1.9732262,8.3873519 2.0110843,8.3915171 1.9358171,8.500183 1.8724726,8.5916309 1.8588622,8.6276619 1.7283021,8.7231046 1.5118837,8.8813035 1.2175969,8.958181 0.97075273,8.9210042 0.60672648,8.8661758 0.4362024,8.6925394 0.39962945,8.6527303 0.30990031,8.5550115 0.15941238,8.3532564 -0.00922267,8.2453337 c -0.15346083,-0.098199 -0.3343746,0.019742 -0.39717726,0.065419 -0.0628181,0.045678 -0.0819098,0.1748596 0.0399639,0.085657 0.21333704,-0.156155 0.37169078,-0.027917 0.53174775,0.1288415 0.0622607,0.060975 0.22381963,0.2481603 0.41170115,0.3900082 0.18712281,0.1412905 0.41609858,0.2192519 0.55166003,0.2436235 0.2114325,0.038028 0.3929657,0.041652 0.6973015,-0.071907 0.1426376,-0.053218 0.3808108,-0.2057964 0.5541375,-0.4493425 -0.00835,-0.012046 0.063948,-0.098663 0.0936,-0.1736673 0.024883,-0.062926 0.010761,-0.1334556 0.010761,-0.1334556 l 0.067789,-0.3177449 c 0,0 0.092191,-0.05921 0.1721499,-0.163866 0.044485,-0.058219 0.1120878,-0.179737 0.1120878,-0.179737 L 2.7018207,8.1135503 c -0.00111,-1.548e-4 -0.00223,-2.942e-4 -0.00338,-3.716e-4 -0.025347,-0.00192 -0.047489,0.01711 -0.049409,0.042457 -0.00147,0.019603 0.00955,0.03727 0.026354,0.045166 l -0.082251,0.2713862 0.010715,0.00356 0.08369,-0.2711849 c 0.0013,2.168e-4 0.00262,3.716e-4 0.00395,4.8e-4 0.025363,0.00192 0.047505,-0.01711 0.049409,-0.042457 0.00149,-0.019649 -0.00958,-0.037363 -0.026447,-0.045229 z m -3.56347791,0.9840632 c -0.012,0.026245 -0.15409569,0.02753 -0.23749189,-0.076258 -0.083396,-0.1037885 -0.1272311,-0.2729809 -0.104764,-0.2910816 0.022467,-0.018085 0.051453,0.1430711 0.1652595,0.2121138 0.11146857,0.067634 0.21107643,0.080578 0.17699639,0.1552258 z m 0.22185318,-0.21583 c 5.8839e-4,0.028847 -0.12689048,0.091649 -0.24706095,0.034281 C -0.99438517,8.8625215 -1.1072627,8.729081 -1.0948601,8.7030371 c 0.012403,-0.026044 0.10841817,0.1065911 0.24089833,0.1194582 0.12977048,0.012588 0.22515125,-0.018952 0.22679254,0.063097 z M 2.7638801,8.0540457 2.8258621,7.8276403 c 0,0 0.00412,0.035056 0.00334,0.060418 -0.00607,0.2012441 0.04848,0.2202584 0.04848,0.2202584 L 2.7454698,8.4164152 c 0,0 -0.056965,0.027205 -0.089327,0.089296 -0.037301,0.071551 -0.077265,0.1484595 -0.077265,0.1484595 0,0 -0.051298,0.02784 -0.08431,0.017698 -0.033399,-0.010266 -0.05153,-0.066643 -0.05153,-0.066643 0,0 0.043123,-0.060929 0.07279,-0.1359331 0.024867,-0.062926 0.00249,-0.1208053 0.00249,-0.1208053 l 0.067788,-0.3177449 c 0,0 0.061874,-0.011458 0.1409498,-0.1401447 0.038369,-0.062416 0.048573,-0.07649 0.048573,-0.07649 l -0.078829,0.230137 c -0.00111,-1.703e-4 -0.012186,0.045259 -0.013316,0.045182 -0.025363,-0.00192 -0.057848,0.029574 -0.059768,0.054937 -0.00147,0.019587 0.00824,0.060743 0.025037,0.068656 l -0.080237,0.2646971 0.053094,0.022963 0.086245,-0.2760158 c 0.015236,0.00607 0.050075,-0.011675 0.060976,-0.042085 0.00641,-0.017915 0.00587,-0.054271 -0.020532,-0.076506 -0.00274,-0.00231 0.00946,-0.030643 0.015577,-0.052026 z m -3.28473694,0.5408368 c 0.0130374,0.02575 -0.0746014,0.1376208 -0.20774736,0.1380544 -0.13314597,4.335e-4 -0.2927229,-0.070854 -0.2928468,-0.099701 -1.239e-4,-0.028847 0.14392275,0.049038 0.26887774,0.00316 0.12238467,-0.044934 0.19464798,-0.1147201 0.23171642,-0.041512 z M 1.8662171,8.3582577 1.6680852,8.534356 c 0,0 -0.029141,0.04385 0.00985,0.076986 0.032439,0.027561 0.09199,-0.00376 0.09199,-0.00376 0,0 0.059799,-0.048542 0.088398,-0.083133 0.028939,-0.034994 0.1007536,-0.1139614 0.1007536,-0.1139614 0,0 -0.033848,0.016103 -0.069538,9.6e-4 -0.013997,-0.00595 -0.023319,-0.053187 -0.023319,-0.053187 z m 0.204728,-0.3298533 c 0.00884,-0.1745809 0.00206,0.00715 -0.075468,0.022483 -0.049626,0.00982 -0.098261,0.034622 -0.099856,0.07968 -0.00274,0.078209 0.00172,0.098927 0.00313,0.1401911 9.755e-4,0.028227 -0.00581,0.056253 0.022653,0.073719 0.046854,0.028738 0.118777,-0.013734 0.1799074,-0.035923 0.061115,-0.022188 0.1026891,-0.053977 0.1044698,-0.1668079 0.00178,-0.1128466 -0.052459,-0.1728157 -0.064181,-0.1930222 -0.032609,-0.056253 0.064289,0.090348 0.045662,0.1710815 -0.018643,0.080733 -0.1412905,0.1428234 -0.1730634,0.1394324 -0.031788,-0.00341 0.058839,-0.026323 0.078782,-0.064614 0.00317,-0.0061 0.010452,-0.02623 0.00661,-0.065311 -0.00161,-0.016351 0.045414,-0.068377 0.00124,-0.028738 -0.013579,0.012186 -0.040258,0.043665 -0.057817,0.095861 -0.01776,0.052754 -0.069197,0.023567 -0.058204,-0.043076 0.00881,-0.053466 0.082266,-0.048372 0.086137,-0.124955 z M 1.3920384,7.9424533 c 0,0 -0.034281,0.01999 -0.014973,0.04289 0.028041,0.033259 0.077311,-0.024279 0.077311,-0.024279 0,0 -0.057136,0.067401 -0.029884,0.09247 0.030008,0.027577 0.073626,-0.062044 0.073626,-0.062044 0,0 -0.033492,0.078054 -0.0055,0.093275 0.022514,0.012232 0.040366,-0.022189 0.040366,-0.022189 l 0.07507,-0.3024303 c 0,0 -0.00655,0.035566 -0.033678,0.017419 -0.02335,-0.015623 -0.00866,-0.027918 -0.00689,-0.030348 z m -2.6219335,-0.076475 c 0.00522,-0.031278 0.060279,-0.057089 0.1015123,-0.00951 0.041234,0.047582 0.041234,0.022204 -0.00635,0.050756 -0.047582,0.028537 -0.1015124,-0.00317 -0.095164,-0.041249 z"
       style="clip-rule:evenodd;fill-rule:evenodd;stroke-width:0.0154839;stroke-linejoin:round;stroke-miterlimit:2" />
  </g>
</svg>
