<?xml version="1.0" encoding="UTF-8"?>
<svg width="49.081mm" height="49.081mm" version="1.1" viewBox="0 0 49.081 49.081" xmlns="http://www.w3.org/2000/svg" xmlns:cc="http://creativecommons.org/ns#" xmlns:dc="http://purl.org/dc/elements/1.1/" xmlns:rdf="http://www.w3.org/1999/02/22-rdf-syntax-ns#">
 <metadata>
  <rdf:RDF>
   <cc:Work rdf:about="">
    <dc:format>image/svg+xml</dc:format>
    <dc:type rdf:resource="http://purl.org/dc/dcmitype/StillImage"/>
    <dc:title/>
   </cc:Work>
  </rdf:RDF>
 </metadata>
 <g transform="translate(48.651 -55.124)">
  <circle cx="-24.11" cy="79.665" r="24.541" fill="#fff"/>
  <g transform="matrix(.27094 0 0 .27094 -35.469 40.188)">
   <g fill="#231f20">
    <path d="m25.831 100.05h5.2204c1.3875 0 2.5125 1.125 2.5125 2.5128v86.401c0 1.3875-1.125 2.5125-2.5125 2.5125h-5.2204z"/>
    <path d="m12.959 145.41h-4.3184v-7.9375h4.3184zm-0.64947 30.167h-3.2681v-6.732h3.2681zm-3.9472-40.563h-4.3184v-7.9375h4.3184zm-4.5554-28.361h4.2189v7.7957h-4.2189zm-2.6755 43.548h-4.3184v-7.9375h4.3184zm-1.6446 30.226h-3.2681v-5.8205h3.2681zm-5.8215-23.494h4.3184v7.9375h-4.3184zm-0.0303-29.857h3.1782v5.9831h-3.1782zm-0.35278-3.4163h-4.3184v-8.2254h4.3184zm-4.4383 15.517h-4.3184v-8.1315h4.3184zm-1.2382 19.873h-4.3184v-7.9375h4.3184zm-5.8113-58.995h-3.4512c-1.3878 0-2.5128 1.125-2.5128 2.5128v86.401c0 1.3878 1.125 2.5125 2.5128 2.5125h42.891l5e-3 -91.426z"/>
   </g>
   <g transform="matrix(.30512 0 0 -.30512 53.134 161.71)">
    <path d="m0 0h10.503v-23.935c0-6.156-1.821-10.825-5.463-14.003-3.642-3.18-8.843-4.769-15.604-4.769-6.681 0-11.867 1.609-15.559 4.829-3.692 3.219-5.538 7.847-5.538 13.884v23.994h10.534v-24.236c0-2.938 0.96-5.292 2.882-7.063 1.921-1.77 4.441-2.655 7.56-2.655 3.24 0 5.83 0.905 7.772 2.716 1.942 1.81 2.913 4.386 2.913 7.726z" fill="#231f20"/>
   </g>
   <g transform="matrix(.30512 0 0 -.30512 53.134 161.71)">
    <path d="m0 0h10.503v-23.935c0-6.156-1.821-10.825-5.463-14.003-3.642-3.18-8.843-4.769-15.604-4.769-6.681 0-11.867 1.609-15.559 4.829-3.692 3.219-5.538 7.847-5.538 13.884v23.994h10.534v-24.236c0-2.938 0.96-5.292 2.882-7.063 1.921-1.77 4.441-2.655 7.56-2.655 3.24 0 5.83 0.905 7.772 2.716 1.942 1.81 2.913 4.386 2.913 7.726z" fill="none" stroke="#231f20"/>
   </g>
   <g transform="matrix(.30512 0 0 -.30512 61.625 165.88)">
    <path d="m0 0v-8.149h0.121c2.595 5.835 5.623 8.753 9.085 8.753 1.649 0 3.631-0.867 5.945-2.596l-2.475-7.939c-2.214 1.409-3.984 2.114-5.312 2.114-2.072 0-3.818-1.286-5.236-3.855-1.419-2.568-2.128-4.065-2.128-4.488v-12.332h-8.964v28.492z" fill="#231f20"/>
   </g>
   <g transform="matrix(.30512 0 0 -.30512 61.625 165.88)">
    <path d="m0 0v-8.149h0.121c2.595 5.835 5.623 8.753 9.085 8.753 1.649 0 3.631-0.867 5.945-2.596l-2.475-7.939c-2.214 1.409-3.984 2.114-5.312 2.114-2.072 0-3.818-1.286-5.236-3.855-1.419-2.568-2.128-4.065-2.128-4.488v-12.332h-8.964v28.492z" fill="none" stroke="#231f20"/>
   </g>
   <g transform="matrix(.30512 0 0 -.30512 69.968 168.14)">
    <path d="m0 0v-13.219c1.811-1.61 3.581-2.415 5.312-2.415 2.132 0 3.808 0.8 5.025 2.4 1.218 1.599 1.826 3.807 1.826 6.625 0 2.736-0.639 4.854-1.916 6.353-1.278 1.498-2.963 2.248-5.056 2.248-1.629 0-3.36-0.664-5.191-1.992m0 21.067v-15.242c2.354 1.449 4.799 2.174 7.334 2.174 4.105 0 7.45-1.37 10.036-4.109 2.585-2.74 3.878-6.285 3.878-10.635 0-4.371-1.243-7.946-3.727-10.726-2.486-2.779-5.67-4.169-9.553-4.169-2.817 0-5.473 0.906-7.968 2.716v-2.173h-8.964v42.164z" fill="#231f20"/>
   </g>
   <g transform="matrix(.30512 0 0 -.30512 69.968 168.14)">
    <path d="m0 0v-13.219c1.811-1.61 3.581-2.415 5.312-2.415 2.132 0 3.808 0.8 5.025 2.4 1.218 1.599 1.826 3.807 1.826 6.625 0 2.736-0.639 4.854-1.916 6.353-1.278 1.498-2.963 2.248-5.056 2.248-1.629 0-3.36-0.664-5.191-1.992zm0 21.067v-15.242c2.354 1.449 4.799 2.174 7.334 2.174 4.105 0 7.45-1.37 10.036-4.109 2.585-2.74 3.878-6.285 3.878-10.635 0-4.371-1.243-7.946-3.727-10.726-2.486-2.779-5.67-4.169-9.553-4.169-2.817 0-5.473 0.906-7.968 2.716v-2.173h-8.964v42.164z" fill="none" stroke="#231f20"/>
   </g>
   <g transform="matrix(.30512 0 0 -.30512 82.925 172.46)">
    <path d="m0 0v6.904c-2.999-1.05-5.056-1.994-6.172-2.831-1.117-0.838-1.675-1.903-1.675-3.195 0-0.828 0.281-1.539 0.845-2.135 0.563-0.596 1.247-0.893 2.052-0.893 1.69 0 3.34 0.716 4.95 2.15m13.823 0.113v-4.979c-2.978-1.732-5.775-2.596-8.39-2.596-2.817 0-4.487 1.066-5.011 3.199-3.118-2.133-6.247-3.199-9.386-3.199-2.214 0-4.095 0.7-5.644 2.101-1.55 1.4-2.324 3.028-2.324 4.882 0 2.479 0.8 4.479 2.399 6 1.6 1.522 6.444 3.482 14.533 5.88 0.201 3.179-1.449 4.769-4.95 4.769-3.803 0-7.304-1.59-10.503-4.769v7.304c3.743 2.315 7.857 3.472 12.344 3.472 8.048 0 12.073-2.892 12.073-8.674v-12.995c0-1.329 0.493-1.994 1.479-1.994 0.744 0 1.871 0.533 3.38 1.599" fill="#231f20"/>
   </g>
   <g transform="matrix(.30512 0 0 -.30512 82.925 172.46)">
    <path d="m0 0v6.904c-2.999-1.05-5.056-1.994-6.172-2.831-1.117-0.838-1.675-1.903-1.675-3.195 0-0.828 0.281-1.539 0.845-2.135 0.563-0.596 1.247-0.893 2.052-0.893 1.69 0 3.34 0.716 4.95 2.15zm13.823 0.113v-4.979c-2.978-1.732-5.775-2.596-8.39-2.596-2.817 0-4.487 1.066-5.011 3.199-3.118-2.133-6.247-3.199-9.386-3.199-2.214 0-4.095 0.7-5.644 2.101-1.55 1.4-2.324 3.028-2.324 4.882 0 2.479 0.8 4.479 2.399 6 1.6 1.522 6.444 3.482 14.533 5.88 0.201 3.179-1.449 4.769-4.95 4.769-3.803 0-7.304-1.59-10.503-4.769v7.304c3.743 2.315 7.857 3.472 12.344 3.472 8.048 0 12.073-2.892 12.073-8.674v-12.995c0-1.329 0.493-1.994 1.479-1.994 0.744 0 1.871 0.533 3.38 1.599z" fill="none" stroke="#231f20"/>
   </g>
   <g transform="matrix(.30512 0 0 -.30512 91.011 165.88)">
    <path d="m0 0v-4.045c2.636 3.099 5.724 4.649 9.266 4.649 2.958 0 5.427-0.948 7.409-2.84 1.982-1.894 2.973-4.604 2.973-8.128v-18.128h-8.964v17.377c0 3.807-1.479 5.712-4.437 5.712-2.112 0-4.195-1.57-6.247-4.708v-18.381h-8.964v28.492z" fill="#231f20"/>
   </g>
   <g transform="matrix(.30512 0 0 -.30512 91.011 165.88)">
    <path d="m0 0v-4.045c2.636 3.099 5.724 4.649 9.266 4.649 2.958 0 5.427-0.948 7.409-2.84 1.982-1.894 2.973-4.604 2.973-8.128v-18.128h-8.964v17.377c0 3.807-1.479 5.712-4.437 5.712-2.112 0-4.195-1.57-6.247-4.708v-18.381h-8.964v28.492z" fill="none" stroke="#231f20"/>
   </g>
   <g transform="matrix(.30512 0 0 -.30512 113.55 162.54)">
    <path d="m0 0v-8.239c-5.595 2.514-10.051 3.772-13.371 3.772-1.892 0-3.396-0.316-4.512-0.95-1.117-0.634-1.676-1.475-1.676-2.521 0-0.804 0.403-1.569 1.208-2.293 0.804-0.724 2.766-1.661 5.885-2.807 3.119-1.147 5.614-2.214 7.486-3.199 1.871-0.987 3.486-2.375 4.843-4.165 1.359-1.791 2.038-4.055 2.038-6.791 0-3.905-1.484-7.013-4.452-9.327-2.969-2.314-6.877-3.47-11.725-3.47-5.233 0-10.303 1.357-15.212 4.074v9.085c2.817-1.892 5.312-3.271 7.485-4.135 2.173-0.865 4.477-1.298 6.911-1.298 4.125 0 6.188 1.297 6.188 3.891 0 0.885-0.413 1.72-1.239 2.504-0.825 0.784-2.812 1.739-5.961 2.865-3.15 1.126-5.645 2.172-7.486 3.139-1.84 0.966-3.43 2.344-4.766 4.136-1.338 1.791-2.007 4.085-2.007 6.883 0 3.622 1.458 6.546 4.376 8.77s6.821 3.336 11.711 3.336c4.506 0 9.265-1.086 14.276-3.26" fill="#231f20"/>
   </g>
   <g transform="matrix(.30512 0 0 -.30512 113.55 162.54)">
    <path d="m0 0v-8.239c-5.595 2.514-10.051 3.772-13.371 3.772-1.892 0-3.396-0.316-4.512-0.95-1.117-0.634-1.676-1.475-1.676-2.521 0-0.804 0.403-1.569 1.208-2.293 0.804-0.724 2.766-1.661 5.885-2.807 3.119-1.147 5.614-2.214 7.486-3.199 1.871-0.987 3.486-2.375 4.843-4.165 1.359-1.791 2.038-4.055 2.038-6.791 0-3.905-1.484-7.013-4.452-9.327-2.969-2.314-6.877-3.47-11.725-3.47-5.233 0-10.303 1.357-15.212 4.074v9.085c2.817-1.892 5.312-3.271 7.485-4.135 2.173-0.865 4.477-1.298 6.911-1.298 4.125 0 6.188 1.297 6.188 3.891 0 0.885-0.413 1.72-1.239 2.504-0.825 0.784-2.812 1.739-5.961 2.865-3.15 1.126-5.645 2.172-7.486 3.139-1.84 0.966-3.43 2.344-4.766 4.136-1.338 1.791-2.007 4.085-2.007 6.883 0 3.622 1.458 6.546 4.376 8.77s6.821 3.336 11.711 3.336c4.506 0 9.265-1.086 14.276-3.26z" fill="none" stroke="#231f20"/>
   </g>
   <g transform="matrix(.30512 0 0 -.30512 118.69 161.71)">
    <path d="m0 0v-27.768h0.121l11.062 14.096h10.518l-11.138-14.096 11.621-14.396h-10.967l-11.096 14.034h-0.121v-14.034h-8.964v42.164z" fill="#231f20"/>
   </g>
   <g transform="matrix(.30512 0 0 -.30512 118.69 161.71)">
    <path d="m0 0v-27.768h0.121l11.062 14.096h10.518l-11.138-14.096 11.621-14.396h-10.967l-11.096 14.034h-0.121v-14.034h-8.964v42.164z" fill="none" stroke="#231f20"/>
   </g>
   <path transform="matrix(.26458 0 0 .26458 -29.17 95.054)" d="m601.18 266.99c-5.0349 0-9.1772 1.6167-12.426 4.8457-3.2486 3.2279-4.8711 7.3507-4.8711 12.367 0 5.1099 1.7282 9.2154 5.1856 12.316 1.2772 1.1456 2.7147 2.0785 4.3086 2.8008a342.33 342.33 0 0 0 2.6289-8.7012c-0.82352-1.3434-1.3056-2.9642-1.4395-4.8672h2.6836a342.33 342.33 0 0 0 1.3867-5.4297h-3.8613c0.44744-4.1962 2.3371-6.5481 5.6641-7.0606a342.33 342.33 0 0 0 1.5918-6.2344c-0.28419-0.0112-0.56139-0.0371-0.85157-0.0371z" fill="#231f20"/>
   <g transform="matrix(.83282 0 0 .83282 9.8913 31.74)" fill="#231f20">
    <path d="m40.222 176.2v15.058h2.1638v-6.5134h2.2521c3.4885 0 5.0782-1.8546 5.0782-4.2171 0-2.3846-1.5014-4.3275-4.7912-4.3275zm2.1638 1.943h2.5391c1.965 0 2.5612 1.1923 2.5612 2.2962 0 1.5014-1.0377 2.3625-2.6495 2.3625h-2.4508z" style="font-feature-settings:normal;font-variant-caps:normal;font-variant-ligatures:normal;font-variant-numeric:normal"/>
    <path d="m54.87 181.15c-2.9586 0-5.2328 2.2079-5.2328 5.0561 0 3.0469 2.1858 5.2548 5.2328 5.2548 3.1794 0 5.3652-2.1196 5.3652-5.2548 0-2.9365-2.2521-5.0561-5.3652-5.0561zm-0.0221 1.7663c1.965 0 3.3781 1.391 3.3781 3.3119 0 2.1417-1.3027 3.4664-3.3781 3.4664-1.8988 0-3.2015-1.391-3.2015-3.4885 0-1.8988 1.3468-3.2898 3.2015-3.2898z" style="font-feature-settings:normal;font-variant-caps:normal;font-variant-ligatures:normal;font-variant-numeric:normal"/>
    <path d="m63.917 176.2h-1.965v15.058h1.965z" style="font-feature-settings:normal;font-variant-caps:normal;font-variant-ligatures:normal;font-variant-numeric:normal"/>
    <path d="m74.421 189.49c-0.44158 0.33119-0.83901 0.5299-1.0377 0.5299-0.24287 0-0.37535-0.13247-0.37535-0.50782v-5.1003c0-2.2521-1.5897-3.2677-3.5989-3.2677-1.4351 0-2.517 0.44158-3.2898 1.3468v2.1417c0.9494-1.126 2.0534-1.6339 3.1352-1.6339 1.1923 0 1.7884 0.50782 1.7884 1.7442v0.5299l-1.7443 0.61822c-1.5897 0.57406-3.3781 1.1702-3.3781 3.1352 0 1.2806 0.97148 2.4287 2.4287 2.4287 0.90525 0 1.8105-0.33119 2.6716-1.0156 0.17663 0.70653 0.6403 1.0156 1.5014 1.0156 0.61822 0 0.99356-0.17663 1.8988-0.77277zm-3.3781-0.24287c-0.5299 0.50782-1.104 0.81693-1.7222 0.81693-0.81693 0-1.4131-0.57406-1.4131-1.391 0-1.1702 1.4572-1.7442 3.1352-2.3183z" style="font-feature-settings:normal;font-variant-caps:normal;font-variant-ligatures:normal;font-variant-numeric:normal"/>
    <path d="m78.103 181.34h-1.965v9.9136h1.965v-7.1095c0.92732-1.0377 1.6118-1.4352 2.4729-1.4352 1.1923 0 1.943 0.9494 1.943 2.4066v6.138h1.965v-6.1159c0-2.7157-1.5014-3.9963-3.3781-3.9963-1.104 0-2.2079 0.55198-2.9586 1.5014h-0.04416z" style="font-feature-settings:normal;font-variant-caps:normal;font-variant-ligatures:normal;font-variant-numeric:normal"/>
    <path d="m95.259 176.2h-1.965v5.3432c-0.79485-0.28703-1.4131-0.39742-2.0754-0.39742-2.8924 0-4.9457 2.0534-4.9457 4.9236 0 3.1794 1.8546 5.1886 4.8133 5.1886h4.173zm-1.965 13.402h-1.9871c-2.2742 0-3.0248-1.391-3.0248-3.2456 0-2.0754 1.2806-3.4444 3.1794-3.4444 0.66238 0 1.1702 0.1104 1.8326 0.37535z" style="font-feature-settings:normal;font-variant-caps:normal;font-variant-ligatures:normal;font-variant-numeric:normal"/>
   </g>
   <g transform="matrix(1.0574 0 0 1.0574 -2.5053 -5.7924)">
    <rect x="43.806" y="101.07" width="60.181" height="21.251" fill="#fff"/>
    <rect x="43.647" y="121.89" width="60.407" height="22.496" fill="#dc0002" fill-rule="evenodd" style="paint-order:stroke markers fill"/>
    <rect x="43.776" y="101.04" width="60.279" height="43.352" fill="none" stroke="#231f20" stroke-linecap="round" stroke-width=".25" style="paint-order:stroke markers fill"/>
   </g>
  </g>
 </g>
</svg>
