<?xml version="1.0" encoding="UTF-8" standalone="no"?>
<svg
   xmlns:dc="http://purl.org/dc/elements/1.1/"
   xmlns:cc="http://creativecommons.org/ns#"
   xmlns:rdf="http://www.w3.org/1999/02/22-rdf-syntax-ns#"
   xmlns:svg="http://www.w3.org/2000/svg"
   xmlns="http://www.w3.org/2000/svg"
   xmlns:xlink="http://www.w3.org/1999/xlink"
   xmlns:sodipodi="http://sodipodi.sourceforge.net/DTD/sodipodi-0.dtd"
   xmlns:inkscape="http://www.inkscape.org/namespaces/inkscape"
   width="9.1515mm"
   height="9.1515mm"
   version="1.1"
   viewBox="0 0 9.1515 9.1515"
   id="svg11"
   sodipodi:docname="fest_icon.svg"
   inkscape:version="1.0.2 (1.0.2+r75+1)">
  <sodipodi:namedview
     pagecolor="#ffffff"
     bordercolor="#666666"
     borderopacity="1"
     objecttolerance="10"
     gridtolerance="10"
     guidetolerance="10"
     inkscape:pageopacity="0"
     inkscape:pageshadow="2"
     inkscape:window-width="1920"
     inkscape:window-height="1031"
     id="namedview13"
     showgrid="false"
     inkscape:snap-page="false"
     inkscape:snap-object-midpoints="true"
     inkscape:pagecheckerboard="true"
     inkscape:zoom="7.3187724"
     inkscape:cx="45.358072"
     inkscape:cy="21.616976"
     inkscape:window-x="0"
     inkscape:window-y="0"
     inkscape:window-maximized="1"
     inkscape:current-layer="svg11" />
  <defs
     id="defs5">
    <linearGradient
       inkscape:collect="always"
       id="linearGradient1947">
      <stop
         style="stop-color:#63a7de;stop-opacity:1"
         offset="0"
         id="stop1943" />
      <stop
         style="stop-color:#025599;stop-opacity:1"
         offset="1"
         id="stop1945" />
    </linearGradient>
    <clipPath
       id="clipPath10007">
      <rect
         x=".0039998"
         y="-.001978"
         width="9.1515"
         height="9.1515"
         ry="2.4758"
         fill="none"
         stroke="#000"
         stroke-width=".074083"
         id="rect2" />
    </clipPath>
    <clipPath
       id="clipPath10007-7">
      <rect
         x="0.0039998"
         y="-0.0019779999"
         width="9.1514997"
         height="9.1514997"
         ry="2.4758"
         fill="none"
         stroke="#000000"
         stroke-width="0.074083"
         id="rect2-4" />
    </clipPath>
    <radialGradient
       inkscape:collect="always"
       xlink:href="#linearGradient1947"
       id="radialGradient1951"
       gradientUnits="userSpaceOnUse"
       gradientTransform="matrix(1.0339549,-0.00803182,0.00777455,0.99947701,-0.19094358,0.03914846)"
       cx="4.5757499"
       cy="4.5757461"
       fx="4.5757499"
       fy="4.5757461"
       r="3.9695423" />
  </defs>
  <metadata
     id="metadata7">
    <rdf:RDF>
      <cc:Work
         rdf:about="">
        <dc:format>image/svg+xml</dc:format>
        <dc:type
           rdf:resource="http://purl.org/dc/dcmitype/StillImage" />
        <dc:title></dc:title>
      </cc:Work>
    </rdf:RDF>
  </metadata>
  <rect
     style="fill:#8cc1a3;fill-opacity:1;stroke-width:0.865;stroke-linecap:round;stroke-linejoin:round"
     id="rect1911"
     width="9.1514997"
     height="9.1514997"
     x="0"
     y="0"
     ry="1.7159742" />
  <ellipse
     style="fill:url(#radialGradient1951);fill-opacity:1;stroke-width:0.908117;stroke-linecap:round;stroke-linejoin:round"
     id="path1915"
     cx="4.5834785"
     cy="4.5835028"
     rx="3.9695423"
     ry="3.9675863" />
  <rect
     style="fill:#af4688;fill-opacity:1;stroke-width:0.774618;stroke-linecap:round;stroke-linejoin:round"
     id="rect1917"
     width="9.1560926"
     height="1.1196188"
     x="-0.0045921272"
     y="1.6766632" />
  <path
     style="fill:#f1f1f5;stroke-width:0.00744389"
     d="m 4.3546674,8.6463638 c -0.032757,-0.00345 -0.093048,-0.00977 -0.1339896,-0.014072 -0.04094,-0.00432 -0.1097409,-0.00794 -0.152887,-0.00802 l -0.078449,-1.941e-4 -0.027136,-0.013839 -0.027135,-0.013839 -0.077638,-0.00423 -0.077638,-0.00423 -0.028818,-0.015443 -0.028818,-0.015443 H 3.6882643 3.654369 L 3.627139,8.5431717 C 3.612162,8.5355017 3.579222,8.5269527 3.55394,8.5240897 3.528659,8.5212397 3.495867,8.5123977 3.48107,8.5044727 3.466274,8.4965427 3.445752,8.4899517 3.435456,8.4898227 3.425161,8.4896969 3.399991,8.4813727 3.379512,8.4712837 3.359042,8.4612117 3.334622,8.4529427 3.325249,8.4529087 c -0.00937,0 -0.030179,-0.00673 -0.046227,-0.01496 -0.016047,-0.00819 -0.03606,-0.014891 -0.044459,-0.014891 -0.00836,0 -0.04607,-0.015073 -0.0837,-0.033499 -0.037629,-0.018427 -0.074706,-0.033499 -0.082381,-0.033499 -0.011891,0 -0.1502157,-0.061505 -0.1839812,-0.081803 -0.00613,-0.00371 -0.05471,-0.028446 -0.1079362,-0.055013 -0.053228,-0.026566 -0.113509,-0.060247 -0.1339663,-0.074845 -0.020461,-0.014598 -0.041751,-0.026549 -0.047313,-0.026549 -0.00561,0 -0.020066,-0.00836 -0.032231,-0.018608 -0.012167,-0.010235 -0.026326,-0.018607 -0.031472,-0.018607 -0.00517,0 -0.028024,-0.013072 -0.050831,-0.02905 -0.022806,-0.015977 -0.048045,-0.031136 -0.056082,-0.033689 -0.00802,-0.00259 -0.0206,-0.011252 -0.027911,-0.019332 -0.00733,-0.00811 -0.017349,-0.014702 -0.022298,-0.014702 -0.00491,0 -0.03168,-0.016746 -0.059419,-0.037215 -0.027731,-0.02047 -0.053806,-0.037215 -0.057944,-0.037215 -0.00413,0 -0.021264,-0.011227 -0.03806,-0.024954 -0.016797,-0.013727 -0.040587,-0.030214 -0.052874,-0.036647 -0.012278,-0.00647 -0.04745,-0.035337 -0.078165,-0.06423 -0.030706,-0.028895 -0.070119,-0.059627 -0.087582,-0.068283 L 1.9686655,7.6995719 1.7377183,7.4686427 1.5067719,7.2377135 l -0.01434,-0.02811 c -0.00785,-0.01546 -0.046028,-0.061592 -0.084761,-0.102508 -0.038733,-0.040923 -0.078682,-0.09068 -0.088768,-0.1105756 -0.010088,-0.019893 -0.025764,-0.042872 -0.034827,-0.051063 -0.00906,-0.00819 -0.023195,-0.028283 -0.031395,-0.044666 -0.00819,-0.016375 -0.022583,-0.038147 -0.031964,-0.048382 -0.00937,-0.010235 -0.03105,-0.045088 -0.048166,-0.077449 -0.017116,-0.03236 -0.039742,-0.069645 -0.050279,-0.082846 C 1.1033968,6.6684613 1.0230541,6.5199012 0.96457771,6.4005323 0.948117,6.3669384 0.92326644,6.3233938 0.90933219,6.3037617 0.89540657,6.2841278 0.88166201,6.2550522 0.87879929,6.2391346 l -0.005174,-0.028937 -0.0282911,-0.03806 -0.0282911,-0.03806 -0.004743,-0.031594 c -0.002587,-0.017374 -0.0114078,-0.042493 -0.019539,-0.055832 -0.008105,-0.013331 -0.0147879,-0.032042 -0.0148052,-0.041587 -1.467e-5,-0.00954 -0.0150983,-0.049167 -0.033525,-0.088069 l -0.0334985,-0.070733 v -0.031145 -0.031145 l -0.0137963,-0.025946 c -0.007588,-0.014271 -0.0162623,-0.039346 -0.0192889,-0.05572 -0.003018,-0.016374 -0.0118821,-0.043829 -0.0197027,-0.061006 -0.007847,-0.017176 -0.0142102,-0.0457 -0.0142102,-0.063386 V 5.5457623 L 0.62824149,5.5164794 0.61254822,5.4871966 0.60858161,5.42726 0.604615,5.3673235 0.59074112,5.3397049 0.57686724,5.3120863 0.57670427,5.246657 0.57654044,5.181228 0.56103684,5.147729 0.54553324,5.114229 0.53872224,4.9467412 c -0.003794,-0.092118 -0.0101144,-0.1856886 -0.0141067,-0.2079342 -0.009563,-0.053288 -0.009287,-0.2379292 4.5959e-4,-0.3079815 0.004225,-0.030507 0.010511,-0.1287315 0.0139343,-0.218272 l 0.006208,-0.1628005 0.015676,-0.033499 0.015676,-0.033499 1.6383e-4,-0.067102 1.6297e-4,-0.067102 0.0137877,-0.025946 0.0137877,-0.025946 0.004053,-0.06016 0.004053,-0.060161 0.015676,-0.030732 0.015676,-0.030732 V 3.579012 3.54315 l 0.0110888,-0.015822 c 0.006122,-0.0087 0.0157709,-0.035413 0.0214964,-0.05935 0.005691,-0.023937 0.0157882,-0.053573 0.0223673,-0.065851 0.006554,-0.012278 0.0119769,-0.029999 0.0120027,-0.039379 2.502e-5,-0.00937 0.006468,-0.029628 0.0143136,-0.04501 0.007847,-0.015383 0.0167366,-0.041139 0.0197546,-0.057245 0.003018,-0.016099 0.0116664,-0.039397 0.0192027,-0.051762 0.007502,-0.012365 0.0137273,-0.030533 0.0137359,-0.040372 3.018e-5,-0.019565 0.0128478,-0.048821 0.0900622,-0.2055388 0.0282737,-0.057383 0.0513998,-0.1070989 0.0513998,-0.110484 0,-0.00336 0.006726,-0.014676 0.0148914,-0.025083 0.008192,-0.010407 0.0148914,-0.025178 0.0148914,-0.032809 V 2.7805612 H 1.019851 c 0.038897,0 0.070663,8.373e-4 0.070602,0.00189 -5.605e-4,0.00933 -0.025066,0.066653 -0.053297,0.1246856 -0.0696454,0.1431822 -0.11105657,0.2424137 -0.14909467,0.3573058 -0.0128737,0.038897 -0.0295241,0.084339 -0.0369999,0.1009819 -0.007502,0.016642 -0.0135894,0.037285 -0.0135894,0.045865 0,0.00854 -0.00638,0.033482 -0.0142705,0.05534 -0.0144344,0.040199 -0.0271614,0.087763 -0.0524604,0.1960641 -0.007674,0.032749 -0.0170901,0.06793 -0.0209789,0.078165 -0.003881,0.010235 -0.009442,0.038707 -0.0123391,0.063274 -0.002932,0.024565 -0.009864,0.061411 -0.0154777,0.081881 -0.005605,0.02047 -0.0137618,0.069042 -0.0181076,0.1079361 -0.004311,0.038897 -0.0128995,0.1042146 -0.0189957,0.1451559 -0.006122,0.04094 -0.0177972,0.1292204 -0.0259974,0.1961746 l -0.0149086,0.1217359 1.9315e-4,0.1313562 1.9315e-4,0.1313571 0.0224707,0.1712093 c 0.0123564,0.094165 0.0271356,0.2097313 0.0328438,0.2568136 0.005691,0.04708 0.0155898,0.1090528 0.021962,0.1377119 0.00638,0.028662 0.0166073,0.077234 0.0227294,0.1079361 0.0209875,0.1051977 0.0403541,0.1857982 0.0481403,0.2003438 0.004311,0.00802 0.00776,0.021264 0.00776,0.029472 0,0.015892 0.0289549,0.1141712 0.0518137,0.1758803 0.007588,0.02047 0.0160209,0.047158 0.0187544,0.05929 0.002759,0.012141 0.0114165,0.036241 0.0193062,0.053564 0.007847,0.017315 0.0143396,0.034766 0.0143396,0.038776 0,0.01139 0.0439671,0.1210866 0.0854249,0.2131216 0.005519,0.012278 0.0204703,0.045778 0.0331973,0.074439 0.012727,0.028661 0.026118,0.057133 0.029748,0.063274 0.00362,0.00612 0.02742,0.051365 0.052848,0.100493 0.042674,0.082442 0.054711,0.1044414 0.1021995,0.1867173 0.023471,0.040664 0.03274,0.0554 0.052012,0.082631 0.00923,0.013029 0.016771,0.026748 0.016771,0.030482 0,0.00371 0.00673,0.012848 0.014891,0.020264 0.00819,0.00741 0.014891,0.016822 0.014891,0.020918 0,0.00413 0.00836,0.018427 0.018608,0.031844 0.010235,0.013416 0.018608,0.026851 0.018608,0.029852 0,0.00301 0.005,0.010762 0.011106,0.017245 0.00612,0.00647 0.0293,0.036914 0.051538,0.067619 0.049304,0.068093 0.046847,0.064911 0.1353727,0.1749309 0.1603206,0.19924 0.3392343,0.3813329 0.5229448,0.5322385 0.017443,0.014331 0.039466,0.032749 0.048942,0.04094 0.060911,0.05265 0.1145014,0.093048 0.1234294,0.093048 0.00405,0 0.00741,0.00301 0.00741,0.00673 0,0.00371 0.010891,0.013554 0.024196,0.021918 0.013304,0.00836 0.037594,0.025386 0.05397,0.037828 0.016374,0.012434 0.034802,0.024885 0.04094,0.02767 0.00612,0.00276 0.016194,0.00963 0.022332,0.015227 0.00613,0.00561 0.037966,0.027325 0.070715,0.048296 0.032749,0.02097 0.071456,0.046003 0.086003,0.055617 0.014547,0.00962 0.030049,0.017495 0.034447,0.017495 0.00439,0 0.012323,0.00526 0.017617,0.011598 0.00526,0.00638 0.019944,0.016323 0.032551,0.0221 0.012606,0.00577 0.053073,0.027033 0.08992,0.047244 0.068309,0.037456 0.1455259,0.076984 0.1763813,0.090285 0.00943,0.00405 0.022186,0.010554 0.028326,0.014409 0.016822,0.010554 0.094968,0.04514 0.1020029,0.04514 0.00336,0 0.017832,0.00621 0.032093,0.013796 0.014271,0.00759 0.03794,0.01771 0.052607,0.022496 0.014667,0.00483 0.039655,0.015331 0.055538,0.023428 0.015883,0.00811 0.033241,0.014727 0.03857,0.014727 0.00535,0 0.015512,0.00336 0.022617,0.00759 0.016383,0.00958 0.1125976,0.042199 0.1630627,0.055281 0.021159,0.00551 0.042449,0.012425 0.047295,0.015426 0.00966,0.00595 0.083805,0.02667 0.1710386,0.047753 0.030706,0.00741 0.07425,0.018685 0.096771,0.025032 0.022522,0.00638 0.057694,0.013814 0.078165,0.01659 0.02047,0.00276 0.042475,0.00785 0.048907,0.011297 0.00647,0.00346 0.041596,0.00985 0.078165,0.014253 0.036561,0.00439 0.093273,0.0129 0.1260265,0.018892 0.079545,0.014555 0.2064753,0.032534 0.2977549,0.042174 l 0.07444,0.00785 0.245648,-0.00397 0.2456481,-0.00397 0.037224,-0.00793 c 0.02047,-0.00439 0.072388,-0.012856 0.1153802,-0.018848 0.1063055,-0.014813 0.2185867,-0.032275 0.2679798,-0.041683 0.022514,-0.00432 0.066066,-0.012606 0.096771,-0.018487 0.030706,-0.00587 0.069231,-0.015503 0.085606,-0.021393 0.016374,-0.00587 0.044846,-0.012856 0.063274,-0.015486 0.03068,-0.00439 0.074396,-0.016617 0.1637654,-0.045829 0.018426,-0.00603 0.050244,-0.015547 0.070714,-0.02116 0.02047,-0.00561 0.065687,-0.020643 0.1004921,-0.033396 0.034802,-0.012753 0.075,-0.02673 0.089327,-0.031059 0.026791,-0.00811 0.091723,-0.035766 0.1290108,-0.055004 0.011588,-0.00595 0.024859,-0.010874 0.029489,-0.010874 0.00785,0 0.060169,-0.024428 0.1988036,-0.092764 0.074896,-0.036914 0.1960581,-0.1028504 0.2568144,-0.1397504 0.00819,-0.005 0.02661,-0.016116 0.04094,-0.024755 0.057944,-0.034947 0.1900508,-0.1214945 0.2121507,-0.1389865 0.01365,-0.010804 0.062334,-0.046425 0.089196,-0.065265 0.014598,-0.010235 0.034698,-0.025308 0.044683,-0.033498 0.00998,-0.00819 0.026954,-0.021591 0.037732,-0.029774 0.010769,-0.00819 0.025144,-0.020022 0.03193,-0.02629 0.00681,-0.00629 0.029085,-0.024617 0.049554,-0.040769 0.02047,-0.01615 0.04057,-0.032999 0.044666,-0.037431 0.00405,-0.00439 0.029222,-0.026178 0.055832,-0.048322 0.051468,-0.042811 0.2640523,-0.2550821 0.3200876,-0.3196108 0.018427,-0.02122 0.038785,-0.044192 0.045244,-0.051055 0.011046,-0.011736 0.070472,-0.08433 0.106158,-0.1296946 0.00884,-0.011244 0.022781,-0.028575 0.030973,-0.038509 0.00819,-0.00993 0.023264,-0.030274 0.033499,-0.0452 0.010235,-0.014926 0.02573,-0.036112 0.03443,-0.047089 0.024677,-0.031136 0.084675,-0.1200449 0.084675,-0.1254816 0,-0.00267 0.00509,-0.010192 0.011382,-0.016676 0.017288,-0.01791 0.055323,-0.077682 0.055479,-0.087179 7.42e-5,-0.00465 0.00569,-0.012986 0.012451,-0.018608 0.00681,-0.00561 0.016944,-0.020264 0.022591,-0.032551 0.00569,-0.012278 0.020634,-0.039078 0.033283,-0.059548 0.012658,-0.02047 0.036112,-0.061755 0.052133,-0.091744 0.016012,-0.029989 0.032335,-0.060134 0.036276,-0.066998 0.00397,-0.0069 0.010502,-0.020841 0.01459,-0.031085 0.00405,-0.010235 0.010787,-0.023635 0.0149,-0.029774 0.00413,-0.00612 0.010804,-0.019539 0.014883,-0.029773 0.00405,-0.010235 0.010554,-0.023635 0.014383,-0.029774 0.011278,-0.018099 0.052633,-0.1085785 0.052633,-0.1151524 0,-0.00336 0.00647,-0.019806 0.014365,-0.036629 0.029619,-0.063049 0.052624,-0.1182695 0.052667,-0.1263999 0,-0.00465 0.00439,-0.016814 0.0098,-0.027093 0.00535,-0.010278 0.02692,-0.072249 0.047907,-0.137712 0.020988,-0.065463 0.043622,-0.1357727 0.050304,-0.1562429 0.00664,-0.02047 0.015478,-0.052297 0.019547,-0.070715 0.00405,-0.018427 0.013934,-0.056944 0.021928,-0.085606 0.00802,-0.028662 0.017452,-0.070534 0.02103,-0.093049 0.00353,-0.022514 0.01165,-0.062713 0.017944,-0.089327 0.00629,-0.02661 0.014995,-0.071835 0.019332,-0.1004922 0.00432,-0.028662 0.011072,-0.070534 0.014977,-0.093049 0.00388,-0.022514 0.010614,-0.079466 0.014926,-0.1265456 0.00432,-0.04708 0.01152,-0.1040283 0.01603,-0.1265465 l 0.00819,-0.04094 1.862e-4,-0.253092 1.93e-4,-0.2530921 -0.00862,-0.052107 c -0.00474,-0.028661 -0.013572,-0.1023525 -0.019668,-0.1637649 -0.00613,-0.06141 -0.014245,-0.1217075 -0.018099,-0.1339896 -0.00388,-0.012287 -0.010442,-0.050374 -0.014624,-0.084649 -0.00422,-0.034275 -0.01246,-0.079492 -0.018392,-0.1004931 -0.00595,-0.020996 -0.016176,-0.063299 -0.022773,-0.094006 -0.026816,-0.1249056 -0.041475,-0.1820257 -0.048528,-0.1890809 -0.00405,-0.00405 -0.00741,-0.016392 -0.00741,-0.027343 0,-0.010951 -0.00535,-0.034568 -0.01183,-0.052478 -0.00647,-0.017918 -0.01797,-0.052667 -0.025472,-0.077234 C 8.3152192,3.3054761 8.2905323,3.2345542 8.2816,3.2161818 8.27763,3.2079918 8.269589,3.1878908 8.263752,3.1715158 8.247472,3.1258148 8.222397,3.0630744 8.20723,3.0300823 8.19973,3.0137083 8.181293,2.9735093 8.166332,2.9407563 8.151372,2.9079983 8.129263,2.8618933 8.117217,2.8382938 8.105163,2.8146928 8.095306,2.7937588 8.095306,2.7917658 c 0,-0.00198 0.025126,-0.00362 0.055832,-0.00362 0.030706,0 0.055832,0.00301 0.055832,0.00664 0,0.00362 0.00921,0.016521 0.02047,0.028567 0.011261,0.012054 0.02047,0.026644 0.02047,0.032422 0,0.00577 0.00423,0.00967 0.00931,0.00865 0.00509,-0.00103 0.00862,6.519e-4 0.00776,0.00371 -0.00285,0.01033 0.017495,0.061411 0.024437,0.061411 0.00379,0 0.0069,0.00612 0.0069,0.013615 0,0.017288 0.044045,0.084416 0.052115,0.079432 0.00336,-0.00208 0.00432,0.00293 0.00215,0.011175 l -0.00388,0.014918 0.01997,0.026187 c 0.010986,0.0144 0.021608,0.038681 0.023609,0.053951 0.00198,0.015271 0.00983,0.041164 0.017392,0.057539 0.00759,0.016374 0.017409,0.038147 0.021867,0.048382 0.00449,0.010235 0.011098,0.023635 0.014745,0.029774 0.016598,0.027963 0.039509,0.099563 0.049047,0.1532931 0.00577,0.03237 0.019142,0.095706 0.029774,0.1407412 0.010631,0.045036 0.020755,0.091932 0.022496,0.1042137 0.00439,0.031093 0.018263,0.098469 0.027532,0.1339706 0.00432,0.016366 0.00916,0.043165 0.010855,0.059548 0.00172,0.016383 0.00681,0.048218 0.011304,0.07074 0.00449,0.022522 0.00819,0.056013 0.00811,0.074439 -9.66e-5,0.03581 0.00937,0.05503 0.023143,0.047029 0.00465,-0.00267 0.0025,0.00189 -0.00475,0.010175 -0.00724,0.00828 -0.011606,0.019762 -0.00966,0.025472 0.00561,0.016435 0.01133,0.058195 0.015676,0.1145955 0.00224,0.028662 0.00543,0.062152 0.00716,0.074439 0.00946,0.067886 0.014874,0.2071383 0.014348,0.3684722 L 8.648725,4.824022 8.636446,4.924515 c -0.00673,0.055271 -0.014857,0.1155663 -0.018012,0.1339895 -0.0032,0.018426 -0.00569,0.055832 -0.00569,0.083132 v 0.049632 l -0.00871,-0.00724 -0.00871,-0.00724 -0.00561,0.017142 c -0.00311,0.00942 -0.00517,0.043941 -0.00475,0.07669 l 9.508e-4,0.059548 -0.010321,0.015745 -0.010321,0.015745 0.00845,0.00845 0.00845,0.00845 h -0.00893 c -0.00491,0 -0.00819,0.0025 -0.00733,0.00561 8.623e-4,0.00311 -0.0025,0.012917 -0.0075,0.021884 l -0.00905,0.016297 0.00681,0.00423 0.00681,0.00423 -0.018487,0.034758 -0.018479,0.034758 0.01071,-0.00889 0.010709,-0.00889 5.062e-4,0.031766 c 2.828e-4,0.017469 -0.00423,0.040138 -0.00996,0.050374 l -0.010468,0.018608 -6.847e-4,-0.011166 c -3.794e-4,-0.00613 -0.00491,5.588e-4 -0.010089,0.014892 l -0.0094,0.026058 0.00638,0.013029 c 0.00595,0.012106 0.00276,0.016073 -0.010907,0.013909 -0.00681,-0.00103 -0.00638,0.00561 0.00146,0.025169 l 0.00595,0.014892 -0.00802,0.014891 c -0.00892,0.016564 -0.01165,0.026825 -0.015866,0.059549 -0.00155,0.012278 -0.00819,0.034896 -0.014719,0.050244 -0.00655,0.015357 -0.00972,0.027911 -0.00707,0.027911 0.00259,0 2.526e-4,0.00543 -0.00526,0.011993 -0.00543,0.00655 -0.011123,0.020764 -0.012564,0.031498 -0.00146,0.010727 -0.00603,0.021617 -0.010208,0.024204 -0.00413,0.00259 -0.00733,0.00681 -0.00699,0.00944 3.501e-4,0.00259 2.905e-4,0.00561 -1.338e-4,0.00664 -4.241e-4,0.00103 -0.00181,0.014098 -0.00311,0.02905 -0.00129,0.014951 -0.00673,0.035052 -0.012227,0.044666 -0.00543,0.00961 -0.01014,0.020824 -0.010416,0.02492 -2.682e-4,0.00405 -0.011175,0.029911 -0.02423,0.057376 -0.013055,0.027463 -0.023729,0.058117 -0.023729,0.068111 0,0.00999 -0.011365,0.035052 -0.025248,0.055694 -0.034664,0.051503 -0.071525,0.1267948 -0.071525,0.1460837 0,0.00878 -0.010891,0.032205 -0.024195,0.052055 -0.025791,0.038475 -0.054694,0.088922 -0.088515,0.1544977 -0.032379,0.062781 -0.04708,0.086011 -0.087437,0.138181 -0.025023,0.032353 -0.045502,0.062126 -0.045502,0.066171 0,0.00405 -0.014986,0.027196 -0.033301,0.051452 -0.018315,0.024256 -0.033386,0.049762 -0.033499,0.056686 -1.121e-4,0.0069 -0.00327,0.014503 -0.00707,0.016848 -0.00379,0.00234 -0.026222,0.031852 -0.049848,0.065575 -0.023626,0.033723 -0.045597,0.064661 -0.048821,0.068757 -0.031214,0.03957 -0.043467,0.057297 -0.061764,0.089327 C 7.7550965,7.1436569 7.5457733,7.3715454 7.416565,7.4964226 7.2024708,7.70334 7.0942346,7.8025544 7.0706308,7.8135216 c -0.01408,0.00655 -0.034697,0.020402 -0.045803,0.030783 -0.011106,0.01039 -0.03168,0.024696 -0.045717,0.031783 -0.014037,0.00707 -0.041975,0.025903 -0.062083,0.041795 -0.020108,0.015892 -0.04044,0.028989 -0.045192,0.029102 -0.00475,1.112e-4 -0.021799,0.010166 -0.037879,0.022332 -0.016082,0.012166 -0.032491,0.022126 -0.036456,0.022126 -0.00397,0 -0.020954,0.010993 -0.03775,0.024437 -0.016796,0.013443 -0.04,0.028558 -0.051564,0.033586 -0.011563,0.00501 -0.033335,0.018874 -0.048382,0.030766 -0.015056,0.011891 -0.070913,0.043864 -0.1241357,0.071051 -0.053227,0.027187 -0.101795,0.052391 -0.1079369,0.056004 -0.00613,0.00362 -0.036293,0.018573 -0.066998,0.033241 -0.030706,0.014666 -0.060851,0.029713 -0.066998,0.033439 -0.00613,0.00371 -0.034612,0.0174 -0.063274,0.030395 -0.028662,0.012986 -0.078036,0.036664 -0.1097235,0.052616 -0.031689,0.015944 -0.065188,0.029024 -0.074439,0.029059 -0.00925,7.41e-5 -0.033568,0.00828 -0.054039,0.018375 -0.02047,0.010071 -0.04564,0.018409 -0.055944,0.018539 -0.010295,1.268e-4 -0.030395,0.00647 -0.044666,0.014029 -0.014271,0.00759 -0.038958,0.016202 -0.054867,0.019133 -0.015909,0.00293 -0.040984,0.011804 -0.05572,0.019703 -0.014736,0.00793 -0.034517,0.014357 -0.04395,0.014357 -0.00943,0 -0.029584,0.00629 -0.044778,0.014003 -0.015194,0.00767 -0.049356,0.016505 -0.075914,0.019547 -0.026566,0.00301 -0.060014,0.011822 -0.074327,0.019487 l -0.025997,0.013951 h -0.033708 -0.033715 l -0.028283,0.015159 -0.028283,0.015159 -0.060937,0.00449 -0.060937,0.00449 -0.026049,0.012813 -0.026059,0.012814 -0.137712,0.005 c -0.075742,0.00276 -0.1561351,0.00836 -0.1786533,0.012434 -0.053452,0.00971 -0.4702783,0.01497 -0.5471255,0.0069 z M 8.4971909,5.6874744 c 0,-0.00208 -0.00164,-0.00371 -0.00371,-0.00371 -0.00208,0 -0.00371,0.00164 -0.00371,0.00371 0,0.00208 0.00164,0.00371 0.00371,0.00371 0.00208,0 0.00371,-0.00164 0.00371,-0.00371 z M 8.5691471,5.321483 c -0.00276,-0.00276 -0.005,-4.965e-4 -0.005,0.005 0,0.00543 0.00224,0.00767 0.005,0.005 0.00276,-0.00276 0.00276,-0.00716 0,-0.00992 z M 2.8172564,6.8466525 c -0.010373,-0.011149 -0.023247,-0.028998 -0.02861,-0.039682 l -0.00975,-0.019419 0.00811,-0.066188 c 0.00449,-0.036405 0.00811,-0.1018994 0.00811,-0.1455475 l 2.25e-5,-0.079363 -0.022333,-0.018789 c -0.027632,-0.023246 -0.027994,-0.036991 -0.0019,-0.071155 l 0.020435,-0.026757 -0.00155,-0.033498 C 2.7889506,6.3278292 2.7793733,6.2675394 2.7684916,6.2122654 2.7576184,6.1569941 2.7470729,6.0838746 2.7450551,6.0497762 l -0.00362,-0.061997 0.012538,-0.032818 0.012528,-0.032818 0.020686,-0.014736 0.020686,-0.014736 0.015021,0.016505 c 0.00828,0.00907 0.019238,0.024661 0.024402,0.034638 l 0.00938,0.018133 0.00189,0.1580667 c 0.00103,0.086936 0.00432,0.1619521 0.00724,0.1667015 l 0.00535,0.00863 0.01966,-0.00491 c 0.022134,-0.00551 0.051271,-0.035336 0.1236476,-0.1265775 0.016237,-0.02047 0.035491,-0.043208 0.042786,-0.050538 0.00733,-0.00733 0.013261,-0.016004 0.013261,-0.019289 0,-0.00327 0.023842,-0.029955 0.052977,-0.059264 l 0.052977,-0.053288 h 0.021272 0.021271 l 0.011356,0.021962 c 0.023919,0.046252 0.01164,0.071758 -0.075845,0.1575587 -0.059677,0.058531 -0.1594585,0.1618866 -0.2013242,0.2085414 l -0.016822,0.018746 0.00465,0.023419 0.00465,0.023419 0.023307,0.014304 c 0.012814,0.00785 0.047485,0.031301 0.077043,0.052056 0.029558,0.020763 0.079459,0.051374 0.1109024,0.068033 0.1158957,0.061402 0.1365186,0.081967 0.1367281,0.1363512 1.423e-4,0.036879 -0.00905,0.053021 -0.036698,0.064472 L 3.234459,6.7796612 3.208677,6.7748312 3.182895,6.7700012 3.141136,6.7298792 C 3.118165,6.7078132 3.07193,6.6688912 3.0383873,6.6433812 c -0.033542,-0.025506 -0.06336,-0.050323 -0.066248,-0.055151 -0.00293,-0.00483 -0.018961,-0.018263 -0.035706,-0.029869 l -0.030438,-0.0211 -0.012072,0.012072 -0.012072,0.012072 0.00933,0.062756 0.00933,0.062756 -0.005,0.043665 c -0.00759,0.065903 -0.017306,0.097336 -0.036449,0.1179971 -0.021056,0.02272 -0.018867,0.022825 -0.041932,-0.00198 z m 3.4216433,-0.049831 c -0.010416,-0.00966 -0.021047,-0.027049 -0.023617,-0.038655 -0.00259,-0.011606 -0.00927,-0.036181 -0.014874,-0.054598 -0.00561,-0.018427 -0.012253,-0.055271 -0.01477,-0.081881 -0.0025,-0.02661 -0.00987,-0.076854 -0.016341,-0.1116585 L 6.1575357,6.446756 6.1568106,6.2978787 6.1560863,6.1490003 l 0.016668,-0.055832 0.016668,-0.055832 0.016366,-0.013486 0.016357,-0.013486 0.018874,0.00475 c 0.037233,0.00934 0.1071222,0.1004784 0.1502389,0.1959108 0.012339,0.0273 0.027033,0.059686 0.032654,0.071973 0.00561,0.012278 0.020953,0.055832 0.034059,0.096771 0.013107,0.04094 0.032498,0.0937 0.043087,0.1172408 l 0.019263,0.042803 h 0.016469 c 0.035068,0 0.049175,-0.0375 0.032498,-0.086354 -0.00405,-0.011874 -0.012382,-0.066799 -0.018512,-0.122074 -0.00613,-0.055271 -0.01496,-0.1303895 -0.019634,-0.1669298 l -0.00845,-0.066438 0.012141,-0.038509 c 0.018763,-0.059522 0.043182,-0.075344 0.083304,-0.053961 l 0.022832,0.012167 0.013547,0.030042 0.013547,0.030042 -0.00551,0.054219 c -0.00301,0.029818 -0.00613,0.1463356 -0.00681,0.2589245 l -0.00138,0.2047068 -0.00933,0.036379 c -0.010951,0.042743 -0.031646,0.07193 -0.059453,0.083839 l -0.01997,0.00854 -0.018659,-0.00969 c -0.02286,-0.011897 -0.043071,-0.0393 -0.068594,-0.093042 -0.058419,-0.1230001 -0.086297,-0.1843487 -0.091347,-0.2009853 -0.00311,-0.010235 -0.011356,-0.032007 -0.018341,-0.048382 -0.00699,-0.016375 -0.02229,-0.0549 -0.034017,-0.085606 -0.026558,-0.069534 -0.030274,-0.07444 -0.056383,-0.07444 h -0.02116 l -0.00872,0.016288 -0.00872,0.016288 0.00405,0.093507 0.00405,0.093507 0.011822,0.032568 c 0.00647,0.017918 0.011968,0.041363 0.012141,0.052107 1.794e-4,0.010743 0.00543,0.03293 0.01165,0.049313 0.00621,0.016374 0.015926,0.046063 0.021548,0.065963 0.00561,0.019901 0.015694,0.047692 0.022367,0.061764 l 0.012132,0.025575 -0.00457,0.020125 c -0.00577,0.025334 -0.034879,0.059066 -0.05879,0.068154 l -0.018271,0.00699 z M 3.7479884,6.7732821 C 3.671238,6.7431976 3.6171306,6.6620064 3.6202788,6.5816654 c 0.00336,-0.086299 0.036344,-0.208267 0.070283,-0.2600626 0.00699,-0.010718 0.01277,-0.022246 0.01277,-0.025617 0,-0.019039 0.2000618,-0.210258 0.2199828,-0.210258 0.00311,0 0.016305,-0.00811 0.029334,-0.018065 l 0.023677,-0.018064 0.045907,-0.00836 c 0.049339,-0.00895 0.091802,-0.00475 0.1180601,0.011718 l 0.016383,0.010261 0.00759,0.027386 0.00759,0.027386 -0.0075,0.034094 c -0.011609,0.052567 -0.092438,0.1620217 -0.1366505,0.1850478 l -0.014409,0.0075 -0.017228,-0.00785 C 3.968415,6.3241839 3.985816,6.2733188 4.0361546,6.2196648 l 0.024446,-0.026059 6.73e-5,-0.024195 6.72e-5,-0.024195 -0.00931,-5.7e-4 c -0.00509,-3.13e-4 -0.015107,-0.00172 -0.022194,-0.00301 -0.00707,-0.00138 -0.021014,0.00388 -0.030947,0.011736 -0.00994,0.00785 -0.021332,0.014211 -0.025316,0.014211 -0.00936,0 -0.1132261,0.1022926 -0.1132261,0.1115189 0,0.00388 -0.00629,0.012994 -0.014081,0.020323 -0.029179,0.027601 -0.092915,0.1635921 -0.112425,0.2398675 l -0.00655,0.025566 0.00967,0.023161 c 0.01146,0.027428 0.040415,0.048089 0.075344,0.053754 l 0.025212,0.00405 0.03932,-0.012607 c 0.048019,-0.0154 0.1144359,-0.048977 0.1710119,-0.08646 0.023298,-0.015435 0.054064,-0.0323 0.06837,-0.037475 l 0.025997,-0.0094 0.011658,0.00967 c 0.00638,0.00535 0.011658,0.018874 0.011658,0.030119 v 0.020448 l -0.029584,0.037155 c -0.023902,0.030024 -0.076035,0.078113 -0.1380008,0.1273036 -0.00413,0.00327 -0.027592,0.015469 -0.052107,0.027066 l -0.044561,0.021073 -0.070715,0.00241 c -0.038897,0.00138 -0.075742,4.656e-4 -0.081881,-0.00198 z m 3.2693359,-0.00103 -0.017142,-0.00285 -0.011718,-0.024575 -0.011718,-0.024575 0.00793,-0.1144299 0.00793,-0.114429 0.019763,-0.048382 c 0.044224,-0.1082195 0.099682,-0.21214 0.1807622,-0.3386959 0.048477,-0.075673 0.079303,-0.1126295 0.098015,-0.1175229 l 0.01477,-0.00388 0.018531,0.014572 c 0.034068,0.026799 0.073396,0.1507185 0.096494,0.3040711 0.016996,0.1128416 0.041019,0.2538 0.049805,0.2923046 0.010848,0.047502 0.00603,0.061755 -0.036862,0.1084526 l -0.036465,0.039733 -0.017599,-0.0025 -0.017598,-0.0025 -0.00836,-0.037716 -0.00836,-0.037716 0.00673,-0.087099 0.00673,-0.087098 -0.0097,-0.020341 -0.0097,-0.020341 -0.027549,-0.00234 c -0.015149,-0.00129 -0.035224,0.00181 -0.044614,0.0069 -0.00938,0.00509 -0.043363,0.0134 -0.075501,0.018565 l -0.058436,0.00939 -0.013615,0.012323 c -0.0075,0.00681 -0.018755,0.023143 -0.025023,0.036362 l -0.011408,0.02404 -0.005,0.092525 C 7.0721089,6.76005 7.062744,6.7796994 7.0173196,6.7722132 Z m 0.1856766,-0.381166 c 0.017848,-0.00811 0.044174,-0.014848 0.058505,-0.014986 0.040491,-4.122e-4 0.055978,-0.0069 0.068956,-0.02886 l 0.011986,-0.02029 -0.013633,-0.061178 c -0.0075,-0.033646 -0.01909,-0.069498 -0.025756,-0.079664 L 7.290944,6.1676129 H 7.270206 c -0.011407,0 -0.025885,0.00423 -0.032171,0.00931 C 7.210787,6.1990909 7.146202,6.314759 7.138683,6.3548458 l -0.00491,0.026351 0.012313,0.012313 c 0.015521,0.015521 0.017642,0.015426 0.056961,-0.00241 z M 5.561145,6.748823 5.5403205,6.7270853 5.5412714,6.6725209 c 0.00121,-0.068757 0.033809,-0.2115781 0.056505,-0.2476925 0.00526,-0.00845 0.012003,-0.023669 0.014926,-0.033914 0.00621,-0.021746 0.040578,-0.092826 0.069231,-0.1431709 0.017841,-0.031343 0.031119,-0.053556 0.09244,-0.1545839 0.028007,-0.046149 0.080864,-0.1040939 0.099124,-0.1086777 l 0.017754,-0.00449 0.018608,0.021212 c 0.022126,0.02523 0.045398,0.087998 0.063281,0.1706955 0.00716,0.033085 0.015168,0.063653 0.017806,0.067921 0.00267,0.00432 0.00836,0.040846 0.012736,0.081277 0.00439,0.040432 0.012589,0.101983 0.01828,0.1367825 0.00569,0.034802 0.01252,0.095096 0.015185,0.1339903 l 0.00483,0.070715 -0.027506,0.035112 c -0.07243,0.092454 -0.1186964,0.00138 -0.084184,-0.1657237 l 0.00871,-0.042182 -0.016659,-0.023402 -0.016659,-0.023402 h -0.022195 c -0.01221,0 -0.031241,0.00465 -0.042304,0.010399 -0.011063,0.00569 -0.040208,0.012848 -0.064765,0.015839 -0.052547,0.00638 -0.080967,0.019332 -0.097319,0.044286 l -0.011865,0.018108 -0.00638,0.09526 -0.00638,0.09526 -0.012149,0.024196 -0.012149,0.024195 H 5.6060502 5.5819325 Z M 5.7748495,6.3950654 c 0.00907,-0.00595 0.038087,-0.014201 0.064489,-0.018435 l 0.048003,-0.00767 0.014934,-0.014935 0.014934,-0.014934 -0.00181,-0.02804 c -0.00492,-0.076808 -0.03838,-0.1434247 -0.072,-0.1434247 h -0.024255 l -0.018393,0.024196 c -0.010115,0.013304 -0.023954,0.034241 -0.030757,0.046519 -0.00681,0.012278 -0.015555,0.02736 -0.019445,0.033499 -0.056573,0.089179 -0.041423,0.1660685 0.024281,0.1232457 z M 3.4390671,6.7513235 C 3.4226929,6.745377 3.4001704,6.7297403 3.3890216,6.716488 l -0.020271,-0.024092 -2e-4,-0.027119 c -1.103e-4,-0.014918 0.00465,-0.051762 0.010554,-0.081881 0.00595,-0.030119 0.014547,-0.1010449 0.019178,-0.1576106 l 0.00845,-0.102847 -0.00897,-0.096853 -0.00897,-0.096852 0.00965,-0.01804 0.00964,-0.018038 h 0.020341 0.020341 l 0.033491,0.033974 0.033498,0.033974 0.00439,0.023713 c 0.00241,0.013046 8.623e-4,0.042139 -0.00336,0.064653 -0.01308,0.068973 -0.016547,0.1743635 -0.00811,0.2471286 0.00439,0.038078 0.010278,0.1033377 0.013063,0.1450163 l 0.00509,0.075776 -0.025014,0.022851 c -0.013762,0.012572 -0.026782,0.022617 -0.028947,0.022324 -0.00215,-2.889e-4 -0.017323,-0.00535 -0.033697,-0.01127 z m 3.3720812,-0.00811 c -0.012278,-0.0063 -0.030412,-0.021522 -0.040285,-0.033792 l -0.017952,-0.022316 0.00898,-0.053202 c 0.00491,-0.029257 0.014193,-0.08502 0.020582,-0.1239156 l 0.011606,-0.070715 -0.00397,-0.1600973 -0.00397,-0.1600964 0.00724,-0.012977 c 0.014201,-0.025386 0.060643,-0.00875 0.095847,0.034344 l 0.018608,0.022781 -0.00146,0.048701 c -8.303e-4,0.026782 -0.00155,0.1547745 -0.00155,0.2844251 l -7.5e-5,0.2357269 -0.016822,0.011778 c -0.020832,0.01459 -0.047571,0.014365 -0.076785,-6.465e-4 z M 4.9716659,6.7240069 c -0.029352,-0.022902 -0.053616,-0.050994 -0.059488,-0.068853 -0.00267,-0.00819 -0.010451,-0.023264 -0.017245,-0.033498 -0.017668,-0.026635 -0.043657,-0.095429 -0.04921,-0.130268 -0.00655,-0.041164 -0.018435,-0.078165 -0.025101,-0.078165 -0.013192,0 -0.037629,0.036568 -0.049753,0.07444 -0.023945,0.074802 -0.073224,0.1360986 -0.1556713,0.1936248 l -0.037215,0.025972 h -0.078164 -0.078164 l -0.026792,-0.019005 c -0.052159,-0.037 -0.078648,-0.063282 -0.098292,-0.097535 l -0.019875,-0.034654 -0.00897,-0.052297 -0.00897,-0.052297 0.00883,-0.075345 0.00883,-0.075337 0.019763,-0.041769 c 0.010865,-0.02297 0.024049,-0.04708 0.029291,-0.053573 0.00526,-0.00647 0.017918,-0.022074 0.028162,-0.034628 0.010244,-0.012546 0.039225,-0.036948 0.064386,-0.05422 l 0.04576,-0.031404 0.040379,-0.01052 0.04038,-0.010519 0.041621,0.00681 c 0.095177,0.015495 0.1362288,0.047666 0.1779282,0.1394494 l 0.017755,0.039078 h 0.021876 0.021876 l 0.00449,-0.016745 c 0.0025,-0.00921 0.00457,-0.036844 0.00465,-0.061411 2.363e-4,-0.073655 0.024488,-0.1326971 0.06855,-0.1668852 l 0.017116,-0.013279 0.022238,0.012477 c 0.012227,0.0069 0.028084,0.022488 0.035232,0.034732 l 0.012995,0.022255 -0.00776,0.025575 c -0.00432,0.014063 -0.015951,0.058453 -0.025928,0.098629 l -0.018133,0.073051 v 0.10348 0.1034799 l 0.01158,0.03562 c 0.021479,0.066076 0.02767,0.077225 0.049089,0.088303 l 0.02135,0.011037 0.014745,-0.00793 c 0.022954,-0.012287 0.035423,-0.043725 0.049012,-0.1235897 0.021539,-0.1265267 0.024161,-0.1529147 0.024808,-0.2495404 7.312e-4,-0.1094847 0.00449,-0.1338895 0.024075,-0.1548754 l 0.014349,-0.0154 h 0.020178 l 0.020185,9e-7 0.022092,0.027687 0.022092,0.027696 0.005,0.1453784 c 0.00276,0.079958 0.00845,0.1563 0.012762,0.169647 0.00432,0.013348 0.01158,0.050192 0.016194,0.081881 0.011468,0.078683 0.01258,0.081389 0.037112,0.089943 l 0.021565,0.0075 0.00854,-0.010321 c 0.00475,-0.00569 0.014944,-0.03474 0.022729,-0.064584 l 0.014159,-0.054262 0.01096,-0.1525998 c 0.017017,-0.2368909 0.02388,-0.2739487 0.058328,-0.3148262 l 0.017521,-0.020789 0.019022,0.00724 0.019022,0.00724 0.00836,0.023971 c 0.020876,0.059884 -0.00899,0.3381255 -0.05146,0.4795512 -0.00741,0.024565 -0.015486,0.054892 -0.018013,0.067386 -0.00577,0.028791 -0.034033,0.084786 -0.058436,0.1159699 l -0.018806,0.024031 -0.043423,0.00293 -0.043423,0.00293 -0.031636,-0.023549 c -0.0174,-0.012951 -0.031636,-0.027661 -0.031636,-0.03268 0,-0.005 -0.00972,-0.018435 -0.021591,-0.029818 l -0.021591,-0.020686 -0.013081,0.00259 -0.013081,0.00259 -0.020435,0.048158 c -0.011235,0.026489 -0.029317,0.055798 -0.040173,0.065136 l -0.019736,0.016978 H 5.0252816 4.9932053 Z M 4.5593042,6.6105229 c 0.026619,-0.013762 0.082286,-0.081131 0.1038447,-0.1256772 l 0.016099,-0.033249 0.00432,-0.051641 0.00432,-0.051641 -0.00913,-0.040122 c -0.005,-0.022066 -0.015521,-0.049201 -0.023324,-0.06029 -0.00785,-0.011097 -0.014193,-0.02298 -0.014193,-0.026402 0,-0.00345 -0.013185,-0.019108 -0.0293,-0.034853 l -0.029308,-0.028618 -0.028059,0.00457 -0.028059,0.00457 -0.028748,0.028748 -0.028748,0.028748 -0.00673,0.029162 c -0.00371,0.016038 -0.00465,0.046683 -0.00224,0.068093 l 0.00449,0.038931 -0.012831,0.00491 c -0.00707,0.00267 -0.024946,0.00121 -0.03975,-0.00336 l -0.026928,-0.00828 -0.013357,0.012089 -0.013357,0.012089 v 0.05729 0.057289 l 0.019194,0.036465 c 0.035396,0.067248 0.067317,0.090769 0.1244701,0.091708 l 0.035724,5.871e-4 0.021522,-0.011132 z M 1.7493054,6.715823 C 1.6662776,6.6860662 1.6290484,6.6135753 1.65644,6.5350004 l 0.00759,-0.021884 0.02029,-0.00759 c 0.025308,-0.00944 0.047295,-0.00413 0.071913,0.017418 l 0.01909,0.016702 v 0.024445 c 0,0.013443 0.00517,0.031895 0.011588,0.040993 l 0.011588,0.016547 h 0.028308 0.028308 l 0.030067,-0.024196 c 0.039302,-0.031628 0.066653,-0.065171 0.072672,-0.089133 l 0.00483,-0.01928 -0.0093,-0.017443 C 1.936348,6.4395974 1.871307,6.4124094 1.7864813,6.4018204 1.7513353,6.3974204 1.634617,6.3712014 1.6125266,6.3627254 c -0.00561,-0.00215 -0.019548,-0.018668 -0.03099,-0.036707 l -0.020798,-0.032801 0.00587,-0.02047 c 0.014391,-0.050192 0.057573,-0.1019545 0.1088768,-0.1305362 0.011917,-0.00664 0.026696,-0.015115 0.032844,-0.018832 0.00612,-0.00371 0.026238,-0.014253 0.044666,-0.023419 l 0.033498,-0.016668 0.05403,-6.778e-4 0.05403,-6.777e-4 0.01828,0.022333 c 0.010054,0.012278 0.0184,0.029506 0.018547,0.038285 l 2.673e-4,0.015951 -0.013029,0.00509 c -0.00716,0.00276 -0.036475,0.00681 -0.065136,0.00903 l -0.052107,0.00397 -0.033499,0.015486 c -0.018426,0.00854 -0.046244,0.025617 -0.061825,0.038009 l -0.028326,0.022522 0.00465,0.018892 c 0.0069,0.028119 0.01152,0.030568 0.079139,0.042173 0.034197,0.00587 0.075578,0.015383 0.091957,0.021134 0.016374,0.00577 0.041501,0.012365 0.055832,0.014684 0.1640395,0.026592 0.1892583,0.1548675 0.058557,0.297873 l -0.037121,0.040621 -0.047959,0.02266 c -0.05565,0.02629 -0.072741,0.026954 -0.1335221,0.00517 z M 2.1216905,6.681574 C 2.0880795,6.616567 2.1011515,6.598709 2.4118109,6.2852592 c 0.045036,-0.045442 0.089389,-0.092792 0.098562,-0.1052253 l 0.016676,-0.022608 -0.012253,-0.013538 -0.012253,-0.013538 -0.045372,3.242e-4 c -0.063118,4.51e-4 -0.1399116,0.020168 -0.2177055,0.0559 -0.032421,0.014891 -0.039439,0.013882 -0.079303,-0.011399 L 2.1252048,6.1530073 V 6.1347701 6.116533 L 2.1448218,6.101098 C 2.1556098,6.092648 2.1782268,6.081982 2.1950658,6.077481 2.2119138,6.072991 2.2338678,6.066065 2.2438528,6.062116 2.2788958,6.048259 2.4198064,6.02635 2.4745802,6.026237 l 0.05534,-1.13e-4 0.042242,0.011848 0.042242,0.011856 0.011192,0.023505 0.011192,0.023505 -0.00931,0.031472 c -0.011235,0.037991 -0.049606,0.096881 -0.095611,0.1467278 -0.018659,0.02022 -0.046614,0.05522 -0.062108,0.077768 -0.015505,0.022557 -0.034888,0.048029 -0.04307,0.056617 -0.00819,0.00862 -0.029308,0.031792 -0.046925,0.051555 l -0.032042,0.035948 0.00224,0.022523 c 0.00276,0.027239 0.01046,0.031508 0.074207,0.041078 l 0.049615,0.00741 0.04727,-0.00991 c 0.025997,-0.00543 0.055736,-0.013133 0.066085,-0.017063 l 0.018823,-0.00716 0.022367,0.0094 c 0.012297,0.00517 0.028222,0.018341 0.035379,0.029266 l 0.013011,0.019858 -0.015383,0.019557 c -0.00845,0.010752 -0.034577,0.027438 -0.058031,0.03706 l -0.042647,0.017512 -0.052469,0.00457 -0.05246,0.00457 -0.041734,-0.012131 c -0.064204,-0.018668 -0.1758113,-0.00449 -0.2266541,0.02886 -0.00933,0.00613 -0.025376,0.011115 -0.035646,0.011115 H 2.1330266 L 2.1216703,6.6814755 Z M 1.5806837,5.7485196 1.5609378,5.7321107 1.5484091,5.6874452 c -0.0069,-0.024566 -0.017883,-0.082579 -0.024428,-0.1289109 l -0.0119,-0.084244 0.00944,-0.1204596 c 0.00517,-0.066257 0.012322,-0.1338594 0.015839,-0.1502356 0.00353,-0.016374 0.010098,-0.073318 0.014624,-0.1265465 0.00449,-0.053227 0.012804,-0.1151938 0.018401,-0.137711 0.00561,-0.022522 0.012546,-0.059367 0.015452,-0.081881 0.00673,-0.052538 0.012141,-0.065429 0.039604,-0.094909 l 0.022531,-0.024196 h 0.025704 0.025704 l 0.021686,0.024703 c 0.025937,0.029541 0.0484,0.090165 0.0653,0.1762812 0.00681,0.034802 0.015409,0.076673 0.019056,0.093048 0.00362,0.016374 0.010105,0.058816 0.014339,0.094314 0.0094,0.078709 0.011278,0.083917 0.034103,0.094314 l 0.018151,0.00828 0.011011,-0.016797 c 0.01164,-0.017762 0.035543,-0.087997 0.044829,-0.1317123 0.00301,-0.01433 0.00854,-0.029765 0.012149,-0.034301 0.00362,-0.00457 0.013055,-0.026308 0.020918,-0.048382 0.033215,-0.093206 0.043,-0.1178798 0.050416,-0.1271328 0.00432,-0.00535 0.01039,-0.01809 0.013521,-0.028239 0.00638,-0.020746 0.027782,-0.05334 0.055073,-0.083891 l 0.018288,-0.02047 h 0.020884 0.020884 l 0.020531,0.022963 c 0.011287,0.012633 0.025187,0.038587 0.030878,0.057694 l 0.010347,0.034732 0.00664,0.3275308 c 0.00362,0.1801426 0.00509,0.345009 0.00327,0.3663709 l -0.00345,0.038836 -0.019711,0.025851 c -0.010848,0.014219 -0.027007,0.02698 -0.035922,0.02836 l -0.016201,0.0025 -0.019521,-0.019617 -0.019522,-0.019617 -0.00854,-0.04927 c -0.00475,-0.027093 -0.0069,-0.056884 -0.00475,-0.066197 0.00208,-0.00932 0.00724,-0.095321 0.011537,-0.1911355 0.00423,-0.095814 0.010951,-0.1968127 0.014874,-0.2244423 l 0.00716,-0.050236 -0.00776,-0.02229 -0.00776,-0.02229 -0.0189,-0.00362 -0.018901,-0.00362 -0.010416,0.024928 c -0.00569,0.01371 -0.010416,0.031895 -0.010416,0.040423 0,0.00854 -0.00465,0.02454 -0.010252,0.035594 -0.00561,0.011054 -0.01559,0.041872 -0.022126,0.06849 -0.022453,0.09153 -0.039828,0.1531208 -0.047313,0.1677336 -0.00413,0.00802 -0.011512,0.031085 -0.016417,0.051185 -0.00491,0.020099 -0.013762,0.043449 -0.019686,0.0519 -0.00595,0.00845 -0.010762,0.020479 -0.010762,0.026739 8e-7,0.00629 -0.01033,0.031524 -0.022962,0.056151 l -0.022963,0.044786 -0.019531,0.00922 -0.019531,0.00922 -0.00603,-0.01083 c -0.00335,-0.00596 -0.010314,-0.015191 -0.015522,-0.020512 -0.012055,-0.012322 -0.039802,-0.092168 -0.053806,-0.154828 -0.00595,-0.02661 -0.014003,-0.05572 -0.017909,-0.064687 -0.00388,-0.00897 -0.010726,-0.052512 -0.015176,-0.096771 -0.00449,-0.04426 -0.00968,-0.087941 -0.011632,-0.097079 l -0.00353,-0.016616 -0.021479,-0.011106 -0.021479,-0.011106 -0.010054,0.012158 -0.010054,0.012158 2.087e-4,0.1160544 2.096e-4,0.1160553 0.012261,0.055832 c 0.00673,0.030706 0.016314,0.079277 0.021264,0.1079361 0.00491,0.028662 0.013572,0.061152 0.019159,0.072206 0.00561,0.011054 0.010157,0.038043 0.010157,0.059963 V 5.665929 L 1.6900654,5.690917 C 1.6639394,5.72633 1.6328364,5.755329 1.6154534,5.760494 L 1.6005662,5.764888 1.58082,5.748479 Z M 4.473424,5.7079151 4.4477892,5.680004 4.4477521,5.6236808 c -2.25e-5,-0.030981 0.0031,-0.074526 0.0069,-0.096771 0.00379,-0.022246 0.00906,-0.071327 0.01171,-0.1090684 l 0.00483,-0.06862 -0.032179,-0.03155 -0.032181,-0.03155 0.0025,-0.011486 c 0.00138,-0.00629 0.010089,-0.019867 0.019383,-0.030101 0.030869,-0.034007 0.028661,-0.1620331 -0.00491,-0.2825169 l -0.015642,-0.056177 -5.648e-4,-0.08326 -5.648e-4,-0.083269 0.01528,-0.020953 c 0.00836,-0.01152 0.017297,-0.026368 0.019755,-0.032991 0.010891,-0.029343 0.05133,-0.02022 0.075578,0.017038 l 0.012943,0.019884 0.0075,0.1215478 c 0.00413,0.066851 0.00526,0.1493017 0.00259,0.1832251 l -0.00491,0.061678 0.00905,0.010899 c 0.005,0.00603 0.016175,0.010881 0.024885,0.010865 l 0.01584,-3.7e-5 0.065326,-0.076267 c 0.035931,-0.041949 0.071939,-0.08308 0.080019,-0.091415 0.00811,-0.00836 0.014693,-0.01791 0.014693,-0.021281 0,-0.00673 0.00577,-0.013547 0.078182,-0.09162 l 0.04971,-0.053616 0.025661,-0.00845 0.025661,-0.00845 0.017419,0.011416 0.017417,0.011416 0.00491,0.026084 0.00491,0.026084 -0.01052,0.025169 -0.010519,0.02517 -0.095824,0.097025 C 4.799876,5.0350982 4.7274447,5.1099213 4.6916209,5.1480094 l -0.065136,0.069248 1.139e-4,0.015512 c 5.95e-5,0.00854 0.00259,0.018866 0.00561,0.022963 0.01271,0.017306 0.16539,0.1228249 0.1777135,0.1228249 0.00285,0 0.010528,0.00465 0.016987,0.010287 0.00647,0.00569 0.033525,0.021453 0.060134,0.035112 0.069498,0.035664 0.097737,0.055858 0.1209633,0.08654 l 0.02047,0.02704 v 0.031171 0.031171 l -0.014633,0.018608 c -0.00802,0.010235 -0.024617,0.022739 -0.03681,0.027791 l -0.022178,0.00918 -0.037164,-0.012347 -0.037164,-0.012339 -0.025954,-0.028731 C 4.8402992,5.5862468 4.8057482,5.555731 4.7778021,5.5342434 4.694231,5.4699785 4.6533974,5.436639 4.6376637,5.4198179 c -0.00819,-0.00876 -0.024187,-0.01991 -0.035551,-0.024791 l -0.02066,-0.00887 -0.00828,0.018108 -0.00828,0.018108 0.012167,0.03719 c 0.016201,0.049538 0.015349,0.1130959 -0.0025,0.1883805 l -0.014702,0.061885 -0.0159,0.013029 c -0.024049,0.019703 -0.042174,0.015865 -0.070422,-0.014892 z m -1.1459284,0.00208 c -0.042225,-0.02197 -0.079062,-0.055159 -0.093699,-0.084433 -0.00551,-0.010986 -0.013297,-0.024454 -0.01734,-0.029938 -0.00405,-0.00551 -0.016909,-0.033758 -0.028593,-0.062842 L 3.1666262,5.479899 V 5.417756 5.355612 l 0.016531,-0.033093 c 0.03218,-0.064437 0.067904,-0.082735 0.091221,-0.046727 l 0.011106,0.01715 0.00517,0.1004922 0.00517,0.100493 0.014227,0.031818 c 0.016175,0.036181 0.050434,0.069879 0.07901,0.077716 l 0.019393,0.00535 0.024049,-0.014865 C 3.460509,5.5766381 3.4836097,5.5416211 3.5082695,5.47907 l 0.017607,-0.044666 0.00388,-0.074439 c 0.00387,-0.075053 -0.00708,-0.306691 -0.019798,-0.4168587 -0.00379,-0.032748 -0.00785,-0.088649 -0.00906,-0.1242122 l -0.00224,-0.064661 0.022332,-0.021393 c 0.029403,-0.028171 0.08076,-0.053996 0.1073687,-0.053996 h 0.021307 l 0.00449,0.011779 c 0.00759,0.019841 0.005,0.042993 -0.0075,0.066386 l -0.011942,0.022332 -0.00259,0.2382042 c -0.00327,0.3041159 -0.00759,0.3750581 -0.029179,0.4802687 L 3.5853542,5.583557 3.5662122,5.620634 C 3.5298162,5.691151 3.4868492,5.719467 3.4064279,5.7259574 l -0.041785,0.00336 z m -0.9166857,-0.08537 c -0.00875,-0.00371 -0.031353,-0.02179 -0.050244,-0.040156 l -0.034353,-0.033387 1.776e-4,-0.017409 c 9.74e-5,-0.00958 0.00362,-0.030809 0.00793,-0.047192 0.017194,-0.06611 0.021427,-0.097482 0.028818,-0.2136839 l 0.00767,-0.1212909 -0.00811,-0.1181609 -0.00811,-0.1181601 0.00998,-0.00964 c 0.00982,-0.00949 0.027377,-0.0134 0.052521,-0.01171 0.018668,0.00129 0.063592,0.043199 0.07738,0.072258 l 0.011934,0.025144 -0.00371,0.028033 c -0.00208,0.015417 -0.00785,0.051477 -0.012925,0.080139 l -0.00924,0.052107 0.00413,0.1079361 c 0.00224,0.059367 0.00982,0.1471063 0.016762,0.1949812 l 0.012615,0.087045 -0.00491,0.02461 c -0.00267,0.013538 -0.011313,0.032334 -0.019185,0.041776 l -0.014313,0.017159 -0.024523,0.0032 c -0.013486,0.00172 -0.03168,1.406e-4 -0.040415,-0.00353 z m 2.7549222,-0.0069 c -0.01246,-0.00759 -0.031714,-0.024592 -0.042802,-0.037759 l -0.020152,-0.023954 -6.9e-6,-0.019901 c -7.5e-6,-0.022324 0.010796,-0.1107066 0.026653,-0.2180513 0.00577,-0.039379 0.010519,-0.1164268 0.010451,-0.1712093 l -1.3e-4,-0.0996 -0.011003,-0.051934 c -0.023764,-0.1121907 0.046218,-0.1450654 0.1201626,-0.05646 l 0.021367,0.025601 -8.08e-4,0.052555 c -4.441e-4,0.028904 -0.00336,0.099455 -0.00647,0.1567724 l -0.00569,0.1042146 0.011986,0.137712 0.011986,0.1377119 -0.00767,0.027696 c -0.013495,0.048718 -0.061393,0.064963 -0.1079042,0.036594 z m 1.0876874,-0.012409 c -0.020159,-0.00551 -0.045286,-0.016383 -0.055832,-0.024109 -0.010546,-0.00776 -0.030395,-0.017918 -0.044115,-0.022643 l -0.024945,-0.00862 -0.032508,0.019047 -0.032508,0.019047 -0.021936,-0.01296 C 5.9996875,5.5503252 5.9935913,5.5133765 6.0231069,5.463015 L 6.0427309,5.429524 6.0324369,5.398413 6.0221419,5.367303 6.0224531,5.274255 6.0227645,5.181206 6.0397165,5.132824 C 6.0760441,5.0291449 6.0997564,4.9946499 6.1906877,4.9132319 6.2857321,4.8281347 6.3680494,4.8032495 6.462123,4.8311871 l 0.037052,0.011003 0.016245,0.02197 0.016245,0.02197 -0.021505,0.018099 -0.021505,0.018099 -0.047183,0.00526 -0.047183,0.00526 -0.057281,0.030456 c -0.062643,0.033309 -0.1449912,0.1028211 -0.1620374,0.1367773 -0.00595,0.011839 -0.014839,0.02654 -0.01978,0.032689 -0.010356,0.012874 -0.03261,0.087844 -0.037871,0.1275363 l -0.00362,0.02704 0.00854,0.00526 c 0.00475,0.00293 0.016643,0.00327 0.026515,7.898e-4 l 0.017944,-0.00449 0.023359,-0.035275 c 0.031844,-0.048089 0.093974,-0.097943 0.1541235,-0.1236768 l 0.050037,-0.021402 0.060212,-0.00379 0.060212,-0.00379 0.026885,0.00887 c 0.07794,0.025722 0.1111507,0.1285986 0.079311,0.2456929 -0.023523,0.086516 -0.047502,0.1285771 -0.1032575,0.1811316 -0.014037,0.013227 -0.032241,0.030533 -0.040466,0.038457 -0.035732,0.034448 -0.151196,0.049942 -0.2237688,0.030024 z M 6.3651229,5.4852621 6.404261,5.472923 6.4453742,5.435009 C 6.5966048,5.2955624 6.5090957,5.1431634 6.3420269,5.255029 6.3016642,5.2820524 6.2147494,5.3745513 6.2059224,5.399871 l -0.00716,0.020608 0.00959,0.022807 0.00959,0.022806 0.047244,0.01496 c 0.059807,0.018944 0.05397,0.018694 0.099961,0.00423 z m 2.1469541,0.127721 c 0,-0.00208 0.00164,-0.00371 0.00371,-0.00371 0.00208,0 0.00371,0.00164 0.00371,0.00371 0,0.00208 -0.00164,0.00371 -0.00371,0.00371 -0.00208,0 -0.00371,-0.00164 -0.00371,-0.00371 z M 3.9378081,5.5745865 c -0.044631,-0.022902 -0.070697,-0.045571 -0.070766,-0.061531 -2.24e-5,-0.00647 -0.00543,-0.021781 -0.012089,-0.034059 -0.00664,-0.012278 -0.012115,-0.035732 -0.012192,-0.052106 l -1.475e-4,-0.029774 0.016211,-0.027092 0.016211,-0.027093 0.02022,-0.00397 c 0.032637,-0.00629 0.06016,0.00267 0.079915,0.026145 l 0.018461,0.021944 v 0.029205 0.029205 l 0.014891,0.014892 0.014892,0.014891 h 0.02567 0.02567 l 0.043192,-0.035991 0.043192,-0.035991 0.016745,-0.03368 c 0.00921,-0.018521 0.016746,-0.038517 0.016746,-0.044433 0,-0.014727 -0.046149,-0.058333 -0.061739,-0.058333 -0.00699,0 -0.031921,-0.00629 -0.055479,-0.014081 -0.023559,-0.00776 -0.072984,-0.018138 -0.109829,-0.023114 C 3.8838995,5.2183337 3.8341244,5.2035626 3.798229,5.1793765 l -0.027921,-0.018815 -0.00854,-0.028395 -0.00854,-0.028395 0.00915,-0.032689 0.00915,-0.032689 0.027274,-0.030059 C 3.829059,4.9749905 3.893831,4.9295925 3.9563452,4.8979271 l 0.04094,-0.020738 0.060316,-0.00336 0.060316,-0.00336 0.023713,0.02135 0.023713,0.02135 0.00155,0.021884 0.00155,0.021884 -0.018608,0.00964 c -0.010235,0.00526 -0.037276,0.00969 -0.060083,0.00975 -0.040087,1.052e-4 -0.104932,0.016771 -0.1242383,0.031921 -0.00517,0.00405 -0.020178,0.012796 -0.033344,0.019419 -0.013175,0.00664 -0.02905,0.02122 -0.035267,0.032446 l -0.011322,0.020409 0.00819,0.013089 c 0.00939,0.015047 0.041587,0.027049 0.1258196,0.046881 0.2052637,0.048339 0.2506579,0.071051 0.2785686,0.139402 l 0.00993,0.024316 -0.00362,0.032465 -0.00362,0.032465 -0.028929,0.045735 c -0.015909,0.025152 -0.032878,0.052943 -0.037706,0.061756 -0.013598,0.024825 -0.076241,0.078552 -0.1155363,0.099105 l -0.035456,0.018539 -0.054108,-3.467e-4 -0.054108,-3.466e-4 -0.037215,-0.019099 z m 2.9887211,-0.00526 C 6.8817689,5.5571082 6.8248282,5.5158831 6.7908807,5.4711339 L 6.7631675,5.4345994 6.7480781,5.3849158 6.7329888,5.3352323 V 5.2669146 5.198597 l 0.014736,-0.057729 c 0.019547,-0.076552 0.045372,-0.120857 0.1044716,-0.1792369 l 0.048986,-0.048382 0.051426,-0.026058 0.051426,-0.026049 0.061971,9.509e-4 0.061963,9.508e-4 0.047296,0.023281 0.047295,0.023281 0.025851,0.031594 c 0.1452249,0.1775178 0.089937,0.4592578 -0.1172693,0.5975794 l -0.037319,0.024911 -0.048287,0.00785 c -0.059686,0.00968 -0.076613,0.00937 -0.1190041,-0.00224 z M 7.1070398,5.4222503 c 0.027636,-0.029153 0.050323,-0.056788 0.050416,-0.061411 9.06e-5,-0.00465 0.00664,-0.016772 0.014598,-0.027007 0.00793,-0.010235 0.020255,-0.043113 0.02736,-0.073059 l 0.012934,-0.054452 -0.012538,-0.059617 -0.012528,-0.059617 -0.014995,-0.019066 c -0.00828,-0.010485 -0.014995,-0.022453 -0.014995,-0.026601 0,-0.013426 -0.053478,-0.073232 -0.071663,-0.080139 l -0.017668,-0.00673 -0.019643,0.0075 c -0.031446,0.01196 -0.064653,0.043795 -0.082709,0.07932 l -0.016746,0.032947 v 0.058608 c 0,0.068533 -0.00215,0.070939 -0.048201,0.053875 l -0.034921,-0.012943 -0.0096,0.013133 c -0.00526,0.00724 -0.01177,0.032335 -0.014426,0.055806 l -0.00483,0.042683 0.00741,0.039129 c 0.0094,0.04958 0.049262,0.1067515 0.095849,0.1374757 l 0.019876,0.013107 0.048382,5.18e-5 0.048382,5.26e-5 0.050253,-0.053012 z M 2.7877271,5.5600201 c -0.00613,-0.00234 -0.025367,-0.010624 -0.042725,-0.018435 -0.017357,-0.00785 -0.034275,-0.01421 -0.037594,-0.01421 -0.00336,0 -0.024834,-0.016754 -0.047804,-0.037224 L 2.6178339,5.4529257 2.60327,5.4212981 C 2.59525,5.4038981 2.582601,5.3762701 2.575143,5.3598871 L 2.5615786,5.3301131 2.5611751,5.2110106 2.5607716,5.0919081 2.5828023,5.03236 c 0.044001,-0.1189499 0.1534363,-0.2359709 0.2535861,-0.2711712 0.053383,-0.018763 0.062868,-0.019013 0.09232,-0.00241 l 0.023092,0.013029 0.00828,0.027196 0.00828,0.027196 -0.00509,0.027127 -0.00509,0.027126 -0.02379,0.014512 c -0.01308,0.00802 -0.035517,0.0164 -0.049839,0.018703 -0.014331,0.00234 -0.041458,0.00759 -0.06029,0.011658 l -0.034241,0.0075 -0.03456,0.031162 -0.03456,0.031162 -0.033551,0.065584 c -0.054202,0.1059522 -0.036948,0.1387079 0.044778,0.085003 0.063057,-0.041432 0.118943,-0.070853 0.1509702,-0.079475 l 0.030688,-0.00828 0.02573,0.010752 c 0.02868,0.011986 0.041811,0.031007 0.041811,0.060575 v 0.019763 l -0.02022,0.021427 c -0.011123,0.011788 -0.029911,0.023557 -0.041759,0.026152 -0.079062,0.017367 -0.1935947,0.093927 -0.2061863,0.13783 l -0.00664,0.0231 0.023876,0.021825 c 0.013133,0.012003 0.037276,0.025446 0.05365,0.029869 l 0.029774,0.00802 0.036509,-0.00432 0.036508,-0.00432 0.028446,-0.019711 c 0.015641,-0.010839 0.043915,-0.038569 0.062833,-0.061627 0.018918,-0.023056 0.042234,-0.046096 0.051822,-0.051219 l 0.017427,-0.0093 0.018444,0.00699 0.018453,0.00699 0.00922,0.041199 0.00922,0.041208 -0.012995,0.048011 -0.012995,0.048011 -0.030955,0.030197 c -0.01703,0.016607 -0.047701,0.039026 -0.068171,0.049822 l -0.037224,0.019617 -0.070715,0.00267 c -0.038897,0.00146 -0.075742,7.492e-4 -0.081881,-0.00155 z m 2.8361212,-0.00215 c -0.010235,-0.00346 -0.037172,-0.014564 -0.059867,-0.024721 L 5.5227301,5.5146825 5.4895414,5.4813471 C 5.4712867,5.4630152 5.4471868,5.4298613 5.4359772,5.4076747 L 5.4155933,5.3673376 5.4043407,5.3050991 C 5.3725316,5.1292412 5.4134548,4.9877913 5.5318814,4.864299 5.6695399,4.720747 5.8093773,4.7073612 5.8098395,4.8376895 l 1.018e-4,0.028653 -0.022436,0.020962 -0.022436,0.020962 -0.031533,0.00475 c -0.01734,0.00259 -0.047597,0.00828 -0.06724,0.012632 l -0.035716,0.00793 -0.035112,0.034534 -0.035112,0.034534 -0.028386,0.056333 -0.028386,0.056331 0.00241,0.025489 0.00241,0.025488 0.013416,0.0025 c 0.011512,0.00215 0.062695,-0.026187 0.1317391,-0.073026 0.010235,-0.00699 0.036189,-0.018453 0.057677,-0.025575 l 0.03907,-0.012951 0.022884,0.005 0.022885,0.005 0.014323,0.023479 c 0.017245,0.028274 0.01578,0.045967 -0.00638,0.077052 l -0.016703,0.023453 -0.023049,0.00509 c -0.049227,0.010813 -0.1342008,0.055694 -0.166397,0.08789 -0.00664,0.00664 -0.016168,0.014659 -0.021168,0.017823 -0.005,0.0032 -0.013185,0.015056 -0.018177,0.02642 l -0.00908,0.020677 0.00828,0.013323 c 0.00457,0.00733 0.020203,0.021462 0.034724,0.031412 l 0.026402,0.01809 0.049564,2.24e-5 0.049564,2.17e-5 0.032783,-0.022333 c 0.01803,-0.012278 0.039535,-0.029645 0.047778,-0.038587 0.00828,-0.00894 0.025463,-0.02786 0.038259,-0.042044 0.012796,-0.014185 0.030197,-0.029489 0.038656,-0.034026 l 0.015383,-0.00819 0.018729,0.00854 0.018729,0.00854 0.00836,0.040225 0.00836,0.040225 -0.005,0.0313 c -0.00733,0.045778 -0.070396,0.1308612 -0.09754,0.1315752 -0.00457,1.198e-4 -0.017806,0.00767 -0.02943,0.016832 l -0.021126,0.016617 -0.074793,0.00172 c -0.04113,9.508e-4 -0.083166,-0.00103 -0.093398,-0.00449 z m -3.8137815,-1.1160295 -0.020185,-0.021065 -0.00699,-0.061187 -0.00699,-0.061187 0.00699,-0.1131486 c 0.00379,-0.06223 0.00699,-0.1533456 0.00707,-0.2024751 l 8.46e-5,-0.089328 -0.00919,-0.015684 c -0.00509,-0.00862 -0.020082,-0.030067 -0.033386,-0.04764 l -0.024196,-0.031956 v -0.025722 -0.025722 l 0.018608,-0.022117 0.018608,-0.022118 -4.49e-5,-0.031067 c -2.28e-5,-0.017082 -0.00509,-0.064274 -0.011167,-0.104855 -0.014262,-0.094641 -0.014021,-0.1355994 0.00112,-0.1900853 l 0.012253,-0.044054 0.031542,-0.036052 0.031542,-0.036052 0.039958,-0.019367 c 0.073577,-0.035663 0.091686,-0.04163 0.1658869,-0.054676 l 0.073828,-0.012986 0.037836,0.00413 c 0.020806,0.00224 0.055573,0.00802 0.077251,0.01277 l 0.039415,0.00866 0.025023,0.023505 0.025023,0.023505 0.00509,0.024687 0.00509,0.024687 -0.00905,0.021841 c -0.005,0.012012 -0.011149,0.022186 -0.013727,0.022608 -0.00259,4.243e-4 -0.072146,0.00189 -0.1546142,0.0032 -0.082467,0.00138 -0.1633352,0.00603 -0.1797122,0.010468 l -0.029774,0.00802 -0.026033,0.028817 -0.026033,0.028817 -0.00517,0.037337 -0.00517,0.037337 0.00876,0.073318 c 0.00944,0.079087 0.014201,0.092985 0.037414,0.109245 l 0.015098,0.010572 0.057427,-0.014857 c 0.031584,-0.00819 0.064032,-0.019461 0.072103,-0.025084 0.022773,-0.015858 0.043898,-0.012211 0.06662,0.011494 l 0.020806,0.02172 0.0032,0.047131 0.0032,0.047132 -0.00974,0.011166 c -0.00535,0.00613 -0.017168,0.015357 -0.026238,0.02047 l -0.016497,0.00931 h -0.081562 -0.081562 l -0.010881,0.015538 -0.010881,0.015538 0.00759,0.02354 c 0.00413,0.012951 0.012313,0.04532 0.018091,0.071931 0.00577,0.02661 0.015417,0.063463 0.021419,0.081881 0.024049,0.073819 0.070594,0.2650759 0.070594,0.2900576 0,0.072103 -0.087335,0.1491318 -0.1690813,0.1491318 H 1.830171 Z M 6.0249039,4.3996236 C 5.9498429,4.3605276 5.9375709,4.3262536 5.9540859,4.2018624 5.9713919,4.0714832 6.0156609,3.9237826 6.0744129,3.800399 6.0812229,3.786069 6.0940299,3.759303 6.1028419,3.74092 6.1929609,3.5529551 6.3662804,3.2848251 6.413418,3.2604497 c 0.033861,-0.017505 0.096253,-0.00432 0.096253,0.020341 0,0.00465 0.005,0.014046 0.011106,0.020798 0.030584,0.033792 0.095464,0.2846287 0.1193948,0.4615893 0.00577,0.042984 0.01572,0.1150077 0.022004,0.160044 0.00629,0.045036 0.014796,0.127757 0.018918,0.183825 l 0.0075,0.1019436 -0.00767,0.03437 -0.00767,0.03437 -0.038948,0.039776 c -0.021419,0.021876 -0.045958,0.041829 -0.054521,0.04433 l -0.015581,0.00457 -0.018849,-0.014822 -0.018848,-0.014822 -0.00836,-0.033267 C 6.5074098,4.2608176 6.5074628,4.1677205 6.5183022,4.067669 6.5273122,3.984538 6.5246822,3.9577936 6.5055142,3.9386513 l -0.011684,-0.011684 h -0.025895 c -0.014245,0 -0.03494,0.00465 -0.045993,0.010287 -0.011054,0.00569 -0.061825,0.01765 -0.1128217,0.026653 -0.050994,0.00901 -0.1013372,0.020824 -0.111869,0.026264 l -0.019151,0.0099 -0.017892,0.035828 -0.017892,0.035828 -0.00517,0.1391537 -0.00517,0.1391537 -0.015633,0.021963 c -0.013107,0.0184 -0.047407,0.047122 -0.054839,0.045907 -0.00121,-1.905e-4 -0.017607,-0.00845 -0.036535,-0.018271 z m 0.2517235,-0.550824 c 0.015115,-0.01058 0.065903,-0.023841 0.1599499,-0.041759 l 0.042285,-0.00802 0.013141,-0.014521 0.013141,-0.014521 -0.015504,-0.075966 C 6.4558491,3.5283845 6.4210996,3.4860523 6.3621395,3.5386887 c -0.013021,0.011624 -0.023669,0.024617 -0.023669,0.028869 0,0.00423 -0.00509,0.011951 -0.011297,0.017108 -0.029955,0.024859 -0.1152499,0.2017836 -0.1152499,0.2390526 0,0.034776 0.032766,0.047486 0.064713,0.025118 z m 0.6713904,0.5442933 c -0.018892,-0.00509 -0.044692,-0.017427 -0.057349,-0.027412 l -0.023005,-0.018159 -0.017004,-0.04094 -0.017004,-0.04094 -4.4e-5,-0.093049 -4.49e-5,-0.093048 0.016082,-0.085606 c 0.00884,-0.04708 0.019599,-0.094742 0.023902,-0.1059115 0.00432,-0.011166 0.011692,-0.042993 0.016435,-0.070714 0.00475,-0.027722 0.011908,-0.05672 0.015926,-0.064429 0.00405,-0.00767 0.011753,-0.037854 0.017185,-0.066998 0.00543,-0.029136 0.014977,-0.066377 0.021212,-0.082753 0.00621,-0.016374 0.011486,-0.03719 0.011666,-0.046252 1.794e-4,-0.00906 0.00655,-0.032508 0.014219,-0.052107 0.00767,-0.019599 0.016306,-0.052383 0.019254,-0.072853 0.00293,-0.020471 0.00976,-0.04727 0.015142,-0.059549 0.00535,-0.012278 0.013356,-0.037629 0.017729,-0.056333 0.010278,-0.043976 0.042458,-0.1012863 0.065257,-0.1162233 l 0.017918,-0.011736 0.031472,0.00423 0.031472,0.00423 0.024195,0.026402 0.024195,0.026402 -3.267e-4,0.042915 c -1.795e-4,0.0236 -0.00551,0.056314 -0.011865,0.07269 -0.00638,0.016374 -0.016495,0.044846 -0.022557,0.063274 -0.00603,0.018427 -0.014452,0.039846 -0.018643,0.047606 -0.00877,0.016219 -0.031766,0.080519 -0.048192,0.1347708 -0.00621,0.02047 -0.015771,0.04727 -0.021264,0.059548 -0.00551,0.012287 -0.012201,0.032379 -0.0149,0.044666 -0.00267,0.012278 -0.010977,0.037405 -0.018392,0.055832 -0.00741,0.018426 -0.015909,0.048571 -0.018874,0.066998 -0.00293,0.018427 -0.00966,0.041872 -0.014865,0.052107 -0.00517,0.010235 -0.013175,0.042664 -0.01772,0.072059 -0.00457,0.029395 -0.011192,0.061221 -0.014788,0.070714 -0.00362,0.0095 -0.00893,0.034828 -0.011874,0.056289 l -0.00535,0.039026 0.016305,0.03368 c 0.033828,0.069869 0.1316495,0.064635 0.2195602,-0.011762 0.039888,-0.034663 0.085564,-0.043044 0.1160924,-0.021298 l 0.021617,0.015392 v 0.029507 c 0,0.027636 -0.00919,0.054219 -0.032603,0.094324 -0.014305,0.024505 -0.089865,0.081122 -0.1221239,0.091507 -0.015211,0.00491 -0.031602,0.012037 -0.036439,0.015858 -0.02554,0.020212 -0.1608242,0.031766 -0.2116524,0.018064 z m -2.8885109,-0.00181 c -0.018608,-0.00551 -0.043554,-0.077139 -0.04351,-0.1249134 l 2.93e-5,-0.030524 0.022496,-0.059549 c 0.030999,-0.082053 0.057936,-0.2138706 0.07119,-0.3483636 0.014676,-0.1488638 0.02905,-0.4510249 0.022669,-0.476461 l -0.005,-0.020056 h -0.020496 -0.020496 l -0.037724,0.024196 c -0.048426,0.03105 -0.068585,0.04301 -0.094859,0.056281 l -0.021264,0.010736 -0.037594,-0.00449 -0.037594,-0.00449 -0.028463,-0.018832 -0.028463,-0.018832 -0.00483,-0.019271 c -0.00267,-0.010598 -0.00112,-0.031766 0.00346,-0.047045 l 0.00836,-0.027773 0.028015,-0.02241 c 0.035017,-0.028015 0.1041387,-0.064351 0.1601412,-0.084184 0.02354,-0.00836 0.060385,-0.021496 0.081881,-0.029248 0.062412,-0.022505 0.1107489,-0.03844 0.1507392,-0.049701 0.02047,-0.00577 0.043915,-0.013891 0.052106,-0.018056 0.037379,-0.019014 0.3051524,-0.08195 0.3482392,-0.081847 l 0.031395,7.41e-5 0.037811,0.017607 c 0.020789,0.00968 0.04508,0.026851 0.05397,0.038147 l 0.016159,0.020547 v 0.025911 0.025902 l -0.027506,0.025196 c -0.015133,0.013858 -0.031042,0.025248 -0.035362,0.025308 -0.00432,5.95e-5 -0.064799,0.00103 -0.1343956,0.00224 L 4.4440627,3.17953 4.3882309,3.1998013 4.332399,3.2200727 4.3115581,3.2408788 4.2907172,3.2616849 4.28,3.3129121 4.2692817,3.3641392 4.2618678,3.584102 c -0.011839,0.3528022 -0.023057,0.5643313 -0.034275,0.6458285 l -0.01046,0.075991 -0.013115,0.021565 c -0.00724,0.011855 -0.024255,0.030938 -0.037879,0.042397 l -0.024765,0.020841 -0.034784,0.00208 c -0.019134,0.00112 -0.040311,4.544e-4 -0.047071,-0.00155 z m 0.4844886,-0.020288 c -0.034344,-0.020764 -0.066507,-0.054391 -0.084778,-0.088645 l -0.014555,-0.027274 0.012692,-0.026618 c 0.00699,-0.014641 0.012701,-0.037388 0.012718,-0.050554 1.47e-5,-0.013167 0.00741,-0.065809 0.016409,-0.1169891 l 0.016374,-0.093048 3.442e-4,-0.2084292 3.439e-4,-0.2084283 -0.00969,-0.037587 -0.00969,-0.037587 0.00707,-0.018245 c 0.00388,-0.010037 0.014262,-0.025781 0.023006,-0.034991 l 0.015891,-0.016746 h 0.022195 c 0.034732,0 0.077405,0.030326 0.1228741,0.087305 l 0.019178,0.024031 -5.372e-4,0.069016 -5.355e-4,0.069017 -0.011072,0.04094 -0.011072,0.04094 -8.78e-5,0.1085845 -8.88e-5,0.1085855 0.011123,0.073792 c 0.00613,0.040587 0.011141,0.094111 0.011166,0.1189473 2.24e-5,0.024833 0.00362,0.064722 0.00811,0.088625 l 0.00802,0.043467 -0.00836,0.033249 -0.00836,0.033249 -0.021427,0.021427 -0.021428,0.02142 -0.039656,-7.019e-4 -0.039655,-7.018e-4 -0.02654,-0.016047 z M 5.1499104,4.351693 C 5.0702885,4.315549 4.984048,4.1717056 4.9352411,3.99366 L 4.9178233,3.9301286 4.90928,3.8261692 4.9007367,3.7222107 4.9084112,3.594514 4.9160857,3.4668181 4.9319,3.4198675 C 4.97544,3.2906659 5.030281,3.2457555 5.1012984,3.2811611 l 0.033594,0.016745 0.010019,0.023954 c 0.014003,0.033472 0.012745,0.050839 -0.0094,0.1299706 -0.02986,0.1066616 -0.037052,0.1437012 -0.047459,0.2443244 l -0.00962,0.093048 0.012158,0.1173754 0.012159,0.1173754 0.021703,0.042666 c 0.035017,0.068844 0.050796,0.081485 0.088968,0.071267 l 0.017538,-0.00465 0.020824,-0.046416 c 0.011451,-0.025531 0.024626,-0.071103 0.029265,-0.1012777 0.00465,-0.030171 0.011718,-0.067153 0.015728,-0.082174 0.011313,-0.042442 0.021212,-0.1973059 0.022255,-0.3483571 l 9.508e-4,-0.1373473 0.014072,-0.027592 0.014072,-0.027593 0.023643,-0.011796 c 0.04201,-0.020961 0.08688,-0.00638 0.1158637,0.037681 l 0.013434,0.020409 0.00871,0.1157932 c 0.00483,0.063687 0.012416,0.16939 0.016934,0.2348956 0.00449,0.065507 0.014598,0.1459009 0.022384,0.1786533 0.00776,0.032749 0.019297,0.085942 0.025584,0.1182023 l 0.011416,0.058652 0.012606,0.013925 c 0.017142,0.018944 0.034129,0.017487 0.054987,-0.00475 l 0.017505,-0.018633 0.013416,-0.072552 C 5.7040839,3.9275839 5.7279089,3.7007894 5.7428949,3.478075 l 0.00741,-0.1101401 0.017892,-0.038733 c 0.019116,-0.041397 0.050736,-0.075353 0.075732,-0.08133 l 0.01534,-0.00371 0.019168,0.015685 c 0.010537,0.00862 0.026498,0.030266 0.035448,0.048089 l 0.016288,0.032404 -0.00311,0.056928 c -0.014934,0.2709057 -0.084485,0.6360866 -0.1472745,0.7733157 -0.00793,0.017357 -0.014435,0.033103 -0.014435,0.034982 0,0.00963 -0.047933,0.0725 -0.070129,0.091991 l -0.025437,0.022333 -0.030214,0.00509 C 5.5661072,4.3373856 5.47635,4.2807689 5.4430389,4.2010001 5.4367448,4.1859629 5.4229481,4.1679842 5.4123514,4.1610424 l -0.019271,-0.012624 -0.010649,0.00883 c -0.00587,0.00483 -0.012925,0.019496 -0.01571,0.032516 -0.00276,0.013021 -0.00802,0.027317 -0.011546,0.031766 -0.00353,0.00449 -0.011512,0.022333 -0.017659,0.03975 -0.00613,0.017419 -0.02122,0.044356 -0.033508,0.059858 l -0.022333,0.028197 -0.033163,0.00836 c -0.045304,0.011408 -0.062377,0.010356 -0.09854,-0.00603 z M 3.4130137,4.329423 C 3.3904997,4.322263 3.3582937,4.309349 3.3414457,4.300692 L 3.3108178,4.2849474 3.2882345,4.2492238 C 3.2381543,4.1699982 3.2378181,4.0637375 3.2874881,4.0140691 l 0.021953,-0.021953 0.039526,0.00327 0.039527,0.00327 0.03074,0.025532 0.03074,0.025531 1.337e-4,0.034249 c 7.42e-5,0.018832 0.00388,0.044941 0.00845,0.058014 l 0.00828,0.023765 0.02335,0.00961 0.02335,0.00961 0.025032,-0.010382 c 0.060342,-0.025023 0.099523,-0.058764 0.143428,-0.1235294 l 0.021082,-0.031102 1.354e-4,-0.027799 1.354e-4,-0.027799 -0.02047,-0.02154 -0.020471,-0.021539 -0.044666,-0.015391 c -0.024567,-0.00845 -0.059739,-0.01754 -0.078165,-0.02017 -0.018427,-0.00267 -0.050244,-0.0093 -0.070715,-0.014806 -0.02047,-0.00552 -0.067368,-0.013769 -0.1042139,-0.018356 C 3.211299,3.8334403 3.1301665,3.7776862 3.1301665,3.6913997 v -0.028446 l 0.019332,-0.038207 C 3.2429722,3.4399977 3.5713671,3.3200269 3.6682938,3.4352172 l 0.020159,0.023963 v 0.021565 0.021565 l -0.024195,0.012719 -0.024195,0.01271 -0.066998,0.00293 -0.066998,0.00293 -0.033498,0.011967 c -0.043795,0.01565 -0.1017615,0.048054 -0.1324529,0.074052 l -0.024514,0.020763 -0.00155,0.021806 -0.00155,0.021806 0.018608,0.00898 c 0.03061,0.014762 0.067369,0.026248 0.1302681,0.040699 0.1497958,0.03443 0.1934481,0.04558 0.200667,0.051253 0.00432,0.00336 0.025187,0.010183 0.046476,0.015175 0.02129,0.005 0.042639,0.013805 0.047433,0.019582 0.00483,0.00577 0.012908,0.010512 0.01803,0.010512 0.010545,0 0.064532,0.056349 0.07788,0.081286 0.00483,0.00905 0.00873,0.039509 0.00864,0.067706 l -1.621e-4,0.051271 -0.024549,0.044192 C 3.7136727,4.294496 3.5719496,4.3799114 3.4129913,4.3294669 Z M 2.6611815,4.2978812 c -0.02661,-0.00379 -0.061049,-0.013391 -0.076526,-0.021409 -0.015478,-0.00802 -0.032525,-0.014581 -0.03788,-0.014581 -0.021944,0 -0.153569,-0.1145971 -0.153569,-0.1337007 0,-0.00457 -0.00561,-0.016762 -0.012383,-0.027162 -0.00681,-0.010399 -0.020513,-0.04126 -0.030456,-0.068594 l -0.018073,-0.049692 -0.00379,-0.137712 -0.00379,-0.137712 0.015633,-0.044407 c 0.00862,-0.024419 0.015633,-0.049278 0.015633,-0.055237 0,-0.084615 0.186869,-0.2955147 0.3163653,-0.3570566 l 0.037224,-0.017684 0.049029,-0.00379 0.049029,-0.00379 0.016211,0.00868 c 0.00892,0.00475 0.025152,0.022772 0.036077,0.039992 l 0.019867,0.031318 6.64e-5,0.034059 6.73e-5,0.034059 -0.016505,0.023178 c -0.023575,0.033103 -0.056022,0.047227 -0.1240716,0.054012 l -0.059549,0.00595 -0.037215,0.020962 c -0.02047,0.011528 -0.050796,0.034534 -0.067386,0.051123 l -0.030171,0.030162 -0.027152,0.055634 c -0.014935,0.030594 -0.033473,0.072629 -0.041199,0.093402 l -0.014046,0.037767 0.00595,0.016194 0.00595,0.016194 h 0.017573 c 0.00967,0 0.034059,-0.010554 0.054211,-0.023445 0.033585,-0.021496 0.064835,-0.040795 0.10363,-0.06398 0.00819,-0.00491 0.036379,-0.019487 0.062643,-0.032421 l 0.047753,-0.023523 0.040828,3.673e-4 0.040828,3.665e-4 0.022954,0.022954 0.022954,0.022954 v 0.045769 0.045769 l -0.013528,0.00819 c -0.00741,0.00449 -0.020383,0.013969 -0.028748,0.021048 -0.00836,0.00707 -0.027343,0.015107 -0.042174,0.017841 -0.014822,0.00276 -0.038629,0.011184 -0.0529,0.018772 -0.014271,0.00759 -0.031404,0.013796 -0.038078,0.013796 -0.00664,0 -0.020126,0.00621 -0.029885,0.013839 -0.00976,0.00759 -0.027947,0.019065 -0.040405,0.025454 -0.02761,0.014159 -0.085736,0.06868 -0.1026919,0.096343 l -0.012416,0.020246 0.013607,0.022367 c 0.029568,0.048624 0.1104074,0.081028 0.1762665,0.070654 0.058152,-0.00916 0.094407,-0.03625 0.1815317,-0.1356684 0.053977,-0.061601 0.067404,-0.070835 0.093465,-0.06429 l 0.018487,0.00465 0.020255,0.034559 0.020255,0.03456 -1.432e-4,0.055884 -1.447e-4,0.055884 -0.023204,0.045614 -0.023204,0.045614 -0.04069,0.036267 c -0.087127,0.07766 -0.1738451,0.1015838 -0.3024232,0.083429 z M 1.8484827,2.5961064 c -0.03243,-0.021384 -0.051641,-0.05146 -0.070188,-0.1098468 l -0.017479,-0.055021 -0.00733,-0.077587 c -0.00405,-0.042673 -0.00776,-0.1413404 -0.00819,-0.2192636 l -8.545e-4,-0.1416767 0.00828,-0.015495 c 0.010571,-0.019755 0.016314,-0.019479 0.03625,0.00172 l 0.016185,0.017228 v 0.071844 c 0,0.039517 0.00353,0.1314183 0.00785,0.2042273 l 0.00785,0.1323797 0.014951,0.055762 c 0.014874,0.055452 0.027403,0.076638 0.053634,0.090677 l 0.013727,0.00733 0.014271,-0.012917 0.014271,-0.012917 -8.707e-4,-0.1309726 c -4.786e-4,-0.072034 -0.00302,-0.1921643 -0.00561,-0.2669505 l -0.00475,-0.1359753 0.00629,-0.018763 0.00629,-0.018763 0.016038,0.00475 c 0.00881,0.00259 0.020435,0.010269 0.025808,0.017021 l 0.00977,0.012278 -0.00432,0.029774 c -0.00241,0.016374 -9.508e-4,0.1285934 0.0031,0.2493705 l 0.00741,0.2195946 -0.00629,0.039872 -0.00629,0.03988 -0.021462,0.017547 -0.021453,0.017547 -0.033498,2.189e-4 -0.033499,2.191e-4 -0.019928,-0.013141 z m 1.4465297,-0.00595 c -0.01177,-0.025834 -0.00561,-0.032939 0.028696,-0.032939 h 0.028921 l 0.020108,-0.017297 0.020108,-0.017297 0.0088,-0.044115 0.00881,-0.044113 -0.00836,-0.044666 -0.00836,-0.044666 -0.047253,-0.096771 -0.047252,-0.09677 -0.00353,-0.053374 c -0.00475,-0.070318 0.00138,-0.098533 0.027238,-0.1268793 l 0.021419,-0.023454 0.026963,-0.00509 0.026963,-0.00509 0.019073,0.012494 0.019073,0.012502 -0.00845,0.010192 c -0.00465,0.00561 -0.018383,0.012374 -0.030524,0.015038 l -0.022066,0.00483 -0.011727,0.0179 -0.011727,0.0179 0.00276,0.054624 0.00276,0.054624 0.05096,0.1034988 0.05096,0.103499 0.00379,0.070835 0.00379,0.070835 -0.00873,0.032033 -0.00873,0.032033 -0.029386,0.029386 -0.029386,0.029386 h -0.043474 -0.043467 z m 0.4267192,0.00405 -0.013675,-0.015115 -0.00595,-0.049624 c -0.00327,-0.02729 -0.01083,-0.064877 -0.016771,-0.083519 -0.00595,-0.018643 -0.014495,-0.052314 -0.019014,-0.074836 l -0.00819,-0.04094 -0.021583,-0.026058 -0.021583,-0.026059 -0.00976,0.00969 -0.00977,0.00969 0.00208,0.1317415 0.00208,0.1317425 -0.00664,0.0099 -0.00664,0.0099 -0.021522,-0.00241 -0.021522,-0.00241 V 2.4568269 c 0,-0.065507 0.00189,-0.1526 0.00413,-0.1935413 0.00234,-0.04094 5.139e-4,-0.1175522 -0.00397,-0.1702454 l -0.00811,-0.095808 0.00785,-0.015848 c 0.00432,-0.00872 0.01472,-0.01684 0.023082,-0.018056 l 0.015211,-0.00224 0.00879,0.019297 c 0.00483,0.010614 0.00884,0.035052 0.00891,0.054306 5.94e-5,0.019254 0.00336,0.040036 0.00733,0.046174 l 0.00724,0.011166 0.018944,-0.022333 c 0.010416,-0.012278 0.027023,-0.039078 0.036897,-0.059548 0.030266,-0.062756 0.041527,-0.07156 0.071223,-0.05566 l 0.014219,0.00759 -0.015676,0.035189 c -0.00862,0.019358 -0.019211,0.041888 -0.023523,0.05008 -0.00432,0.00819 -0.01239,0.024937 -0.017935,0.037215 -0.00551,0.012287 -0.016659,0.034724 -0.024687,0.049856 l -0.01459,0.027532 3.269e-4,0.0283 c 1.802e-4,0.015564 0.00543,0.041699 0.011658,0.058073 0.00621,0.016374 0.016443,0.048201 0.022687,0.070715 0.00621,0.022523 0.014305,0.044519 0.0179,0.048891 0.00362,0.00439 0.010399,0.026145 0.015107,0.048382 0.00475,0.022238 0.012796,0.048804 0.01797,0.05904 0.00517,0.010235 0.013348,0.037707 0.018159,0.061057 l 0.00875,0.042442 -0.00819,0.015245 c -0.010339,0.019323 -0.023928,0.019367 -0.041337,1.327e-4 z M 4.3233902,2.594742 C 4.2937453,2.5766687 4.2799573,2.5504643 4.2614535,2.477033 L 4.2469588,2.4195108 4.2468441,2.2239484 4.2467303,2.0283868 4.2659678,1.9993202 c 0.020531,-0.031033 0.049054,-0.048063 0.094606,-0.056496 l 0.028239,-0.00526 0.03362,0.012839 0.03362,0.012839 -0.012624,0.013944 -0.012624,0.013943 -0.03694,-8.321e-4 -0.03694,-8.321e-4 -0.021445,0.021462 -0.021445,0.021462 -0.00664,0.037215 c -0.00362,0.020471 -0.00612,0.1092399 -0.00543,0.1972636 l 0.00121,0.160043 0.016564,0.049692 0.016564,0.049693 0.022281,0.018746 0.022281,0.018746 0.024118,-0.00811 c 0.013261,-0.00449 0.028412,-0.011477 0.033672,-0.015598 l 0.00956,-0.0075 0.017961,0.00961 c 0.00988,0.00526 0.019591,0.013865 0.021591,0.019056 l 0.00362,0.00945 -0.027825,0.019281 -0.027825,0.01928 -0.04426,-3.03e-5 -0.04426,-2.92e-5 -0.023832,-0.014528 z M 5.4026765,2.592152 C 5.3684015,2.568729 5.3505265,2.542517 5.3403165,2.500724 5.3354065,2.480608 5.3280815,2.457698 5.3240455,2.449799 l -0.00733,-0.014357 8.623e-4,-0.1605784 8.622e-4,-0.1605785 0.017332,-0.055832 0.017332,-0.055832 0.021815,-0.02354 0.021815,-0.02354 0.032007,-0.00845 c 0.032585,-0.00864 0.060634,-0.00475 0.069921,0.00979 0.00733,0.011451 -0.00785,0.027126 -0.026541,0.02736 -0.00871,1.103e-4 -0.026816,0.00933 -0.040225,0.02047 l -0.024393,0.020271 -0.011606,0.04094 c -0.00638,0.022522 -0.014908,0.059367 -0.018953,0.081881 l -0.00733,0.04094 0.00285,0.1339905 0.00285,0.1339895 0.012546,0.022333 c 0.0069,0.012279 0.012564,0.026222 0.012589,0.030973 2.15e-5,0.00475 0.010347,0.017315 0.022944,0.027911 l 0.022902,0.019271 h 0.024324 0.024324 l 0.012796,-0.014141 c 0.013615,-0.015037 0.017357,-0.046089 0.0088,-0.073026 l -0.00517,-0.016374 -0.025136,-0.00908 c -0.025402,-0.00918 -0.036353,-0.027238 -0.02635,-0.043442 0.00776,-0.012486 0.059634,-0.017884 0.083502,-0.00868 l 0.020074,0.00776 0.00379,0.024531 c 0.00208,0.013495 0.00785,0.0519 0.012814,0.085347 L 5.589113,2.5709221 5.57699,2.5894271 5.564867,2.6079321 5.495722,2.6082176 5.426577,2.608503 5.402666,2.592164 Z M 6.152053,2.593872 C 6.147483,2.585332 6.145583,2.573643 6.147823,2.567813 l 0.00405,-0.010588 h 0.025808 c 0.014193,0 0.034051,-0.00311 0.044131,-0.00699 L 6.240143,2.543245 6.256991,2.492621 6.273839,2.441997 6.260526,2.389796 C 6.253205,2.3610969 6.227631,2.297104 6.2036856,2.247601 6.1797401,2.198098 6.1563729,2.139995 6.1517595,2.118484 l -0.00836,-0.039112 0.00483,-0.038629 0.00483,-0.03863 0.024885,-0.027162 0.024885,-0.027171 0.026765,-0.005 0.026765,-0.005 0.022591,0.014305 0.022591,0.014305 -0.036706,0.01659 c -0.020186,0.00912 -0.040759,0.021471 -0.0457,0.027429 l -0.009,0.010839 4.906e-4,0.052149 4.906e-4,0.05215 0.045743,0.093533 c 0.075251,0.1538614 0.087651,0.2187729 0.058204,0.3045815 l -0.01597,0.046545 -0.030179,0.019565 -0.030179,0.019573 h -0.03919 -0.03919 l -0.00827,-0.015459 z M 6.914724,2.581429 C 6.908084,2.566072 6.896659,2.51481 6.889252,2.4675052 6.881842,2.4202012 6.872308,2.3682792 6.868067,2.3521251 6.863837,2.3359751 6.858197,2.3009841 6.855564,2.2743651 6.852894,2.2477551 6.846064,2.2058841 6.840302,2.1813161 6.834532,2.1567501 6.82485,2.0981851 6.818762,2.0511766 l -0.011054,-0.085477 0.011029,-0.011029 0.011029,-0.011029 0.010089,0.010899 c 0.016211,0.017512 0.03268,0.067257 0.038164,0.1152474 0.00276,0.024488 0.00951,0.064627 0.014908,0.089192 0.00543,0.024565 0.013736,0.064765 0.018521,0.089326 0.011736,0.060221 0.015029,0.070715 0.022221,0.070715 0.011993,0 0.029343,-0.1051502 0.04545,-0.2754239 0.00889,-0.094008 0.011822,-0.1009001 0.039914,-0.09385 l 0.019151,0.00483 -1.819e-4,0.035215 c -10e-5,0.019367 -0.00327,0.048615 -0.00707,0.064989 -0.00379,0.016374 -0.01046,0.073319 -0.014874,0.1265456 -0.00439,0.053227 -0.012805,0.1218935 -0.018643,0.1525998 -0.00587,0.030706 -0.014331,0.09236 -0.018874,0.1370067 l -0.00828,0.081182 -0.014598,0.02862 c -0.018254,0.035785 -0.025851,0.035914 -0.040993,7.045e-4 z M 2.0824194,2.577549 2.0656654,2.569879 V 2.2660069 1.9621368 l 0.020565,-0.010631 0.020565,-0.010631 0.029687,0.01033 c 0.016323,0.00569 0.030231,0.010382 0.030912,0.010442 6.734e-4,5.94e-5 0.010502,0.016021 0.02185,0.035474 l 0.020625,0.035362 7.52e-5,0.049598 c 3.69e-5,0.027283 -0.00346,0.054073 -0.00785,0.059548 -0.00439,0.00543 -0.012141,0.027955 -0.017306,0.04996 l -0.00938,0.04 0.00475,0.045597 c 0.00457,0.044442 0.020358,0.1001473 0.051839,0.1833131 l 0.015495,0.04094 2.924e-4,0.037215 2.914e-4,0.037224 -0.01997,0.00234 -0.01997,0.00234 -0.00699,-0.013477 c -0.00379,-0.00741 -0.00928,-0.034689 -0.012106,-0.060609 -0.00285,-0.025928 -0.011468,-0.059419 -0.019211,-0.074439 -0.00776,-0.015012 -0.017823,-0.037353 -0.022419,-0.049632 l -0.00836,-0.022333 -0.00845,0.014892 -0.00845,0.014891 -0.0031,0.091017 -0.00311,0.091018 -0.00845,0.00673 -0.00845,0.00673 -0.016746,-0.00767 z m 0.055176,-0.513441 c -0.00208,-0.00509 -0.00379,-9.508e-4 -0.00379,0.00931 0,0.010235 0.00172,0.014426 0.00379,0.00931 0.00208,-0.00509 0.00208,-0.013495 0,-0.018608 z m 0.1903957,0.5136281 -0.0075,-0.00931 -0.00353,-0.2828679 -0.00353,-0.2828679 0.010295,-0.02047 0.010295,-0.02047 h 0.029067 0.029067 l 0.024885,0.016521 c 0.013684,0.00908 0.033059,0.026394 0.043044,0.038449 l 0.018159,0.021928 0.00301,0.046891 0.00301,0.046891 -0.026843,0.051874 -0.026851,0.051874 0.024479,0.032129 c 0.030955,0.040631 0.046916,0.080561 0.053607,0.1340827 l 0.00526,0.042131 -0.019832,0.043311 C 2.4567821,2.569307 2.3623571,2.6204161 2.3280199,2.577716 Z m 0.1246512,-0.1602913 1.104e-4,-0.05422 -0.018469,-0.036449 c -0.022462,-0.04433 -0.026834,-0.04739 -0.047244,-0.033093 l -0.01603,0.011227 0.00483,0.101983 0.00483,0.1019839 0.011813,0.00915 0.011813,0.00915 0.024083,-0.027757 0.024083,-0.027757 1.112e-4,-0.054219 z m -0.0323,-0.2809018 c 0.021661,-0.07187 -0.00439,-0.1305009 -0.041571,-0.09337 L 2.3634222,2.058522 2.3635239,2.0976 c 5.95e-5,0.021496 0.00208,0.04639 0.00449,0.055323 l 0.00439,0.016245 0.019539,-0.00146 0.019539,-0.00146 0.00894,-0.029636 z M 2.729824,2.5782708 2.720734,2.5691808 V 2.5219428 2.4747083 L 2.7024564,2.4564362 2.6841852,2.4381651 H 2.6616888 2.6391923 L 2.628586,2.45491 C 2.622716,2.46412 2.615764,2.483382 2.613048,2.497713 2.610378,2.512044 2.602546,2.534653 2.595734,2.547957 L 2.583351,2.572152 H 2.570296 2.557241 L 2.553011,2.555208 C 2.550671,2.545888 2.556981,2.499833 2.566945,2.4528551 2.576948,2.4058781 2.587277,2.3473437 2.589907,2.3227794 2.596457,2.2617134 2.629408,2.1052774 2.65156,2.0301826 l 0.018237,-0.061833 0.018306,-0.00836 0.018306,-0.00836 0.011252,0.011253 0.011253,0.011252 0.010486,0.070085 c 0.00577,0.038543 0.014055,0.1220067 0.018419,0.1854653 0.00439,0.063463 0.011201,0.1420905 0.015201,0.174736 0.00397,0.032646 0.00724,0.085407 0.00724,0.1172418 v 0.057884 H 2.769706 c -0.00577,0 -0.015115,0.00172 -0.020677,0.00388 -0.00561,0.00215 -0.014219,-2.078e-4 -0.01922,-0.00517 z M 2.713156,2.3826817 2.719106,2.3670227 2.708508,2.3056807 C 2.685279,2.171173 2.6679732,2.1743737 2.6459941,2.3172475 l -0.00828,0.054013 0.015977,0.025851 0.015977,0.025851 0.01878,-0.012304 c 0.01033,-0.00673 0.021462,-0.019349 0.024739,-0.027963 z m 0.1496371,0.1945656 -0.00811,-0.00811 v -0.089355 c 0,-0.049149 -0.00397,-0.1252565 -0.00887,-0.1691339 l -0.00887,-0.079776 0.00819,-0.1304328 0.00819,-0.1304327 0.010899,-0.015556 0.010899,-0.015555 0.022324,0.025428 0.022324,0.025428 0.00535,0.028783 c 0.00293,0.015832 0.00836,0.032353 0.011917,0.036706 0.00362,0.00439 0.011235,0.028049 0.016977,0.05265 0.00577,0.024601 0.013831,0.051185 0.017978,0.059074 0.00413,0.00785 0.00974,0.02942 0.012409,0.047839 0.012719,0.087565 0.022884,0.1069083 0.044717,0.085071 l 0.011701,-0.011701 V 2.1247881 1.9613943 l 0.018815,-0.00854 0.018815,-0.00854 0.00854,0.00854 0.00854,0.00854 -0.00172,0.2923899 c -9.561e-4,0.1608147 -0.00354,0.299927 -0.00578,0.3091386 l -0.00405,0.016745 h -0.016892 c -0.025661,0 -0.034525,-0.017392 -0.070697,-0.1387605 -0.0075,-0.025144 -0.016848,-0.051943 -0.02078,-0.059548 -0.00397,-0.00759 -0.00943,-0.027238 -0.01221,-0.043613 -0.00276,-0.016374 -0.015573,-0.054107 -0.02842,-0.083847 l -0.023367,-0.054064 -0.00716,0.00716 c -0.013323,0.013323 -0.014081,0.1153767 -0.00172,0.2338559 l 0.012278,0.1179789 -0.00802,0.00962 c -0.011364,0.013684 -0.034603,0.018367 -0.044087,0.00888 z m 0.9920886,0.00241 -0.015934,-0.00647 -0.0032,-0.3038806 -0.0032,-0.3038804 0.00972,-0.010769 0.00972,-0.010769 0.040795,-3.957e-4 0.040795,-3.967e-4 0.012502,0.012486 0.012502,0.012486 -0.026505,0.01108 c -0.014581,0.00613 -0.030188,0.017961 -0.034689,0.026368 l -0.00819,0.015297 7.865e-4,0.093906 7.863e-4,0.093905 0.024609,0.014521 c 0.013538,0.00802 0.02635,0.021178 0.028481,0.029317 l 0.00388,0.014796 -0.025402,0.010614 -0.025402,0.010614 -6.855e-4,0.02085 c -3.767e-4,0.011468 -9.508e-4,0.063368 -0.00129,0.115331 l -5.829e-4,0.09448 0.00898,0.010813 c 0.00491,0.00595 0.019996,0.012882 0.033472,0.015409 0.013469,0.0025 0.030938,0.00933 0.038819,0.015107 l 0.014323,0.01052 -0.020953,0.00802 c -0.024695,0.00942 -0.091364,0.0098 -0.114078,6.268e-4 z m 0.2516796,-0.00267 -0.00673,-0.00854 -0.00491,-0.2717024 -0.00491,-0.2717016 -0.016582,-0.01271 c -0.00912,-0.00699 -0.026152,-0.020108 -0.037854,-0.029145 l -0.021272,-0.016435 0.017694,-0.00927 c 0.00974,-0.00509 0.044433,-0.011519 0.077103,-0.014262 l 0.059402,-0.005 0.014891,0.011718 0.014892,0.011718 -0.023445,0.020531 c -0.012891,0.011287 -0.026386,0.02723 -0.029989,0.035413 l -0.00655,0.014892 0.00483,0.137712 c 0.00267,0.075742 0.0075,0.1936869 0.010675,0.2621011 l 0.00587,0.1243882 -0.00884,0.010657 c -0.01221,0.01471 -0.036198,0.019927 -0.044311,0.00964 z m 0.4691006,-0.00215 c -0.00413,-0.00776 -0.012684,-0.039138 -0.01897,-0.069766 l -0.011434,-0.055685 -0.00465,-0.2419266 -0.00465,-0.2419257 0.00716,-0.010313 0.00716,-0.010313 0.018547,0.00465 0.018547,0.00465 0.00543,0.1359245 c 0.00569,0.1421182 0.0098,0.1619789 0.033602,0.1619789 h 0.014452 l 0.012848,-0.019617 0.012855,-0.019617 -0.00146,-0.1246442 -0.00146,-0.1246444 0.01152,-0.00957 0.011519,-0.00957 0.010131,0.010528 c 0.015555,0.016168 0.038043,0.3996664 0.032482,0.5539305 l -0.00241,0.066998 -0.023126,0.00224 -0.023126,0.00224 -0.00483,-0.03493 c -0.00267,-0.019211 -0.00483,-0.084036 -0.00483,-0.1440591 V 2.2922966 l -0.00893,-0.00894 c -0.00491,-0.00491 -0.018194,-0.00893 -0.029515,-0.00893 h -0.020582 l -0.00776,0.014477 -0.00776,0.014477 0.00802,0.1280917 0.00802,0.1280916 -0.014658,0.014658 -0.014659,0.014659 z m 0.2154601,0.00432 -0.017617,-0.00707 0.031076,-0.033715 0.031077,-0.033715 -0.00483,-0.072284 C 4.8281579,2.392612 4.8229836,2.3316095 4.8193008,2.2968092 4.8155939,2.2620084 4.8125723,2.1862543 4.8124855,2.1284651 L 4.8124282,2.023394 4.7988044,2.0056399 c -0.0075,-0.00976 -0.015806,-0.023721 -0.01847,-0.031016 l -0.00483,-0.013261 0.017288,-0.00655 c 0.00951,-0.00362 0.033025,-0.00893 0.052253,-0.011813 l 0.034974,-0.00526 0.014753,0.013348 0.014745,0.013348 -0.020281,0.021169 -0.02028,0.021168 -0.00293,0.046399 c -0.00164,0.025514 0.00259,0.1365074 0.00931,0.2466449 l 0.012244,0.2002496 0.00819,0.015624 c 0.00449,0.00862 0.014624,0.023885 0.022471,0.033981 l 0.014253,0.018357 -0.013063,0.00956 -0.013063,0.00956 -0.048821,-4.717e-4 c -0.026851,-2.596e-4 -0.056755,-0.00362 -0.066446,-0.0075 z m 0.2163724,-9.508e-4 -0.00893,-0.00894 5.26e-5,-0.056203 C 4.9986464,2.4821515 4.994647,2.407991 4.989797,2.3482591 L 4.980917,2.2396565 4.989107,2.103532 4.997297,1.9674066 5.009145,1.9555586 5.020993,1.9437106 5.036479,1.9591886 c 0.023575,0.023575 0.064342,0.1433116 0.097212,0.2855237 0.016486,0.071318 0.021867,0.080449 0.03681,0.062463 l 0.010476,-0.012615 0.0025,-0.1691581 0.0025,-0.169158 0.019332,-0.0088 0.019332,-0.0088 0.00733,0.013133 0.00733,0.013133 -0.00181,0.3015894 C 5.2354896,2.596842 5.2371427,2.579694 5.2075998,2.579694 H 5.1867188 L 5.1674818,2.525724 C 5.1569018,2.496044 5.1443988,2.456682 5.1396988,2.438259 5.1350488,2.419832 5.1286878,2.401415 5.1256698,2.397319 5.1226598,2.393269 5.1160098,2.370485 5.1109078,2.346781 5.1058178,2.323078 5.0915668,2.281481 5.0792538,2.254335 l -0.022376,-0.049348 -0.00638,0.010321 c -0.00353,0.00569 -0.00862,0.031205 -0.011348,0.05672 l -0.005,0.046398 0.00836,0.072939 c 0.00457,0.040122 0.00893,0.095988 0.00963,0.1241563 l 0.00129,0.051211 -0.013951,0.010201 c -0.017063,0.012477 -0.020591,0.012615 -0.031947,0.00129 z m 0.7973892,0.00146 -0.016228,-0.00655 -0.00388,-0.032068 C 5.782623,2.5233917 5.779003,2.416846 5.7767537,2.3042571 5.7745141,2.1916683 5.7691661,2.0761019 5.7649581,2.0474436 c -0.00423,-0.028662 -0.00577,-0.059867 -0.00346,-0.069344 l 0.00432,-0.017237 0.025549,-0.010675 c 0.014055,-0.00587 0.035293,-0.010676 0.047208,-0.010676 h 0.02166 l 0.00998,0.01202 0.00998,0.01202 -0.018367,0.01365 c -0.010105,0.0075 -0.02423,0.018849 -0.031395,0.025204 l -0.013029,0.011546 6.372e-4,0.027911 c 3.51e-4,0.015357 0.00457,0.059738 0.00931,0.098631 l 0.00867,0.070714 0.023591,0.011166 0.023591,0.011166 0.00327,0.016642 0.00327,0.016643 -0.02686,0.013141 -0.026859,0.013133 3.855e-4,0.033499 c 2.112e-4,0.018427 0.00259,0.080174 0.00535,0.1372144 l 0.005,0.1037162 -0.00811,0.0098 c -0.00927,0.011166 -0.01139,0.011313 -0.033706,0.00234 z m 0.171644,1.603e-4 C 5.9527796,2.5702368 5.9521086,2.5611778 5.9520906,2.250328 l -2.24e-5,-0.2884373 0.021617,-0.011175 c 0.026895,-0.013908 0.067188,-0.014426 0.085416,-0.00112 l 0.013796,0.010089 -0.00465,0.012244 c -0.00259,0.00673 -0.010986,0.012244 -0.018668,0.012244 -0.00767,0 -0.019617,0.00621 -0.026506,0.013857 l -0.012546,0.013857 0.00208,0.099659 0.00208,0.09966 0.023591,0.011166 0.023591,0.011166 0.00336,0.017142 0.00336,0.017142 -0.026954,0.012684 -0.026954,0.012684 -0.00208,0.1061341 -0.00208,0.106134 0.00785,0.014624 0.00785,0.014624 0.040621,0.011813 c 0.022341,0.00647 0.042355,0.014615 0.044475,0.018038 0.010848,0.017556 -0.098418,0.029921 -0.1347483,0.015245 z m 0.507011,-0.00181 c -0.00811,-0.00439 -0.015935,-0.00889 -0.017315,-0.010003 -0.00138,-0.00112 -0.00405,-0.1220496 -0.00603,-0.268743 l -0.00353,-0.2667142 -0.01089,-0.016745 c -0.00595,-0.00921 -0.017331,-0.016746 -0.025187,-0.016746 -0.015762,0 -0.040578,-0.029783 -0.031818,-0.038173 0.00759,-0.00724 0.087689,-0.021376 0.1211081,-0.021376 h 0.027257 l 0.012011,0.013271 0.012012,0.013271 -0.026816,0.021393 -0.026817,0.021393 0.00535,0.2803069 0.00535,0.280307 -0.00996,0.00828 -0.00996,0.00828 -0.014806,-0.00793 z m 0.1351968,-3.113e-4 -0.012882,-0.00942 0.026532,-0.025722 0.026532,-0.025722 -0.00483,-0.2421456 -0.00483,-0.2421465 -0.021574,-0.033189 -0.021574,-0.033189 0.020134,-0.010546 c 0.011072,-0.00577 0.037776,-0.010967 0.059341,-0.011468 l 0.039208,-9.509e-4 0.00895,0.00893 0.00895,0.00893 -0.024376,0.027757 -0.024376,0.027757 0.00543,0.1010302 c 0.00293,0.055564 0.00785,0.1650734 0.010804,0.2433493 l 0.00543,0.1423181 0.02729,0.033309 0.02729,0.033309 -0.0189,0.00862 c -0.010399,0.00475 -0.041553,0.00862 -0.069231,0.00862 h -0.05033 l -0.012882,-0.00942 z m 0.6304421,0.00198 -0.016047,-0.00647 -0.005,-0.022652 c -0.00276,-0.01246 -0.00293,-0.026023 -3.398e-4,-0.030145 0.00259,-0.00413 0.00241,-0.019401 -3.268e-4,-0.033939 l -0.005,-0.026446 -0.022255,-0.011512 -0.022255,-0.011512 -0.017676,0.00439 -0.017677,0.00439 -0.010079,0.020367 c -0.00551,0.011201 -0.014133,0.039267 -0.019099,0.062368 l -0.00902,0.042 -0.018789,0.00362 -0.018789,0.00362 -0.00716,-0.01878 -0.00716,-0.01878 0.011736,-0.035327 c 0.00647,-0.019427 0.01822,-0.075043 0.026152,-0.1235863 0.036077,-0.2208268 0.065308,-0.3506206 0.089136,-0.3958672 l 0.016952,-0.03218 0.019419,0.00491 c 0.025808,0.00647 0.023092,-9.508e-4 0.034594,0.094221 0.021928,0.1813065 0.025152,0.2157249 0.033482,0.3571075 l 0.00862,0.1461871 -0.00845,0.01572 c -0.00923,0.017237 -0.011563,0.017797 -0.035103,0.00828 z m -0.035181,-0.1826897 0.012383,-0.018901 -0.00509,-0.06736 C 7.2119538,2.1870525 7.2077028,2.180106 7.1776441,2.2394654 l -0.01997,0.039449 -0.00465,0.051736 -0.00465,0.051745 0.015909,0.016745 c 0.020669,0.021764 0.034422,0.021169 0.049701,-0.00215 z m 0.1699057,0.1829629 -0.015314,-0.00621 -0.00908,-0.3020042 -0.00908,-0.3020042 0.0091,-0.014572 0.0091,-0.014572 0.020884,0.010804 0.020884,0.010804 7.42e-5,0.027722 c 3.319e-4,0.1250745 0.00886,0.4942814 0.011874,0.5138815 l 0.00379,0.024635 0.032257,0.013832 c 0.039173,0.016788 0.046442,0.026696 0.027152,0.037017 -0.017142,0.00917 -0.079605,0.00959 -0.1016201,6.71e-4 z M 7.2676788,1.6797521 7.2403531,1.6752671 7.2081306,1.6458379 c -0.01772,-0.016185 -0.047296,-0.041018 -0.065722,-0.055176 -0.018427,-0.014159 -0.040199,-0.031835 -0.048382,-0.039285 -0.024652,-0.022411 -0.053357,-0.046545 -0.071861,-0.060411 -0.00961,-0.00724 -0.027515,-0.020979 -0.039802,-0.03062 -0.012278,-0.00964 -0.060851,-0.043666 -0.1079361,-0.075604 -0.04708,-0.031947 -0.087279,-0.060281 -0.089327,-0.06298 -0.00208,-0.00267 -0.018798,-0.013003 -0.037215,-0.022893 -0.018427,-0.00989 -0.043545,-0.024721 -0.055832,-0.032965 -0.012287,-0.00828 -0.027636,-0.018314 -0.034112,-0.022402 -0.00647,-0.00405 -0.043096,-0.02836 -0.081372,-0.053952 -0.038276,-0.025592 -0.076914,-0.046528 -0.085847,-0.046528 -0.00894,0 -0.024238,-0.00621 -0.034007,-0.013865 -0.00976,-0.00759 -0.02529,-0.016228 -0.034499,-0.019108 -0.00921,-0.00284 -0.016746,-0.00969 -0.016746,-0.015115 0,-0.012598 -0.018512,-0.019806 -0.035362,-0.013762 l -0.013029,0.00466 0.00561,-0.00621 c 0.00741,-0.00819 -0.031059,-0.033266 -0.051167,-0.033335 -0.00866,-3.02e-5 -0.024669,-0.00707 -0.035577,-0.01565 -0.010908,-0.00862 -0.024479,-0.013813 -0.030162,-0.011632 l -0.01033,0.00397 -0.00439,-0.011468 -0.00439,-0.011468 -0.011106,0.00423 c -0.00613,0.00233 -0.011106,0.00147 -0.011106,-0.00207 0,-0.009847 -0.042708,-0.0250919 -0.052805,-0.0188491 l -0.00905,0.005605 0.005,-0.008019 0.005,-0.008019 -0.016858,-0.005967 C 6.1264785,0.9636648 6.1155455,0.9606038 6.1114495,0.9601468 6.1073995,0.959686 6.0889355,0.9525848 6.0705095,0.9443742 6.0520825,0.9361562 6.0236105,0.9250741 6.0072355,0.9197383 5.9908605,0.9144013 5.9707605,0.9056833 5.9625695,0.9003631 5.9543595,0.8950441 5.9451065,0.8907811 5.9419675,0.8908911 5.9268175,0.89142484 5.8866005,0.8795583 5.8741075,0.8708683 5.8608956,0.86166974 5.7358992,0.82070038 5.620144,0.78761599 5.5705811,0.77344893 5.4398307,0.74313499 5.3596079,0.7272081 5.3391377,0.72314688 5.3073112,0.71642198 5.2888933,0.71227021 5.2562568,0.70491523 5.1979305,0.69638378 4.9762505,0.66653552 4.9168836,0.65854244 4.8438319,0.64839422 4.8139096,0.64398461 l -0.0544,-0.008019 -0.1949666,0.002811 -0.1949657,0.002811 -0.1042145,0.0160994 c -0.057315,0.008854 -0.1544607,0.0229769 -0.2158723,0.0313822 -0.061411,0.008407 -0.1284072,0.0186406 -0.1488784,0.022744 -0.02047,0.004105 -0.05397,0.0107964 -0.074439,0.0148723 -0.088507,0.0176221 -0.2116851,0.0470074 -0.2512606,0.0599406 -0.023557,0.0077 -0.050356,0.0140713 -0.059548,0.0141611 -0.00919,8.993e-5 -0.030154,0.006268 -0.046571,0.0137247 -0.016417,0.007458 -0.043217,0.0160364 -0.059548,0.019063 -0.016341,0.003026 -0.03975,0.009987 -0.052029,0.0154674 -0.012279,0.005484 -0.041423,0.0152966 -0.064756,0.0218128 -0.023333,0.006519 -0.044468,0.0151527 -0.046968,0.0191931 -0.0025,0.004044 -0.00963,0.007346 -0.015858,0.007346 -0.011736,0 -0.088516,0.0287575 -0.1404031,0.0525889 -0.016374,0.007519 -0.0549,0.0242823 -0.085606,0.0372474 C 2.9427074,1.012952 2.7615411,1.1024381 2.7021481,1.136145 c -0.02047,0.011615 -0.04727,0.02642 -0.059548,0.032895 -0.012279,0.00647 -0.037405,0.021634 -0.055832,0.03368 -0.018427,0.012046 -0.041268,0.025325 -0.050753,0.029507 -0.00949,0.00414 -0.028231,0.01597 -0.041647,0.026204 -0.013416,0.010235 -0.028093,0.0186 -0.03262,0.0186 -0.00457,0 -0.010908,0.00423 -0.014185,0.00931 -0.00327,0.00509 -0.014874,0.014331 -0.025781,0.02047 -0.024428,0.013753 -0.098881,0.063954 -0.1290496,0.087014 -0.012279,0.00939 -0.029033,0.021979 -0.037215,0.027981 -0.00819,0.00603 -0.024937,0.018858 -0.037224,0.028575 -0.012278,0.00971 -0.045778,0.035517 -0.074439,0.057341 -0.049598,0.037776 -0.061471,0.047589 -0.091279,0.075423 -0.00716,0.00664 -0.034059,0.029533 -0.059876,0.050865 l -0.046941,0.038793 -0.068438,0.00397 c -0.037638,0.00215 -0.079571,9.508e-4 -0.093176,-0.00259 l -0.024747,-0.00656 0.066955,-0.064816 c 0.036828,-0.035646 0.0807,-0.071982 0.097501,-0.080734 0.016797,-0.00876 0.073388,-0.056573 0.125748,-0.1062625 l 0.095204,-0.09034 0.051632,-0.025498 c 0.028395,-0.014021 0.065033,-0.036215 0.081407,-0.049321 0.016374,-0.013106 0.041337,-0.029705 0.055461,-0.036879 0.014133,-0.00716 0.030524,-0.017892 0.036431,-0.023799 0.00995,-0.00995 0.041509,-0.029654 0.1227783,-0.076656 0.017694,-0.010235 0.046571,-0.028127 0.064152,-0.039768 0.017591,-0.011641 0.08766,-0.04958 0.1557187,-0.0843126 0.068059,-0.0347348 0.1287651,-0.065954 0.134907,-0.0693756 0.00613,-0.003423 0.048011,-0.023396 0.093048,-0.0443861 0.045036,-0.0209911 0.094271,-0.0447318 0.1094115,-0.0527588 0.015141,-0.008028 0.035293,-0.0145938 0.044778,-0.0145938 0.00949,0 0.028921,-0.006234 0.043191,-0.0138463 0.014271,-0.007614 0.034318,-0.0163857 0.044554,-0.0194898 0.010235,-0.003105 0.023867,-0.0102446 0.030292,-0.0158674 0.00647,-0.005621 0.029015,-0.0135099 0.050201,-0.0175281 0.021186,-0.004018 0.04608,-0.0120908 0.055314,-0.0179413 0.00924,-0.005846 0.028515,-0.0129685 0.042846,-0.0158192 0.014331,-0.002855 0.039449,-0.0112069 0.055832,-0.0185698 0.016374,-0.007364 0.049874,-0.0166969 0.074439,-0.020741 0.024565,-0.004044 0.053037,-0.009535 0.063274,-0.012201 0.010235,-0.002664 0.037034,-0.00832 0.059548,-0.0125633 0.022523,-0.004242 0.056013,-0.0129047 0.07444,-0.0192475 0.033361,-0.0114845 0.045459,-0.014418 0.083036,-0.02014 0.010874,-0.001656 0.037673,-0.007993 0.059549,-0.01408 0.058928,-0.0163987 0.087197,-0.0215145 0.1345086,-0.0243436 0.023437,-0.001406 0.04939,-0.006174 0.05766,-0.0106007 0.00828,-0.004432 0.044657,-0.00908 0.080855,-0.0103377 0.036198,-0.001259 0.069386,-0.004501 0.073767,-0.007201 0.017832,-0.0110198 0.3637745,-0.0196097 0.3802274,-0.009441 l 0.00877,0.005416 v -0.008476 -0.008476 l 0.024195,0.005475 c 0.013304,0.00301 0.059367,0.006545 0.1023538,0.007847 0.097273,0.002949 0.1983656,0.00826 0.2568136,0.0134988 0.024565,0.002198 0.068111,0.005725 0.096771,0.007838 0.08333,0.006131 0.1745058,0.0174946 0.1831319,0.022826 0.00293,0.001811 0.024057,0.003725 0.046951,0.004251 0.022893,5.277e-4 0.041621,0.003406 0.041621,0.00639 0,0.002993 0.00836,0.003829 0.018651,0.001862 0.010261,-0.001958 0.022815,-3.9269e-4 0.027911,0.003484 0.00509,0.003881 0.02197,0.007735 0.037509,0.00858 0.024755,0.001337 0.063713,0.007778 0.1131881,0.0187155 0.00819,0.001811 0.030472,0.008638 0.049512,0.0151733 0.019047,0.006535 0.039984,0.009827 0.046528,0.00732 0.00655,-0.002509 0.0119,-0.001699 0.011908,0.001811 7.7e-6,0.003509 0.014245,0.006829 0.031636,0.007381 0.046942,0.001483 0.1588168,0.0356194 0.2400528,0.0732393 0.012279,0.005691 0.030706,0.012646 0.04094,0.0154614 0.016219,0.004458 0.045174,0.0161296 0.1004922,0.0404912 0.057712,0.0254137 0.085606,0.0358419 0.085606,0.0319996 0,-0.002449 0.00587,3.8405e-4 0.013029,0.006304 0.00716,0.005915 0.033965,0.0204513 0.059549,0.032298 0.025591,0.0118466 0.046528,0.024472 0.046528,0.0280548 0,0.003587 0.00311,0.004587 0.0069,0.002234 0.00379,-0.002354 0.0088,-0.001241 0.011106,0.002466 0.00234,0.003717 0.02179,0.0159235 0.043312,0.027133 0.021531,0.0112095 0.04082,0.0227544 0.042862,0.0256558 0.00208,0.002897 0.024661,0.0114786 0.050244,0.0190604 0.025591,0.00758 0.046528,0.01706 0.046528,0.0210618 0,0.003967 0.00208,0.005174 0.00457,0.002673 0.00457,-0.00457 0.077509,0.0314901 0.097853,0.0483733 0.00587,0.00491 0.01578,0.00964 0.021954,0.010554 0.00621,9.481e-4 0.018392,0.00802 0.027161,0.015857 0.00877,0.00785 0.036043,0.025256 0.060608,0.038759 0.024565,0.013503 0.056384,0.033577 0.070715,0.044614 0.023721,0.018271 0.080062,0.053202 0.1328212,0.082355 0.011313,0.00621 0.025419,0.015495 0.031343,0.020539 0.00595,0.00509 0.034215,0.025687 0.062877,0.045864 0.028662,0.020178 0.058806,0.043062 0.066998,0.050848 0.00819,0.00776 0.02661,0.022023 0.04094,0.031628 0.014331,0.00961 0.052073,0.038958 0.083872,0.065214 l 0.057815,0.047735 0.01096,-0.00423 0.010967,-0.00423 0.00457,0.018349 c 0.0025,0.010089 0.00759,0.018349 0.011244,0.018349 0.00362,0 0.00664,0.00465 0.00664,0.010295 0,0.00569 0.00673,0.012046 0.014892,0.014193 0.00819,0.00215 0.014891,0.00943 0.014891,0.016194 0,0.00673 0.00267,0.010657 0.00595,0.00865 0.00327,-0.00198 0.020547,0.011192 0.038423,0.029334 0.017884,0.018142 0.035318,0.03299 0.03875,0.03299 0.00346,0 0.00621,0.00449 0.00621,0.00987 0,0.00543 0.00863,0.017978 0.019178,0.027885 l 0.019177,0.018013 -0.017314,0.00483 c -0.02122,0.00595 -0.0822,0.00587 -0.1190817,-2.846e-4 z M 6.4352365,1.1020464 c 0,-0.00207 -0.00164,-0.00371 -0.00371,-0.00371 -0.00208,0 -0.00371,0.00164 -0.00371,0.00371 0,0.00207 0.00164,0.00371 0.00371,0.00371 0.00208,0 0.00371,-0.00164 0.00371,-0.00371 z M 6.3310219,1.0648309 c 0,-0.00207 0.00164,-0.00371 0.00371,-0.00371 0.00208,0 0.00371,0.00164 0.00371,0.00371 0,0.00207 -0.00164,0.00371 -0.00371,0.00371 -0.00208,0 -0.00371,-0.00164 -0.00371,-0.00371 z m -0.081881,-0.037224 c 0,-0.00207 0.00164,-0.00371 0.00371,-0.00371 0.00208,0 0.00371,0.00164 0.00371,0.00371 0,0.00207 -0.00164,0.00371 -0.00371,0.00371 -0.00208,0 -0.00371,-0.00164 -0.00371,-0.00371 z"
     id="path1901" />
</svg>
