<?xml version="1.0" encoding="UTF-8" standalone="no"?>
<svg
   xmlns:dc="http://purl.org/dc/elements/1.1/"
   xmlns:cc="http://creativecommons.org/ns#"
   xmlns:rdf="http://www.w3.org/1999/02/22-rdf-syntax-ns#"
   xmlns:svg="http://www.w3.org/2000/svg"
   xmlns="http://www.w3.org/2000/svg"
   xmlns:sodipodi="http://sodipodi.sourceforge.net/DTD/sodipodi-0.dtd"
   xmlns:inkscape="http://www.inkscape.org/namespaces/inkscape"
   width="79.375mm"
   height="24.867853mm"
   viewBox="0 0 79.375 24.867854"
   version="1.1"
   id="svg4831"
   inkscape:version="1.0.2 (1.0.2+r75+1)"
   sodipodi:docname="150Cretacolor.svg">
  <defs
     id="defs4825">
    <clipPath
       clipPathUnits="userSpaceOnUse"
       id="clipPath5446">
      <path
         d="M 0,612.288 H 810.708 V 0 H 0 Z"
         id="path5444" />
    </clipPath>
  </defs>
  <sodipodi:namedview
     id="base"
     pagecolor="#ffffff"
     bordercolor="#666666"
     borderopacity="1.0"
     inkscape:pageopacity="0.0"
     inkscape:pageshadow="2"
     inkscape:zoom="2.8"
     inkscape:cx="107.98259"
     inkscape:cy="86.673893"
     inkscape:document-units="mm"
     inkscape:current-layer="layer1"
     inkscape:document-rotation="0"
     showgrid="false"
     inkscape:snap-bbox="true"
     inkscape:snap-page="false"
     inkscape:bbox-nodes="false"
     fit-margin-top="0"
     fit-margin-left="0"
     fit-margin-right="0"
     fit-margin-bottom="0"
     inkscape:window-width="1920"
     inkscape:window-height="1031"
     inkscape:window-x="0"
     inkscape:window-y="0"
     inkscape:window-maximized="1" />
  <metadata
     id="metadata4828">
    <rdf:RDF>
      <cc:Work
         rdf:about="">
        <dc:format>image/svg+xml</dc:format>
        <dc:type
           rdf:resource="http://purl.org/dc/dcmitype/StillImage" />
        <dc:title></dc:title>
      </cc:Work>
    </rdf:RDF>
  </metadata>
  <g
     inkscape:label="Warstwa 1"
     inkscape:groupmode="layer"
     id="layer1">
    <g
       id="g5436"
       inkscape:label="Cretacolor Logo+Slogan - 1c Black"
       transform="matrix(0.1587354,0,0,-0.1587354,-24.656544,65.980527)"
       inkscape:export-xdpi="96"
       inkscape:export-ydpi="96">
      <path
         d="M 547.338,362.415 H 259.673 v 2.82 h 287.665 z"
         style="fill:#231f20;fill-opacity:1;fill-rule:nonzero;stroke:none"
         id="path5438" />
      <g
         id="g5440">
        <g
           id="g5442"
           clip-path="url(#clipPath5446)">
          <g
             id="g5448"
             transform="translate(316.876,397.4106)">
            <path
               d="m 0,0 c 3.344,1.576 6.339,2.698 9.448,4.793 l 0.726,0.145 3.824,2.841 0.116,0.524 c 1.687,1.649 1.085,0.901 2.165,2.326 1.07,0.891 0.711,0.369 1.313,1.415 1.918,2.02 1.314,0.827 2.03,3.3 -0.112,2.382 0.241,2.761 -3.112,2.909 L 12.567,17.884 C 3.469,16.012 0.359,13.996 -7.184,10.552 L -8.745,10.174 -8.98,10.33 -9.098,10.775 V 11.3 c 0,3.14 -0.236,6.206 -6.821,6.426 -6.341,-1.639 -9.216,-2.015 -14.609,-4.855 -4.3,-1.427 -1.311,-0.226 -8.254,-4.414 -5.383,-4.044 -9.568,-6.283 -10.293,-11.517 1.315,-1.497 1.315,-1.427 3.599,-1.649 l 2.151,0.676 h 0.956 l 1.557,0.148 c 2.384,0.746 3.711,1.491 3.711,1.871 0,0.143 -0.119,0.222 -0.601,0.222 l -4.31,-1.191 c -1.08,-0.156 -1.67,-0.224 -2.153,-0.224 -0.835,0 -1.079,0.289 -1.68,1.415 l 0.601,2.473 c 1.438,1.413 1.079,0.747 1.562,1.859 1.79,1.129 1.071,0.527 2.027,2.031 l 2.873,2.161 5.392,3.82 c 2.273,0.446 0.947,0.077 3.587,1.714 1.549,0.227 0.599,0.082 2.272,0.826 l 2.152,0.972 6.583,1.948 c 0.483,0.075 0.837,0.075 1.2,0.075 1.556,0 2.034,-0.675 2.993,-1.945 0,-3.891 -0.959,-5.761 -2.993,-9.349 -6.828,-4.268 -12.454,-8.981 -18.31,-13.691 -5.27,-4.257 -9.939,-8.525 -12.567,-13.765 -0.125,-0.823 -0.125,-1.422 -0.125,-1.945 0,-1.047 0.481,-1.42 3.122,-1.718 l 0.833,0.145 c 2.751,0.153 1.437,-0.067 3.946,0.903 0.957,0.449 1.202,0.6 1.436,0.67 1.682,0.744 1.916,0.981 3.355,1.802 0.356,0.224 0.836,0.448 3.229,1.64 1.194,1.725 3.59,3.444 5.383,5.015 0.955,1.189 1.079,1.569 1.432,1.945 0.368,0.37 0.727,0.671 2.042,1.495 0.604,1.717 3.833,4.27 5.382,5.838 0.366,1.194 -0.112,0.666 1.314,1.639 0.368,0.677 0.481,1.269 0.961,1.87 0.364,1.127 0,0.678 1.081,1.572 0.722,1.351 2.273,2.695 2.273,4.111 0,0.379 0.121,0.301 0.955,1.427 0.725,2.239 1.202,2.393 3.834,4.331 3.229,2.4 3.711,2.921 8.978,4.939 l 5.026,1.949 c 1.314,0.524 3.707,1.647 5.738,1.647 1.558,0 1.916,-0.455 1.916,-1.123 0,-0.377 -0.124,-0.826 -0.358,-1.272 C 11.242,8.76 2.273,3.145 -4.309,-0.441 c -1.916,-0.604 -3.109,-0.446 -3.109,-1.573 0,-0.301 0.234,-0.301 0.714,-0.301 h 0.835 l 1.56,0.444 0.958,0.079 c 3.227,-2.318 2.507,-1.94 3.464,-4.636 l -0.357,-1.871 c -0.714,-4.044 -2.75,-6.951 -6.339,-11.597 l -4.436,-3.209 c -2.269,-0.759 -2.983,-1.124 -4.188,-1.124 -0.592,0 -1.436,0.144 -2.629,0.297 -1.916,1.048 -2.151,1.126 -3.947,1.494 -1.915,-0.599 -2.759,-1.345 -3.596,-2.463 0.726,-2.327 1.201,-2.249 4.311,-2.327 5.269,0.677 6.586,1.281 10.653,3.143 l 1.317,0.599 c 3.352,1.497 2.994,1.429 5.98,3.59 0.836,1.046 0.956,1.202 2.874,2.473 l 2.629,2.985 c 2.395,2.695 1.685,1.426 2.759,3.744 l 0.952,2.017 c 0.367,2.175 0.48,2.47 0.48,2.918 0,0.299 0,0.681 -0.113,1.649 -1.203,1.716 -2.994,3.223 -5.983,3.741 z m -19.031,1.206 -3.831,-6.44 c -1.562,-2.687 -0.836,-1.418 -2.632,-3.513 -2.037,-2.47 -3.71,-4.566 -5.989,-6.96 -2.508,-2.618 -4.548,-4.859 -8.257,-7.028 -1.436,-0.892 -3.109,-1.873 -5.26,-1.873 -0.476,0 -0.722,0.152 -1.076,0.744 l 0.478,2.698 c 2.628,3.14 2.273,1.794 2.628,3.586 l 1.556,1.573 1.919,2.171 c 2.872,2.248 2.275,1.27 2.987,2.696 l 2.159,1.417 1.435,1.346 6.221,4.713 0.12,0.3 c 2.875,1.572 1.795,0.678 3.468,2.697 l 1.915,1.114 1.315,0.981 h 0.477 z"
               style="fill:#231f20;fill-opacity:1;fill-rule:nonzero;stroke:none"
               id="path5450" />
          </g>
          <g
             id="g5452"
             transform="translate(328.9204,380.6123)">
            <path
               d="m 0,0 -0.13,-0.322 -0.912,-0.814 -1.824,-1.869 c -0.519,-0.973 -1.168,-1.78 -1.168,-2.512 0,-0.649 0.388,-1.136 1.691,-1.623 3.894,0.487 6.756,1.944 9.742,3.411 l 1.561,0.724 2.602,1.143 c 0.254,0.24 0.514,0.492 0.514,0.726 l -0.26,0.08 c -0.381,0 -1.683,-0.484 -4.677,-1.621 L 4.024,-3.811 C 3.115,-4.06 2.724,-4.144 2.203,-4.144 L 1.031,-4.06 c 0.264,1.55 0,0.65 1.432,2.769 2.863,1.624 1.95,0.808 3.127,2.108 C 5.069,1.549 4.154,1.634 3.115,1.868 2.983,2.118 2.983,2.201 2.983,2.274 c 0,0.167 0.132,0.167 0.781,0.495 0.13,0.155 0.13,0.322 0.13,0.403 0,0.971 -1.303,0.971 -2.731,0.971 L -0.778,3.008 -1.823,2.118 -3.124,1.385 C -7.8,-0.322 -5.334,0.65 -10.271,-1.789 l -0.131,-0.565 h 0.261 c 0.391,0 1.3,0.331 2.862,1.063 L -4.294,0 -1.691,0.486 -0.391,0.65 0,0.412 Z"
               style="fill:#231f20;fill-opacity:1;fill-rule:nonzero;stroke:none"
               id="path5454" />
          </g>
          <g
             id="g5456"
             transform="translate(347.6025,376.1514)">
            <path
               d="M 0,0 C -0.521,0.566 0.65,1.215 1.291,1.382 L 3.636,2.438 C 7.661,4.307 9.222,5.68 9.222,8.118 7.788,9.256 5.847,8.202 4.287,7.633 -0.391,5.846 -4.554,3.572 -6.236,0 c 0.13,-1.54 0.13,-2.034 2.46,-2.441 5.848,0.167 9.623,1.221 14.172,3.413 l 1.56,0.732 c 1.553,0.567 2.854,1.387 2.854,1.621 l -0.128,0.08 C 14.417,3.405 13.509,3.17 12.086,2.601 6.108,0.164 5.457,0.164 1.162,-0.25 Z m -0.781,1.537 -0.26,1.302 c 0.65,0.972 1.562,1.79 2.725,2.439 1.298,0.651 2.472,0.973 3.123,0.973 1.04,0 1.301,-0.405 0.78,-1.056 C 3.636,3.655 2.072,2.601 -0.391,1.454 h -0.13 z"
               style="fill:#231f20;fill-opacity:1;fill-rule:nonzero;stroke:none"
               id="path5458" />
          </g>
          <g
             id="g5460"
             transform="translate(386.3179,379.0723)">
            <path
               d="M 0,0 C -1.041,0 -1.172,0.084 -1.172,1.057 0.13,2.274 -0.648,1.704 0.913,2.759 L 1.292,3.494 C 0.519,4.467 1.169,4.145 -0.521,4.467 -4.036,4.061 -3.906,3.814 -4.676,1.955 V 1.223 l -1.303,-1.304 -1.823,-0.97 c -2.083,-1.138 -3.242,-1.384 -5.843,-1.87 -0.784,0.164 -1.048,0.164 -1.048,0.32 0,0.082 0.264,0.327 0.784,1.063 1.824,1.622 3.386,3.326 5.066,5.032 0,0.32 0.133,0.487 0.133,0.651 0,0.322 -0.264,0.322 -0.781,0.816 -2.462,0 -4.154,-0.415 -6.239,-1.063 -4.025,-1.218 -7.008,-2.511 -10.654,-4.145 -0.262,-0.236 -0.393,-0.403 -0.393,-0.484 0,-0.085 0.131,-0.085 0.261,-0.085 0.523,0 1.826,0.655 3.908,1.303 l 2.333,0.736 c 1.17,0.234 2.212,0.401 2.992,0.401 0.783,0 1.301,-0.167 1.301,-0.734 V 0.817 l -1.171,-1.137 -2.214,-3.501 c 0.132,-1.054 -0.127,-0.558 1.042,-1.46 h 0.914 l 1.171,0.086 4.936,1.303 2.982,1.135 2.343,1.136 1.434,0.805 0.769,0.085 c 1.172,-0.486 1.828,-0.57 2.475,-0.57 0.517,0 1.173,0.084 2.214,0.164 0.767,0.251 2.981,1.056 2.981,1.304 0,0.082 0,0.32 -0.39,0.32 -0.13,0 -0.388,-0.082 -0.783,-0.082 L 1.292,0 Z"
               style="fill:#231f20;fill-opacity:1;fill-rule:nonzero;stroke:none"
               id="path5462" />
          </g>
          <g
             id="g5464"
             transform="translate(413.5801,391.9873)">
            <path
               d="M 0,0 -3.523,3.327 -4.945,3.41 -5.465,3.327 C -7.408,2.44 -7.287,2.926 -7.287,2.273 V 2.19 c 0,-1.62 2.6,-3.325 5.205,-3.325 0.639,0 1.301,0.165 1.941,0.404 z m -8.071,-6.414 c -2.722,-0.569 -5.187,-1.871 -7.649,-2.76 l -1.83,-0.652 -4.286,-1.632 -3.896,-1.704 -0.26,-0.569 h 0.91 l 2.464,0.9 1.95,0.806 2.208,0.65 1.558,0.331 1.681,-0.247 v -0.484 c -1.938,-2.274 -3.364,-3.659 -4.142,-6.099 l 0.389,-0.236 h 1.16 c 2.855,0 4.941,0.816 7.282,1.871 l 3.124,1.373 1.422,0.567 c 0.923,0.414 3.242,1.303 3.242,1.704 0,0.085 -0.117,0.167 -0.522,0.167 -0.257,0 -0.517,0 -0.9,-0.082 l -1.559,-0.725 -2.605,-0.897 -1.802,-0.649 -0.781,-0.323 h -0.781 l -1.179,0.238 v 0.567 l 0.779,0.984 c 1.041,2.355 3.384,4.214 5.463,6.332 0,0.486 -0.259,0.569 -0.777,0.569 z"
               style="fill:#231f20;fill-opacity:1;fill-rule:nonzero;stroke:none"
               id="path5466" />
          </g>
          <g
             id="g5468"
             transform="translate(429.6621,377.855)">
            <path
               d="m 0,0 c -4.803,-1.458 -2.719,-0.972 -6.105,-1.704 h -0.381 c -0.92,0 -0.92,0.084 -1.039,0.889 0.781,3.255 2.845,5.69 6.226,8.284 6.252,3.656 12.619,7.066 17.945,11.044 3.764,2.771 7.387,5.612 11.172,8.369 2.067,2.191 5.588,4.227 5.327,6.902 1.425,1.054 2.064,1.218 2.064,1.468 -0.264,1.788 -1.281,1.788 -3.365,2.104 C 26.777,36.958 27.158,36.791 23.271,35.002 12.74,30.126 2.344,18.846 -4.68,11.293 L -9.229,6.415 -9.488,6.097 -14.936,3.575 -17.275,2.674 c -4.166,-1.62 -4.426,-1.457 -4.426,-2.024 0,-0.164 0.396,-0.249 0.516,-0.249 0.921,0 3.007,1.139 3.646,1.3 l 2.463,0.739 c 0.521,0.163 1.301,0.234 1.965,0.234 0.638,0 1.162,-0.155 1.162,-0.722 l -1.162,-2.357 c -0.405,-0.734 -0.52,-1.464 -0.52,-2.198 v -0.074 c 0,-0.414 0,-0.814 0.258,-0.978 0.641,-0.323 1.305,-0.49 2.084,-0.49 3.242,0 9.09,1.791 13.375,3.897 1.164,0.649 2.723,1.302 2.723,1.632 0,0.082 0,0.156 -0.26,0.156 -0.379,0 -2.205,-0.572 -2.34,-0.643 z m 0,9.587 c -0.117,0.157 -0.258,0.406 -0.258,0.566 0,0.654 0.662,1.542 1.824,2.847 l 4.545,4.945 3.243,3.173 6.109,5.682 c 2.605,2.356 10.537,8.367 14.678,8.534 1.181,0 0.923,-0.167 1.441,-0.982 -0.26,-1.869 0,-0.401 -1.82,-4.142 C 26.119,27.533 22.871,24.775 19.229,21.923 12.48,16.725 7.416,13.731 4.689,12.182 Z"
               style="fill:#231f20;fill-opacity:1;fill-rule:nonzero;stroke:none"
               id="path5470" />
          </g>
          <g
             id="g5472"
             transform="translate(453.9277,377.855)">
            <path
               d="m 0,0 c -4.809,-1.458 -2.723,-0.972 -6.109,-1.704 h -0.377 c -0.926,0 -0.926,0.084 -1.043,0.889 0.779,3.255 2.842,5.69 6.228,8.284 6.244,3.656 12.594,7.066 17.94,11.044 3.765,2.771 7.392,5.612 11.175,8.369 2.063,2.191 5.588,4.227 5.329,6.902 1.42,1.054 2.064,1.218 2.064,1.468 C 34.943,37.04 33.916,37.04 31.84,37.356 26.771,36.958 27.15,36.791 23.248,35.002 12.734,30.126 2.34,18.846 -4.687,11.293 L -9.234,6.415 -9.492,6.097 -14.939,3.575 -17.285,2.674 c -4.162,-1.62 -4.424,-1.457 -4.424,-2.024 0,-0.164 0.4,-0.249 0.52,-0.249 0.923,0 3.009,1.139 3.648,1.3 l 2.463,0.739 c 0.517,0.163 1.299,0.234 1.961,0.234 0.64,0 1.162,-0.155 1.162,-0.722 l -1.162,-2.357 c -0.401,-0.734 -0.522,-1.464 -0.522,-2.198 v -0.074 c 0,-0.414 0,-0.814 0.26,-0.978 0.641,-0.323 1.303,-0.49 2.063,-0.49 3.267,0 9.111,1.791 13.398,3.897 1.16,0.649 2.723,1.302 2.723,1.632 0,0.082 0,0.156 -0.26,0.156 C 4.164,1.54 2.34,0.968 2.201,0.897 Z m 0,9.587 c -0.141,0.157 -0.264,0.406 -0.264,0.566 0,0.654 0.643,1.542 1.823,2.847 l 4.548,4.945 3.243,3.173 6.107,5.682 c 2.605,2.356 10.535,8.367 14.682,8.534 1.177,0 0.92,-0.167 1.439,-0.982 -0.262,-1.869 0,-0.401 -1.822,-4.142 C 26.109,27.533 22.869,24.775 19.221,21.923 12.475,16.725 7.408,13.731 4.684,12.182 Z"
               style="fill:#231f20;fill-opacity:1;fill-rule:nonzero;stroke:none"
               id="path5474" />
          </g>
          <g
             id="g5476"
             transform="translate(482.4727,391.9873)">
            <path
               d="M 0,0 -3.506,3.327 -4.945,3.41 -5.469,3.327 C -7.406,2.44 -7.27,2.926 -7.27,2.273 V 2.19 c 0,-1.62 2.584,-3.325 5.184,-3.325 0.662,0 1.303,0.165 1.965,0.404 z m -8.049,-6.414 c -2.746,-0.569 -5.209,-1.871 -7.668,-2.76 l -1.828,-0.652 -4.283,-1.632 -3.904,-1.704 -0.262,-0.569 h 0.922 l 2.465,0.9 1.941,0.806 2.225,0.65 1.541,0.331 1.701,-0.247 v -0.484 c -1.944,-2.274 -3.387,-3.659 -4.168,-6.099 l 0.4,-0.236 h 1.164 c 2.864,0 4.944,0.816 7.268,1.871 l 3.129,1.373 1.435,0.567 c 0.905,0.414 3.246,1.303 3.246,1.704 0,0.085 -0.14,0.167 -0.521,0.167 -0.26,0 -0.518,0 -0.922,-0.082 l -1.559,-0.725 -2.586,-0.897 -1.82,-0.649 -0.783,-0.323 h -0.779 l -1.164,0.238 v 0.567 l 0.785,0.984 c 1.017,2.355 3.359,4.214 5.445,6.332 0,0.486 -0.262,0.569 -0.777,0.569 z"
               style="fill:#231f20;fill-opacity:1;fill-rule:nonzero;stroke:none"
               id="path5478" />
          </g>
          <g
             id="g5480"
             transform="translate(486.4844,376.1514)">
            <path
               d="M 0,0 C -0.521,0.566 0.639,1.215 1.301,1.382 L 3.643,2.438 C 7.668,4.307 9.23,5.68 9.23,8.118 7.787,9.256 5.85,8.202 4.281,7.633 -0.385,5.846 -4.547,3.572 -6.252,0 c 0.139,-1.54 0.139,-2.034 2.49,-2.441 5.842,0.167 9.612,1.221 14.153,3.413 l 1.562,0.732 c 1.561,0.567 2.861,1.387 2.861,1.621 L 14.68,3.405 C 14.416,3.405 13.514,3.17 12.072,2.601 6.109,0.164 5.443,0.164 1.16,-0.25 Z m -0.781,1.537 -0.264,1.302 c 0.66,0.972 1.566,1.79 2.727,2.439 C 2.98,5.929 4.166,6.251 4.805,6.251 5.85,6.251 6.109,5.846 5.582,5.195 3.643,3.655 2.08,2.601 -0.385,1.454 h -0.136 z"
               style="fill:#231f20;fill-opacity:1;fill-rule:nonzero;stroke:none"
               id="path5482" />
          </g>
          <g
             id="g5484"
             transform="translate(509.0859,380.6123)">
            <path
               d="m 0,0 -0.139,-0.322 -0.902,-0.814 -1.82,-1.869 c -0.526,-0.973 -1.164,-1.78 -1.164,-2.512 0,-0.649 0.38,-1.136 1.683,-1.623 3.906,0.487 6.768,1.944 9.752,3.411 l 1.563,0.724 2.584,1.143 c 0.256,0.24 0.517,0.492 0.517,0.726 l -0.261,0.08 c -0.375,0 -1.682,-0.484 -4.663,-1.621 L 4.025,-3.811 C 3.123,-4.06 2.727,-4.144 2.205,-4.144 L 1.039,-4.06 c 0.264,1.55 0,0.65 1.428,2.769 2.861,1.624 1.959,0.808 3.121,2.108 C 5.064,1.549 4.166,1.634 3.123,1.868 2.984,2.118 2.984,2.201 2.984,2.274 c 0,0.167 0.139,0.167 0.784,0.495 0.138,0.155 0.138,0.322 0.138,0.403 0,0.971 -1.304,0.971 -2.744,0.971 L -0.779,3.008 -1.822,2.118 -3.127,1.385 C -7.789,-0.322 -5.326,0.65 -10.271,-1.789 l -0.12,-0.565 h 0.256 c 0.385,0 1.305,0.331 2.867,1.063 L -4.285,0 -1.684,0.486 -0.398,0.65 0,0.412 Z"
               style="fill:#231f20;fill-opacity:1;fill-rule:nonzero;stroke:none"
               id="path5486" />
          </g>
          <g
             id="g5488"
             transform="translate(252.3589,361.5122)">
            <path
               d="m 0,0 c 0,-0.718 -0.269,-1.165 -0.989,-1.165 -2.338,0 -3.056,11.507 -16.99,11.507 -15.104,0 -22.563,-12.946 -22.563,-26.431 0,-6.385 1.797,-12.408 5.572,-17.619 4.134,-5.663 9.71,-9.531 16.991,-9.531 13.934,0 15.011,14.114 17.439,14.114 0.72,0 1.078,-0.54 0.989,-1.169 L 0,-37.576 c -0.178,-2.786 -0.089,-2.964 -2.878,-4.314 -5.303,-2.516 -10.339,-3.774 -16.27,-3.774 -16.364,0 -29.397,13.574 -29.397,29.485 0,16.63 14.745,29.037 31.193,29.037 4.046,0 10.341,-1.08 14.205,-2.427 2.607,-0.902 2.248,-2.069 2.516,-4.583 z"
               style="fill:#231f20;fill-opacity:1;fill-rule:nonzero;stroke:none"
               id="path5490" />
          </g>
          <g
             id="g5492"
             transform="translate(263.0835,347.6689)">
            <path
               d="m 0,0 c 0,3.84 0.3,4.976 -3.894,4.976 -0.54,0 -1.497,0 -1.497,0.718 0,0.66 0.419,0.9 1.077,0.9 1.916,0 3.955,-0.24 5.87,-0.24 3.48,0 6.837,0.24 10.251,0.24 5.695,0 11.328,-2.817 11.328,-9.109 0,-5.453 -4.494,-8.631 -9.472,-9.289 1.922,-0.303 2.819,-2.4 3.658,-3.956 l 4.854,-9.346 c 1.079,-2.103 1.979,-4.377 4.616,-4.377 0.479,0 1.556,0 1.556,-0.841 0,-0.599 -0.599,-0.66 -1.077,-0.66 h -6.351 c -1.202,0 -1.562,1.14 -2.039,2.038 l -5.874,11.689 c -2.156,4.193 -2.099,4.674 -6.65,4.674 -0.483,0 -1.021,0.058 -1.32,-0.299 -0.361,-0.424 -0.301,-1.858 -0.301,-2.397 v -9.232 c 0,-3.835 -0.238,-4.914 3.894,-4.972 0.541,0 1.561,0.058 1.561,-0.721 0,-0.657 -0.481,-0.78 -1.02,-0.78 -2.277,0 -4.435,0.242 -6.712,0.242 -2.278,0 -4.552,-0.242 -6.831,-0.242 -0.541,0 -1.018,0.123 -1.018,0.78 0,0.779 0.957,0.721 1.497,0.721 4.194,0 3.894,1.197 3.894,4.972 z m 4.735,-10.188 c 0,-1.498 2.038,-1.075 3.057,-1.075 2.757,0 5.214,0.236 7.492,1.973 1.978,1.499 2.758,3.716 2.758,6.118 0,5.511 -3.3,8.509 -8.632,8.509 -4.554,0 -4.675,-0.602 -4.675,-4.798 z"
               style="fill:#231f20;fill-opacity:1;fill-rule:nonzero;stroke:none"
               id="path5494" />
          </g>
          <g
             id="g5496"
             transform="translate(302.582,340.8379)">
            <path
               d="m 0,0 c 0,-2.816 0.538,-2.816 2.994,-2.816 1.798,0 4.914,-0.06 7.252,0.24 1.496,0.18 1.8,2.398 2.098,4.137 0.061,0.357 0.24,1.017 0.777,1.017 0.302,0 0.662,-0.121 0.662,-0.6 -0.059,-1.677 -0.18,-3.476 -0.299,-5.153 0.119,-1.92 0.24,-3.719 0.299,-5.634 0,-0.96 -0.36,-1.081 -0.662,-1.081 -0.537,0 -0.716,0.661 -0.777,1.02 -0.298,1.736 -0.779,3.536 -2.098,3.836 -2.338,0.54 -5.454,0.54 -7.252,0.54 -2.398,0 -2.994,0 -2.994,-2.037 v -10.43 c 0,-5.51 2.636,-5.573 7.371,-5.573 5.153,0 8.451,0.118 10.485,5.394 0.184,0.421 0.602,2.039 1.32,2.039 0.42,0 0.599,-0.242 0.599,-0.662 0,-0.481 -0.119,-0.956 -0.239,-1.439 l -0.9,-6.348 c -0.059,-0.421 -0.178,-0.361 -0.658,-0.361 H -5.458 c -0.598,0 -1.198,-0.06 -1.859,-0.121 -0.599,-0.06 -1.256,-0.122 -1.856,-0.122 -0.539,0 -1.021,0.243 -1.021,0.902 0,0.658 0.96,0.718 1.562,0.718 4.134,0 3.895,1.198 3.895,5.035 V 6.892 c 0,3.716 0.239,4.915 -3.895,4.915 -0.602,0 -1.562,0 -1.562,0.718 0,0.6 0.482,0.9 1.021,0.9 3.715,0 7.552,-0.24 11.267,-0.24 5.155,0 10.19,0.24 15.284,0.24 1.139,0 0.84,-1.438 0.84,-2.217 V 6.055 c 0,-0.361 0.061,-1.261 -0.541,-1.261 -0.538,0 -0.778,0.781 -0.959,1.198 L 15.822,7.67 c -0.902,1.86 -1.741,2.938 -3.716,3.538 -1.981,0.599 -4.557,0.599 -6.595,0.599 -0.96,0 -3.596,0 -4.554,-0.36 C -0.179,11.028 0,9.708 0,8.689 Z"
               style="fill:#231f20;fill-opacity:1;fill-rule:nonzero;stroke:none"
               id="path5498" />
          </g>
          <g
             id="g5500"
             transform="translate(344.2915,323.1577)">
            <path
               d="m 0,0 c 0,-3.834 -0.238,-4.972 3.897,-4.972 0.538,0 1.557,0.058 1.557,-0.72 0,-0.66 -0.477,-0.781 -1.019,-0.781 -2.276,0 -4.435,0.243 -6.713,0.243 -2.275,0 -4.554,-0.243 -6.832,-0.243 -0.538,0 -1.016,0.121 -1.016,0.781 0,0.778 0.959,0.72 1.497,0.72 4.194,0 3.895,1.197 3.895,4.972 v 27.75 c 0,2.159 -0.778,1.737 -2.636,1.737 -5.454,0 -7.672,-0.539 -10.549,-5.333 -0.24,-0.419 -0.717,-1.439 -1.319,-1.439 -0.418,0 -0.599,0.298 -0.599,0.72 0,0.419 0.24,1.137 0.36,1.437 l 2.338,7.791 c 0.12,0.42 0.239,0.838 0.782,0.838 0.357,0 0.536,-0.298 0.536,-0.657 0.059,-0.541 0,-0.899 0.478,-1.261 0.78,-0.657 2.037,-0.478 2.998,-0.478 H 9.409 c 1.559,0 3.057,-0.3 3.656,1.378 0.179,0.478 0.299,1.018 0.902,1.018 0.838,0 0.537,-1.738 0.537,-2.152 l -0.36,-7.316 c 0,-0.48 -0.061,-1.02 -0.719,-1.02 -0.42,0 -0.537,0.481 -0.658,0.841 -0.42,1.258 -0.841,2.936 -1.74,4.074 -1.318,1.559 -2.994,1.559 -4.855,1.559 H 2.698 C 0,29.487 0,29.606 0,26.551 Z"
               style="fill:#231f20;fill-opacity:1;fill-rule:nonzero;stroke:none"
               id="path5502" />
          </g>
          <g
             id="g5504"
             transform="translate(363.6538,323.6372)">
            <path
               d="m 0,0 c -0.362,-0.96 -0.84,-2.217 -0.84,-3.295 0,-1.976 2.637,-2.157 4.013,-2.157 0.542,0 1.562,0.059 1.562,-0.78 0,-0.721 -0.841,-0.721 -1.442,-0.721 -1.677,0 -3.353,0.243 -5.033,0.243 -1.677,0 -3.358,-0.243 -5.033,-0.243 -0.599,0 -2.161,-0.361 -2.161,0.662 0,0.839 1.142,0.839 1.682,0.839 1.08,0 2.216,0.119 2.995,0.956 0.78,0.843 1.858,3.599 2.278,4.736 L 9.587,30.265 c 0.181,0.481 0.361,1.319 1.019,1.319 0.48,0 0.719,-0.779 0.84,-1.138 L 23.551,0.362 c 0.96,-2.339 1.977,-5.814 4.914,-5.814 0.599,0 1.74,0 1.74,-0.898 0,-0.541 -0.599,-0.603 -0.9,-0.603 -2.636,0 -5.276,0.243 -7.913,0.243 -2.156,0 -4.434,-0.243 -6.649,-0.243 -0.36,0 -0.961,0.062 -0.961,0.603 0,0.898 1.14,0.898 1.738,0.898 1.557,0 3.834,0 3.834,1.799 0,0.836 -0.537,2.155 -0.836,2.935 L 16.6,3.836 c -1.259,3.06 -0.838,3.06 -3.716,3.06 H 4.735 c -2.4,0 -2.038,-0.243 -2.938,-2.401 z M 3.775,9.768 C 3.715,9.589 3.594,9.228 3.594,9.047 3.594,8.451 5.511,8.691 5.75,8.691 h 6.893 c 0.36,0 1.74,-0.18 1.74,0.48 0,0.239 -0.423,1.2 -0.423,1.317 L 9.889,20.676 c -0.121,0.241 -0.602,1.799 -0.962,1.799 -0.476,0 -0.901,-1.5 -1.018,-1.799 z"
               style="fill:#231f20;fill-opacity:1;fill-rule:nonzero;stroke:none"
               id="path5506" />
          </g>
          <g
             id="g5508"
             transform="translate(428.3164,346.6519)">
            <path
               d="m 0,0 c 0,-0.481 -0.18,-0.781 -0.658,-0.781 -1.559,0 -2.037,7.673 -11.328,7.673 -10.069,0 -15.042,-8.632 -15.042,-17.62 0,-4.256 1.2,-8.272 3.715,-11.747 2.758,-3.774 6.473,-6.352 11.327,-6.352 9.291,0 10.009,9.41 11.627,9.41 0.48,0 0.718,-0.358 0.658,-0.78 L 0,-25.049 c -0.119,-1.862 -0.059,-1.98 -1.916,-2.878 -3.539,-1.679 -6.893,-2.52 -10.85,-2.52 -10.906,0 -19.597,9.051 -19.597,19.66 0,11.085 9.828,19.356 20.799,19.356 2.697,0 6.892,-0.717 9.466,-1.62 1.739,-0.595 1.496,-1.378 1.682,-3.055 z"
               style="fill:#231f20;fill-opacity:1;fill-rule:nonzero;stroke:none"
               id="path5510" />
          </g>
          <g
             id="g5512"
             transform="translate(454.0293,355.2212)">
            <path
               d="m 0,0 c 11.385,0 20.852,-7.912 20.852,-19.477 0,-11.567 -9.467,-19.54 -20.852,-19.54 -10.791,0 -20.92,8.633 -20.92,19.54 C -20.92,-8.569 -10.791,0 0,0 m 11.447,-7.072 c -2.879,3.416 -6.834,5.452 -11.33,5.452 -4.672,0 -8.988,-1.976 -11.865,-5.632 -2.758,-3.415 -3.777,-7.909 -3.777,-12.225 0,-4.494 1.078,-9.052 4.017,-12.526 2.875,-3.476 7.069,-5.332 11.625,-5.332 4.615,0 8.69,2.216 11.569,5.751 2.816,3.597 3.712,7.613 3.712,12.107 0,4.615 -0.957,8.748 -3.951,12.405"
               style="fill:#231f20;fill-opacity:1;fill-rule:nonzero;stroke:none"
               id="path5514" />
          </g>
          <g
             id="g5516"
             transform="translate(489.207,325.0156)">
            <path
               d="m 0,0 c 0,-4.555 0.117,-6.711 5.514,-6.711 2.154,0 4.914,0.598 6.59,1.974 1.378,1.143 2.457,3.359 3.117,4.978 0.121,0.298 0.359,0.778 0.72,0.778 0.538,0 0.538,-0.417 0.538,-0.839 0,-2.034 -0.598,-4.133 -0.659,-6.231 -0.06,-1.56 0.061,-2.281 -1.558,-2.281 -5.752,0 -11.627,0.244 -17.379,0.244 -2.037,0 -3.957,-0.244 -5.99,-0.244 -0.545,0 -1.022,0.244 -1.022,0.843 0,0.778 0.959,0.778 1.559,0.778 4.131,0 3.834,1.138 3.834,4.914 v 24.511 c 0,3.776 0.297,4.915 -3.895,4.915 -0.539,0 -1.498,0 -1.498,0.779 0,0.66 0.418,0.838 1.022,0.838 2.271,0 4.429,-0.239 6.709,-0.239 2.277,0 4.554,0.239 6.834,0.239 0.537,0 1.019,-0.178 1.019,-0.838 0,-0.779 -1.019,-0.779 -1.562,-0.779 C -0.299,27.629 0,26.49 0,22.714 Z"
               style="fill:#231f20;fill-opacity:1;fill-rule:nonzero;stroke:none"
               id="path5518" />
          </g>
          <g
             id="g5520"
             transform="translate(529.5371,355.2212)">
            <path
               d="m 0,0 c 11.389,0 20.855,-7.912 20.855,-19.477 0,-11.567 -9.466,-19.54 -20.855,-19.54 -10.787,0 -20.912,8.633 -20.912,19.54 C -20.912,-8.569 -10.787,0 0,0 M 11.449,-7.072 C 8.57,-3.656 4.615,-1.62 0.119,-1.62 c -4.672,0 -8.986,-1.976 -11.865,-5.632 -2.756,-3.415 -3.777,-7.909 -3.777,-12.225 0,-4.494 1.08,-9.052 4.019,-12.526 2.875,-3.476 7.067,-5.332 11.623,-5.332 4.615,0 8.694,2.216 11.569,5.751 2.816,3.597 3.716,7.613 3.716,12.107 0,4.615 -0.961,8.748 -3.955,12.405"
               style="fill:#231f20;fill-opacity:1;fill-rule:nonzero;stroke:none"
               id="path5522" />
          </g>
          <g
             id="g5524"
             transform="translate(563.5176,363.0425)">
            <path
               d="m 0,0 c 0,5.754 0.451,7.461 -5.842,7.461 -0.808,0 -2.248,0 -2.248,1.079 0,0.989 0.629,1.35 1.617,1.347 2.877,0 5.934,-0.358 8.811,-0.358 5.213,0 10.25,0.358 15.371,0.361 8.541,0 16.992,-4.225 16.992,-13.665 0,-8.182 -6.746,-12.944 -14.205,-13.934 2.879,-0.448 4.225,-3.598 5.486,-5.935 l 7.278,-14.025 c 1.621,-3.143 2.967,-6.561 6.924,-6.561 0.72,0 2.336,0 2.336,-1.256 0,-0.899 -0.899,-0.988 -1.616,-0.988 h -9.531 c -1.797,0 -2.336,1.704 -3.055,3.054 l -8.81,17.531 c -3.238,6.291 -3.145,7.011 -9.979,7.011 -0.718,0 -1.527,0.091 -1.978,-0.451 -0.539,-0.629 -0.447,-2.786 -0.447,-3.597 v -13.843 c 0,-5.752 -0.362,-7.371 5.843,-7.461 0.807,0 2.336,0.09 2.336,-1.079 0,-0.987 -0.72,-1.165 -1.529,-1.165 -3.414,0 -6.65,0.359 -10.068,0.359 -3.415,0 -6.829,-0.359 -10.248,-0.359 -0.809,0 -1.528,0.178 -1.528,1.165 0,1.169 1.44,1.079 2.248,1.079 6.293,0 5.842,1.8 5.842,7.461 z m 7.104,-15.284 c 0,-2.244 3.052,-1.614 4.582,-1.614 4.138,0 7.822,0.357 11.24,2.963 2.963,2.249 4.136,5.574 4.136,9.171 0,8.271 -4.947,12.763 -12.949,12.763 -6.832,0 -7.009,-0.898 -7.009,-7.191 z"
               style="fill:#231f20;fill-opacity:1;fill-rule:nonzero;stroke:none"
               id="path5526" />
          </g>
          <g
             id="g5528"
             transform="translate(607.8516,383.4385)">
            <path
               d="m 0,0 c 3.182,0 5.771,-2.588 5.771,-5.752 0,-3.165 -2.589,-5.735 -5.843,-5.735 -3.166,0 -5.735,2.586 -5.735,5.735 C -5.807,-2.608 -3.254,0 0,0 m -0.053,-10.841 c 2.84,0 5.108,2.266 5.108,5.089 0,2.822 -2.268,5.107 -5.055,5.107 -2.842,0 -5.09,-2.302 -5.09,-5.107 0,-2.807 2.233,-5.089 5.037,-5.089 m 1.834,2.086 -1.654,2.84 h -0.898 v -1.906 c 0,-0.647 0.162,-0.647 0.826,-0.647 v -0.287 h -2.963 v 0.287 c 0.64,0 0.803,0.017 0.803,0.647 v 4.155 c 0,0.629 -0.145,0.629 -0.844,0.629 v 0.288 h 3.037 c 0.488,0 2.465,0 2.465,-1.654 0,-0.974 -0.684,-1.276 -1.166,-1.494 L 2.68,-8.052 c 0.179,-0.399 0.451,-0.416 0.703,-0.416 v -0.287 z m -2.552,5.609 v -2.443 h 0.718 c 0.41,0 1.278,0 1.278,1.186 0,0.861 -0.471,1.257 -1.278,1.257 z"
               style="fill:#231f20;fill-opacity:1;fill-rule:nonzero;stroke:none"
               id="path5530" />
          </g>
          <g
             id="g5532"
             transform="translate(539.5469,385.8257)">
            <path
               d="m 0,0 0.264,0.371 c -0.088,0.37 -0.442,0.446 -0.791,0.446 l -0.33,-0.028 c -2.104,-0.667 -3.311,-0.466 -4.68,-1.826 -2.18,-0.655 -2.494,-1.063 -5.209,-2.248 -0.879,-0.446 -3.451,-1.985 -3.451,-2.281 0,-0.076 0.019,-0.374 0.105,-0.374 0.088,0 0.307,0.105 0.485,0.105 1.226,0.542 2.697,1.215 4.289,1.73 1.298,0.518 2.181,0.832 3.025,0.986 0.26,-1.035 0,-0.619 0.789,-1.95 0.178,-0.67 0.031,-1.097 0.031,-1.39 0,-0.224 -0.082,-0.447 -0.259,-0.893 l -3.893,-1.961 c -0.703,-0.519 -2.117,-1.389 -2.117,-2.208 0,-0.666 0.435,-0.666 1.14,-0.889 3.588,0.298 3.106,0.119 5.647,1.751 l 1.047,0.799 0.635,0.705 0.439,0.666 0.615,1.25 0.42,1.497 0.069,0.39 c 0.085,0.226 0.173,0.519 0.173,0.743 0,1.038 -0.795,1.687 -1.496,2.653 l 0.266,0.445 C -1.475,-0.547 -1.49,-0.446 0,0 m -5.873,-10.257 c -0.262,-0.373 -1.578,-1.042 -2.365,-1.042 -0.35,0 -0.7,0.151 -0.7,0.669 0,0.521 0.434,0.667 0.874,0.889 0.525,0.52 0.351,0.595 1.05,0.742 0.264,0.075 0.791,0.224 1.233,0.224 0.258,0 0.521,-0.149 0.521,-0.52 0,-0.149 -0.174,-0.223 -0.613,-0.962"
               style="fill:#231f20;fill-opacity:1;fill-rule:nonzero;stroke:none"
               id="path5534" />
          </g>
          <g
             id="g5536"
             transform="translate(532.0547,401.0005)">
            <path
               d="m 0,0 -0.033,0.061 c -0.166,0.335 -0.391,0.184 -1.74,0.087 l -0.53,-0.187 -0.761,-0.94 c 0,0 -0.709,-1.388 -1.229,-2.182 -0.519,-0.79 -3.285,-1.751 -3.521,-2.386 -0.041,-0.111 0.007,-0.692 0.158,-0.808 0.89,-0.012 1.738,0.19 2.625,0.498 2.543,0.947 4.027,1.8 4.902,3.635 C 0.391,-1.318 0.338,-0.645 0,0"
               style="fill:#231f20;fill-opacity:1;fill-rule:nonzero;stroke:none"
               id="path5538" />
          </g>
          <g
             id="g5540"
             transform="translate(155.3311,272.1963)">
            <path
               d="m 0,0 c 0,-6.232 5.1,-9.191 9.867,-9.191 2.229,0 4.345,0.505 6.235,1.379 0.309,1.072 0.673,2.453 1.128,3.328 0.085,0.17 0.14,0.283 0.14,0.338 0,0.142 -0.932,0.394 -0.986,0.394 -0.03,0 -0.057,-0.025 -0.085,-0.057 -1.27,-1.947 -2.341,-4.115 -6.122,-4.115 -3.524,0 -6.429,1.436 -6.429,7.414 0,4.994 3.523,10.862 9.051,10.862 2.342,0 5.108,-0.875 5.108,-3.018 0,-0.846 -0.255,-1.777 -0.255,-1.861 0,-0.059 0.055,-0.114 0.169,-0.143 0.282,-0.059 0.843,-0.141 0.901,-0.141 0.028,0 0.085,0.03 0.085,0.055 0.422,1.244 0.9,2.485 1.436,3.695 -2.113,1.975 -4.988,2.678 -7.781,2.678 C 5.89,11.617 0,6.854 0,0 m 25.489,-2.592 c 0.337,0.959 1.803,4.174 2.873,4.174 0.623,-0.004 1.101,-0.592 1.976,-0.592 0.931,0 1.183,1.293 1.183,1.998 0,0.903 -0.59,1.324 -1.352,1.324 -2.536,0 -3.834,-3.294 -4.822,-5.128 H 25.29 c 0.169,1.015 0.481,2.029 0.481,3.043 0,1.156 -0.339,2.085 -1.635,2.085 -1.69,0 -3.071,-2.451 -3.691,-3.773 l 0.649,-0.396 c 0.253,0.337 0.872,1.269 1.382,1.269 0.703,0 0.76,-0.394 0.76,-1.016 0,-1.888 -2.568,-7.416 -2.568,-8.601 0,-0.592 1.157,-0.703 1.639,-0.703 0.788,0 1.013,0.338 1.323,1.213 z M 40.52,-5.555 c -0.874,-0.902 -1.974,-1.666 -3.301,-1.666 -1.691,0 -2.453,1.213 -2.453,2.793 0,0.537 0.111,1.272 0.195,1.524 2.795,0.086 8.095,1.127 8.095,4.736 0,1.721 -1.832,2.48 -3.324,2.48 -4.912,0 -8.066,-5.13 -8.066,-9.105 0,-2.512 1.464,-4.258 4.313,-4.258 2.342,0 3.837,1.156 5.16,2.987 z m -5.358,3.778 c 0.421,1.494 2.284,4.966 4.035,4.966 0.901,0 1.125,-0.679 1.125,-1.099 0,-2.711 -2.932,-3.811 -5.16,-3.867 m 14.351,3.978 h 2.845 c 0.228,0 0.342,0.987 0.342,1.041 0,0.139 -0.114,0.223 -0.257,0.223 h -2.562 c 0.283,1.045 0.843,2.457 0.843,3.131 0,0.652 -0.788,0.734 -1.268,0.734 -1.069,0 -1.295,-0.197 -1.605,-1.269 L 47.09,3.465 h -2.256 c -0.196,0 -0.308,-1.037 -0.308,-1.121 0,-0.115 0.055,-0.143 0.253,-0.143 h 1.999 L 46.329,0.705 c -0.311,-1.072 -2.141,-6.713 -2.141,-7.812 0,-1.125 0.788,-1.944 2.028,-1.944 2.425,0 3.918,1.86 5.216,3.578 l -0.678,0.508 c -0.733,-0.705 -1.494,-1.832 -2.65,-1.832 -0.563,0 -0.76,0.336 -0.76,0.817 0,0.339 0.197,1.072 0.281,1.412 z M 61.328,1.779 c 0.425,0 0.931,-0.226 0.931,-0.621 0,-0.873 -3.862,-7.674 -5.612,-7.674 -0.903,0 -1.099,0.481 -1.099,1.44 0,2.482 2.934,6.855 5.78,6.855 m 3.948,-6.15 c -0.422,-0.453 -1.41,-1.975 -2.06,-1.975 -0.309,0 -0.506,0.311 -0.506,0.846 0,1.242 2.902,7.928 3.665,9.984 -0.198,0.168 -0.564,0.223 -0.931,0.223 -0.366,0 -0.76,0 -0.931,-0.139 -0.337,-0.279 -0.563,-0.734 -0.872,-1.101 -0.396,0.029 -0.79,0.14 -1.184,0.14 -4.032,0 -9.812,-6.003 -9.812,-10.15 0,-1.494 0.45,-2.508 1.945,-2.508 2.481,0 5.472,4.199 6.542,6.115 h 0.056 c -0.338,-1.07 -1.322,-3.494 -1.322,-4.65 0,-0.957 0.563,-1.465 1.491,-1.465 1.719,0 3.693,2.873 4.568,4.115 z m 11.311,-0.902 c -0.961,-0.987 -1.919,-1.776 -3.358,-1.776 -2.06,0 -2.708,1.465 -2.708,3.354 0,2.427 1.748,6.884 4.739,6.884 1.044,0 1.015,-0.679 1.015,-1.468 0,-0.789 0.198,-1.578 1.55,-1.578 0.902,0 1.549,0.73 1.549,1.55 0,2.032 -2.111,2.619 -3.803,2.619 -4.486,0 -8.15,-4.396 -8.15,-8.71 0,-2.991 1.636,-4.653 4.65,-4.653 2.173,0 4.036,1.522 5.192,3.211 z m 10.77,9.585 c -4.261,0 -7.417,-4.056 -7.417,-8.148 0,-2.877 1.776,-5.215 4.822,-5.215 4.261,0 7.415,4.059 7.415,8.149 0,2.877 -1.776,5.214 -4.82,5.214 m 0.086,-1.123 c 1.268,0 1.635,-1.156 1.635,-2.484 0,-2.059 -1.327,-8.629 -4.259,-8.629 -1.299,0 -1.78,0.901 -1.78,2.481 0,1.691 1.327,8.632 4.404,8.632 m 8.88,8.262 c 0.619,0 2.424,-0.029 2.424,-0.986 0,-1.467 -5.018,-16.274 -5.018,-18.162 0,-0.987 0.818,-1.354 1.72,-1.354 2.001,0 4.115,2.535 5.215,3.891 l -0.648,0.592 c -0.536,-0.508 -1.663,-2.088 -2.452,-2.088 -0.338,0 -0.565,0.338 -0.565,0.676 0,1.015 5.018,17.289 5.725,19.146 l -0.311,0.283 c -1.915,-0.648 -3.918,-0.873 -5.919,-1.07 z m 12.973,-7.139 c -4.259,0 -7.415,-4.056 -7.415,-8.148 0,-2.877 1.774,-5.215 4.82,-5.215 4.259,0 7.415,4.059 7.415,8.149 0,2.877 -1.774,5.214 -4.82,5.214 m 0.084,-1.123 c 1.27,0 1.637,-1.156 1.637,-2.484 0,-2.059 -1.325,-8.629 -4.261,-8.629 -1.298,0 -1.778,0.901 -1.778,2.481 0,1.691 1.327,8.632 4.402,8.632 m 11.645,-5.781 c 0.337,0.959 1.803,4.174 2.874,4.174 0.622,-0.004 1.1,-0.592 1.975,-0.592 0.932,0 1.184,1.293 1.184,1.998 0,0.903 -0.59,1.324 -1.352,1.324 -2.538,0 -3.838,-3.294 -4.822,-5.128 h -0.057 c 0.169,1.015 0.481,2.029 0.481,3.043 0,1.156 -0.34,2.085 -1.635,2.085 -1.69,0 -3.074,-2.451 -3.693,-3.773 l 0.646,-0.396 c 0.257,0.337 0.877,1.269 1.385,1.269 0.703,0 0.76,-0.394 0.76,-1.016 0,-1.888 -2.565,-7.416 -2.565,-8.601 0,-0.592 1.156,-0.703 1.636,-0.703 0.788,0 1.013,0.338 1.323,1.213 z m 2.936,-10.603 c 2.764,0.535 5.298,2.281 5.298,5.357 0,1.635 -0.957,3.1 -2.703,3.1 -0.988,0 -1.722,-0.678 -1.722,-1.69 0,-1.695 2.426,-1.439 2.426,-2.992 0,-1.494 -2.313,-2.592 -3.581,-2.818 z m 25.122,8.545 h -0.055 l -2.03,9.839 c -0.311,1.467 -0.62,2.848 -0.62,3.61 0,1.24 1.1,1.24 1.972,1.24 0.284,0 0.396,0.902 0.396,1.014 0,0.084 -0.055,0.113 -0.168,0.113 -1.268,0 -2.625,-0.139 -3.948,-0.139 -1.297,0 -2.566,0.139 -3.806,0.139 -0.169,0 -0.255,-0.928 -0.255,-0.986 0,-0.084 0.029,-0.141 0.255,-0.141 1.607,0 1.75,-0.139 2.198,-2.254 l 3.807,-16.976 h 1.1 l 9.951,16.609 c 1.016,1.691 1.525,2.566 3.13,2.65 0.198,0 0.338,0.563 0.338,0.901 0,0.113 -0.056,0.197 -0.197,0.197 -0.931,0 -1.887,-0.139 -2.846,-0.139 -0.846,0 -1.693,0.139 -3.159,0.139 -0.169,0 -0.31,-0.873 -0.31,-0.957 0,-0.055 0.028,-0.141 0.112,-0.141 0.45,0 1.947,0 1.947,-0.591 0,-0.848 -0.649,-1.805 -1.156,-2.707 z m 16.672,0.109 c -0.567,-0.619 -1.747,-2.115 -2.651,-2.115 -0.342,0 -0.538,0.254 -0.538,0.648 0.004,0.906 2.962,6.856 2.962,8.717 0,0.955 -0.452,1.603 -1.466,1.603 -2.113,0 -3.691,-2.111 -5.075,-3.435 l 0.621,-0.65 c 0.563,0.453 1.41,1.552 2.172,1.552 0.282,0 0.563,-0.14 0.563,-0.425 -0.002,-0.932 -2.988,-7.616 -2.988,-8.657 0,-1.353 0.731,-1.748 1.971,-1.748 1.664,0 4.202,2.621 5.131,3.973 z m 1.519,14.354 c 0,0.96 -0.843,1.804 -1.803,1.804 -0.956,0 -1.802,-0.844 -1.802,-1.804 0,-0.958 0.846,-1.805 1.802,-1.805 0.96,0 1.803,0.847 1.803,1.805 m 10.043,-15.368 c -0.876,-0.902 -1.975,-1.666 -3.302,-1.666 -1.692,0 -2.455,1.213 -2.455,2.793 0,0.537 0.113,1.272 0.197,1.524 2.797,0.086 8.095,1.127 8.095,4.736 0,1.721 -1.831,2.48 -3.327,2.48 -4.907,0 -8.064,-5.13 -8.064,-9.105 0,-2.512 1.467,-4.258 4.314,-4.258 2.343,0 3.835,1.156 5.162,2.987 z m -5.36,3.778 c 0.423,1.494 2.285,4.966 4.033,4.966 0.906,0 1.13,-0.679 1.13,-1.099 0,-2.711 -2.936,-3.811 -5.163,-3.867 m 9.422,1.806 c 0.252,0.367 0.873,1.383 1.407,1.383 0.594,0 0.792,-0.48 0.792,-0.988 0,-1.606 -3.103,-8.119 -3.103,-8.686 0,-0.619 1.184,-0.646 1.635,-0.646 0.227,0 1.015,0.027 1.099,0.31 0.312,1.071 0.847,2.141 1.24,3.186 0.676,1.721 2.82,7.726 5.472,7.726 0.564,0 0.933,-0.253 0.933,-0.732 -0.004,-0.936 -2.878,-7.391 -2.878,-8.941 0,-1.071 0.395,-1.692 1.492,-1.692 2.14,0 3.947,2.395 5.243,3.83 l -0.62,0.594 c -0.536,-0.478 -1.495,-1.889 -2.282,-1.889 -0.369,0 -0.566,0.198 -0.566,0.567 0.004,1.496 2.707,6.629 2.707,8.293 0,1.181 -0.762,1.968 -2.086,1.968 -2.706,0 -4.653,-2.251 -6.12,-4.283 h -0.055 c 0.168,0.819 0.478,1.666 0.478,2.51 0,0.928 -0.282,1.773 -1.38,1.773 -1.972,0 -3.128,-2.363 -4.057,-3.773 z m 15.676,0 c 0.257,0.367 0.876,1.383 1.412,1.383 0.59,0 0.788,-0.48 0.788,-0.988 0,-1.606 -3.102,-8.119 -3.102,-8.686 0,-0.619 1.185,-0.646 1.636,-0.646 0.227,0 1.014,0.027 1.099,0.31 0.311,1.071 0.846,2.141 1.242,3.186 0.675,1.721 2.816,7.726 5.469,7.726 0.564,0 0.931,-0.253 0.931,-0.732 -0.004,-0.936 -2.878,-7.391 -2.878,-8.941 0,-1.071 0.396,-1.692 1.496,-1.692 2.141,0 3.946,2.395 5.241,3.83 l -0.618,0.594 c -0.536,-0.478 -1.497,-1.889 -2.285,-1.889 -0.365,0 -0.564,0.198 -0.564,0.567 0.004,1.496 2.706,6.629 2.706,8.293 0,1.181 -0.76,1.968 -2.085,1.968 -2.706,0 -4.653,-2.251 -6.119,-4.283 h -0.056 c 0.17,0.819 0.478,1.666 0.478,2.51 0,0.928 -0.281,1.773 -1.379,1.773 -1.971,0 -3.129,-2.363 -4.059,-3.773 z m 23.036,1.75 c 0.424,0 0.931,-0.226 0.931,-0.621 0,-0.873 -3.863,-7.674 -5.611,-7.674 -0.901,0 -1.101,0.481 -1.101,1.44 0,2.482 2.933,6.855 5.781,6.855 m 3.947,-6.15 c -0.422,-0.453 -1.41,-1.975 -2.057,-1.975 -0.312,0 -0.507,0.311 -0.507,0.846 0,1.242 2.902,7.928 3.662,9.984 -0.195,0.168 -0.562,0.223 -0.929,0.223 -0.366,0 -0.761,0 -0.93,-0.139 -0.34,-0.279 -0.565,-0.734 -0.873,-1.101 -0.396,0.029 -0.791,0.14 -1.185,0.14 -4.031,0 -9.81,-6.003 -9.81,-10.15 0,-1.494 0.45,-2.508 1.943,-2.508 2.484,0 5.471,4.199 6.544,6.115 h 0.057 c -0.338,-1.07 -1.326,-3.494 -1.326,-4.65 0,-0.957 0.562,-1.465 1.494,-1.465 1.717,0 3.691,2.873 4.567,4.115 z m 1.725,-2.846 c 0,-1.015 0.563,-1.834 1.662,-1.834 1.436,0 2.424,1.043 2.424,2.481 0,1.125 -0.677,1.832 -1.803,1.832 -1.383,0 -2.283,-1.157 -2.283,-2.479 m 26.279,18.694 -8.91,-15.241 c -2.17,-3.736 -2.284,-3.851 -3.552,-3.851 -0.342,0 -0.425,-0.731 -0.425,-0.955 0,-0.17 0.257,-0.17 0.368,-0.17 0.647,0 1.89,0.138 2.821,0.138 1.38,0 2.648,-0.138 2.819,-0.138 0.534,0 0.618,0.451 0.618,0.844 0,0.195 -0.197,0.226 -1.211,0.365 -0.423,0.058 -0.931,0.312 -0.931,0.908 0,0.791 2.311,4.787 2.735,5.637 h 6.739 c 0.141,-1.698 0.593,-3.512 0.593,-5.354 0,-1.275 -1.129,-1.275 -2.115,-1.275 -0.368,0 -0.538,-0.899 -0.538,-0.983 0,-0.113 0.197,-0.142 0.395,-0.142 1.214,0 2.426,0.138 3.638,0.138 1.213,0 2.678,-0.138 3.975,-0.138 0.311,0 0.421,0.535 0.421,0.76 0,0.111 0,0.335 -0.169,0.335 -1.745,0 -1.941,0.086 -2.199,1.59 l -2.48,17.868 -1.016,-0.168 z m -0.144,-2.534 h 0.058 l 0.931,-8.521 h -5.695 z m 24.255,-1.414 c 0.619,2.371 0.762,2.823 1.439,2.823 2.79,0 3.581,-1.188 3.581,-3.641 0,-2.229 -1.128,-5.445 -3.807,-5.445 -0.762,0 -1.55,0.255 -1.637,0.255 -0.142,0 -0.42,-0.789 -0.42,-0.927 0,-0.367 2.029,-0.592 3.381,-0.592 2.848,0 6.428,1.576 6.428,6.033 0,4.793 -4.285,5.582 -8.233,5.582 -2.507,0 -4.904,-0.224 -6.118,-0.564 -0.226,-0.086 -0.339,-0.59 -0.339,-0.899 0,-0.142 0.14,-0.142 0.252,-0.142 0.51,0.027 1.385,0.197 1.862,0.197 0.51,0 0.54,-0.508 0.54,-0.928 0,-0.199 -0.03,-0.621 -0.144,-1.047 l -3.442,-13.226 c -0.505,-2.057 -0.758,-2.623 -2.93,-2.623 -0.396,0 -0.396,-0.842 -0.396,-1.012 0,-0.084 0.057,-0.113 0.169,-0.113 0.394,0 2.454,0.138 3.751,0.138 1.918,0 3.694,-0.138 4.512,-0.138 0.506,0 0.563,0.844 0.563,0.928 0,0.083 -0.057,0.197 -0.169,0.197 -0.646,0 -2.48,0 -2.48,0.818 0,0.733 0.224,1.492 0.422,2.283 z m 16.776,-5.75 c 0.422,0 0.929,-0.226 0.929,-0.621 0,-0.873 -3.861,-7.674 -5.61,-7.674 -0.904,0 -1.1,0.481 -1.1,1.44 0,2.482 2.935,6.855 5.781,6.855 m 3.947,-6.15 c -0.425,-0.453 -1.41,-1.975 -2.059,-1.975 -0.312,0 -0.507,0.311 -0.507,0.846 0,1.242 2.903,7.928 3.666,9.984 -0.2,0.168 -0.564,0.223 -0.931,0.223 -0.369,0 -0.762,0 -0.931,-0.139 -0.337,-0.279 -0.565,-0.734 -0.874,-1.101 -0.393,0.029 -0.79,0.14 -1.186,0.14 -4.028,0 -9.808,-6.003 -9.808,-10.15 0,-1.494 0.45,-2.508 1.941,-2.508 2.485,0 5.476,4.199 6.543,6.115 h 0.059 c -0.338,-1.07 -1.326,-3.494 -1.326,-4.65 0,-0.957 0.563,-1.465 1.495,-1.465 1.72,0 3.691,2.873 4.565,4.115 z m 10.293,7.051 c 0,1.07 -1.523,1.632 -2.649,1.632 -2.483,0 -4.767,-2.363 -4.767,-4.847 0,-2.143 3.977,-3.723 3.977,-5.697 0,-0.678 -0.678,-1.413 -1.356,-1.413 -1.634,0 -1.634,1.836 -3.071,1.836 -0.592,0 -1.211,-0.507 -1.211,-1.128 0,-1.438 1.382,-2.114 2.677,-2.114 2.511,0 5.355,2.311 5.355,4.934 0,1.804 -4.371,4.203 -4.371,5.556 0,0.678 0.537,1.213 1.273,1.213 1.156,0 1.661,-1.24 3.013,-1.24 0.764,0 1.13,0.479 1.13,1.268 m 9.39,0 c 0,1.07 -1.523,1.632 -2.65,1.632 -2.483,0 -4.765,-2.363 -4.765,-4.847 0,-2.143 3.977,-3.723 3.977,-5.697 0,-0.678 -0.678,-1.413 -1.356,-1.413 -1.635,0 -1.635,1.836 -3.072,1.836 -0.591,0 -1.213,-0.507 -1.213,-1.128 0,-1.438 1.384,-2.114 2.68,-2.114 2.511,0 5.355,2.311 5.355,4.934 0,1.804 -4.371,4.203 -4.371,5.556 0,0.678 0.537,1.213 1.269,1.213 1.159,0 1.664,-1.24 3.018,-1.24 0.758,0 1.128,0.479 1.128,1.268 m 8.177,-7.221 c -0.562,-0.619 -1.748,-2.115 -2.65,-2.115 -0.338,0 -0.538,0.254 -0.538,0.648 0.004,0.906 2.962,6.856 2.962,8.717 0,0.955 -0.451,1.603 -1.463,1.603 -2.114,0 -3.694,-2.111 -5.076,-3.435 l 0.619,-0.65 c 0.564,0.453 1.412,1.552 2.172,1.552 0.284,0 0.566,-0.14 0.566,-0.425 -0.003,-0.932 -2.991,-7.616 -2.991,-8.657 0,-1.353 0.733,-1.748 1.973,-1.748 1.664,0 4.2,2.621 5.13,3.973 z m 1.522,14.354 c 0,0.96 -0.847,1.804 -1.804,1.804 -0.957,0 -1.803,-0.844 -1.803,-1.804 0,-0.958 0.846,-1.805 1.803,-1.805 0.957,0 1.804,0.847 1.804,1.805 m 8.35,-5.501 c -4.263,0 -7.415,-4.056 -7.415,-8.148 0,-2.877 1.774,-5.215 4.818,-5.215 4.26,0 7.417,4.059 7.417,8.149 0,2.877 -1.777,5.214 -4.82,5.214 m 0.083,-1.123 c 1.269,0 1.637,-1.156 1.637,-2.484 0,-2.059 -1.325,-8.629 -4.262,-8.629 -1.296,0 -1.776,0.901 -1.776,2.481 0,1.691 1.327,8.632 4.401,8.632 m 7.249,-3.16 c 0.253,0.367 0.873,1.383 1.41,1.383 0.593,0 0.79,-0.48 0.79,-0.988 0,-1.606 -3.104,-8.119 -3.104,-8.686 0,-0.619 1.185,-0.646 1.639,-0.646 0.223,0 1.014,0.027 1.099,0.31 0.308,1.071 0.844,2.141 1.24,3.186 0.673,1.721 2.819,7.726 5.467,7.726 0.566,0 0.933,-0.253 0.933,-0.732 -0.003,-0.936 -2.875,-7.391 -2.875,-8.941 0,-1.071 0.392,-1.692 1.492,-1.692 2.143,0 3.946,2.395 5.241,3.83 l -0.62,0.594 c -0.535,-0.478 -1.495,-1.889 -2.283,-1.889 -0.366,0 -0.564,0.198 -0.564,0.567 0.004,1.496 2.71,6.629 2.71,8.293 0,1.181 -0.762,1.968 -2.087,1.968 -2.708,0 -4.654,-2.251 -6.121,-4.283 h -0.057 c 0.171,0.819 0.479,1.666 0.479,2.51 0,0.928 -0.283,1.773 -1.379,1.773 -1.971,0 -3.129,-2.363 -4.061,-3.773 z m 31.494,9.25 c 0.112,0.422 0.282,0.621 0.793,0.621 4.088,0 5.103,-0.029 5.103,-1.468 0,-0.45 -0.082,-0.873 -0.082,-1.381 0,-0.086 0.109,-0.197 1.095,-0.197 0.086,0 0.114,0.085 0.114,0.14 0,0.254 1.016,3.721 1.016,3.891 0,0.168 -0.084,0.281 -0.199,0.281 -2.366,-0.057 -4.457,-0.139 -7.105,-0.139 -2.395,0 -6.202,0.139 -6.512,0.139 -0.253,0 -0.425,-0.873 -0.425,-0.986 0,-0.057 0.057,-0.141 0.172,-0.141 h 1.012 c 0.96,0 1.386,-0.393 1.386,-0.902 0,-0.393 -0.115,-0.846 -0.254,-1.352 l -3.019,-11.056 c -0.282,-1.014 -1.043,-3.217 -1.383,-3.666 -0.479,-0.622 -1.409,-0.678 -2.227,-0.678 -0.197,0 -0.283,-0.731 -0.283,-0.928 0,-0.113 0.058,-0.197 0.171,-0.197 0.311,0 2.904,0.138 4.341,0.138 1.241,0 3.864,-0.138 4.061,-0.138 0.308,0 0.422,0.898 0.422,0.984 0,0.111 -0.056,0.141 -0.142,0.141 -0.815,0 -2.393,0 -2.393,0.818 0,0.254 0.394,1.693 0.791,3.19 l 1.322,4.877 h 3.327 c 0.987,0 1.101,-0.506 1.101,-0.762 0,-0.563 -0.336,-1.465 -0.336,-1.635 0,-0.172 0.222,-0.199 1.15,-0.199 0.142,0 0.252,0.058 0.252,0.142 0.059,0.592 0.397,1.948 0.819,3.188 0.394,1.236 0.79,2.281 0.79,2.338 0,0.197 -0.958,0.197 -1.128,0.197 -0.11,0 -0.139,-0.027 -0.169,-0.111 -0.45,-1.299 -0.733,-1.891 -1.8,-1.891 h -3.669 z m 13.679,-4.967 c -4.26,0 -7.414,-4.056 -7.414,-8.148 0,-2.877 1.774,-5.215 4.819,-5.215 4.259,0 7.416,4.059 7.416,8.149 0,2.877 -1.775,5.214 -4.821,5.214 m 0.084,-1.123 c 1.271,0 1.635,-1.156 1.635,-2.484 0,-2.059 -1.323,-8.629 -4.259,-8.629 -1.297,0 -1.778,0.901 -1.778,2.481 0,1.691 1.327,8.632 4.402,8.632 m 11.646,-5.781 c 0.338,0.959 1.802,4.174 2.873,4.174 0.623,-0.004 1.099,-0.592 1.975,-0.592 0.931,0 1.185,1.293 1.185,1.998 0,0.903 -0.591,1.324 -1.353,1.324 -2.538,0 -3.834,-3.294 -4.822,-5.128 h -0.056 c 0.167,1.015 0.479,2.029 0.479,3.043 0,1.156 -0.339,2.085 -1.635,2.085 -1.689,0 -3.071,-2.451 -3.693,-3.773 l 0.652,-0.396 c 0.253,0.337 0.872,1.269 1.38,1.269 0.705,0 0.762,-0.394 0.762,-1.016 0,-1.888 -2.568,-7.416 -2.568,-8.601 0,-0.592 1.158,-0.703 1.636,-0.703 0.789,0 1.016,0.338 1.327,1.213 z m 21.432,10.121 c 0.622,2.371 0.761,2.823 1.439,2.823 2.791,0 3.58,-1.188 3.58,-3.641 0,-2.229 -1.128,-5.445 -3.804,-5.445 -0.762,0 -1.553,0.255 -1.638,0.255 -0.14,0 -0.422,-0.789 -0.422,-0.927 0,-0.367 2.029,-0.592 3.383,-0.592 2.849,0 6.425,1.576 6.425,6.033 0,4.793 -4.281,5.582 -8.23,5.582 -2.509,0 -4.905,-0.224 -6.119,-0.564 -0.225,-0.086 -0.337,-0.59 -0.337,-0.899 0,-0.142 0.14,-0.142 0.253,-0.142 0.509,0.027 1.381,0.197 1.862,0.197 0.508,0 0.534,-0.508 0.534,-0.928 0,-0.199 -0.026,-0.621 -0.142,-1.047 l -3.438,-13.226 c -0.508,-2.057 -0.762,-2.623 -2.933,-2.623 -0.395,0 -0.395,-0.842 -0.395,-1.012 0,-0.084 0.057,-0.113 0.169,-0.113 0.395,0 2.455,0.138 3.753,0.138 1.917,0 3.691,-0.138 4.51,-0.138 0.507,0 0.562,0.844 0.562,0.928 0,0.083 -0.055,0.197 -0.168,0.197 -0.649,0 -2.482,0 -2.482,0.818 0,0.733 0.226,1.492 0.422,2.283 z m 17.877,-13.084 c -0.871,-0.902 -1.975,-1.666 -3.3,-1.666 -1.692,0 -2.453,1.213 -2.453,2.793 0,0.537 0.114,1.272 0.197,1.524 2.791,0.086 8.091,1.127 8.091,4.736 0,1.721 -1.831,2.48 -3.322,2.48 -4.912,0 -8.065,-5.13 -8.065,-9.105 0,-2.512 1.464,-4.258 4.311,-4.258 2.342,0 3.838,1.156 5.16,2.987 z m -5.359,3.778 c 0.423,1.494 2.285,4.966 4.033,4.966 0.903,0 1.131,-0.679 1.131,-1.099 0,-2.711 -2.936,-3.811 -5.164,-3.867 m 9.421,1.806 c 0.254,0.367 0.872,1.383 1.411,1.383 0.591,0 0.789,-0.48 0.789,-0.988 0,-1.606 -3.101,-8.119 -3.101,-8.686 0,-0.619 1.183,-0.646 1.634,-0.646 0.224,0 1.016,0.027 1.099,0.31 0.31,1.071 0.848,2.141 1.24,3.186 0.678,1.721 2.818,7.726 5.471,7.726 0.565,0 0.931,-0.253 0.931,-0.732 -0.002,-0.936 -2.875,-7.391 -2.875,-8.941 0,-1.071 0.394,-1.692 1.493,-1.692 2.139,0 3.944,2.395 5.242,3.83 l -0.62,0.594 c -0.535,-0.478 -1.493,-1.889 -2.284,-1.889 -0.367,0 -0.563,0.198 -0.563,0.567 0,1.496 2.705,6.629 2.705,8.293 0,1.181 -0.758,1.968 -2.081,1.968 -2.709,0 -4.657,-2.251 -6.124,-4.283 h -0.058 c 0.17,0.819 0.482,1.666 0.482,2.51 0,0.928 -0.282,1.773 -1.38,1.773 -1.973,0 -3.129,-2.363 -4.061,-3.773 z m 24.194,-5.302 c -0.96,-0.987 -1.916,-1.776 -3.356,-1.776 -2.061,0 -2.711,1.465 -2.711,3.354 0,2.427 1.75,6.884 4.741,6.884 1.045,0 1.017,-0.679 1.017,-1.468 0,-0.789 0.196,-1.578 1.548,-1.578 0.901,0 1.55,0.73 1.55,1.55 0,2.032 -2.114,2.619 -3.803,2.619 -4.487,0 -8.153,-4.396 -8.153,-8.71 0,-2.991 1.635,-4.653 4.652,-4.653 2.173,0 4.036,1.522 5.19,3.211 z m 10.289,0.732 c -0.562,-0.619 -1.746,-2.115 -2.649,-2.115 -0.34,0 -0.539,0.254 -0.539,0.648 0.004,0.906 2.961,6.856 2.961,8.717 0,0.955 -0.45,1.603 -1.463,1.603 -2.114,0 -3.695,-2.111 -5.074,-3.435 l 0.62,-0.65 c 0.564,0.453 1.41,1.552 2.171,1.552 0.283,0 0.565,-0.14 0.565,-0.425 -0.005,-0.932 -2.991,-7.616 -2.991,-8.657 0,-1.353 0.732,-1.748 1.973,-1.748 1.663,0 4.199,2.621 5.129,3.973 z m 1.523,14.354 c 0,0.96 -0.846,1.804 -1.803,1.804 -0.958,0 -1.806,-0.844 -1.806,-1.804 0,-0.958 0.848,-1.805 1.806,-1.805 0.957,0 1.803,0.847 1.803,1.805 m 3.215,1.638 c 0.62,0 2.424,-0.029 2.424,-0.986 0,-1.467 -5.016,-16.274 -5.016,-18.162 0,-0.987 0.815,-1.354 1.719,-1.354 2,0 4.115,2.535 5.214,3.891 l -0.648,0.592 c -0.536,-0.508 -1.664,-2.088 -2.453,-2.088 -0.34,0 -0.564,0.338 -0.564,0.676 0,1.015 5.019,17.289 5.725,19.146 l -0.311,0.283 c -1.918,-0.648 -3.918,-0.873 -5.92,-1.07 z M 495.138,2.68 c 0,1.07 -1.522,1.632 -2.647,1.632 -2.485,0 -4.764,-2.363 -4.764,-4.847 0,-2.143 3.974,-3.723 3.974,-5.697 0,-0.678 -0.676,-1.413 -1.356,-1.413 -1.635,0 -1.635,1.836 -3.07,1.836 -0.592,0 -1.213,-0.507 -1.213,-1.128 0,-1.438 1.382,-2.114 2.676,-2.114 2.511,0 5.357,2.311 5.357,4.934 0,1.804 -4.371,4.203 -4.371,5.556 0,0.678 0.537,1.213 1.272,1.213 1.157,0 1.664,-1.24 3.015,-1.24 0.76,0 1.127,0.479 1.127,1.268 m 0.82,-9.897 c 0,-1.015 0.566,-1.834 1.664,-1.834 1.438,0 2.424,1.043 2.424,2.481 0,1.125 -0.679,1.832 -1.805,1.832 -1.381,0 -2.283,-1.157 -2.283,-2.479"
               style="fill:#231f20;fill-opacity:1;fill-rule:nonzero;stroke:none"
               id="path5542" />
          </g>
        </g>
      </g>
    </g>
  </g>
</svg>
