<?xml version="1.0" encoding="UTF-8"?>
<svg width="79.375mm" height="21.633mm" version="1.1" viewBox="0 0 79.375 21.633" xmlns="http://www.w3.org/2000/svg" xmlns:cc="http://creativecommons.org/ns#" xmlns:dc="http://purl.org/dc/elements/1.1/" xmlns:rdf="http://www.w3.org/1999/02/22-rdf-syntax-ns#">
 <metadata>
  <rdf:RDF>
   <cc:Work rdf:about="">
    <dc:format>image/svg+xml</dc:format>
    <dc:type rdf:resource="http://purl.org/dc/dcmitype/StillImage"/>
    <dc:title/>
   </cc:Work>
  </rdf:RDF>
 </metadata>
 <g transform="matrix(.12354 0 0 .12354 0 .012985)">
  <path class="st0" d="m204.2 156.3v-62.2h-8v26.8h-27.6v-26.8h-8v62.2h8v-28.2h27.6v28.2zm47.7-31.7c0-9.7-4.3-14.8-17.3-14.8-4.9 0-10.7 0.8-14.9 2l0.8 6.3c3.6-0.7 9.3-1.5 13.6-1.5 7.4 0 9.9 2 9.9 7.7v7.1h-12.1c-9.2 0-13.9 3.4-13.9 12.8 0 8 3.6 13.1 12.1 13.1 5.5 0 10.7-1.5 14.8-4.3l0.5 3.4h6.6v-31.8zm-7.9 22.2c-3.5 2.2-7.8 3.7-11.8 3.7-5.6 0-6.4-1.9-6.4-6.5s1.8-6.1 6.6-6.1h11.6zm57 9.5v-34.9c0-7-2.6-11.6-9.9-11.6-5.3 0-12.5 2.3-17.6 4.8v-23.5l-7.8 1.1v64.1h7.8v-34.3c4.9-2.5 11.9-4.7 15.2-4.7 2.9 0 4.4 1.2 4.4 4.2v34.8zm49.8 0v-34.9c0-7-2.6-11.6-9.9-11.6-5.4 0-13.3 2.4-18.3 4.9l-0.7-3.9h-6.4v45.5h7.8v-34.4c4.9-2.5 11.9-4.6 15.2-4.6 2.9 0 4.4 1.2 4.4 4.2v34.8zm20-15.9v-3.8h27.1v-9.5c0-9.4-3.6-17.2-17.1-17.2s-17.8 7.6-17.8 17v13.6c0 10.3 4.6 16.7 18 16.7 5.7 0 11.8-1 16.1-2.6l-1-6.3c-5 1.3-9.9 2.1-14.4 2.1-8.9 0.1-10.9-2.8-10.9-10zm0-14.1c0-6.4 2.6-9.9 10-9.9s9.5 3.6 9.5 9.9v3.7h-19.5zm102.2 30v-34.9c0-7-2.6-11.6-9.9-11.6-5.7 0-13.4 2.2-18.8 4.9-1.3-3.1-4-4.9-8.7-4.9-5.4 0-13.3 2.4-18.3 4.9l-0.7-3.9h-6.4v45.5h7.8v-34.4c4.9-2.5 11.9-4.6 15.2-4.6 2.9 0 4.4 1.2 4.4 4.2v34.8h7.8v-34.4c4.9-2.5 11.5-4.6 15.2-4.6 2.9 0 4.4 1.2 4.4 4.2v34.8zm14.1-45.5v34.9c0 7 2.6 11.6 9.9 11.6 5.4 0 13.3-2.4 18.3-4.9l0.7 3.9h6.4v-45.5h-7.8v34.4c-4.9 2.5-11.9 4.6-15.2 4.6-2.9 0-4.4-1.2-4.4-4.2v-34.8zm6.3-6.9h7.3v-7.8h-7.3zm16.2 0h7.3v-7.8h-7.3zm63 52.4v-34.9c0-7-2.6-11.6-9.9-11.6-5.3 0-12.5 2.3-17.6 4.8v-23.5l-7.8 1.1v64.1h7.8v-34.3c4.9-2.5 11.9-4.7 15.2-4.7 2.9 0 4.4 1.2 4.4 4.2v34.8zm22.4 0v-65.2l-7.8 1.1v64.1zm20.4-15.9v-3.8h27.1v-9.5c0-9.4-3.6-17.2-17.1-17.2s-17.8 7.6-17.8 17v13.6c0 10.3 4.6 16.7 18 16.7 5.7 0 11.8-1 16.1-2.6l-1-6.3c-5 1.3-9.9 2.1-14.4 2.1-8.9 0.1-10.9-2.8-10.9-10zm0-14.1c0-6.4 2.6-9.9 10-9.9s9.5 3.6 9.5 9.9v3.7h-19.5z"/>
  <path class="st1" d="m125.7 69.9c-0.7-8.4-4.4-15.7-10.4-20.6-5.4-4.4-12.2-6.5-18.8-5.7-8.1 0.9-14.8 7.1-19 12.1-4.7 5.6-7.9 11.7-9.6 16.1-4.2-3.6-6.9-7.9-8.1-13.2-1.1-4.5-2.2-13.4-3.1-19.8-0.6-4.3-1-7.7-1.3-8.9-0.9-4-3.5-10.7-5.2-14.2 3.7-0.8 6.6-1.7 9.4-4.4 2.8-2.8 7.3-7.1 7.4-7.1l2.7-2.6-3.7-0.3c-0.8-0.1-19.8-1.5-23-1.4-2.3 0.1-5 1.3-7.3 3.4-1.8 1.6-4.2 4.4-5.9 8.9-1.7 0.3-17.2 3.3-17.2 3.3v3.3l1.3 0.3c4.8 1.1 10.9 3.6 14.6 6.3l-0.2 0.1c-3.1 2-7.3 4.8-10.8 8-4.5 4.1-6.6 7.7-6.3 10.9 0.2 2.2 1.2 4 2.8 5.1 1.3 0.9 2.9 1.3 4.7 1.3-2.1 3.8-3.3 6.6-4.2 9.4-1.1 3.9-1.5 7.7-1 12.5 0.6 7.4 4.4 14.8 8.7 21.2h-22.2v51.3c0 4.6 1 9 3 12.9 1.8 3.6 4.4 6.7 7.6 9.4 5.8 4.7 13.5 7.5 20.7 7.5s14.9-2.8 20.7-7.5c3.2-2.6 5.8-5.8 7.6-9.4 1.8-3.5 2.8-7.4 3-11.5 0.4-6.8 2.8-17 6.4-24.9 4.1-9 9.5-13.7 16.5-14.3 3.8-0.3 7.5 0.2 10.7 1.7 2.7 1.2 5.2 3 7.3 5.3 3.8 4 5.6 8.5 5.8 9.4v-0.1l1.3 4.2 1.8-3.6c2.9-6 7-15.4 10-26.4 2.9-10.4 4-19.9 3.3-28zm-101.2 27.5 0.7 1c2.4 3.1 4.8 5.8 6.8 7.9l4.6 4.9c7.4 7.7 13.2 13.8 15.8 18.3 3.4 5.8 5.9 11.5 6.7 15.7 0.1 0.4 0.2 1.3 0.2 1.6-0.4 9.2-5.3 15-9.4 18.4-5.2 4.3-12.2 6.8-18.6 6.8-6.5 0-13.4-2.5-18.6-6.8-4.3-3.5-9.4-9.8-9.4-19.7v-48h21.2zm5.5-69.1 0.8-0.5c0.5 0.7 0.9 1.4 0.9 2.1 0.2 2.6-2.1 5.4-5 9-1.9 2.4-4.1 5.1-6.2 8.4-2 0.5-3.8 0.3-4.9-0.5-0.8-0.6-1.3-1.5-1.4-2.7-0.2-2.1 1.6-4.9 5.2-8.2 3.5-2.9 7.6-5.6 10.6-7.6zm89.3 68.9c-2.4 8.8-5.5 16.7-8.2 22.4-1.1-2.1-2.7-4.6-4.9-7-3.9-4.3-10.7-9.1-21-8.2-4.4 0.4-8.4 2.2-11.8 5.3-2.8 2.6-5.3 6.3-7.4 10.9-2.5 5.6-4.2 11.9-5.5 17.8-1.3-3.3-3-6.9-5.2-10.6-2.9-4.8-8.8-11-16.3-18.9l-4.6-4.9c-4.9-5.2-9.1-10.6-12.1-15.7-3.3-5.7-5.3-11-5.7-15.6-0.4-4.4-0.1-7.8 0.9-11.3 0.9-3.2 2.5-6.5 5.4-11.4 2-3.5 4.3-6.3 6.4-8.8 3.4-4.2 6-7.5 5.7-11.4-0.3-3.2-3-6.2-8.2-9-2.3-1.2-4.8-2.3-7.2-3.1 5-1 11.6-2.2 11.6-2.2l1-0.2 0.3-0.9c2.4-7.6 7.6-11 10.5-11.1 2-0.1 11.8 0.6 18.9 1.1-1.5 1.4-3.3 3.2-4.7 4.6-2.3 2.3-4.8 2.9-8.6 3.7l-3.6 0.9 1.4 2c0.7 1.1 4.6 10.1 5.8 15.1 0.3 1.1 0.7 4.6 1.2 8.6 0.9 6.9 2 15.5 3.2 20.2 1.6 6.7 5 12 10.9 16.4l1.9 1.4 0.3-1.2c1.6-5.3 6-13 10.3-18.1 3.8-4.6 9.8-10.2 16.8-11 5.7-0.7 11.7 1.2 16.4 5 5.3 4.3 8.6 10.8 9.2 18.3 0.7 7.6-0.4 16.7-3.1 26.9zm-76.2-79.1c-0.2-2.6-2.6-4.6-5.2-4.3-2.6 0.2-4.6 2.6-4.3 5.2 0.2 2.6 2.6 4.6 5.2 4.3s4.5-2.6 4.3-5.2zm-3.3 0.3c0.1 0.8-0.5 1.5-1.3 1.6s-1.5-0.5-1.6-1.3 0.5-1.5 1.3-1.6c0.8-0.2 1.5 0.4 1.6 1.3zm-12.5 133.1v0.7c0 1.1-0.1 1.6-2.1 1.6-1 0-2.2-0.1-3.3-0.4l-0.3 2.2c1 0.3 2.3 0.5 3.7 0.5 3.9 0 4.7-1.4 4.7-3.7v-1.3c0-1.9-0.8-3.2-3.3-3.3-0.8 0-1.2-0.1-1.9-0.1v-3.5h5v-2.2h-7.8v7.9c1.1 0 1.9 0 3.4 0.1 1.6 0.1 1.9 0.5 1.9 1.5zm-16 4.4h8.3v-2.2h-2.9v-11.7h-2.4l-3.5 1.1 0.6 2.2 2.7-0.8v9.1h-2.8zm20.8-4.3v0.9c0 2.5 1.2 3.6 4.6 3.6s4.6-1 4.6-3.6v-0.9c0-1.2-0.4-2-2-2.8 1.4-0.8 1.7-1.6 1.7-2.7v-1c0-2.1-1.1-3.4-4.2-3.4s-4.2 1.3-4.2 3.4v1c0 1.1 0.4 1.9 1.7 2.7-1.8 0.8-2.2 1.7-2.2 2.8zm6.3-5.4c0 0.8-0.2 1.1-1.7 1.7-1.5-0.6-1.7-0.9-1.7-1.7v-0.9c0-0.9 0.3-1.3 1.7-1.3s1.7 0.5 1.7 1.3zm-3.8 5.7c0-0.9 0.2-1.3 2-2 1.8 0.7 2 1.1 2 2v0.6c0 1.1-0.5 1.4-2 1.4s-2-0.4-2-1.4zm13.1-9.9-5 8.4v2.4h6.1v3.1h2.6v-3.1h1.7v-2.2h-1.7v-8.6zm-2.3 8.6 3.4-6.1v6.1z"/>
 </g>
 <style type="text/css">.st0{fill:#6F7072;}
	.st1{fill:#E1001A;}</style>
</svg>
