<?xml version="1.0" encoding="UTF-8"?>
<svg width="79.375mm" height="14.747mm" version="1.1" viewBox="0 0 79.375 14.747" xmlns="http://www.w3.org/2000/svg" xmlns:cc="http://creativecommons.org/ns#" xmlns:dc="http://purl.org/dc/elements/1.1/" xmlns:rdf="http://www.w3.org/1999/02/22-rdf-syntax-ns#">
 <metadata>
  <rdf:RDF>
   <cc:Work rdf:about="">
    <dc:format>image/svg+xml</dc:format>
    <dc:type rdf:resource="http://purl.org/dc/dcmitype/StillImage"/>
    <dc:title/>
   </cc:Work>
  </rdf:RDF>
 </metadata>
 <g transform="matrix(.37967 0 0 .37967 6.5781 -38.268)" stroke-width=".1041">
  <path d="m2.7786 129.77-9.8598-9.8631 19.083-19.115 8.3404 8.3404-10.721 10.722 11.398 11.4-8.3807 8.3788zm30.368 9.1733-0.31229-0.0466-1.6656-0.32638-1.6656-0.52154-1.6173-0.8044-1.1933-0.83079-0.86297-0.78791-0.96257-1.2099-0.7008-1.3925-0.21696-0.70308-0.21696-0.70309-0.11266-1.1186-0.11266-1.1186 0.06266-11.555 10.036-0.054 0.06152 12.025 0.41639 0.70692 0.58316 0.43468 1.1865-8e-3 0.64856-0.34451 0.19621-0.39495 0.19621-0.39494 0.05852-12.023h10.102l-0.03572 6.6883-0.03572 6.6883-0.46462 1.6656-0.83427 1.6656-0.51984 0.6502-0.51984 0.65019-1.334 1.1004-0.77701 0.44458-0.77701 0.44457-2.052 0.73444-0.93688 0.20948-0.93688 0.20947-4.3721 0.066zm46.011-0.093-0.93688-0.15099-1.8477-0.5281-1.4991-0.62408-1.754-1.0686-1.9779-1.998-0.90162-1.6018-0.26478-0.76056-0.26478-0.76057-0.27916-1.5615-0.0072-2.5231 0.15279-0.87245 0.15279-0.87244 0.49748-1.4574 0.3414-0.67664 0.3414-0.67663 0.84276-1.2492 1.7053-1.6656 1.8166-1.131 1.7291-0.69426 1.5872-0.40594 1.8155-0.24244 3.1229 0.1114 1.6656 0.35071 1.8738 0.60165 1.5615 0.78921 0.62459 0.41378 0.62459 0.41379 1.7423 1.6669 1.213 1.8409 0.61992 1.4902 0.21845 0.83278 0.21845 0.83278 0.11639 1.2597 0.11639 1.2597-0.14254 0.75974h-14.564v0.69045l0.22715 1.2288 0.19416 0.38057 0.19415 0.38057 0.32159 0.2706 0.32159 0.27061 0.4366 0.11756 0.43661 0.11757 0.93212-0.1278 0.38357-0.25384 0.38357-0.25383 0.28271-0.57785 0.28271-0.57784h9.7868l-0.06684 0.33831-0.06683 0.33832-0.3654 0.77149-0.36541 0.7715-0.91504 1.2823-1.2784 1.1836-1.184 0.8034-1.5615 0.78581-0.67664 0.25598-0.67664 0.25597-2.186 0.51959-4.1639 0.0772-0.93688-0.15099zm4.8405-13.517v-0.24716l-0.15819-0.44835-0.15819-0.44836-0.25529-0.3347-0.25529-0.33471-0.54384-0.271-0.54384-0.27101-0.94805 4e-3 -0.84914 0.38566-0.47099 0.5987-0.13972 0.33433-0.13972 0.33434-0.14168 0.94484h4.6039v-0.24716zm36.146 13.466-0.75684-0.1983-1.6778-0.8729-1.664-1.5654-0.92358-1.2943-1.0305-2.1573-0.52038-1.9778-0.12257-0.93688-0.12259-0.93688 0.0665-1.2492 0.0665-1.2492 0.19771-0.88483 0.19772-0.88483 0.53614-1.5332 0.46399-0.87222 0.464-0.87222 0.94028-1.222 1.5124-1.4003 2.0888-1.0124 0.87799-0.17459 0.87799-0.17458 2.512 0.1036 1.7491 0.58562 1.4779 0.96642 1.0412 1.1417-0.0374-1.1772-0.0374-1.1772h9.9118v20.82h-9.9139l0.0435-1.3272 0.0435-1.3272-0.68183 0.65932-0.68185 0.65931-0.63805 0.45991-0.63805 0.4599-0.59716 0.2641-0.59717 0.26409-0.63855 0.15059-0.63854 0.15058-2.3942-8e-3 -0.75684-0.1983zm7.0201-7.9963 0.41871-0.21361 0.63387-0.72195 0.18805-0.55602 0.18806-0.55601-6e-3 -0.72868-6e-3 -0.72869-0.15796-0.37191-0.15795-0.37191-0.34077-0.38811-0.34077-0.38812-0.28621-0.148-0.28621-0.14801-0.49515-0.11096-0.49514-0.11097-1.0977 0.22789-0.79595 0.57699-0.60624 1.115-0.0954 1.4879 0.17393 0.5983 0.17393 0.59831 0.85064 0.92282 0.9606 0.30832 1.1602-0.079 0.41871-0.21361zm49.446 7.9968-1.1285-0.20495-1.0754-0.35984-1.0754-0.35985-0.65879-0.33119-0.65878-0.33119-1.1451-0.75381-0.82014-0.78092-0.82013-0.78092-0.38877-0.57253-0.38877-0.57254-0.32558-0.64576-0.3256-0.64576-0.26548-0.91571-0.26549-0.9157-0.0833-1.0657-0.0833-1.0657 0.158-2.0325 0.16295-0.70134 0.16293-0.70133 0.62396-1.618 0.51529-0.83732 0.5153-0.83733 1.3719-1.4818 1.4013-1.0385 0.78073-0.42055 0.78074-0.42055 1.1106-0.37127 1.1106-0.37126 1.0754-0.16467 1.0754-0.16466 3.3311 0.1112 1.9315 0.4142 1.3996 0.45792 1.7872 0.87927 1.2861 0.87338 1.3729 1.2843 0.928 1.206 0.46391 0.87206 0.46391 0.87207 0.26151 0.76677 0.2615 0.76677 0.15278 0.87244 0.1528 0.87244v2.367h-14.604l0.1286 1.5094 0.17226 0.50404 0.17226 0.50405 0.33273 0.33272 0.33272 0.33272 0.84202 0.25228 0.70454-4e-3 0.42714-0.19399 0.42714-0.19398 0.55632-0.59639 0.11794-0.39037 0.11793-0.39036h9.8563v0.1756l-0.4187 1.217-0.32394 0.5789-0.32393 0.57891-0.57159 0.71177-0.57159 0.71176-1.6517 1.3061-2.02 1.0474-1.6386 0.55762-0.89831 0.20961-0.89832 0.2096-4.268 0.0824-1.1285-0.20495zm5.0925-13.662-0.0704-0.44242-0.29225-0.52049-0.29224-0.52048-0.96798-0.60321-1.0436-0.1002-0.92342 0.35266-0.62535 0.71223-0.16062 0.54085-0.16061 0.54085v0.4827h4.6069zm-198.37 7.5731v-5.8815h11.763v11.763h-11.763zm67.351-4.5292v-10.411l10.15 0.054-0.0225 0.32584-0.14782 2.1725 0.67743-0.83278 1.0544-1.001 1.4574-0.7135 0.62459-0.16797 0.62459-0.16796 2.7586-0.1108v8.6586l-2.0299-0.1164-0.78073 0.16553-0.78073 0.16552-1.291 0.65288-1.1557 1.1465-0.61627 1.0771-0.1601 0.61467-0.1601 0.61468v8.2841h-10.202zm47.781 4.0608v-6.35h-2.3942v-8.024l2.3914 0.143 0.02746-3.4244 0.02747-3.4244h10.202l0.055 6.849 3.3282-0.1462v8.0271h-3.3311v12.7h-10.306zm43.721-9.4729v-15.823h10.097l4e-3 18.477 0.75298-1.415 0.75298-1.415 2.6024-4.8187 10.692-2e-3 -0.112 0.29202-6.3509 9.9154 6.857 10.52v0.0944l-10.842-0.0538-4.3037-7.4148-0.0546 7.4668h-10.095v-15.823zm-154.12-7.7658-0.2082-0.0506-0.78073-0.26689-0.78073-0.2669-1.3978-0.92548-1.1287-1.2472-0.37592-0.7502-0.37592-0.7502-0.17509-0.67664-0.17509-0.67663 0.0044-0.93688 0.0043-0.93688 0.17933-0.67664 0.17933-0.67663 0.4141-0.79735 0.4141-0.79734 1.2508-1.2823 0.63492-0.41037 0.63492-0.41036 0.84094-0.27739 0.84094-0.27738h2.3942l0.84094 0.27738 0.84094 0.27739 1.2328 0.81796 0.7535 0.69368 0.73167 0.93688 0.31698 0.63291 0.31698 0.63291 0.3061 1.2325 0.1285 1.0642-0.10758 0.76914-0.10758 0.76914-0.42562 1.2888-0.8148 1.2607-0.86833 0.94203-1.3749 0.90851-0.78073 0.28695-0.78073 0.28694-2.3942 0.0628z" fill="#c9c9c9"/>
  <path d="m2.7756 129.77-9.7589-9.7594v-0.20821l18.945-18.945 8.3282 8.3262-10.669 10.671 11.294 11.295v0.20847l-8.1726 8.1707h-0.20763zm30.319 9.1322-0.67664-0.0934-1.5615-0.34542-1.7697-0.62315-1.041-0.52385-1.5074-1.0386-1.3364-1.4167-0.84563-1.4234-0.21799-0.62358-0.218-0.62359-0.14935-0.76386-0.14935-0.76387v-12.786h9.9934l0.0092 11.607 0.17762 0.51202 0.17761 0.51202 0.56974 0.41984 1.1999 0.077 0.36434-0.18789 0.36434-0.18788 0.23422-0.46447 0.23422-0.46448v-11.823h10.097l-0.001666 11.815-0.10428 0.93688-0.10428 0.93688-0.43339 1.4484-0.69776 1.3856-1.1347 1.415-1.5316 1.2214-1.7756 0.91761-1.6522 0.55462-0.99262 0.20489-0.99262 0.20488-3.8516 0.0772-0.67664-0.0934zm46.844 0.0344-0.36434-0.039-1.7621-0.32008-0.9927-0.31738-0.9927-0.31739-1.6656-0.83562-1.1649-0.79056-1.1711-1.0703-0.48342-0.643-0.48342-0.64301-0.83087-1.6523-0.25713-0.99555-0.25713-0.99554-0.05867-1.2585-0.05867-1.2585 0.12431-0.87554 0.12431-0.87554 0.42666-1.5615 0.33883-0.73779 0.33883-0.73778 1.0551-1.5636 1.302-1.302 1.4717-1.0391 1.5615-0.78682 1.6219-0.54213 1.8133-0.36468 3.7475 0.012 1.093 0.2321 1.093 0.23211 0.78073 0.26567 0.78073 0.26568 1.8699 0.95862 1.5907 1.1987 0.58642 0.6334 0.58642 0.63341 0.80316 1.184 0.3384 0.67114 0.33839 0.67113 0.15154 0.42189 0.15154 0.4219 0.20848 0.78073 0.20847 0.78073 0.1169 3.175h-14.602v0.99723l0.16072 0.62044 0.16072 0.62043 0.2488 0.37775 0.2488 0.37776 0.91225 0.44161 1.0273-4e-3 0.85695-0.38916 0.53216-0.69929 0.14288-0.57254h9.8807l-0.07032 0.23422-0.07033 0.23422-0.28082 0.67861-0.28082 0.67861-0.90665 1.3493-1.5095 1.4574-1.7793 1.1121-0.81118 0.34914-0.81118 0.34913-1.809 0.52137-2.1734 0.32272-2.7839-0.0334zm4.0964-13.695-0.06228-0.33831-0.40189-0.93688-0.56137-0.59879-0.41639-0.19278-0.41639-0.19279-1.1034-4e-3 -0.6663 0.33606-0.57194 0.5351-0.41699 1.1145v0.61677h4.6792l-0.06228-0.33831zm36.45 13.614-0.62458-0.13623-0.63307-0.25746-0.63306-0.25747-0.56407-0.36161-0.56405-0.36162-1.184-1.0842-0.51744-0.6982-0.51742-0.69819-0.42007-0.78073-0.42005-0.78073-0.31079-0.93688-0.31078-0.93688-0.15638-0.78073-0.15637-0.78074-0.0709-0.94013-0.0709-0.94014 0.12086-1.1227 0.12088-1.1227 0.24351-0.95603 0.24351-0.95602 0.40929-0.9468 0.4093-0.9468 0.48909-0.7357 0.4891-0.73571 0.97373-1.083 1.3646-1.0337 0.72869-0.34845 0.72868-0.34844 1.3415-0.34358 1.801-0.1166 1.7348 0.25366 1.3148 0.47725 1.1916 0.70312 1.4253 1.4283-0.0732-1.1566-0.0732-1.1566h9.9189v20.715h-9.9204l0.0724-1.3717 0.0724-1.3717-1.6296 1.5569-0.9867 0.67886-0.65759 0.30773-0.6576 0.30772-0.71957 0.15245-0.71957 0.15243-1.9778-0.012-0.62459-0.13623zm6.8842-8.1333 0.4846-0.30198 0.29719-0.52849 0.29717-0.5285 0.11713-0.58326 0.11714-0.58326-0.071-0.5686-0.071-0.56859-0.33224-0.54806-0.33222-0.54805-1.1451-0.64397-1.4574 8e-5 -0.46357 0.26021-0.46358 0.2602-0.6807 0.89358-0.11829 0.43804-0.1183 0.43804 0.0912 1.6656 0.26677 0.52049 0.26676 0.52049 0.39059 0.35289 0.46657 0.21817 0.46656 0.21817 1.5071-0.0812zm49.953 8.1671-0.72868-0.0927-2.139-0.51416-1.8167-0.75019-0.62459-0.37399-0.62458-0.374-0.57254-0.43652-0.57254-0.43653-1.0803-1.145-0.5172-0.79226-0.5172-0.79227-0.52856-1.4081-0.16854-0.62458-0.16854-0.62459-0.0592-1.4702-0.0592-1.4702 0.12714-0.86954 0.12715-0.86954 0.2619-0.83524 0.26189-0.83525 0.91011-1.7697 1.3232-1.6723 1.6002-1.2873 0.70095-0.40667 0.70096-0.40667 1.8738-0.74276 2.1861-0.47292 3.8516 8e-3 2.1212 0.45275 1.8345 0.64719 1.3533 0.6857 1.4574 1.031 1.09 0.98249 1.2529 1.6628 0.40848 0.85193 0.40848 0.85194 0.2191 0.67663 0.21911 0.67664 0.15238 0.93687 0.15238 0.93688v2.134h-14.603l0.1124 1.639 0.22293 0.50397 0.22292 0.50396 0.1782 0.20068 0.17819 0.20067 0.83278 0.38242h1.041l0.42457-0.19284 0.42458-0.19283 0.44592-0.5669 0.12808-0.35421 0.12809-0.35421h9.828l-0.0551 0.23421-0.0551 0.23422-0.87651 1.8738-0.5422 0.67664-0.5422 0.67663-1.2926 1.1064-1.4982 0.93801-0.85052 0.35871-0.85051 0.3587-1.7975 0.51577-1.041 0.15626-1.041 0.15625-2.8106-0.0252-0.72868-0.0927zm4.3979-13.782-0.0533-0.47278-0.30103-0.4869-0.30103-0.48691-0.43263-0.30406-0.43264-0.30407-0.52195-0.0502-0.52196-0.0501-0.74484 0.1398-0.75721 0.66485-0.24274 0.52124-0.24273 0.52125-1e-3 0.39037-1e-3 0.39036h4.6074l-0.0533-0.47278zm-198.28 7.6035v-5.8815h11.659v11.763h-11.659zm67.316 5.8121-0.0694-0.0694v-20.577h10.124l-0.14582 2.134-0.0492 0.26024-0.0492 0.26025 0.17964-0.26025 0.17964-0.26024 1.5757-1.567 1.3643-0.66392 1.3423-0.32533 2.6545-0.1296v8.6351l-2.2381-0.0884-1.4053 0.33-0.64443 0.32531-0.64443 0.3253-0.60698 0.60699-0.60698 0.60698-0.35996 0.7608-0.35996 0.76079-0.10418 0.72869-0.10418 0.72868-0.0042 7.5471h-9.9586zm47.816-6.2806v-6.35h-2.4983v-7.9114h2.4983v-6.7663h10.097v6.7663h3.4352v7.9114h-3.4352v12.7h-10.097zm43.617-9.4729v-15.823h10.096l0.0532 18.405 2.0194-3.7375 2.0195-3.7375h10.692l-0.55301 0.8588-0.55299 0.85881-5.3625 8.3784 0.1604 0.26174 6.6192 10.161v0.1964h-10.679l-4.3629-7.5161-0.0546 7.5161h-10.095zm-154.32-7.8675-0.71945-0.16122-0.63382-0.29022-0.63382-0.29023-0.64557-0.48896-0.64557-0.48897-0.96827-1.2881-0.2564-0.50598-0.2564-0.50598-0.20138-0.7874-0.20138-0.78741 3e-3 -1.6843 0.159-0.67664 0.159-0.67663 0.38265-0.78074 0.38265-0.78073 1.6724-1.6806 0.78065-0.38129 0.78065-0.38128 1.2409-0.31543h1.9945l1.2409 0.31543 1.4589 0.71197 1.3378 1.2106 0.96832 1.4833 0.25148 0.76779 0.25148 0.7678v2.4983l-0.23088 0.72868-0.23088 0.72869-0.78741 1.3264-1.0571 1.1012-1.3208 0.8537-0.84094 0.26742-0.84094 0.26741-1.8738 0.0846z" fill="#9fa7d2"/>
  <path d="m2.7756 129.77-9.7589-9.7594v-0.20821l18.945-18.945 8.3282 8.3262-10.669 10.671 11.294 11.295v0.20847l-8.1726 8.1707h-0.20763zm30.319 9.1322-0.67664-0.0934-1.5615-0.34542-1.7697-0.62315-1.041-0.52385-1.5074-1.0386-1.3364-1.4167-0.84563-1.4234-0.21799-0.62358-0.218-0.62359-0.14935-0.76386-0.14935-0.76387v-12.786h9.9934l0.0092 11.607 0.17762 0.51202 0.17761 0.51202 0.56974 0.41984 1.1999 0.077 0.36434-0.18789 0.36434-0.18788 0.23422-0.46447 0.23422-0.46448v-11.823h10.097l-0.001666 11.815-0.10428 0.93688-0.10428 0.93688-0.43339 1.4484-0.69776 1.3856-1.1347 1.415-1.5316 1.2214-1.7756 0.91761-1.6522 0.55462-0.99262 0.20489-0.99262 0.20488-3.8516 0.0772-0.67664-0.0934zm46.844 0.0344-0.36434-0.039-1.7621-0.32008-0.9927-0.31738-0.9927-0.31739-1.6656-0.83562-1.1649-0.79056-1.1711-1.0703-0.48342-0.643-0.48342-0.64301-0.83087-1.6523-0.25713-0.99555-0.25713-0.99554-0.05867-1.2585-0.05867-1.2585 0.12431-0.87554 0.12431-0.87554 0.42666-1.5615 0.33883-0.73779 0.33883-0.73778 1.0551-1.5636 1.302-1.302 1.4717-1.0391 1.5615-0.78682 1.6219-0.54213 1.8133-0.36468 3.7475 0.012 1.093 0.2321 1.093 0.23211 0.78073 0.26567 0.78073 0.26568 1.8699 0.95862 1.5907 1.1987 0.58642 0.6334 0.58642 0.63341 0.80316 1.184 0.3384 0.67114 0.33839 0.67113 0.15154 0.42189 0.15154 0.4219 0.20848 0.78073 0.20847 0.78073 0.1169 3.175h-14.602v0.99723l0.16072 0.62044 0.16072 0.62043 0.2488 0.37775 0.2488 0.37776 0.91225 0.44161 1.0273-4e-3 0.85695-0.38916 0.53216-0.69929 0.14288-0.57254h9.8807l-0.07032 0.23422-0.07033 0.23422-0.28082 0.67861-0.28082 0.67861-0.90665 1.3493-1.5095 1.4574-1.7793 1.1121-0.81118 0.34914-0.81118 0.34913-1.809 0.52137-2.1734 0.32272-2.7839-0.0334zm4.0964-13.695-0.06228-0.33831-0.40189-0.93688-0.56137-0.59879-0.41639-0.19278-0.41639-0.19279-1.1034-4e-3 -0.6663 0.33606-0.57194 0.5351-0.41699 1.1145v0.61677h4.6792l-0.06228-0.33831zm36.45 13.614-0.62458-0.13623-0.63307-0.25746-0.63306-0.25747-0.56407-0.36161-0.56405-0.36162-1.184-1.0842-0.51744-0.6982-0.51742-0.69819-0.42007-0.78073-0.42005-0.78073-0.31079-0.93688-0.31078-0.93688-0.15638-0.78073-0.15637-0.78074-0.0709-0.94013-0.0709-0.94014 0.12086-1.1227 0.12088-1.1227 0.24351-0.95603 0.24351-0.95602 0.40929-0.9468 0.4093-0.9468 0.48909-0.7357 0.4891-0.73571 0.97373-1.083 1.3646-1.0337 0.72869-0.34845 0.72868-0.34844 1.3415-0.34358 1.801-0.1166 1.7348 0.25366 1.3148 0.47725 1.1916 0.70312 1.4253 1.4283-0.0732-1.1566-0.0732-1.1566h9.9189v20.715h-9.9204l0.0724-1.3717 0.0724-1.3717-1.6296 1.5569-0.9867 0.67886-0.65759 0.30773-0.6576 0.30772-0.71957 0.15245-0.71957 0.15243-1.9778-0.012-0.62459-0.13623zm6.8842-8.1333 0.4846-0.30198 0.29719-0.52849 0.29717-0.5285 0.11713-0.58326 0.11714-0.58326-0.071-0.5686-0.071-0.56859-0.33224-0.54806-0.33222-0.54805-1.1451-0.64397-1.4574 8e-5 -0.46357 0.26021-0.46358 0.2602-0.6807 0.89358-0.11829 0.43804-0.1183 0.43804 0.0912 1.6656 0.26677 0.52049 0.26676 0.52049 0.39059 0.35289 0.46657 0.21817 0.46656 0.21817 1.5071-0.0812zm49.953 8.1671-0.72868-0.0927-2.139-0.51416-1.8167-0.75019-0.62459-0.37399-0.62458-0.374-0.57254-0.43652-0.57254-0.43653-1.0803-1.145-0.5172-0.79226-0.5172-0.79227-0.52856-1.4081-0.16854-0.62458-0.16854-0.62459-0.0592-1.4702-0.0592-1.4702 0.12714-0.86954 0.12715-0.86954 0.2619-0.83524 0.26189-0.83525 0.91011-1.7697 1.3232-1.6723 1.6002-1.2873 0.70095-0.40667 0.70096-0.40667 1.8738-0.74276 2.1861-0.47292 3.8516 8e-3 2.1212 0.45275 1.8345 0.64719 1.3533 0.6857 1.4574 1.031 1.09 0.98249 1.2529 1.6628 0.40848 0.85193 0.40848 0.85194 0.2191 0.67663 0.21911 0.67664 0.15238 0.93687 0.15238 0.93688v2.134h-14.603l0.1124 1.639 0.22293 0.50397 0.22292 0.50396 0.1782 0.20068 0.17819 0.20067 0.83278 0.38242h1.041l0.42457-0.19284 0.42458-0.19283 0.44592-0.5669 0.12808-0.35421 0.12809-0.35421h9.828l-0.0551 0.23421-0.0551 0.23422-0.87651 1.8738-0.5422 0.67664-0.5422 0.67663-1.2926 1.1064-1.4982 0.93801-0.85052 0.35871-0.85051 0.3587-1.7975 0.51577-1.041 0.15626-1.041 0.15625-2.8106-0.0252-0.72868-0.0927zm4.3979-13.782-0.0533-0.47278-0.30103-0.4869-0.30103-0.48691-0.43263-0.30406-0.43264-0.30407-0.52195-0.0502-0.52196-0.0501-0.74484 0.1398-0.75721 0.66485-0.24274 0.52124-0.24273 0.52125-1e-3 0.39037-1e-3 0.39036h4.6074l-0.0533-0.47278zm-130.96 13.416-0.0694-0.0694v-20.577h10.124l-0.14582 2.134-0.0492 0.26024-0.0492 0.26025 0.17964-0.26025 0.17964-0.26024 1.5757-1.567 1.3643-0.66392 1.3423-0.32533 2.6545-0.1296v8.6351l-2.2381-0.0884-1.4053 0.33-0.64443 0.32531-0.64443 0.3253-0.60698 0.60699-0.60698 0.60698-0.35996 0.7608-0.35996 0.76079-0.10418 0.72869-0.10418 0.72868-0.0042 7.5471h-9.9586zm47.816-6.2806v-6.35h-2.4983v-7.9114h2.4983v-6.7663h10.097v6.7663h3.4352v7.9114h-3.4352v12.7h-10.097zm43.617-9.4729v-15.823h10.096l0.0532 18.405 2.0194-3.7375 2.0195-3.7375h10.692l-0.55301 0.8588-0.55299 0.85881-5.3625 8.3784 0.1604 0.26174 6.6192 10.161v0.1964h-10.679l-4.3629-7.5161-0.0546 7.5161h-10.095zm-158.75 9.9413v-5.7774h11.659v11.555h-11.659zm4.4334-17.809-0.71945-0.16122-0.63382-0.29022-0.63382-0.29023-0.64557-0.48896-0.64557-0.48897-0.96827-1.2881-0.2564-0.50598-0.2564-0.50598-0.20138-0.7874-0.20138-0.78741 3e-3 -1.6843 0.159-0.67664 0.159-0.67663 0.38265-0.78074 0.38265-0.78073 1.6724-1.6806 0.78065-0.38129 0.78065-0.38128 1.2409-0.31543h1.9945l1.2409 0.31543 1.4589 0.71197 1.3378 1.2106 0.96832 1.4833 0.25148 0.76779 0.25148 0.7678v2.4983l-0.23088 0.72868-0.23088 0.72869-0.78741 1.3264-1.0571 1.1012-1.3208 0.8537-0.84094 0.26742-0.84094 0.26741-1.8738 0.0846z" fill="#989696"/>
  <path d="m2.8018 129.69-9.8369-9.8373 18.997-18.997 8.2241 8.2222v0.20994l-10.618 10.616 11.398 11.399-8.2219 8.2239h-0.1055zm30.449 9.2037-0.83278-0.1006-2.139-0.51212-1.7282-0.71538-1.1151-0.65748-1.1595-0.8923-0.41998-0.45631-0.41998-0.45632-0.34513-0.50231-0.34512-0.50231-0.34131-0.74686-0.34131-0.74687-0.1901-0.67663-0.1901-0.67664-0.0714-13.377h10.003l0.0046 11.815 0.19986 0.44026 0.19986 0.44027 0.68874 0.41991 1.1663 8.3e-4 0.70742-0.47118 0.41639-0.83004 0.06452-11.815h9.8768v12.786l-0.14935 0.76386-0.14935 0.76387-0.218 0.62358-0.21799 0.62359-0.84563 1.4234-1.3687 1.4508-1.687 1.1225-1.4157 0.63518-0.85179 0.25805-0.85179 0.25804-0.93688 0.16605-0.93688 0.16604-3.227 0.0786-0.83278-0.1006zm47.052 0.0528-0.31229-0.0433-1.5615-0.22216-1.8738-0.49095-0.92317-0.38794-0.92317-0.38795-1.8492-1.2142-0.67903-0.67903-0.67903-0.67904-0.51216-0.78454-0.51216-0.78455-0.63958-1.6585-0.15444-0.73418-0.15444-0.73418-0.12914-2.0174 0.1167-0.94702 0.1167-0.94702 0.20856-0.82264 0.20856-0.82264 0.94692-1.9674 1.0332-1.3937 1.4098-1.33 1.5338-1.0196 0.92696-0.39964 0.92696-0.39963 1.9273-0.50076 2.5514-0.24608 2.7046 0.23913 2.3292 0.5913 1.9074 0.82572 0.92008 0.61212 0.92007 0.61212 0.83278 0.84687 0.83278 0.84688 0.56416 0.90734 0.56415 0.90735 0.34775 0.9258 0.34774 0.9258 0.15928 0.70532 0.15928 0.70533 0.06243 1.4313 0.06244 1.4314h-14.603v1.3155l0.15518 0.52256 0.15518 0.52255 0.23826 0.35356 0.23826 0.35356 0.82662 0.46818 1.2038 4e-3 0.66995-0.28666 0.56149-0.59817 0.32613-0.78074h9.7712l-0.18975 0.55152-0.18976 0.55152-0.23568 0.46344-0.23569 0.46343-0.39028 0.57254-0.39028 0.57253-1.22 1.1918-0.56532 0.41906-0.56533 0.41905-0.99613 0.50932-0.99614 0.50931-2.0281 0.64552-0.91177 0.16483-0.91177 0.16482-3.1229 0.071zm3.7996-13.506v-0.13725l-0.32404-1.0912-0.75478-0.83545-0.84698-0.43339-1.1647 0.01-0.30248 0.15833-0.30248 0.15832-0.33389 0.34759-0.33389 0.34758-0.16057 0.45512-0.16057 0.45511v0.70251h4.6844zm36.722 13.465-0.49307-0.0902-1.0958-0.35892-1.1465-0.57304-0.6423-0.48282-0.6423-0.48283-0.51007-0.59546-0.51007-0.59547-0.3167-0.46844-0.31669-0.46844-0.83532-1.6656-0.26512-0.84047-0.26512-0.84048-0.16755-0.87714-0.16755-0.87713v-2.8106l0.16477-0.93642 0.16475-0.93642 0.30368-0.90641 0.30367-0.90641 0.82766-1.6461 0.63563-0.84355 0.63564-0.84355 0.69497-0.57686 0.69498-0.57685 1.6115-0.83841 1.6212-0.43622 2.6024-6e-3 1.4364 0.34855 1.3208 0.63037 1.231 0.98795 0.39001 0.46392 0.39001 0.46393-0.0684-1.2232-0.0684-1.2231h9.8902v20.611h-9.8926l0.0697-1.3272 0.0697-1.3272-1.6097 1.5242-0.78509 0.51251-0.7851 0.51251-0.84636 0.26911-0.84637 0.2691-2.2902 0.0774-0.49307-0.0902zm6.3424-8.0646 0.54031-0.25156 0.63905-0.88218 0.31024-1.0447v-1.1852l-0.15819-0.44836-0.15818-0.44835-0.26174-0.34315-0.26173-0.34314-0.92974-0.54487-1.2204-0.1106-1.0314 0.34259-0.37837 0.38837-0.37839 0.38836-0.21403 0.48504-0.21403 0.48503-0.1256 0.91646 0.2552 1.2364 0.18662 0.36435 0.1866 0.36434 0.29581 0.28052 0.2958 0.28053 0.72868 0.31563 1.3533 6e-3 0.54031-0.25156zm50.832 8.1019-0.36434-0.0439-1.9068-0.31057-1.8396-0.5331-0.86571-0.40568-0.86571-0.40569-0.72367-0.48109-0.72366-0.48109-0.56469-0.51609-0.56468-0.51609-1.0569-1.4257-0.41297-0.88126-0.41297-0.88127-0.21511-0.87374-0.21512-0.87374-0.0608-1.1971-0.0608-1.1971 0.11977-0.89657 0.11975-0.89657 0.15643-0.61285 0.15644-0.61284 0.66424-1.6656 0.59232-0.88484 0.59232-0.88483 1.3216-1.3244 0.62458-0.44583 0.62459-0.44583 1.3806-0.7562 1.6794-0.61289 1.0204-0.20371 1.0204-0.2037 1.9778-0.1374 1.2674 0.11791 1.2674 0.11792 2.1072 0.51023 0.86173 0.35671 0.86173 0.35672 1.1295 0.66296 0.67031 0.47662 0.6703 0.47663 1.2187 1.2377 0.9312 1.305 0.46832 0.98866 0.46833 0.98865 0.19965 0.78059 0.19964 0.7806 0.11116 0.79925 0.11117 0.79924v1.7546h-14.561l-0.0619 0.1002-0.0619 0.10019 0.10777 0.85947 0.10777 0.85946 0.23428 0.46636 0.23428 0.46637 0.38935 0.30896 0.38934 0.30896 1.1375 0.0944 0.37301-0.07 0.37302-0.07 0.92679-0.88802 0.0663-0.33128 0.0662-0.33129h9.7592v0.31643l-0.25345 0.62374-0.25344 0.62373-0.39153 0.64451-0.39151 0.64451-1.4218 1.4967-0.75213 0.51852-0.75214 0.51851-0.72868 0.36557-0.72868 0.36556-1.8113 0.63902-2.2485 0.44372-3.1229 0.067zm3.7841-13.704-0.0623-0.33831-0.20095-0.46844-0.20094-0.46844-0.28069-0.2958-0.28068-0.29581-0.4164-0.21514-0.41639-0.21515-1.1895-0.00166-0.9934 0.61417-0.5593 1.1381-0.0615 0.44241-0.0615 0.44242h4.7858l-0.0623-0.33832zm-198.34 7.469v-5.7774h11.659v11.555h-11.659zm67.351-4.5282v-10.306h10.02l-0.06783 0.7547-0.06783 0.75471-0.1158 1.1451 0.28508-0.36435 0.28508-0.36434 1.318-1.2888 1.5114-0.74375 1.4574-0.30702 2.3422-0.1384 1.02e-4 4.3099 1.01e-4 4.3099-2.1154-0.0726-0.63399 0.12324-0.63399 0.12323-1.2905 0.61236-1.1358 1.038-0.32187 0.5016-0.32187 0.50159-0.46121 1.2324-0.0729 8.484h-9.9807zm47.781 4.0078v-6.2979h-2.4983v-7.9114h2.4983v-6.7663h10.097v6.7663h3.3311v7.9114h-3.3311v12.596h-10.097zm43.617-9.4729v-15.771h10.097l6e-3 18.477 0.12681-0.18129 0.12681-0.18128 3.8516-7.1826 10.566-0.00187v0.12l-6.2403 9.7376-0.0583 0.15194-0.0583 0.15193 6.7725 10.398-10.669 0.0544-0.1048-0.1426-0.10479-0.14261-4.1625-7.1792-0.0273 3.731-0.0273 3.731h-10.095v-15.771zm-154.32-7.8154-0.71945-0.16122-0.63382-0.29022-0.63382-0.29023-0.64557-0.48896-0.64557-0.48897-0.96827-1.2881-0.2564-0.50598-0.2564-0.50598-0.20138-0.7874-0.20138-0.78741 3e-3 -1.6843 0.159-0.67664 0.159-0.67663 0.38265-0.78074 0.38265-0.78073 1.6724-1.6806 0.78065-0.38129 0.78065-0.38128 1.2409-0.31543h1.9945l1.2409 0.31543 1.4589 0.71197 1.3378 1.2106 0.96832 1.4833 0.25148 0.76779 0.25148 0.7678v2.4983l-0.23088 0.72868-0.23088 0.72869-0.78741 1.3264-1.0571 1.1012-1.3208 0.8537-0.84094 0.26742-0.84094 0.26741-1.8738 0.0846z" fill="#707cbc"/>
  <path d="m2.8018 129.69-9.8369-9.8373 18.997-18.997 8.2241 8.2222v0.20994l-10.618 10.616 11.398 11.399-8.2219 8.2239h-0.1055zm30.449 9.2037-0.83278-0.1006-2.139-0.51212-1.7282-0.71538-1.1151-0.65748-1.1595-0.8923-0.41998-0.45631-0.41998-0.45632-0.34513-0.50231-0.34512-0.50231-0.34131-0.74686-0.34131-0.74687-0.1901-0.67663-0.1901-0.67664-0.0714-13.377h10.003l0.0046 11.815 0.19986 0.44026 0.19986 0.44027 0.68874 0.41991 1.1663 8.3e-4 0.70742-0.47118 0.41639-0.83004 0.06452-11.815h9.8768v12.786l-0.14935 0.76386-0.14935 0.76387-0.218 0.62358-0.21799 0.62359-0.84563 1.4234-1.3687 1.4508-1.687 1.1225-1.4157 0.63518-0.85179 0.25805-0.85179 0.25804-0.93688 0.16605-0.93688 0.16604-3.227 0.0786-0.83278-0.1006zm47.052 0.0528-0.31229-0.0433-1.5615-0.22216-1.8738-0.49095-0.92317-0.38794-0.92317-0.38795-1.8492-1.2142-0.67903-0.67903-0.67903-0.67904-0.51216-0.78454-0.51216-0.78455-0.63958-1.6585-0.15444-0.73418-0.15444-0.73418-0.12914-2.0174 0.1167-0.94702 0.1167-0.94702 0.20856-0.82264 0.20856-0.82264 0.94692-1.9674 1.0332-1.3937 1.4098-1.33 1.5338-1.0196 0.92696-0.39964 0.92696-0.39963 1.9273-0.50076 2.5514-0.24608 2.7046 0.23913 2.3292 0.5913 1.9074 0.82572 0.92008 0.61212 0.92007 0.61212 0.83278 0.84687 0.83278 0.84688 0.56416 0.90734 0.56415 0.90735 0.34775 0.9258 0.34774 0.9258 0.15928 0.70532 0.15928 0.70533 0.06243 1.4313 0.06244 1.4314h-14.603v1.3155l0.15518 0.52256 0.15518 0.52255 0.23826 0.35356 0.23826 0.35356 0.82662 0.46818 1.2038 4e-3 0.66995-0.28666 0.56149-0.59817 0.32613-0.78074h9.7712l-0.18975 0.55152-0.18976 0.55152-0.23568 0.46344-0.23569 0.46343-0.39028 0.57254-0.39028 0.57253-1.22 1.1918-0.56532 0.41906-0.56533 0.41905-0.99613 0.50932-0.99614 0.50931-2.0281 0.64552-0.91177 0.16483-0.91177 0.16482-3.1229 0.071zm3.7996-13.506v-0.13725l-0.32404-1.0912-0.75478-0.83545-0.84698-0.43339-1.1647 0.01-0.30248 0.15833-0.30248 0.15832-0.33389 0.34759-0.33389 0.34758-0.16057 0.45512-0.16057 0.45511v0.70251h4.6844zm36.722 13.465-0.49307-0.0902-1.0958-0.35892-1.1465-0.57304-0.6423-0.48282-0.6423-0.48283-0.51007-0.59546-0.51007-0.59547-0.3167-0.46844-0.31669-0.46844-0.83532-1.6656-0.26512-0.84047-0.26512-0.84048-0.16755-0.87714-0.16755-0.87713v-2.8106l0.16477-0.93642 0.16475-0.93642 0.30368-0.90641 0.30367-0.90641 0.82766-1.6461 0.63563-0.84355 0.63564-0.84355 0.69497-0.57686 0.69498-0.57685 1.6115-0.83841 1.6212-0.43622 2.6024-6e-3 1.4364 0.34855 1.3208 0.63037 1.231 0.98795 0.39001 0.46392 0.39001 0.46393-0.0684-1.2232-0.0684-1.2231h9.8902v20.611h-9.8926l0.0697-1.3272 0.0697-1.3272-1.6097 1.5242-0.78509 0.51251-0.7851 0.51251-0.84636 0.26911-0.84637 0.2691-2.2902 0.0774-0.49307-0.0902zm6.3424-8.0646 0.54031-0.25156 0.63905-0.88218 0.31024-1.0447v-1.1852l-0.15819-0.44836-0.15818-0.44835-0.26174-0.34315-0.26173-0.34314-0.92974-0.54487-1.2204-0.1106-1.0314 0.34259-0.37837 0.38837-0.37839 0.38836-0.21403 0.48504-0.21403 0.48503-0.1256 0.91646 0.2552 1.2364 0.18662 0.36435 0.1866 0.36434 0.29581 0.28052 0.2958 0.28053 0.72868 0.31563 1.3533 6e-3 0.54031-0.25156zm50.832 8.1019-0.36434-0.0439-1.9068-0.31057-1.8396-0.5331-0.86571-0.40568-0.86571-0.40569-0.72367-0.48109-0.72366-0.48109-0.56469-0.51609-0.56468-0.51609-1.0569-1.4257-0.41297-0.88126-0.41297-0.88127-0.21511-0.87374-0.21512-0.87374-0.0608-1.1971-0.0608-1.1971 0.11977-0.89657 0.11975-0.89657 0.15643-0.61285 0.15644-0.61284 0.66424-1.6656 0.59232-0.88484 0.59232-0.88483 1.3216-1.3244 0.62458-0.44583 0.62459-0.44583 1.3806-0.7562 1.6794-0.61289 1.0204-0.20371 1.0204-0.2037 1.9778-0.1374 1.2674 0.11791 1.2674 0.11792 2.1072 0.51023 0.86173 0.35671 0.86173 0.35672 1.1295 0.66296 0.67031 0.47662 0.6703 0.47663 1.2187 1.2377 0.9312 1.305 0.46832 0.98866 0.46833 0.98865 0.19965 0.78059 0.19964 0.7806 0.11116 0.79925 0.11117 0.79924v1.7546h-14.561l-0.0619 0.1002-0.0619 0.10019 0.10777 0.85947 0.10777 0.85946 0.23428 0.46636 0.23428 0.46637 0.38935 0.30896 0.38934 0.30896 1.1375 0.0944 0.37301-0.07 0.37302-0.07 0.92679-0.88802 0.0663-0.33128 0.0662-0.33129h9.7592v0.31643l-0.25345 0.62374-0.25344 0.62373-0.39153 0.64451-0.39151 0.64451-1.4218 1.4967-0.75213 0.51852-0.75214 0.51851-0.72868 0.36557-0.72868 0.36556-1.8113 0.63902-2.2485 0.44372-3.1229 0.067zm3.7841-13.704-0.0623-0.33831-0.20095-0.46844-0.20094-0.46844-0.28069-0.2958-0.28068-0.29581-0.4164-0.21514-0.41639-0.21515-1.1895-0.00166-0.9934 0.61417-0.5593 1.1381-0.0615 0.44241-0.0615 0.44242h4.7858l-0.0623-0.33832zm-130.99 2.9408v-10.306h10.02l-0.06783 0.7547-0.06783 0.75471-0.1158 1.1451 0.28508-0.36435 0.28508-0.36434 1.318-1.2888 1.5114-0.74375 1.4574-0.30702 2.3422-0.1384 1.02e-4 4.3099 1.01e-4 4.3099-2.1154-0.0726-0.63399 0.12324-0.63399 0.12323-1.2905 0.61236-1.1358 1.038-0.32187 0.5016-0.32187 0.50159-0.46121 1.2324-0.0729 8.484h-9.9807zm47.781 4.0078v-6.2979h-2.4983v-7.9114h2.4983v-6.7663h10.097v6.7663h3.3311v7.9114h-3.3311v12.596h-10.097zm43.617-9.4729v-15.771h10.097l6e-3 18.477 0.12681-0.18129 0.12681-0.18128 3.8516-7.1826 10.566-0.00187v0.12l-6.2403 9.7376-0.0583 0.15194-0.0583 0.15193 6.7725 10.398-10.669 0.0544-0.1048-0.1426-0.10479-0.14261-4.1625-7.1792-0.0273 3.731-0.0273 3.731h-10.095v-15.771zm-154.32-7.8154-0.71945-0.16122-0.63382-0.29022-0.63382-0.29023-0.64557-0.48896-0.64557-0.48897-0.96827-1.2881-0.2564-0.50598-0.2564-0.50598-0.20138-0.7874-0.20138-0.78741 3e-3 -1.6843 0.159-0.67664 0.159-0.67663 0.38265-0.78074 0.38265-0.78073 1.6724-1.6806 0.78065-0.38129 0.78065-0.38128 1.2409-0.31543h1.9945l1.2409 0.31543 1.4589 0.71197 1.3378 1.2106 0.96832 1.4833 0.25148 0.76779 0.25148 0.7678v2.4983l-0.23088 0.72868-0.23088 0.72869-0.78741 1.3264-1.0571 1.1012-1.3208 0.8537-0.84094 0.26742-0.84094 0.26741-1.8738 0.0846z" fill="#f6931c"/>
  <path d="m2.8018 129.69-9.8369-9.8373 18.997-18.997 8.2241 8.2222v0.20994l-10.618 10.616 11.398 11.399-8.2219 8.2239h-0.1055zm30.449 9.2037-0.83278-0.1006-2.139-0.51212-1.7282-0.71538-1.1151-0.65748-1.1595-0.8923-0.41998-0.45631-0.41998-0.45632-0.34513-0.50231-0.34512-0.50231-0.34131-0.74686-0.34131-0.74687-0.1901-0.67663-0.1901-0.67664-0.0714-13.377h10.003l0.0046 11.815 0.19986 0.44026 0.19986 0.44027 0.68874 0.41991 1.1663 8.3e-4 0.70742-0.47118 0.41639-0.83004 0.06452-11.815h9.8768v12.786l-0.14935 0.76386-0.14935 0.76387-0.218 0.62358-0.21799 0.62359-0.84563 1.4234-1.3687 1.4508-1.687 1.1225-1.4157 0.63518-0.85179 0.25805-0.85179 0.25804-0.93688 0.16605-0.93688 0.16604-3.227 0.0786-0.83278-0.1006zm47.052 0.0528-0.31229-0.0433-1.5615-0.22216-1.8738-0.49095-0.92317-0.38794-0.92317-0.38795-1.8492-1.2142-0.67903-0.67903-0.67903-0.67904-0.51216-0.78454-0.51216-0.78455-0.63958-1.6585-0.15444-0.73418-0.15444-0.73418-0.12914-2.0174 0.1167-0.94702 0.1167-0.94702 0.20856-0.82264 0.20856-0.82264 0.94692-1.9674 1.0332-1.3937 1.4098-1.33 1.5338-1.0196 0.92696-0.39964 0.92696-0.39963 1.9273-0.50076 2.5514-0.24608 2.7046 0.23913 2.3292 0.5913 1.9074 0.82572 0.92008 0.61212 0.92007 0.61212 0.83278 0.84687 0.83278 0.84688 0.56416 0.90734 0.56415 0.90735 0.34775 0.9258 0.34774 0.9258 0.15928 0.70532 0.15928 0.70533 0.06243 1.4313 0.06244 1.4314h-14.603v1.3155l0.15518 0.52256 0.15518 0.52255 0.23826 0.35356 0.23826 0.35356 0.82662 0.46818 1.2038 4e-3 0.66995-0.28666 0.56149-0.59817 0.32613-0.78074h9.7712l-0.18975 0.55152-0.18976 0.55152-0.23568 0.46344-0.23569 0.46343-0.39028 0.57254-0.39028 0.57253-1.22 1.1918-0.56532 0.41906-0.56533 0.41905-0.99613 0.50932-0.99614 0.50931-2.0281 0.64552-0.91177 0.16483-0.91177 0.16482-3.1229 0.071zm3.7996-13.506v-0.13725l-0.32404-1.0912-0.75478-0.83545-0.84698-0.43339-1.1647 0.01-0.30248 0.15833-0.30248 0.15832-0.33389 0.34759-0.33389 0.34758-0.16057 0.45512-0.16057 0.45511v0.70251h4.6844zm36.722 13.465-0.49307-0.0902-1.0958-0.35892-1.1465-0.57304-0.6423-0.48282-0.6423-0.48283-0.51007-0.59546-0.51007-0.59547-0.3167-0.46844-0.31669-0.46844-0.83532-1.6656-0.26512-0.84047-0.26512-0.84048-0.16755-0.87714-0.16755-0.87713v-2.8106l0.16477-0.93642 0.16475-0.93642 0.30368-0.90641 0.30367-0.90641 0.82766-1.6461 0.63563-0.84355 0.63564-0.84355 0.69497-0.57686 0.69498-0.57685 1.6115-0.83841 1.6212-0.43622 2.6024-6e-3 1.4364 0.34855 1.3208 0.63037 1.231 0.98795 0.39001 0.46392 0.39001 0.46393-0.0684-1.2232-0.0684-1.2231h9.8902v20.611h-9.8926l0.0697-1.3272 0.0697-1.3272-1.6097 1.5242-0.78509 0.51251-0.7851 0.51251-0.84636 0.26911-0.84637 0.2691-2.2902 0.0774-0.49307-0.0902zm6.3424-8.0646 0.54031-0.25156 0.63905-0.88218 0.31024-1.0447v-1.1852l-0.15819-0.44836-0.15818-0.44835-0.26174-0.34315-0.26173-0.34314-0.92974-0.54487-1.2204-0.1106-1.0314 0.34259-0.37837 0.38837-0.37839 0.38836-0.21403 0.48504-0.21403 0.48503-0.1256 0.91646 0.2552 1.2364 0.18662 0.36435 0.1866 0.36434 0.29581 0.28052 0.2958 0.28053 0.72868 0.31563 1.3533 6e-3 0.54031-0.25156zm50.832 8.1019-0.36434-0.0439-1.9068-0.31057-1.8396-0.5331-0.86571-0.40568-0.86571-0.40569-0.72367-0.48109-0.72366-0.48109-0.56469-0.51609-0.56468-0.51609-1.0569-1.4257-0.41297-0.88126-0.41297-0.88127-0.21511-0.87374-0.21512-0.87374-0.0608-1.1971-0.0608-1.1971 0.11977-0.89657 0.11975-0.89657 0.15643-0.61285 0.15644-0.61284 0.66424-1.6656 0.59232-0.88484 0.59232-0.88483 1.3216-1.3244 0.62458-0.44583 0.62459-0.44583 1.3806-0.7562 1.6794-0.61289 1.0204-0.20371 1.0204-0.2037 1.9778-0.1374 1.2674 0.11791 1.2674 0.11792 2.1072 0.51023 0.86173 0.35671 0.86173 0.35672 1.1295 0.66296 0.67031 0.47662 0.6703 0.47663 1.2187 1.2377 0.9312 1.305 0.46832 0.98866 0.46833 0.98865 0.19965 0.78059 0.19964 0.7806 0.11116 0.79925 0.11117 0.79924v1.7546h-14.561l-0.0619 0.1002-0.0619 0.10019 0.10777 0.85947 0.10777 0.85946 0.23428 0.46636 0.23428 0.46637 0.38935 0.30896 0.38934 0.30896 1.1375 0.0944 0.37301-0.07 0.37302-0.07 0.92679-0.88802 0.0663-0.33128 0.0662-0.33129h9.7592v0.31643l-0.25345 0.62374-0.25344 0.62373-0.39153 0.64451-0.39151 0.64451-1.4218 1.4967-0.75213 0.51852-0.75214 0.51851-0.72868 0.36557-0.72868 0.36556-1.8113 0.63902-2.2485 0.44372-3.1229 0.067zm3.7841-13.704-0.0623-0.33831-0.20095-0.46844-0.20094-0.46844-0.28069-0.2958-0.28068-0.29581-0.4164-0.21514-0.41639-0.21515-1.1895-0.00166-0.9934 0.61417-0.5593 1.1381-0.0615 0.44241-0.0615 0.44242h4.7858l-0.0623-0.33832zm-130.99 2.9408v-10.306h10.02l-0.06783 0.7547-0.06783 0.75471-0.1158 1.1451 0.28508-0.36435 0.28508-0.36434 1.318-1.2888 1.5114-0.74375 1.4574-0.30702 2.3422-0.1384 1.02e-4 4.3099 1.01e-4 4.3099-2.1154-0.0726-0.63399 0.12324-0.63399 0.12323-1.2905 0.61236-1.1358 1.038-0.32187 0.5016-0.32187 0.50159-0.46121 1.2324-0.0729 8.484h-9.9807zm47.781 4.0078v-6.2979h-2.4983v-7.9114h2.4983v-6.7663h10.097v6.7663h3.3311v7.9114h-3.3311v12.596h-10.097zm43.617-9.4729v-15.771h10.097l6e-3 18.477 0.12681-0.18129 0.12681-0.18128 3.8516-7.1826 10.566-0.00187v0.12l-6.2403 9.7376-0.0583 0.15194-0.0583 0.15193 6.7725 10.398-10.669 0.0544-0.1048-0.1426-0.10479-0.14261-4.1625-7.1792-0.0273 3.731-0.0273 3.731h-10.095v-15.771z" fill="#5f5c5c"/>
  <path d="m2.8307 129.72-9.8077-9.8111 18.978-19.011 8.2364 8.2364-10.721 10.722 11.398 11.4-8.2766 8.2746zm30.789 9.1849-0.87965-0.0918-1.6759-0.3364-1.8738-0.62422-1.6249-0.86564-0.69695-0.54913-0.69695-0.54914-0.52049-0.61655-0.52049-0.61656-0.70063-1.1594-0.29365-0.85997-0.29366-0.85998-0.11074-0.81429-0.11074-0.81429v-12.268h9.8768l0.06452 11.815 0.33751 0.72868 0.55746 0.51426 1.4156 0.08 0.32709-0.16915 0.32709-0.16914 0.47048-0.88054 0.06158-11.919h9.8897l-0.0714 13.377-0.18711 0.67664-0.18711 0.67663-0.8985 1.8738-1.2162 1.4425-1.4574 1.1207-2.082 1.0195-1.8675 0.53568-1.8505 0.29931-2.6319 0.0964zm46.596-5e-3 -0.91937-0.0815-2.1001-0.44964-0.73714-0.26474-0.73714-0.26475-1.4574-0.72884-1.143-0.75442-1.4303-1.348-0.88946-1.2544-0.62001-1.2492-0.43571-1.3533-0.12178-0.67664-0.12178-0.67663-9.37e-4 -1.3012-9.37e-4 -1.3012 0.1747-0.9188 0.1747-0.91881 0.31063-0.85847 0.31063-0.85846 0.91218-1.5462 1.1753-1.4142 0.85284-0.67477 0.85284-0.67476 1.7896-0.9249 1.8596-0.62301 1.9721-0.31983h3.0188l1.88 0.30492 1.8675 0.5399 1.8993 0.89824 1.2911 0.87678 1.4727 1.3871 1.0294 1.3533 0.50636 1.041 0.50635 1.041 0.42528 1.6656 0.101 0.78073 0.10098 0.78073 0.0032 0.85811 0.0032 0.8581-14.626 0.0534 0.0294 0.67664 0.0294 0.67663 0.31387 1.1016 0.37305 0.41291 0.37305 0.41292 1.127 0.32764 0.80888-0.1366 0.93556-0.59332 0.48476-1.0567h9.6303l-0.0056 0.36434-0.29252 0.68551-0.29254 0.68551-0.79585 1.199-0.52988 0.58135-0.52988 0.58134-1.6477 1.2239-1.8916 0.91481-1.5724 0.50846-1.6546 0.33404-1.9779 0.20493-1.1451-0.0254-0.91937-0.0815zm3.8423-13.76-0.07042-0.44242-0.57992-1.041-0.97712-0.66474-0.95189-0.1428-0.86411 0.25523-0.70179 0.52998-0.4725 1.0632-0.0647 0.44242-0.0647 0.44241h4.8176zm36.905 13.757-0.66554-0.10184-0.63568-0.21131-0.63568-0.21132-0.7149-0.42126-0.71488-0.42126-1.5491-1.4715-0.59835-0.89453-0.59833-0.89453-0.37569-0.89745-0.37568-0.89746-0.55906-2.1555-0.0517-1.5615-0.0517-1.5615 0.16485-1.0052 0.16486-1.0052 0.27345-0.86859 0.27344-0.8686 0.30053-0.6651 0.30053-0.66509 1.1419-1.7161 1.6359-1.534 1.334-0.78606 1.6656-0.54709 2.8106-0.0902 1.5615 0.32635 1.7626 0.86911 1.6434 1.6434-0.0764-2.4044h9.8387v20.611l-9.8372 9e-5 0.0734-2.7224-1.4266 1.394-1.2812 0.91583-0.66064 0.29771-0.66064 0.2977-1.1002 0.23275-1.7105 0.0924zm6.1307-7.9688 0.36435-0.15176 0.29597-0.28075 0.29598-0.28074 0.26831-0.52049 0.2683-0.52049 0.095-1.7226-0.36424-0.95376-0.32478-0.36989-0.32476-0.36989-0.52125-0.24273-0.52125-0.24274-1.2603-2e-3 -0.55046 0.27431-0.55046 0.2743-0.30549 0.42171-0.30548 0.42172-0.16618 0.57166-0.1662 0.57166 0.0513 0.63847 0.0512 0.63848 0.45468 1.0282 0.56137 0.59113 0.28289 0.14777 0.28288 0.14778 0.7875 0.1932 0.93688-0.1108 0.36434-0.15177zm50.872 7.9798-0.91672-0.0885-1.7009-0.34464-1.8787-0.60366-1.6517-0.84677-0.63154-0.45088-0.63153-0.45088-1.5683-1.6422-0.39374-0.64816-0.39374-0.64817-0.25696-0.63238-0.25696-0.63239-0.19938-0.85222-0.19936-0.85222-0.0679-0.98893-0.0678-0.98893 0.11251-0.98893 0.11252-0.98892 0.21525-0.83278 0.21524-0.83279 0.51166-1.0553 0.51167-1.0553 0.60951-0.76637 0.60953-0.76637 0.56542-0.50803 0.56543-0.50803 1.1933-0.81084 1.6173-0.8044 0.86704-0.27275 0.86703-0.27274 1.7805-0.31048 1.5739 4.1e-4 1.5738 4.2e-4 1.88 0.30492 1.8676 0.53568 2.0958 1.0173 1.6517 1.2265 1.4199 1.5362 0.5153 0.83732 0.51529 0.83733 0.64542 1.6674 0.40002 1.9475 0.0217 1.2123 0.0217 1.2123-14.626 0.0534 1e-3 0.33761 1e-3 0.33762 0.10927 0.67349 0.10927 0.6735 0.27507 0.50539 0.27507 0.5054 0.42164 0.24245 0.42162 0.24246 0.86139 0.1384 0.85896-0.2313 0.76067-0.66787 0.19571-0.44242 0.1957-0.44241h9.6939l-0.1354 0.57254-0.39717 0.83278-0.39718 0.83278-0.48816 0.64532-0.48817 0.64533-1.0833 0.98074-1.6959 1.1108-1.3667 0.61318-1.9341 0.61627-1.9779 0.33147-2.3942 0.091-0.91673-0.0885zm3.8348-13.716-0.0719-0.39037-0.18582-0.42366-0.18582-0.42367-0.77514-0.7528-0.95581-0.32568h-0.55643l-0.35385 0.11848-0.35385 0.11847-0.67968 0.50465-0.24892 0.49124-0.24893 0.49124-0.1474 0.98246h4.8353zm-131.01 2.9928v-10.306h10.017l-0.0613 0.44241-0.0613 0.44242-0.06936 0.93687-0.06936 0.93688 1.1519-1.4574 0.50578-0.38 0.50578-0.37999 0.72868-0.4191 1.4574-0.44549 2.4646-0.1728 0.19905 0.052 0.19905 0.0521v8.4806l-1.093-0.186-1.4574 0.1222-1.1451 0.32141-1.2108 0.6424-0.54757 0.54757-0.54757 0.54756-0.65438 1.2277-0.31879 1.2239v8.0759h-9.9934zm47.781 4.0078v-6.2979h-2.3942v-7.9114h2.3942v-6.7663h10.097v6.7663h3.3311v7.9114h-3.3311v12.596h-10.097zm43.721-9.4729v-15.771h9.9934l3e-3 9.2907 3e-3 9.2907 0.33554-0.62029 0.33554-0.62028 3.4452-6.3586 10.556-0.054v0.0832l-6.35 9.9093v0.22232l5.6574 8.6807 0.55512 0.85881 0.55511 0.8588h-10.689l-4.3544-7.5058-0.0273 3.7529-0.0273 3.7529h-9.9908v-15.771z" fill="#221e1f"/>
 </g>
</svg>
