<?xml version="1.0" encoding="UTF-8"?>
<svg width="79.375mm" height="79.346mm" version="1.1" viewBox="0 0 79.375 79.346" xmlns="http://www.w3.org/2000/svg" xmlns:cc="http://creativecommons.org/ns#" xmlns:dc="http://purl.org/dc/elements/1.1/" xmlns:rdf="http://www.w3.org/1999/02/22-rdf-syntax-ns#">
 <metadata>
  <rdf:RDF>
   <cc:Work rdf:about="">
    <dc:format>image/svg+xml</dc:format>
    <dc:type rdf:resource="http://purl.org/dc/dcmitype/StillImage"/>
    <dc:title/>
   </cc:Work>
  </rdf:RDF>
 </metadata>
 <g transform="matrix(1.0184 0 0 1.0184 -1.1743 -1.0558)" fill-opacity=".98954">
  <path d="m36.827 78.847-0.90366-0.077781-2.0784-0.28166-2.7355-0.53454-2.6112-0.71598-1.8825-0.65358-2.1688-0.86592-2.0784-0.98383-2.3495-1.3096-3.0724-2.0507-2.3495-1.8877-1.988-1.8505-1.9623-2.1049-1.8927-2.3495-2.0534-3.0724-1.5468-2.8013-1.1895-2.6971-0.80908-2.1745-0.63411-2.0866-0.532-2.1688-0.44841-2.5302-0.2821-2.2591-0.052486-2.4913-0.052486-2.4913 0.21261-2.6986 0.36361-2.5248 0.5399-2.5962 0.78768-2.7409 0.89978-2.4399 1.1966-2.711 1.5468-2.8013 2.0534-3.0724 1.891-2.3495 1.8578-1.988 2.0942-1.9641 2.3495-1.8908 3.0724-2.0534 2.8013-1.5468 2.711-1.1966 2.4399-0.89978 2.7409-0.78768 2.5962-0.5399 2.5248-0.36154 2.3142-0.19055h3.9564l2.3142 0.19055 2.5248 0.36154 2.5962 0.5399 2.7409 0.78768 2.4399 0.89978 2.711 1.1966 2.8013 1.5468 3.0724 2.0534 2.3495 1.8908 2.0921 1.9641 1.8657 1.988 1.8853 2.3495 2.0534 3.0724 1.5468 2.8013 1.1966 2.711 0.87407 2.3729 0.63476 2.1454 0.53554 2.2591 0.2297 1.4007 0.2297 1.4007 0.11526 0.99402 0.11526 0.99402v6.0545l-0.23051 1.988-0.2297 1.4007-0.2297 1.4007-0.53554 2.2591-0.63476 2.1454-0.87407 2.3729-1.1966 2.711-1.5468 2.8013-2.0534 3.0724-1.8865 2.3495-1.9422 2.0784-2.0143 1.8706-2.3495 1.894-3.0724 2.0534-2.8013 1.5468-2.711 1.1966-2.4399 0.89978-2.7409 0.78768-2.5962 0.5399-2.5248 0.36154-2.3142 0.19056-4.3729-0.02484zm-5.7829-24.887 0.53547-0.13947 1.181-0.57649 1.3568-1.3585 0.29143-0.58738 0.29143-0.58738 0.27433-1.0772v-1.399l-0.19826-0.95774-0.60618-1.2651-0.3403-0.41044-0.3403-0.41044-0.90966-0.73858-0.91138-0.45782-1.0722-0.31168h-1.6356l-1.0799 0.31195-1.2651 0.66081-1.0851 1.0851-0.3304 0.63256-0.3304 0.63256-0.15531 0.53765-0.15531 0.53765 0.0132 1.6357 0.28682 1.0697 0.57566 1.0991 1.3616 1.371 1.1748 0.56878 0.99402 0.26225 1.5434 0.0118 0.53547-0.13947zm-1.735-2.0393-0.46943-0.05943-0.82687-0.40028-0.39867-0.39867-0.39867-0.39867-0.50854-1.0373-9.04e-4 -1.4497 0.29456-0.59834 0.29456-0.59834 0.74467-0.67276 1.0157-0.47117h1.4459l1.0295 0.4775 0.78725 0.78725 0.40553 0.83772 0.15404 0.96489-0.0751 0.46607-0.0751 0.46607-0.19628 0.39241-0.19628 0.3924-0.3746 0.39166-0.3746 0.39166-0.89228 0.45679-0.91503 0.11964-0.46943-0.05943zm-11.775 0.44481v-1.5532l0.40665-0.59722 0.14352 0.0465 2.1227 3.612 2.478 0.05028v-0.07552l-3.2532-5.5422v-0.08905l3.0091-4.103 0.08793-0.11296 0.08793-0.11296-2.6879 0.0044-2.3495 3.1944-0.02468-1.5994-0.02468-1.5994h-2.1646v10.031h2.1688zm24.941 1.4403 2.71e-4 -0.02259 3.499-9.8951-2.2796 9.04e-4 -0.84923 2.3983-1.398 3.9588-0.29476-0.71015-1.9756-5.6479h-2.2761l3.4092 9.7143 0.08044 0.22591h2.0841l2.71e-4 -0.02259zm7.8439-0.63256 0.22329-0.60997h3.5647l0.44658 1.2199 2.2871 0.05056-0.36056-1.0193-0.36056-1.0193-2.782-7.8618h-2.0519l-2.477 7.0485-0.99834 2.8519 2.2854-0.05056zm0.85286-2.4399 0.04133-0.11296 1.0571-3.4792 0.12674 0.13568 1.012 3.2855v0.28393h-2.2785zm14.798 2.0558v-1.0392h-4.1568v-7.8618h-2.1688v9.9402h6.3256zm-24.653-20.248 0.57-0.1543 1.4673-0.67487 1.1395-0.77383 1.1153-1.1153 0.77383-1.1395 0.69803-1.4896 0.1927-0.80218 0.1927-0.80218 0.0016-1.0844 0.0016-1.0844-0.38411-1.5858-0.26892-0.63195-0.26892-0.63195-0.84084-1.3071-1.4841-1.4459-1.4749-0.88192-1.7644-0.60191-1.7084-0.20574-1.364 0.1214-1.1273 0.25473-1.4407 0.55558-1.4082 0.91439-1.4459 1.4839-0.88192 1.4749-0.59857 1.7644-0.20775 1.8301 0.19258 1.5743 0.3827 1.4183 0.20931 0.28191 7.5004-4.7179 0.14362-0.1328-2.3576-3.7689v-0.12232l2.1236-0.58045 1.0608-0.29101 0.25949 0.35191 4.9819 7.9154-0.0821 0.0821-2.5706 1.6265h-0.15228l-1.7802-2.8862-0.20487 0.0711-7.529 4.7354 0.32385 0.36636 1.3306 1.0636 1.8323 0.88708 1.1748 0.29851 0.76811 0.05901 0.76811 0.05902 1.571-0.12328z"/>
  <path d="m37.64 78.897-0.2711-0.03628-2.2591-0.19758-3.0724-0.51908-2.9179-0.73319-2.9559-1.0033-2.1455-0.9019-2.7343-1.3688-2.2591-1.3568-1.967-1.3588-1.738-1.3526-1.3555-1.1808-2.2281-2.1829-1.6751-1.8977-1.3554-1.738-1.359-1.967-1.2952-2.1571-1.4216-2.813-0.91055-2.1688-1.0033-2.9559-0.73319-2.9179-0.51807-3.0724-0.24207-2.2591v-5.5123l0.12104-1.1296 0.12104-1.1296 0.51807-3.0724 0.73319-2.9179 1.0033-2.9559 0.91055-2.1688 1.4216-2.813 1.2952-2.1571 1.359-1.967 1.3554-1.738 1.6751-1.8977 2.2281-2.1829 1.3555-1.1808 1.738-1.3526 1.967-1.359 2.1571-1.2952 2.813-1.4216 2.1688-0.91055 2.9559-1.0033 2.9179-0.73319 3.0724-0.51807 2.2591-0.24207h5.5123l2.2591 0.24207 3.0724 0.51807 2.9179 0.73319 2.9559 1.0033 2.1688 0.91055 2.813 1.4216 2.1571 1.2952 1.967 1.359 1.738 1.3526 1.3555 1.1808 2.2281 2.1829 1.6751 1.8977 1.3554 1.738 1.359 1.967 1.2952 2.1571 1.4216 2.813 0.91056 2.1688 0.50166 1.4779 0.50166 1.4779 0.73319 2.9179 0.51807 3.0724 0.24207 2.2591v5.5123l-0.24207 2.2591-0.51807 3.0724-0.73319 2.9179-0.50166 1.4779-0.50166 1.4779-0.91056 2.1688-1.4216 2.813-1.2952 2.1571-1.359 1.967-1.3554 1.738-1.6751 1.8977-2.2281 2.1829-1.3555 1.1808-1.738 1.3526-1.967 1.3588-2.2591 1.3568-2.7343 1.3688-2.1455 0.90189-2.9559 1.0033-2.855 0.7168-2.5932 0.45878-2.4399 0.28956-5.3316 0.05728zm-6.5063-24.951 0.5422-0.13368 1.0844-0.56608 1.3761-1.3616 0.55387-1.0988 0.30606-1.1603 0.0026-1.4459-0.29083-1.125-0.53164-1.0532-0.36574-0.4627-0.36574-0.4627-1.1485-0.81958-0.86332-0.37006-1.5334-0.30129-1.512 0.20231-1.3204 0.55063-1.0377 0.81578-0.81578 1.0377-0.53547 1.284-0.20582 1.3266 0.06104 0.53949 0.06104 0.5395 0.43751 1.385 0.44591 0.63496 0.44591 0.63496 0.96266 0.76819 0.99402 0.49847 0.66386 0.215 1.1435 0.1413 0.90366-0.0793 0.5422-0.13368zm-2.2145-2.1006-0.2265-0.0689-0.61462-0.31783-0.85184-0.7968-0.48764-1.0866-2.71e-4 -0.65262-2.71e-4 -0.65263 0.13959-0.38845 0.1396-0.38845 0.28247-0.39333 0.28247-0.39333 0.78667-0.56494 0.7769-0.28534 1.2938-0.001627 1.0557 0.48181 0.78332 0.75894 0.23373 0.45183 0.23373 0.45183 0.07704 1.4459-0.40838 1.0831-1.0111 1.0111-1.0447 0.39086-1.2132-0.0156-0.2265-0.0689zm-11.386 0.51026v-1.5622l0.49701-0.59337 2.1688 3.7159 2.4851 0.001868v-0.1055l-3.1893-5.452-0.06262-0.11618 3.0351-4.131 0.06855-0.11296 0.06855-0.11296h-2.6882l-2.2474 3.0653-0.06777 0.0036-0.06778 0.0036v-3.0724h-2.1688v10.031h2.1688zm26.341-2.4816 1.4259-4.0439 0.69328-1.9429h-2.3146l-1.8631 5.2864-0.17722 0.48285-0.17722 0.48285-0.06762-0.0762-0.06761-0.0762-2.1313-6.0997h-2.3131l0.16652 0.47442 0.16652 0.47442 2.9296 8.3137 0.13443 0.38406 0.13443 0.38406h2.0353zm6.2359 3.9309 0.03924-0.11296 0.38066-1.0392h3.5887l0.38066 1.0392 0.07848 0.22592h2.2648l-0.001446-0.13554-3.4877-9.8499-2.0682-0.04914-3.4791 9.905v0.12956h2.2648l0.03924-0.11296zm1.6171-4.8511 0.55194-1.8012 0.11138 0.12334 0.5091 1.6758 0.5091 1.6758v0.12756h-2.2335zm14.242 3.8344v-1.1296h-4.1568v-7.7715h-2.1688v10.031h6.3256zm-25.569-20.057 0.86256-0.13003 1.5493-0.56061 1.5103-0.92944 1.3825-1.3665 0.91624-1.4082 0.55558-1.4407 0.26068-1.1273 0.12016-1.4494-0.10713-0.80506-0.10713-0.80506-0.26396-0.81976-0.26396-0.81976-0.84164-1.4844-1.2432-1.3492-1.1264-0.85367-1.6266-0.77432-1.5362-0.41517-2.6206 0.0142-1.4459 0.39117-1.4927 0.71358-0.85678 0.5838-1.2401 1.1858-0.79694 1.1127-0.35255 0.75397-0.35255 0.75397-0.38068 1.4963-0.0539 0.83326-0.0539 0.83326 0.20551 1.3555 0.47816 1.5814h0.14188l7.3752-4.634 0.2492-0.2303-2.3928-3.821 0.06516-0.06088 3.1387-0.84772 0.13608 0.15064 5.0916 8.1104-0.05266 0.0453-2.6801 1.6817-0.12122-0.18398-1.7151-2.7404h-0.12706l-7.3752 4.634-0.11834 0.10889-0.11834 0.10889 1.0328 0.94391 1.0768 0.73122 1.1092 0.5028 1.2761 0.38748 0.5819 0.0753 0.5819 0.07531 0.90366 0.02186z"/>
  <path d="m37.775 78.897-0.31628-0.03544-2.2591-0.19902-3.1896-0.53072-2.8649-0.72374-2.8917-0.97444-2.424-1.0217-2.1092-1.0573-1.7924-1.0281-2.3495-1.5414-2.1266-1.6203-2.2109-1.9525-1.8276-1.8688-1.4412-1.6552-1.6306-2.1402-1.5414-2.3495-1.0273-1.7909-0.97952-1.9531-1.0635-2.4912-0.82907-2.3889-0.7254-2.6716-0.5322-2.711-0.14115-1.1296-0.14115-1.1296-0.18378-2.3306v-3.2007l0.18378-2.3306 0.28231-2.2591 0.5322-2.711 0.7254-2.6716 0.82907-2.3889 1.0635-2.4912 0.97952-1.9531 1.0273-1.7909 1.5414-2.3495 1.6306-2.1402 1.4412-1.6552 1.8276-1.8688 2.2109-1.9525 2.1266-1.6203 2.3495-1.5414 1.7909-1.0273 1.9531-0.97952 2.5512-1.0912 2.9221-0.98358 2.8712-0.72534 3.2736-0.53811 2.1688-0.23275h5.3316l2.1688 0.23275 3.2736 0.53811 2.8712 0.72534 2.9221 0.98358 2.5512 1.0912 1.9531 0.97952 1.7909 1.0273 2.3495 1.5414 2.1266 1.6203 2.2109 1.9525 1.8276 1.8688 1.4412 1.6552 1.6306 2.1402 1.5414 2.3495 1.0273 1.7909 0.97952 1.9531 1.0635 2.4912 0.82907 2.3889 0.7254 2.6716 0.5322 2.711 0.14115 1.1296 0.14116 1.1296 0.18378 2.3306v3.2007l-0.18378 2.3306-0.14116 1.1296-0.14115 1.1296-0.5322 2.711-0.7254 2.6716-0.82968 2.3849-0.98421 2.3377-1.0573 2.1092-0.51406 0.89618-0.51406 0.89618-1.5414 2.3495-1.6306 2.1402-1.4412 1.6552-1.8276 1.8688-2.2109 1.9525-2.1266 1.6203-2.3495 1.5414-1.7924 1.0281-2.1092 1.0573-2.424 1.0217-2.8917 0.97444-2.8013 0.70747-2.711 0.47042-2.4399 0.28687-5.0605 0.05958zm-6.5967-24.95 0.49701-0.13583 1.246-0.65241 1.1063-1.1063 0.58762-1.1025 0.13874-0.39122 0.13874-0.39122 0.16068-1.2651-0.08199-0.64881-0.08199-0.64881-0.36267-1.0319-0.75593-1.1602-1.011-0.90369-1.2651-0.62422-1.2651-0.26562h-0.90366l-1.2651 0.26562-1.3555 0.66426-1.281 1.2809-0.66443 1.3555-0.14285 0.67774-0.14285 0.67774 0.1111 1.3933 0.35803 1.1592 0.87896 1.3332 0.26076 0.23911 0.26076 0.23911 1.0562 0.73264 1.2029 0.40129 1.0844 0.11627 0.99402-0.0723zm-2.3202-2.142-0.37735-0.12334-0.6285-0.38844-0.6422-0.71084-0.34364-0.68589-0.1311-0.5422 0.0042-0.57206 0.0042-0.57206 0.46759-1.0247 0.75894-0.78332 0.88098-0.45106 0.92634-0.1491 0.98676 0.17972 0.84001 0.42566 0.82932 0.9224 0.19443 0.51523 0.19443 0.51523-0.0763 1.3684-0.43068 0.89078-0.82102 0.81906-0.90366 0.42872-1.3555 0.06114-0.37735-0.12334zm-11.323 0.55397 0.0024-1.5588 0.49215-0.58616 2.1688 3.7036 2.5044 1.49e-4 -0.10298-0.26836-3.1086-5.2891-3.62e-4 -0.09349-3.61e-4 -0.09349 2.8168-3.8184 0.3065-0.46778h-2.7053l-1.1654 1.5588-1.1653 1.5588-0.04946-3.1176h-2.1645v10.031h2.1688zm25.055 1.1748 0.13358-0.38406 3.1692-8.9462 0.06213-0.15814 0.06213-0.15814h-2.35l-0.72147 2.0332-1.4954 4.2176-0.13294-0.24151-2.0927-5.9449-0.07004-0.07004-2.2676 0.05076 3.4213 9.7595 0.08126 0.22592h2.0671zm7.7277-0.2711 0.22329-0.60997h3.5647l0.44658 1.2199 2.2894 0.05058 0.0024-0.14094-3.4815-9.8931-2.0935-0.001988-3.4676 9.8951 0.0018 0.07048 0.0018 0.07047 2.2894-0.05058 0.22329-0.60997zm0.92044-2.5754-8.13e-4 -0.06777 1.0316-3.3889 0.12674 0.13568 0.506 1.6428 0.506 1.6428v0.1032h-2.1688l-8.13e-4 -0.06777zm14.73 2.101v-1.1296h-4.1568v-7.7715h-2.1688v10.031h6.3256zm-24.941-20.154 0.58738-0.13909 0.9572-0.35578 0.75975-0.38631 1.0844-0.731 1.1213-1.0716 0.92556-1.3389 0.31004-0.67105 0.31004-0.67105 0.19974-0.79534 0.19974-0.79534-0.0078-1.2651-0.0078-1.2651-0.3869-1.4459-0.72823-1.5233-0.79317-1.1115-1.4323-1.3413-1.2464-0.73855-1.1981-0.47839-1.1514-0.27909-1.8977-0.10648-1.6536 0.28906-1.5415 0.55778-1.6208 1.0678-1.0975 1.0975-0.98182 1.4821-0.48488 1.1605-0.35221 1.3698-0.10796 1.6266 0.10852 0.81303 0.10852 0.81303 0.23155 0.7006 0.23155 0.7006h0.15578l7.3658-4.6297 0.25347-0.23893-2.3882-3.8255 0.05634-0.04394 3.1446-0.84385 0.06574 0.06574 5.1516 8.1877-0.0483 0.03334-2.6826 1.6853-0.11876-0.18668-1.6995-2.7337h-0.15208l-7.3658 4.6271-0.23592 0.22398 1.0637 0.98482 1.0351 0.68706 1.2999 0.59992 1.1411 0.29511 1.0276 0.1633 1.8977-0.08006z"/>
  <path d="m37.414 78.851-1.0392-0.073124-2.3495-0.2925-2.3495-0.44826-2.711-0.70238-2.2591-0.74933-2.2591-0.91372-2.1688-1.0278-2.3495-1.314-2.8013-1.8666-2.3495-1.8771-2.0885-1.9096-1.8282-1.9652-1.208-1.4459-1.6527-2.2068-1.4693-2.3115-1.4629-2.711-1.0659-2.4399-0.84815-2.2591-0.78414-2.711-0.46527-2.0827-0.18123-1.0601-0.18123-1.0601-0.30892-2.7554v-5.3316l0.30892-2.7554 0.18123-1.0601 0.18123-1.0601 0.46527-2.0827 0.78414-2.711 0.84815-2.2591 1.0659-2.4399 1.4629-2.711 1.4693-2.3115 1.6527-2.2068 1.208-1.4459 1.8282-1.9652 2.0885-1.9096 2.3495-1.8771 2.8013-1.8666 2.3495-1.314 2.1688-1.0278 2.2591-0.91372 2.2591-0.74933 2.711-0.70238 2.3495-0.44759 2.2591-0.28124 2.6206-0.18219h2.4399l2.6206 0.18219 2.2591 0.28124 2.3495 0.44759 2.711 0.70238 2.2591 0.74933 2.2591 0.91372 2.1688 1.0278 2.3495 1.314 2.8013 1.8686 2.0696 1.6435 2.018 1.8001 1.7269 1.7992 1.5975 1.8626 1.5577 2.0784 1.3702 2.1044 1.3036 2.3235 1.0278 2.1688 0.91372 2.2591 0.37467 1.1296 0.37467 1.1296 0.70238 2.711 0.2238 1.1748 0.2238 1.1748 0.13997 1.1296 0.13997 1.1296 0.18454 2.5302v2.6206l-0.18454 2.5302-0.13997 1.1296-0.13997 1.1296-0.2238 1.1748-0.2238 1.1748-0.70238 2.711-0.37467 1.1296-0.37467 1.1296-0.91372 2.2591-1.0278 2.1688-1.3036 2.3235-1.3702 2.1044-1.5577 2.0784-1.5975 1.8626-1.7269 1.7992-2.018 1.8001-2.0696 1.6435-2.8013 1.8686-2.3495 1.314-2.1688 1.0278-2.2591 0.91372-2.2591 0.74933-2.711 0.70238-2.3495 0.44759-2.2591 0.28124-1.3103 0.0911-1.3103 0.09109-2.8917-0.02402zm-5.9901-24.975 0.73299-0.23155 1.3262-0.94874 0.95106-1.2624 0.18805-0.49701 0.18805-0.49701 0.13532-0.63256 0.13532-0.63256-0.05667-0.64981-0.05667-0.64981-0.28177-0.95953-0.5692-1.0844-1.2661-1.2661-1.0844-0.56435-0.99402-0.33644h-1.988l-0.99402 0.3395-1.0844 0.54221-1.2848 1.2851-0.5012 0.98996-0.17332 0.49904-0.17332 0.49904-0.10606 1.4613 0.15416 0.69292 0.15416 0.69292 0.65386 1.307 1.2918 1.2918 1.3402 0.64163 1.2651 0.28029 1.3646-0.079zm-2.5875-2.0882-0.3995-0.14582-0.66562-0.42019-0.65753-0.76818-0.19022-0.50418-0.19022-0.50418 0.07704-1.4459 0.46747-0.90366 0.78332-0.74921 0.81329-0.41157 1.4459-0.07668 1.0305 0.3887 0.9033 0.81214 0.50612 1.0306-0.001626 1.6266-0.49501 0.94217-0.53617 0.61066-1.1047 0.58882-1.3867 0.07562-0.3995-0.14582zm-11.212 0.52657 4.52e-4 -1.604 0.40575-0.49473 2.1481 3.7027h2.6003l-0.25631-0.40665-2.7473-4.699-0.16692-0.27348-0.16692-0.27348 3.1526-4.288v-0.08999h-2.698l-2.2269 3.0115-0.04956-3.0115h-2.2548v10.031h2.2591l4.52e-4 -1.604zm24.893 1.4459 0.06211-0.15814 3.3213-9.4083 0.05872-0.15304 0.05873-0.15304h-2.3518l-0.53918 1.491-1.6768 4.7583-0.06454-0.11999-0.06454-0.11999-1.9952-5.693-0.1241-0.31628h-2.3495l0.05995 0.15622 0.05995 0.15622 3.2692 9.3115 0.15004 0.40665h2.0636zm7.8071-0.49701 0.21401-0.60997h3.5719l0.42802 1.2199 2.3043 0.05058 7e-3 -0.14094-3.4847-9.8951h-2.125v0.07422l-3.4339 9.7634v0.19834l2.3043-0.05058 0.21401-0.60997zm0.91556-2.578v-0.07037l1.0674-3.4287 0.05228 0.13555 0.05228 0.13555 0.99681 3.2214v0.07698h-2.1688zm14.73 2.1036v-1.1296h-4.1568v-7.7715h-2.2591v9.9101l0.12048 0.12048h6.2955zm-24.715-20.197 0.72293-0.1936 1.4772-0.69124 0.84864-0.58388 1.2635-1.1919 0.7863-1.1019 0.72823-1.5233 0.37762-1.4459 0.09826-1.8977-0.1049-0.67202-0.1049-0.67202-0.56432-1.7018-0.97615-1.5628-1.3896-1.4119-1.2317-0.82381-1.3889-0.58506-1.2651-0.33933-2.711-0.001988-1.5067 0.4112-1.1711 0.53102-1.2387 0.82349-1.285 1.285-0.9007 1.372-0.27101 0.70275-0.27101 0.70275-0.14147 0.51941-0.14147 0.51941-0.0491 0.99402-0.0491 0.99402 0.1016 0.65108 0.1016 0.65108 0.45932 1.454h0.19244l7.6488-4.8117-0.91872-1.4687-1.5154-2.4178 0.05218-0.0337 3.1537-0.84088 0.03536 0.03924 5.0904 8.0999-0.05842 0.17524-2.528 1.599-0.12682-0.07476-1.7463-2.7961h-0.18578l-7.5198 4.7277-0.03955 0.03275-0.03955 0.03274 0.80202 0.82606 1.0844 0.77564 1.2651 0.62838 0.96539 0.3164 1.2938 0.24708 2.1688-0.0741z"/>
  <path d="m38.137 78.894-0.58738-0.034247-2.7581-0.27419-2.6639-0.45552-2.6206-0.64093-3.1994-1.0554-2.6744-1.1336-2.2591-1.1571-1.717-1.0042-2.1368-1.4223-1.8301-1.3859-1.9069-1.6306-2.3631-2.3568-1.6243-1.9069-1.3859-1.8301-1.4223-2.1368-1.0042-1.717-1.1571-2.2591-1.1336-2.6744-1.0554-3.1994-0.64093-2.6206-0.45302-2.6494-0.30717-2.7726v-5.1509l0.30717-2.7726 0.45302-2.6494 0.64093-2.6206 1.0437-3.1641 0.94879-2.2578 1.0566-2.1688 1.2956-2.2591 1.4278-2.1368 1.3859-1.8301 1.6243-1.9069 2.3631-2.3568 1.9069-1.6306 1.8301-1.3859 2.1368-1.4278 2.2591-1.2956 2.1688-1.0566 2.1688-0.90951 2.4074-0.82288 2.2916-0.63408 2.2447-0.46234 2.2736-0.34233 2.1688-0.22547 5.0605 0.00382 2.7726 0.30637 2.559 0.4454 1.9783 0.45207 2.4062 0.72397 2.2235 0.806 2.6997 1.1977 2.3495 1.2749 1.8977 1.1803 2.0251 1.4355 1.8606 1.4919 2.376 2.1841 2.0047 2.2299 1.3513 1.6924 1.4215 2.0054 1.1797 1.8977 1.1786 2.1688 0.94956 2.0784 0.78083 1.94 0.90287 2.7885 0.63574 2.5911 0.45302 2.6494 0.15433 1.3863 0.15433 1.3863v5.1509l-0.15433 1.3863-0.15433 1.3863-0.45302 2.6494-0.32046 1.3103-0.32046 1.3103-1.0554 3.1994-1.1336 2.6744-0.57853 1.1296-0.57853 1.1296-1.0042 1.717-1.4223 2.1368-1.3859 1.8301-1.6243 1.9069-2.3631 2.3568-1.9069 1.6306-1.8301 1.3859-2.1368 1.4223-1.717 1.0042-2.2591 1.1571-2.6744 1.1336-3.1994 1.0554-2.6206 0.64093-2.6405 0.4515-2.6007 0.27759-4.1568 0.06912-0.58738-0.03425zm-6.8649-24.938 0.49416-0.14432 1.1748-0.64637 1.1748-1.1906 0.68125-1.3554 0.26445-1.2651v-0.90366l-0.26562-1.2651-0.66426-1.3555-1.281-1.2725-1.2838-0.66628-1.1561-0.27252h-1.2651l-1.1652 0.27464-1.1843 0.57342-1.4536 1.4536-0.57342 1.1843-0.13732 0.5826-0.13732 0.5826v1.2651l0.27252 1.1561 0.66313 1.2619 0.91418 1.0024 1.058 0.68523 0.99267 0.3714 0.93137 0.16722 1.4516-0.07888zm-2.4143-2.1887-0.46861-0.16746-0.74492-0.49296-0.57701-0.8124-0.30876-0.84994-0.0038-0.5614-0.0038-0.5614 0.39086-1.0447 1.0111-1.0111 1.0831-0.40854 1.3806 0.077 0.99798 0.48826 0.66948 0.74104 0.23806 0.50786 0.23806 0.50786v1.4459l-0.47843 1.0208-0.75981 0.75981-1.0038 0.45953-1.1918 0.06938zm-11.231 0.54636 3e-3 -1.604 0.16962-0.20332 0.16962-0.20332h0.09024l2.1111 3.6146h2.6251l-0.26196-0.40665-3.0137-5.1509-0.0044-0.18074 3.0784-4.1851v-0.10728h-2.7078l-2.2172 2.9953-0.02478-1.4976-0.02478-1.4976h-2.2548v10.031h2.2591l3e-3 -1.604zm26.564-3.2306 1.6911-4.7894 0.06509-0.206 0.06509-0.20599-2.3845 0.05052-1.0733 3.0273-1.0733 3.0273-0.0548 0.16138-2.1802-6.2159-2.3747-0.05043v0.0722l3.3281 9.4667 0.09694 0.25138 0.09694 0.25138 2.1065-0.05094zm6.1386 4.202 0.21536-0.63256h3.5478l0.4387 1.2651h2.3959l-0.69366-1.9429-2.8567-8.0877h-2.1197l-0.17844 0.49701-2.9312 8.3137-0.42157 1.2199h2.3881zm0.93236-2.6884 0.0434-0.15814 0.9659-3.1162 0.12552 0.1341 0.94668 3.0724 0.04215 0.11296 0.04215 0.11296h-2.2092zm14.707 2.1914v-1.1296h-4.1568v-7.7715h-2.2591v10.031h6.416zm-24.753-20.182 0.68489-0.17999 1.1605-0.48488 1.4553-0.96397 1.3617-1.4253 0.91074-1.4799 0.27888-0.84103 0.27888-0.84103 0.1052-0.67202 0.1052-0.67202-0.05147-0.99402-0.05147-0.99402-0.37972-1.4459-0.80015-1.6271-1.194-1.4923-1.3865-1.085-1.6266-0.80424-1.4459-0.41332-2.9821 0.0112-1.5898 0.48751-1.1212 0.56528-1.0796 0.73236-1.1832 1.1858-0.91716 1.374-0.59345 1.4255-0.17796 0.85938-0.17796 0.85938 0.04531 1.1296 0.04531 1.1296 0.38876 1.4286 0.26153 0.50574 3.7499-2.366 4.0255-2.5305-0.12391-0.19067-0.12391-0.19068-2.1059-3.3676v-0.16202l3.1176-0.83768 0.01021 0.01485 0.01021 0.01484 5.0853 8.0956v0.14232l-2.6272 1.655-0.85186-1.36-1.0315-1.6164-3.7579 2.3712-3.9287 2.4599-0.0022 0.15514 0.85848 0.80172 1.5007 1.0091 1.391 0.54196 1.5362 0.33819 2.2591-0.07614 0.68489-0.17999z"/>
  <path d="m37.788 78.849-1.298-0.074313-2.826-0.37266-2.6416-0.53815-2.6408-0.72409-2.2672-0.80429-2.1885-0.92052-2.2942-1.1496-1.7936-1.0295-2.0784-1.3599-1.8073-1.3567-2.0684-1.7356-2.3595-2.3529-1.7575-2.048-1.5095-2.0151-1.086-1.6266-1.204-2.0346-1.2554-2.5061-0.92008-2.1874-0.80429-2.2672-0.72409-2.6408-0.5379-2.6416-0.36107-2.7299-0.10462-1.8656-0.10462-1.8656 0.10462-1.8656 0.10462-1.8656 0.36107-2.7299 0.5379-2.6416 0.72409-2.6408 0.80429-2.2672 0.92008-2.1874 1.2554-2.5061 1.204-2.0346 1.086-1.6266 1.5095-2.0151 1.7575-2.0481 2.3913-2.3787 2.0366-1.7097 1.8073-1.3567 2.0784-1.3599 1.7936-1.0295 2.2942-1.1496 2.1885-0.92052 2.2672-0.80429 2.6408-0.72409 2.6416-0.5379 2.7343-0.36165 3.7269-0.20398 3.7269 0.20398 2.7343 0.36165 2.6416 0.5379 2.6408 0.72409 2.2672 0.80429 2.1885 0.92052 2.2942 1.1496 1.7936 1.0295 2.0618 1.3493 2.0317 1.526 2.0481 1.7575 2.3787 2.3913 1.7097 2.0366 1.3518 1.8073 1.0848 1.6266 1.204 2.0346 1.2554 2.5061 0.92008 2.1874 0.80429 2.2672 0.72409 2.6408 0.5379 2.6416 0.36106 2.7299 0.10462 1.8656 0.10462 1.8656-0.10462 1.8656-0.10462 1.8656-0.36106 2.7299-0.5379 2.6416-0.72409 2.6408-0.80429 2.2672-0.92008 2.1874-1.2554 2.5061-1.204 2.0346-1.0848 1.6266-1.3518 1.8073-1.7005 2.0256-2.3847 2.4028-2.0514 1.7571-2.0317 1.526-2.0618 1.3493-1.7936 1.0295-2.2899 1.1475-2.3488 0.98887-2.6947 0.91858-2.8501 0.7256-2.3911 0.43805-2.2591 0.28391-3.1628 0.17942-0.76811-0.01197-0.76811-0.01198zm-6.7533-24.838 0.69798-0.17851 1.118-0.59088 1.2765-1.2687 0.65386-1.307 0.15416-0.69292 0.15416-0.69292-0.05302-0.73067-0.05303-0.73067-0.17332-0.49904-0.17332-0.49904-0.50062-0.98996-1.3758-1.3627-1.1878-0.57565-1.1606-0.29732-1.8085 0.09382-1.107 0.38871-0.92915 0.58585-0.92982 0.89623-0.67894 1.0441-0.19734 0.56233-0.19734 0.56233-0.04566 0.90366-0.04566 0.90366 0.15218 0.58738 0.15218 0.58738 0.27468 0.56108 0.27467 0.56108 1.018 1.1249 1.0581 0.68388 1.0204 0.38323 0.72293 0.1451 1.191 0.0198zm-2.0309-2.1986-0.41303-0.11696-0.82666-0.48445-0.48089-0.5715-0.47938-0.92308-0.0076-1.6266 0.19527-0.42252 0.19527-0.42252 0.75864-0.82303 1.0196-0.50071h1.6266l1.1359 0.61595 0.56274 0.64092 0.23251 0.50114 0.23251 0.50114 0.0042 1.4459-0.26084 0.53208-0.26084 0.53208-0.71376 0.69268-0.9413 0.46054-1.166 0.08596-0.41303-0.11696zm-11.377 0.50202 3e-3 -1.604 0.17998-0.21612 0.17999-0.21612 0.07338 0.07338 2.0182 3.4313 0.13202 0.1407 2.5551-0.05034-3.2443-5.5123-5.43e-4 -0.09037-5.42e-4 -0.09037 3.1376-4.2472-0.12616-0.1407-2.6064 0.05034-2.2591 3.0269-0.04956-2.9817h-2.2548v10.031h2.2591l3e-3 -1.604zm26.622-3.3661 1.7437-4.9249 0.0032-0.11296 0.0032-0.11296h-2.237l-0.08931 0.11296-0.0893 0.11296-1.9164 5.422-0.23732 0.68739-2.1396-6.1093-0.09047-0.11296-0.09047-0.11296h-2.237l-0.0026 0.06778-0.0026 0.06777 3.4844 9.987 2.1541-0.04672zm6.094 4.3376 0.21536-0.63256h3.5326l0.21536 0.63256 0.21535 0.63256h2.4065l-0.558-1.5814-2.953-8.3629-0.10918-0.17666h-1.9553l-0.0853 0.11296-0.08529 0.11296-2.4647 7.0485-0.99667 2.8465h2.4068zm0.91708-2.6432 0.03913-0.11296 0.48943-1.6002 0.48943-1.6002 0.1157 0.12794 0.45911 1.4975 0.45911 1.4975 0.1164 0.30334h-2.2075zm14.71 2.1462v-1.1296h-4.1568v-7.8674l-2.214 0.05074-0.02335 5.0379-0.02335 5.0379h6.4175zm-24.76-20.156 0.58738-0.15744 1.3889-0.5844 1.2424-0.82595 1.54-1.5975 0.77062-1.2971 0.25543-0.65822 0.25544-0.65822 0.30802-1.5215-0.09546-2.3642-0.38869-1.3433-0.60032-1.2993-0.77956-1.1479-1.1905-1.1905-1.0796-0.73236-1.0844-0.54165-1.1748-0.3773-1.1281-0.21339-2.4866 0.09026-1.5362 0.49367-1.4398 0.74488-1.2786 1.0161-0.82189 0.97665-0.5473 0.81329-0.54094 1.0844-0.18876 0.58738-0.18877 0.58738-0.18994 1.0724v1.8721l0.14215 0.68818 0.14215 0.68818 0.37277 1.0107 0.04844 0.05788 7.6533-4.8148 0.12814-0.12448-2.3421-3.7487 5.43e-4 -0.06771 5.42e-4 -0.06771 2.9358-0.77324 0.20961 0.0052 4.9787 7.9171 0.0983 0.26096-2.5043 1.5814h-0.17918l-1.6995-2.7337-0.11116-0.17438-7.5566 4.7606-0.1699 0.11402 0.1771 0.31646 1.2446 1.0541 1.3001 0.74392 1.3069 0.45448 1.1884 0.24792 2.4399-0.06709 0.58738-0.15744z"/>
  <path d="m38.227 78.857-1.4007-0.06813-2.5302-0.30428-2.4399-0.44639-2.5302-0.6308-3.182-1.0683-2.6014-1.1077-2.5351-1.3216-1.7121-1.0359-2.2591-1.5384-1.6266-1.2739-1.8977-1.6654-2.4461-2.5044-1.3633-1.6266-1.2006-1.5797-1.2724-1.8965-1.0125-1.6698-1.3216-2.5351-1.1077-2.6014-1.0683-3.182-0.6308-2.5302-0.22294-1.2199-0.22294-1.2199-0.29306-2.4239-0.15182-3.4047 0.075912-1.7024 0.075912-1.7024 0.29306-2.4239 0.22294-1.2199 0.22294-1.2199 0.6308-2.5302 1.0683-3.182 1.1077-2.6014 1.3216-2.5351 1.0125-1.6698 1.2724-1.8965 1.2006-1.5797 1.3633-1.6266 2.4461-2.5044 1.8977-1.6675 1.7555-1.3669 2.4013-1.6223 2.4073-1.3831 1.6038-0.80548 2.5664-1.0977 3.182-1.0683 2.5302-0.6308 2.4399-0.44589 2.3938-0.28939 3.4348-0.16242 3.4348 0.16242 2.3938 0.28939 2.4399 0.44589 2.5302 0.6308 3.182 1.0683 2.6014 1.1077 2.5351 1.3216 1.7121 1.0359 2.2591 1.5384 1.6266 1.2739 1.8977 1.6654 2.4461 2.5044 1.3633 1.6266 1.2006 1.5797 1.2724 1.8965 0.50627 0.83491 0.50627 0.83491 1.3216 2.5351 1.1077 2.6014 1.0683 3.182 0.6308 2.5302 0.44589 2.4399 0.2946 2.4364 0.14306 3.2752-0.14126 3.5056-0.1482 1.2199-0.1482 1.2199-0.44589 2.4399-0.6308 2.5302-1.0683 3.182-1.1077 2.6014-1.3216 2.5351-0.51796 0.85604-0.51797 0.85604-1.5384 2.2591-1.2739 1.6266-1.6706 1.8977-2.3184 2.2733-1.3555 1.1762-1.6266 1.2712-2.2591 1.5384-1.7121 1.0359-2.5351 1.3216-2.6014 1.1077-3.182 1.0683-2.5302 0.62783-1.984 0.37843-2.715 0.3469-2.1688 0.10194-1.8977 0.06263zm-7.234-24.808 0.5826-0.13732 1.1843-0.57342 1.4636-1.4536 0.56596-1.1929 0.29399-1.247-0.04827-0.85848-0.04827-0.85848-0.37011-1.0547-0.29197-0.51032-0.29197-0.51032-1.1147-1.0983-1.2427-0.6515-1.1105-0.28649h-1.6077l-1.0605 0.27623-1.2818 0.66591-1.1815 1.1815-0.65564 1.2651-0.28649 1.1105 0.0026 1.5101 0.26714 1.133 0.4733 0.94538 0.74792 0.98118 1.0844 0.8 0.69527 0.35504 1.2928 0.3389 1.3555 0.0072 0.5826-0.13732zm-1.9759-2.2577-0.48966-0.13662-0.58017-0.35856-0.76095-0.82553-0.19392-0.42252-0.19392-0.42252-0.0026-1.4459 0.47843-1.0208 0.75982-0.75981 1.0208-0.47843 1.4459-1.44e-4 1.0284 0.50501 0.91332 0.99932 0.19126 0.62967 0.19126 0.62967-0.06139 0.49136-0.06139 0.49136-0.26811 0.53654-0.26811 0.53654-0.73986 0.66842-0.92696 0.42438-0.99242 0.09512zm-11.393 0.56781 4.52e-4 -1.5588 0.40575-0.49268 2.0806 3.5651 2.6636 0.05002v-0.07614l-3.2532-5.5504v-0.06818l3.091-4.1935 0.09114-0.23753h-2.8025l-2.2321 3.0265-0.04966-2.9362h-2.2547v10.031h2.2591l4.52e-4 -1.5588zm26.637-3.3898 1.7421-4.9464-0.0025-0.11558-0.0025-0.11558-2.3688 0.05043-2.1481 6.0545-0.05572 0.16294-1.0906-3.1087-1.0906-3.1087-2.3731-0.05043-0.0017 0.11558-0.0017 0.11558 3.472 9.8951 2.1793-0.0022 1.7421-4.9464zm6.0923 4.3387 0.22343-0.60997h3.4938l0.44686 1.2199h2.4342l-0.0418-0.11296-0.04181-0.11296-3.4913-9.8951h-2.1129l-0.28822 0.76811-3.2606 9.2922v0.06066h2.4149zm0.91287-2.6658 0.04199-0.11296 0.96189-3.117 0.12584 0.1349 0.98846 3.208h-2.1602zm14.703 2.1462v-1.1296h-4.1568v-7.8618h-2.2591v10.121h6.416zm-24.462-20.231 0.79491-0.23809 1.1212-0.56359 0.97951-0.64744 1.0452-0.96766 0.89103-1.2084 0.62832-1.2651 0.37766-1.1748 0.18994-1.0724v-1.9625l-0.14278-0.69653-0.14278-0.69652-0.26945-0.67774-0.26945-0.67774-0.83846-1.348-1.2332-1.2983-1.3532-0.93546-1.2157-0.55122-1.697-0.43048h-2.3935l-1.697 0.43048-1.2099 0.5486-1.0469 0.69269-1.3211 1.2529-1.0536 1.5752-0.54648 1.4191-0.28704 1.3931 0.0032 2.1312 0.13275 0.63256 0.13276 0.63256 0.38951 1.0487 0.25761-0.09886 7.5696-4.7452 9e-3 -0.1411-2.3497-3.7354 0.1357-0.11722 2.9363-0.78114 0.07356 0.07588 5.0973 8.0984-0.06464 0.04576-2.5023 1.5702-0.11826-0.0064-1.7865-2.8954-0.26312 0.10096-7.5292 4.7309-0.07862 0.0612 0.35559 0.36634 0.35559 0.36635 1.1748 0.8692 1.1739 0.58857 0.99484 0.34951 1.1748 0.25178 2.6206-0.06138 0.79491-0.2381z"/>
 </g>
</svg>
