<?xml version="1.0" encoding="UTF-8"?>
<svg width="79.375mm" height="45.67mm" version="1.1" viewBox="0 0 79.375 45.67" xmlns="http://www.w3.org/2000/svg" xmlns:cc="http://creativecommons.org/ns#" xmlns:dc="http://purl.org/dc/elements/1.1/" xmlns:rdf="http://www.w3.org/1999/02/22-rdf-syntax-ns#">
 <defs>
  <clipPath id="clipPath2063">
   <path d="m274.76 472.56c-0.665 0-1.4533-0.4433-2.3652-1.33-0.9114-0.887-1.7244-2.094-2.4384-3.6213-0.8623-1.7736-1.2935-3.2272-1.2935-4.3602 0-1.1333 0.4312-1.6997 1.2935-1.6997 0.616 0 1.3054 0.3325 2.0693 0.9975-0.3943 0.5667-0.5913 1.1702-0.5913 1.8108 0.049 1.059 0.4805 1.5888 1.2931 1.5888 0.3204 0 0.5851-0.1108 0.7946-0.3325 0.2095-0.2216 0.3141-0.4249 0.3141-0.6097s-0.025-0.3756-0.0737-0.5729c0.4187 0.616 0.8988 1.4905 1.4405 2.6238 0.6163 1.2563 0.9239 2.4879 0.9239 3.6949s-0.4556 1.8105-1.3669 1.8105zm57.828-4.5564v0.0218c-3e-3 0.2138-0.1021 0.2843-0.296 0.2115-0.1227-0.0247-0.2338-0.148-0.3325-0.3696-0.985-2.02-1.9828-3.6582-2.9928-4.9145-0.69-0.8623-1.2685-1.2931-1.7371-1.2931-0.369 0-0.5541 0.2401-0.5541 0.7205 0 0.4802 0.0805 1.1084 0.2401 1.8845 0.1604 0.7758 0.6471 1.946 1.4598 3.5101 0.813 1.5645 1.4408 2.5682 1.8845 3.0116-0.197-0.0491-0.4986-0.0369-0.9051 0.0371-0.4065 0.0737-0.6594 0.1108-0.7577 0.1108-0.4927 0-0.8989-0.1664-1.2192-0.4989s-0.7146-0.9544-1.1826-1.866c-2.3896-4.5326-4.3234-6.7989-5.8011-6.7989-0.616 0-0.9238 0.4802-0.9238 1.4411 0 0.9607 0.4799 2.2417 1.4411 3.843 0.7634 1.33 1.5885 2.4879 2.4755 3.4733 1.552 1.6749 2.8576 2.5126 3.9169 2.5126 0.9113 0 1.5024-0.4434 1.7734-1.3303 0.3203-0.0491 0.5297 0.0493 0.6284 0.2956 0.0984 0.2464 0.0247 0.5052-0.222 0.7762-0.7883 0.7883-1.7489 1.1823-2.8819 1.1823-0.4187 0-0.8623-0.0615-1.3303-0.1848-1.7246-0.4187-3.178-1.3179-4.36-2.6975-1.3748-1.6333-2.2983-3.2505-2.7703-4.852-1.0293-1.9072-1.904-3.2213-2.6246-3.9422-0.5173-0.468-1.0103-0.7021-1.4783-0.7021-0.7633 0-1.1455 0.3571-1.1455 1.0715 0 0.6406 0.2092 1.4164 0.6285 2.3281l2.956 6.9097c0.2463 0.4433 0.3203 0.7699 0.2213 0.9791-0.098 0.2095-0.4308 0.3144-0.9975 0.3144l-2.0321-0.0372c0.2953-0.394 0.443-0.7143 0.443-0.9606 0-0.2464-0.0246-0.4434-0.0737-0.5914l-1.4865-3.7856c-2.097-4.201-3.7698-6.302-5.0167-6.302-0.468 0-0.7024 0.3203-0.7024 0.9607 0 1.6259 1.5154 5.0992 4.545 10.42-0.1227 0.049-0.2582 0.0737-0.4065 0.0737-0.6156 0-1.5885-0.3631-2.9188-1.0899-1.3306-0.7268-2.4695-1.5151-3.418-2.365-0.9482-0.8498-2.0018-1.989-3.1592-3.418 2.0693 4.1386 3.5592 6.4542 4.4711 6.9469-0.197-0.0493-0.4989-0.0369-0.9054 0.0368-0.4065 0.074-0.6591 0.1112-0.7574 0.1112-0.5176 0-0.9241-0.148-1.2195-0.4437-0.4816-0.4632-1.3677-1.9718-2.6581-4.5255-0.0671-0.0244-0.1167-0.074-0.1505-0.1488-0.049-0.1108-0.1907-0.4187-0.4246-0.9238-0.2341-0.5049-0.4249-0.8929-0.5726-1.1639-0.1483-0.271-0.3818-0.6959-0.7021-1.2748-0.3206-0.5788-0.8502-1.25-1.5891-2.0137-0.5914-0.6653-1.2192-0.9978-1.8845-0.9978-0.8377 0-1.4162 0.3079-1.7365 0.9238 1.379 1.3057 2.414 2.759 3.1036 4.3603 0.5423 1.1823 0.8127 2.2909 0.8127 3.3256 0 2.2663-0.8988 3.3993-2.6971 3.3993-1.207 0-2.4821-0.6035-3.8245-1.8105-1.3425-1.207-2.3831-2.6728-3.1221-4.3971l-0.0941-0.2112c-0.8337-1.6041-1.628-2.9443-2.3817-4.0198-0.8376-1.1948-1.6999-1.7921-2.5866-1.7921-0.542 0-0.936 0.228-1.1826 0.6835-0.2464 0.4558-0.3697 0.9485-0.3697 1.4782 0 0.5296 0.0681 1.0594 0.2036 1.5889s0.3016 1.0839 0.4989 1.6628c0.197 0.5788 0.3078 0.9175 0.3325 1.0162 2.9313 2.685 5.4564 6.3802 7.575 11.085 0.5913 1.2809 0.8867 2.3402 0.8867 3.1779 0 0.2216-0.0122 0.4065-0.0372 0.5541-0.1967 0.813-0.5785 1.2195-1.1455 1.2195-0.8126 0-1.6378-0.4433-2.4757-1.3303-0.4184-0.4433-0.9913-1.2747-1.7178-2.4942-0.7268-1.2195-1.6135-3.0362-2.6606-5.4502-1.0182-2.3479-1.8091-4.5207-2.3729-6.5191-0.0184-0.0218-0.0343-0.0473-0.0476-0.0768-0.0494-0.1108-0.1908-0.4187-0.4249-0.9238-0.2339-0.5049-0.425-0.8929-0.5726-1.1639-0.1477-0.271-0.3822-0.6959-0.7019-1.2748-0.3203-0.5788-0.8501-1.25-1.5891-2.0137-0.591-0.6653-1.2195-0.9978-1.8848-0.9978-0.837 0-1.4164 0.3079-1.7365 0.9238 1.3797 1.3057 2.414 2.759 3.104 4.3603 0.542 1.1823 0.8127 2.2909 0.8127 3.3256 0 2.2663-0.8989 3.3993-2.6972 3.3993-1.2073 0-2.4817-0.6035-3.8242-1.8105-1.3431-1.207-2.3837-2.6728-3.1227-4.3971-0.5419-1.1826-0.8129-2.291-0.8129-3.3256 0-2.2663 0.8994-3.3996 2.6977-3.3996 0.9604 0 2.0075 0.4187 3.1408 1.2563 0.5663-0.6403 1.3547-0.9606 2.3646-0.9606 0.5417 0 1.1209 0.1848 1.7365 0.5541 0.2467 0.148 0.5055 0.3572 0.7765 0.6282 0.2707 0.271 0.4986 0.5173 0.6834 0.739 0.1845 0.2219 0.3943 0.5173 0.6279 0.8869 0.2344 0.3697 0.4189 0.665 0.5547 0.887l0.0694 0.1174c-0.0201-0.1491-0.0368-0.2994-0.0513-0.4502-0.0243-0.468-0.0368-0.8498-0.0368-1.1455 0-0.2956 0.0434-0.6341 0.1293-1.0159 0.0861-0.3818 0.339-0.7393 0.7574-1.0718 0.4186-0.3325 1.01-0.4989 1.7739-0.4989 0.7634 0 1.5763 0.271 2.4384 0.813 0.3203 0.1973 0.6593 0.4989 1.0165 0.9054 0.3568 0.4065 0.6406 0.739 0.8498 0.9978 0.1978 0.2443 0.4289 0.6097 0.6931 1.0967-7e-3 -0.1142-9e-3 -0.2271-9e-3 -0.3393 0-2.2663 0.8989-3.3996 2.6972-3.3996 0.9606 0 2.0075 0.4187 3.1408 1.2563 0.5669-0.6403 1.3552-0.9606 2.3652-0.9606 0.542 0 1.1208 0.1848 1.7365 0.5541 0.2443 0.1469 0.5009 0.3538 0.769 0.6214-0.3707-0.7708-0.6519-1.3473-0.8427-1.7297 0.172 0.0983 0.5295 0.1601 1.0715 0.1845 0.542 0.0247 0.9054 0.0678 1.0902 0.1296 0.1842 0.0615 0.3506 0.2154 0.4986 0.4617 1.6503 3.2516 3.3625 5.6906 5.1364 7.3162 1.182 1.1087 1.9825 1.6628 2.4018 1.6628 0.4184 0 0.6278-0.1292 0.6278-0.3877 0-0.2588-0.1355-0.6098-0.4064-1.0531-1.1087-1.7736-1.7862-3.0546-2.0322-3.8429-0.2463-0.7883-0.3696-1.4596-0.3696-2.014 0-0.5542 0.1233-0.9916 0.3696-1.3116 0.4683-0.69 1.1514-1.0347 2.0509-1.0347 0.8988 0 1.7983 0.4989 2.6971 1.4964 0.4354 0.4833 0.9185 1.1585 1.4497 2.0257-0.0428-0.2586-0.0638-0.5089-0.0638-0.7509 0-0.665 0.1973-1.2685 0.5913-1.8105 0.3937-0.542 1.0409-0.813 1.9397-0.813 0.8995 0 1.8536 0.5788 2.8639 1.7368 0.3589 0.4065 0.758 0.9813 1.1976 1.7243-0.0102-0.1684-0.015-0.3368-0.015-0.5048 0-1.2566 0.3694-2.1433 1.1081-2.6606 0.3206-0.2464 0.6774-0.3697 1.0715-0.3697 1.4292 0 3.1286 1.5891 5.0995 4.7668-0.2463-0.8867-0.3696-1.6382-0.3696-2.2539 0-0.6159 0.1111-1.1086 0.3325-1.4782 0.4436-0.6897 1.0227-1.0347 1.7367-1.0347 1.5523 0 3.4611 2.291 5.7274 6.8729 0.0718 0.1672 0.1089 0.311 0.1112 0.432zm-50.254 1.0831c1.2563 1.281 2.5008 2.8945 3.7321 4.8407 1.232 1.946 2.1371 3.6026 2.7162 4.9697 0.5785 1.3675 0.8679 2.2972 0.8679 2.7899s-0.0858 0.739-0.2585 0.739c-0.246 0-0.714-0.4864-1.4043-1.4596-0.6893-0.9728-1.6197-2.7221-2.7892-5.2469-1.1705-2.5251-2.1252-4.7358-2.8642-6.6328zm35.325 6.0599c-0.3447-0.2956-0.7265-0.4433-1.1458-0.4433-0.4187 0-0.7512 0.1477-0.9972 0.4433-0.2463 0.2957-0.3453 0.6528-0.2959 1.0718 0.0739 0.4187 0.2831 0.7758 0.6284 1.0715 0.345 0.2957 0.7268 0.4433 1.1455 0.4433s0.7574-0.1476 1.0162-0.4433c0.2582-0.2957 0.3506-0.6528 0.2767-1.0715-0.0737-0.419-0.2829-0.7761-0.6279-1.0718zm-22.688-2.5866c-0.665 0-1.4534-0.4433-2.3644-1.33-0.9116-0.887-1.7246-2.094-2.4389-3.6213-0.8623-1.7736-1.2932-3.2272-1.2932-4.3602 0-1.1333 0.4309-1.6997 1.2932-1.6997 0.6156 0 1.3056 0.3325 2.069 0.9975-0.3941 0.5667-0.5913 1.1702-0.5913 1.8108 0.0496 1.059 0.4804 1.5888 1.2937 1.5888 0.32 0 0.5851-0.1108 0.7943-0.3325 0.2092-0.2216 0.314-0.4249 0.314-0.6097s-0.0243-0.3756-0.0739-0.5729c0.4186 0.616 0.8994 1.4905 1.4414 2.6238 0.6157 1.2563 0.9238 2.4879 0.9238 3.6949s-0.4558 1.8105-1.3677 1.8105zm-24.424 14.263c2.6116-1.552 3.9167-3.4243 3.9167-5.6166 0-1.7246-0.9604-3.5719-2.882-5.5429-1.1087-1.1576-2.4205-2.1554-3.9354-2.9931-1.5148-0.8373-3.0112-1.4408-4.4892-1.8104-2.5622-0.6157-4.8779-0.9239-6.9471-0.9239-0.4431 0-0.8867 0.0125-1.3303 0.0372-1.7983-2.636-3.646-4.8776-5.5423-6.7252-2.784-2.6113-5.851-3.9169-9.201-3.9169-3.2023 0-5.1733 0.8745-5.9122 2.6237-0.1727 0.4187-0.2588 0.9051-0.2588 1.4596 0 0.5541 0.2831 1.1514 0.8501 1.792 0.8866 1.01 2.1308 1.5149 3.7321 1.5149 1.0343 0 2.1186-0.1846 3.2516-0.5542 0.4187-0.1477 0.5663-0.3078 0.4436-0.4805-0.0986-0.0983-0.4192-0.049-0.9609 0.148s-1.2136 0.2957-2.0141 0.2957-1.5023-0.3019-2.1058-0.9054-0.9054-1.2501-0.9054-1.9401c0-0.271 0.049-0.542 0.148-0.8129 0.394-1.3301 1.5148-1.9954 3.3621-1.9954 2.7593 0 5.4686 1.281 8.1292 3.843 1.8973 1.8476 4.0281 5.1732 6.3924 9.9768 0.9117 1.7983 2.045 3.7998 3.3996 6.0046 1.3553 2.2048 2.7343 4.0955 4.1389 5.6719 0.1721 0.1726 0.3937 0.3943 0.6647 0.6653 0.5173 0.591 0.9488 1.0593 1.2938 1.404-1.774 0.2463-3.6706 0.3696-5.6909 0.3696-2.0199 0-3.9291-0.1664-5.7274-0.4989s-3.3624-0.7268-4.6927-1.1823c-1.3303-0.4558-2.6791-1.0471-4.0459-1.7737-1.3675-0.7268-2.5192-1.6443-3.4552-2.753-1.2313-1.404-1.8473-2.8698-1.8473-4.3971 0-0.936 0.3325-1.8107 0.9978-2.6234 0.714-0.8623 1.6319-1.2935 2.7524-1.2935 1.1208 0 2.2051 0.4312 3.2516 1.2935 1.0472 0.862 1.7927 1.9213 2.2357 3.1776 0.025 0.1726 0.08 0.2894 0.1661 0.3512 0.0868 0.0615 0.1664 0.0553 0.2404-0.0187 0.0737-0.0737 0.1109-0.197 0.1109-0.3694-0.0244-1.6012-0.6463-2.8638-1.8658-3.7876-1.2198-0.9235-2.5682-1.3856-4.0465-1.3856-1.675 0-3.0421 0.4927-4.1011 1.478-1.0593 0.9853-1.5891 2.2541-1.5891 3.8061 0 1.4286 0.3818 2.7159 1.1452 3.8613 0.7639 1.1455 1.6752 2.0756 2.7345 2.7899 1.0594 0.7143 2.2785 1.355 3.6582 1.9213 2.3402 0.9363 4.7976 1.5951 7.3717 1.9769 2.5745 0.3818 4.9763 0.5729 7.2054 0.5729 2.2298 0 4.2925-0.197 6.1895-0.5913 0.8866 0.6896 1.6628 1.1579 2.3281 1.4043 0.665 0.2463 1.0406 0.3693 1.1267 0.3693 0.0865 0 0.1418-0.0122 0.1661-0.0368 0.1483 0 0.1786-0.0803 0.0925-0.2401-0.0859-0.1602-0.3694-0.4006-0.8499-0.7206-0.4804-0.3203-0.9419-0.7021-1.3855-1.1455 1.5766-0.4189 3.0052-1.01 4.2862-1.7736zm-14.632-16.074c1.7983 0 3.7505 0.3141 5.8564 0.9423 2.1067 0.6281 3.9724 1.5457 5.5984 2.753 3.153 2.3893 4.7299 4.8529 4.7299 7.3902 0 2.882-2.1804 4.8404-6.5404 5.8751-1.3796-1.9214-3.1657-4.8405-5.3583-8.7574-2.1923-3.9169-3.7936-6.6512-4.8033-8.2032h0.5173z" clip-rule="evenodd"/>
  </clipPath>
  <linearGradient id="linearGradient2075" x1="321.75" x2="319.87" y1="478.94" y2="455.74" gradientUnits="userSpaceOnUse">
   <stop stop-color="#f9b000" offset="0"/>
   <stop stop-color="#fc0" offset=".19"/>
   <stop stop-color="#fff7b2" offset=".42"/>
   <stop stop-color="#fdc200" offset=".74"/>
   <stop stop-color="#fff7b2" offset="1"/>
  </linearGradient>
  <clipPath id="clipPath2085">
   <path d="m332.44 420.78v0.5589h-98.322v-0.5589z" clip-rule="evenodd"/>
  </clipPath>
  <linearGradient id="linearGradient2097" x1="289.2" x2="277.35" y1="432.6" y2="409.51" gradientUnits="userSpaceOnUse">
   <stop stop-color="#f9b000" offset="0"/>
   <stop stop-color="#fc0" offset=".19"/>
   <stop stop-color="#fff7b2" offset=".42"/>
   <stop stop-color="#fdc200" offset=".74"/>
   <stop stop-color="#fff7b2" offset="1"/>
  </linearGradient>
 </defs>
 <metadata>
  <rdf:RDF>
   <cc:Work rdf:about="">
    <dc:format>image/svg+xml</dc:format>
    <dc:type rdf:resource="http://purl.org/dc/dcmitype/StillImage"/>
    <dc:title/>
   </cc:Work>
  </rdf:RDF>
 </metadata>
 <g transform="translate(-4.2509 -130.06)">
  <path d="m83.542 130.15v45.502h-79.206v-45.502z" fill="#1c1b54" fill-rule="evenodd" stroke="#1a1a18" stroke-miterlimit="22.926" stroke-width=".16852"/>
  <g transform="matrix(.84262 0 0 .84262 .669 20.469)">
   <path d="m98.351 130.16v54h-94v-54z" fill="#1c1b54" fill-rule="evenodd" stroke="#1a1a18" stroke-miterlimit="22.926" stroke-width=".19999"/>
  </g>
  <path d="m46.37 159.72v-0.58555c0.66182-0.0391 1.1631-0.11711 1.5036-0.23423 0.34069-0.11715 0.56946-0.35139 0.68625-0.70275 0.11679-0.3513 0.17508-0.87837 0.17508-1.581v-14.522c0-0.72221-0.05829-1.2542-0.17508-1.5958-0.11679-0.34158-0.34556-0.57575-0.68625-0.70266-0.34057-0.1269-0.84184-0.20011-1.5036-0.21958v-0.58563c0.4477 0.0196 1.0123 0.0391 1.6935 0.0586 0.68126 0.0196 1.3527 0.0293 2.0145 0.0293 0.7592 0 1.4696-0.01 2.1315-0.0293 0.6617-0.0195 1.197-0.039 1.6058-0.0586v0.58563c-0.66188 0.0195-1.163 0.0927-1.5037 0.21958-0.34051 0.12691-0.56919 0.36108-0.68598 0.70266-0.11679 0.34161-0.17526 0.87356-0.17526 1.5958v14.522c0 0.70266 0.05847 1.2297 0.17526 1.581 0.11679 0.35136 0.34547 0.5856 0.68598 0.70275 0.34075 0.11712 0.84186 0.19514 1.5037 0.23423v0.58555c-0.40876-0.039-0.94409-0.0634-1.6058-0.0731-0.66188-0.01-1.3723-0.0147-2.1315-0.0147-0.66182 0-1.3333 5e-3 -2.0145 0.0147-0.68126 0.01-1.2458 0.0341-1.6935 0.0731zm-12.204 0v-0.58555c0.6617-0.0391 1.163-0.11711 1.5036-0.23423 0.34069-0.11715 0.56946-0.35139 0.68625-0.70275 0.1167-0.3513 0.17517-0.87837 0.17517-1.581v-14.522c0-0.72221-0.05847-1.2542-0.17517-1.5958-0.11679-0.34158-0.34556-0.57575-0.68625-0.70266-0.34057-0.1269-0.84186-0.20011-1.5036-0.21958v-0.58563c0.40876 0.0196 0.94397 0.0391 1.6058 0.0586 0.66188 0.0196 1.3723 0.0293 2.1315 0.0293 0.68126 0 1.3576-0.01 2.0292-0.0293 0.67139-0.0195 1.2312-0.039 1.6787-0.0586v0.58563c-0.6617 0.0195-1.163 0.0927-1.5036 0.21958-0.34075 0.12691-0.56946 0.36108-0.68622 0.70266-0.1167 0.34161-0.1752 0.87356-0.1752 1.5958v14.522c0 0.70266 0.0585 1.2297 0.1752 1.581 0.11676 0.35136 0.34547 0.5856 0.68622 0.70275 0.3406 0.11712 0.84186 0.19514 1.5036 0.23423v0.58555c-0.44758-0.039-1.0073-0.0634-1.6787-0.0731-0.67156-0.01-1.3479-0.0147-2.0292-0.0147-0.7592 0-1.4696 5e-3 -2.1315 0.0147-0.66182 0.01-1.197 0.0341-1.6058 0.0731zm4.0584-10.131v-0.58554h11.533v0.58554z" fill="#444f7b"/>
  <path d="m36.136 142.77c0.34809 0 0.62936 0.0467 0.84344 0.13995 0.21429 0.0933 0.41509 0.20214 0.60239 0.32651 0.06971 0.0479 0.12321 0.0718 0.16079 0.0718 0.1016 0 0.16869-0.14595 0.2008-0.43774h0.18469c-0.0107 0.17701-0.01878 0.39232-0.02407 0.64585-0.0054 0.25356-0.0081 0.58849-0.0081 1.0047h-0.1846c-0.03757-0.20095-0.08299-0.39467-0.13659-0.58131-0.05351-0.18657-0.142-0.34682-0.26518-0.4808-0.1552-0.17704-0.35879-0.31464-0.6103-0.4127-0.25169-0.0981-0.51146-0.14715-0.77917-0.14715-0.26786 0-0.51012 0.0587-0.727 0.17586-0.21691 0.11721-0.40305 0.28591-0.55834 0.50599-0.1552 0.22003-0.27434 0.48445-0.35742 0.793-0.083 0.30858-0.12446 0.65664-0.12446 1.0442 0 0.86126 0.15538 1.4916 0.46589 1.8911 0.31066 0.39949 0.79246 0.59927 1.4458 0.59927 0.1928 0 0.36016-0.0251 0.50213-0.0754 0.14182-0.0502 0.25297-0.0993 0.33335-0.14712 0.1016-0.0622 0.1659-0.12074 0.19271-0.17576 0.02669-0.055 0.04019-0.128 0.04019-0.21893v-0.68893c0-0.19616-0.0214-0.34211-0.06421-0.43783-0.0429-0.0956-0.12185-0.16025-0.23703-0.19372-0.1151-0.0335-0.28522-0.0527-0.51004-0.0575v-0.14349c0.0964 5e-3 0.20888 8e-3 0.33739 0.0107 0.1285 3e-3 0.26364 5e-3 0.40564 8e-3 0.14179 3e-3 0.27166 3e-3 0.38944 3e-3 0.17681 0 0.33614-3e-3 0.47796-8e-3 0.14197-5e-3 0.2612-0.01 0.35751-0.0143v0.14349c-0.17669 0.01-0.2892 0.0479-0.3373 0.11486-0.04827 0.067-0.0723 0.23442-0.0723 0.50236v1.421h-0.16077c-0.0053-0.0814-0.02535-0.16986-0.06025-0.26558-0.03469-0.0957-0.08686-0.14351-0.15654-0.14351-0.0321 0-0.06421 8e-3 -0.0964 0.0215-0.0321 0.0144-0.0884 0.0479-0.16869 0.10054-0.17669 0.11956-0.36417 0.21411-0.56229 0.28346-0.19818 0.0694-0.42838 0.10404-0.69077 0.10404-0.82998 0-1.4766-0.22606-1.9399-0.67822-0.46319-0.45207-0.69484-1.0776-0.69484-1.8767 0-0.55974 0.11242-1.043 0.3373-1.4496 0.22508-0.40674 0.53153-0.7213 0.91981-0.94373 0.38819-0.22253 0.83143-0.33377 1.3293-0.33377zm2.9142 0.85289c0.09581 4e-3 0.22119 8e-3 0.37624 0.0122 0.1552 4e-3 0.30805 6e-3 0.45855 6e-3 0.21444 0 0.41961-2e-3 0.61595-6e-3 0.19616-4e-3 0.33528-6e-3 0.41735-6e-3 0.5521 0 0.96487 0.10196 1.2386 0.3057 0.27369 0.20383 0.41063 0.45653 0.41063 0.75819 0 0.12226-0.02741 0.25272-0.08207 0.39125-0.05487 0.13861-0.1494 0.26904-0.28397 0.39131-0.13457 0.12226-0.31827 0.22321-0.551 0.30266-0.23254 0.0795-0.5268 0.11924-0.88274 0.11924h-0.65688v-0.12227h0.58857c0.32389 0 0.57127-0.0459 0.74243-0.1376 0.17113-0.0917 0.28742-0.21402 0.34901-0.36688 0.0616-0.15285 0.09233-0.32296 0.09233-0.51047 0-0.32205-0.08561-0.57172-0.25656-0.74901-0.17104-0.17728-0.4642-0.26592-0.87935-0.26592-0.20989 0-0.34684 0.0346-0.41069 0.10389-0.0637 0.0693-0.09581 0.20998-0.09581 0.4219v3.0325c0 0.14678 0.01373 0.25683 0.0412 0.33022 0.02738 0.0733 0.08098 0.12226 0.16067 0.1467 0.07991 0.0244 0.19744 0.0408 0.35258 0.049v0.12226c-0.10499-8e-3 -0.23611-0.0133-0.39351-0.0153-0.1574-2e-3 -0.3159-3e-3 -0.47558-3e-3 -0.17806 0-0.34446 8.5e-4 -0.49966 3e-3 -0.15505 2e-3 -0.28043 7e-3 -0.37624 0.0153v-0.12226c0.15505-8e-3 0.27241-0.0245 0.35231-0.049 0.07987-0.0244 0.13347-0.0734 0.16094-0.1467 0.0272-0.0734 0.04093-0.18344 0.04093-0.33022v-3.0325c0-0.15083-0.01373-0.26189-0.04093-0.33326-0.02747-0.0713-0.08106-0.12015-0.16094-0.14669-0.07991-0.0265-0.19726-0.0418-0.35231-0.0458zm1.088 2.1704c0.24628 8e-3 0.44027 0.0174 0.58159 0.0276 0.14155 0.0102 0.25674 0.0194 0.34562 0.0275 0.089 8e-3 0.17461 0.0184 0.25668 0.0306 0.3057 0.0448 0.52579 0.12741 0.66036 0.24765 0.13457 0.12024 0.23382 0.30671 0.29761 0.55941l0.17113 0.62361c0.04557 0.17931 0.09236 0.30874 0.14022 0.38828 0.04794 0.0795 0.122 0.11715 0.22235 0.11308 0.07771-4e-3 0.14259-0.0265 0.19509-0.0672 0.05246-0.0408 0.10844-0.0958 0.16765-0.16507l0.10273 0.0672c-0.09581 0.12634-0.19506 0.22316-0.29779 0.2904-0.10261 0.0672-0.24738 0.10092-0.43444 0.10092-0.16887 0-0.31718-0.0449-0.44482-0.13454-0.12782-0.0897-0.22363-0.26495-0.28742-0.52583l-0.15059-0.61139c-0.04102-0.17527-0.08778-0.32711-0.14028-0.45543-0.0525-0.12842-0.12538-0.22928-0.21902-0.30267-0.09343-0.0734-0.23144-0.11005-0.41387-0.11005h-0.73907zm6.7609-2.1704c-0.0181 0.14266-0.03074 0.28118-0.03749 0.41575-7e-3 0.13447-0.01029 0.23635-0.01029 0.3057 0 0.0733 0.0024 0.14366 0.0068 0.2109 0.0046 0.0672 0.0091 0.1233 0.01364 0.16813h-0.15738c-0.02741-0.24051-0.06614-0.43102-0.11629-0.57166-0.0503-0.14063-0.13585-0.24047-0.25665-0.29954-0.12084-0.0591-0.30225-0.0887-0.5441-0.0887h-0.56788c-0.15505 0-0.27258 0.0112-0.35249 0.0336-0.07987 0.0224-0.13347 0.0693-0.16076 0.14054-0.02738 0.0714-0.04111 0.18242-0.04111 0.33325v3.0325c0 0.14679 0.01374 0.25683 0.04111 0.33023 0.02728 0.0733 0.08088 0.12125 0.16076 0.14366 0.07991 0.0224 0.19744 0.0336 0.35249 0.0336h0.49951c0.28742 0 0.50531-0.0346 0.65361-0.10395 0.14812-0.0693 0.25549-0.18237 0.32163-0.33935 0.06614-0.1569 0.11519-0.36991 0.14711-0.63887h0.15731c-0.01373 0.11005-0.02054 0.25674-0.02054 0.44018 0 0.0774 0.0035 0.18849 0.01025 0.33326 0.0069 0.14467 0.01938 0.29449 0.03769 0.44937-0.23275-8e-3 -0.49496-0.0133-0.78693-0.0153-0.29197-2e-3 -0.5521-3e-3 -0.78009-3e-3h-0.54416c-0.22583 0-0.4664 8.4e-4 -0.7218 3e-3 -0.25558 2e-3 -0.49511 7e-3 -0.71868 0.0153v-0.12227c0.15523-8e-3 0.27259-0.0245 0.35249-0.0489 0.07987-0.0244 0.13347-0.0734 0.16085-0.1467 0.02728-0.0734 0.04096-0.18344 0.04096-0.33023v-3.0325c0-0.15083-0.01368-0.26188-0.04096-0.33325-0.02738-0.0713-0.08098-0.12015-0.16085-0.1467-0.07991-0.0265-0.19726-0.0418-0.35249-0.0458v-0.12227c0.22357 4e-3 0.4631 8e-3 0.71868 0.0122 0.2554 4e-3 0.49597 6e-3 0.7218 6e-3h0.54416c0.2098 0 0.44809-8.4e-4 0.71496-3e-3 0.26703-2e-3 0.5054-7e-3 0.71511-0.0152zm-1.1769 2.091v0.0612 0.0611h-1.2524v-0.0611-0.0612zm0.19836-0.80705c-0.01831 0.2323-0.02613 0.40968-0.02396 0.53194 0.0024 0.12226 0.0035 0.23433 0.0035 0.33629 0 0.10187 0.0021 0.21394 0.0067 0.3362 0.0046 0.12235 0.01611 0.29963 0.03421 0.53194h-0.15722c-0.01828-0.13043-0.04004-0.25784-0.06504-0.38213-0.02512-0.12427-0.07991-0.22624-0.16424-0.30569-0.08451-0.0795-0.2271-0.11923-0.42781-0.11923v-0.12227c0.20071 0 0.3411-0.0469 0.42089-0.14063 0.07991-0.0937 0.13121-0.20383 0.15395-0.33013 0.02283-0.12639 0.04331-0.23846 0.0616-0.33629zm3.6542-1.3145 1.6698 3.8457c0.06834 0.15487 0.14592 0.25778 0.23254 0.30874 0.08671 0.051 0.16658 0.0784 0.23956 0.0826v0.12227c-0.09126-8e-3 -0.20297-0.0133-0.33537-0.0153-0.13219-2e-3 -0.26456-3e-3 -0.39687-3e-3 -0.17788 0-0.34446 8.4e-4 -0.49951 3e-3 -0.15502 2e-3 -0.28049 7e-3 -0.3763 0.0153v-0.12227c0.23258-8e-3 0.38088-0.0438 0.44482-0.10701 0.06388-0.0632 0.05015-0.19869-0.04111-0.40657l-1.2729-3.0387 0.10954-0.0795-1.1908 2.7636c-0.09581 0.22009-0.14129 0.39232-0.13674 0.51661 0.0046 0.12437 0.05705 0.21301 0.1574 0.26601 0.10035 0.053 0.24631 0.0815 0.43792 0.0856v0.12227c-0.12776-8e-3 -0.26114-0.0133-0.40026-0.0153-0.1393-2e-3 -0.26804-3e-3 -0.38667-3e-3 -0.11409 0-0.211 8.4e-4 -0.29087 3e-3 -0.07991 2e-3 -0.15395 7e-3 -0.22238 0.0153v-0.12227c0.09126-0.0204 0.18469-0.0683 0.28049-0.14372 0.09581-0.0754 0.18252-0.20479 0.26013-0.38822l1.608-3.7051h0.05487 0.05461zm0.83485 2.5985v0.12225h-2.0391l0.06843-0.12225zm4.975-2.5679c-0.01828 0.15488-0.03074 0.30469-0.03767 0.44937-0.0067 0.14467-0.01025 0.25573-0.01025 0.33317 0 0.0978 0.0024 0.18959 0.0069 0.27514 0.0046 0.0856 0.0092 0.16102 0.01373 0.22624h-0.1574c-0.03193-0.28534-0.07524-0.51057-0.13002-0.67564-0.05485-0.16507-0.15065-0.2843-0.28751-0.3576-0.13674-0.0734-0.34892-0.11005-0.63634-0.11005h-0.36958v3.4788c0 0.16305 0.01712 0.28531 0.05134 0.3668 0.03419 0.0816 0.10151 0.13658 0.20187 0.16509 0.10035 0.0286 0.2464 0.0469 0.43801 0.0551v0.12226c-0.11864-8e-3 -0.26914-0.0133-0.45174-0.0153-0.18243-2e-3 -0.36711-3e-3 -0.55418-3e-3 -0.20526 0-0.39806 8.4e-4 -0.57829 3e-3 -0.18026 2e-3 -0.32508 7e-3 -0.43456 0.0153v-0.12226c0.19155-8e-3 0.33766-0.0265 0.43801-0.0551 0.10035-0.0285 0.16768-0.0835 0.2019-0.16509 0.03421-0.0815 0.05131-0.20375 0.05131-0.3668v-3.4788h-0.36958c-0.28287 0-0.49386 0.0367-0.63304 0.11005-0.13912 0.0733-0.23602 0.19253-0.29072 0.3576-0.05485 0.16507-0.09815 0.3903-0.13011 0.67564h-0.15731c9e-3 -0.0652 0.01483-0.14063 0.01703-0.22624 0.0024-0.0856 0.0035-0.17732 0.0035-0.27514 0-0.0774-0.0035-0.1885-0.01029-0.33317-0.0069-0.14468-0.01938-0.29449-0.03766-0.44937 0.19161 4e-3 0.40023 8e-3 0.62614 0.0122 0.22583 4e-3 0.45275 6e-3 0.68093 6e-3h0.6227 0.61925c0.2258 0 0.45281-2e-3 0.68084-6e-3 0.22818-4e-3 0.43572-8e-3 0.62276-0.0122" fill="#fff"/>
  <g transform="matrix(.29726 0 0 -.29726 -40.269 291.89)">
   <g clip-path="url(#clipPath2063)">
    <path d="m274.76 472.56c-0.665 0-1.4533-0.4433-2.3652-1.33-0.9114-0.887-1.7244-2.094-2.4384-3.6213-0.8623-1.7736-1.2935-3.2272-1.2935-4.3602 0-1.1333 0.4312-1.6997 1.2935-1.6997 0.616 0 1.3054 0.3325 2.0693 0.9975-0.3943 0.5667-0.5913 1.1702-0.5913 1.8108 0.049 1.059 0.4805 1.5888 1.2931 1.5888 0.3204 0 0.5851-0.1108 0.7946-0.3325 0.2095-0.2216 0.3141-0.4249 0.3141-0.6097s-0.025-0.3756-0.0737-0.5729c0.4187 0.616 0.8988 1.4905 1.4405 2.6238 0.6163 1.2563 0.9239 2.4879 0.9239 3.6949s-0.4556 1.8105-1.3669 1.8105zm57.828-4.5564v0.0218c-3e-3 0.2138-0.1021 0.2843-0.296 0.2115-0.1227-0.0247-0.2338-0.148-0.3325-0.3696-0.985-2.02-1.9828-3.6582-2.9928-4.9145-0.69-0.8623-1.2685-1.2931-1.7371-1.2931-0.369 0-0.5541 0.2401-0.5541 0.7205 0 0.4802 0.0805 1.1084 0.2401 1.8845 0.1604 0.7758 0.6471 1.946 1.4598 3.5101 0.813 1.5645 1.4408 2.5682 1.8845 3.0116-0.197-0.0491-0.4986-0.0369-0.9051 0.0371-0.4065 0.0737-0.6594 0.1108-0.7577 0.1108-0.4927 0-0.8989-0.1664-1.2192-0.4989s-0.7146-0.9544-1.1826-1.866c-2.3896-4.5326-4.3234-6.7989-5.8011-6.7989-0.616 0-0.9238 0.4802-0.9238 1.4411 0 0.9607 0.4799 2.2417 1.4411 3.843 0.7634 1.33 1.5885 2.4879 2.4755 3.4733 1.552 1.6749 2.8576 2.5126 3.9169 2.5126 0.9113 0 1.5024-0.4434 1.7734-1.3303 0.3203-0.0491 0.5297 0.0493 0.6284 0.2956 0.0984 0.2464 0.0247 0.5052-0.222 0.7762-0.7883 0.7883-1.7489 1.1823-2.8819 1.1823-0.4187 0-0.8623-0.0615-1.3303-0.1848-1.7246-0.4187-3.178-1.3179-4.36-2.6975-1.3748-1.6333-2.2983-3.2505-2.7703-4.852-1.0293-1.9072-1.904-3.2213-2.6246-3.9422-0.5173-0.468-1.0103-0.7021-1.4783-0.7021-0.7633 0-1.1455 0.3571-1.1455 1.0715 0 0.6406 0.2092 1.4164 0.6285 2.3281l2.956 6.9097c0.2463 0.4433 0.3203 0.7699 0.2213 0.9791-0.098 0.2095-0.4308 0.3144-0.9975 0.3144l-2.0321-0.0372c0.2953-0.394 0.443-0.7143 0.443-0.9606 0-0.2464-0.0246-0.4434-0.0737-0.5914l-1.4865-3.7856c-2.097-4.201-3.7698-6.302-5.0167-6.302-0.468 0-0.7024 0.3203-0.7024 0.9607 0 1.6259 1.5154 5.0992 4.545 10.42-0.1227 0.049-0.2582 0.0737-0.4065 0.0737-0.6156 0-1.5885-0.3631-2.9188-1.0899-1.3306-0.7268-2.4695-1.5151-3.418-2.365-0.9482-0.8498-2.0018-1.989-3.1592-3.418 2.0693 4.1386 3.5592 6.4542 4.4711 6.9469-0.197-0.0493-0.4989-0.0369-0.9054 0.0368-0.4065 0.074-0.6591 0.1112-0.7574 0.1112-0.5176 0-0.9241-0.148-1.2195-0.4437-0.4816-0.4632-1.3677-1.9718-2.6581-4.5255-0.0671-0.0244-0.1167-0.074-0.1505-0.1488-0.049-0.1108-0.1907-0.4187-0.4246-0.9238-0.2341-0.5049-0.4249-0.8929-0.5726-1.1639-0.1483-0.271-0.3818-0.6959-0.7021-1.2748-0.3206-0.5788-0.8502-1.25-1.5891-2.0137-0.5914-0.6653-1.2192-0.9978-1.8845-0.9978-0.8377 0-1.4162 0.3079-1.7365 0.9238 1.379 1.3057 2.414 2.759 3.1036 4.3603 0.5423 1.1823 0.8127 2.2909 0.8127 3.3256 0 2.2663-0.8988 3.3993-2.6971 3.3993-1.207 0-2.4821-0.6035-3.8245-1.8105-1.3425-1.207-2.3831-2.6728-3.1221-4.3971l-0.0941-0.2112c-0.8337-1.6041-1.628-2.9443-2.3817-4.0198-0.8376-1.1948-1.6999-1.7921-2.5866-1.7921-0.542 0-0.936 0.228-1.1826 0.6835-0.2464 0.4558-0.3697 0.9485-0.3697 1.4782 0 0.5296 0.0681 1.0594 0.2036 1.5889s0.3016 1.0839 0.4989 1.6628c0.197 0.5788 0.3078 0.9175 0.3325 1.0162 2.9313 2.685 5.4564 6.3802 7.575 11.085 0.5913 1.2809 0.8867 2.3402 0.8867 3.1779 0 0.2216-0.0122 0.4065-0.0372 0.5541-0.1967 0.813-0.5785 1.2195-1.1455 1.2195-0.8126 0-1.6378-0.4433-2.4757-1.3303-0.4184-0.4433-0.9913-1.2747-1.7178-2.4942-0.7268-1.2195-1.6135-3.0362-2.6606-5.4502-1.0182-2.3479-1.8091-4.5207-2.3729-6.5191-0.0184-0.0218-0.0343-0.0473-0.0476-0.0768-0.0494-0.1108-0.1908-0.4187-0.4249-0.9238-0.2339-0.5049-0.425-0.8929-0.5726-1.1639-0.1477-0.271-0.3822-0.6959-0.7019-1.2748-0.3203-0.5788-0.8501-1.25-1.5891-2.0137-0.591-0.6653-1.2195-0.9978-1.8848-0.9978-0.837 0-1.4164 0.3079-1.7365 0.9238 1.3797 1.3057 2.414 2.759 3.104 4.3603 0.542 1.1823 0.8127 2.2909 0.8127 3.3256 0 2.2663-0.8989 3.3993-2.6972 3.3993-1.2073 0-2.4817-0.6035-3.8242-1.8105-1.3431-1.207-2.3837-2.6728-3.1227-4.3971-0.5419-1.1826-0.8129-2.291-0.8129-3.3256 0-2.2663 0.8994-3.3996 2.6977-3.3996 0.9604 0 2.0075 0.4187 3.1408 1.2563 0.5663-0.6403 1.3547-0.9606 2.3646-0.9606 0.5417 0 1.1209 0.1848 1.7365 0.5541 0.2467 0.148 0.5055 0.3572 0.7765 0.6282 0.2707 0.271 0.4986 0.5173 0.6834 0.739 0.1845 0.2219 0.3943 0.5173 0.6279 0.8869 0.2344 0.3697 0.4189 0.665 0.5547 0.887l0.0694 0.1174c-0.0201-0.1491-0.0368-0.2994-0.0513-0.4502-0.0243-0.468-0.0368-0.8498-0.0368-1.1455 0-0.2956 0.0434-0.6341 0.1293-1.0159 0.0861-0.3818 0.339-0.7393 0.7574-1.0718 0.4186-0.3325 1.01-0.4989 1.7739-0.4989 0.7634 0 1.5763 0.271 2.4384 0.813 0.3203 0.1973 0.6593 0.4989 1.0165 0.9054 0.3568 0.4065 0.6406 0.739 0.8498 0.9978 0.1978 0.2443 0.4289 0.6097 0.6931 1.0967-7e-3 -0.1142-9e-3 -0.2271-9e-3 -0.3393 0-2.2663 0.8989-3.3996 2.6972-3.3996 0.9606 0 2.0075 0.4187 3.1408 1.2563 0.5669-0.6403 1.3552-0.9606 2.3652-0.9606 0.542 0 1.1208 0.1848 1.7365 0.5541 0.2443 0.1469 0.5009 0.3538 0.769 0.6214-0.3707-0.7708-0.6519-1.3473-0.8427-1.7297 0.172 0.0983 0.5295 0.1601 1.0715 0.1845 0.542 0.0247 0.9054 0.0678 1.0902 0.1296 0.1842 0.0615 0.3506 0.2154 0.4986 0.4617 1.6503 3.2516 3.3625 5.6906 5.1364 7.3162 1.182 1.1087 1.9825 1.6628 2.4018 1.6628 0.4184 0 0.6278-0.1292 0.6278-0.3877 0-0.2588-0.1355-0.6098-0.4064-1.0531-1.1087-1.7736-1.7862-3.0546-2.0322-3.8429-0.2463-0.7883-0.3696-1.4596-0.3696-2.014 0-0.5542 0.1233-0.9916 0.3696-1.3116 0.4683-0.69 1.1514-1.0347 2.0509-1.0347 0.8988 0 1.7983 0.4989 2.6971 1.4964 0.4354 0.4833 0.9185 1.1585 1.4497 2.0257-0.0428-0.2586-0.0638-0.5089-0.0638-0.7509 0-0.665 0.1973-1.2685 0.5913-1.8105 0.3937-0.542 1.0409-0.813 1.9397-0.813 0.8995 0 1.8536 0.5788 2.8639 1.7368 0.3589 0.4065 0.758 0.9813 1.1976 1.7243-0.0102-0.1684-0.015-0.3368-0.015-0.5048 0-1.2566 0.3694-2.1433 1.1081-2.6606 0.3206-0.2464 0.6774-0.3697 1.0715-0.3697 1.4292 0 3.1286 1.5891 5.0995 4.7668-0.2463-0.8867-0.3696-1.6382-0.3696-2.2539 0-0.6159 0.1111-1.1086 0.3325-1.4782 0.4436-0.6897 1.0227-1.0347 1.7367-1.0347 1.5523 0 3.4611 2.291 5.7274 6.8729 0.0718 0.1672 0.1089 0.311 0.1112 0.432zm-50.254 1.0831c1.2563 1.281 2.5008 2.8945 3.7321 4.8407 1.232 1.946 2.1371 3.6026 2.7162 4.9697 0.5785 1.3675 0.8679 2.2972 0.8679 2.7899s-0.0858 0.739-0.2585 0.739c-0.246 0-0.714-0.4864-1.4043-1.4596-0.6893-0.9728-1.6197-2.7221-2.7892-5.2469-1.1705-2.5251-2.1252-4.7358-2.8642-6.6328zm35.325 6.0599c-0.3447-0.2956-0.7265-0.4433-1.1458-0.4433-0.4187 0-0.7512 0.1477-0.9972 0.4433-0.2463 0.2957-0.3453 0.6528-0.2959 1.0718 0.0739 0.4187 0.2831 0.7758 0.6284 1.0715 0.345 0.2957 0.7268 0.4433 1.1455 0.4433s0.7574-0.1476 1.0162-0.4433c0.2582-0.2957 0.3506-0.6528 0.2767-1.0715-0.0737-0.419-0.2829-0.7761-0.6279-1.0718zm-22.688-2.5866c-0.665 0-1.4534-0.4433-2.3644-1.33-0.9116-0.887-1.7246-2.094-2.4389-3.6213-0.8623-1.7736-1.2932-3.2272-1.2932-4.3602 0-1.1333 0.4309-1.6997 1.2932-1.6997 0.6156 0 1.3056 0.3325 2.069 0.9975-0.3941 0.5667-0.5913 1.1702-0.5913 1.8108 0.0496 1.059 0.4804 1.5888 1.2937 1.5888 0.32 0 0.5851-0.1108 0.7943-0.3325 0.2092-0.2216 0.314-0.4249 0.314-0.6097s-0.0243-0.3756-0.0739-0.5729c0.4186 0.616 0.8994 1.4905 1.4414 2.6238 0.6157 1.2563 0.9238 2.4879 0.9238 3.6949s-0.4558 1.8105-1.3677 1.8105zm-24.424 14.263c2.6116-1.552 3.9167-3.4243 3.9167-5.6166 0-1.7246-0.9604-3.5719-2.882-5.5429-1.1087-1.1576-2.4205-2.1554-3.9354-2.9931-1.5148-0.8373-3.0112-1.4408-4.4892-1.8104-2.5622-0.6157-4.8779-0.9239-6.9471-0.9239-0.4431 0-0.8867 0.0125-1.3303 0.0372-1.7983-2.636-3.646-4.8776-5.5423-6.7252-2.784-2.6113-5.851-3.9169-9.201-3.9169-3.2023 0-5.1733 0.8745-5.9122 2.6237-0.1727 0.4187-0.2588 0.9051-0.2588 1.4596 0 0.5541 0.2831 1.1514 0.8501 1.792 0.8866 1.01 2.1308 1.5149 3.7321 1.5149 1.0343 0 2.1186-0.1846 3.2516-0.5542 0.4187-0.1477 0.5663-0.3078 0.4436-0.4805-0.0986-0.0983-0.4192-0.049-0.9609 0.148s-1.2136 0.2957-2.0141 0.2957-1.5023-0.3019-2.1058-0.9054-0.9054-1.2501-0.9054-1.9401c0-0.271 0.049-0.542 0.148-0.8129 0.394-1.3301 1.5148-1.9954 3.3621-1.9954 2.7593 0 5.4686 1.281 8.1292 3.843 1.8973 1.8476 4.0281 5.1732 6.3924 9.9768 0.9117 1.7983 2.045 3.7998 3.3996 6.0046 1.3553 2.2048 2.7343 4.0955 4.1389 5.6719 0.1721 0.1726 0.3937 0.3943 0.6647 0.6653 0.5173 0.591 0.9488 1.0593 1.2938 1.404-1.774 0.2463-3.6706 0.3696-5.6909 0.3696-2.0199 0-3.9291-0.1664-5.7274-0.4989s-3.3624-0.7268-4.6927-1.1823c-1.3303-0.4558-2.6791-1.0471-4.0459-1.7737-1.3675-0.7268-2.5192-1.6443-3.4552-2.753-1.2313-1.404-1.8473-2.8698-1.8473-4.3971 0-0.936 0.3325-1.8107 0.9978-2.6234 0.714-0.8623 1.6319-1.2935 2.7524-1.2935 1.1208 0 2.2051 0.4312 3.2516 1.2935 1.0472 0.862 1.7927 1.9213 2.2357 3.1776 0.025 0.1726 0.08 0.2894 0.1661 0.3512 0.0868 0.0615 0.1664 0.0553 0.2404-0.0187 0.0737-0.0737 0.1109-0.197 0.1109-0.3694-0.0244-1.6012-0.6463-2.8638-1.8658-3.7876-1.2198-0.9235-2.5682-1.3856-4.0465-1.3856-1.675 0-3.0421 0.4927-4.1011 1.478-1.0593 0.9853-1.5891 2.2541-1.5891 3.8061 0 1.4286 0.3818 2.7159 1.1452 3.8613 0.7639 1.1455 1.6752 2.0756 2.7345 2.7899 1.0594 0.7143 2.2785 1.355 3.6582 1.9213 2.3402 0.9363 4.7976 1.5951 7.3717 1.9769 2.5745 0.3818 4.9763 0.5729 7.2054 0.5729 2.2298 0 4.2925-0.197 6.1895-0.5913 0.8866 0.6896 1.6628 1.1579 2.3281 1.4043 0.665 0.2463 1.0406 0.3693 1.1267 0.3693 0.0865 0 0.1418-0.0122 0.1661-0.0368 0.1483 0 0.1786-0.0803 0.0925-0.2401-0.0859-0.1602-0.3694-0.4006-0.8499-0.7206-0.4804-0.3203-0.9419-0.7021-1.3855-1.1455 1.5766-0.4189 3.0052-1.01 4.2862-1.7736zm-14.632-16.074c1.7983 0 3.7505 0.3141 5.8564 0.9423 2.1067 0.6281 3.9724 1.5457 5.5984 2.753 3.153 2.3893 4.7299 4.8529 4.7299 7.3902 0 2.882-2.1804 4.8404-6.5404 5.8751-1.3796-1.9214-3.1657-4.8405-5.3583-8.7574-2.1923-3.9169-3.7936-6.6512-4.8033-8.2032h0.5173z" fill="url(#linearGradient2075)" fill-rule="evenodd"/>
   </g>
  </g>
  <g transform="matrix(.29726 0 0 -.29726 -40.269 291.89)">
   <g clip-path="url(#clipPath2085)">
    <path d="m332.44 420.78v0.5589h-98.322v-0.5589z" fill="url(#linearGradient2097)" fill-rule="evenodd"/>
   </g>
  </g>
  <path d="m31.476 164.98c-0.03312-8e-3 -0.06582-0.0145-0.09801-0.0187-0.03228-3e-3 -0.06397-6e-3 -0.09506-6e-3 -0.04254 0-0.12916 0.0238-0.25951 0.0706-0.13038 0.0472-0.25692 0.0706-0.37954 0.0706-0.28495 0-0.52308-0.0982-0.7147-0.29459-0.19152-0.19598-0.2876-0.44288-0.2876-0.74065 0-0.32038 0.10071-0.58176 0.3021-0.78466 0.20086-0.20247 0.4631-0.30392 0.7853-0.30392 0.14123 0 0.2752 0.0294 0.40246 0.0883 0.12705 0.0585 0.19253 0.088 0.19515 0.088 0.0208 0 0.03781-9e-3 0.053-0.0281 0.01438-0.0187 0.02485-0.0444 0.03109-0.0772h0.05603c-0.0095 0.0664-0.0162 0.12857-0.0208 0.1852-0.0046 0.057-0.0067 0.10894-0.0067 0.15522 0 0.0351 9.26e-4 0.073 0.0031 0.1146 0.0015 0.0411 0.0045 0.0846 0.0087 0.13044h-0.04667c-0.02021-0.19593-0.0868-0.34557-0.19827-0.44845-0.11207-0.10333-0.26423-0.15481-0.45584-0.15481-0.24244 0-0.4235 0.0893-0.54291 0.26848-0.12 0.17904-0.17966 0.44979-0.17966 0.8122 0 0.30391 0.05612 0.53539 0.16813 0.69481 0.11165 0.15942 0.2747 0.23896 0.48863 0.23896 0.15502 0 0.27663-0.0332 0.36444-0.10008 0.08763-0.0664 0.13127-0.16088 0.13127-0.28246 0-0.12202-0.01406-0.19726-0.04263-0.2244-0.02857-0.0276-0.09025-0.0412-0.1859-0.0412h-0.03623v-0.0645c0.07627 6e-3 0.14789 0.01 0.21548 0.0121 0.06738 3e-3 0.13168 4e-3 0.19253 4e-3 0.05915 0 0.1173-2e-3 0.17544-4e-3 0.05755-3e-3 0.11676-7e-3 0.17642-0.0121v0.0645c-0.07997 0-0.13329 0.0136-0.15975 0.0403-0.02646 0.0271-0.03959 0.094-0.03959 0.20106v0.14214zm7.5869-1.01c0.02949 2e-3 0.05755 3e-3 0.08451 3e-3 0.02705 2.9e-4 0.05832 2.9e-4 0.09355 2.9e-4 0.17847 0 0.30579-0.0332 0.38144-0.10002 0.07532-0.0664 0.11334-0.1772 0.11334-0.33251 0-0.1632-0.03903-0.28049-0.11748-0.35205-0.07777-0.0715-0.20701-0.1076-0.38608-0.1076-0.01667 0-0.0395 8.4e-4 -0.06959 3e-3 -0.03017 2e-3 -0.06337 4e-3 -0.0997 7e-3v0.87811zm0 0.64484v0.14495c0 0.10986 0.0151 0.17719 0.04569 0.20299 0.03059 0.0257 0.10651 0.0402 0.22832 0.0439v0.0561c-0.09536-7e-3 -0.18046-0.0117-0.25529-0.0149-0.07536-3e-3 -0.13558-5e-3 -0.18118-5e-3 -0.04051 0-0.08941 2e-3 -0.14747 4e-3 -0.05764 3e-3 -0.1412 8e-3 -0.25068 0.0154v-0.0561c0.09708-3e-3 0.15987-0.0201 0.18793-0.0486 0.02857-0.029 0.04245-0.10618 0.04245-0.2324v-1.3794c0-0.11789-0.01288-0.19128-0.03891-0.21985-0.02589-0.029-0.08047-0.0463-0.16349-0.0528v-0.0589c0.0063 8.4e-4 0.0135 2e-3 0.02286 2e-3 0.18486 0.0121 0.30014 0.0182 0.34681 0.0182 0.06177 0 0.1392-3e-3 0.23207-0.01 0.09277-7e-3 0.15511-0.01 0.1862-0.01 0.22651 0 0.40496 0.0477 0.53584 0.14311 0.13068 0.0954 0.19625 0.22445 0.19625 0.38667 0 0.16742-0.06902 0.29271-0.20781 0.37689-0.13861 0.0838-0.34562 0.12581-0.62133 0.12581-0.0305 0-0.08047-2e-3 -0.14881-6e-3h-0.0095v0.57333zm12.54 0.36521c-0.03321-8e-3 -0.06608-0.0145-0.09824-0.0187-0.0321-3e-3 -0.0638-6e-3 -0.09489-6e-3 -0.04271 0-0.12934 0.0238-0.25962 0.0706-0.13026 0.0472-0.25698 0.0706-0.37942 0.0706-0.28489 0-0.52318-0.0982-0.71479-0.29459-0.19161-0.19598-0.28751-0.44288-0.28751-0.74065 0-0.32038 0.10059-0.58176 0.30207-0.78466 0.20089-0.20247 0.46295-0.30392 0.78533-0.30392 0.14132 0 0.2752 0.0294 0.40225 0.0883 0.12734 0.0585 0.19262 0.088 0.19524 0.088 0.02075 0 0.03793-9e-3 0.05294-0.0281 0.01457-0.0187 0.02494-0.0444 0.03115-0.0772h0.05604c-0.0092 0.0664-0.01599 0.12857-0.02081 0.1852-0.0046 0.057-0.0067 0.10894-0.0067 0.15522 0 0.0351 0.0012 0.073 0.0031 0.1146 0.0018 0.0411 0.0046 0.0846 0.0089 0.13044h-0.04676c-0.02024-0.19593-0.08671-0.34557-0.19827-0.44845-0.11207-0.10333-0.26426-0.15481-0.45588-0.15481-0.24232 0-0.4235 0.0893-0.54288 0.26848-0.11991 0.17904-0.17957 0.44979-0.17957 0.8122 0 0.30391 0.05612 0.53539 0.16819 0.69481 0.11156 0.15942 0.27461 0.23896 0.4884 0.23896 0.1552 0 0.27669-0.0332 0.36441-0.10008 0.08772-0.0664 0.13139-0.16088 0.13139-0.28246 0-0.12202-0.014-0.19726-0.04265-0.2244-0.02839-0.0276-0.09031-0.0412-0.18579-0.0412h-0.03623v-0.0645c0.07616 6e-3 0.14789 0.01 0.21528 0.0121 0.06759 3e-3 0.13198 4e-3 0.19256 4e-3 0.05921 0 0.11736-2e-3 0.1755-4e-3 0.05755-3e-3 0.11688-7e-3 0.17654-0.0121v0.0645c-0.07997 0-0.13338 0.0136-0.15992 0.0403-0.02646 0.0271-0.03936 0.094-0.03936 0.20106v0.14214zm-19.313-0.75616c0.0072 0 0.01691 2.9e-4 0.03074 8.4e-4 0.01358 5.9e-4 0.02387 8.4e-4 0.03053 8.4e-4 0.15746 0 0.27425-0.0292 0.34993-0.0874 0.07551-0.0581 0.11358-0.14789 0.11358-0.26982 0-0.11299-0.03026-0.19497-0.08992-0.24628-0.05972-0.051-0.15511-0.0767-0.28531-0.0767-0.02257 0-0.04625 8.4e-4 -0.07119 3e-3 -0.02536 2e-3 -0.05148 5e-3 -0.07836 9e-3v0.66551zm0 0.49543v0.11091c0 0.0809 0.01029 0.13118 0.03074 0.15075 0.02066 0.0193 0.06903 0.0314 0.14503 0.0364l0.0012 0.0428c-0.08193-6e-3 -0.14453-0.01-0.18799-0.0118-0.04316-2e-3 -0.08065-3e-3 -0.11224-3e-3 -0.0294 0-0.06531 8.5e-4 -0.10743 3e-3 -0.0423 2e-3 -0.10752 6e-3 -0.19661 0.0118v-0.0428c0.07399-3e-3 0.12185-0.015 0.14316-0.0367 0.02185-0.0221 0.03255-0.0806 0.03255-0.17645v-1.042c0-0.0941-0.0099-0.15291-0.02958-0.1761-0.01988-0.0235-0.06154-0.0374-0.12479-0.0424v-0.0449c0.10449 5e-3 0.17425 8e-3 0.20894 9e-3 0.03448 8.4e-4 0.06254 2e-3 0.08353 2e-3 0.0423 0 0.10362-3e-3 0.18445-9e-3 0.0802-6e-3 0.13962-9e-3 0.17838-9e-3 0.16058 0 0.28489 0.0328 0.37243 0.0983 0.08736 0.0652 0.13103 0.1579 0.13103 0.27773 0 0.11079-0.04174 0.19818-0.12506 0.2623-0.08368 0.0642-0.20585 0.10229-0.36664 0.11509 0.10695 0.0278 0.18852 0.0613 0.24461 0.10131 0.05663 0.0395 0.10021 0.0927 0.13094 0.15966 0.01938 0.0431 0.04281 0.10306 0.06979 0.18041 0.05407 0.15427 0.11552 0.23165 0.18436 0.23165 0.03252 0 0.05814-0.01 0.07708-0.0302 0.01872-0.0203 0.03008-0.0503 0.03407-0.0895h0.03808c-4e-3 0.0881-0.02782 0.15538-0.07215 0.20172-0.04387 0.0467-0.10606 0.0699-0.18638 0.0699-0.10362 0-0.18266-0.0352-0.23745-0.10586-0.0541-0.0706-0.09714-0.19928-0.12901-0.38533-0.02247-0.13187-0.05485-0.21638-0.09732-0.25303-0.04254-0.0371-0.11424-0.0556-0.21563-0.0556-0.0031 0-0.01626 2.9e-4 -0.03874 2e-3 -0.02292 8.5e-4 -0.04382 2e-3 -0.06329 2e-3v0.44514zm1.1749 0.34085-0.0012-0.0428c0.07431-3e-3 0.12268-0.0153 0.1445-0.0371 0.02164-0.0221 0.03234-0.0809 0.03234-0.17719v-1.0522c0-0.0895-0.0098-0.14512-0.02963-0.16726-0.01989-0.0217-0.06127-0.0349-0.12473-0.0399v-0.0449c0.06819 6e-3 0.13962 0.01 0.21498 0.0117 0.07547 2e-3 0.16548 3e-3 0.26946 3e-3 0.13145 0 0.24925-2e-3 0.35305-4e-3 0.10398-3e-3 0.19583-6e-3 0.27538-0.011l0.01508 0.37853h-0.04055c-0.01691-0.11765-0.06284-0.19964-0.13802-0.24556-0.07473-0.046-0.20297-0.0688-0.38456-0.0688h-0.15882v0.64377h0.16355c0.07312 0 0.12497-0.0185 0.15547-0.056 0.03049-0.0371 0.04827-0.10693 0.05383-0.20922h0.04753c-4e-3 0.0731-0.0067 0.13252-0.0088 0.17854-0.0018 0.046-0.0032 0.0852-0.0032 0.11729 0 0.0264 9.26e-4 0.0606 0.0024 0.10265 0.0015 0.0425 0.0046 0.10835 0.0095 0.19818h-0.04753c-0.0048-0.11302-0.02218-0.18816-0.05232-0.22601-0.03-0.0374-0.08546-0.0563-0.16658-0.0563h-0.15395v0.56285c0 0.0784 0.0092 0.12758 0.02738 0.14754 0.01819 0.0196 0.07096 0.0296 0.15832 0.0296 0.23686 0 0.39443-0.0253 0.47172-0.0763 0.07744-0.0506 0.12984-0.15082 0.15654-0.30014h0.04078l-0.02206 0.4406c-0.10853-5e-3 -0.2109-9e-3 -0.30757-0.0115-0.09646-3e-3 -0.19111-3e-3 -0.28296-3e-3 -0.15139 0-0.2793 8.4e-4 -0.38296 3e-3 -0.10371 3e-3 -0.19902 7e-3 -0.2865 0.0115zm1.7257-0.57963h0.47962l-0.21655-0.6548zm-0.0209 0.0492-0.08359 0.20782c-0.01314 0.0335-0.02333 0.0656-0.03119 0.097-8e-3 0.0313-0.01154 0.0563-0.01154 0.0742 0 0.0342 0.01177 0.0591 0.03564 0.0748 0.02401 0.0157 0.06991 0.0267 0.13811 0.0339l-0.0012 0.0428c-0.04111-5e-3 -0.07928-9e-3 -0.11486-0.0115-0.03564-3e-3 -0.06775-3e-3 -0.09604-3e-3 -0.0258 0-0.0546 8.4e-4 -0.08713 3e-3 -0.03252 2e-3 -0.07431 6e-3 -0.12622 0.0118v-0.0428c0.05095-0.01 0.09173-0.0292 0.12226-0.0588 0.03059-0.0296 0.06326-0.0877 0.09815-0.17402l0.55159-1.3328h0.02054l0.42781 1.2554c0.0031 0.0111 0.0083 0.0265 0.01498 0.046 0.05672 0.16971 0.13296 0.25775 0.22954 0.26415l-0.0012 0.0428c-0.10288-7e-3 -0.17502-0.0107-0.21688-0.0126-0.04164-2e-3 -0.07687-3e-3 -0.10535-3e-3 -0.03169 0-0.06884 8.4e-4 -0.11189 3e-3 -0.04271 2e-3 -0.10684 6e-3 -0.19161 0.0118v-0.0428c0.07003-7e-3 0.11679-0.0164 0.14013-0.0289 0.02343-0.0121 0.03481-0.031 0.03481-0.0566 0-0.0125-0.0015-0.0268-0.0047-0.0428-0.0031-0.016-0.0075-0.0331-0.014-0.0513l-0.10202-0.30799h-0.51426zm1.8877 0.18894v0.11046c0 0.0781 0.01272 0.12764 0.03852 0.1483 0.02518 0.0211 0.08148 0.0321 0.16819 0.0335v0.0492c-0.06329-5e-3 -0.12235-9e-3 -0.17687-0.0115-0.05461-3e-3 -0.10692-3e-3 -0.15725-3e-3 -0.05053 0-0.10238 8.4e-4 -0.15546 3e-3 -0.05341 3e-3 -0.11272 7e-3 -0.17761 0.0115l0.0012-0.0492c0.08736-2e-3 0.14366-0.0125 0.16819-0.0328 0.02494-0.0207 0.03716-0.0724 0.03716-0.15511v-1.2601h-0.09979c-0.1895 0-0.3216 0.0257-0.39696 0.077-0.07464 0.0513-0.1167 0.14259-0.12494 0.27377h-0.04069l0.01617-0.41491c0.06959 6e-3 0.14997 0.01 0.24149 0.0117 0.0909 2e-3 0.21319 3e-3 0.36637 3e-3h0.18317c0.24901 0 0.42098-8.4e-4 0.51628-3e-3 0.09557-2e-3 0.1747-6e-3 0.2379-0.0117l0.01742 0.41491h-0.04043c-0.0095-0.13118-0.0514-0.22243-0.1258-0.27377-0.07435-0.0513-0.20645-0.077-0.39645-0.077h-0.09978zm3.9517 0.32651c0.17238 0 0.29794-0.0606 0.37749-0.18219 0.0791-0.12149 0.11872-0.31581 0.11872-0.58316 0-0.26839-0.04013-0.46446-0.11965-0.58774-0.07948-0.12301-0.20484-0.18469-0.37656-0.18469-0.17182 0-0.29762 0.062-0.37802 0.1857-0.08029 0.12404-0.12057 0.31943-0.12057 0.58673 0 0.26524 0.03995 0.45914 0.11982 0.58173 0.07997 0.12226 0.20609 0.18362 0.37877 0.18362zm0 0.0406c-0.10535 0-0.20276-0.0171-0.29301-0.051-0.08971-0.0342-0.17122-0.0852-0.24411-0.1525-0.08466-0.0773-0.14922-0.16718-0.19268-0.26958-0.04382-0.10229-0.06567-0.21307-0.06567-0.3329 0-0.22954 0.0772-0.42241 0.23147-0.57888 0.15386-0.15615 0.34194-0.23419 0.56399-0.23419 0.22193 0 0.4095 0.078 0.56253 0.23419 0.15368 0.15647 0.23038 0.34934 0.23038 0.57888 0 0.2285-0.07637 0.41952-0.22945 0.57424-0.15321 0.15436-0.34119 0.23171-0.56345 0.23171zm1.18-1.2423v-0.0919c0-0.0898-0.01002-0.14577-0.02975-0.1675-0.01971-0.0222-0.06133-0.0353-0.12461-0.0403v-0.0449c0.02342 2e-3 0.05621 3e-3 0.09851 7e-3 0.08713 6e-3 0.14812 9e-3 0.1835 9e-3 0.03962 0 0.13282-5e-3 0.27984-0.0139l0.0198-8.4e-4 0.0012 0.0449c-0.07348 3e-3 -0.12134 0.0149-0.14349 0.036-0.02226 0.0214-0.03338 0.0753-0.03338 0.16144v1.0776c0 0.0777 0.0092 0.1269 0.02741 0.14679 0.01828 0.0204 0.0701 0.0303 0.15588 0.0303 0.23745 0 0.39342-0.0271 0.46824-0.0809 0.0744-0.0539 0.12648-0.1643 0.15588-0.33189h0.04744l-0.02226 0.47698c-0.10802-5e-3 -0.2104-9e-3 -0.30737-0.0115-0.09649-3e-3 -0.19069-3e-3 -0.28296-3e-3 -0.15226 0-0.28008 8.4e-4 -0.38305 3e-3 -0.10288 3e-3 -0.19818 7e-3 -0.28641 0.0115l-0.0012-0.0428c0.07423-3e-3 0.12253-0.0153 0.14444-0.0371 0.02173-0.0221 0.03243-0.0809 0.03243-0.1772v-0.95956zm2.0589 1.2017c0.17256 0 0.29803-0.0606 0.37758-0.18219 0.07904-0.12149 0.11872-0.31581 0.11872-0.58316 0-0.2684-0.04013-0.46447-0.11965-0.58774-0.07949-0.12301-0.20493-0.18469-0.37666-0.18469-0.17173 0-0.29753 0.062-0.37793 0.1857-0.08029 0.12404-0.12057 0.31943-0.12057 0.58673 0 0.26524 0.03986 0.45914 0.11982 0.58173 0.07996 0.12226 0.20609 0.18362 0.37868 0.18362zm0 0.0406c-0.10517 0-0.20267-0.0171-0.29292-0.051-0.0898-0.0342-0.17128-0.0852-0.24411-0.15249-0.08466-0.0774-0.14922-0.16718-0.19268-0.26958-0.04382-0.10229-0.06573-0.21308-0.06573-0.33291 0-0.22953 0.07726-0.4224 0.23162-0.57888 0.15377-0.15614 0.34194-0.23418 0.56381-0.23418 0.22202 0 0.40959 0.078 0.56262 0.23418 0.15368 0.15648 0.23029 0.34935 0.23029 0.57888 0 0.22851-0.07637 0.41953-0.22936 0.57425-0.15321 0.15436-0.34119 0.23171-0.56354 0.23171zm1.2251-1.373v1.0323c0 0.12511 0.01314 0.20138 0.03882 0.2285 0.02604 0.0271 0.08275 0.0417 0.17012 0.0438v0.0428c-0.04076-3e-3 -0.08103-5e-3 -0.1203-7e-3 -0.03944-2e-3 -0.07839-2e-3 -0.11706-2e-3 -0.03175 0-0.06775 5.9e-4 -0.10767 2e-3 -0.03986 2e-3 -0.08267 3e-3 -0.12741 7e-3l0.0012-0.0439c0.08546-6e-4 0.14141-0.0146 0.16786-0.0424 0.02654-0.0275 0.03995-0.10802 0.03995-0.24134v-1.0772c-0.03169-0.0417-0.06263-0.0703-0.09313-0.0855-0.03032-0.0153-0.07708-0.0246-0.13962-0.0282v-0.0427c0.0681 3e-3 0.12194 5e-3 0.16189 7e-3 0.03959 8.4e-4 0.07289 2e-3 0.0989 2e-3 0.03002 0 0.07999-8.4e-4 0.14967-3e-3 0.0098 0 0.01736-2.9e-4 0.02206-8.4e-4l0.8781 1.1392v-0.82771c0-0.12723-0.01388-0.2046-0.04111-0.23172-0.02773-0.027-0.0835-0.041-0.16786-0.0417l-0.0012-0.0438c0.04185 3e-3 0.08213 5e-3 0.12182 6e-3 0.03963 2e-3 0.07839 2e-3 0.11629 2e-3 0.03246 0 0.06852-5.9e-4 0.10838-2e-3 0.03968-8.5e-4 0.0824-3e-3 0.12705-6e-3v0.0438h-0.01745c-0.07749 0-0.12848 0.015-0.15386 0.0449-0.02494 0.03-0.03749 0.10195-0.03749 0.21604v1.3046l-1.078-1.3944zm1.9043 1.0059v0.11087c0 0.0812 0.0102 0.13186 0.03082 0.1511 0.02057 0.0196 0.06884 0.0318 0.14476 0.0367l0.0012 0.0428c-0.08041-6e-3 -0.14274-0.01-0.18706-0.0118-0.04483-2e-3 -0.08285-3e-3 -0.11453-3e-3 -0.03 0-0.06629 8.4e-4 -0.10844 3e-3 -0.0423 2e-3 -0.10752 6e-3 -0.19649 0.0118v-0.0428c0.07464-3e-3 0.1225-0.015 0.1439-0.0371 0.02099-0.0221 0.03169-0.0809 0.03169-0.17719v-1.0411c0-0.0938-0.0094-0.15258-0.0288-0.17577-0.01938-0.0235-0.06144-0.0374-0.12547-0.0424v-0.0449c0.0087 6e-4 0.02218 2e-3 0.04078 3e-3 0.1274 8e-3 0.20814 0.0117 0.24218 0.0117 0.0379 0 0.12699-5e-3 0.26703-0.0139l0.01029-8.4e-4v0.0449c-0.06168 5e-3 -0.10246 0.0178-0.12226 0.0392-0.01983 0.0211-0.02958 0.071-0.02958 0.14866v0.98704zm0.64526-0.23813h0.47972l-0.21646-0.6548zm-0.0209 0.0492-0.08359 0.20781c-0.01296 0.0335-0.02325 0.0656-0.03118 0.097-0.0079 0.0314-0.01144 0.0563-0.01144 0.0742 0 0.0342 0.01189 0.0591 0.03564 0.0748 0.02411 0.0157 0.07003 0.0267 0.13811 0.0339l-0.0012 0.0428c-0.04102-5e-3 -0.0791-9e-3 -0.11465-0.0115-0.03573-3e-3 -0.06783-3e-3 -0.09625-3e-3 -0.02559 0-0.05458 8.4e-4 -0.08713 3e-3 -0.03234 2e-3 -0.07423 6e-3 -0.12604 0.0118v-0.0428c0.05098-0.01 0.09176-0.0292 0.12226-0.0588 0.0305-0.0296 0.06329-0.0877 0.09798-0.17402l0.55177-1.3328h0.02048l0.4277 1.2554c0.0033 0.0111 0.0084 0.0265 0.0151 0.046 0.05662 0.1697 0.13305 0.25775 0.22942 0.26414l-0.0012 0.0428c-0.10291-7e-3 -0.17485-0.0107-0.21682-0.0126-0.04162-2e-3 -0.07675-3e-3 -0.10532-3e-3 -0.0316 0-0.06876 8.5e-4 -0.11201 3e-3 -0.04271 2e-3 -0.10675 6e-3 -0.19161 0.0118v-0.0428c0.07022-7e-3 0.11679-0.0164 0.14013-0.0289 0.02342-0.0121 0.0349-0.031 0.0349-0.0566 0-0.0125-0.0018-0.0268-0.0048-0.0428-0.0031-0.016-0.0074-0.0331-0.01379-0.0513l-0.10205-0.30799h-0.5144zm4.4149-0.30585c0.0072 0 0.0171 2.9e-4 0.03092 8.4e-4 0.01341 5.9e-4 0.02366 8.4e-4 0.0305 8.4e-4 0.15758 0 0.27428-0.0292 0.34978-0.0874 0.07557-0.0581 0.11367-0.14789 0.11367-0.26982 0-0.11299-0.03017-0.19497-0.08983-0.24628-0.05984-0.051-0.15529-0.0767-0.28531-0.0767-0.02259 0-0.04634 8.4e-4 -0.07129 3e-3 -0.02545 2e-3 -0.05148 5e-3 -0.07845 9e-3v0.6655zm0 0.49544v0.1109c0 0.0809 0.01026 0.13118 0.03092 0.15075 0.02054 0.0193 0.06894 0.0314 0.14485 0.0364l0.0012 0.0428c-0.08172-6e-3 -0.14432-0.01-0.18781-0.0118-0.04313-2e-3 -0.0808-3e-3 -0.11239-3e-3 -0.02925 0-0.06522 8.4e-4 -0.10737 3e-3 -0.04212 2e-3 -0.10752 6e-3 -0.19649 0.0118v-0.0428c0.07399-3e-3 0.12194-0.015 0.14325-0.0367 0.02164-0.0221 0.03234-0.0806 0.03234-0.17645v-1.042c0-0.0941-0.0098-0.15291-0.02967-0.1761-0.0198-0.0235-0.06123-0.0374-0.1247-0.0424v-0.0449c0.10458 5e-3 0.17416 8e-3 0.20906 9e-3 0.03436 8.4e-4 0.06242 2e-3 0.08332 2e-3 0.04239 0 0.10383-3e-3 0.18445-9e-3 0.08041-6e-3 0.13971-9e-3 0.17865-9e-3 0.16061 0 0.2848 0.0328 0.3722 0.0983 0.08754 0.0652 0.131 0.1579 0.131 0.27773 0 0.11079-0.04152 0.19818-0.12494 0.2623-0.08359 0.0642-0.20585 0.10229-0.36655 0.1151 0.10684 0.0278 0.18831 0.0613 0.24461 0.1013 0.05662 0.0395 0.10003 0.0927 0.13103 0.15966 0.0193 0.0432 0.04271 0.10306 0.06959 0.18041 0.05419 0.15427 0.11551 0.23165 0.18436 0.23165 0.03255 0 0.05814-0.01 0.07729-0.0303 0.01846-0.0203 0.03-0.0503 0.03403-0.0895h0.03793c-4e-3 0.088-0.02765 0.15538-0.07197 0.20172-0.04409 0.0467-0.10609 0.0699-0.18647 0.0699-0.10374 0-0.18284-0.0352-0.23745-0.10586-0.0541-0.0706-0.09732-0.19928-0.12892-0.38533-0.02259-0.13187-0.05502-0.21637-0.09741-0.25303-0.04271-0.0371-0.11436-0.0556-0.21563-0.0556-0.0032 0-0.01626 2.9e-4 -0.03876 2e-3 -0.02292 8.5e-4 -0.04399 2e-3 -0.06343 2e-3v0.44514zm1.9466 0.32585c0.17256 0 0.29794-0.0606 0.37758-0.18219 0.07901-0.12149 0.11872-0.3158 0.11872-0.58316 0-0.26839-0.04013-0.46446-0.11968-0.58774-0.07954-0.123-0.2049-0.18468-0.37662-0.18468-0.17182 0-0.29762 0.062-0.37784 0.1857-0.08038 0.12404-0.12066 0.31942-0.12066 0.58672 0 0.26524 0.03986 0.45915 0.11982 0.58174 0.07997 0.12225 0.206 0.18361 0.37868 0.18361zm0 0.0406c-0.10517 0-0.20258-0.0171-0.29292-0.051-0.0898-0.0342-0.17131-0.0852-0.2442-0.1525-0.0846-0.0773-0.14904-0.16717-0.19262-0.26958-0.04387-0.10228-0.06572-0.21307-0.06572-0.3329 0-0.22954 0.07729-0.42241 0.23165-0.57888 0.15386-0.15615 0.34176-0.23418 0.56381-0.23418 0.22202 0 0.40959 0.078 0.56259 0.23418 0.15371 0.15647 0.23032 0.34934 0.23032 0.57888 0 0.2285-0.07637 0.41952-0.22936 0.57425-0.15321 0.15436-0.34128 0.23171-0.56354 0.23171zm1.1633-1.2426v-0.0916c0-0.0898-0.0097-0.14577-0.02958-0.1675-0.01979-0.0222-0.06144-0.0353-0.12479-0.0403l-9.27e-4 -0.0449c0.0094 6e-4 0.02292 2e-3 0.04069 3e-3 0.1274 8e-3 0.20811 0.0117 0.24209 0.0117 0.03882 0 0.12833-5e-3 0.26845-0.0139l0.01029-8.4e-4v0.0449c-0.06329 5e-3 -0.10493 0.0181-0.12479 0.0403-0.01974 0.0217-0.02958 0.0748-0.02958 0.15891v0.72254c0 0.10306 4e-3 0.18505 0.01222 0.24599 8e-3 0.0606 0.0214 0.10945 0.03992 0.14541 0.03017 0.057 0.07482 0.10086 0.13383 0.13154 0.0593 0.0307 0.12943 0.046 0.21049 0.046 0.16058 0 0.27416-0.0489 0.34042-0.14655 0.06605-0.098 0.09884-0.2848 0.09884-0.56134v-0.51155c0-0.12723-0.0135-0.20461-0.04078-0.23171-0.0269-0.0271-0.08308-0.041-0.16819-0.0417l-0.0012-0.0427c0.04189 3e-3 0.08222 5e-3 0.12185 7e-3 0.03959 2e-3 0.07845 2e-3 0.11629 2e-3 0.03252 0 0.0684-5.9e-4 0.10853-2e-3 0.03959-2e-3 0.08232-3e-3 0.1269-7e-3v0.0427h-0.01629c-0.07818 0-0.12958 0.015-0.15502 0.0449-0.02494 0.03-0.03767 0.10196-0.03767 0.21605v0.51797c0 0.30612-0.04114 0.51036-0.12381 0.61232-0.08264 0.10196-0.23103 0.15294-0.44437 0.15294-0.20139 0-0.34776-0.0442-0.4381-0.13219-0.09048-0.0881-0.13573-0.23138-0.13573-0.43067v-0.67973zm1.9564 0.38387c0.02277 2e-3 0.04409 3e-3 0.06465 3e-3 0.02045 2.9e-4 0.04432 2.9e-4 0.07119 2.9e-4 0.13617 0 0.23299-0.0253 0.29078-0.0763 0.0574-0.0506 0.08638-0.13508 0.08638-0.25347 0-0.12438-0.02967-0.21385-0.0895-0.26837-0.0593-0.0545-0.1579-0.082-0.29432-0.082-0.01272 0-0.03008 5.9e-4 -0.053 2e-3 -0.0231 2e-3 -0.04827 3e-3 -0.07619 5e-3v0.66936zm0 0.49162v0.11045c0 0.0838 0.01165 0.13517 0.03498 0.15469 0.02333 0.0196 0.08115 0.0307 0.17399 0.0335v0.0428c-0.0728-5e-3 -0.13766-9e-3 -0.19464-0.0115-0.05737-3e-3 -0.10321-3e-3 -0.13817-3e-3 -0.03076 0-0.06792 8.5e-4 -0.11224 3e-3 -0.04409 2e-3 -0.10779 6e-3 -0.19111 0.0118v-0.0428c0.07399-3e-3 0.12185-0.0153 0.14325-0.0371 0.02173-0.0221 0.03243-0.0809 0.03243-0.17719v-1.0515c0-0.0898-0.0099-0.14577-0.02975-0.1675-0.01979-0.0222-0.06123-0.0353-0.12461-0.0403v-0.0449c0.0047 6e-4 0.01029 8.4e-4 0.01745 8.4e-4 0.14078 9e-3 0.22868 0.0139 0.26432 0.0139 0.04712 0 0.10609-3e-3 0.17687-8e-3 0.07078-5e-3 0.11831-8e-3 0.14197-8e-3 0.17259 0 0.30867 0.0363 0.40852 0.10903 0.09976 0.0727 0.14946 0.17114 0.14946 0.29485 0 0.12756-0.05265 0.22313-0.15823 0.28724-0.10576 0.0639-0.26349 0.0959-0.47374 0.0959-0.02333 0-0.06123-2e-3 -0.11349-4e-3h-0.0072v0.43709z" fill="#fff"/>
 </g>
</svg>
