<?xml version="1.0" encoding="UTF-8" standalone="no"?>
<svg
   xmlns:dc="http://purl.org/dc/elements/1.1/"
   xmlns:cc="http://creativecommons.org/ns#"
   xmlns:rdf="http://www.w3.org/1999/02/22-rdf-syntax-ns#"
   xmlns:svg="http://www.w3.org/2000/svg"
   xmlns="http://www.w3.org/2000/svg"
   xmlns:sodipodi="http://sodipodi.sourceforge.net/DTD/sodipodi-0.dtd"
   xmlns:inkscape="http://www.inkscape.org/namespaces/inkscape"
   width="79.375mm"
   height="50.082287mm"
   viewBox="0 0 79.375 50.082284"
   version="1.1"
   id="svg5622"
   inkscape:version="1.0.2 (1.0.2+r75+1)"
   sodipodi:docname="300Szmal.svg">
  <defs
     id="defs5616" />
  <sodipodi:namedview
     id="base"
     pagecolor="#ffffff"
     bordercolor="#666666"
     borderopacity="1.0"
     inkscape:pageopacity="0.0"
     inkscape:pageshadow="2"
     inkscape:zoom="1.4"
     inkscape:cx="47.678224"
     inkscape:cy="101.96778"
     inkscape:document-units="mm"
     inkscape:current-layer="layer1"
     inkscape:document-rotation="0"
     showgrid="false"
     fit-margin-top="0"
     fit-margin-left="0"
     fit-margin-right="0"
     fit-margin-bottom="0"
     inkscape:window-width="1920"
     inkscape:window-height="1031"
     inkscape:window-x="0"
     inkscape:window-y="0"
     inkscape:window-maximized="1" />
  <metadata
     id="metadata5619">
    <rdf:RDF>
      <cc:Work
         rdf:about="">
        <dc:format>image/svg+xml</dc:format>
        <dc:type
           rdf:resource="http://purl.org/dc/dcmitype/StillImage" />
        <dc:title></dc:title>
      </cc:Work>
    </rdf:RDF>
  </metadata>
  <g
     inkscape:label="Warstwa 1"
     inkscape:groupmode="layer"
     id="layer1">
    <path
       style="fill:#332e2e;fill-opacity:1;fill-rule:evenodd;stroke:none;stroke-width:0.146991"
       d="m 10.510412,32.533184 0.271588,0.823378 0.900319,-0.794095 z m -0.20039,-0.0063 -0.9801294,-0.02182 c -0.015504,0 -0.029858,-0.01033 -0.039617,-0.03043 -0.011483,-0.02297 -0.023542,-0.05397 -0.036175,-0.08843 -0.011483,-0.03273 -0.025262,-0.0689 -0.039046,-0.113687 -0.00689,-0.0224 -0.00288,-0.0356 0.00976,-0.04134 0.004,-0.0023 0.00804,-0.0023 0.011483,-0.0023 l 2.6251634,0.17168 0.107947,-0.09015 c 0.01091,-0.0075 0.01665,-0.01091 0.02067,-0.01322 0.0201,-0.008 0.0379,0.0023 0.04995,0.02814 0.01377,0.02412 0.02584,0.04823 0.03962,0.07751 0.01436,0.02928 0.02813,0.06029 0.04077,0.08843 0.01205,0.02813 0.02354,0.0557 0.03215,0.07924 0.0086,0.02412 0.01722,0.04192 0.02125,0.05512 0.01033,0.02814 0,0.05512 -0.02814,0.07924 l -2.07567,1.853463 c -0.01091,0.0075 -0.0178,0.0115 -0.02182,0.01433 -0.02412,0.01033 -0.04249,0 -0.05627,-0.02813 C 9.980435,34.51982 9.964355,34.49055 9.950576,34.4584 9.936222,34.42853 9.922443,34.39926 9.91268,34.3671 9.898326,34.33493 9.888563,34.30681 9.87823,34.28097 9.87019,34.25397 9.862155,34.23676 9.858134,34.2224 9.850094,34.20057 9.854674,34.17876 9.871913,34.16211 l 0.768256,-0.679258 z m 1.291912,2.336924 c 0.05799,0.102779 0.120577,0.188333 0.179718,0.258958 0.06259,0.06718 0.128617,0.120004 0.198667,0.149288 0.06775,0.03217 0.14412,0.04593 0.223358,0.03846 0.07809,-0.008 0.164215,-0.03617 0.258382,-0.08555 0.07866,-0.04249 0.138377,-0.09474 0.179718,-0.1556 0.04421,-0.06029 0.06948,-0.128617 0.08039,-0.202688 0.01148,-0.07407 0.008,-0.152158 -0.008,-0.234266 -0.01608,-0.08383 -0.04594,-0.168238 -0.0867,-0.251492 -0.02699,-0.05627 -0.05168,-0.09474 -0.07292,-0.117708 -0.02239,-0.02296 -0.05455,-0.02412 -0.09244,-0.0029 l -2.041792,1.098413 c -0.03215,0.01779 -0.05857,0.01146 -0.07981,-0.02008 -0.01378,-0.02067 -0.03043,-0.04651 -0.04823,-0.07177 -0.01722,-0.027 -0.03158,-0.05225 -0.04766,-0.07809 -0.01608,-0.027 -0.02986,-0.04823 -0.04019,-0.07235 -0.01206,-0.02296 -0.0201,-0.03733 -0.02584,-0.04995 -0.01838,-0.03329 -0.0086,-0.06029 0.02584,-0.07866 l 1.974039,-1.059942 c 0.06546,-0.03504 0.101631,-0.07407 0.107372,-0.114262 0.0086,-0.04249 -0.0017,-0.08843 -0.02354,-0.137229 -0.01436,-0.02812 -0.02986,-0.05742 -0.05053,-0.08785 l 0.102206,-0.07235 c 0.09072,0.128616 0.175699,0.260108 0.265846,0.400783 0.08842,0.139525 0.168236,0.289958 0.241731,0.442692 0.03445,0.06718 0.06488,0.135508 0.09646,0.213021 0.02756,0.07522 0.05397,0.152162 0.0735,0.23025 0.02067,0.07866 0.03215,0.15675 0.03847,0.234266 0.0057,0.07751 -0.0017,0.148713 -0.0201,0.219913 -0.01837,0.0712 -0.04766,0.133783 -0.09187,0.194646 -0.04594,0.05799 -0.107946,0.110241 -0.18948,0.155604 -0.08441,0.04306 -0.166513,0.0712 -0.244028,0.07866 -0.07809,0.008 -0.154455,0.0029 -0.226803,-0.01721 -0.07349,-0.02237 -0.14412,-0.05455 -0.209576,-0.09876 -0.06603,-0.04364 -0.13034,-0.09704 -0.18948,-0.157325 l -0.01262,0.008 c 0.01033,0.03792 0.0178,0.08039 0.02412,0.127471 0.0057,0.04823 0.0057,0.09531 -0.0023,0.148138 -0.0063,0.05282 -0.02354,0.103929 -0.04594,0.157329 -0.02354,0.05512 -0.05972,0.106221 -0.107372,0.156175 l -0.378386,0.395612 c -0.04995,0.05455 -0.08957,0.100484 -0.118282,0.134934 -0.02986,0.03846 -0.04766,0.07177 -0.05799,0.102204 -0.008,0.02988 -0.0092,0.05799 -0.004,0.08613 0.0063,0.02812 0.01838,0.05972 0.03618,0.09819 l -0.09933,0.06144 c -0.01665,-0.02412 -0.03675,-0.04995 -0.05627,-0.08096 -0.02067,-0.02642 -0.03847,-0.05455 -0.0557,-0.08268 -0.01838,-0.031 -0.03503,-0.05627 -0.04651,-0.08039 -0.01377,-0.02183 -0.02412,-0.04021 -0.02928,-0.0511 -0.02297,-0.04536 -0.03675,-0.08727 -0.04479,-0.127471 -0.0057,-0.03904 -0.004,-0.08038 0.0063,-0.119429 0.0098,-0.04021 0.03215,-0.08211 0.06201,-0.125746 0.02986,-0.04192 0.06948,-0.09072 0.121727,-0.140675 l 0.40767,-0.404225 c 0.06029,-0.06029 0.100482,-0.111388 0.12919,-0.163642 0.02526,-0.05225 0.03905,-0.103354 0.03905,-0.158475 0,-0.05455 -0.01033,-0.114833 -0.03388,-0.180866 -0.02239,-0.06431 -0.05225,-0.142396 -0.09187,-0.230821 z m 1.901693,1.232771 c -0.0557,-0.08153 -0.103929,-0.148142 -0.14412,-0.200967 -0.03905,-0.0511 -0.08383,-0.08555 -0.131488,-0.100479 -0.04823,-0.02067 -0.103929,-0.02296 -0.170533,-0.0092 -0.06603,0.01438 -0.151584,0.04479 -0.257809,0.09072 l -0.05627,-0.102204 c 0.0046,-0.0025 0.01837,-0.01146 0.04192,-0.02813 0.02239,-0.01437 0.04938,-0.03446 0.08096,-0.05225 0.03158,-0.02125 0.06603,-0.04364 0.10163,-0.06947 0.03732,-0.02296 0.07407,-0.04823 0.110243,-0.07005 0.03732,-0.02412 0.07177,-0.04421 0.101631,-0.06373 0.03158,-0.01779 0.05627,-0.03504 0.07637,-0.04479 0.0178,-0.01204 0.0333,-0.008 0.04708,0.01379 0.07694,0.118854 0.148714,0.230245 0.218765,0.33647 0.06775,0.106221 0.131488,0.202113 0.191776,0.289963 l 0.424321,0.635617 c 0.05799,0.08843 0.12345,0.183741 0.195796,0.289962 0.07177,0.1068 0.149862,0.216467 0.229673,0.330158 0.01033,0.01667 0.0086,0.03446 -0.0086,0.04995 -0.0132,0.01379 -0.0356,0.03446 -0.06373,0.05742 -0.02928,0.02354 -0.05914,0.0488 -0.09359,0.07694 -0.03158,0.02813 -0.06603,0.05627 -0.102206,0.08211 -0.03388,0.02983 -0.06775,0.05627 -0.09589,0.07751 -0.03158,0.02183 -0.0557,0.04192 -0.07981,0.05799 -0.0201,0.01779 -0.03215,0.02813 -0.0379,0.031 l -0.07235,-0.08613 c 0.07809,-0.09072 0.134358,-0.164791 0.169385,-0.225079 0.03502,-0.05914 0.05455,-0.114262 0.05455,-0.164792 0.0023,-0.05282 -0.01377,-0.106225 -0.04364,-0.162491 -0.03215,-0.05627 -0.07579,-0.126321 -0.131488,-0.209579 l -0.164789,-0.24345 -1.899397,1.403875 c -0.03043,0.02296 -0.05627,0.01779 -0.08211,-0.0075 -0.01838,-0.01896 -0.0356,-0.03963 -0.05799,-0.06374 -0.01952,-0.02413 -0.04019,-0.04765 -0.05742,-0.07062 -0.01838,-0.02296 -0.03445,-0.04594 -0.0488,-0.06488 -0.01378,-0.02237 -0.02584,-0.03617 -0.031,-0.04651 -0.02354,-0.03217 -0.01666,-0.05914 0.0132,-0.08039 l 1.92753,-1.4234 z m 2.915697,3.926833 -1.975761,0.958884 c -0.01608,0.008 -0.03215,0.0052 -0.05053,-0.0069 -0.02125,-0.01721 -0.04364,-0.03558 -0.0689,-0.05857 -0.02412,-0.02296 -0.04996,-0.04708 -0.07637,-0.0712 -0.01608,-0.01608 -0.0201,-0.03617 -0.01205,-0.06029 l 0.823952,-2.12792 -1.573834,1.386075 c -0.01436,0.0115 -0.02986,0.01033 -0.04823,-0.0069 -0.02182,-0.01492 -0.04766,-0.03504 -0.07579,-0.06086 -0.03215,-0.02754 -0.06259,-0.0557 -0.09359,-0.08555 -0.01493,-0.01721 -0.01665,-0.02813 -0.0063,-0.04249 0.0075,-0.0086 0.01206,-0.01379 0.0178,-0.01379 l 1.913751,-1.499763 0.08038,-0.202112 c 0.004,-0.0075 0.008,-0.01667 0.01205,-0.01779 0.0155,-0.02008 0.0379,-0.02008 0.06144,-0.0029 0.02009,0.01492 0.04421,0.031 0.07062,0.04995 0.02354,0.02067 0.04938,0.03846 0.07292,0.05914 0.02469,0.01896 0.04594,0.03733 0.06431,0.0534 0.02009,0.01779 0.03445,0.02988 0.04364,0.03846 0.01262,0.0115 0.01608,0.02583 0.01608,0.03675 0.0023,0.01438 0,0.031 -0.0052,0.04938 L 14.769124,40.567691 16.6289,39.7202 16.736848,39.561725 c 0,-0.0013 0.0046,-0.0069 0.01262,-0.01438 0.0155,-0.02067 0.03617,-0.02183 0.06201,-0.0075 0.01952,0.01492 0.04364,0.02929 0.06718,0.04995 0.02469,0.01779 0.05053,0.03904 0.07292,0.05627 0.02412,0.01896 0.04594,0.03675 0.06373,0.0534 0.01837,0.0155 0.03387,0.02812 0.04249,0.03617 0.02814,0.02583 0.02928,0.0557 0.0092,0.08383 l -1.505507,2.16639 c -0.0017,0.0052 -0.0035,0.0092 -0.0075,0.01433 -0.0029,4.16e-4 -0.0046,0.0033 -0.0063,0.0046 -0.0201,0.02242 -0.04019,0.02642 -0.06259,0.0092 -0.02354,-0.01379 -0.04536,-0.03388 -0.07407,-0.05225 -0.02526,-0.02067 -0.04938,-0.04021 -0.07292,-0.06316 -0.02641,-0.01896 -0.04938,-0.03675 -0.0689,-0.05512 -0.0178,-0.01721 -0.03215,-0.03042 -0.03904,-0.04075 -0.01091,-0.01033 -0.01665,-0.01954 -0.02067,-0.02929 -0.0023,-0.01033 0,-0.02008 0.0057,-0.03042 z m 0.550068,1.69154 0.662606,0.52308 0.323265,-1.186832 z m -0.170533,0.112542 -0.823378,0.555808 c -0.01377,0.0115 -0.02986,0.01033 -0.0488,0 -0.02297,-0.01379 -0.04938,-0.03158 -0.07751,-0.05225 -0.02814,-0.01779 -0.05742,-0.04191 -0.09244,-0.07062 -0.01952,-0.01492 -0.02354,-0.02642 -0.01493,-0.04075 0.0012,-0.0025 0.0057,-0.0063 0.008,-0.0086 l 2.26917,-1.401577 0.04019,-0.135504 c 0.004,-0.01262 0.008,-0.02067 0.0098,-0.02412 0.01377,-0.01779 0.03387,-0.02067 0.05799,-0.0069 0.02239,0.01033 0.04594,0.02471 0.07407,0.04249 0.02871,0.01779 0.05397,0.03446 0.07981,0.04881 0.02469,0.01492 0.04823,0.03217 0.06775,0.04708 0.02297,0.01438 0.03847,0.02525 0.04651,0.03217 0.02412,0.02008 0.03215,0.04536 0.02239,0.0844 l -0.736101,2.755498 c -0.0046,0.01379 -0.0063,0.02125 -0.01033,0.02525 -0.0155,0.02008 -0.0356,0.02412 -0.06144,0.0092 -0.02469,-0.01321 -0.05053,-0.02813 -0.07866,-0.0465 -0.02928,-0.01779 -0.05742,-0.03675 -0.08383,-0.05513 -0.02641,-0.01721 -0.05225,-0.03275 -0.07407,-0.0511 -0.0201,-0.01608 -0.03503,-0.02642 -0.04364,-0.03388 -0.01952,-0.0155 -0.02814,-0.03617 -0.02182,-0.06029 l 0.275607,-1.015154 z m 2.822107,0.167088 c -0.08153,-0.0534 -0.149861,-0.0936 -0.205557,-0.12345 -0.05627,-0.02929 -0.109669,-0.04536 -0.161345,-0.04133 -0.04766,0.0042 -0.101056,0.02296 -0.157325,0.06431 -0.05742,0.03904 -0.123451,0.10335 -0.203836,0.188904 l -0.09015,-0.07177 c 0.0046,-0.0057 0.01262,-0.01779 0.02584,-0.04192 0.01608,-0.02412 0.03445,-0.05225 0.05684,-0.08153 0.01952,-0.03217 0.04478,-0.06833 0.06947,-0.106225 0.02584,-0.03904 0.04996,-0.07407 0.07407,-0.110242 0.02412,-0.03617 0.04823,-0.07062 0.06947,-0.09933 0.0201,-0.03217 0.03905,-0.05455 0.05225,-0.07235 0.01377,-0.01721 0.03043,-0.02238 0.05225,-0.0086 0.111966,0.07809 0.219913,0.152158 0.32384,0.219911 0.102204,0.07062 0.197518,0.133783 0.285942,0.190054 l 0.624136,0.410541 c 0.08842,0.05512 0.183739,0.11943 0.291686,0.186034 0.106222,0.06775 0.215318,0.138379 0.331877,0.209579 0.01665,0.01204 0.01952,0.02813 0.01263,0.04938 -0.0086,0.02067 -0.02239,0.04593 -0.03847,0.07809 -0.0178,0.03504 -0.03617,0.07062 -0.05857,0.110241 -0.01952,0.03846 -0.04134,0.07752 -0.06086,0.116563 -0.02469,0.04191 -0.04421,0.08038 -0.06431,0.112537 -0.01608,0.03329 -0.03158,0.06316 -0.04536,0.08555 -0.01493,0.02525 -0.02297,0.03792 -0.02641,0.04306 l -0.101056,-0.04938 c 0.04077,-0.114263 0.06316,-0.206704 0.07464,-0.276184 0.01206,-0.0689 0.0063,-0.129187 -0.01148,-0.1757 -0.01837,-0.04823 -0.05225,-0.09187 -0.102205,-0.130337 -0.04823,-0.03904 -0.113687,-0.0844 -0.198092,-0.137804 l -0.24001,-0.157325 -1.227602,2.072225 c -0.01837,0.03217 -0.04421,0.04191 -0.07809,0.027 -0.02412,-0.01033 -0.05053,-0.02125 -0.07579,-0.03558 -0.03043,-0.01262 -0.05684,-0.027 -0.08096,-0.04075 -0.02526,-0.01437 -0.04995,-0.02812 -0.06948,-0.04133 -0.02182,-0.01262 -0.0379,-0.02296 -0.04536,-0.02813 -0.03215,-0.02008 -0.03675,-0.04593 -0.01838,-0.08038 l 1.247698,-2.102084 z m 1.011136,3.098287 c -0.01722,0.03446 -0.02699,0.06029 -0.03387,0.08038 -0.0069,0.01779 -0.0092,0.03617 -0.0057,0.0511 0.004,0.01433 0.01608,0.02812 0.03215,0.04133 0.01838,0.01379 0.04651,0.02929 0.08153,0.04938 l 0.254937,0.136084 c 0.105075,0.05627 0.191778,0.09818 0.258957,0.129762 0.06833,0.02987 0.130913,0.04249 0.191777,0.04021 0.05857,-0.0029 0.120578,-0.02242 0.182589,-0.06316 0.06373,-0.04075 0.143547,-0.103354 0.237712,-0.187758 l 0.08842,0.07407 c -0.0057,0.01321 -0.01952,0.03446 -0.04651,0.07062 -0.02354,0.03787 -0.05397,0.08038 -0.08957,0.127467 -0.03387,0.04995 -0.07005,0.09876 -0.110243,0.146417 -0.0379,0.04938 -0.0735,0.0913 -0.10565,0.126321 -0.0379,0.03787 -0.08211,0.04306 -0.130339,0.02008 -0.04766,-0.02642 -0.107946,-0.05857 -0.171681,-0.09417 -0.06775,-0.03617 -0.141823,-0.07579 -0.221634,-0.121725 -0.08383,-0.04479 -0.172255,-0.09245 -0.264124,-0.141825 -0.09589,-0.05282 -0.191777,-0.105075 -0.296279,-0.161346 l -0.328431,-0.171679 c -0.01723,-0.0097 -0.02527,-0.02412 -0.02756,-0.03904 0,-0.01438 0.0023,-0.02813 0.0086,-0.03846 l 0.959458,-1.992417 c 0.03388,-0.07005 0.04192,-0.123445 0.02182,-0.163641 -0.0201,-0.03792 -0.04995,-0.0712 -0.09302,-0.09416 -0.03043,-0.01438 -0.06029,-0.027 -0.09072,-0.04021 l 0.04421,-0.119429 c 0.02928,0.0098 0.0735,0.02413 0.129767,0.04479 0.05799,0.01838 0.11541,0.03963 0.177422,0.06086 0.06029,0.02467 0.120578,0.04593 0.175125,0.07062 0.05742,0.02125 0.09933,0.03963 0.129766,0.05742 l 0.717728,0.382409 c 0.04364,0.02412 0.09187,0.04823 0.139527,0.07407 0.05053,0.02412 0.103926,0.05225 0.163641,0.08153 0.0201,0.01092 0.02813,0.02813 0.0201,0.04995 -0.0075,0.02067 -0.0178,0.04651 -0.03158,0.08096 -0.01205,0.03271 -0.02756,0.06775 -0.04594,0.106221 -0.01607,0.03675 -0.03215,0.07522 -0.05053,0.114263 -0.0155,0.04133 -0.03158,0.07866 -0.04593,0.110246 -0.01377,0.03446 -0.02526,0.06258 -0.0379,0.08842 -0.0098,0.02183 -0.0155,0.03846 -0.01952,0.04536 l -0.103927,-0.04249 c 0.02584,-0.110241 0.04019,-0.198666 0.04134,-0.264696 0.0046,-0.06833 -0.0075,-0.121729 -0.02928,-0.166512 -0.02469,-0.04364 -0.06201,-0.08153 -0.113688,-0.115413 -0.05225,-0.03446 -0.122301,-0.0735 -0.209002,-0.1223 l -0.347382,-0.184312 c -0.02182,-0.0115 -0.0379,-0.01896 -0.05225,-0.02296 -0.01205,-0.0069 -0.02182,-0.0069 -0.02986,-0.0042 -0.0086,0.0042 -0.01377,0.0092 -0.0178,0.01954 -0.0063,0.0097 -0.01205,0.02467 -0.02182,0.04192 l -0.408243,0.837729 c 0.111391,0.05455 0.21417,0.10278 0.306039,0.144696 0.09244,0.04249 0.171681,0.08153 0.241731,0.111967 0.06775,0.03217 0.1223,0.05799 0.163641,0.07923 0.04249,0.01667 0.06833,0.031 0.07694,0.03504 0.0356,0.01896 0.04536,0.04938 0.02584,0.09187 -0.01436,0.02813 -0.02814,0.0534 -0.04479,0.07924 -0.0155,0.027 -0.03215,0.05282 -0.05168,0.0844 L 21.032304,44.26649 Z m 2.424773,0.08153 c 0.106797,0.03904 0.20728,0.06431 0.297427,0.07694 0.08785,0.01146 0.170533,0.0052 0.24173,-0.01667 0.07235,-0.02412 0.136082,-0.0666 0.194074,-0.124021 0.0557,-0.05972 0.103927,-0.139529 0.146417,-0.240584 0.03388,-0.08268 0.04766,-0.163641 0.04191,-0.238858 -0.0046,-0.07637 -0.02469,-0.148717 -0.06259,-0.209579 -0.0356,-0.06431 -0.08555,-0.124021 -0.149862,-0.176275 -0.06431,-0.04995 -0.13608,-0.09589 -0.219911,-0.132063 -0.0534,-0.02412 -0.09761,-0.03846 -0.127469,-0.04133 -0.03043,-0.0012 -0.05627,0.01721 -0.07292,0.06029 l -0.891706,2.219792 c -0.0132,0.03504 -0.03905,0.0488 -0.0735,0.03846 -0.02354,-0.0063 -0.05168,-0.01146 -0.08211,-0.02183 -0.02814,-0.0075 -0.05742,-0.01779 -0.08383,-0.02813 -0.02584,-0.0097 -0.05168,-0.01779 -0.07579,-0.02812 -0.02239,-0.0075 -0.04077,-0.01492 -0.05053,-0.02008 -0.03158,-0.01262 -0.04191,-0.04021 -0.02756,-0.07579 l 0.865867,-2.147442 c 0.02584,-0.07235 0.02986,-0.1246 0.01148,-0.16192 -0.02182,-0.03787 -0.0557,-0.06603 -0.103927,-0.08785 -0.02584,-0.01262 -0.0557,-0.02412 -0.09187,-0.03158 l 0.03618,-0.1246 c 0.145843,0.03558 0.293981,0.07867 0.445565,0.125746 0.153882,0.04823 0.306614,0.108521 0.458198,0.176275 0.0666,0.02754 0.133784,0.05972 0.204409,0.09876 0.06718,0.03675 0.135508,0.07923 0.197519,0.127466 0.06431,0.04306 0.120004,0.09646 0.17168,0.152159 0.05225,0.05454 0.09072,0.114837 0.120578,0.181441 0.02814,0.06661 0.04364,0.135509 0.04594,0.212446 0.0017,0.07522 -0.01436,0.156754 -0.04823,0.245179 -0.0379,0.09244 -0.08326,0.166513 -0.140101,0.22795 -0.0534,0.05914 -0.117707,0.1045 -0.183739,0.138375 -0.06833,0.031 -0.144118,0.0534 -0.219911,0.06603 -0.07809,0.01033 -0.159623,0.01146 -0.241731,0.008 l -0.0035,0.01204 c 0.02928,0.02354 0.06086,0.05053 0.09532,0.08326 0.03387,0.03217 0.06144,0.07062 0.08785,0.113688 0.02813,0.04536 0.04766,0.09646 0.06201,0.155604 0.0155,0.05512 0.0201,0.119429 0.01377,0.191775 l -0.04766,0.556958 c -0.0063,0.07637 -0.01033,0.136655 -0.0086,0.183738 0.0023,0.04938 0.0063,0.08613 0.01837,0.114262 0.01206,0.03042 0.02584,0.05455 0.05053,0.07062 0.01952,0.01721 0.04938,0.03388 0.08555,0.05225 l -0.03962,0.113113 c -0.02641,-0.0057 -0.05684,-0.01379 -0.09072,-0.02125 -0.03215,-0.0086 -0.06316,-0.02067 -0.09531,-0.02871 -0.03043,-0.01204 -0.05857,-0.02008 -0.08211,-0.02754 -0.02412,-0.0075 -0.04421,-0.01667 -0.05397,-0.02183 -0.04651,-0.01779 -0.08211,-0.04075 -0.111966,-0.0689 -0.03043,-0.02296 -0.05225,-0.05742 -0.06833,-0.09589 -0.01608,-0.03675 -0.02641,-0.08211 -0.02986,-0.135508 -0.004,-0.05398 -0.0017,-0.116559 0.0075,-0.190629 l 0.06431,-0.586813 c 0.0098,-0.08153 0.0098,-0.152158 -0.0023,-0.2113 -0.01033,-0.05685 -0.03158,-0.1045 -0.06603,-0.146417 -0.0333,-0.04306 -0.07751,-0.08211 -0.136081,-0.116558 -0.05742,-0.03617 -0.127469,-0.07407 -0.211299,-0.114262 z m 1.836811,-0.582796 c 0.07981,0.01321 0.15388,0.02929 0.22393,0.04479 0.07177,0.0195 0.13436,0.03446 0.187759,0.0488 0.05455,0.01667 0.09818,0.02812 0.134358,0.03904 0.03618,0.01092 0.05627,0.01779 0.0666,0.02183 0.04364,0.01721 0.05742,0.0511 0.04134,0.09761 l -0.885389,2.435108 c -0.01262,0.03329 -0.03618,0.04766 -0.07235,0.04021 -0.02412,-0.0042 -0.05053,-0.01321 -0.07981,-0.01779 -0.03215,-0.0092 -0.06029,-0.01721 -0.08613,-0.027 -0.02813,-0.0075 -0.05397,-0.0155 -0.07809,-0.02525 -0.02182,-0.008 -0.0379,-0.01433 -0.04995,-0.01608 -0.03215,-0.01321 -0.04249,-0.04021 -0.02986,-0.07637 l 0.781463,-2.149167 c 0.01436,-0.04021 0.02297,-0.07637 0.02354,-0.102204 0.0029,-0.02812 -5.83e-4,-0.05455 -0.01091,-0.07464 -0.01091,-0.01896 -0.02182,-0.03504 -0.04077,-0.0511 -0.0155,-0.01204 -0.03904,-0.02412 -0.06316,-0.03733 -0.03215,-0.008 -0.06259,-0.02125 -0.09474,-0.02758 z m 1.108172,1.979208 0.785482,0.2802 -0.04134,-1.233917 z m -0.128044,0.162492 -0.618394,0.795246 c -0.01091,0.01379 -0.02813,0.02067 -0.04766,0.01608 -0.02526,-0.0057 -0.0557,-0.01375 -0.08785,-0.02412 -0.03388,-0.01204 -0.07005,-0.02413 -0.107947,-0.03787 -0.02412,-0.0075 -0.03215,-0.01838 -0.02813,-0.03446 0.0017,-0.0042 0.004,-0.008 0.0057,-0.008 l 1.746089,-2.069929 -0.0023,-0.142971 c 0,-0.01438 0.0023,-0.02183 0.0023,-0.02871 0.0086,-0.02125 0.02584,-0.03042 0.05455,-0.02412 0.02354,0.0029 0.04938,0.008 0.08153,0.01721 0.02986,0.0069 0.06029,0.01379 0.08957,0.01896 0.02814,0.0092 0.05455,0.01667 0.07809,0.02412 0.02641,0.0063 0.04364,0.0115 0.05627,0.01667 0.02584,0.0086 0.03962,0.03329 0.04192,0.07177 l 0.111965,2.858858 c 0,0.01262 0,0.02296 -0.0017,0.027 -0.008,0.02525 -0.02641,0.03558 -0.05857,0.02929 -0.02641,-0.0052 -0.05397,-0.01204 -0.08498,-0.01896 -0.03273,-0.0063 -0.06603,-0.01437 -0.09704,-0.02471 -0.03215,-0.01033 -0.05972,-0.01667 -0.08383,-0.027 -0.02641,-0.0046 -0.04134,-0.0115 -0.0534,-0.0155 -0.02412,-0.01033 -0.03789,-0.02525 -0.03789,-0.04938 l -0.03847,-1.055925 z m 2.338072,1.365408 c -0.0086,0.03617 -0.01377,0.06546 -0.0178,0.08555 -0.0023,0.02067 0,0.03846 0.0052,0.05283 0.0057,0.01321 0.0201,0.02296 0.04019,0.03329 0.02182,0.0098 0.05053,0.01721 0.09015,0.03042 l 0.209576,0.05971 c 0.114263,0.03217 0.207854,0.05397 0.282498,0.06546 0.07349,0.01667 0.139526,0.01379 0.195223,-0.0042 0.05857,-0.01779 0.116559,-0.05225 0.169957,-0.105646 0.05397,-0.05397 0.120578,-0.132062 0.198668,-0.235417 l 0.09761,0.05398 c -0.0023,0.01092 -0.01148,0.03504 -0.03158,0.07924 -0.01608,0.04421 -0.0379,0.09129 -0.06431,0.147562 -0.02584,0.05398 -0.05167,0.113117 -0.07981,0.170534 -0.02986,0.05742 -0.05627,0.106225 -0.08039,0.148712 -0.03215,0.04536 -0.07177,0.06086 -0.124597,0.04708 -0.106798,-0.03217 -0.237137,-0.06948 -0.397335,-0.114263 -0.157326,-0.04708 -0.349103,-0.102204 -0.571312,-0.163642 l -0.355998,-0.09932 c -0.01952,-0.0042 -0.03215,-0.01721 -0.03675,-0.031 -0.004,-0.0155 -0.004,-0.02754 0,-0.03963 l 0.554661,-2.195101 c 0.01148,-0.04249 0.0155,-0.07637 0.01377,-0.106225 0,-0.02525 -0.008,-0.04938 -0.0178,-0.07062 -0.01033,-0.01896 -0.02641,-0.03275 -0.04421,-0.04708 -0.02067,-0.01321 -0.04421,-0.02008 -0.06775,-0.027 -0.03215,-0.0075 -0.06373,-0.01492 -0.09646,-0.01896 l 0.01837,-0.128042 c 0.08211,0.0052 0.157327,0.01438 0.227952,0.02183 0.07407,0.01033 0.136081,0.01954 0.191776,0.02871 0.05455,0.0069 0.09991,0.01492 0.136081,0.02296 0.03732,0.0058 0.05972,0.01204 0.06948,0.01379 0.04593,0.01438 0.06259,0.04479 0.05053,0.09187 z m 3.118959,-0.968071 c 0.0057,-0.08555 -0.004,-0.163641 -0.02182,-0.23025 -0.01837,-0.06718 -0.04766,-0.127466 -0.08842,-0.176275 -0.0379,-0.0511 -0.08555,-0.09359 -0.141823,-0.127466 -0.05397,-0.03329 -0.115984,-0.05627 -0.186034,-0.07465 -0.06718,-0.01492 -0.13436,-0.02125 -0.200392,-0.01896 -0.06546,0.0012 -0.125171,0.01492 -0.180865,0.04192 -0.05684,0.02642 -0.104502,0.06545 -0.14412,0.117704 -0.04019,0.0511 -0.07005,0.118284 -0.08785,0.202688 -0.01608,0.0712 -0.01436,0.137804 0.0075,0.197521 0.02182,0.06029 0.05799,0.114837 0.102779,0.167658 0.04766,0.04995 0.10565,0.102779 0.169383,0.148142 0.06374,0.04766 0.133211,0.09589 0.20441,0.143545 0.07981,0.05914 0.155603,0.115984 0.233118,0.176276 0.07809,0.06029 0.14412,0.128041 0.20039,0.202112 0.0557,0.0712 0.09589,0.1556 0.120003,0.248046 0.02641,0.09187 0.02412,0.198092 -0.0017,0.3158 -0.0224,0.103354 -0.05684,0.191775 -0.102205,0.265846 -0.04421,0.07464 -0.09819,0.135508 -0.162494,0.182016 -0.06144,0.04823 -0.131488,0.0844 -0.205556,0.109667 -0.07407,0.02412 -0.152734,0.04075 -0.234267,0.04881 -0.08211,0.0063 -0.165939,0.0033 -0.249196,-0.0069 -0.08613,-0.008 -0.168809,-0.02413 -0.24862,-0.04192 -0.09589,-0.02296 -0.191778,-0.0511 -0.285943,-0.08842 -0.09244,-0.03558 -0.182017,-0.07235 -0.27446,-0.121725 -0.01091,-0.0029 -0.01952,-0.01379 -0.02527,-0.02525 -0.0063,-0.0097 -0.0086,-0.02183 -0.0086,-0.03446 0.0046,-0.03217 0.01262,-0.07981 0.02297,-0.138955 0.01091,-0.06316 0.02182,-0.126891 0.03158,-0.190629 0.01436,-0.06431 0.02412,-0.121725 0.03388,-0.173975 0.0098,-0.05283 0.01665,-0.08096 0.01837,-0.09015 l 0.107947,0.01438 c -0.008,0.09302 -0.0017,0.177425 0.0178,0.252067 0.02125,0.07522 0.0534,0.138954 0.09761,0.195221 0.04651,0.05627 0.09818,0.102779 0.164217,0.139529 0.06603,0.03846 0.137803,0.0666 0.219911,0.08728 0.07177,0.01779 0.14412,0.02296 0.213597,0.02125 0.07235,0 0.137803,-0.01204 0.198093,-0.03904 0.06259,-0.02413 0.113687,-0.06431 0.159622,-0.116558 0.04479,-0.05397 0.07694,-0.124025 0.09531,-0.209579 0.01493,-0.07062 0.01091,-0.134358 -0.01091,-0.194071 -0.02124,-0.05685 -0.05627,-0.113117 -0.103927,-0.162496 -0.04593,-0.0511 -0.101056,-0.101629 -0.168235,-0.149862 -0.06144,-0.0488 -0.129765,-0.09589 -0.199816,-0.145267 -0.07751,-0.05685 -0.155603,-0.116558 -0.233692,-0.178571 -0.07579,-0.06258 -0.141823,-0.132637 -0.198093,-0.205558 -0.05627,-0.07751 -0.09359,-0.161917 -0.117133,-0.254363 -0.02469,-0.09589 -0.02469,-0.204983 0.0017,-0.326133 0.03331,-0.148717 0.08728,-0.265846 0.163642,-0.3514 0.07809,-0.08727 0.167661,-0.151013 0.27044,-0.187758 0.103353,-0.03904 0.215319,-0.05627 0.335322,-0.05512 0.118282,0.0021 0.238287,0.01608 0.357717,0.04421 0.07809,0.02067 0.163642,0.04765 0.256084,0.08211 0.08843,0.03617 0.173978,0.07407 0.250345,0.116558 0.01377,0.0052 0.02182,0.01092 0.02813,0.02525 0.0052,0.01146 0.0069,0.02183 0.0069,0.03504 -0.0029,0.03158 -0.01091,0.07752 -0.02125,0.132637 -0.008,0.05627 -0.0178,0.115983 -0.02814,0.1734 -0.0092,0.06029 -0.0178,0.112542 -0.02813,0.161346 -0.0075,0.04651 -0.01493,0.07292 -0.01493,0.08326 z m 1.758148,2.315675 c -0.0046,0.03617 -0.02641,0.0534 -0.06201,0.05627 -0.02469,0 -0.05455,0 -0.08498,-0.0029 -0.02756,-0.0012 -0.05742,-0.0012 -0.0867,-0.0063 -0.02814,-0.0012 -0.05627,-0.0042 -0.07981,-0.0069 -0.02527,-0.0017 -0.04249,-0.0069 -0.05512,-0.008 -0.0333,-0.0042 -0.04766,-0.02813 -0.04134,-0.06661 l 0.331877,-2.235291 c 0.01206,-0.07752 0.0017,-0.133784 -0.02813,-0.164792 -0.02986,-0.02929 -0.06833,-0.04995 -0.118282,-0.05742 -0.02928,-0.0063 -0.06144,-0.0075 -0.09359,-0.0075 l 0.0046,-0.130904 c 0.03101,0 0.07809,-0.0012 0.137229,0 0.05742,0 0.121727,0 0.186036,0.0029 0.06603,0.0012 0.127469,0.0012 0.187757,0.0075 0.06029,0.0029 0.106224,0.008 0.140101,0.01492 l 0.778018,0.127467 c 0.04766,0.0075 0.101629,0.01608 0.15388,0.02412 0.05397,0.0075 0.113688,0.01492 0.18259,0.02583 0.02125,0.0021 0.03158,0.01608 0.03158,0.03962 0,0.02008 0,0.04823 -0.0035,0.08383 -0.0029,0.03558 -0.0069,0.07752 -0.01033,0.116562 -0.0046,0.04249 -0.0086,0.08555 -0.01435,0.130338 -0.0035,0.04133 -0.01033,0.08153 -0.01436,0.118854 -0.0063,0.03733 -0.0075,0.06948 -0.01148,0.09532 -0.004,0.02525 -0.0057,0.04306 -0.0057,0.04938 l -0.111965,-0.0063 c -0.0086,-0.114262 -0.02067,-0.202112 -0.03904,-0.265846 -0.0155,-0.06546 -0.04077,-0.113687 -0.07579,-0.145841 -0.03617,-0.03617 -0.08383,-0.06029 -0.14412,-0.07522 -0.05742,-0.01492 -0.136081,-0.031 -0.231394,-0.04593 l -0.368052,-0.06316 c -0.02412,-0.0042 -0.04364,-0.0052 -0.05627,-0.0052 -0.01377,0 -0.02354,0.0012 -0.02986,0.0052 -0.0057,0.0069 -0.01148,0.01379 -0.01377,0.027 -0.0023,0.01092 -0.004,0.027 -0.008,0.04593 l -0.152158,1.027212 c 0.121727,0.01379 0.229674,0.02642 0.327859,0.03388 0.09761,0.0115 0.182015,0.02183 0.256084,0.02929 0.07005,0.0092 0.125746,0.01438 0.169385,0.01896 0.04479,0.0052 0.0712,0.008 0.08038,0.0092 0.04249,0.0092 0.05799,0.03504 0.05225,0.08096 -0.0057,0.02813 -0.0098,0.06029 -0.0178,0.08785 -0.0086,0.02987 -0.01608,0.06201 -0.02584,0.09704 L 33.254416,48.33308 Z m 2.847372,-2.1595 c -0.14412,-0.01321 -0.269866,0.008 -0.377813,0.06029 -0.107946,0.0511 -0.198092,0.127467 -0.272162,0.225079 -0.07407,0.09818 -0.131488,0.211871 -0.173977,0.343934 -0.04192,0.130341 -0.06948,0.268145 -0.08039,0.413987 -0.01378,0.162492 -0.0086,0.322117 0.01091,0.484608 0.01952,0.159625 0.05971,0.306042 0.121727,0.435805 0.06431,0.128045 0.147564,0.237712 0.257807,0.323266 0.107947,0.089 0.242306,0.138379 0.403652,0.152734 0.144118,0.01379 0.269864,-0.008 0.377811,-0.06259 0.107946,-0.05512 0.20039,-0.131487 0.273885,-0.231971 0.07407,-0.09933 0.132063,-0.215891 0.174552,-0.35025 0.03962,-0.134358 0.06775,-0.273312 0.07981,-0.418579 0.01378,-0.160771 0.0098,-0.322692 -0.01033,-0.481167 -0.02182,-0.157325 -0.06201,-0.29915 -0.12345,-0.427191 -0.06259,-0.127467 -0.148139,-0.234267 -0.256086,-0.318096 -0.110243,-0.08555 -0.244602,-0.134934 -0.405946,-0.149863 z m 0.125745,-0.183737 c 0.190054,0.01721 0.360012,0.06316 0.505855,0.137804 0.148139,0.07522 0.272162,0.177421 0.369774,0.304317 0.09818,0.125171 0.170532,0.274458 0.216466,0.451308 0.04421,0.173975 0.05742,0.3692 0.03962,0.585667 -0.01952,0.233691 -0.06833,0.4381 -0.148139,0.613225 -0.08153,0.17455 -0.185461,0.3158 -0.315226,0.428341 -0.132062,0.112538 -0.284794,0.191775 -0.458198,0.24173 -0.176274,0.05053 -0.366329,0.06431 -0.57533,0.04651 -0.19063,-0.01837 -0.35829,-0.06545 -0.508726,-0.143546 -0.147564,-0.07809 -0.271588,-0.182587 -0.369773,-0.311204 -0.09761,-0.127471 -0.167662,-0.279054 -0.211874,-0.454754 -0.04421,-0.178571 -0.05799,-0.374367 -0.04019,-0.591409 0.01837,-0.233116 0.06775,-0.435229 0.14814,-0.609208 0.08038,-0.173975 0.186035,-0.315225 0.3158,-0.422596 0.129766,-0.110246 0.281924,-0.188333 0.457623,-0.234267 0.173978,-0.04594 0.366329,-0.06029 0.574183,-0.04192 z m 2.065909,1.519862 c 0.115412,-0.0063 0.214171,-0.02296 0.302021,-0.04594 0.08785,-0.02412 0.16192,-0.06258 0.219912,-0.112538 0.06029,-0.04995 0.103925,-0.112541 0.135508,-0.190629 0.03217,-0.07522 0.04823,-0.169958 0.04995,-0.2802 0.0029,-0.08958 -0.01379,-0.171108 -0.04593,-0.238862 -0.03158,-0.06775 -0.07407,-0.126892 -0.131487,-0.169959 -0.05627,-0.04593 -0.126321,-0.08038 -0.202113,-0.105075 -0.07809,-0.02125 -0.161917,-0.03329 -0.252067,-0.03329 -0.06029,-0.0025 -0.102204,0.0017 -0.134358,0.01204 -0.02754,0.0098 -0.04306,0.03504 -0.04306,0.0844 l -0.03675,2.409846 c 0,0.03733 -0.01779,0.05857 -0.0534,0.06431 -0.02642,0.0033 -0.05455,0.0075 -0.08383,0.01092 -0.031,0.0025 -0.05857,0.0042 -0.08842,0.0063 -0.02813,0.0013 -0.05627,0.0042 -0.07981,0.0042 h -0.05627 c -0.0333,0 -0.04995,-0.02008 -0.04995,-0.05914 l 0.03388,-2.330034 c 0.0023,-0.07694 -0.01435,-0.128616 -0.04594,-0.15675 -0.03215,-0.02412 -0.07464,-0.03787 -0.12632,-0.03787 -0.02814,-0.0012 -0.06201,0.0029 -0.09531,0.0042 l -0.01263,-0.128617 c 0.148713,-0.02413 0.300872,-0.04307 0.460495,-0.05915 0.158474,-0.01433 0.31982,-0.02237 0.485757,-0.01837 0.07006,0 0.144121,0.0063 0.223934,0.01262 0.07637,0.0075 0.154454,0.02183 0.230246,0.03963 0.07407,0.01837 0.14412,0.04364 0.211875,0.07464 0.0666,0.031 0.12517,0.0712 0.17627,0.121154 0.04996,0.04938 0.0913,0.109667 0.118859,0.180292 0.02871,0.06775 0.04306,0.149288 0.04075,0.24575 0,0.09933 -0.01608,0.187758 -0.04766,0.2647 -0.02813,0.07522 -0.06775,0.142971 -0.120575,0.201538 -0.05168,0.05742 -0.113691,0.10622 -0.179145,0.146987 -0.06891,0.04133 -0.144121,0.07407 -0.222209,0.102208 v 0.01433 c 0.03733,0.008 0.07522,0.02183 0.117129,0.03787 0.04479,0.01837 0.08613,0.04249 0.126321,0.07235 0.03733,0.03217 0.07637,0.0712 0.110246,0.117133 0.03329,0.04651 0.06144,0.105075 0.07981,0.173979 l 0.156175,0.533988 c 0.02125,0.07464 0.04021,0.132637 0.05799,0.17685 0.01779,0.04192 0.03792,0.07522 0.05857,0.09991 0.01954,0.02183 0.04307,0.03558 0.0689,0.04364 0.02642,0.0086 0.06029,0.01262 0.101054,0.01262 l 0.0033,0.120005 c -0.02813,0.0052 -0.05799,0.0115 -0.09187,0.01492 -0.03388,0.0069 -0.06603,0.01092 -0.09876,0.01204 -0.03271,0.0029 -0.06086,0.0052 -0.08727,0.0092 -0.02583,0.0012 -0.04651,0.0012 -0.05799,0.0012 -0.0488,0 -0.08958,-0.0075 -0.126321,-0.01954 -0.03733,-0.01262 -0.06947,-0.03217 -0.09991,-0.06029 -0.02987,-0.031 -0.05167,-0.07005 -0.07579,-0.115408 -0.02183,-0.04995 -0.04249,-0.106225 -0.06029,-0.180867 l -0.148708,-0.570166 c -0.02125,-0.07924 -0.04709,-0.145267 -0.07752,-0.193496 -0.02988,-0.04823 -0.06775,-0.0867 -0.114262,-0.112542 -0.04536,-0.02525 -0.101059,-0.04306 -0.166513,-0.0534 -0.06718,-0.0097 -0.144696,-0.01667 -0.239433,-0.02183 z m 3.143075,0.219909 0.828546,-0.04593 -0.475996,-1.128841 z m -0.06201,0.199816 -0.293979,0.981855 c -0.0063,0.01492 -0.02008,0.02525 -0.03963,0.03217 -0.027,0.0029 -0.0557,0.0069 -0.08785,0.0098 -0.03446,0.0042 -0.07177,0.008 -0.116558,0.008 -0.02413,0.0025 -0.03617,-0.0042 -0.03846,-0.02067 0,-0.0042 0.0025,-0.0075 0.0052,-0.01146 l 0.890559,-2.602196 -0.05513,-0.134358 c -0.0042,-0.01092 -0.0052,-0.01896 -0.0052,-0.02296 -0.0029,-0.02412 0.01092,-0.03787 0.03904,-0.04479 0.02412,-0.0052 0.05053,-0.0115 0.08211,-0.0155 0.03217,-0.0057 0.06258,-0.01204 0.09244,-0.01608 0.02929,-0.0042 0.05627,-0.01033 0.08153,-0.01204 0.02413,-0.0017 0.04192,-0.0033 0.0534,-0.0033 0.031,-0.0025 0.05282,0.01379 0.06718,0.04708 l 1.113342,2.613679 c 0.0057,0.01321 0.0075,0.02008 0.0075,0.02412 0.0021,0.02812 -0.0115,0.04478 -0.04075,0.04995 -0.027,0.0063 -0.05512,0.01262 -0.08842,0.01837 -0.03504,0.0057 -0.06373,0.0097 -0.09818,0.01379 -0.03217,0.0033 -0.06029,0.0092 -0.08555,0.01033 -0.027,0.0025 -0.04593,0.0025 -0.05627,0.0042 -0.02583,0.0025 -0.04364,-0.01092 -0.05398,-0.03217 L 42.173723,48.97464 Z m 2.65215,0.676963 c 0.05627,0.0069 0.113688,0.01092 0.171684,0.008 0.05856,-0.0012 0.115983,-0.008 0.177421,-0.01437 0.176845,-0.02296 0.330154,-0.0712 0.459921,-0.145267 0.132062,-0.07177 0.238283,-0.167663 0.320391,-0.284221 0.08326,-0.116558 0.137804,-0.252067 0.169388,-0.407671 0.03217,-0.153304 0.03904,-0.326133 0.01721,-0.511021 -0.02183,-0.17857 -0.06431,-0.33647 -0.131487,-0.476 -0.06718,-0.140675 -0.15675,-0.256658 -0.265271,-0.35025 -0.107371,-0.0913 -0.234842,-0.158475 -0.383555,-0.198666 -0.148137,-0.03904 -0.310633,-0.04823 -0.489775,-0.02525 l -0.112541,0.01438 c -0.06488,0.0086 -0.117134,0.02125 -0.152159,0.03675 -0.03329,0.01667 -0.04708,0.04938 -0.04192,0.101054 z m -0.33647,0.230821 c -0.03387,0.0057 -0.0534,-0.01204 -0.05971,-0.05053 l -0.262404,-2.27663 c -0.008,-0.08096 -0.02929,-0.130337 -0.06488,-0.151583 -0.03446,-0.01896 -0.07809,-0.02813 -0.129188,-0.02125 -0.02987,0.0042 -0.06087,0.01033 -0.09589,0.02008 l -0.027,-0.12345 c 0.160196,-0.04995 0.320967,-0.09532 0.489775,-0.133212 0.166513,-0.03963 0.331305,-0.06948 0.499542,-0.09072 0.139525,-0.01896 0.277329,-0.027 0.415704,-0.02813 0.134363,0 0.266421,0.01438 0.386425,0.03733 0.124025,0.027 0.237713,0.06373 0.343363,0.118854 0.1045,0.05398 0.199817,0.125175 0.28135,0.215896 0.08211,0.0867 0.151583,0.196942 0.204983,0.324988 0.05684,0.130337 0.09302,0.281921 0.114263,0.456475 0.02525,0.230821 0.01092,0.443842 -0.04766,0.635046 -0.05684,0.190625 -0.148137,0.357141 -0.275033,0.498387 -0.124025,0.14355 -0.279625,0.260104 -0.465662,0.348529 -0.183738,0.08785 -0.389296,0.147567 -0.616096,0.177425 -0.06775,0.0075 -0.12345,0.01262 -0.17685,0.01433 -0.0511,0.0021 -0.10048,0.0021 -0.150438,0.0033 -0.04937,0 -0.105646,0.0033 -0.162492,0.0063 -0.05627,0.0012 -0.12402,0.01033 -0.202112,0.01837 z m 4.1278,-3.26308 c 0.0063,-0.03733 0.02525,-0.06431 0.06258,-0.08325 0.01896,-0.0092 0.03904,-0.01779 0.06374,-0.02296 0.02183,-0.0092 0.04364,-0.01438 0.06488,-0.02008 0.02183,-0.0069 0.04021,-0.01092 0.05914,-0.01492 0.01896,-0.0033 0.03329,-0.0063 0.04364,-0.0063 0.0155,-0.0029 0.02758,-0.0013 0.03158,0 0.0069,0.0063 0.01092,0.01321 0.01204,0.01837 0,0.0057 -0.0012,0.02008 -0.0052,0.04191 L 47.33671,49.37861 c -0.008,0.02812 -0.01838,0.04364 -0.03217,0.04766 -0.008,0.0021 -0.02067,0.0057 -0.03617,0.0097 -0.01608,0.0042 -0.03446,0.008 -0.05225,0.01204 -0.01779,0.0052 -0.03617,0.0063 -0.05225,0.0092 -0.01779,0.0046 -0.027,0.0069 -0.03329,0.0098 -0.008,0.0012 -0.01667,0 -0.02412,-0.0052 -0.01092,-0.0017 -0.02067,-0.01146 -0.02583,-0.02583 l -1.209778,-2.18994 c -0.03787,-0.06545 -0.07407,-0.109667 -0.114262,-0.128042 -0.03733,-0.01779 -0.08211,-0.02583 -0.129763,-0.01779 -0.01379,0.0042 -0.031,0.0063 -0.04479,0.0098 -0.01438,0.0063 -0.03158,0.01033 -0.04708,0.01721 l -0.03158,-0.124596 c 0.06144,-0.02412 0.12345,-0.04594 0.187759,-0.06718 0.06144,-0.02067 0.119429,-0.03904 0.171104,-0.05512 0.05282,-0.0155 0.09589,-0.02813 0.133212,-0.03733 0.03329,-0.0097 0.05857,-0.01667 0.06718,-0.01896 0.02183,-0.0042 0.04021,0.0025 0.0511,0.01379 0.01321,0.01321 0.027,0.03217 0.04133,0.05627 l 1.097262,2.010212 0.0086,-0.0029 z m 1.261479,1.241384 0.807875,-0.195796 -0.655717,-1.023767 z m -0.02813,0.209575 -0.127467,1.020325 c -0.0025,0.01492 -0.01204,0.02987 -0.031,0.03733 -0.02525,0.0098 -0.05455,0.01779 -0.0867,0.02813 -0.03504,0.0097 -0.07005,0.01779 -0.112537,0.03042 -0.02183,0.0052 -0.03617,0 -0.03846,-0.01667 -0.0012,-0.0042 -0.0012,-0.0075 -0.0012,-0.01204 l 0.446142,-2.722776 -0.07407,-0.120004 c -0.0063,-0.01321 -0.0092,-0.02125 -0.01033,-0.02412 -0.0042,-0.02471 0.0063,-0.04021 0.03158,-0.05053 0.02183,-0.01092 0.04708,-0.02125 0.07809,-0.03158 0.02929,-0.01146 0.05799,-0.02467 0.08555,-0.03158 0.02871,-0.01204 0.05684,-0.02125 0.08096,-0.02871 0.02296,-0.0063 0.04249,-0.01146 0.0534,-0.01379 0.02812,-0.0075 0.05282,0.0033 0.07235,0.03558 l 1.530196,2.3708 c 0.0046,0.0115 0.0097,0.01896 0.0115,0.02237 0.0063,0.02471 -0.0069,0.04536 -0.03329,0.05513 -0.02467,0.01204 -0.05512,0.02183 -0.0844,0.03617 -0.03158,0.01033 -0.06259,0.02125 -0.09187,0.02929 -0.03217,0.0097 -0.06029,0.01779 -0.08613,0.02583 -0.02642,0.0086 -0.04421,0.01204 -0.05627,0.01375 -0.02413,0.0063 -0.04421,-0.0017 -0.05627,-0.02183 l -0.560975,-0.876204 z m 1.80925,-2.258834 c 0.01667,-0.0046 0.031,-0.0046 0.04133,0.0033 0.01146,0.008 0.02525,0.01492 0.04192,0.02583 l 2.050979,1.573258 -0.627583,-1.977483 c -0.008,-0.01837 0.0025,-0.03217 0.02412,-0.03963 0.02413,-0.01379 0.05627,-0.02812 0.09819,-0.04593 0.04133,-0.01779 0.08153,-0.03446 0.118854,-0.04421 0.02471,-0.008 0.03733,0 0.04479,0.02008 l 0.575329,2.187637 0.117709,0.404225 c 0.0069,0.02008 -0.0042,0.03158 -0.02296,0.04133 -0.02642,0.01092 -0.05512,0.02183 -0.0867,0.03217 -0.02987,0.01204 -0.06144,0.02471 -0.09359,0.03504 -0.01379,0.0033 -0.02413,0.0033 -0.03446,0.0013 -0.0075,-0.0013 -0.0155,-0.01033 -0.02525,-0.01838 l -2.068208,-1.584742 0.643658,2.028588 c 0.0052,0.01779 -0.0042,0.03217 -0.02525,0.04133 -0.02583,0.01092 -0.05799,0.027 -0.103354,0.04307 -0.04306,0.01779 -0.08153,0.02929 -0.116558,0.04192 -0.02183,0.008 -0.03904,0 -0.04421,-0.02125 l -0.616096,-2.334625 -0.245175,-0.193496 c -0.0092,-0.0063 -0.01321,-0.01262 -0.01667,-0.02412 -0.0063,-0.01837 0.0033,-0.03446 0.02583,-0.04938 0.02296,-0.01204 0.04823,-0.02583 0.0844,-0.04021 0.03388,-0.01608 0.06718,-0.031 0.10335,-0.04421 0.03675,-0.01438 0.0689,-0.02813 0.09704,-0.04021 0.02642,-0.0097 0.04938,-0.01779 0.05857,-0.02125 z m 5.119413,0.926734 c -0.05627,0.07005 -0.121725,0.137804 -0.195796,0.200962 -0.07522,0.06316 -0.149287,0.12115 -0.226229,0.170534 -0.07522,0.05053 -0.145267,0.09244 -0.215892,0.128616 -0.06775,0.03787 -0.124025,0.06316 -0.167087,0.08325 -0.190629,0.07752 -0.376663,0.110817 -0.557534,0.107371 -0.180291,-0.0042 -0.3491,-0.04306 -0.504129,-0.116558 -0.156179,-0.07407 -0.293983,-0.178571 -0.416283,-0.319821 -0.121725,-0.137804 -0.217617,-0.304317 -0.288242,-0.497242 -0.07522,-0.21072 -0.107371,-0.410537 -0.09589,-0.601166 0.0097,-0.188909 0.05799,-0.365754 0.1424,-0.5271 0.08383,-0.158475 0.198666,-0.303167 0.347379,-0.427767 0.148137,-0.124596 0.322116,-0.2268 0.520783,-0.306037 0.110817,-0.04421 0.221063,-0.08039 0.329579,-0.10565 0.106225,-0.027 0.21245,-0.04881 0.31695,-0.06431 0.01321,-0.0029 0.02413,0 0.03446,0.0052 0.01146,0.0092 0.02067,0.01725 0.02583,0.027 0.0086,0.01837 0.02008,0.04364 0.03446,0.07292 0.01146,0.03271 0.02812,0.06488 0.04191,0.102204 0.01379,0.03558 0.02987,0.07292 0.04593,0.112542 0.01608,0.03558 0.02929,0.07005 0.04422,0.102204 0.01204,0.03217 0.02413,0.06029 0.03217,0.08211 0.0098,0.02296 0.01608,0.03733 0.01608,0.04306 l -0.09819,0.0534 c -0.04021,-0.08613 -0.09359,-0.152734 -0.1579,-0.198667 -0.06488,-0.04364 -0.134358,-0.07465 -0.21072,-0.08843 -0.07522,-0.01204 -0.155605,-0.01437 -0.234842,-0.0012 -0.08211,0.01379 -0.160196,0.03617 -0.234267,0.06546 -0.151012,0.05914 -0.269867,0.137229 -0.364033,0.235988 -0.09015,0.09589 -0.15675,0.203262 -0.198667,0.326137 -0.03963,0.12115 -0.05512,0.252067 -0.04593,0.389871 0.0086,0.141821 0.04075,0.285367 0.09474,0.433504 0.06144,0.172254 0.142975,0.322117 0.241159,0.453604 0.09876,0.130342 0.21245,0.231971 0.343362,0.302021 0.124596,0.07407 0.269863,0.114263 0.425467,0.1246 0.156754,0.0069 0.323267,-0.02525 0.504133,-0.09646 0.107371,-0.04307 0.205559,-0.09589 0.297425,-0.162496 0.09187,-0.06545 0.181442,-0.139525 0.269867,-0.221063 z m 0.726342,-0.497246 c 0.01379,0.03446 0.02583,0.06144 0.03617,0.08039 0.0097,0.01779 0.02183,0.03158 0.03388,0.03733 0.01437,0.0058 0.03217,0.0058 0.05167,0 0.02067,-0.0042 0.04995,-0.01608 0.08785,-0.03329 l 0.2624,-0.116558 c 0.109671,-0.0488 0.197521,-0.09015 0.26183,-0.126317 0.06833,-0.03329 0.116558,-0.0758 0.153304,-0.12575 0.03733,-0.0488 0.06029,-0.111962 0.0735,-0.186608 0.01092,-0.07809 0.01492,-0.181442 0.01721,-0.312929 L 57.628974,45.504 c 0.0042,0.01033 0.0115,0.03617 0.02183,0.08154 0.0115,0.04306 0.02183,0.09531 0.03558,0.1556 0.01321,0.06029 0.02412,0.117133 0.03504,0.181442 0.01092,0.06259 0.01721,0.117708 0.02412,0.165941 0.0013,0.05684 -0.02296,0.09646 -0.07062,0.116559 -0.05282,0.02296 -0.110242,0.04995 -0.180292,0.07924 -0.07005,0.02813 -0.145841,0.06431 -0.233691,0.09991 -0.08441,0.03846 -0.17398,0.07636 -0.272163,0.120004 -0.09761,0.04191 -0.199817,0.08613 -0.305467,0.134358 l -0.338191,0.149288 c -0.02008,0.0092 -0.03446,0.0092 -0.04536,-0.0013 -0.01321,-0.0097 -0.02067,-0.01779 -0.02471,-0.02987 l -0.828546,-2.057871 c -0.02983,-0.0712 -0.06431,-0.113688 -0.105071,-0.124021 -0.04075,-0.01033 -0.08441,-0.0063 -0.130342,0.01667 -0.02754,0.01204 -0.05627,0.027 -0.0844,0.04479 l -0.05972,-0.111396 c 0.02642,-0.02067 0.06374,-0.04593 0.116558,-0.07809 0.04938,-0.03217 0.101633,-0.06603 0.159625,-0.09933 0.0534,-0.03504 0.109667,-0.06832 0.161921,-0.09818 0.05282,-0.02987 0.09417,-0.0534 0.125171,-0.06718 l 0.742991,-0.327288 c 0.04708,-0.02125 0.09359,-0.04306 0.143546,-0.06775 0.04995,-0.02183 0.106225,-0.04594 0.166513,-0.07637 0.02125,-0.0086 0.03792,-0.0042 0.04938,0.01667 0.01033,0.02008 0.02183,0.04306 0.03617,0.07522 0.01608,0.03217 0.031,0.06775 0.04938,0.106225 0.01667,0.03846 0.03504,0.07637 0.05283,0.116558 0.01779,0.03792 0.03446,0.07407 0.04823,0.107375 0.0155,0.03446 0.027,0.06316 0.04021,0.0867 0.0098,0.02296 0.01492,0.03963 0.01779,0.04364 l -0.09589,0.05742 c -0.06431,-0.09244 -0.120575,-0.15962 -0.166512,-0.206129 -0.04651,-0.04306 -0.09187,-0.0712 -0.139525,-0.08211 -0.04593,-0.0069 -0.101059,-0.0029 -0.1579,0.01721 -0.05799,0.02183 -0.132638,0.04995 -0.222784,0.08957 l -0.358287,0.159625 c -0.02296,0.0097 -0.04133,0.01779 -0.0511,0.02467 -0.01262,0.0075 -0.01837,0.01379 -0.02183,0.02125 -0.0021,0.008 -0.0021,0.02067 0,0.031 0.0033,0.0092 0.0092,0.02525 0.01837,0.04306 l 0.347384,0.868163 c 0.109666,-0.0557 0.209575,-0.106225 0.302016,-0.152158 0.08957,-0.04823 0.169959,-0.08842 0.235988,-0.121725 0.06833,-0.03388 0.121729,-0.06201 0.163646,-0.08211 0.04021,-0.02008 0.06545,-0.03217 0.07464,-0.03617 0.03963,-0.01837 0.06488,-0.0042 0.08326,0.03787 0.01262,0.02812 0.02296,0.05627 0.03042,0.08555 0.0075,0.031 0.01779,0.06029 0.02758,0.09646 l -0.846921,0.339917 z m 2.052125,-0.787775 c 0.05513,-0.01379 0.111396,-0.03217 0.164791,-0.05627 0.05283,-0.02183 0.109096,-0.04881 0.165367,-0.07809 0.1556,-0.08441 0.284792,-0.183742 0.383554,-0.3003 0.09933,-0.115413 0.167659,-0.24288 0.205554,-0.383555 0.03963,-0.138375 0.04938,-0.287091 0.02813,-0.443841 -0.02008,-0.158475 -0.0712,-0.318096 -0.152158,-0.485759 -0.07522,-0.158475 -0.167662,-0.292833 -0.277333,-0.400204 -0.110242,-0.106225 -0.230246,-0.184317 -0.361734,-0.231396 -0.133208,-0.04996 -0.275033,-0.06661 -0.42547,-0.04996 -0.151584,0.01492 -0.308909,0.06546 -0.47083,0.151012 l -0.0999,0.05512 c -0.05857,0.03158 -0.104504,0.06086 -0.130341,0.089 -0.02813,0.02525 -0.02813,0.06144 -0.0075,0.110242 z m -0.237709,0.3336 c -0.03158,0.01779 -0.05857,0.0097 -0.0735,-0.02412 l -0.988742,-2.045813 c -0.03504,-0.07062 -0.07062,-0.109671 -0.110246,-0.117708 -0.04249,-0.0063 -0.08153,0.0029 -0.130913,0.02525 -0.02525,0.01492 -0.0534,0.03217 -0.08211,0.05512 l -0.06718,-0.105646 c 0.135508,-0.106225 0.273888,-0.206133 0.418579,-0.303171 0.14125,-0.09589 0.287092,-0.183162 0.439825,-0.265846 0.127467,-0.06545 0.253788,-0.125746 0.381829,-0.173979 0.128046,-0.04765 0.252067,-0.08325 0.376092,-0.10335 0.124025,-0.02067 0.241729,-0.02471 0.359438,-0.01204 0.115983,0.01433 0.228525,0.04651 0.335895,0.09991 0.106225,0.05397 0.206134,0.132062 0.298,0.233691 0.09474,0.102205 0.180871,0.230821 0.256088,0.390446 0.102204,0.206704 0.154454,0.411688 0.161921,0.609204 0.008,0.202688 -0.02125,0.390446 -0.09474,0.568442 -0.07292,0.179721 -0.178571,0.343363 -0.324412,0.493225 -0.144121,0.152159 -0.318096,0.2802 -0.522509,0.389867 -0.06029,0.03217 -0.111391,0.05627 -0.160196,0.07637 -0.04766,0.02008 -0.09302,0.04021 -0.141825,0.06029 -0.0465,0.01837 -0.09761,0.03733 -0.149858,0.06144 -0.05225,0.02471 -0.113692,0.05397 -0.181442,0.08842 z m 2.948426,-3.105754 0.690741,-0.485759 -0.961754,-0.711986 z m 0.04594,0.204983 0.230246,0.99965 c 0.0042,0.01896 -0.0012,0.03329 -0.01779,0.04708 -0.01837,0.02008 -0.04249,0.03846 -0.07062,0.06029 -0.027,0.02125 -0.05742,0.04307 -0.09302,0.07005 -0.02067,0.01433 -0.03446,0.01433 -0.04364,0.0013 -0.0029,-0.0042 -0.0052,-0.0069 -0.0052,-0.01092 L 60.838081,41.40905 60.728414,41.32637 c -0.01092,-0.01033 -0.01667,-0.01667 -0.01779,-0.02067 -0.0115,-0.01779 -0.008,-0.03963 0.01092,-0.06029 0.01837,-0.01608 0.03904,-0.03787 0.06316,-0.05742 0.02525,-0.02296 0.04708,-0.04192 0.07005,-0.06201 0.02354,-0.02125 0.04536,-0.03904 0.06373,-0.05455 0.02183,-0.01667 0.03617,-0.02754 0.04593,-0.03388 0.02354,-0.01837 0.05225,-0.01608 0.08211,0.0063 l 2.234721,1.636994 c 0.01033,0.008 0.01721,0.01204 0.01837,0.01608 0.01379,0.02296 0.0098,0.04479 -0.01033,0.06603 -0.01896,0.01837 -0.04364,0.03963 -0.0689,0.06316 -0.027,0.02125 -0.04823,0.04364 -0.07465,0.06373 -0.02525,0.02183 -0.04995,0.03963 -0.0712,0.05512 -0.02008,0.01608 -0.03733,0.02813 -0.04593,0.03446 -0.02296,0.0155 -0.04249,0.0155 -0.06259,0 l -0.822229,-0.605763 z m 1.914325,-1.949924 c 0.0844,-0.08211 0.148138,-0.162495 0.200963,-0.243454 0.04938,-0.07751 0.08153,-0.155604 0.09531,-0.234841 0.0155,-0.07694 0.0092,-0.156175 -0.01379,-0.236563 -0.02413,-0.07809 -0.07063,-0.161346 -0.136655,-0.248046 -0.05512,-0.06775 -0.118283,-0.117708 -0.186037,-0.146991 -0.06603,-0.03217 -0.134359,-0.04536 -0.205559,-0.04133 -0.07292,0.0069 -0.142395,0.027 -0.215891,0.06316 -0.07407,0.03792 -0.144692,0.08555 -0.213596,0.145841 -0.04651,0.03904 -0.07637,0.07407 -0.09244,0.09933 -0.01608,0.02813 -0.01033,0.06029 0.01779,0.09589 l 1.4722,1.85059 c 0.02183,0.02525 0.02183,0.0557 -0.0025,0.08383 -0.01608,0.01954 -0.03388,0.04249 -0.05398,0.06546 -0.02237,0.02413 -0.04364,0.04536 -0.06431,0.0666 -0.01721,0.02183 -0.03963,0.03962 -0.05742,0.05627 -0.01896,0.01896 -0.031,0.02871 -0.04075,0.03675 -0.02813,0.027 -0.0534,0.02296 -0.07809,-0.008 L 62.266457,40.6217 c -0.04479,-0.06029 -0.08843,-0.08842 -0.130912,-0.08613 -0.03904,0.0017 -0.08039,0.02183 -0.120008,0.05627 -0.02125,0.01896 -0.04651,0.04364 -0.07062,0.07177 l -0.08613,-0.09072 c 0.09531,-0.118858 0.199241,-0.238862 0.311208,-0.359441 0.110242,-0.12 0.229671,-0.235988 0.353121,-0.347379 0.05627,-0.04938 0.115412,-0.09646 0.180866,-0.144692 0.06201,-0.04709 0.127471,-0.09245 0.195225,-0.129192 0.0689,-0.03733 0.137805,-0.0666 0.208425,-0.08785 0.07005,-0.02183 0.1424,-0.03217 0.20958,-0.031 0.06948,0.0042 0.136654,0.02183 0.200962,0.0534 0.06488,0.03504 0.125171,0.08498 0.183738,0.158475 0.06201,0.07637 0.106225,0.153879 0.129191,0.231971 0.027,0.08038 0.03617,0.158471 0.03446,0.238858 -0.0042,0.07924 -0.01721,0.157325 -0.04421,0.233692 -0.027,0.07981 -0.06144,0.153883 -0.103929,0.2291 l 0.0075,0.01321 c 0.03504,-0.02125 0.07292,-0.03617 0.115412,-0.0534 0.04021,-0.01721 0.08728,-0.027 0.136654,-0.031 0.0511,-0.0042 0.105075,0 0.158475,0.01262 0.05397,0.0115 0.110242,0.03675 0.167663,0.07522 l 0.449583,0.298575 c 0.06316,0.04133 0.112542,0.0712 0.155604,0.09302 0.03904,0.02008 0.07464,0.03158 0.10565,0.03733 0.02813,0.0033 0.05512,-0.0029 0.07924,-0.01492 0.02412,-0.01204 0.05225,-0.03158 0.0821,-0.05914 l 0.08039,0.08727 c -0.01779,0.02296 -0.03846,0.04995 -0.06029,0.07637 -0.02183,0.02525 -0.04307,0.05225 -0.06718,0.07522 -0.02471,0.02413 -0.04536,0.04593 -0.06316,0.06603 l -0.04191,0.04249 c -0.03617,0.03217 -0.07178,0.05398 -0.10795,0.0712 -0.03558,0.01433 -0.07407,0.02183 -0.111963,0.02067 -0.03963,-0.0029 -0.08555,-0.01379 -0.129766,-0.03446 -0.04823,-0.01954 -0.09933,-0.0534 -0.158475,-0.09359 L 64.04987,40.97197 c -0.06775,-0.04593 -0.127467,-0.07809 -0.177421,-0.09474 -0.05513,-0.0155 -0.108521,-0.01779 -0.158475,-0.0063 -0.0534,0.01262 -0.103925,0.03733 -0.1602,0.07407 -0.05684,0.03733 -0.12,0.08728 -0.194646,0.146992 z M 64.063858,38.7355 c -0.06775,0.07005 -0.122875,0.130337 -0.161921,0.180295 -0.04021,0.05225 -0.06718,0.102775 -0.07522,0.156175 -0.0092,0.04995 0,0.110246 0.02242,0.176275 0.02467,0.06546 0.0666,0.149863 0.128041,0.253213 l -0.08555,0.07178 c -0.0046,-0.0042 -0.0155,-0.0155 -0.03329,-0.03558 -0.01779,-0.01954 -0.03846,-0.04651 -0.06259,-0.07465 -0.02525,-0.02987 -0.0534,-0.06086 -0.08153,-0.09589 -0.02988,-0.03329 -0.06029,-0.06775 -0.08613,-0.100479 -0.02812,-0.03504 -0.0534,-0.06431 -0.07751,-0.09532 -0.02183,-0.02929 -0.04133,-0.05225 -0.05282,-0.0712 -0.0155,-0.01667 -0.01433,-0.03446 0.0042,-0.05224 0.09818,-0.09876 0.187758,-0.19178 0.275608,-0.281355 0.08957,-0.08842 0.167663,-0.172829 0.2446,-0.248045 l 0.521358,-0.548917 c 0.07235,-0.0735 0.152734,-0.159625 0.241159,-0.253217 0.08325,-0.09187 0.173404,-0.190625 0.266991,-0.292833 0.01379,-0.01321 0.03042,-0.01321 0.04823,0 0.01779,0.01321 0.04021,0.03217 0.06546,0.05627 0.02813,0.02583 0.05627,0.05398 0.08785,0.08211 0.03042,0.03217 0.06258,0.06029 0.09589,0.09474 0.031,0.03158 0.06086,0.05971 0.08728,0.08555 0.02812,0.02813 0.0511,0.04996 0.0689,0.07178 0.01837,0.01779 0.031,0.03042 0.03733,0.03504 l -0.0735,0.08843 c -0.09532,-0.06316 -0.17455,-0.109671 -0.237712,-0.137804 -0.06144,-0.02583 -0.117134,-0.03558 -0.165938,-0.02813 -0.04708,0.0092 -0.09589,0.03446 -0.142971,0.07752 -0.04651,0.03904 -0.105079,0.09646 -0.173979,0.169383 l -0.200962,0.21015 1.641587,1.730588 c 0.02413,0.027 0.027,0.05512 0.0069,0.08211 -0.01438,0.02412 -0.031,0.04823 -0.04995,0.07235 -0.02067,0.02642 -0.03846,0.05053 -0.05627,0.07235 -0.01837,0.02412 -0.03846,0.04307 -0.0534,0.06374 -0.01837,0.01667 -0.031,0.03158 -0.03904,0.03963 -0.02412,0.027 -0.04938,0.027 -0.07522,-0.0017 l -1.664555,-1.75528 z m 1.042141,-1.429142 c 0.04021,-0.07694 0.07522,-0.148713 0.111392,-0.212446 0.03617,-0.06775 0.06603,-0.124025 0.09819,-0.173979 0.02813,-0.04995 0.05397,-0.08957 0.07464,-0.124021 0.01896,-0.02929 0.03271,-0.04938 0.03904,-0.05972 0.02988,-0.03904 0.06431,-0.04421 0.09933,-0.01204 l 1.953367,1.607137 c 0.027,0.02471 0.03329,0.05225 0.01721,0.0844 -0.01321,0.02412 -0.02642,0.04995 -0.04133,0.07809 -0.01721,0.02583 -0.03217,0.05283 -0.04881,0.07866 -0.0155,0.02412 -0.03158,0.04708 -0.04364,0.06718 -0.01667,0.02183 -0.02525,0.03617 -0.03504,0.04593 -0.02125,0.02813 -0.04708,0.03217 -0.07751,0.008 l -1.7214,-1.41938 c -0.031,-0.02812 -0.06201,-0.04479 -0.08613,-0.05397 -0.02525,-0.0098 -0.05053,-0.01379 -0.06947,-0.0098 -0.02296,4.17e-4 -0.04075,0.01092 -0.06029,0.02412 -0.01608,0.01379 -0.03387,0.03158 -0.04938,0.05398 -0.02067,0.02813 -0.03846,0.05627 -0.05512,0.08441 z m 1.858055,-1.669721 c -0.07694,-0.02987 -0.150434,-0.04594 -0.215892,-0.0488 -0.06947,0 -0.128042,0.0097 -0.187759,0.031 -0.05914,0.02412 -0.113112,0.05742 -0.158475,0.103354 -0.04938,0.04593 -0.09014,0.09933 -0.127466,0.162492 -0.03504,0.06373 -0.06316,0.12747 -0.07866,0.194075 -0.01837,0.06488 -0.02471,0.129191 -0.01837,0.195795 0.0069,0.06086 0.02583,0.124025 0.06086,0.180292 0.03504,0.05742 0.08498,0.10565 0.155604,0.149863 0.05742,0.03904 0.119429,0.05685 0.179721,0.0534 0.06144,-0.0012 0.12345,-0.01954 0.183162,-0.05053 0.06259,-0.031 0.126896,-0.06947 0.188334,-0.120579 0.06316,-0.04995 0.128616,-0.102204 0.194071,-0.160196 0.07694,-0.06029 0.152162,-0.120004 0.232545,-0.179145 0.07809,-0.06029 0.161346,-0.101055 0.24288,-0.135505 0.08728,-0.03446 0.173979,-0.04823 0.2647,-0.04307 0.08957,0.0033 0.184308,0.03904 0.285366,0.100483 0.0867,0.05627 0.155604,0.119429 0.207854,0.186608 0.05282,0.06833 0.0913,0.13953 0.114263,0.217617 0.02412,0.07637 0.03617,0.156179 0.03446,0.240008 -0.0021,0.08211 -0.01321,0.166513 -0.03217,0.249771 -0.01721,0.08268 -0.04536,0.164788 -0.08038,0.248046 -0.03617,0.08038 -0.07522,0.158475 -0.115412,0.234267 -0.05225,0.08785 -0.108521,0.173404 -0.169959,0.256658 -0.05972,0.08153 -0.12632,0.159625 -0.1935,0.234267 -0.01092,0.0086 -0.02237,0.01779 -0.03217,0.01896 -0.01438,0.0025 -0.02583,0 -0.03504,-0.0042 -0.02813,-0.01379 -0.06718,-0.03446 -0.12115,-0.06431 -0.05282,-0.02871 -0.1068,-0.06086 -0.15905,-0.09302 -0.05455,-0.03042 -0.103354,-0.05972 -0.146417,-0.0867 -0.04536,-0.02525 -0.07062,-0.03963 -0.07637,-0.04307 l 0.04536,-0.106225 c 0.08211,0.03792 0.1602,0.05685 0.233696,0.06087 0.07464,0.0029 0.144692,-0.0086 0.206704,-0.03558 0.06603,-0.02754 0.125746,-0.06775 0.179721,-0.121729 0.05225,-0.0534 0.102204,-0.117704 0.144692,-0.191775 0.03675,-0.06603 0.06775,-0.134358 0.08957,-0.205558 0.02183,-0.07292 0.02871,-0.141821 0.02583,-0.212446 -0.0042,-0.07005 -0.02412,-0.131488 -0.05799,-0.195221 -0.03446,-0.06029 -0.08785,-0.115413 -0.159625,-0.15905 -0.05857,-0.03792 -0.117708,-0.05627 -0.176846,-0.04995 -0.06029,0.0029 -0.120579,0.02067 -0.181441,0.05282 -0.06259,0.02929 -0.124025,0.0689 -0.186038,0.118854 -0.06431,0.0511 -0.128616,0.102204 -0.1935,0.154458 -0.07866,0.06029 -0.156175,0.120575 -0.237137,0.177996 -0.07924,0.05627 -0.163642,0.102204 -0.249196,0.134358 -0.0844,0.03217 -0.1734,0.04593 -0.265846,0.03904 -0.09417,-0.0057 -0.190629,-0.04191 -0.292258,-0.106221 -0.124596,-0.07752 -0.213596,-0.169383 -0.266996,-0.270441 -0.05282,-0.105075 -0.08096,-0.214746 -0.08498,-0.329005 -0.0025,-0.115412 0.01667,-0.23082 0.05398,-0.351404 0.03787,-0.117704 0.09014,-0.233691 0.154454,-0.343933 0.04249,-0.07464 0.09245,-0.151008 0.153883,-0.230246 0.05684,-0.07752 0.119429,-0.149287 0.179717,-0.215896 0.01092,-0.01033 0.02183,-0.01492 0.03217,-0.01779 0.01379,-0.0025 0.02583,0 0.03558,0.0042 0.02525,0.01379 0.0666,0.03388 0.113687,0.06201 0.04881,0.027 0.09876,0.05397 0.148713,0.08325 0.04995,0.02813 0.09302,0.05225 0.134358,0.07637 0.04133,0.02354 0.06374,0.03733 0.0712,0.04307 z m 0.08153,-0.985871 c -0.03846,0.09187 -0.0666,0.167662 -0.0867,0.231396 -0.01896,0.06258 -0.02583,0.120004 -0.01492,0.172254 0.0098,0.05282 0.03904,0.10335 0.08555,0.155604 0.04593,0.05053 0.115984,0.111392 0.209575,0.182588 l -0.05397,0.101629 c -0.0063,-0.0021 -0.02125,-0.0075 -0.04594,-0.02008 -0.02183,-0.01204 -0.04995,-0.02583 -0.0844,-0.04422 -0.03329,-0.01721 -0.0689,-0.03504 -0.109667,-0.05569 -0.04021,-0.02067 -0.07809,-0.03963 -0.115412,-0.05972 -0.03846,-0.02238 -0.07292,-0.04021 -0.1045,-0.05799 -0.03217,-0.01779 -0.05799,-0.03158 -0.0735,-0.04479 -0.02008,-0.0086 -0.027,-0.027 -0.01667,-0.0511 0.05684,-0.127466 0.107946,-0.251487 0.156175,-0.370346 0.05225,-0.115408 0.09589,-0.225654 0.135509,-0.326137 l 0.290537,-0.710838 c 0.03787,-0.09818 0.0844,-0.2113 0.131488,-0.330154 0.04593,-0.120575 0.09474,-0.246896 0.144695,-0.376087 0.0075,-0.02008 0.02183,-0.02642 0.04593,-0.02008 0.02008,0.0063 0.04593,0.01379 0.07924,0.02583 0.03446,0.01204 0.07292,0.02642 0.112538,0.04192 0.03787,0.01608 0.08039,0.03158 0.120004,0.04823 0.03963,0.01837 0.07981,0.03217 0.112542,0.04766 0.03329,0.01375 0.06431,0.027 0.08957,0.03558 0.02412,0.01321 0.03846,0.01837 0.04306,0.02008 l -0.03275,0.110242 c -0.112538,-0.02067 -0.202108,-0.03446 -0.268142,-0.03446 -0.06833,0 -0.121725,0.01379 -0.163641,0.04075 -0.04249,0.02525 -0.07866,0.06833 -0.106796,0.125746 -0.02813,0.05627 -0.06087,0.131487 -0.102204,0.228525 l -0.109671,0.269866 2.14055,0.958884 c 0.03217,0.01667 0.04192,0.04249 0.03329,0.07809 -0.0052,0.02642 -0.01204,0.05455 -0.02237,0.0844 -0.0058,0.03217 -0.01492,0.05972 -0.02525,0.08958 -0.0086,0.02813 -0.01779,0.05627 -0.027,0.07809 -0.0075,0.02412 -0.01492,0.04249 -0.01896,0.05455 -0.01438,0.03329 -0.03846,0.04364 -0.07292,0.02812 l -2.168687,-0.972667 z m 1.443496,-3.049485 c -0.0844,-0.008 -0.1579,-0.0029 -0.222209,0.01493 -0.06488,0.01838 -0.12115,0.04651 -0.171679,0.08441 -0.04995,0.04019 -0.0913,0.08842 -0.12345,0.144695 -0.03504,0.05512 -0.06316,0.121726 -0.08096,0.192925 -0.01721,0.07292 -0.02525,0.141248 -0.02525,0.208428 0,0.07062 0.0097,0.13436 0.03329,0.194647 0.02296,0.05742 0.05799,0.110818 0.10622,0.155605 0.04823,0.04364 0.109671,0.07866 0.187759,0.09991 0.0689,0.02067 0.130341,0.0178 0.187758,-0.0023 0.05914,-0.01895 0.115413,-0.05397 0.165367,-0.101056 0.05052,-0.04651 0.09933,-0.105075 0.148712,-0.169958 0.04651,-0.06948 0.09359,-0.137229 0.145267,-0.210724 0.05455,-0.07924 0.113687,-0.160772 0.173979,-0.23886 0.06144,-0.07866 0.127467,-0.146418 0.201538,-0.200964 0.06947,-0.05512 0.149862,-0.09761 0.239433,-0.118283 0.08785,-0.02125 0.187758,-0.01722 0.300296,0.01493 0.09704,0.02699 0.180296,0.06718 0.2492,0.116559 0.06947,0.04996 0.124021,0.110243 0.165937,0.178571 0.04249,0.06603 0.07464,0.140675 0.09646,0.22106 0.02008,0.07924 0.03217,0.163642 0.03558,0.246899 0.0021,0.08613 -0.0012,0.174551 -0.01379,0.261827 -0.01204,0.09072 -0.027,0.175699 -0.05168,0.260679 -0.02642,0.09991 -0.05627,0.198093 -0.09187,0.294556 -0.03846,0.09532 -0.07809,0.191779 -0.126321,0.280775 -0.008,0.01438 -0.01433,0.02412 -0.02583,0.02813 -0.0115,0.0063 -0.02125,0.0075 -0.03446,0.0063 -0.02929,-0.0042 -0.07407,-0.01379 -0.131487,-0.02813 -0.06029,-0.01262 -0.117709,-0.02642 -0.177996,-0.03963 -0.06259,-0.01379 -0.115988,-0.02754 -0.165942,-0.04192 -0.04765,-0.01262 -0.07579,-0.01779 -0.0844,-0.02296 l 0.01896,-0.114262 c 0.08728,0.01321 0.167659,0.01033 0.238859,-0.0075 0.07062,-0.02067 0.134358,-0.04995 0.190629,-0.09589 0.05627,-0.04364 0.102204,-0.09933 0.139525,-0.165938 0.03846,-0.06833 0.06661,-0.143549 0.08843,-0.227954 0.02008,-0.07407 0.03042,-0.148139 0.03158,-0.22393 0.0029,-0.07407 -0.0075,-0.14412 -0.03158,-0.210726 -0.02183,-0.06373 -0.05627,-0.121153 -0.103354,-0.168808 -0.04938,-0.0511 -0.114259,-0.0867 -0.197517,-0.108522 -0.06775,-0.01837 -0.127471,-0.01837 -0.182592,0.0023 -0.05627,0.01952 -0.109666,0.05512 -0.160771,0.103927 -0.05168,0.04593 -0.101629,0.103353 -0.147562,0.167087 -0.04823,0.06948 -0.09589,0.136656 -0.148142,0.206131 -0.05684,0.08039 -0.115983,0.160771 -0.177421,0.23886 -0.06316,0.07924 -0.130341,0.146417 -0.204983,0.20211 -0.07407,0.05398 -0.156179,0.09302 -0.24575,0.113688 -0.089,0.02354 -0.194075,0.01837 -0.310058,-0.01667 -0.136659,-0.03904 -0.2469,-0.09933 -0.324988,-0.184885 -0.08039,-0.08441 -0.136654,-0.180867 -0.169958,-0.289962 -0.03217,-0.110244 -0.04479,-0.227951 -0.03846,-0.354271 0.0063,-0.125745 0.02412,-0.249195 0.05627,-0.373792 0.02125,-0.08211 0.0511,-0.172256 0.08843,-0.2647 0.03558,-0.09359 0.07522,-0.181441 0.117705,-0.259529 0.0046,-0.01436 0.01492,-0.02182 0.02525,-0.02814 0.01262,-0.0063 0.02183,-0.0075 0.03446,-0.0063 0.02929,0.004 0.07464,0.01377 0.125171,0.02699 0.05398,0.01378 0.110241,0.02526 0.166512,0.03503 0.05397,0.01205 0.103354,0.02469 0.149288,0.03618 0.04536,0.01205 0.07062,0.0178 0.08039,0.02067 z M 10.582185,20.064809 c 0.122301,-0.23771 0.210151,-0.457623 0.26355,-0.663754 0.05397,-0.20441 0.06833,-0.396186 0.04479,-0.570164 -0.02813,-0.173402 -0.09417,-0.335896 -0.204409,-0.48748 -0.109669,-0.150436 -0.269866,-0.28824 -0.479443,-0.412838 -0.172255,-0.107372 -0.3445093,-0.165365 -0.5121706,-0.179145 -0.1659387,-0.01436 -0.3272842,0.01148 -0.4800167,0.07579 -0.1538808,0.06603 -0.2980004,0.161919 -0.431785,0.296277 -0.1343587,0.129192 -0.2589567,0.285944 -0.3640321,0.46796 -0.07005,0.11541 -0.1142621,0.21417 -0.1320617,0.283645 -0.013779,0.06948 0.020096,0.132637 0.1096688,0.186036 l 4.5630293,2.77732 c 0.07235,0.04192 0.09072,0.103928 0.06086,0.181443 -0.02067,0.05684 -0.04651,0.114837 -0.07637,0.180866 -0.02813,0.06546 -0.05742,0.128044 -0.08727,0.190055 -0.03043,0.06029 -0.05857,0.113688 -0.0867,0.163642 -0.02986,0.04938 -0.04996,0.08613 -0.06431,0.110243 -0.04134,0.06948 -0.09933,0.08613 -0.173403,0.03962 L 8.1160704,20.018874 c -0.1452679,-0.08957 -0.2629754,-0.117707 -0.3496771,-0.08153 -0.08785,0.03732 -0.1619196,0.106223 -0.2239312,0.20728 -0.0356,0.06258 -0.07005,0.128617 -0.1056496,0.204409 l -0.257808,-0.120578 c 0.1297655,-0.324987 0.2721626,-0.657439 0.4254692,-0.995633 0.1579005,-0.339916 0.3341746,-0.673516 0.5345642,-1.005394 0.085553,-0.144119 0.179145,-0.289962 0.2853688,-0.439823 0.1039271,-0.14814 0.2181892,-0.290537 0.3422125,-0.420302 0.1217271,-0.132062 0.2514921,-0.248047 0.3915925,-0.347955 0.1383784,-0.102778 0.2842205,-0.1757 0.4381017,-0.221635 0.1521584,-0.04651 0.3169488,-0.05857 0.4817396,-0.04077 0.165938,0.01837 0.338193,0.08211 0.517912,0.190628 0.190055,0.115986 0.34049,0.248046 0.451881,0.396187 0.110243,0.14297 0.192352,0.301445 0.241733,0.470829 0.05053,0.170533 0.07407,0.349103 0.07235,0.532266 -0.0023,0.184314 -0.02354,0.372071 -0.05799,0.562125 l 0.02412,0.01608 c 0.05857,-0.06431 0.129766,-0.129765 0.212448,-0.197518 0.08153,-0.06661 0.1757,-0.122301 0.281349,-0.169959 0.103927,-0.04593 0.223932,-0.07809 0.351974,-0.09474 0.129765,-0.0155 0.27446,-0.0057 0.426617,0.03215 l 1.205784,0.28422 c 0.163642,0.04191 0.29513,0.06603 0.401354,0.07981 0.10565,0.01148 0.190055,0.01033 0.258382,-0.0023 0.06718,-0.0155 0.124023,-0.04766 0.169958,-0.09302 0.04364,-0.04708 0.09187,-0.10852 0.137804,-0.188332 l 0.238285,0.125747 c -0.02297,0.06431 -0.04823,0.131487 -0.07866,0.204409 -0.02928,0.07407 -0.06144,0.145268 -0.09359,0.213595 -0.03215,0.06775 -0.06201,0.129765 -0.08842,0.183739 -0.02814,0.05397 -0.04938,0.09531 -0.06546,0.121727 -0.05627,0.09417 -0.11828,0.172254 -0.184886,0.232544 -0.06488,0.06201 -0.142971,0.106223 -0.231396,0.131488 -0.09015,0.02584 -0.194073,0.03445 -0.312355,0.02584 -0.115985,-0.0086 -0.253214,-0.03388 -0.411689,-0.07981 L 12.28234,19.397042 c -0.177996,-0.04823 -0.331877,-0.07005 -0.460494,-0.06201 -0.128042,0.0063 -0.244028,0.04192 -0.348528,0.107947 -0.105649,0.06201 -0.203262,0.15388 -0.299149,0.276181 -0.09589,0.121727 -0.199817,0.275607 -0.317524,0.457623 z m 3.523758,-8.292918 c -0.258956,0.218189 -0.436379,0.457624 -0.530544,0.720024 -0.09532,0.260105 -0.13034,0.527675 -0.09933,0.806153 0.03215,0.275608 0.113687,0.551789 0.249194,0.830269 0.138377,0.276181 0.310633,0.53973 0.513893,0.788925 0.232544,0.278479 0.48863,0.527675 0.77285,0.747587 0.28135,0.220486 0.577628,0.384702 0.880796,0.485759 0.304316,0.105074 0.614949,0.134932 0.927879,0.09531 0.314653,-0.04421 0.616672,-0.186036 0.906635,-0.428341 0.256085,-0.218189 0.43121,-0.459346 0.525377,-0.724044 0.09244,-0.265846 0.121726,-0.538008 0.08842,-0.81821 -0.03387,-0.280775 -0.120577,-0.560976 -0.260104,-0.844048 -0.138378,-0.279628 -0.311781,-0.546049 -0.517913,-0.795244 -0.229673,-0.27733 -0.488055,-0.523654 -0.76596,-0.741843 -0.279626,-0.217615 -0.57246,-0.374368 -0.872183,-0.476572 -0.30202,-0.09589 -0.607484,-0.124598 -0.916969,-0.07924 -0.312355,0.04766 -0.612653,0.19235 -0.902041,0.433507 z m -0.08038,-0.500113 c 0.339916,-0.285368 0.690167,-0.489778 1.051903,-0.615524 0.361734,-0.124023 0.720024,-0.167661 1.081759,-0.12919 0.35829,0.03732 0.712561,0.157899 1.059941,0.358863 0.345658,0.202112 0.670071,0.490927 0.977259,0.857829 0.334748,0.401927 0.570737,0.810745 0.71256,1.218415 0.140101,0.40767 0.18948,0.807876 0.147566,1.201764 -0.04134,0.394465 -0.167088,0.769979 -0.38011,1.13803 -0.211299,0.365754 -0.50528,0.706245 -0.877351,1.019174 -0.340491,0.288814 -0.69189,0.492075 -1.057644,0.61495 -0.365754,0.118855 -0.732657,0.161344 -1.094966,0.118855 -0.361161,-0.04134 -0.71658,-0.165937 -1.064535,-0.37207 -0.346806,-0.205558 -0.676387,-0.495519 -0.981851,-0.865293 -0.332452,-0.401927 -0.566718,-0.803856 -0.70682,-1.212099 -0.137229,-0.40365 -0.185461,-0.803281 -0.139526,-1.191429 0.04421,-0.387574 0.173978,-0.763662 0.389871,-1.125398 0.215893,-0.362883 0.510447,-0.700502 0.881944,-1.016877 z M 24.32812,6.8930616 24.38267,11.991803 c 0.0012,0.04077 -0.02067,0.07235 -0.06029,0.100481 -0.05455,0.02699 -0.116559,0.05914 -0.186036,0.09417 -0.07005,0.03388 -0.1401,0.06603 -0.21417,0.09531 -0.05168,0.02469 -0.09417,0.01436 -0.134358,-0.02584 l -3.505385,-3.7074961 1.29593,4.6313561 c 0.0098,0.04019 -0.0075,0.07407 -0.05627,0.09876 -0.0557,0.02928 -0.124024,0.06488 -0.206133,0.106798 -0.08153,0.04019 -0.166512,0.07809 -0.257234,0.118855 -0.04593,0.01838 -0.07407,0.0098 -0.09015,-0.02641 -0.0098,-0.0201 -0.01377,-0.0379 -0.01377,-0.04766 L 19.753029,7.9633379 19.424596,7.6090666 c -0.01436,-0.016075 -0.02354,-0.032154 -0.02986,-0.046508 -0.02182,-0.052251 -0.0017,-0.093592 0.05627,-0.1303396 0.04593,-0.029283 0.103353,-0.064883 0.167662,-0.099333 0.06431,-0.037896 0.128617,-0.07407 0.190627,-0.1062242 0.06144,-0.0356 0.117135,-0.066031 0.171107,-0.092442 0.05225,-0.025267 0.09072,-0.043064 0.115986,-0.055696 0.03617,-0.015504 0.0666,-0.015504 0.09244,-0.00575 0.02641,0.012054 0.05627,0.032154 0.08555,0.060288 l 3.583474,3.7815652 0.05684,-4.7536561 -0.214171,-0.3737929 c -0.0046,-0.004 -0.01033,-0.014354 -0.02009,-0.037896 -0.02182,-0.053973 -0.0063,-0.099908 0.04708,-0.1383779 0.04594,-0.031579 0.104502,-0.063734 0.164791,-0.099908 0.06373,-0.037896 0.125745,-0.071773 0.186035,-0.1056496 0.05972,-0.033875 0.115985,-0.062012 0.165939,-0.08785 0.05168,-0.024117 0.08957,-0.041915 0.113687,-0.053973 0.08039,-0.033875 0.140102,-0.014354 0.180295,0.053973 l 2.935221,5.1969265 c 0.0098,0.01436 0.01378,0.02182 0.01838,0.03215 0.004,0.0057 0.008,0.01436 0.01148,0.01952 0.02469,0.06029 0.008,0.107947 -0.04823,0.144695 -0.04938,0.03215 -0.107947,0.06775 -0.173404,0.103352 -0.06603,0.03847 -0.130339,0.07464 -0.1935,0.107947 -0.06718,0.03215 -0.126894,0.06029 -0.182016,0.08383 -0.05282,0.02813 -0.09244,0.04651 -0.118855,0.05627 -0.02699,0.01205 -0.0534,0.01665 -0.07522,0.01205 -0.02584,-0.0017 -0.04651,-0.01607 -0.05627,-0.04019 z M 29.519301,7.4770058 31.404915,7.077375 29.921228,4.7634186 Z m -0.07177,0.4639396 -0.334174,2.2737626 c -0.008,0.03732 -0.03215,0.06373 -0.07809,0.08383 -0.05742,0.0178 -0.12632,0.03732 -0.203835,0.05799 -0.0735,0.0201 -0.161919,0.03962 -0.260104,0.06201 -0.05168,0.01205 -0.08211,0 -0.08957,-0.03388 -0.0023,-0.0098 -0.0023,-0.0178 0,-0.02641 L 29.621505,4.2977573 29.453269,4.0255948 c -0.01205,-0.024692 -0.0178,-0.044212 -0.02009,-0.052825 -0.0098,-0.051676 0.01436,-0.089572 0.07349,-0.1113913 0.05455,-0.021821 0.114837,-0.044212 0.184886,-0.067754 0.07005,-0.026412 0.137804,-0.048805 0.203261,-0.066605 0.06603,-0.021821 0.129191,-0.039621 0.184313,-0.055121 0.05627,-0.01665 0.09589,-0.026988 0.124023,-0.032154 0.06603,-0.014354 0.124024,0.013779 0.170533,0.086702 l 3.461172,5.3467878 c 0.0155,0.023542 0.02584,0.041342 0.02756,0.051676 0.0098,0.055696 -0.01608,0.097612 -0.07981,0.1217275 -0.06029,0.023542 -0.12632,0.047657 -0.198092,0.072347 -0.0735,0.021817 -0.14814,0.04536 -0.217615,0.066031 -0.07177,0.021246 -0.137805,0.039617 -0.196371,0.053399 -0.06029,0.014363 -0.10565,0.024117 -0.132063,0.030433 -0.05742,0.012054 -0.09991,-0.00632 -0.129765,-0.051676 L 31.638607,7.4408316 Z M 35.45807,2.7532056 c 0.03847,0 0.06488,0.010908 0.08842,0.032154 0.02182,0.022392 0.04594,0.048231 0.07407,0.082682 l 3.706921,4.6307819 -0.28192,-4.6411173 c -0.0013,-0.044212 0.02412,-0.066031 0.08038,-0.07005 0.06144,-0.014354 0.14125,-0.025838 0.246325,-0.040192 0.101058,-0.013779 0.199817,-0.021246 0.298,-0.025837 0.0534,-0.00229 0.08153,0.023542 0.08326,0.075792 l 0.04191,5.0556778 0.03217,0.9474008 c 0.0025,0.04249 -0.02412,0.063735 -0.07981,0.067754 -0.06029,0.012054 -0.132062,0.0178 -0.207854,0.024692 -0.07809,0.00747 -0.153883,0.010333 -0.233692,0.0132 -0.03042,0 -0.05455,-0.00575 -0.07235,-0.015504 -0.01608,-0.012625 -0.03387,-0.032154 -0.05225,-0.057992 l -3.736205,-4.6669556 0.287092,4.7611223 c 0.0017,0.041914 -0.02182,0.064308 -0.07981,0.07005 -0.06259,0.012625 -0.146991,0.025837 -0.254363,0.033875 -0.10565,0.010908 -0.201538,0.0178 -0.289963,0.021821 -0.0534,0.00229 -0.08153,-0.023542 -0.0844,-0.075218 L 34.974609,3.5737064 34.536508,3.0075622 c -0.01665,-0.014354 -0.02354,-0.032154 -0.02182,-0.055696 -0.004,-0.044786 0.02814,-0.075792 0.08728,-0.097037 0.05455,-0.012633 0.124023,-0.025262 0.208428,-0.035025 0.08842,-0.012058 0.171681,-0.022392 0.25953,-0.032154 0.0867,-0.010908 0.166514,-0.01665 0.238287,-0.023542 0.07177,-0.00574 0.124596,-0.010908 0.149861,-0.010908 z M 47.124311,4.7088711 C 47.110519,4.5170944 47.07034,4.3488586 47.007752,4.2070356 46.944019,4.0634898 46.862486,3.941189 46.758557,3.8395585 46.656352,3.7379285 46.536348,3.6592656 46.40084,3.6018473 46.262465,3.5421323 46.112602,3.5053844 45.948961,3.4898814 c -0.161921,-0.018375 -0.31695,-0.014929 -0.466813,0.00976 -0.151583,0.024117 -0.287087,0.074644 -0.408816,0.1481392 -0.1223,0.073495 -0.222784,0.1745517 -0.303167,0.30202 -0.07924,0.1274688 -0.129192,0.2819238 -0.149288,0.4702555 -0.0155,0.1636421 0.0097,0.3094846 0.07522,0.4375275 0.0666,0.1257458 0.158475,0.2417304 0.285367,0.3410642 0.118858,0.1004821 0.26355,0.1946479 0.425471,0.2830721 0.163641,0.085553 0.334175,0.1711062 0.511595,0.2618271 0.195796,0.099334 0.392742,0.2061316 0.588538,0.3175221 0.194075,0.1119654 0.365179,0.24288 0.513892,0.3921667 0.147566,0.1458429 0.262979,0.3152258 0.343362,0.5138941 0.0844,0.1957963 0.110246,0.4289147 0.08211,0.7016501 -0.02412,0.2365642 -0.08038,0.4438446 -0.163641,0.6178213 -0.08727,0.1762741 -0.19465,0.3261358 -0.326138,0.4495842 -0.130337,0.1228758 -0.2802,0.2222091 -0.446712,0.3002979 -0.165363,0.076366 -0.341063,0.1326371 -0.528821,0.1699579 -0.186608,0.037896 -0.378388,0.06029 -0.578204,0.064308 -0.198092,0.00459 -0.392742,-0.00575 -0.583367,-0.026413 -0.22795,-0.023542 -0.454754,-0.061436 -0.678683,-0.1136871 -0.222784,-0.047657 -0.444421,-0.1119659 -0.66433,-0.1883321 -0.02929,-0.010333 -0.0534,-0.025262 -0.06948,-0.051677 -0.01608,-0.023542 -0.02412,-0.045935 -0.02642,-0.072346 0,-0.07407 0.0052,-0.1797196 0.01262,-0.3175233 0.0075,-0.1401 0.01379,-0.28422 0.02583,-0.4300625 0.0075,-0.1441201 0.01608,-0.275608 0.02525,-0.3915921 0.0092,-0.1165596 0.01379,-0.1866092 0.01667,-0.2078555 l 0.258379,0.00171 c 0.0042,0.2101508 0.03675,0.3938896 0.107375,0.551215 0.06775,0.1607712 0.159621,0.2974271 0.279054,0.4082446 0.117133,0.1119658 0.254937,0.1980921 0.416279,0.2618275 0.160771,0.064308 0.335325,0.1062229 0.5271,0.1268942 0.171109,0.018375 0.339917,0.015504 0.501263,-0.00804 0.166512,-0.022967 0.3158,-0.072921 0.448437,-0.1469908 0.132634,-0.07292 0.242879,-0.1779971 0.3336,-0.3054642 C 46.422643,8.2303174 46.476039,8.0666753 46.49671,7.8708778 46.50992,7.7083853 46.48579,7.5694319 46.42091,7.449429 46.351444,7.3248304 46.259002,7.215162 46.138423,7.1129566 46.014402,7.0107525 45.872577,6.9171604 45.712952,6.8304595 45.549311,6.7443316 45.382798,6.6553333 45.208823,6.5651866 45.013027,6.4606849 44.814932,6.351017 44.620861,6.2350324 44.426211,6.1190478 44.256252,5.9869857 44.106965,5.8354016 43.961123,5.6832432 43.844565,5.5098399 43.762456,5.3071536 43.683219,5.1050411 43.655081,4.8673294 43.683219,4.5871286 43.719386,4.249509 43.814706,3.9750498 43.96859,3.7620281 c 0.152154,-0.2124475 0.346804,-0.3760896 0.571883,-0.4903517 0.228525,-0.1177075 0.480592,-0.1917771 0.756771,-0.2222087 0.277333,-0.029858 0.554663,-0.029858 0.841179,0 0.187759,0.020096 0.388721,0.05627 0.608634,0.1079462 0.217616,0.051676 0.42145,0.1142625 0.610929,0.1797192 0.03042,0.012058 0.0534,0.028133 0.06775,0.05225 0.01779,0.025837 0.027,0.048232 0.02813,0.074644 0,0.071199 -0.0033,0.1734033 -0.01033,0.3037425 -0.0069,0.1274687 -0.01379,0.260105 -0.01896,0.393315 -0.008,0.1326363 -0.01379,0.2543629 -0.02125,0.3600125 -0.0097,0.1062242 -0.01321,0.1682354 -0.01721,0.1906288 z M 49.82584,10.084369 C 49.688036,10.052219 49.569757,10.022929 49.466403,9.996518 49.364198,9.970681 49.255678,9.944842 49.146007,9.918429 49.031748,9.892592 48.906573,9.862734 48.765898,9.832302 48.626373,9.800148 48.450098,9.761104 48.240523,9.7111507 c -0.01667,-0.00459 -0.02583,-0.01895 -0.03217,-0.045361 -0.0042,-0.043064 -0.0042,-0.093018 0,-0.1492871 0.0042,-0.056271 0.0075,-0.094167 0.01146,-0.1136884 0.0042,-0.0178 0.01379,-0.029858 0.03217,-0.041916 L 52.966019,5.1234311 51.165961,4.6732719 c -0.215896,-0.053973 -0.396763,-0.091869 -0.542029,-0.115985 -0.1424,-0.023542 -0.269867,-0.013779 -0.379538,0.028133 -0.107371,0.041915 -0.21015,0.1234492 -0.308333,0.2503434 -0.09646,0.1251721 -0.202688,0.3094846 -0.322117,0.5494929 L 49.371065,5.299129 c 0.0033,-0.013779 0.01204,-0.049954 0.02929,-0.1113912 0.01608,-0.058567 0.03787,-0.1309138 0.06087,-0.2130217 0.02813,-0.081534 0.05512,-0.1751258 0.08441,-0.2733109 0.031,-0.098185 0.06029,-0.1957966 0.0913,-0.2899621 0.03158,-0.094166 0.05742,-0.1797195 0.08555,-0.2618275 0.02525,-0.080385 0.04708,-0.1441196 0.06718,-0.1889062 0.01492,-0.04938 0.04938,-0.067179 0.09933,-0.055121 0.299146,0.082108 0.589108,0.1601967 0.866438,0.2342663 0.280204,0.071773 0.533991,0.1372296 0.768258,0.1963708 l 1.167313,0.2911105 c 0.128041,0.032154 0.242879,0.060289 0.33647,0.081534 0.09589,0.026413 0.19465,0.049954 0.300871,0.07407 0.103354,0.024117 0.223359,0.050528 0.358292,0.082108 0.134933,0.029858 0.302021,0.067753 0.507004,0.1165588 0.02183,0.00574 0.03217,0.015504 0.03787,0.036175 0.0052,0.039046 0.0052,0.085553 0.0042,0.1378038 -0.0029,0.053399 -0.0063,0.088998 -0.01262,0.1062237 0.0063,-0.010908 -0.0012,0.00171 -0.0155,0.033875 l -4.769163,4.2650286 1.939592,0.4834611 c 0.216462,0.05627 0.400204,0.09244 0.543175,0.110243 0.148712,0.0201 0.279054,0.0057 0.390446,-0.04364 0.113687,-0.04823 0.219908,-0.1366559 0.318096,-0.2664204 0.09761,-0.1280438 0.206133,-0.3140784 0.326133,-0.5581063 l 0.244029,0.088424 c -0.0052,0.015504 -0.01608,0.053973 -0.03217,0.1165592 -0.02008,0.060863 -0.04133,0.133785 -0.06833,0.2210608 -0.02812,0.084405 -0.05512,0.1779971 -0.08957,0.2824971 -0.03217,0.1022056 -0.06373,0.2021126 -0.09474,0.3014456 -0.02929,0.09819 -0.06144,0.190055 -0.08957,0.269866 -0.02929,0.08211 -0.05225,0.145843 -0.0712,0.191778 -0.008,0.02067 -0.02125,0.03674 -0.03617,0.04651 -0.01433,0.01205 -0.03446,0.01608 -0.06258,0.008 -0.29915,-0.08268 -0.589688,-0.1579 -0.869888,-0.229673 -0.278479,-0.07637 -0.533987,-0.140674 -0.765383,-0.200389 z m 11.076555,-0.575331 -3.883196,3.262505 c -0.02871,0.02986 -0.06775,0.03445 -0.113688,0.01722 -0.05627,-0.02239 -0.120004,-0.05225 -0.190629,-0.0867 -0.06775,-0.02986 -0.13895,-0.06603 -0.209575,-0.103926 -0.04593,-0.02527 -0.07062,-0.06603 -0.06316,-0.121728 l 0.63275,-5.0815155 -2.7377,3.9411895 c -0.02354,0.03215 -0.06431,0.03675 -0.114263,0.01608 -0.05742,-0.02412 -0.125746,-0.05627 -0.209579,-0.09417 -0.08153,-0.03962 -0.167659,-0.07924 -0.255509,-0.127469 -0.04307,-0.02239 -0.05398,-0.05053 -0.03617,-0.08383 0.01033,-0.02297 0.0195,-0.0379 0.02813,-0.04479 l 3.4405,-4.3930689 0.06431,-0.4817404 c 0.0042,-0.019521 0.0098,-0.036175 0.01608,-0.047657 0.02583,-0.049953 0.07177,-0.062585 0.138379,-0.040767 0.0511,0.018375 0.113687,0.040767 0.181442,0.066606 0.07062,0.028133 0.135508,0.053972 0.202112,0.07981 0.06431,0.027563 0.124025,0.053973 0.17685,0.079812 0.05512,0.025838 0.09302,0.041916 0.117129,0.053973 0.03504,0.0178 0.05398,0.040192 0.06144,0.07005 0.0092,0.028137 0.01262,0.064308 0.0092,0.1039266 L 57.516432,11.68232 61.203828,8.7247063 61.358287,8.3187592 c -0.0025,-0.00171 0.0042,-0.018375 0.01438,-0.037896 0.027,-0.051678 0.07292,-0.069476 0.138379,-0.050528 0.0534,0.01665 0.113687,0.037896 0.181441,0.064882 0.06775,0.026412 0.134359,0.053399 0.195796,0.079812 0.06373,0.024117 0.1223,0.049955 0.173404,0.07407 0.05283,0.021821 0.09072,0.041915 0.113688,0.055695 0.07751,0.039621 0.09876,0.097612 0.0735,0.1722554 l -2.138259,5.5804794 c -0.0063,0.01378 -0.0092,0.02412 -0.01379,0.03215 -0.0025,0.008 -0.0063,0.01608 -0.01033,0.0224 -0.031,0.05799 -0.07809,0.07292 -0.140675,0.05397 -0.05398,-0.01838 -0.117708,-0.04019 -0.189479,-0.07005 -0.06948,-0.02814 -0.137804,-0.05627 -0.204412,-0.08555 -0.06488,-0.02814 -0.125171,-0.05627 -0.181438,-0.08441 -0.05398,-0.02641 -0.09187,-0.04823 -0.116562,-0.06029 -0.02583,-0.01436 -0.04593,-0.03215 -0.05971,-0.05397 -0.01204,-0.01722 -0.01438,-0.04019 -0.0042,-0.06775 z m 2.74115,4.687051 1.411342,1.321769 1.020321,-2.554539 z m -0.419729,0.207856 -2.027438,1.033528 c -0.03846,0.01837 -0.07579,0.01262 -0.113687,-0.01377 -0.04995,-0.04019 -0.106225,-0.08211 -0.166513,-0.13436 -0.06029,-0.05168 -0.126321,-0.111965 -0.198091,-0.177995 -0.04192,-0.03905 -0.04996,-0.07005 -0.02812,-0.09532 0.0092,-0.008 0.01438,-0.01493 0.02125,-0.01608 l 5.568421,-2.553964 0.1246,-0.293982 c 0.01379,-0.02584 0.02237,-0.04019 0.03217,-0.04708 0.031,-0.03904 0.07923,-0.04077 0.132634,-0.0029 0.04823,0.02813 0.09819,0.06603 0.158475,0.110243 0.06144,0.04536 0.120579,0.08957 0.171683,0.130339 0.05856,0.04134 0.105646,0.08326 0.151583,0.121727 0.04478,0.0356 0.07809,0.06373 0.09646,0.08153 0.05225,0.04651 0.05914,0.111966 0.02987,0.190629 l -2.336921,5.933029 c -0.01262,0.02584 -0.02008,0.04364 -0.02813,0.05168 -0.03787,0.04364 -0.08843,0.04536 -0.144696,0.0063 -0.05225,-0.03445 -0.110242,-0.07637 -0.171108,-0.122876 -0.06258,-0.04536 -0.122875,-0.09302 -0.180292,-0.139526 -0.05627,-0.04823 -0.110242,-0.08957 -0.154454,-0.132636 -0.04995,-0.03962 -0.07924,-0.0689 -0.09933,-0.08957 -0.04421,-0.03962 -0.05685,-0.08383 -0.03617,-0.137804 L 64.89762,15.91975 Z m 3.397437,6.020877 c -0.07005,0.04593 -0.121725,0.07981 -0.15962,0.107947 -0.03846,0.02813 -0.06029,0.06029 -0.07178,0.09244 -0.01033,0.03158 -0.0033,0.07407 0.0155,0.121728 0.02008,0.04593 0.0534,0.109668 0.102204,0.190054 l 0.262404,0.441546 c 0.141246,0.233693 0.262975,0.426044 0.362883,0.56557 0.102205,0.144695 0.215892,0.248047 0.339913,0.315226 0.122879,0.06488 0.272737,0.09933 0.444421,0.101056 0.17455,0.004 0.40365,-0.01377 0.691887,-0.05569 l 0.08613,0.252065 c -0.02008,0.01378 -0.08039,0.03618 -0.17685,0.07579 -0.09704,0.03847 -0.209575,0.08153 -0.337045,0.129766 -0.128042,0.04881 -0.260105,0.09474 -0.396759,0.139527 -0.135508,0.04593 -0.255512,0.0844 -0.358862,0.110816 -0.124025,0.02354 -0.216471,-0.01952 -0.280204,-0.125746 -0.130338,-0.224505 -0.292259,-0.502984 -0.485759,-0.832565 -0.194071,-0.334174 -0.432358,-0.731508 -0.707967,-1.195448 l -0.443841,-0.735528 c -0.02183,-0.04421 -0.02813,-0.07809 -0.01204,-0.106223 0.01608,-0.03215 0.03617,-0.05455 0.05914,-0.06948 l 4.30235,-2.616549 c 0.07866,-0.04995 0.142971,-0.09761 0.183163,-0.143546 0.04421,-0.04823 0.07005,-0.09819 0.08039,-0.146417 0.0097,-0.04708 0.0075,-0.09761 -0.0042,-0.149287 -0.01667,-0.04881 -0.03846,-0.102779 -0.07062,-0.154454 -0.03792,-0.06374 -0.08153,-0.128044 -0.128616,-0.186037 l 0.227379,-0.176274 c 0.124021,0.142398 0.238858,0.280201 0.345083,0.409966 0.106221,0.132062 0.198667,0.248047 0.276179,0.354271 0.08039,0.102779 0.1424,0.191778 0.19465,0.260105 0.04938,0.06948 0.07924,0.115984 0.09187,0.137804 0.05742,0.09417 0.03846,0.169958 -0.0534,0.226802 z M 18.842949,0 C 16.859148,1.2959301 14.773717,2.4781718 12.866283,3.8688419 6.0966703,8.8045159 1.5778534,15.815285 1.5778534,24.81617 c 0,7.442555 2.5235326,13.401421 6.4911341,17.947224 2.6992325,3.088529 6.0685365,5.523063 9.7616775,7.315084 C 10.282461,47.258669 0.33417418,40.523508 0,24.57846 0.13608126,12.506271 8.6087192,4.5073332 18.842949,0 Z m 41.689675,0 c 1.981504,1.2959301 4.067509,2.4781718 5.976092,3.8688419 6.770188,4.935674 11.28843,11.9464431 11.28843,20.9473281 0,7.442555 -2.523534,13.401421 -6.491134,17.947224 -2.699233,3.088529 -6.067963,5.523063 -9.76168,7.315084 C 69.092537,47.258669 79.040825,40.523508 79.375,24.57846 79.239492,12.506271 70.766279,4.5073332 60.532624,0 Z M 39.563477,44.041523 c 14.109388,0 25.550551,-7.31049 25.550551,-16.328027 0,-9.01926 -11.441163,-16.332049 -25.550551,-16.332049 -14.111686,0 -25.549403,7.312789 -25.549403,16.332049 0,9.017537 11.437717,16.328027 25.549403,16.328027 z M 54.238432,22.440778 c -0.126317,0.276181 0.535142,0.380682 0.478871,0.08038 -0.0086,-0.175699 -0.338192,-0.03445 -0.478871,-0.08038 z m -6.894209,0.721746 c 0.07522,-0.0057 0.186609,-0.05225 0.207854,-0.05857 0.221634,-0.06086 0.415709,-0.03445 0.661459,-0.08843 0.2291,-0.04881 0.383554,-0.15388 0.615525,-0.175699 0.393312,-0.03847 0.902037,-0.103927 1.080037,-0.158474 0.275034,-0.08211 0.538009,-0.134933 0.802134,-0.160198 0.744712,-0.06833 1.477371,0.144695 2.243329,0.08096 -0.03217,-0.192925 0.365754,0.04306 0.240583,-0.241731 -0.116558,-0.137804 -0.33245,-0.14412 -0.481166,-0.159623 -0.831992,-0.08498 -1.893079,0.02756 -2.483913,0.07981 -0.197521,0.01895 -0.433508,0.118282 -0.632175,0.141249 -0.15675,0.01838 -0.508725,0.004 -0.570162,0.01895 -0.347384,0.08728 -0.590259,0.02813 -0.800984,0.08038 -0.04133,0.01033 -0.08728,0.08211 -0.08039,0.08096 -0.260104,0.05053 -0.375517,0.07407 -0.52595,0.127469 -0.0534,0.01952 -0.07809,0.02641 -0.08958,0.02756 -0.126317,0.16479 -0.269867,0.242878 -0.31465,0.424321 0.04075,-0.01033 0.08325,-0.01665 0.128041,-0.01895 z m 0.186609,-0.405372 c 0.008,-0.0092 0.01492,-0.01665 0.02125,-0.02756 0.0029,0 -0.04708,0.02928 -0.02125,0.02756 z m 6.065667,-0.23599 c 0.01896,0.117135 0.658587,0.187184 0.560975,-0.07981 -0.01896,-0.115984 -0.660884,-0.186034 -0.560975,0.07981 z m 2.082558,0.320395 c 0.08039,-0.266421 -0.110817,-0.262402 -0.320392,-0.240008 -0.02296,0.211872 0.112538,0.26355 0.320392,0.240008 z m 0.481167,-0.160771 h -0.319821 c -0.128042,0.373218 0.413412,0.279053 0.319821,0 z m 2.415012,0.643659 c -0.0029,0.0155 -0.0052,0.02699 -0.0069,0.04134 -0.169959,-0.08268 -0.399629,-0.114837 -0.564421,-0.12345 -0.118283,-0.0052 -0.184313,0.0075 -0.242879,-0.04995 -0.08096,-0.07924 -0.144696,0.02584 -0.219913,-0.06718 -0.01954,-0.0224 -0.0712,-0.10967 -0.09876,-0.122875 -0.01033,-0.0035 -0.113692,0.02297 -0.121729,0.0132 -0.109667,-0.132636 -0.566142,-0.05512 -0.679834,-0.173977 0.111396,0.416282 0.529971,0.39389 0.833142,0.504133 0.330154,0.121152 0.326133,0.204983 0.638492,0.351973 0.04191,0.01952 0.269862,0.111966 0.3514,0.132063 0.169958,0.04191 0.109666,0.04536 0.199812,0.15388 0.01896,0.02469 0.145271,0.09417 0.174554,0.111391 0.05397,0.02641 0.124596,0.159623 0.198667,0.196946 0.112538,0.0557 0.202113,-0.03847 0.308333,0.02182 0.04536,0.02699 0.169959,0.07694 0.219913,0.111393 0.02813,0.01722 0.089,0.0557 0.06488,0.06546 -0.214746,0.08842 0.01837,0.132062 0.06259,0.160771 0.170533,0.112539 0.355416,0.08038 0.443841,0.190055 0.02296,0.02699 0.0086,0.02813 0.03675,0.05168 0.06948,0.05455 0.17398,0.172829 0.240584,0.240008 0.285371,0.285369 0.258383,0.554086 0.625287,0.721173 -0.04075,0.202687 0.139525,0.332452 0.280775,0.41858 0.765959,1.01573 1.216692,2.253666 1.216692,3.732761 0,3.460022 -4.355175,7.21116 -10.029821,7.394897 -0.780888,-0.0025 -1.210375,-0.03275 -1.885042,-0.09187 -2.847946,-0.34623 -8.739634,-1.832217 -12.442534,-7.882378 -0.138954,-0.231394 -0.169958,-0.231394 -0.210729,-0.346231 -0.682126,-1.173055 -1.28387,-2.506308 -1.767331,-4.03191 0.08728,0 0.177422,-0.008 0.267569,-0.01665 0.0063,0.0069 0.0092,0.01148 0.01608,0.01952 0.0012,-0.008 0.0052,-0.01377 0.0063,-0.02125 0.739548,-0.07752 1.550296,-0.436379 2.237592,-0.962331 0.04593,-0.01665 0.09302,-0.03158 0.145267,-0.04479 0.02987,-0.172256 0.280204,-0.246899 0.312929,-0.301447 0.150437,-0.23484 0.349679,-0.221635 0.415708,-0.499538 0.0029,-0.008 0.008,-0.0178 0.01204,-0.02469 0.117133,-0.152732 0.226804,-0.309485 0.319821,-0.471978 0.107945,-0.161346 0.239433,-0.373793 0.251491,-0.413412 0.09704,-0.348528 0.167663,-0.389869 0.126892,-0.73725 -0.01492,-0.127468 0.089,-0.300872 0.058,-0.424895 -0.07292,-0.288813 -0.202113,-0.946253 -0.313504,-1.119657 -0.02471,-0.04019 -0.04593,-0.07062 -0.06603,-0.09876 -0.02354,-0.05225 -0.04823,-0.106224 -0.07579,-0.159622 -0.0063,-0.02584 -0.01092,-0.05627 -0.01375,-0.09589 -0.0052,-0.101057 -0.09302,-0.177422 -0.164792,-0.22508 -0.02758,-0.04594 -0.05857,-0.09244 -0.08957,-0.137804 0.0046,-0.03215 0.0092,-0.06374 0.0042,-0.07694 -0.06029,-0.151009 -0.155604,-0.19235 -0.249771,-0.261252 -0.04708,-0.05857 -0.09589,-0.118282 -0.146992,-0.177424 -0.02471,-0.04421 -0.04708,-0.09015 -0.08383,-0.122874 -0.13895,-0.125173 -0.164217,-0.186036 -0.3313,-0.316949 -0.03217,-0.02469 -0.144121,-0.165939 -0.171683,-0.198093 -0.02008,-0.02699 -0.149863,-0.06201 -0.180867,-0.08441 -0.118283,-0.09244 -0.242879,-0.182591 -0.373792,-0.27044 -0.08441,-0.06316 -0.144696,-0.105649 -0.252641,-0.184313 -0.04766,-0.0356 -0.07005,-0.04479 -0.12173,-0.04995 -0.04938,-0.02986 -0.09876,-0.05914 -0.149861,-0.0867 -0.0023,-0.0075 -0.004,-0.0132 -0.01033,-0.01895 -0.08153,-0.06029 -0.253788,-0.183739 -0.331877,-0.232544 -0.122875,-0.01377 -0.275607,-0.06259 -0.392741,-0.102779 -0.219337,-0.09302 -0.450732,-0.17972 -0.692463,-0.258957 l -0.0012,-5.83e-4 c -0.142397,-0.09589 -0.10852,-0.05742 -0.27733,-0.11828 -0.0333,-0.01205 -0.132061,-0.09015 -0.176273,-0.108522 -0.04364,-0.0201 -0.108522,0.05455 -0.155604,0.04134 -0.0086,-0.0012 -0.0201,-5.83e-4 -0.02871,-0.0023 -0.624711,-0.160197 -1.319471,-0.27446 -2.08256,-0.335898 1.086927,-1.884467 1.670871,-2.34209 1.274111,-2.516067 -0.260105,-0.113688 -1.036399,0.65342 -2.151462,2.470133 -0.137229,-0.004 -0.276183,-0.0075 -0.418005,-0.0075 -7.538444,0 -16.579522,2.864597 -16.579522,8.948061 0,2.317402 2.070503,3.809127 3.932577,3.888365 0.27446,0.05225 0.297427,0.02641 0.425469,-0.004 0.37207,-0.09359 0.757921,-0.05512 1.055348,-0.112538 0.07062,-0.01321 0.102204,-0.07694 0.160196,-0.07924 0.07407,-0.004 0.05914,-0.07407 0.07981,-0.08096 0.257234,-0.07062 0.3158,0.07292 0.409393,-0.02125 0.07924,-0.07924 0.238285,-0.0012 0.313503,-0.09359 0.01952,-0.02297 0.130339,-0.031 0.159048,-0.04479 0.01033,-0.0052 -0.008,-0.07177 0,-0.07924 0.0178,-0.02354 0.133785,0.0086 0.160197,0 0.05455,-0.02067 0.114836,-0.07924 0.160771,-0.08153 0.08498,-0.004 0.04421,-0.06546 0.07981,-0.07866 0.111391,-0.04708 0.271589,-0.02699 0.40078,-0.08038 0.02412,-0.01148 0.02412,-0.05857 0.07981,-0.08096 0.0201,-0.008 0.05857,0.0017 0.08039,0 0.0867,-0.004 0.04306,-0.06316 0.08038,-0.08038 0.06086,-0.02813 0.14412,-0.05512 0.199816,-0.09015 0.04191,-0.02699 0.0712,-0.267569 0.168236,-0.241731 0.08211,-0.428914 -0.233692,-0.266421 -0.177997,-0.668922 -0.337046,-0.05627 -0.757921,-0.05914 -0.911228,0.04019 -0.199242,0.126321 -0.555809,0.184888 -0.641935,0.24001 -0.137231,0.08842 -0.243454,0.07809 -0.372071,0.138377 -0.031,0.01493 -0.07005,0.08441 -0.107946,0.101631 -0.192351,0.08727 -0.251493,0.07407 -0.320968,0.160196 -0.01722,0.02125 -0.131488,-0.01148 -0.160198,0 -0.171681,0.0689 -0.215893,0.128617 -0.320967,0 -0.04134,-0.0511 -0.09876,0.0867 -0.08039,0.08039 h -0.0017 c -0.243453,0.04364 -0.496668,0.07177 -0.762514,0.07177 -1.092096,0 -3.186714,-1.038122 -3.186714,-3.027091 0,-0.408244 0.06373,-0.836009 0.190628,-1.272388 0.089,-0.182591 0.145843,-0.347955 0.180294,-0.508151 0.07809,-0.191203 0.166513,-0.381833 0.269865,-0.57246 0.197519,-0.188907 0.347955,-0.412838 0.466811,-0.693613 0.420877,-0.365755 0.466236,-0.431212 0.59026,-0.732083 0.314078,-0.216467 0.43523,-0.389296 0.516763,-0.520784 0.163069,-0.148139 0.337046,-0.290536 0.519636,-0.431785 0.176849,-0.114263 0.341064,-0.226802 0.486907,-0.355419 0.120004,-0.08211 0.243453,-0.16479 0.370347,-0.244602 0.27159,-0.128043 0.477147,-0.353696 0.740123,-0.366903 0.113688,-0.0052 0.05857,-0.06201 0.111965,-0.124597 v -5.83e-4 c 0.01895,-0.02182 0.131488,0.01091 0.160771,0 0.09531,-0.0356 0.179719,-0.08785 0.240008,-0.160196 0.01895,-0.02297 0.13034,0.01493 0.161346,0 0.0075,-0.004 -0.0086,-0.0712 0,-0.08096 0.01665,-0.02125 0.150435,-0.04192 0.179145,-0.05455 0.165365,-0.06948 0.34451,-0.187184 0.379535,-0.230246 l 5.83e-4,-5.84e-4 c 0.0201,-0.02067 0.160198,-0.0017 0.189481,-0.0132 0.21417,-0.08555 0.253789,-0.142397 0.45992,-0.229673 0.07292,-0.02986 0.140101,-0.05684 0.200964,-0.08326 0.08441,-0.02928 0.169383,-0.05857 0.256086,-0.08728 0.01837,0.02469 0.02928,0.05684 0.01608,0.05799 0.07866,-0.0098 0.167662,-0.08211 0.221634,-0.138951 0.02584,-0.0098 0.0557,-0.01665 0.08268,-0.02584 0.03732,0.0046 0.07924,0.0132 0.09589,0.0052 0.004,-0.0029 0.0029,-0.0178 0.0017,-0.0356 0.04823,-0.01436 0.09704,-0.02871 0.145841,-0.04421 0.0035,-5.83e-4 0.01033,5.83e-4 0.01436,-5.83e-4 v -0.0029 c 0.05914,-0.01895 0.117707,-0.03675 0.177422,-0.05512 0.0224,0.0046 0.04077,0.0069 0.04766,0.0035 0.353122,-0.133784 0.597725,-0.157899 0.94855,-0.256659 0.130339,-0.03675 0.31867,-0.05914 0.461068,-0.109095 0.02067,-0.0075 0.04421,-0.01377 0.06661,-0.02067 0.479442,-0.103354 0.984723,-0.194074 1.508378,-0.272737 0.04134,0.0086 0.05168,0.03847 0.06373,0.0356 0.102779,-0.0224 0.185461,-0.05397 0.255511,-0.08441 1.416509,-0.197519 2.990343,-0.307762 4.738156,-0.307762 0.05512,0 0.107372,0.0052 0.161919,0.0057 -1.027787,1.785134 -2.289266,4.364362 -3.67075,7.84965 -0.315226,0.794668 -0.418005,1.737477 -1.609433,1.737477 -0.482888,0 -0.836584,0.482887 -0.482888,0.869312 0.354845,0.386425 0.548345,0.996781 0.548345,1.577853 0,0.579351 -0.258382,1.415361 0.256659,1.899397 0.515042,0.481165 0.61093,0.610355 1.094392,0.610355 0.482888,0 1.255737,-0.320967 1.255737,-1.029508 0,-0.238287 -0.04479,-0.424321 -0.102779,-0.603466 -0.0035,-0.01436 -0.0086,-0.02813 -0.01262,-0.03962 -0.100483,-0.29915 -0.230247,-0.589112 -0.260679,-1.059941 0.0035,-0.386426 0.07981,-0.76596 0.152159,-1.005968 0.04019,-0.132062 -0.008,-0.167662 0.08038,-0.241731 0.02239,-0.0178 -0.01205,-0.131487 0,-0.159623 0.109095,-0.271014 0.179145,-0.578201 0.240582,-0.882519 0.004,-0.02182 0.07005,-0.0052 0.08038,-0.07924 0.01551,-0.125171 -0.1045,-0.07522 0,-0.159623 0.01666,-0.01608 -0.0029,-0.137804 0,-0.161919 0.0035,-0.02813 0.0052,-0.05168 0.0075,-0.07292 0.01205,-0.04306 0.02239,-0.08441 0.03502,-0.125746 0.0098,-0.01493 0.0201,-0.02699 0.0379,-0.04077 0.01262,-0.01262 0.0057,-0.05972 0.0012,-0.100483 0.01436,-0.0534 0.03043,-0.10852 0.04593,-0.161919 0.04708,-0.09072 0.09704,-0.159049 0.113114,-0.218191 0.0132,-0.05455 0.0012,-0.101629 -0.01033,-0.144693 0.120578,-0.419152 0.249769,-0.854958 0.385276,-1.297653 0.01205,5.83e-4 0.02239,0.0017 0.02584,-5.83e-4 0.01091,-0.0092 0.0069,-0.0511 0.0035,-0.08842 0.04593,-0.15503 0.09474,-0.308911 0.143546,-0.463939 0.0063,-0.004 0.01262,-0.0063 0.0132,-0.0086 0.0086,-0.03158 0.0132,-0.06259 0.01895,-0.09359 0.129765,-0.408818 0.262401,-0.818209 0.396759,-1.219563 0.05972,-0.120004 0.106225,-0.23197 0.14527,-0.289388 0.06316,-0.09704 0.07235,-0.162493 0.08096,-0.320969 0.0035,-0.07809 0.07063,-0.05282 0.07981,-0.07981 0.0379,-0.11943 0.0379,-0.238287 0.04881,-0.339343 0.01895,-0.05397 0.0379,-0.106797 0.05742,-0.161344 0.04134,-0.0178 0.118857,-0.03503 0.134359,-0.06029 0.05857,-0.109668 0.03158,-0.209576 0.07981,-0.320394 0.181443,-0.09129 0.04192,-0.27733 0.07924,-0.400204 0.0029,-0.008 0.07292,0.0046 0.07981,0 0.02354,-0.0201 -0.0132,-0.132062 0,-0.161921 0.0052,-0.0086 0.0712,0.0086 0.08096,0 0.02182,-0.01837 -0.01091,-0.131487 0,-0.160196 0.0029,-0.0075 0.07177,0.0075 0.08096,0 0.02182,-0.01837 -0.01436,-0.130915 0,-0.159623 0.0035,-0.0098 0.07005,0.0086 0.07924,0 0.02239,-0.0178 -0.01148,-0.132636 0,-0.161345 0.103352,-0.265847 0.170533,-0.438101 0.321542,-0.560402 0.02297,-0.0201 -0.01665,-0.130914 0,-0.159623 0.04479,-0.089 0.03158,-0.194073 0.0534,-0.286518 0.0017,-0.0029 0.0017,-0.004 0.0017,-0.0069 0.08613,-0.17857 0.169384,-0.351399 0.252066,-0.517339 0.04881,-0.08326 0.08728,-0.170531 0.129191,-0.249194 0.133785,-0.07062 0.134359,-0.209577 0.167661,-0.337046 0.05397,-0.09991 0.106224,-0.198667 0.157327,-0.293981 2.769282,0.324413 5.212428,1.897674 5.212428,4.267325 0,1.2121 -1.152383,2.623441 -2.954168,2.623441 -1.062237,0 -1.77078,-0.613228 -2.607938,-0.613228 -0.836584,0 -1.673742,0.289962 -1.673742,0.772276 0,0.805003 0.934195,0.903189 1.866093,0.934195 0.93477,0.03215 1.260331,1.285021 1.802934,2.157204 0.304316,0.486906 0.828546,1.387225 1.595079,2.468984 0.101631,0.175126 0.183738,0.266995 0.296279,0.412263 2.345538,3.18614 6.673726,7.604473 13.550135,8.027644 0.380683,0.03042 1.587616,0.04075 1.901116,0.0155 5.58163,-0.250917 11.597918,-3.023646 11.597918,-8.317032 0,-3.031685 -2.041796,-5.254919 -5.051659,-6.488263 z M 31.588654,35.122174 h -0.240008 v 0.24173 h 0.240008 z M 53.860049,14.659455 c -0.0042,-0.02814 -0.01204,-0.0534 -0.02583,-0.07579 -0.0052,-0.01436 -0.0075,-0.02813 -0.0155,-0.04364 -0.01033,-0.0023 -0.01779,0.0012 -0.027,5.84e-4 -0.01667,-0.0098 -0.03388,-0.02125 -0.05685,-0.02813 -0.64997,-0.223357 -1.751829,2.033754 -2.539608,2.033754 -0.824525,0 -1.767333,-0.548918 -3.102308,-0.548918 -2.791676,0 -6.162701,1.237937 -6.162701,4.562454 0,5.679241 8.16258,8.429001 8.16258,13.286584 0,1.030084 -0.232546,1.949925 -0.641363,2.760671 -0.184312,0.314079 -0.245175,0.457625 -0.493221,0.805004 -1.758721,2.433388 -5.301429,3.651226 -8.761454,3.651226 -1.151234,0 -2.402954,-0.291109 -3.570841,-0.80328 -0.0017,0 -0.0029,0.0012 -0.004,0.0021 -0.0075,-0.0052 -0.01493,-0.01033 -0.02412,-0.01262 -0.238861,-0.05972 -0.14125,-0.03675 -0.374368,-0.05685 -0.167661,-0.17455 -0.14125,-0.14125 -0.393315,-0.180867 -0.152733,-0.139525 -0.277905,-0.188333 -0.321543,-0.240583 -0.01262,-0.01667 -0.103353,-0.06258 -0.128617,-0.06545 -0.130339,-0.01667 -0.04766,0.04021 -0.111965,-0.03675 -0.02067,-0.027 -0.139527,-0.05627 -0.168235,-0.07579 -0.05799,-0.04075 -0.05685,-0.04823 -0.130915,-0.09417 -0.139525,-0.0844 0.06086,-0.157325 -0.280774,-0.242879 -0.09187,-0.02296 -0.154455,-0.06546 -0.22508,-0.112537 -0.08039,-0.05225 -0.134358,-0.06718 -0.242305,-0.09532 -0.198667,-0.04823 -0.188907,-0.260104 -0.376089,-0.335321 0.03215,-0.226804 -0.217043,-0.277904 -0.318672,-0.394462 -0.0557,-0.06259 -0.01952,-0.155609 -0.07464,-0.223934 -0.0557,-0.06833 -0.232546,-0.145266 -0.262977,-0.242879 -0.05455,-0.161921 -0.280201,-0.164792 -0.324986,-0.200387 -0.02699,-0.02183 0.02125,-0.132063 0,-0.161346 -0.02986,-0.03963 -0.246899,-0.0063 -0.273887,-0.0511 -0.09359,-0.157325 -0.0689,-0.224505 -0.205556,-0.232546 -0.180294,-0.0092 -0.15503,-0.379534 -0.161346,-0.480588 -0.0035,-0.07981 -0.07177,-0.05282 -0.07866,-0.08096 -0.04306,-0.129192 -0.158474,-0.1734 -0.209577,-0.292834 -0.04421,-0.101629 -0.117707,-0.172254 -0.172254,-0.26412 -0.05857,-0.102209 0.02986,-0.37035 -0.240583,-0.241734 -0.118281,0.01608 -0.07177,0.19465 -0.07981,0.320396 -0.02067,0.376088 0.09072,0.552938 0.136656,0.785479 0.08038,0.412838 0.42834,0.870463 0.637916,1.042142 0.02641,0.02008 -0.02125,0.131488 0,0.159625 0.04306,0.05914 0.154455,0.05742 0.159623,0.160771 0.0052,0.08957 0.05742,0.03904 0.07981,0.08096 0.156177,0.278479 0.28824,0.376667 0.482313,0.560404 0.11541,0.108521 0.175125,0.241155 0.240008,0.320392 0.02182,0.027 0.132062,-0.02296 0.160197,0 0.0557,0.04306 0.09359,0.111392 0.160771,0.159625 0.173403,0.129192 0.262976,0.252063 0.399631,0.319817 0.114836,0.05627 0.204984,0.03446 0.322117,0.08039 0.01723,0.0666 0.125746,0.176846 0.198666,0.180867 0.117708,0.0063 0.24977,0.194075 0.31982,0.240008 0.09704,0.06546 0.163643,0.0712 0.320969,0.08039 0.07637,0.0042 0.05627,0.07292 0.08038,0.07924 0.06833,0.02183 0.175126,-0.03042 0.239434,0 0.03158,0.0155 0.04192,0.143546 0.08096,0.161342 0.121727,0.0534 0.318672,-0.01779 0.459346,0.05627 0.06029,0.03329 0.0557,0.155029 0.159049,0.159625 0.08555,0.0052 0.04651,0.0666 0.08096,0.08211 0.04881,0.01954 0.114263,0.0021 0.173403,-0.0029 1.319472,0.431213 2.869191,0.679834 4.635949,0.679834 3.68798,0 7.894438,-1.505509 9.889151,-4.12493 0.198667,-0.271587 0.229096,-0.343358 0.478292,-0.728637 0.4381,-0.783183 0.689021,-1.646183 0.689021,-2.587267 0,-7.033735 -8.528909,-9.125482 -8.528909,-13.801051 0,-2.137108 1.854037,-3.646634 4.557863,-3.646634 1.143195,0 2.516641,0.774572 2.516641,1.520435 0,0.746438 -0.06833,1.06109 0.08038,1.265499 0.08153,0.11254 0.279629,0.24862 0.521358,0.173977 0.460496,-0.04134 0.408817,-0.509874 0.408817,-0.511597 0.08326,-0.507576 0.267571,-1.01458 0.501262,-1.504357 0.116559,-0.166514 0.24575,-0.387 0.289388,-0.556959 0.01779,-0.02871 0.03271,-0.05799 0.0511,-0.0867 0.171104,-0.09302 0.213596,-0.346233 0.3158,-0.526526 0.01033,-0.01608 0.02008,-0.03215 0.02929,-0.04766 0.03963,-0.0557 0.08555,-0.101056 0.149287,-0.123449 0.05455,-0.0712 0.07464,-0.170533 0.101629,-0.261827 0.05512,-0.08211 0.108521,-0.161921 0.160771,-0.240583 0.01092,-0.0052 -0.02812,0.02125 -0.06373,0.04766 0.0052,-0.0098 0.0033,-0.0098 0.01262,-0.02814 0.09819,-0.146416 0.190629,-0.284219 0.269866,-0.41054 0.196946,-0.206706 0.55868,-0.357142 0.460496,-0.714283 z M 39.267198,28.087289 c -0.8785,0 -1.703027,0.103927 -2.468985,0.290536 -0.337046,0.08441 -0.991614,0.299149 -1.686949,0.594854 -1.226455,0.583942 -2.214049,1.430288 -2.899047,2.45463 -0.0178,0.0017 -0.03445,0.01033 -0.05397,0.0356 -0.06431,0.09474 -0.06201,0.217616 -0.111966,0.318672 -0.0035,0.0086 -0.07579,0.216467 -0.09417,0.244028 -0.05684,0.089 -0.09244,0.230246 -0.149288,0.318671 -0.114262,0.179718 -0.130913,0.505854 -0.21417,0.614375 -0.06259,0.139523 0.0063,0.336469 -0.08038,0.561548 -0.01262,0.03329 -0.135508,0.121155 -0.159623,0.161346 -0.126321,0.202688 -0.08441,0.570163 -0.07981,0.881371 0.0023,0.160771 -0.171107,0.4737 0.159048,0.399629 0.271014,-0.02413 0.214169,-0.3491 0.242305,-0.480587 0.0557,-0.268721 0.0712,-0.567871 0.160197,-0.640792 0.02067,-0.01779 -0.01033,-0.132633 0,-0.159621 0.01895,-0.05397 0.07637,-0.116558 0.07924,-0.161346 0.0063,-0.114833 0.155605,-0.133783 0.160772,-0.240008 0.0046,-0.0913 0.0557,-0.03846 0.08096,-0.08038 0.05914,-0.107375 0.02641,-0.211874 0.07924,-0.321542 0.0035,-0.0075 0.06259,-0.0511 0.07981,-0.07924 0.242304,-0.380684 0.291684,-0.940511 0.653994,-1.148365 0.01262,-0.02412 0.01952,-0.04708 0.02928,-0.07005 0.582222,-0.879646 1.407322,-1.63929 2.413865,-2.196822 0.542602,-0.276755 0.97209,-0.471403 1.601395,-0.659161 0.717154,-0.20728 1.492871,-0.323264 2.311084,-0.323264 1.877004,0 3.780417,1.525028 3.780417,2.661336 0,0.35714 -1.030084,0.454177 -1.030084,1.12023 0,0.22795 0.600596,0.24575 0.908359,0.08039 0.163641,-0.0867 0.6316,-0.492075 0.6316,-0.718303 0,-0.122875 0.125746,-0.271014 0.125746,-0.591983 0,-1.421675 -2.266875,-2.865745 -4.468863,-2.865745"
       id="path7459" />
  </g>
</svg>
