<?xml version="1.0" encoding="UTF-8" standalone="no"?>
<svg
   xmlns:dc="http://purl.org/dc/elements/1.1/"
   xmlns:cc="http://creativecommons.org/ns#"
   xmlns:rdf="http://www.w3.org/1999/02/22-rdf-syntax-ns#"
   xmlns:svg="http://www.w3.org/2000/svg"
   xmlns="http://www.w3.org/2000/svg"
   xmlns:sodipodi="http://sodipodi.sourceforge.net/DTD/sodipodi-0.dtd"
   xmlns:inkscape="http://www.inkscape.org/namespaces/inkscape"
   width="9.087mm"
   height="9.1044mm"
   version="1.1"
   viewBox="0 0 9.087 9.1044"
   id="svg10084"
   sodipodi:docname="facebookpage_icon.svg"
   inkscape:version="1.0.2 (1.0.2+r75+1)">
  <defs
     id="defs10088" />
  <sodipodi:namedview
     pagecolor="#ffffff"
     bordercolor="#666666"
     borderopacity="1"
     objecttolerance="10"
     gridtolerance="10"
     guidetolerance="10"
     inkscape:pageopacity="0"
     inkscape:pageshadow="2"
     inkscape:window-width="1920"
     inkscape:window-height="1031"
     id="namedview10086"
     showgrid="false"
     inkscape:zoom="10.403853"
     inkscape:cx="-3.3339741"
     inkscape:cy="20.885369"
     inkscape:window-x="0"
     inkscape:window-y="0"
     inkscape:window-maximized="1"
     inkscape:current-layer="svg10084" />
  <metadata
     id="metadata10072">
    <rdf:RDF>
      <cc:Work
         rdf:about="">
        <dc:format>image/svg+xml</dc:format>
        <dc:type
           rdf:resource="http://purl.org/dc/dcmitype/StillImage" />
        <dc:title></dc:title>
      </cc:Work>
    </rdf:RDF>
  </metadata>
  <rect
     x="-0.0010007477"
     y="0.0060146484"
     width="9.0869999"
     height="9.0869999"
     ry="2.6877999"
     fill="#015bbb"
     id="rect10074"
     style="fill:#a5e2dd;fill-opacity:1;stroke:none;stroke-opacity:1;stroke-width:0.02645833;stroke-miterlimit:4;stroke-dasharray:none" />
  <g
     id="g11278"
     transform="translate(7.4220166,-7.1774937)">
    <g
       id="g2471"
       transform="matrix(0.0401959,0,0,0.0401959,-6.1906787,5.897089)">
      <path
         inkscape:connector-curvature="0"
         id="path4626"
         style="fill:#231f20;fill-opacity:1;fill-rule:nonzero;stroke:none;stroke-width:0.352778"
         d="m 25.83071,100.05394 h 1.76918 3.45123 c 1.38747,0 2.51248,1.12501 2.51248,2.51284 v 3.54047 79.31891 3.54118 c 0,1.38748 -1.12501,2.51249 -2.51248,2.51249 h -3.45123 -1.76918 z" />
      <path
         d="M 12.95916,145.40867 H 8.6408 v -7.9375 h 4.31836 z m -0.64947,30.16708 H 9.04156 v -6.73205 h 3.26813 z M 8.36246,135.01266 H 4.04411 v -7.9375 H 8.36246 Z M 3.80704,106.65215 h 4.21887 v 7.79568 H 3.80704 Z M 1.13157,150.2001 h -4.31835 v -7.9375 h 4.31835 z m -1.64463996,30.22635 H -3.78121 v -5.82048 h 3.26814004 z M -6.33461,156.93215 h 4.31835 v 7.9375 h -4.31835 z m -0.0303,-29.85699 h 3.17817 v 5.98311 h -3.17817 z m -0.35278,-3.4163 h -4.31835 v -8.22537 h 4.31835 z m -4.4383,15.51658 h -4.31835 v -8.13153 h 4.31835 z m -1.23825,19.87338 h -4.31835 v -7.9375 h 4.31835 z m -5.81131,-58.99502 h -3.45122 c -1.38783,0 -2.51284,1.125 -2.51284,2.51283 v 3.54083 79.31891 3.54083 c 0,1.38783 1.12501,2.51248 2.51284,2.51248 h 3.45122 39.43985 l 0.005,-91.42588 z"
         style="fill:#231f20;fill-opacity:1;fill-rule:nonzero;stroke:none;stroke-width:0.352778"
         id="path4628"
         inkscape:connector-curvature="0" />
    </g>
    <g
       transform="matrix(0.03476591,0,0,0.03476591,-0.26075685,1.724183)"
       id="g5168">
      <g
         id="g4630"
         transform="matrix(0.35277777,0,0,-0.35277777,-109.13446,306.99392)">
        <path
           d="m 0,0 h 10.503 v -23.935 c 0,-6.156 -1.821,-10.825 -5.463,-14.003 -3.642,-3.18 -8.843,-4.769 -15.604,-4.769 -6.681,0 -11.867,1.609 -15.559,4.829 -3.692,3.219 -5.538,7.847 -5.538,13.884 V 0 h 10.534 v -24.236 c 0,-2.938 0.96,-5.292 2.882,-7.063 1.921,-1.77 4.441,-2.655 7.56,-2.655 3.24,0 5.83,0.905 7.772,2.716 1.942,1.81 2.913,4.386 2.913,7.726 z"
           style="fill:#231f20;fill-opacity:1;fill-rule:nonzero;stroke:none"
           id="path4632"
           inkscape:connector-curvature="0" />
      </g>
      <g
         id="g4634"
         transform="matrix(0.35277777,0,0,-0.35277777,-109.13446,306.99392)">
        <path
           d="m 0,0 h 10.503 v -23.935 c 0,-6.156 -1.821,-10.825 -5.463,-14.003 -3.642,-3.18 -8.843,-4.769 -15.604,-4.769 -6.681,0 -11.867,1.609 -15.559,4.829 -3.692,3.219 -5.538,7.847 -5.538,13.884 V 0 h 10.534 v -24.236 c 0,-2.938 0.96,-5.292 2.882,-7.063 1.921,-1.77 4.441,-2.655 7.56,-2.655 3.24,0 5.83,0.905 7.772,2.716 1.942,1.81 2.913,4.386 2.913,7.726 z"
           style="fill:none;stroke:#231f20;stroke-width:1;stroke-linecap:butt;stroke-linejoin:miter;stroke-miterlimit:4;stroke-dasharray:none;stroke-opacity:1"
           id="path4636"
           inkscape:connector-curvature="0" />
      </g>
      <g
         id="g4638"
         transform="matrix(0.35277777,0,0,-0.35277777,-99.317502,311.81706)">
        <path
           d="m 0,0 v -8.149 h 0.121 c 2.595,5.835 5.623,8.753 9.085,8.753 1.649,0 3.631,-0.867 5.945,-2.596 l -2.475,-7.939 c -2.214,1.409 -3.984,2.114 -5.312,2.114 -2.072,0 -3.818,-1.286 -5.236,-3.855 C 0.709,-14.24 0,-15.737 0,-16.16 V -28.492 H -8.964 V 0 Z"
           style="fill:#231f20;fill-opacity:1;fill-rule:nonzero;stroke:none"
           id="path4640"
           inkscape:connector-curvature="0" />
      </g>
      <g
         id="g4642"
         transform="matrix(0.35277777,0,0,-0.35277777,-99.317502,311.81706)">
        <path
           d="m 0,0 v -8.149 h 0.121 c 2.595,5.835 5.623,8.753 9.085,8.753 1.649,0 3.631,-0.867 5.945,-2.596 l -2.475,-7.939 c -2.214,1.409 -3.984,2.114 -5.312,2.114 -2.072,0 -3.818,-1.286 -5.236,-3.855 C 0.709,-14.24 0,-15.737 0,-16.16 V -28.492 H -8.964 V 0 Z"
           style="fill:none;stroke:#231f20;stroke-width:1;stroke-linecap:butt;stroke-linejoin:miter;stroke-miterlimit:4;stroke-dasharray:none;stroke-opacity:1"
           id="path4644"
           inkscape:connector-curvature="0" />
      </g>
      <g
         id="g4646"
         transform="matrix(0.35277777,0,0,-0.35277777,-89.6709,314.42603)">
        <path
           d="m 0,0 v -13.219 c 1.811,-1.61 3.581,-2.415 5.312,-2.415 2.132,0 3.808,0.8 5.025,2.4 1.218,1.599 1.826,3.807 1.826,6.625 0,2.736 -0.639,4.854 -1.916,6.353 C 8.969,1.242 7.284,1.992 5.191,1.992 3.562,1.992 1.831,1.328 0,0 M 0,21.067 V 5.825 c 2.354,1.449 4.799,2.174 7.334,2.174 4.105,0 7.45,-1.37 10.036,-4.109 2.585,-2.74 3.878,-6.285 3.878,-10.635 0,-4.371 -1.243,-7.946 -3.727,-10.726 -2.486,-2.779 -5.67,-4.169 -9.553,-4.169 -2.817,0 -5.473,0.906 -7.968,2.716 v -2.173 h -8.964 v 42.164 z"
           style="fill:#231f20;fill-opacity:1;fill-rule:nonzero;stroke:none"
           id="path4648"
           inkscape:connector-curvature="0" />
      </g>
      <g
         id="g4650"
         transform="matrix(0.35277777,0,0,-0.35277777,-89.6709,314.42603)">
        <path
           d="m 0,0 v -13.219 c 1.811,-1.61 3.581,-2.415 5.312,-2.415 2.132,0 3.808,0.8 5.025,2.4 1.218,1.599 1.826,3.807 1.826,6.625 0,2.736 -0.639,4.854 -1.916,6.353 C 8.969,1.242 7.284,1.992 5.191,1.992 3.562,1.992 1.831,1.328 0,0 Z M 0,21.067 V 5.825 c 2.354,1.449 4.799,2.174 7.334,2.174 4.105,0 7.45,-1.37 10.036,-4.109 2.585,-2.74 3.878,-6.285 3.878,-10.635 0,-4.371 -1.243,-7.946 -3.727,-10.726 -2.486,-2.779 -5.67,-4.169 -9.553,-4.169 -2.817,0 -5.473,0.906 -7.968,2.716 v -2.173 h -8.964 v 42.164 z"
           style="fill:none;stroke:#231f20;stroke-width:1;stroke-linecap:butt;stroke-linejoin:miter;stroke-miterlimit:4;stroke-dasharray:none;stroke-opacity:1"
           id="path4652"
           inkscape:connector-curvature="0" />
      </g>
      <g
         id="g4654"
         transform="matrix(0.35277777,0,0,-0.35277777,-74.68991,319.42761)">
        <path
           d="M 0,0 V 6.904 C -2.999,5.854 -5.056,4.91 -6.172,4.073 -7.289,3.235 -7.847,2.17 -7.847,0.878 c 0,-0.828 0.281,-1.539 0.845,-2.135 0.563,-0.596 1.247,-0.893 2.052,-0.893 1.69,0 3.34,0.716 4.95,2.15 m 13.823,0.113 v -4.979 c -2.978,-1.732 -5.775,-2.596 -8.39,-2.596 -2.817,0 -4.487,1.066 -5.011,3.199 -3.118,-2.133 -6.247,-3.199 -9.386,-3.199 -2.214,0 -4.095,0.7 -5.644,2.101 -1.55,1.4 -2.324,3.028 -2.324,4.882 0,2.479 0.8,4.479 2.399,6 1.6,1.522 6.444,3.482 14.533,5.88 0.201,3.179 -1.449,4.769 -4.95,4.769 -3.803,0 -7.304,-1.59 -10.503,-4.769 v 7.304 c 3.743,2.315 7.857,3.472 12.344,3.472 8.048,0 12.073,-2.892 12.073,-8.674 V 0.508 c 0,-1.329 0.493,-1.994 1.479,-1.994 0.744,0 1.871,0.533 3.38,1.599"
           style="fill:#231f20;fill-opacity:1;fill-rule:nonzero;stroke:none"
           id="path4656"
           inkscape:connector-curvature="0" />
      </g>
      <g
         id="g4658"
         transform="matrix(0.35277777,0,0,-0.35277777,-74.68991,319.42761)">
        <path
           d="M 0,0 V 6.904 C -2.999,5.854 -5.056,4.91 -6.172,4.073 -7.289,3.235 -7.847,2.17 -7.847,0.878 c 0,-0.828 0.281,-1.539 0.845,-2.135 0.563,-0.596 1.247,-0.893 2.052,-0.893 1.69,0 3.34,0.716 4.95,2.15 z m 13.823,0.113 v -4.979 c -2.978,-1.732 -5.775,-2.596 -8.39,-2.596 -2.817,0 -4.487,1.066 -5.011,3.199 -3.118,-2.133 -6.247,-3.199 -9.386,-3.199 -2.214,0 -4.095,0.7 -5.644,2.101 -1.55,1.4 -2.324,3.028 -2.324,4.882 0,2.479 0.8,4.479 2.399,6 1.6,1.522 6.444,3.482 14.533,5.88 0.201,3.179 -1.449,4.769 -4.95,4.769 -3.803,0 -7.304,-1.59 -10.503,-4.769 v 7.304 c 3.743,2.315 7.857,3.472 12.344,3.472 8.048,0 12.073,-2.892 12.073,-8.674 V 0.508 c 0,-1.329 0.493,-1.994 1.479,-1.994 0.744,0 1.871,0.533 3.38,1.599 z"
           style="fill:none;stroke:#231f20;stroke-width:1;stroke-linecap:butt;stroke-linejoin:miter;stroke-miterlimit:4;stroke-dasharray:none;stroke-opacity:1"
           id="path4660"
           inkscape:connector-curvature="0" />
      </g>
      <g
         id="g4662"
         transform="matrix(0.35277777,0,0,-0.35277777,-65.341299,311.81706)">
        <path
           d="m 0,0 v -4.045 c 2.636,3.099 5.724,4.649 9.266,4.649 2.958,0 5.427,-0.948 7.409,-2.84 1.982,-1.894 2.973,-4.604 2.973,-8.128 v -18.128 h -8.964 v 17.377 c 0,3.807 -1.479,5.712 -4.437,5.712 -2.112,0 -4.195,-1.57 -6.247,-4.708 V -28.492 H -8.964 V 0 Z"
           style="fill:#231f20;fill-opacity:1;fill-rule:nonzero;stroke:none"
           id="path4664"
           inkscape:connector-curvature="0" />
      </g>
      <g
         id="g4666"
         transform="matrix(0.35277777,0,0,-0.35277777,-65.341299,311.81706)">
        <path
           d="m 0,0 v -4.045 c 2.636,3.099 5.724,4.649 9.266,4.649 2.958,0 5.427,-0.948 7.409,-2.84 1.982,-1.894 2.973,-4.604 2.973,-8.128 v -18.128 h -8.964 v 17.377 c 0,3.807 -1.479,5.712 -4.437,5.712 -2.112,0 -4.195,-1.57 -6.247,-4.708 V -28.492 H -8.964 V 0 Z"
           style="fill:none;stroke:#231f20;stroke-width:1;stroke-linecap:butt;stroke-linejoin:miter;stroke-miterlimit:4;stroke-dasharray:none;stroke-opacity:1"
           id="path4668"
           inkscape:connector-curvature="0" />
      </g>
      <g
         id="g4670"
         transform="matrix(0.35277777,0,0,-0.35277777,-39.28672,307.95235)">
        <path
           d="m 0,0 v -8.239 c -5.595,2.514 -10.051,3.772 -13.371,3.772 -1.892,0 -3.396,-0.316 -4.512,-0.95 -1.117,-0.634 -1.676,-1.475 -1.676,-2.521 0,-0.804 0.403,-1.569 1.208,-2.293 0.804,-0.724 2.766,-1.661 5.885,-2.807 3.119,-1.147 5.614,-2.214 7.486,-3.199 1.871,-0.987 3.486,-2.375 4.843,-4.165 1.359,-1.791 2.038,-4.055 2.038,-6.791 0,-3.905 -1.484,-7.013 -4.452,-9.327 -2.969,-2.314 -6.877,-3.47 -11.725,-3.47 -5.233,0 -10.303,1.357 -15.212,4.074 v 9.085 c 2.817,-1.892 5.312,-3.271 7.485,-4.135 2.173,-0.865 4.477,-1.298 6.911,-1.298 4.125,0 6.188,1.297 6.188,3.891 0,0.885 -0.413,1.72 -1.239,2.504 -0.825,0.784 -2.812,1.739 -5.961,2.865 -3.15,1.126 -5.645,2.172 -7.486,3.139 -1.84,0.966 -3.43,2.344 -4.766,4.136 -1.338,1.791 -2.007,4.085 -2.007,6.883 0,3.622 1.458,6.546 4.376,8.77 2.918,2.224 6.821,3.336 11.711,3.336 C -9.77,3.26 -5.011,2.174 0,0"
           style="fill:#231f20;fill-opacity:1;fill-rule:nonzero;stroke:none"
           id="path4672"
           inkscape:connector-curvature="0" />
      </g>
      <g
         id="g4674"
         transform="matrix(0.35277777,0,0,-0.35277777,-39.28672,307.95235)">
        <path
           d="m 0,0 v -8.239 c -5.595,2.514 -10.051,3.772 -13.371,3.772 -1.892,0 -3.396,-0.316 -4.512,-0.95 -1.117,-0.634 -1.676,-1.475 -1.676,-2.521 0,-0.804 0.403,-1.569 1.208,-2.293 0.804,-0.724 2.766,-1.661 5.885,-2.807 3.119,-1.147 5.614,-2.214 7.486,-3.199 1.871,-0.987 3.486,-2.375 4.843,-4.165 1.359,-1.791 2.038,-4.055 2.038,-6.791 0,-3.905 -1.484,-7.013 -4.452,-9.327 -2.969,-2.314 -6.877,-3.47 -11.725,-3.47 -5.233,0 -10.303,1.357 -15.212,4.074 v 9.085 c 2.817,-1.892 5.312,-3.271 7.485,-4.135 2.173,-0.865 4.477,-1.298 6.911,-1.298 4.125,0 6.188,1.297 6.188,3.891 0,0.885 -0.413,1.72 -1.239,2.504 -0.825,0.784 -2.812,1.739 -5.961,2.865 -3.15,1.126 -5.645,2.172 -7.486,3.139 -1.84,0.966 -3.43,2.344 -4.766,4.136 -1.338,1.791 -2.007,4.085 -2.007,6.883 0,3.622 1.458,6.546 4.376,8.77 2.918,2.224 6.821,3.336 11.711,3.336 C -9.77,3.26 -5.011,2.174 0,0 Z"
           style="fill:none;stroke:#231f20;stroke-width:1;stroke-linecap:butt;stroke-linejoin:miter;stroke-miterlimit:4;stroke-dasharray:none;stroke-opacity:1"
           id="path4676"
           inkscape:connector-curvature="0" />
      </g>
      <g
         id="g4678"
         transform="matrix(0.35277777,0,0,-0.35277777,-33.334971,306.99392)">
        <path
           d="m 0,0 v -27.768 h 0.121 l 11.062,14.096 H 21.701 L 10.563,-27.768 22.184,-42.164 H 11.217 L 0.121,-28.13 H 0 V -42.164 H -8.964 V 0 Z"
           style="fill:#231f20;fill-opacity:1;fill-rule:nonzero;stroke:none"
           id="path4680"
           inkscape:connector-curvature="0" />
      </g>
      <g
         id="g4682"
         transform="matrix(0.35277777,0,0,-0.35277777,-33.334971,306.99392)">
        <path
           d="m 0,0 v -27.768 h 0.121 l 11.062,14.096 H 21.701 L 10.563,-27.768 22.184,-42.164 H 11.217 L 0.121,-28.13 H 0 V -42.164 H -8.964 V 0 Z"
           style="fill:none;stroke:#231f20;stroke-width:1;stroke-linecap:butt;stroke-linejoin:miter;stroke-miterlimit:4;stroke-dasharray:none;stroke-opacity:1"
           id="path4684"
           inkscape:connector-curvature="0" />
      </g>
      <g
         id="g4686"
         transform="matrix(0.35277777,0,0,-0.35277777,-22.346508,315.6821)">
        <path
           d="M 0,0 H 12.374 C 11.892,4.145 9.828,6.217 6.187,6.217 2.505,6.217 0.442,4.145 0,0 m 19.769,-8.692 v -5.645 c -3.421,-2.495 -7.657,-3.742 -12.706,-3.742 -5.011,0 -9.015,1.344 -12.013,4.033 -2.998,2.689 -4.497,6.249 -4.497,10.68 0,4.35 1.408,7.926 4.225,10.725 2.817,2.8 6.409,4.201 10.775,4.201 4.386,0 7.983,-1.475 10.79,-4.422 2.807,-2.949 4.12,-6.897 3.939,-11.847 H -0.182 C 0,-7.294 0.915,-9.284 2.565,-10.678 c 1.65,-1.393 3.864,-2.09 6.64,-2.09 3.36,0 6.882,1.359 10.564,4.076"
           style="fill:#231f20;fill-opacity:1;fill-rule:nonzero;stroke:none"
           id="path4688"
           inkscape:connector-curvature="0" />
      </g>
      <g
         id="g4690"
         transform="matrix(0.35277777,0,0,-0.35277777,-22.346508,315.6821)">
        <path
           d="M 0,0 H 12.374 C 11.892,4.145 9.828,6.217 6.187,6.217 2.505,6.217 0.442,4.145 0,0 Z m 19.769,-8.692 v -5.645 c -3.421,-2.495 -7.657,-3.742 -12.706,-3.742 -5.011,0 -9.015,1.344 -12.013,4.033 -2.998,2.689 -4.497,6.249 -4.497,10.68 0,4.35 1.408,7.926 4.225,10.725 2.817,2.8 6.409,4.201 10.775,4.201 4.386,0 7.983,-1.475 10.79,-4.422 2.807,-2.949 4.12,-6.897 3.939,-11.847 H -0.182 C 0,-7.294 0.915,-9.284 2.565,-10.678 c 1.65,-1.393 3.864,-2.09 6.64,-2.09 3.36,0 6.882,1.359 10.564,4.076 z"
           style="fill:none;stroke:#231f20;stroke-width:1;stroke-linecap:butt;stroke-linejoin:miter;stroke-miterlimit:4;stroke-dasharray:none;stroke-opacity:1"
           id="path4692"
           inkscape:connector-curvature="0" />
      </g>
      <g
         id="g4694"
         transform="matrix(0.35277777,0,0,-0.35277777,-5.9281956,311.81706)">
        <path
           d="m 0,0 v -6.127 h -10.383 v -11.741 c 0,-1.408 0.388,-2.521 1.162,-3.335 0.775,-0.816 1.846,-1.223 3.215,-1.223 1.851,0 3.853,0.554 6.006,1.66 v -6.489 c -2.857,-1.187 -5.624,-1.78 -8.3,-1.78 -3.501,0 -6.218,0.905 -8.149,2.716 -1.932,1.811 -2.898,4.466 -2.898,7.968 v 12.224 h -4.074 v 1.75 l 11.922,13.341 h 1.116 V 0 Z"
           style="fill:#231f20;fill-opacity:1;fill-rule:nonzero;stroke:none"
           id="path4696"
           inkscape:connector-curvature="0" />
      </g>
      <g
         id="g4698"
         transform="matrix(0.35277777,0,0,-0.35277777,-5.9281956,311.81706)">
        <path
           d="m 0,0 v -6.127 h -10.383 v -11.741 c 0,-1.408 0.388,-2.521 1.162,-3.335 0.775,-0.816 1.846,-1.223 3.215,-1.223 1.851,0 3.853,0.554 6.006,1.66 v -6.489 c -2.857,-1.187 -5.624,-1.78 -8.3,-1.78 -3.501,0 -6.218,0.905 -8.149,2.716 -1.932,1.811 -2.898,4.466 -2.898,7.968 v 12.224 h -4.074 v 1.75 l 11.922,13.341 h 1.116 V 0 Z"
           style="fill:none;stroke:#231f20;stroke-width:1;stroke-linecap:butt;stroke-linejoin:miter;stroke-miterlimit:4;stroke-dasharray:none;stroke-opacity:1"
           id="path4700"
           inkscape:connector-curvature="0" />
      </g>
      <g
         id="g4702"
         transform="matrix(0.35277777,0,0,-0.35277777,4.4849575,319.12133)">
        <path
           d="m 0,0 v -6.429 c -3.501,-1.267 -6.711,-1.901 -9.628,-1.901 -5.01,0 -9.015,1.344 -12.013,4.033 -2.998,2.689 -4.497,6.249 -4.497,10.68 0,4.331 1.514,7.901 4.543,10.711 3.028,2.809 6.886,4.215 11.574,4.215 3.019,0 6.218,-0.624 9.598,-1.872 v -6.67 c -2.474,1.267 -4.909,1.901 -7.304,1.901 -2.675,0 -4.819,-0.746 -6.428,-2.237 -1.611,-1.493 -2.414,-3.488 -2.414,-5.988 0,-2.519 0.784,-4.549 2.353,-6.091 1.57,-1.543 3.632,-2.314 6.188,-2.314 1.891,0 4.567,0.653 8.028,1.962"
           style="fill:#231f20;fill-opacity:1;fill-rule:nonzero;stroke:none"
           id="path4704"
           inkscape:connector-curvature="0" />
      </g>
      <g
         id="g4706"
         transform="matrix(0.35277777,0,0,-0.35277777,4.4849575,319.12133)">
        <path
           d="m 0,0 v -6.429 c -3.501,-1.267 -6.711,-1.901 -9.628,-1.901 -5.01,0 -9.015,1.344 -12.013,4.033 -2.998,2.689 -4.497,6.249 -4.497,10.68 0,4.331 1.514,7.901 4.543,10.711 3.028,2.809 6.886,4.215 11.574,4.215 3.019,0 6.218,-0.624 9.598,-1.872 v -6.67 c -2.474,1.267 -4.909,1.901 -7.304,1.901 -2.675,0 -4.819,-0.746 -6.428,-2.237 -1.611,-1.493 -2.414,-3.488 -2.414,-5.988 0,-2.519 0.784,-4.549 2.353,-6.091 1.57,-1.543 3.632,-2.314 6.188,-2.314 1.891,0 4.567,0.653 8.028,1.962 z"
           style="fill:none;stroke:#231f20;stroke-width:1;stroke-linecap:butt;stroke-linejoin:miter;stroke-miterlimit:4;stroke-dasharray:none;stroke-opacity:1"
           id="path4708"
           inkscape:connector-curvature="0" />
      </g>
      <g
         id="g4710"
         transform="matrix(0.35277777,0,0,-0.35277777,9.8086563,306.99392)">
        <path
           d="m 0,0 v -17.838 h 0.121 c 2.494,3.18 5.503,4.77 9.025,4.77 3.038,0 5.538,-0.963 7.5,-2.886 1.961,-1.924 2.942,-4.598 2.942,-8.022 v -18.188 h -8.964 v 16.29 c 0,4.15 -1.539,6.226 -4.617,6.226 -2.033,0 -4.035,-1.441 -6.007,-4.322 V -42.164 H -8.964 V 0 Z"
           style="fill:#231f20;fill-opacity:1;fill-rule:nonzero;stroke:none"
           id="path4712"
           inkscape:connector-curvature="0" />
      </g>
      <g
         id="g4714"
         transform="matrix(0.35277777,0,0,-0.35277777,9.8086563,306.99392)">
        <path
           d="m 0,0 v -17.838 h 0.121 c 2.494,3.18 5.503,4.77 9.025,4.77 3.038,0 5.538,-0.963 7.5,-2.886 1.961,-1.924 2.942,-4.598 2.942,-8.022 v -18.188 h -8.964 v 16.29 c 0,4.15 -1.539,6.226 -4.617,6.226 -2.033,0 -4.035,-1.441 -6.007,-4.322 V -42.164 H -8.964 V 0 Z"
           style="fill:none;stroke:#231f20;stroke-width:1;stroke-linecap:butt;stroke-linejoin:miter;stroke-miterlimit:4;stroke-dasharray:none;stroke-opacity:1"
           id="path4716"
           inkscape:connector-curvature="0" />
      </g>
      <g
         id="g4718"
         transform="matrix(0.35277777,0,0,-0.35277777,22.149317,315.6821)">
        <path
           d="M 0,0 H 12.374 C 11.892,4.145 9.828,6.217 6.187,6.217 2.505,6.217 0.442,4.145 0,0 m 19.769,-8.692 v -5.645 c -3.421,-2.495 -7.657,-3.742 -12.706,-3.742 -5.011,0 -9.015,1.344 -12.013,4.033 -2.998,2.689 -4.497,6.249 -4.497,10.68 0,4.35 1.408,7.926 4.225,10.725 2.817,2.8 6.409,4.201 10.775,4.201 4.386,0 7.983,-1.475 10.79,-4.422 2.807,-2.949 4.12,-6.897 3.939,-11.847 H -0.182 C 0,-7.294 0.915,-9.284 2.565,-10.678 c 1.65,-1.393 3.864,-2.09 6.64,-2.09 3.36,0 6.882,1.359 10.564,4.076"
           style="fill:#231f20;fill-opacity:1;fill-rule:nonzero;stroke:none"
           id="path4720"
           inkscape:connector-curvature="0" />
      </g>
      <g
         id="g4722"
         transform="matrix(0.35277777,0,0,-0.35277777,22.149317,315.6821)">
        <path
           d="M 0,0 H 12.374 C 11.892,4.145 9.828,6.217 6.187,6.217 2.505,6.217 0.442,4.145 0,0 Z m 19.769,-8.692 v -5.645 c -3.421,-2.495 -7.657,-3.742 -12.706,-3.742 -5.011,0 -9.015,1.344 -12.013,4.033 -2.998,2.689 -4.497,6.249 -4.497,10.68 0,4.35 1.408,7.926 4.225,10.725 2.817,2.8 6.409,4.201 10.775,4.201 4.386,0 7.983,-1.475 10.79,-4.422 2.807,-2.949 4.12,-6.897 3.939,-11.847 H -0.182 C 0,-7.294 0.915,-9.284 2.565,-10.678 c 1.65,-1.393 3.864,-2.09 6.64,-2.09 3.36,0 6.882,1.359 10.564,4.076 z"
           style="fill:none;stroke:#231f20;stroke-width:1;stroke-linecap:butt;stroke-linejoin:miter;stroke-miterlimit:4;stroke-dasharray:none;stroke-opacity:1"
           id="path4724"
           inkscape:connector-curvature="0" />
      </g>
      <g
         id="g4726"
         transform="matrix(0.35277777,0,0,-0.35277777,34.596128,311.81706)">
        <path
           d="m 0,0 v -8.149 h 0.121 c 2.595,5.835 5.623,8.753 9.084,8.753 1.65,0 3.632,-0.867 5.946,-2.596 l -2.474,-7.939 c -2.214,1.409 -3.985,2.114 -5.313,2.114 -2.072,0 -3.818,-1.286 -5.236,-3.855 C 0.709,-14.24 0,-15.737 0,-16.16 V -28.492 H -8.964 V 0 Z"
           style="fill:#231f20;fill-opacity:1;fill-rule:nonzero;stroke:none"
           id="path4728"
           inkscape:connector-curvature="0" />
      </g>
      <g
         id="g4730"
         transform="matrix(0.35277777,0,0,-0.35277777,34.596128,311.81706)">
        <path
           d="m 0,0 v -8.149 h 0.121 c 2.595,5.835 5.623,8.753 9.084,8.753 1.65,0 3.632,-0.867 5.946,-2.596 l -2.474,-7.939 c -2.214,1.409 -3.985,2.114 -5.313,2.114 -2.072,0 -3.818,-1.286 -5.236,-3.855 C 0.709,-14.24 0,-15.737 0,-16.16 V -28.492 H -8.964 V 0 Z"
           style="fill:none;stroke:#231f20;stroke-width:1;stroke-linecap:butt;stroke-linejoin:miter;stroke-miterlimit:4;stroke-dasharray:none;stroke-opacity:1"
           id="path4732"
           inkscape:connector-curvature="0" />
      </g>
      <g
         id="g4734"
         transform="matrix(0.35277777,0,0,-0.35277777,48.033362,312.34965)">
        <path
           d="m 0,0 v -6.368 c -3.421,2.093 -6.591,3.139 -9.508,3.139 -2.153,0 -3.229,-0.735 -3.229,-2.203 0,-0.382 0.226,-0.759 0.681,-1.131 0.453,-0.374 2.189,-1.161 5.206,-2.362 3.017,-1.202 5.149,-2.589 6.397,-4.159 1.247,-1.571 1.871,-3.293 1.871,-5.166 0,-2.962 -1.006,-5.248 -3.018,-6.858 -2.012,-1.613 -4.879,-2.417 -8.602,-2.417 -3.823,0 -7.224,0.694 -10.201,2.082 v 6.308 c 3.662,-1.61 6.73,-2.415 9.205,-2.415 2.897,0 4.346,0.702 4.346,2.108 0,0.542 -0.268,1.053 -0.803,1.535 -0.537,0.481 -2.332,1.32 -5.388,2.515 -3.056,1.197 -5.147,2.509 -6.273,3.939 -1.128,1.43 -1.691,3.021 -1.691,4.774 0,2.598 1.081,4.712 3.244,6.344 2.163,1.632 5.016,2.448 8.557,2.448 3.4,0 6.469,-0.705 9.206,-2.113"
           style="fill:#231f20;fill-opacity:1;fill-rule:nonzero;stroke:none"
           id="path4736"
           inkscape:connector-curvature="0" />
      </g>
      <g
         id="g4738"
         transform="matrix(0.35277777,0,0,-0.35277777,48.033362,312.34965)">
        <path
           d="m 0,0 v -6.368 c -3.421,2.093 -6.591,3.139 -9.508,3.139 -2.153,0 -3.229,-0.735 -3.229,-2.203 0,-0.382 0.226,-0.759 0.681,-1.131 0.453,-0.374 2.189,-1.161 5.206,-2.362 3.017,-1.202 5.149,-2.589 6.397,-4.159 1.247,-1.571 1.871,-3.293 1.871,-5.166 0,-2.962 -1.006,-5.248 -3.018,-6.858 -2.012,-1.613 -4.879,-2.417 -8.602,-2.417 -3.823,0 -7.224,0.694 -10.201,2.082 v 6.308 c 3.662,-1.61 6.73,-2.415 9.205,-2.415 2.897,0 4.346,0.702 4.346,2.108 0,0.542 -0.268,1.053 -0.803,1.535 -0.537,0.481 -2.332,1.32 -5.388,2.515 -3.056,1.197 -5.147,2.509 -6.273,3.939 -1.128,1.43 -1.691,3.021 -1.691,4.774 0,2.598 1.081,4.712 3.244,6.344 2.163,1.632 5.016,2.448 8.557,2.448 3.4,0 6.469,-0.705 9.206,-2.113 z"
           style="fill:none;stroke:#231f20;stroke-width:1;stroke-linecap:butt;stroke-linejoin:miter;stroke-miterlimit:4;stroke-dasharray:none;stroke-opacity:1"
           id="path4740"
           inkscape:connector-curvature="0" />
      </g>
    </g>
    <g
       id="g2304"
       transform="matrix(0.03347605,0,0,0.03347605,-5.7930897,7.1729049)">
      <path
         id="path5180"
         style="font-style:normal;font-variant:normal;font-weight:normal;font-stretch:normal;font-size:22.0792px;line-height:10.4311px;font-family:'Gill Sans Std';-inkscape-font-specification:'Gill Sans Std, Normal';font-variant-ligatures:normal;font-variant-caps:normal;font-variant-numeric:normal;font-feature-settings:normal;text-align:start;letter-spacing:0px;word-spacing:0px;writing-mode:lr-tb;text-anchor:start;fill:#231f20;fill-opacity:1;stroke:none;stroke-width:0.264583;stroke-opacity:1"
         d="m 40.22237,176.19993 v 15.05799 h 2.16376 v -6.51336 h 2.25207 c 3.48851,0 5.07821,-1.85465 5.07821,-4.21712 0,-2.38455 -1.50138,-4.32751 -4.79118,-4.32751 z m 2.16376,1.94296 h 2.5391 c 1.96505,0 2.56119,1.19228 2.56119,2.29624 0,1.50138 -1.03772,2.36247 -2.6495,2.36247 h -2.45079 z"
         inkscape:connector-curvature="0" />
      <path
         id="path5182"
         style="font-style:normal;font-variant:normal;font-weight:normal;font-stretch:normal;font-size:22.0792px;line-height:10.4311px;font-family:'Gill Sans Std';-inkscape-font-specification:'Gill Sans Std, Normal';font-variant-ligatures:normal;font-variant-caps:normal;font-variant-numeric:normal;font-feature-settings:normal;text-align:start;letter-spacing:0px;word-spacing:0px;writing-mode:lr-tb;text-anchor:start;fill:#231f20;fill-opacity:1;stroke:none;stroke-width:0.264583;stroke-opacity:1"
         d="m 54.869873,181.14566 c -2.95861,0 -5.23276,2.20792 -5.23276,5.05613 0,3.04692 2.18583,5.25484 5.23276,5.25484 3.1794,0 5.365236,-2.1196 5.365236,-5.25484 0,-2.93653 -2.252076,-5.05613 -5.365236,-5.05613 z m -0.0221,1.76633 c 1.96505,0 3.37811,1.39099 3.37811,3.31188 0,2.14168 -1.30267,3.46643 -3.37811,3.46643 -1.89881,0 -3.20148,-1.39099 -3.20148,-3.48851 0,-1.89881 1.34683,-3.2898 3.20148,-3.2898 z"
         inkscape:connector-curvature="0" />
      <path
         id="path5184"
         style="font-style:normal;font-variant:normal;font-weight:normal;font-stretch:normal;font-size:22.0792px;line-height:10.4311px;font-family:'Gill Sans Std';-inkscape-font-specification:'Gill Sans Std, Normal';font-variant-ligatures:normal;font-variant-caps:normal;font-variant-numeric:normal;font-feature-settings:normal;text-align:start;letter-spacing:0px;word-spacing:0px;writing-mode:lr-tb;text-anchor:start;fill:#231f20;fill-opacity:1;stroke:none;stroke-width:0.264583;stroke-opacity:1"
         d="m 63.917198,176.19993 h -1.965046 v 15.05799 h 1.965046 z"
         inkscape:connector-curvature="0" />
      <path
         id="path5186"
         style="font-style:normal;font-variant:normal;font-weight:normal;font-stretch:normal;font-size:22.0792px;line-height:10.4311px;font-family:'Gill Sans Std';-inkscape-font-specification:'Gill Sans Std, Normal';font-variant-ligatures:normal;font-variant-caps:normal;font-variant-numeric:normal;font-feature-settings:normal;text-align:start;letter-spacing:0px;word-spacing:0px;writing-mode:lr-tb;text-anchor:start;fill:#231f20;fill-opacity:1;stroke:none;stroke-width:0.264583;stroke-opacity:1"
         d="m 74.421362,189.49158 c -0.441583,0.33119 -0.839008,0.5299 -1.037721,0.5299 -0.242871,0 -0.375346,-0.13247 -0.375346,-0.50782 v -5.10028 c 0,-2.25208 -1.5897,-3.26772 -3.598904,-3.26772 -1.435146,0 -2.517025,0.44158 -3.289796,1.34683 v 2.14168 c 0.949405,-1.12604 2.053363,-1.63386 3.135242,-1.63386 1.192275,0 1.788413,0.50782 1.788413,1.74425 v 0.5299 l -1.744255,0.61822 c -1.5897,0.57406 -3.378112,1.1702 -3.378112,3.13524 0,1.28059 0.971483,2.42871 2.428708,2.42871 0.905246,0 1.810492,-0.33119 2.671579,-1.01564 0.176634,0.70653 0.640296,1.01564 1.501384,1.01564 0.618216,0 0.993562,-0.17663 1.898808,-0.77277 z m -3.378112,-0.24287 c -0.5299,0.50782 -1.103959,0.81693 -1.722175,0.81693 -0.81693,0 -1.413067,-0.57406 -1.413067,-1.39099 0,-1.17019 1.457225,-1.74425 3.135242,-2.31831 z"
         inkscape:connector-curvature="0" />
      <path
         id="path5188"
         style="font-style:normal;font-variant:normal;font-weight:normal;font-stretch:normal;font-size:22.0792px;line-height:10.4311px;font-family:'Gill Sans Std';-inkscape-font-specification:'Gill Sans Std, Normal';font-variant-ligatures:normal;font-variant-caps:normal;font-variant-numeric:normal;font-feature-settings:normal;text-align:start;letter-spacing:0px;word-spacing:0px;writing-mode:lr-tb;text-anchor:start;fill:#231f20;fill-opacity:1;stroke:none;stroke-width:0.264583;stroke-opacity:1"
         d="m 78.102719,181.34437 h -1.965046 v 9.91355 h 1.965046 v -7.10949 c 0.927325,-1.03773 1.611779,-1.43515 2.472867,-1.43515 1.192275,0 1.942966,0.9494 1.942966,2.40663 v 6.13801 h 1.965046 v -6.11593 c 0,-2.71574 -1.501383,-3.99633 -3.378112,-3.99633 -1.103959,0 -2.207917,0.55198 -2.958609,1.50138 h -0.04416 z"
         inkscape:connector-curvature="0" />
      <path
         id="path5190"
         style="font-style:normal;font-variant:normal;font-weight:normal;font-stretch:normal;font-size:22.0792px;line-height:10.4311px;font-family:'Gill Sans Std';-inkscape-font-specification:'Gill Sans Std, Normal';font-variant-ligatures:normal;font-variant-caps:normal;font-variant-numeric:normal;font-feature-settings:normal;text-align:start;letter-spacing:0px;word-spacing:0px;writing-mode:lr-tb;text-anchor:start;fill:#231f20;fill-opacity:1;stroke:none;stroke-width:0.264583;stroke-opacity:1"
         d="m 95.258962,176.19993 h -1.965046 v 5.34315 c -0.79485,-0.28703 -1.413066,-0.39742 -2.075441,-0.39742 -2.892371,0 -4.945733,2.05336 -4.945733,4.92365 0,3.1794 1.85465,5.18861 4.813258,5.18861 h 4.172962 z m -1.965046,13.40205 h -1.987124 c -2.274155,0 -3.024846,-1.39099 -3.024846,-3.24564 0,-2.07544 1.280591,-3.44435 3.1794,-3.44435 0.662375,0 1.170195,0.1104 1.83257,0.37535 z"
         inkscape:connector-curvature="0" />
    </g>
    <g
       id="g2467"
       transform="matrix(0.04250311,0,0,0.04250311,-6.2913823,5.66426)">
      <rect
         y="101.07382"
         x="43.806435"
         height="21.251289"
         width="60.180973"
         id="rect2280"
         style="opacity:1;fill:#ffffff;fill-opacity:1;fill-rule:nonzero;stroke:none;stroke-width:10.4664;stroke-linecap:round;stroke-linejoin:round;stroke-miterlimit:4;stroke-dasharray:none;stroke-opacity:1" />
      <rect
         style="opacity:1;fill:#dc0002;fill-opacity:1;fill-rule:evenodd;stroke:none;stroke-width:0.370948;stroke-linecap:round;stroke-linejoin:miter;stroke-miterlimit:4;stroke-dasharray:none;stroke-opacity:1;paint-order:stroke markers fill"
         id="rect5174"
         width="60.407368"
         height="22.49596"
         x="43.647362"
         y="121.89434" />
      <rect
         style="opacity:1;fill:none;fill-opacity:1;fill-rule:evenodd;stroke:#231f20;stroke-width:0.25;stroke-linecap:round;stroke-linejoin:miter;stroke-miterlimit:4;stroke-dasharray:none;stroke-opacity:1;paint-order:stroke markers fill"
         id="rect5172"
         width="60.279209"
         height="43.351574"
         x="43.77552"
         y="101.03873" />
    </g>
  </g>
</svg>
