<?xml version="1.0" encoding="UTF-8"?>
<svg width="57.646mm" height="24.648mm" version="1.1" viewBox="0 0 57.646 24.648" xmlns="http://www.w3.org/2000/svg" xmlns:cc="http://creativecommons.org/ns#" xmlns:dc="http://purl.org/dc/elements/1.1/" xmlns:rdf="http://www.w3.org/1999/02/22-rdf-syntax-ns#">
 <metadata>
  <rdf:RDF>
   <cc:Work rdf:about="">
    <dc:format>image/svg+xml</dc:format>
    <dc:type rdf:resource="http://purl.org/dc/dcmitype/StillImage"/>
    <dc:title/>
   </cc:Work>
  </rdf:RDF>
 </metadata>
 <g transform="translate(24.17 -100.05)">
  <g transform="matrix(.26959 0 0 .26959 -17.654 73.08)" fill="#231f20">
   <path d="m25.831 100.05h5.2204c1.3875 0 2.5125 1.125 2.5125 2.5128v86.401c0 1.3875-1.125 2.5125-2.5125 2.5125h-5.2204z"/>
   <path d="m12.959 145.41h-4.3184v-7.9375h4.3184zm-0.64947 30.167h-3.2681v-6.732h3.2681zm-3.9472-40.563h-4.3184v-7.9375h4.3184zm-4.5554-28.361h4.2189v7.7957h-4.2189zm-2.6755 43.548h-4.3184v-7.9375h4.3184zm-1.6446 30.226h-3.2681v-5.8205h3.2681zm-5.8215-23.494h4.3184v7.9375h-4.3184zm-0.0303-29.857h3.1782v5.9831h-3.1782zm-0.35278-3.4163h-4.3184v-8.2254h4.3184zm-4.4383 15.517h-4.3184v-8.1315h4.3184zm-1.2382 19.873h-4.3184v-7.9375h4.3184zm-5.8113-58.995h-3.4512c-1.3878 0-2.5128 1.125-2.5128 2.5128v86.401c0 1.3878 1.125 2.5125 2.5128 2.5125h42.891l5e-3 -91.426z"/>
  </g>
  <g transform="matrix(.23318 0 0 .23318 22.119 45.092)">
   <g transform="matrix(.35278 0 0 -.35278 -109.13 306.99)">
    <path d="m0 0h10.503v-23.935c0-6.156-1.821-10.825-5.463-14.003-3.642-3.18-8.843-4.769-15.604-4.769-6.681 0-11.867 1.609-15.559 4.829-3.692 3.219-5.538 7.847-5.538 13.884v23.994h10.534v-24.236c0-2.938 0.96-5.292 2.882-7.063 1.921-1.77 4.441-2.655 7.56-2.655 3.24 0 5.83 0.905 7.772 2.716 1.942 1.81 2.913 4.386 2.913 7.726z" fill="#231f20"/>
   </g>
   <g transform="matrix(.35278 0 0 -.35278 -109.13 306.99)">
    <path d="m0 0h10.503v-23.935c0-6.156-1.821-10.825-5.463-14.003-3.642-3.18-8.843-4.769-15.604-4.769-6.681 0-11.867 1.609-15.559 4.829-3.692 3.219-5.538 7.847-5.538 13.884v23.994h10.534v-24.236c0-2.938 0.96-5.292 2.882-7.063 1.921-1.77 4.441-2.655 7.56-2.655 3.24 0 5.83 0.905 7.772 2.716 1.942 1.81 2.913 4.386 2.913 7.726z" fill="none" stroke="#231f20"/>
   </g>
   <g transform="matrix(.35278 0 0 -.35278 -99.318 311.82)">
    <path d="m0 0v-8.149h0.121c2.595 5.835 5.623 8.753 9.085 8.753 1.649 0 3.631-0.867 5.945-2.596l-2.475-7.939c-2.214 1.409-3.984 2.114-5.312 2.114-2.072 0-3.818-1.286-5.236-3.855-1.419-2.568-2.128-4.065-2.128-4.488v-12.332h-8.964v28.492z" fill="#231f20"/>
   </g>
   <g transform="matrix(.35278 0 0 -.35278 -99.318 311.82)">
    <path d="m0 0v-8.149h0.121c2.595 5.835 5.623 8.753 9.085 8.753 1.649 0 3.631-0.867 5.945-2.596l-2.475-7.939c-2.214 1.409-3.984 2.114-5.312 2.114-2.072 0-3.818-1.286-5.236-3.855-1.419-2.568-2.128-4.065-2.128-4.488v-12.332h-8.964v28.492z" fill="none" stroke="#231f20"/>
   </g>
   <g transform="matrix(.35278 0 0 -.35278 -89.671 314.43)">
    <path d="m0 0v-13.219c1.811-1.61 3.581-2.415 5.312-2.415 2.132 0 3.808 0.8 5.025 2.4 1.218 1.599 1.826 3.807 1.826 6.625 0 2.736-0.639 4.854-1.916 6.353-1.278 1.498-2.963 2.248-5.056 2.248-1.629 0-3.36-0.664-5.191-1.992m0 21.067v-15.242c2.354 1.449 4.799 2.174 7.334 2.174 4.105 0 7.45-1.37 10.036-4.109 2.585-2.74 3.878-6.285 3.878-10.635 0-4.371-1.243-7.946-3.727-10.726-2.486-2.779-5.67-4.169-9.553-4.169-2.817 0-5.473 0.906-7.968 2.716v-2.173h-8.964v42.164z" fill="#231f20"/>
   </g>
   <g transform="matrix(.35278 0 0 -.35278 -89.671 314.43)">
    <path d="m0 0v-13.219c1.811-1.61 3.581-2.415 5.312-2.415 2.132 0 3.808 0.8 5.025 2.4 1.218 1.599 1.826 3.807 1.826 6.625 0 2.736-0.639 4.854-1.916 6.353-1.278 1.498-2.963 2.248-5.056 2.248-1.629 0-3.36-0.664-5.191-1.992zm0 21.067v-15.242c2.354 1.449 4.799 2.174 7.334 2.174 4.105 0 7.45-1.37 10.036-4.109 2.585-2.74 3.878-6.285 3.878-10.635 0-4.371-1.243-7.946-3.727-10.726-2.486-2.779-5.67-4.169-9.553-4.169-2.817 0-5.473 0.906-7.968 2.716v-2.173h-8.964v42.164z" fill="none" stroke="#231f20"/>
   </g>
   <g transform="matrix(.35278 0 0 -.35278 -74.69 319.43)">
    <path d="m0 0v6.904c-2.999-1.05-5.056-1.994-6.172-2.831-1.117-0.838-1.675-1.903-1.675-3.195 0-0.828 0.281-1.539 0.845-2.135 0.563-0.596 1.247-0.893 2.052-0.893 1.69 0 3.34 0.716 4.95 2.15m13.823 0.113v-4.979c-2.978-1.732-5.775-2.596-8.39-2.596-2.817 0-4.487 1.066-5.011 3.199-3.118-2.133-6.247-3.199-9.386-3.199-2.214 0-4.095 0.7-5.644 2.101-1.55 1.4-2.324 3.028-2.324 4.882 0 2.479 0.8 4.479 2.399 6 1.6 1.522 6.444 3.482 14.533 5.88 0.201 3.179-1.449 4.769-4.95 4.769-3.803 0-7.304-1.59-10.503-4.769v7.304c3.743 2.315 7.857 3.472 12.344 3.472 8.048 0 12.073-2.892 12.073-8.674v-12.995c0-1.329 0.493-1.994 1.479-1.994 0.744 0 1.871 0.533 3.38 1.599" fill="#231f20"/>
   </g>
   <g transform="matrix(.35278 0 0 -.35278 -74.69 319.43)">
    <path d="m0 0v6.904c-2.999-1.05-5.056-1.994-6.172-2.831-1.117-0.838-1.675-1.903-1.675-3.195 0-0.828 0.281-1.539 0.845-2.135 0.563-0.596 1.247-0.893 2.052-0.893 1.69 0 3.34 0.716 4.95 2.15zm13.823 0.113v-4.979c-2.978-1.732-5.775-2.596-8.39-2.596-2.817 0-4.487 1.066-5.011 3.199-3.118-2.133-6.247-3.199-9.386-3.199-2.214 0-4.095 0.7-5.644 2.101-1.55 1.4-2.324 3.028-2.324 4.882 0 2.479 0.8 4.479 2.399 6 1.6 1.522 6.444 3.482 14.533 5.88 0.201 3.179-1.449 4.769-4.95 4.769-3.803 0-7.304-1.59-10.503-4.769v7.304c3.743 2.315 7.857 3.472 12.344 3.472 8.048 0 12.073-2.892 12.073-8.674v-12.995c0-1.329 0.493-1.994 1.479-1.994 0.744 0 1.871 0.533 3.38 1.599z" fill="none" stroke="#231f20"/>
   </g>
   <g transform="matrix(.35278 0 0 -.35278 -65.341 311.82)">
    <path d="m0 0v-4.045c2.636 3.099 5.724 4.649 9.266 4.649 2.958 0 5.427-0.948 7.409-2.84 1.982-1.894 2.973-4.604 2.973-8.128v-18.128h-8.964v17.377c0 3.807-1.479 5.712-4.437 5.712-2.112 0-4.195-1.57-6.247-4.708v-18.381h-8.964v28.492z" fill="#231f20"/>
   </g>
   <g transform="matrix(.35278 0 0 -.35278 -65.341 311.82)">
    <path d="m0 0v-4.045c2.636 3.099 5.724 4.649 9.266 4.649 2.958 0 5.427-0.948 7.409-2.84 1.982-1.894 2.973-4.604 2.973-8.128v-18.128h-8.964v17.377c0 3.807-1.479 5.712-4.437 5.712-2.112 0-4.195-1.57-6.247-4.708v-18.381h-8.964v28.492z" fill="none" stroke="#231f20"/>
   </g>
   <g transform="matrix(.35278 0 0 -.35278 -39.287 307.95)">
    <path d="m0 0v-8.239c-5.595 2.514-10.051 3.772-13.371 3.772-1.892 0-3.396-0.316-4.512-0.95-1.117-0.634-1.676-1.475-1.676-2.521 0-0.804 0.403-1.569 1.208-2.293 0.804-0.724 2.766-1.661 5.885-2.807 3.119-1.147 5.614-2.214 7.486-3.199 1.871-0.987 3.486-2.375 4.843-4.165 1.359-1.791 2.038-4.055 2.038-6.791 0-3.905-1.484-7.013-4.452-9.327-2.969-2.314-6.877-3.47-11.725-3.47-5.233 0-10.303 1.357-15.212 4.074v9.085c2.817-1.892 5.312-3.271 7.485-4.135 2.173-0.865 4.477-1.298 6.911-1.298 4.125 0 6.188 1.297 6.188 3.891 0 0.885-0.413 1.72-1.239 2.504-0.825 0.784-2.812 1.739-5.961 2.865-3.15 1.126-5.645 2.172-7.486 3.139-1.84 0.966-3.43 2.344-4.766 4.136-1.338 1.791-2.007 4.085-2.007 6.883 0 3.622 1.458 6.546 4.376 8.77s6.821 3.336 11.711 3.336c4.506 0 9.265-1.086 14.276-3.26" fill="#231f20"/>
   </g>
   <g transform="matrix(.35278 0 0 -.35278 -39.287 307.95)">
    <path d="m0 0v-8.239c-5.595 2.514-10.051 3.772-13.371 3.772-1.892 0-3.396-0.316-4.512-0.95-1.117-0.634-1.676-1.475-1.676-2.521 0-0.804 0.403-1.569 1.208-2.293 0.804-0.724 2.766-1.661 5.885-2.807 3.119-1.147 5.614-2.214 7.486-3.199 1.871-0.987 3.486-2.375 4.843-4.165 1.359-1.791 2.038-4.055 2.038-6.791 0-3.905-1.484-7.013-4.452-9.327-2.969-2.314-6.877-3.47-11.725-3.47-5.233 0-10.303 1.357-15.212 4.074v9.085c2.817-1.892 5.312-3.271 7.485-4.135 2.173-0.865 4.477-1.298 6.911-1.298 4.125 0 6.188 1.297 6.188 3.891 0 0.885-0.413 1.72-1.239 2.504-0.825 0.784-2.812 1.739-5.961 2.865-3.15 1.126-5.645 2.172-7.486 3.139-1.84 0.966-3.43 2.344-4.766 4.136-1.338 1.791-2.007 4.085-2.007 6.883 0 3.622 1.458 6.546 4.376 8.77s6.821 3.336 11.711 3.336c4.506 0 9.265-1.086 14.276-3.26z" fill="none" stroke="#231f20"/>
   </g>
   <g transform="matrix(.35278 0 0 -.35278 -33.335 306.99)">
    <path d="m0 0v-27.768h0.121l11.062 14.096h10.518l-11.138-14.096 11.621-14.396h-10.967l-11.096 14.034h-0.121v-14.034h-8.964v42.164z" fill="#231f20"/>
   </g>
   <g transform="matrix(.35278 0 0 -.35278 -33.335 306.99)">
    <path d="m0 0v-27.768h0.121l11.062 14.096h10.518l-11.138-14.096 11.621-14.396h-10.967l-11.096 14.034h-0.121v-14.034h-8.964v42.164z" fill="none" stroke="#231f20"/>
   </g>
   <g transform="matrix(.35278 0 0 -.35278 -22.347 315.68)">
    <path d="m0 0h12.374c-0.482 4.145-2.546 6.217-6.187 6.217-3.682 0-5.745-2.072-6.187-6.217m19.769-8.692v-5.645c-3.421-2.495-7.657-3.742-12.706-3.742-5.011 0-9.015 1.344-12.013 4.033s-4.497 6.249-4.497 10.68c0 4.35 1.408 7.926 4.225 10.725 2.817 2.8 6.409 4.201 10.775 4.201 4.386 0 7.983-1.475 10.79-4.422 2.807-2.949 4.12-6.897 3.939-11.847h-20.464c0.182-2.585 1.097-4.575 2.747-5.969 1.65-1.393 3.864-2.09 6.64-2.09 3.36 0 6.882 1.359 10.564 4.076" fill="#231f20"/>
   </g>
   <g transform="matrix(.35278 0 0 -.35278 -22.347 315.68)">
    <path d="m0 0h12.374c-0.482 4.145-2.546 6.217-6.187 6.217-3.682 0-5.745-2.072-6.187-6.217zm19.769-8.692v-5.645c-3.421-2.495-7.657-3.742-12.706-3.742-5.011 0-9.015 1.344-12.013 4.033s-4.497 6.249-4.497 10.68c0 4.35 1.408 7.926 4.225 10.725 2.817 2.8 6.409 4.201 10.775 4.201 4.386 0 7.983-1.475 10.79-4.422 2.807-2.949 4.12-6.897 3.939-11.847h-20.464c0.182-2.585 1.097-4.575 2.747-5.969 1.65-1.393 3.864-2.09 6.64-2.09 3.36 0 6.882 1.359 10.564 4.076z" fill="none" stroke="#231f20"/>
   </g>
   <g transform="matrix(.35278 0 0 -.35278 -5.9282 311.82)">
    <path d="m0 0v-6.127h-10.383v-11.741c0-1.408 0.388-2.521 1.162-3.335 0.775-0.816 1.846-1.223 3.215-1.223 1.851 0 3.853 0.554 6.006 1.66v-6.489c-2.857-1.187-5.624-1.78-8.3-1.78-3.501 0-6.218 0.905-8.149 2.716-1.932 1.811-2.898 4.466-2.898 7.968v12.224h-4.074v1.75l11.922 13.341h1.116v-8.964z" fill="#231f20"/>
   </g>
   <g transform="matrix(.35278 0 0 -.35278 -5.9282 311.82)">
    <path d="m0 0v-6.127h-10.383v-11.741c0-1.408 0.388-2.521 1.162-3.335 0.775-0.816 1.846-1.223 3.215-1.223 1.851 0 3.853 0.554 6.006 1.66v-6.489c-2.857-1.187-5.624-1.78-8.3-1.78-3.501 0-6.218 0.905-8.149 2.716-1.932 1.811-2.898 4.466-2.898 7.968v12.224h-4.074v1.75l11.922 13.341h1.116v-8.964z" fill="none" stroke="#231f20"/>
   </g>
   <g transform="matrix(.35278 0 0 -.35278 4.485 319.12)">
    <path d="m0 0v-6.429c-3.501-1.267-6.711-1.901-9.628-1.901-5.01 0-9.015 1.344-12.013 4.033s-4.497 6.249-4.497 10.68c0 4.331 1.514 7.901 4.543 10.711 3.028 2.809 6.886 4.215 11.574 4.215 3.019 0 6.218-0.624 9.598-1.872v-6.67c-2.474 1.267-4.909 1.901-7.304 1.901-2.675 0-4.819-0.746-6.428-2.237-1.611-1.493-2.414-3.488-2.414-5.988 0-2.519 0.784-4.549 2.353-6.091 1.57-1.543 3.632-2.314 6.188-2.314 1.891 0 4.567 0.653 8.028 1.962" fill="#231f20"/>
   </g>
   <g transform="matrix(.35278 0 0 -.35278 4.485 319.12)">
    <path d="m0 0v-6.429c-3.501-1.267-6.711-1.901-9.628-1.901-5.01 0-9.015 1.344-12.013 4.033s-4.497 6.249-4.497 10.68c0 4.331 1.514 7.901 4.543 10.711 3.028 2.809 6.886 4.215 11.574 4.215 3.019 0 6.218-0.624 9.598-1.872v-6.67c-2.474 1.267-4.909 1.901-7.304 1.901-2.675 0-4.819-0.746-6.428-2.237-1.611-1.493-2.414-3.488-2.414-5.988 0-2.519 0.784-4.549 2.353-6.091 1.57-1.543 3.632-2.314 6.188-2.314 1.891 0 4.567 0.653 8.028 1.962z" fill="none" stroke="#231f20"/>
   </g>
   <g transform="matrix(.35278 0 0 -.35278 9.8087 306.99)">
    <path d="m0 0v-17.838h0.121c2.494 3.18 5.503 4.77 9.025 4.77 3.038 0 5.538-0.963 7.5-2.886 1.961-1.924 2.942-4.598 2.942-8.022v-18.188h-8.964v16.29c0 4.15-1.539 6.226-4.617 6.226-2.033 0-4.035-1.441-6.007-4.322v-18.194h-8.964v42.164z" fill="#231f20"/>
   </g>
   <g transform="matrix(.35278 0 0 -.35278 9.8087 306.99)">
    <path d="m0 0v-17.838h0.121c2.494 3.18 5.503 4.77 9.025 4.77 3.038 0 5.538-0.963 7.5-2.886 1.961-1.924 2.942-4.598 2.942-8.022v-18.188h-8.964v16.29c0 4.15-1.539 6.226-4.617 6.226-2.033 0-4.035-1.441-6.007-4.322v-18.194h-8.964v42.164z" fill="none" stroke="#231f20"/>
   </g>
   <g transform="matrix(.35278 0 0 -.35278 22.149 315.68)">
    <path d="m0 0h12.374c-0.482 4.145-2.546 6.217-6.187 6.217-3.682 0-5.745-2.072-6.187-6.217m19.769-8.692v-5.645c-3.421-2.495-7.657-3.742-12.706-3.742-5.011 0-9.015 1.344-12.013 4.033s-4.497 6.249-4.497 10.68c0 4.35 1.408 7.926 4.225 10.725 2.817 2.8 6.409 4.201 10.775 4.201 4.386 0 7.983-1.475 10.79-4.422 2.807-2.949 4.12-6.897 3.939-11.847h-20.464c0.182-2.585 1.097-4.575 2.747-5.969 1.65-1.393 3.864-2.09 6.64-2.09 3.36 0 6.882 1.359 10.564 4.076" fill="#231f20"/>
   </g>
   <g transform="matrix(.35278 0 0 -.35278 22.149 315.68)">
    <path d="m0 0h12.374c-0.482 4.145-2.546 6.217-6.187 6.217-3.682 0-5.745-2.072-6.187-6.217zm19.769-8.692v-5.645c-3.421-2.495-7.657-3.742-12.706-3.742-5.011 0-9.015 1.344-12.013 4.033s-4.497 6.249-4.497 10.68c0 4.35 1.408 7.926 4.225 10.725 2.817 2.8 6.409 4.201 10.775 4.201 4.386 0 7.983-1.475 10.79-4.422 2.807-2.949 4.12-6.897 3.939-11.847h-20.464c0.182-2.585 1.097-4.575 2.747-5.969 1.65-1.393 3.864-2.09 6.64-2.09 3.36 0 6.882 1.359 10.564 4.076z" fill="none" stroke="#231f20"/>
   </g>
   <g transform="matrix(.35278 0 0 -.35278 34.596 311.82)">
    <path d="m0 0v-8.149h0.121c2.595 5.835 5.623 8.753 9.084 8.753 1.65 0 3.632-0.867 5.946-2.596l-2.474-7.939c-2.214 1.409-3.985 2.114-5.313 2.114-2.072 0-3.818-1.286-5.236-3.855-1.419-2.568-2.128-4.065-2.128-4.488v-12.332h-8.964v28.492z" fill="#231f20"/>
   </g>
   <g transform="matrix(.35278 0 0 -.35278 34.596 311.82)">
    <path d="m0 0v-8.149h0.121c2.595 5.835 5.623 8.753 9.084 8.753 1.65 0 3.632-0.867 5.946-2.596l-2.474-7.939c-2.214 1.409-3.985 2.114-5.313 2.114-2.072 0-3.818-1.286-5.236-3.855-1.419-2.568-2.128-4.065-2.128-4.488v-12.332h-8.964v28.492z" fill="none" stroke="#231f20"/>
   </g>
   <g transform="matrix(.35278 0 0 -.35278 48.033 312.35)">
    <path d="m0 0v-6.368c-3.421 2.093-6.591 3.139-9.508 3.139-2.153 0-3.229-0.735-3.229-2.203 0-0.382 0.226-0.759 0.681-1.131 0.453-0.374 2.189-1.161 5.206-2.362 3.017-1.202 5.149-2.589 6.397-4.159 1.247-1.571 1.871-3.293 1.871-5.166 0-2.962-1.006-5.248-3.018-6.858-2.012-1.613-4.879-2.417-8.602-2.417-3.823 0-7.224 0.694-10.201 2.082v6.308c3.662-1.61 6.73-2.415 9.205-2.415 2.897 0 4.346 0.702 4.346 2.108 0 0.542-0.268 1.053-0.803 1.535-0.537 0.481-2.332 1.32-5.388 2.515-3.056 1.197-5.147 2.509-6.273 3.939-1.128 1.43-1.691 3.021-1.691 4.774 0 2.598 1.081 4.712 3.244 6.344s5.016 2.448 8.557 2.448c3.4 0 6.469-0.705 9.206-2.113" fill="#231f20"/>
   </g>
   <g transform="matrix(.35278 0 0 -.35278 48.033 312.35)">
    <path d="m0 0v-6.368c-3.421 2.093-6.591 3.139-9.508 3.139-2.153 0-3.229-0.735-3.229-2.203 0-0.382 0.226-0.759 0.681-1.131 0.453-0.374 2.189-1.161 5.206-2.362 3.017-1.202 5.149-2.589 6.397-4.159 1.247-1.571 1.871-3.293 1.871-5.166 0-2.962-1.006-5.248-3.018-6.858-2.012-1.613-4.879-2.417-8.602-2.417-3.823 0-7.224 0.694-10.201 2.082v6.308c3.662-1.61 6.73-2.415 9.205-2.415 2.897 0 4.346 0.702 4.346 2.108 0 0.542-0.268 1.053-0.803 1.535-0.537 0.481-2.332 1.32-5.388 2.515-3.056 1.197-5.147 2.509-6.273 3.939-1.128 1.43-1.691 3.021-1.691 4.774 0 2.598 1.081 4.712 3.244 6.344s5.016 2.448 8.557 2.448c3.4 0 6.469-0.705 9.206-2.113z" fill="none" stroke="#231f20"/>
   </g>
  </g>
  <g transform="matrix(.22452 0 0 .22452 -14.987 81.637)" fill="#231f20">
   <path d="m40.222 176.2v15.058h2.1638v-6.5134h2.2521c3.4885 0 5.0782-1.8546 5.0782-4.2171 0-2.3846-1.5014-4.3275-4.7912-4.3275zm2.1638 1.943h2.5391c1.965 0 2.5612 1.1923 2.5612 2.2962 0 1.5014-1.0377 2.3625-2.6495 2.3625h-2.4508z" style="font-feature-settings:normal;font-variant-caps:normal;font-variant-ligatures:normal;font-variant-numeric:normal"/>
   <path d="m54.87 181.15c-2.9586 0-5.2328 2.2079-5.2328 5.0561 0 3.0469 2.1858 5.2548 5.2328 5.2548 3.1794 0 5.3652-2.1196 5.3652-5.2548 0-2.9365-2.2521-5.0561-5.3652-5.0561zm-0.0221 1.7663c1.965 0 3.3781 1.391 3.3781 3.3119 0 2.1417-1.3027 3.4664-3.3781 3.4664-1.8988 0-3.2015-1.391-3.2015-3.4885 0-1.8988 1.3468-3.2898 3.2015-3.2898z" style="font-feature-settings:normal;font-variant-caps:normal;font-variant-ligatures:normal;font-variant-numeric:normal"/>
   <path d="m63.917 176.2h-1.965v15.058h1.965z" style="font-feature-settings:normal;font-variant-caps:normal;font-variant-ligatures:normal;font-variant-numeric:normal"/>
   <path d="m74.421 189.49c-0.44158 0.33119-0.83901 0.5299-1.0377 0.5299-0.24287 0-0.37535-0.13247-0.37535-0.50782v-5.1003c0-2.2521-1.5897-3.2677-3.5989-3.2677-1.4351 0-2.517 0.44158-3.2898 1.3468v2.1417c0.9494-1.126 2.0534-1.6339 3.1352-1.6339 1.1923 0 1.7884 0.50782 1.7884 1.7442v0.5299l-1.7443 0.61822c-1.5897 0.57406-3.3781 1.1702-3.3781 3.1352 0 1.2806 0.97148 2.4287 2.4287 2.4287 0.90525 0 1.8105-0.33119 2.6716-1.0156 0.17663 0.70653 0.6403 1.0156 1.5014 1.0156 0.61822 0 0.99356-0.17663 1.8988-0.77277zm-3.3781-0.24287c-0.5299 0.50782-1.104 0.81693-1.7222 0.81693-0.81693 0-1.4131-0.57406-1.4131-1.391 0-1.1702 1.4572-1.7442 3.1352-2.3183z" style="font-feature-settings:normal;font-variant-caps:normal;font-variant-ligatures:normal;font-variant-numeric:normal"/>
   <path d="m78.103 181.34h-1.965v9.9136h1.965v-7.1095c0.92732-1.0377 1.6118-1.4352 2.4729-1.4352 1.1923 0 1.943 0.9494 1.943 2.4066v6.138h1.965v-6.1159c0-2.7157-1.5014-3.9963-3.3781-3.9963-1.104 0-2.2079 0.55198-2.9586 1.5014h-0.04416z" style="font-feature-settings:normal;font-variant-caps:normal;font-variant-ligatures:normal;font-variant-numeric:normal"/>
   <path d="m95.259 176.2h-1.965v5.3432c-0.79485-0.28703-1.4131-0.39742-2.0754-0.39742-2.8924 0-4.9457 2.0534-4.9457 4.9236 0 3.1794 1.8546 5.1886 4.8133 5.1886h4.173zm-1.965 13.402h-1.9871c-2.2742 0-3.0248-1.391-3.0248-3.2456 0-2.0754 1.2806-3.4444 3.1794-3.4444 0.66238 0 1.1702 0.1104 1.8326 0.37535z" style="font-feature-settings:normal;font-variant-caps:normal;font-variant-ligatures:normal;font-variant-numeric:normal"/>
  </g>
  <g transform="matrix(.28507 0 0 .28507 -18.329 71.518)">
   <rect x="43.806" y="101.07" width="60.181" height="21.251" fill="#fff"/>
   <rect x="43.647" y="121.89" width="60.407" height="22.496" fill="#dc0002" fill-rule="evenodd" style="paint-order:stroke markers fill"/>
   <rect x="43.776" y="101.04" width="60.279" height="43.352" fill="none" stroke="#231f20" stroke-linecap="round" stroke-width=".25" style="paint-order:stroke markers fill"/>
  </g>
 </g>
</svg>
