<?xml version="1.0" encoding="UTF-8" standalone="no"?>
<!-- Created with Inkscape (http://www.inkscape.org/) -->

<svg
   width="79.375mm"
   height="77.714043mm"
   viewBox="0 0 79.375 77.714043"
   version="1.1"
   id="svg5"
   inkscape:version="1.1.1 (3bf5ae0d25, 2021-09-20)"
   sodipodi:docname="300pxVanGogh.svg"
   xmlns:inkscape="http://www.inkscape.org/namespaces/inkscape"
   xmlns:sodipodi="http://sodipodi.sourceforge.net/DTD/sodipodi-0.dtd"
   xmlns="http://www.w3.org/2000/svg"
   xmlns:svg="http://www.w3.org/2000/svg">
  <sodipodi:namedview
     id="namedview7"
     pagecolor="#ffffff"
     bordercolor="#666666"
     borderopacity="1.0"
     inkscape:pageshadow="2"
     inkscape:pageopacity="0.0"
     inkscape:pagecheckerboard="0"
     inkscape:document-units="mm"
     showgrid="false"
     fit-margin-top="0"
     fit-margin-left="0"
     fit-margin-right="0"
     fit-margin-bottom="0"
     inkscape:zoom="0.64052329"
     inkscape:cx="419.18851"
     inkscape:cy="410.60178"
     inkscape:window-width="1920"
     inkscape:window-height="1026"
     inkscape:window-x="0"
     inkscape:window-y="0"
     inkscape:window-maximized="1"
     inkscape:current-layer="layer1" />
  <defs
     id="defs2" />
  <g
     inkscape:label="Warstwa 1"
     inkscape:groupmode="layer"
     id="layer1"
     transform="translate(5.7703637,-39.716426)">
    <g
       id="surface20284"
       transform="matrix(0.12625039,0,0,0.12625039,-29.208058,15.44827)">
      <path
         style="fill:#004285;fill-opacity:1;fill-rule:nonzero;stroke:none"
         d="m 471.09375,420.07812 c -0.52344,6.31641 4.29297,11.83204 10.70703,12.33594 5.60547,0.44922 10.59766,-3.03515 12.16016,-8.13672 0,0 4.90234,3.36719 4.51172,1.75782 0.36718,-0.6836 -9.46485,-13.91797 -21.72266,-20.29688 -12.65625,-5.72266 -17.89063,-3.69922 -26.24609,-1.99609 l -1.40235,0.26953 c 0,0 -9.97265,2.1914 -12.27734,4.49609 -1.70703,1.71485 -4.82422,7.3086 1.28515,12.4336 5.27344,4.22265 14.33204,7.71093 22.98047,9.55078 1.66797,0.32031 2.16797,-0.33203 0.89844,-0.77735 -7.94531,-3.29687 -6.04687,-8.10547 -6.04687,-8.10547 1.59765,-5.42187 10.28906,-5.39062 14.82031,-3.92578 0.8164,0.30469 0.61719,0.98828 0.57812,1.125 -0.12109,0.5625 -0.1875,0.67188 -0.24609,1.26953 m -106.20703,7.50782 c -0.84375,5.30468 -8.82422,17.19922 -4.92188,28.89843 0.89844,2.71485 3.41797,9.77735 5.30469,12.90625 3.02344,6.01954 5.29297,11.17579 8.30078,17.16407 4.19922,8.33984 6.00391,11.29297 10.82813,23.74609 -13.77344,17.69531 -12.67969,28.875 -11.72657,30.06641 1.38672,1.66797 11.27735,-2.83594 17.76172,-3.96485 0.56641,7.26953 -2.30859,16.57032 -2.4414,26.2461 l 0.16797,0.13281 c -0.29688,17.62109 8.17578,32.14844 20.00781,41.98047 12.0039,9.96875 27.45703,15.10937 40.72656,13.70312 31.12109,-3.2539 59.71484,-35.91015 90.05078,-65.4375 30.32813,-29.55468 27.4336,-27.91406 21.0586,-51.1289 -6.375,-23.21094 4.48828,-29.13672 14.99218,-42.04297 10.6836,-13.07813 6.64453,-17.07422 6.64453,-17.07422 -15.67578,23.95703 -43.02343,28.40234 -43.02343,28.40234 -18.89453,3.56641 -43.55469,12.39063 -36.01563,19.63282 7.55469,7.26953 -2.3164,10.54687 -10.79687,17.64062 -8.4961,7.02344 2.57422,14.02734 4.46875,19.12891 2.11328,5.48047 -37.45703,-23.66407 -47.79688,-30.12891 -4.98828,-3.12891 5.36719,-8.78516 -1.14453,-10.24609 -6.33203,-1.40235 -18.91016,4.94922 -22.62109,6.88281 -4.56641,2.35156 -11.92969,5.27344 -18.2461,2.55859 -14.74609,-6.34375 -12.3789,-16.20312 -9.68359,-23.29687 2.65234,-7.0625 6.97266,-20.6211 8.16016,-31.76953 1.2539,-11.16797 6.89062,-18.61328 6.89062,-18.61328 2.81641,-3.55079 0.92188,-12.07032 -12.88672,-18.95704 -15.15625,-5.44921 -19.44922,0.65625 -29.53125,2.41797 -6.70703,1.13282 -9.37109,0.0274 -11.04687,-0.92187 -0.52344,-0.32422 -1.76563,-0.84375 -2.01172,-0.94531 -0.0234,-0.008 -0.0977,-0.0391 -0.0977,-0.0391 0.10547,6.16407 10.16016,13.42969 8.62891,23.0586 m 49.59375,111.11328 c 0.26953,-0.48047 0.98437,-0.36328 2.5625,-0.0898 0.0625,-0.0312 0.10547,-0.0312 0.14844,-0.0586 0,0 12.00781,1.85156 31.25781,-0.98437 17.75781,-2.59375 27.68359,-5.36329 33.375,-4.71094 0.67969,0 1.24609,0.0898 1.66797,0.29297 0.44531,0.125 1.13281,0.51172 0.66797,1.49609 -0.26954,1.10156 -1.50782,2.80469 -4.2461,5.30469 -1.07422,0.98437 -4.71094,3.0664 -6.78906,4.67578 -2.46484,1.34375 -3.81641,2.92187 -4.23828,6.67578 -0.5586,5.19141 -2.16797,6.91406 -4.05078,8.81641 -4.82813,4.94922 -15.76563,-4.58203 -16.3711,-4.94532 -14.35156,-8.375 -20.32422,6.91016 -35.8164,5.51172 -15.51172,-1.36718 0.90625,-20.40625 1.83203,-21.98437 m -30.53125,-121.8711 c 2.22265,0.59766 -1.97656,4.77344 3.95312,8.73438 4.99219,3.30469 8.85157,1.21875 9.96485,1.54687 1.14843,0.32813 -5.67188,4.4375 -17.23828,2.17188 -12.69141,-2.5 -7.625,-14.66016 3.32031,-12.45313 M 536.79297,248.71875 c -43.6836,-19.84766 -115.78516,13.82812 -138.64063,27.56641 -22.88281,13.76171 -19.90625,52.49609 -16.99609,53.39062 0.30469,0.10156 0.65625,0.125 1.04297,0.10547 3.28125,-0.14844 9.87109,-4.19531 27.09765,-8.08984 40.07813,-9 79.01954,-20.28907 96.33594,-30.8125 C 523,280.33203 533.76953,300.83594 547.81641,314 c 14.03515,13.19922 28.99609,17.55078 22.95703,19.19531 -6.03125,1.60547 -9.21875,37.21094 -9.21875,37.21094 0,0 -0.23828,16.66406 9.20703,31.25391 9.48047,14.60546 7.21094,24.23046 1.58984,30.33593 -6.09375,6.61328 6.99219,9.26172 15.03516,2.6836 8.04687,-6.61719 17.73047,-19.73047 33.0039,-18.83203 15.25,0.89453 7.3125,24.19531 8.96094,25 0.10938,0.0547 0.30469,-0.125 0.57422,-0.48829 3.81641,-5.22265 22.65625,-51.74218 12.94141,-99.39453 C 632.47266,290.01562 580.47656,268.625 536.79297,248.71875"
         id="path858" />
      <path
         style="fill:#c7d1d9;fill-opacity:1;fill-rule:nonzero;stroke:none"
         d="m 502.08203,200.24219 c -136.94531,26.16406 -199.86328,84.65234 -199.86328,84.65234 -22.98438,22.10547 -19.75,46.27344 8.57031,72.07813 34.69531,31.55078 14.6875,55.95312 5.09766,65.36718 -9.625,9.41797 -60.48438,38.44141 -25.41797,84.41797 28.47656,37.3711 94.09375,82.41797 117.69922,98 -11.82813,-9.82422 -20.3086,-24.35156 -20.00781,-41.98047 l -0.17188,-0.125 c 0.13672,-9.68359 3.01172,-18.98047 2.44531,-26.25 -6.48437,1.13672 -16.375,5.62891 -17.76172,3.96485 -0.94921,-1.19141 -2.05468,-12.36719 11.72657,-30.0625 -4.82422,-12.46094 -6.62891,-15.40625 -10.82813,-23.7461 -3.01172,-5.99218 -5.27734,-11.15234 -8.29687,-17.16797 -1.89453,-3.13281 -4.41016,-10.1875 -5.30469,-12.90234 -3.90625,-11.70703 4.07422,-23.60156 4.91797,-28.90625 1.53125,-9.61719 -8.51953,-16.88672 -8.62891,-23.05078 0,0 0.0742,0.0273 0.0977,0.0352 -0.22656,-0.83204 -0.375,-1.67969 -0.38281,-2.57422 -0.043,-5.27344 1.13281,-10.64063 4.2539,-15.67188 7.71094,-12.36328 3.52344,-32.65625 11.94531,-43.68359 2.54297,-3.32422 6.1875,-7.98828 10.02735,-12.85156 -0.38672,0.0117 -0.73828,-0.0117 -1.04297,-0.10547 -2.90625,-0.89453 -5.89063,-39.63282 16.99609,-53.39844 22.85547,-13.73828 94.95703,-47.40234 138.64063,-27.55859 43.68359,19.90234 95.67969,41.29687 106.07422,92.24609 9.71484,47.65234 -9.12891,94.17187 -12.94532,99.39062 C 793.24609,303.46484 733.65234,155.93359 502.08203,200.24219"
         id="path860" />
      <path
         style="fill:#004285;fill-opacity:1;fill-rule:nonzero;stroke:none"
         d="m 396.47266,665.69141 c -7.77735,0 -15.51954,2.89062 -21.00391,8.73046 v -7.74609 h -20.57422 v 84.28516 h 21.01953 v -50.96485 c 0,-11.5039 7.47656,-15.3789 14.09375,-15.3789 6.6211,0 13.92188,3.875 13.92188,15.3789 v 50.96485 h 21.07422 v -53.88282 c 0,-9.23437 -1.82422,-17.16796 -8.61719,-23.96093 -4.71094,-4.67578 -11.47656,-7.42578 -19.91406,-7.42578 m 389.72265,0 c -7.46094,0 -14.58203,2.89062 -20.23828,8.73046 v -38.67968 h -21.04687 v 115.21875 h 21.04687 v -51.44141 c 0,-11.02734 6.97266,-14.90234 13.58594,-14.90234 6.65234,0 13.77734,3.70312 13.77734,14.90234 v 51.44141 h 21.03516 v -54.51563 c 0,-17.8164 -9.6875,-30.7539 -28.16016,-30.7539 m -102.8164,64.15234 c 1.78515,0.28516 3.78125,0.25391 6.42578,0.25391 20.39062,0 32.75781,-11.83594 32.75781,-32.19141 0,-6.13672 -1.37109,-10.66406 -4.37891,-15.44141 2.28907,0.17969 3.42188,0.17969 6.10547,0.17969 4.56641,0 6.82422,-3.60156 6.82422,-8.54297 0,-2.65625 -0.73828,-4.98047 -1.48828,-6.5 -1.94141,0 -5.92969,0.17188 -8.43359,0.41406 h 0.23437 c -4.05078,0.15235 -9.35937,0.36329 -13.52734,0.53516 -0.59766,0.39063 -0.39063,0.57031 0,0.77734 -4.38282,-2.11718 -10.28125,-4.38281 -16.98828,-4.38281 -19.58204,0 -33.70704,12.19141 -33.70704,33.71094 0,11.33203 3.75,19.98047 11.26954,25.22656 -0.85547,0.92188 -7.15235,7.6875 -12.25782,13.72656 -5.48437,6.4961 1.16016,16.89844 16.98828,17.79297 15.94532,0.92188 35.67969,-5.51172 40.35547,4.76953 4.7461,10.28516 -14.47656,25.92969 -28.10156,30.07032 -13.59375,4.20703 -18.41797,0.80468 -9.66406,-7.08985 8.77344,-7.93359 13.65625,-17.375 0.45312,-21.19531 0,0 -8.79687,9.17969 -16.27734,17.25781 -10.87891,11.8086 -19.99219,26.61719 3.19141,28.40625 23.1875,1.81641 66.70703,-12.01172 72.39062,-51.85937 5.60547,-38.82031 -74.05078,-4.00781 -52.17187,-25.91797 m 5.29687,-52.14063 c 8.55469,0 13.29688,6.85547 14.45703,18.48047 0.91797,12.03907 -2.50781,20.94532 -11.03125,20.94532 -9.36328,0 -13.91406,-7.41797 -14.875,-19.42579 -1.33984,-13.53515 3.9961,-20 11.44922,-20 M 335.5,750.96094 V 695.4375 c 0,-19.73047 -12.30859,-29.74609 -35.91797,-29.74609 -14.09375,0 -22.20312,2.58984 -30.42969,11.6289 l 13.41797,13.13672 c 4.3711,-5.03516 8.09766,-6.97266 16.17969,-6.97266 11.17578,0 15.67187,4.02344 15.67187,13.26954 v 4.1914 h -19.8789 c -19.57422,0 -28.82031,11 -28.82031,24.44531 0,7.45313 2.45312,14.24219 6.97656,18.94922 5.03906,5.01172 11.98047,7.42188 21.51953,7.42188 9.71484,0 15.05469,-2.41016 20.71484,-8.07813 v 7.27735 z m -21.07813,-31.05469 c 0,5.16016 -0.76953,8.55078 -3.0664,10.69922 -3.69922,3.54687 -7.42188,3.99609 -13.26172,3.99609 -8.25,0 -12.13281,-3.88281 -12.13281,-9.6875 0,-5.96094 4.23828,-9.53515 11.83984,-9.53515 h 16.62109 z m -50.30468,-53.23047 h -22.14063 l -16.99219,52.06641 -17.16796,-52.06641 h -22.17188 l 31.08594,84.28516 h 16.51172 z m 298.25,37.01953 v -16.8164 h -43.54688 v 18.77734 h 21.16016 v 4.35547 c 0,5.98828 -1.42578,11.20312 -5.1211,15.3789 -3.75781,4.04688 -9.24218,6.46485 -16.03906,6.46485 -6.16797,0 -11.17187,-2.26563 -14.39844,-6.02735 -4.38281,-4.78515 -5.51171,-10.30078 -5.51171,-32.50781 0,-22.14453 1.1289,-27.48047 5.51171,-32.33984 3.22657,-3.69141 8.23047,-6.16406 14.39844,-6.16406 11.47266,0 18.12891,5.98828 20.71875,16.86718 h 22.67578 C 559.12109,652.27734 545.5,634.75781 518.82031,634.75781 c -12.96094,0 -22.97656,4.53125 -31.08203,12.60547 -11.66016,11.67578 -11.32812,26.07422 -11.32812,45.95703 0,19.94141 -0.33204,34.33594 11.32812,46.01953 8.10547,8.07422 18.47656,12.57813 31.08203,12.57813 12.28125,0 23.3086,-3.54688 32.54688,-13.08985 8.07812,-8.4375 11,-18.47656 11,-35.13281 m 45.57031,-38.0039 c -12.42969,0 -20.83594,4.82812 -26.01953,10.34375 -7.60156,7.92578 -9.57031,17.46484 -9.57031,32.69921 0,15.375 1.96875,24.91016 9.57031,32.8086 5.18359,5.54687 13.58984,10.375 26.01953,10.375 12.48047,0 21.03906,-4.82813 26.22656,-10.375 7.63281,-7.89844 9.5625,-17.4336 9.5625,-32.8086 0,-15.23437 -1.92969,-24.77343 -9.5625,-32.69921 -5.1875,-5.51563 -13.74609,-10.34375 -26.22656,-10.34375 m 9.89062,63.57031 c -2.41406,2.44531 -5.66406,3.76172 -9.89062,3.76172 -4.17578,0 -7.24609,-1.31641 -9.6875,-3.76172 -4.35547,-4.34766 -4.83203,-11.79688 -4.83203,-20.52735 0,-8.73828 0.47656,-16.03906 4.83203,-20.41406 2.44141,-2.42187 5.51172,-3.70312 9.6875,-3.70312 4.22656,0 7.47656,1.28125 9.89062,3.70312 4.38672,4.375 4.86329,11.67578 4.86329,20.41406 0,8.73047 -0.47657,16.17969 -4.86329,20.52735"
         id="path862" />
    </g>
  </g>
</svg>
