<?xml version="1.0" encoding="UTF-8"?>
<!-- Created with Inkscape (http://www.inkscape.org/) -->
<svg width="79.375mm" height="64.623mm" version="1.1" viewBox="0 0 79.375 64.623" xmlns="http://www.w3.org/2000/svg">
 <g transform="translate(-69.908 -107.14)" fill-rule="evenodd">
  <path d="m142.71 119.92c-1.9659 1.7355-2.8833 6.4054-4.0777 8.8919-0.64462 1.3417-1.6801 2.7039-2.8176 3.665-0.57171 0.48273-3.3777 3.1793-3.9377 1.7734-0.48711-1.2251 0.35585-4.1375 0.78025-5.4005 0.56149-1.6743 1.0938-2.9183 2.1045-4.3782 0.8415-1.2163 1.8974-2.5114 3.1195-3.3616 0.68691-0.47836 1.3884-0.82838 2.1891-1.0705 0.59649-0.18083 2.1628-0.58628 2.6397-0.11959zm-60.719 0.56296c0.13855-0.54545 2.5128-7.0894 2.8031-7.8404 0.09625-0.2523 0.19689-0.52211 0.28293-0.77733 0.20709-0.61837 0.1648-0.61983 0.44627-0.61837 0.99464 4e-3 2.647 0.20126 3.4696 0.78754 0.99756 0.7088 0.82692 2.2795 0.5892 3.3237-0.46524 2.0476-2.2489 3.6037-4.1681 4.3461-0.8415 0.32668-2.5478 0.83421-3.4229 0.7788zm-12.058-3.9042c0.19834 1.333 1.3432 1.9543 2.6601 1.2834 1.298-0.66066 1.1886-1.5474 1.8478-2.561 0.90422-1.387 3.9888-2.9095 5.5799-3.2391-0.5542 1.7122-1.3009 3.5323-1.9382 5.2313-0.3121 0.83566-0.719 1.7866-0.98005 2.6222-0.26543 0.85025-0.36314 0.46523-0.89546 0.88234-1.2017 0.9436-0.27564 2.1322-0.39815 2.6004-0.0875 0.33689-0.36314 0.9363-0.49586 1.2965-0.96547 2.5974-2.0053 5.1569-2.9606 7.7617-0.36314 0.98734-1.6422 4.5342-1.8143 5.3451-0.22897 1.0778 0.15313 2.0112 1.3242 2.1686 1.053 0.14147 1.8259-0.26543 2.6237-0.88816 1.6422-1.2834 2.0899-2.5712 2.6733-4.4934 0.13417-0.44482 1.6655-5.4428 1.7632-5.3874 0.10938 0.76129 0.14146 1.5226 0.26835 2.2985 0.33689 2.0709 0.87651 3.9727 1.7195 5.908 2.0418 4.683 5.154 8.1744 9.1224 11.307 0.94505 0.74671 2.0214 1.4526 3.0525 2.0768 0.95088 0.57461 2.3685 1.5284 3.4623 1.6218h2.5085c1.2907-0.0904 2.5624-0.14002 3.856-0.25231 1.9295-0.16772 3.6635-0.42003 5.5172-0.614 0.55711-0.0583 1.1551-0.11959 1.3447-0.75108 0.42731-1.4117-1.5051-1.4438-2.3845-1.6407-12.996-2.9154-24.106-10.571-24.054-25.267 4.4525-0.71609 8.9065-3.102 10.994-7.2614 0.57899-1.1522 0.859-2.5128 0.79775-3.7992-0.05104-1.0807-0.47544-2.5493-1.2863-3.3121-1.3942-1.3111-2.841-1.8113-4.7311-2.141-1.6568-0.29022-3.8823-0.2946-5.5347-0.10213-4.8113 0.56295-9.6343 2.79-12.639 6.6854-0.65629 0.85172-1.1332 1.7501-1.0034 2.6208zm36.425-9.2915c-1.8259 0.20271-3.6635 2.0111-4.2338 3.7029-0.89255 2.647 0.87505 4.3534 3.5498 3.7671 1.788-0.39231 3.8983-1.6495 4.4219-3.5148 0.66358-2.3699-1.4365-4.2119-3.7379-3.9552zm-4.279 13.463c3.9713-0.58044 2.3364 5.6732 1.6436 7.6931-0.44481 1.3024-1.0996 2.6193-1.8843 3.7496-0.48711 0.7015-2.0272 2.5464-2.8293 2.755-0.56003 0.1473-1.3767-0.65337-1.6772-1.0763-1.9776-2.7885-0.4944-8.3232 1.2892-10.958 0.89984-1.333 1.8624-1.9295 3.4579-2.1628zm5.5245 14.511c-0.33836 1.2353 0.0219 1.9455 0.90858 2.8118 0.71899 0.70296 1.6509 1.1828 2.6106 1.4628 2.2139 0.64462 4.8667 0.30335 7.0193-0.44627 3.3179-1.1565 7.7996-4.6713 7.7412-8.5405-0.035-2.4428-1.5517-3.5133-3.3893-4.7632-0.81088-0.55128-1.6451-1.0661-2.4632-1.6057-0.78171-0.51482-1.9149-1.0894-1.8886-2.1366 0.0598-2.3072 3.9888-2.6368 5.5959-1.9893 1.1069 0.44482 0.73649 1.9076 2.3976 1.3724 0.88964-0.28586 1.893-0.88672 2.4676-1.6305 0.57607-0.74962 1.3578-1.9878 0.30481-2.7141-0.68109-0.46815-2.1745-0.95235-2.9941-1.0705-2.1468-0.31064-4.979 0.18814-7.012 0.94651-1.842 0.68837-3.5804 1.7764-4.8055 3.3354-1.3257 1.6888-1.8464 4.209-0.42148 6.0057 1.8741 2.3656 6.2172 3.8531 6.7437 5.472 1.1055 3.3981-5.1234 5.3101-6.9362 2.9431-0.69128-0.90129-0.42878-2.3524-1.6407-2.4326-1.2776-0.086-2.453 1.104-2.8454 1.2426-0.0641-0.37334-0.59066-1.2251-0.90421-1.4307-0.83567-0.54836-1.1769 0.20417-1.6859 0.39814 1.7049-2.5143 2.9795-4.5663 3.7073-7.5823 0.68837-2.8556 0.67816-6.7816-2.2839-8.3611-2.7185-1.4497-6.3003-0.2596-8.6542 1.4088-1.5663 1.1113-1.4949 1.6772-2.4603 1.5197-2.087-0.33835-3.3893 0.84587-4.4452 2.5522-2.4093 3.891-6.0393 13.355-1.5474 16.799 1.9134 1.4672 4.6961 1.1653 6.8691 0.47544 1.0457-0.33105 0.98734-0.58628 2.2124-0.53523 3.1866 0.13417 5.4238-1.737 7.7996-3.5075zm41.662-1.4365v-0.37628c-0.22897-0.48272-0.59065-1.2805-1.1361-1.4672-0.70879-0.24209-1.2732 0.40981-1.7997 0.79629-0.65629 0.48274-2.6762 1.8843-3.4492 1.8245 0.13709-2.3699 1.6086-6.0568 2.4706-8.3552 0.49294-1.3126 1.0865-2.3947 1.8712-3.5527 0.83275-1.2309 1.8055-2.3101 1.4409-3.9188-0.3121-1.3782-1.5124-2.2634-2.8162-2.6149-1.4861-0.40106-3.4418-0.22897-4.9528 0.0336-2.7783 0.48419-5.294 1.6203-7.4496 3.4448-3.7131 3.1414-7.0733 9.4636-7.4787 14.3-0.28731 3.4171 0.68253 6.5847 4.7909 5.7739 2.7462-0.54253 4.7282-2.3685 6.7262-4.1594-0.11376 1.4511-0.19543 3.3646 1.3563 4.1069 1.3169 0.63003 3.016-0.30773 4.1608-0.96838 1.1536-0.66504 2.2474-1.4482 3.315-2.2401 0.53232-0.39523 1.0544-0.80795 1.578-1.2178 0.54836-0.43023 1.123-0.76129 1.3724-1.4088" fill="#fff"/>
  <path d="m108.82 150.48c-4.5342 0.57608-8.7811 1.0646-12.537 0.89838-8.3552-4.0194-18.491-13.557-16.002-28.225l-0.32377 0.0277-0.36898 1.0355c-0.71754 2.0068-1.3403 3.7671-1.8711 5.2824-0.73358 2.0957-1.2776 4.0821-1.9572 6.1458-0.11959 0.3646-0.28439 0.73066-0.49586 1.0938-0.43461 0.74233-1.349 1.6072-2.0855 2.0199-0.49732 0.28148-1.772 0.45357-1.7049-0.37772 0.03063-0.39231 0.18376-0.9611 0.4594-1.7049 0.27564-0.74379 0.54836-1.5226 0.81817-2.3364 0.20564-0.58919 0.40981-1.1565 0.61253-1.7049 0.20272-0.54691 0.4419-1.1784 0.71462-1.893 0.27126-0.71607 0.59503-1.5518 0.96547-2.5056 0.37335-0.95379 0.82546-2.1395 1.3578-3.5556l0.64024-1.702c-0.22168-0.16044-0.38502-0.39378-0.44627-0.71609-0.10792-0.57899 0.3471-0.85317 1.0442-0.88525l0.66795-1.7909c0.68108-1.8216 2.3072-6.191 3.3514-8.997-2.6908 0.56004-7.5633 2.211-8.5171 5.0622-0.78317 2.3422-3.3018 1.6159-1.6597-0.72336 2.3203-3.3048 6.0612-5.3174 9.9289-6.2391l0.28439-0.0686c1.3359-0.30772 2.7243-0.46231 4.1681-0.46231 1.5547 0 2.8483 0.12688 3.8823 0.37919 1.034 0.2523 1.8624 0.57462 2.488 0.96839s1.0748 0.84878 1.3476 1.368c0.27272 0.51919 0.43898 1.0457 0.50169 1.578 0.66941 5.7447-6.5045 10.345-11.737 10.49-0.71462 19.689 17.377 25.863 26.473 27.538zm-0.94359-41.995c-1.2499-0.49441-2.6806-0.15022-4.0325 1.5036-1.352 1.6538-1.0705 3.3223-0.10499 3.735 1.018 0.43315 3.3004-0.11084 4.6946-1.5838 1.3913-1.473 0.69275-3.1604-0.55711-3.6548zm-27.307 13.083 3e-3 -0.0116c4.7661 0.13564 10.257-2.3072 10.191-7.7587-0.03207-2.6295-1.8784-3.5614-5.9241-3.5614-0.07875 0-0.15897 1e-3 -0.24355 4e-3 -0.84442 2.3101-2.1001 5.7578-2.7404 7.5779-0.45357 1.2907-0.89546 2.5406-1.3242 3.7481zm67.692 12.071c-1.8172 1.4949-6.2843 5.0374-8.3013 5.2197-0.47691 0.0452-0.8488-0.1123-1.1128-0.47106-0.26252-0.35877-0.40252-0.82692-0.4171-1.4074-7e-3 -0.30481 8e-3 -0.6738 0.0452-1.104 0.0365-0.43168 0.0832-0.85607 0.13709-1.2746 0.054-0.41711 0.11521-0.82109 0.18522-1.209 0.07-0.38939 0.13417-0.70878 0.19105-0.95818l-0.18959 0.0176c-1.3913 1.8405-2.8789 3.3266-4.4627 4.4656-1.5824 1.1376-3.0277 1.7676-4.333 1.8857-1.2105 0.10937-2.0141-0.18377-2.4151-0.88089-0.3996-0.69712-0.61545-1.6728-0.64608-2.9227-0.0204-0.824 0.0861-1.7574 0.31356-2.8031 0.23043-1.0471 0.57316-2.1103 1.0238-3.1896 2.4749-5.9138 6.5512-11.659 15.022-12.058 0.32085-0.0146 0.71753-0.0248 1.1974 5e-3 0.47835 0.0336 0.95234 0.12834 1.4176 0.28439 1.4234 0.47689 2.3787 1.9441 1.4482 3.4244-0.84879 1.3446-1.2863 1.7909-2.1424 3.382-0.32084 0.59503-0.66649 1.3957-1.0194 2.4108-0.50023 1.4394-3.1093 7.9498-2.1016 8.9736 0.18085 0.1823 0.39816 0.26397 0.65338 0.23919 0.57315-0.051 1.1988-0.25523 1.8755-0.60525 0.67816-0.35294 1.3767-0.79046 2.0972-1.3155 0.35439-0.25667 0.7117-0.5294 1.0719-0.81233zm-4.2308-14.278c-0.22752-0.16188-0.48566-0.30043-0.77588-0.41128-0.29022-0.1123-0.57899-0.18375-0.86775-0.21875-0.28732-0.035-0.49441-0.0467-0.62275-0.035-0.82691 0.0759-1.6042 0.23772-2.3335 0.48711-0.72628 0.24939-1.4278 0.61253-2.1016 1.0865-0.67524 0.47398-1.3403 1.0763-1.9922 1.8099-0.6519 0.73213-1.3155 1.6334-1.9907 2.7039-0.36898 0.58337-0.7117 1.2717-1.0267 2.0651-0.31502 0.79339-0.5994 1.5926-0.85026 2.3947-0.2523 0.80358-0.44043 1.5692-0.56732 2.2984-0.12396 0.73067-0.1823 1.3242-0.17064 1.7822 0.0233 0.97714 0.23919 1.6218 0.64609 1.9368 0.40543 0.31502 0.83275 0.4521 1.2776 0.41127 1.0821-0.0992 2.2868-1.1142 3.63-2.2605 3.6912-3.1487 3.9362-6.2114 5.4968-10.13 0.0977-0.25084 0.23335-0.5717 0.43023-0.95671 0.19834-0.38502 0.42878-0.74963 0.69275-1.0953 0.26252-0.34563 0.52648-0.64461 0.79046-0.89691 0.47982-0.46086 1.2017-0.35294 0.33544-0.9713zm-15.583-1.3461c-0.56586 1.5051-1.4365 2.0432-2.9124 2.5362-0.51628-1.8974-3.7525-1.9922-5.2824-1.6436-0.54836 0.12542-1.0588 0.32815-1.527 0.61108-0.4696 0.28147-0.85317 0.6417-1.1507 1.0807-0.29752 0.43752-0.44628 0.9538-0.44628 1.5488 0 0.72046 0.2844 1.3126 0.84588 1.7836 0.40836 0.34419 0.87652 0.68982 1.4088 1.034 0.53087 0.34419 1.0646 0.68983 1.597 1.0326 0.53233 0.34418 1.0326 0.68108 1.5022 1.0107 0.46815 0.32814 0.87943 0.64607 1.2222 0.96255 0.4696 0.4346 0.78171 0.86921 0.93776 1.2922 0.1575 0.42294 0.2348 0.89984 0.2348 1.4322 0 0.59357-0.18085 1.2601-0.53962 1.9951-0.36022 0.7365-0.8692 1.4555-1.527 2.1599s-1.4322 1.3622-2.3247 1.9732c-2.9664 2.0316-8.8482 3.207-11.482 0.30481-0.31355-0.34419-0.50169-0.72046-0.56441-1.1274 0.20563-1.1274 2.3028-2.7229 3.3821-2.7229 0.0948 0.46961 0.23481 0.90713 0.42293 1.314 0.18668 0.40835 0.43899 0.77587 0.75109 1.104 0.3121 0.32959 0.71171 0.58628 1.1974 0.77441 0.48566 0.18813 1.0734 0.28293 1.7618 0.28293 0.78171 0 1.5109-0.10213 2.1847-0.30626 0.67087-0.20272 1.2586-0.49148 1.7603-0.86922 0.50024-0.37481 0.89985-0.81962 1.1974-1.3374 0.29752-0.51628 0.44628-1.0734 0.44628-1.667 0-0.62566-0.11814-1.1522-0.35294-1.5736-0.2348-0.42294-0.58482-0.80796-1.0559-1.1507-0.90567-0.6592-1.7851-1.2455-2.6295-1.7618-0.84588-0.51628-1.613-1.0734-2.3014-1.667-0.43752-0.37626-0.77587-0.75983-1.0107-1.1507-0.23334-0.39086-0.35148-0.94651-0.35148-1.667 0-0.3748 0.10213-0.83712 0.30482-1.3855 0.20417-0.54836 0.55565-1.1026 1.0573-1.667 2.2197-2.5012 6.2099-3.6169 9.4388-3.6169 0.99754 0 1.9032 0.16626 2.8191 0.5644 0.37189 0.16189 0.70296 0.32815 0.98589 0.51628zm-29.641 19.674c-1.4876 0.78462-3.0525 1.1784-4.6946 1.1784-0.57315 0-1.1288-0.089-1.6699-0.26252-0.53962-0.175-1.0238-0.4696-1.454-0.88233-0.42731-0.41274-0.7715-0.95381-1.0238-1.6218-0.25376-0.66649-0.3821-1.4774-0.3821-2.4312 0-0.88963 0.08021-1.7166 0.23918-2.4793 0.15897-0.76276 0.38356-1.6203 0.6665-2.5741 0.22605-0.7613 0.48565-1.5182 0.78754-2.2649 0.30043-0.74817 0.61253-1.4468 0.92901-2.0972 0.31793-0.65337 0.64316-1.2411 0.97713-1.7661 0.33398-0.52357 0.64316-0.92901 0.93047-1.2148 0.22168-0.22314 0.50898-0.42149 0.85755-0.59503 0.35002-0.17502 0.74671-0.26398 1.193-0.26398 0.31793 0 0.54836 0.0481 0.69129 0.14438 0.14147 0.0934 0.26106 0.18959 0.35731 0.28585h0.14293c0.50898-0.47689 1.034-0.9465 1.5736-1.4074s1.1201-0.87505 1.7399-1.2396c0.61982-0.36461 1.2951-0.66796 2.0272-0.90568 0.73067-0.23772 1.5736-0.35876 2.5274-0.35876 1.2076 0 2.2168 0.39085 3.0277 1.1696 0.80942 0.7788 1.2148 2.1045 1.2148 3.98 0 1.1449-0.22167 2.4006-0.66795 3.7671-0.44481 1.368-1.0646 2.7112-1.858 4.0296-0.79484 1.3199-1.718 2.5508-2.7666 3.6956-0.88963 0.96983-1.8493 1.7938-2.876 2.4676 0.20272-0.0219 0.37773-0.0437 0.49586-0.0671 0.57754-0.11084 1.8172-0.5469 2.4997-0.89692 0.68399-0.35148 1.3913-0.78755 2.122-1.3097 0.35876-0.25667 0.75254-0.54982 1.1186-0.83275l0.46086 0.70295c-2.526 1.9878-5.2532 4.6392-9.1865 4.05zm6.8429-14.033c0-1.1434-0.23771-2.0899-0.71462-2.8352-0.47836-0.74817-1.3184-1.1215-2.526-1.1215-0.35001 0-0.86775 0.0948-1.5503 0.28586-0.68254 0.19105-1.2936 0.5119-1.8361 0.9538-0.31502 0.25668-0.66796 0.6344-1.0486 1.1434-0.38064 0.509-0.74671 1.1288-1.0967 1.8609-0.35002 0.73066-0.66066 1.5809-0.93047 2.5508-0.2698 0.96985-0.47106 2.0403-0.5469 3.2173-0.01896 0.28584 0.0073 0.73941 0.02334 1.3607 0.01605 0.61981 0.13563 1.2703 0.35731 1.9543 0.22314 0.68399 0.58774 1.3198 1.0967 1.9061 0.50753 0.5892 1.2557 0.96256 2.2416 1.1215 1.0165-0.50752 1.9309-1.2469 2.7418-2.2168 0.81088-0.96985 1.4934-2.0359 2.0491-3.1954 0.55711-1.1594 0.98588-2.3612 1.2878-3.5994 0.3019-1.2411 0.45211-2.3685 0.45211-3.3864zm-9.2492 13.161c-0.76275-0.47691-1.3272-1.0807-1.6918-1.8114-0.36606-0.73067-0.61254-1.4861-0.73942-2.2649-0.12688-0.77879-0.16772-1.5342-0.11959-2.2649 0.04812-0.73213 0.10355-1.3505 0.16626-1.8595h-0.14292c-0.09479 0.28585-0.21439 0.68253-0.35731 1.1915-0.14293 0.50753-0.24356 1.3038-0.30918 2.3845-0.06126 0.98443 0.0073 1.7793 0.21439 2.3845 0.20564 0.60233 0.46815 1.0719 0.78608 1.4059 0.31647 0.33398 0.64462 0.55565 0.97859 0.66795 0.33252 0.11084 0.57899 0.16627 0.73796 0.16627z" fill="#ee2121"/>
  <path d="m73.15 160.15h-0.77004v2.5639c0 0.81234-0.21293 1.0749-0.83567 1.0749-0.63587 0-0.8488-0.26252-0.8488-1.0749v-2.5639h-0.76421v2.5639c0 1.2572 0.44044 1.7282 1.6436 1.7282 1.1536 0 1.5751-0.47107 1.5751-1.7282zm2.0447 2.313 1.209 1.8988h0.85463l-1.1667-1.8186c-0.07875-0.12834-0.19543-0.25085-0.3296-0.36022v-0.0189c0.12834-0.10939 0.20126-0.18814 0.28147-0.31793l1.1346-1.6961h-0.82984l-1.1536 1.7282h-0.41565c0.03063-0.15896 0.04375-0.31793 0.04375-0.48857v-1.2396h-0.76421v4.2119h0.76421v-1.4832c0-0.13417-0.01312-0.27418-0.04375-0.41564zm5.7505 1.8988-0.37773-1.3184c-0.09188-0.40253-0.35439-0.57316-0.56149-0.62274v-0.0306c0.57899-0.0729 0.78754-0.43315 0.78754-1.0617 0-0.95818-0.42731-1.2338-1.4657-1.2338-0.72046 0-1.0501 6e-3 -1.5328 0.0555v4.2119h0.75692v-1.6903l0.75692 6e-3c0.25668 0 0.40398 0.10351 0.48857 0.37774l0.33689 1.3067zm-2.3933-2.313v-1.3257h0.75692c0.53815 0 0.70879 0.13418 0.70879 0.65337 0 0.5192-0.17063 0.66504-0.70879 0.67233zm5.3363 1.123 0.34856 1.1901h0.78171l-1.2644-4.0106c-0.03646-0.12834-0.14584-0.20126-0.27418-0.20126h-0.74525c-0.12834 0-0.23772 0.0729-0.27564 0.20126l-1.263 4.0106h0.78171l0.3471-1.1901zm-0.1823-0.62858h-1.1974l0.42148-1.454 0.09772-0.36023h0.1648c0.01896 0.11667 0.06126 0.24502 0.09188 0.36023zm2.5756 1.8186v-4.2119h-0.76275v4.2119zm4.365-4.2119h-0.74379v2.7228c0 0.22606 0.01165 0.45211 0.03062 0.684h-0.07438c-0.09042-0.22605-0.21293-0.48274-0.29168-0.66649l-1.1492-2.5085c-0.07291-0.15896-0.15166-0.23188-0.31646-0.23188h-0.59211c-0.18376 0-0.28731 0.0977-0.28731 0.28002v3.9319h0.75108v-2.8074c0-0.20856-0.0058-0.42148-0.03646-0.63587h0.07292c0.04229 0.19543 0.17063 0.45794 0.25085 0.62857l1.1842 2.5828c0.06709 0.15896 0.15168 0.23189 0.31648 0.23189h0.60524c0.18376 0 0.28001-0.0977 0.28001-0.28001zm1.7034 4.2119v-4.2119h-0.76275v4.2119zm3.1939-1.1901 0.3471 1.1901h0.78171l-1.263-4.0106c-0.03648-0.12834-0.1473-0.20126-0.27564-0.20126h-0.74379c-0.12834 0-0.23918 0.0729-0.27564 0.20126l-1.2644 4.0106h0.78171l0.34856-1.1901zm-0.18376-0.62858h-1.1959l0.42002-1.454 0.09771-0.36023h0.1648c0.01897 0.11667 0.06126 0.24502 0.09187 0.36023zm5.2386-2.3932h-0.74379v2.7228c0 0.22606 0.01165 0.45211 0.02916 0.684h-0.07293c-0.09187-0.22605-0.21293-0.48274-0.29314-0.66649l-1.1478-2.5085c-0.07292-0.15896-0.15168-0.23188-0.31793-0.23188h-0.59212c-0.1823 0-0.28585 0.0977-0.28585 0.28002v3.9319h0.75108v-2.8074c0-0.20856-0.0073-0.42148-0.03792-0.63587h0.07438c0.04229 0.19543 0.17063 0.45794 0.24939 0.62857l1.1842 2.5828c0.06709 0.15896 0.15314 0.23189 0.31794 0.23189h0.60523c0.1823 0 0.28002-0.0977 0.28002-0.28001zm5.6266 0c-0.17064 0-0.27418 0.0846-0.31648 0.25668l-0.59795 2.2766c-0.054 0.20127-0.0919 0.38502-0.12833 0.58045h-0.0904c-0.0437-0.19543-0.0744-0.37918-0.12834-0.57461l-0.59941-2.2824c-0.0423-0.17209-0.14-0.25668-0.31064-0.25668h-0.79338c-0.19542 0-0.29314 0.1035-0.29898 0.29897l-0.15896 3.9129h0.74525l0.13417-3.595h0.1035l0.73795 2.8016c0.0437 0.16479 0.1473 0.25668 0.32377 0.25668h0.58628c0.17064 0 0.27418-0.0919 0.31647-0.25668l0.7263-2.8016h0.11667l0.14 3.595h0.75255l-0.1721-3.9129c-5e-3 -0.19543-0.1035-0.29897-0.29897-0.29897zm4.3679 3.0218 0.34856 1.1901h0.78025l-1.263-4.0106c-0.0365-0.12834-0.1473-0.20126-0.27418-0.20126h-0.74525c-0.12834 0-0.23772 0.0729-0.27418 0.20126l-1.2644 4.0106h0.78171l0.34856-1.1901zm-0.18376-0.62858h-1.1959l0.42149-1.454 0.0977-0.36023h0.1648c0.0175 0.11667 0.0613 0.24502 0.0904 0.36023zm5.2386-2.3932h-0.74379v2.7228c0 0.22606 0.0116 0.45211 0.0306 0.684h-0.0744c-0.0904-0.22605-0.21292-0.48274-0.29314-0.66649l-1.1478-2.5085c-0.0729-0.15896-0.15168-0.23188-0.31648-0.23188h-0.5921c-0.18377 0-0.2873 0.0977-0.2873 0.28002v3.9319h0.75108v-2.8074c0-0.20856-5e-3 -0.42148-0.0365-0.63587h0.0729c0.0423 0.19543 0.17063 0.45794 0.25084 0.62857l1.1842 2.5828c0.0671 0.15896 0.15168 0.23189 0.31649 0.23189h0.60523c0.1823 0 0.28001-0.0977 0.28001-0.28001zm4.1273 0h-0.76858v2.5639c0 0.81234-0.21439 1.0749-0.83713 1.0749-0.63441 0-0.84879-0.26252-0.84879-1.0749v-2.5639h-0.76276v2.5639c0 1.2572 0.44044 1.7282 1.6422 1.7282 1.1551 0 1.5751-0.47107 1.5751-1.7282zm3.5541 0.62274 0.0423-0.58044c-0.53669-0.0555-1.1974-0.0555-1.7953-0.0555-0.54982 0-0.90277 0.29898-0.90277 0.83129v3.3937h0.76859v-1.8318h1.6611v-0.59211h-1.6611v-0.81088c0-0.26251 0.0919-0.35439 0.36023-0.35439zm2.6616 2.3991 0.3471 1.1901h0.78171l-1.263-4.0106c-0.0365-0.12834-0.1473-0.20126-0.27418-0.20126h-0.74524c-0.12834 0-0.23918 0.0729-0.27564 0.20126l-1.263 4.0106h0.7817l0.34711-1.1901zm-0.18376-0.62858h-1.1959l0.42148-1.454 0.0977-0.36023h0.1648c0.0175 0.11667 0.0613 0.24502 0.0904 0.36023zm4.5736 1.1594c-0.36023 0.0496-0.68983 0.0613-1.228 0.0613-0.69566 0-0.91004-0.35439-0.91004-1.508 0-1.1536 0.21438-1.508 0.91004-1.508 0.50753 0 0.75692 0.0116 1.1361 0.0423l0.0729-0.57899c-0.36605-0.0977-0.64753-0.13563-1.209-0.13563-1.263 0-1.7151 0.57462-1.7151 2.1803s0.45211 2.1803 1.7151 2.1803c0.58045 0 0.92172-0.0437 1.2951-0.15898zm3.7481-2.8993v-0.65337h-3.3573v0.65337h1.2878v3.5585h0.76858v-3.5585zm3.786-0.65337h-0.77004v2.5639c0 0.81234-0.21293 1.0749-0.83567 1.0749-0.63587 0-0.84879-0.26252-0.84879-1.0749v-2.5639h-0.76276v2.5639c0 1.2572 0.43898 1.7282 1.6422 1.7282 1.1536 0 1.5751-0.47107 1.5751-1.7282zm4.0602 4.2119-0.37918-1.3184c-0.0919-0.40253-0.35439-0.57316-0.56149-0.62274v-0.0306c0.58045-0.0729 0.78754-0.43315 0.78754-1.0617 0-0.95818-0.42732-1.2338-1.4657-1.2338-0.72046 0-1.0501 6e-3 -1.5313 0.0555v4.2119h0.75691v-1.6903l0.75693 6e-3c0.25667 0 0.40251 0.10351 0.48856 0.37774l0.33544 1.3067zm-2.3932-2.313v-1.3257h0.75693c0.53668 0 0.70732 0.13418 0.70732 0.65337 0 0.5192-0.17064 0.66504-0.70732 0.67233zm5.7695 1.6976h-1.6495c-0.22022 0-0.30481-0.0919-0.30481-0.35441v-0.94067h1.7282v-0.58628h-1.7282v-0.73795c0-0.26252 0.0846-0.3544 0.30481-0.3544h1.6495l0.0365-0.58629c-0.55565-0.0496-1.2396-0.0496-1.8566-0.0496-0.54982 0-0.89691 0.30627-0.90275 0.80066v2.6368c5e-3 0.49439 0.3471 0.80066 0.90275 0.80066 0.61691 0 1.3009 0 1.8566-0.0496zm3.9319 0.61544-0.37918-1.3184c-0.0919-0.40253-0.35439-0.57316-0.56149-0.62274v-0.0306c0.58045-0.0729 0.78754-0.43315 0.78754-1.0617 0-0.95818-0.42732-1.2338-1.4657-1.2338-0.72046 0-1.0501 6e-3 -1.5313 0.0555v4.2119h0.75691v-1.6903l0.75691 6e-3c0.25669 0 0.40253 0.10351 0.48858 0.37774l0.33544 1.3067zm-2.3932-2.313v-1.3257h0.75691c0.5367 0 0.70734 0.13418 0.70734 0.65337 0 0.5192-0.17064 0.66504-0.70734 0.67233zm-69.241 5.348c-1.2834 0-1.7341 0.51191-1.7341 2.1862 0 1.6728 0.45065 2.1847 1.7341 2.1847 1.2878 0 1.7399-0.5119 1.7399-2.1847 0-1.6742-0.45211-2.1862-1.7399-2.1862zm0 0.65338c0.71316 0 0.93338 0.36022 0.93338 1.5328 0 1.1711-0.22022 1.5313-0.93338 1.5313-0.70879 0-0.92901-0.36022-0.92901-1.5313 0-1.1726 0.22022-1.5328 0.92901-1.5328zm5.1774 0.0481 0.04229-0.57899c-0.5367-0.0555-1.1974-0.0555-1.7953-0.0555-0.54982 0-0.90276 0.29896-0.90276 0.82983v3.3952h0.76858v-1.8318h1.6611v-0.59212h-1.6611v-0.81233c0-0.26252 0.09188-0.3544 0.36023-0.3544zm4.6757 0 0.04375-0.57899c-0.53815-0.0555-1.1974-0.0555-1.7953-0.0555-0.54982 0-0.90422 0.29896-0.90422 0.82983v3.3952h0.77004v-1.8318h1.6611v-0.59212h-1.6611v-0.81233c0-0.26252 0.09188-0.3544 0.36023-0.3544zm1.454 3.5906v-4.2134h-0.76275v4.2134zm4.365-4.2134h-0.74525v2.7243c0 0.22459 0.01165 0.45064 0.03062 0.68253h-0.07292c-0.09188-0.22605-0.21293-0.48127-0.29314-0.66504l-1.1478-2.5099c-0.07292-0.15897-0.15313-0.23189-0.31793-0.23189h-0.59212c-0.1823 0-0.28731 0.0977-0.28731 0.28147v3.9319h0.75108v-2.8089c0-0.20709-0.0058-0.42148-0.03648-0.63441h0.07438c0.04229 0.19543 0.17063 0.45795 0.24939 0.62858l1.1842 2.5828c0.06709 0.15897 0.15313 0.23189 0.31793 0.23189h0.60378c0.18376 0 0.28147-0.0977 0.28147-0.28147zm3.6271 3.5964h-1.6495c-0.22022 0-0.30481-0.0919-0.30481-0.35439v-0.93922h1.7282v-0.58628h-1.7282v-0.73941c0-0.26252 0.08459-0.3544 0.30481-0.3544h1.6495l0.03648-0.58628c-0.55565-0.0481-1.2396-0.0481-1.8566-0.0481-0.54982 0-0.89692 0.30481-0.90422 0.7992v2.6383c0.0073 0.4944 0.34856 0.79921 0.90422 0.79921 0.61691 0 1.3009 0 1.8566-0.0481zm4.3767-0.57316 0.34856 1.1901h0.78171l-1.2644-4.0106c-0.0365-0.1298-0.14584-0.20272-0.27418-0.20272h-0.74525c-0.12834 0-0.23772 0.0729-0.27418 0.20272l-1.2644 4.0106h0.7817l0.34856-1.1901zm-0.1823-0.63003h-1.1974l0.42148-1.4526 0.0977-0.36022h0.1648c0.019 0.11667 0.0613 0.24355 0.0919 0.36022zm4.963 1.8201-0.37772-1.3184c-0.0919-0.40398-0.35439-0.57461-0.56149-0.62275v-0.0306c0.57899-0.0744 0.78755-0.43461 0.78755-1.0632 0-0.95817-0.42732-1.2324-1.4657-1.2324-0.72045 0-1.0501 6e-3 -1.5328 0.054v4.2134h0.75691v-1.6918l0.75693 5e-3c0.25667 0 0.40397 0.10499 0.48856 0.37919l0.33544 1.3067zm-2.3932-2.3145v-1.3242h0.75693c0.53814 0 0.70878 0.13417 0.70878 0.65337 0 0.51919-0.17064 0.66503-0.70878 0.67087zm6.0568-1.2455v-0.65337h-3.3573v0.65337h1.2878v3.56h0.76858v-3.56zm5.2853-0.65337c-0.17064 0-0.2742 0.086-0.31794 0.25668l-0.59649 2.278c-0.0555 0.20126-0.0919 0.38502-0.12834 0.57899h-0.0919c-0.0423-0.19397-0.0729-0.37773-0.12834-0.57316l-0.59795-2.2839c-0.0423-0.17064-0.14147-0.25668-0.3121-0.25668h-0.79192c-0.19542 0-0.29314 0.10499-0.29897 0.29898l-0.15897 3.9144h0.74525l0.13418-3.5964h0.1035l0.73796 2.8031c0.0423 0.1648 0.14584 0.25668 0.32376 0.25668h0.58482c0.17209 0 0.27418-0.0919 0.31648-0.25668l0.72775-2.8031h0.11521l0.14146 3.5964h0.75109l-0.17064-3.9144c-6e-3 -0.19397-0.1035-0.29898-0.30042-0.29898zm4.3679 3.0233 0.34711 1.1901h0.7817l-1.2644-4.0106c-0.0365-0.1298-0.14584-0.20272-0.27418-0.20272h-0.74524c-0.12835 0-0.23773 0.0729-0.27419 0.20272l-1.2644 4.0106h0.78171l0.34856-1.1901zm-0.18375-0.63003h-1.1974l0.42148-1.4526 0.0977-0.36022h0.1648c0.019 0.11667 0.0613 0.24355 0.0919 0.36022zm4.4817-1.7399v-0.65337h-3.3587v0.65337h1.2892v3.56h0.76859v-3.56zm3.2843 2.9431h-1.648c-0.22021 0-0.30627-0.0919-0.30627-0.35439v-0.93922h1.7282v-0.58628h-1.7282v-0.73941c0-0.26252 0.086-0.3544 0.30627-0.3544h1.648l0.0365-0.58628c-0.55565-0.0481-1.2396-0.0481-1.8566-0.0481-0.54837 0-0.89693 0.30481-0.90276 0.7992v2.6383c5e-3 0.4944 0.34856 0.79921 0.90276 0.79921 0.61691 0 1.3009 0 1.8566-0.0481zm3.9319 0.61691-0.37773-1.3184c-0.0919-0.40398-0.35439-0.57461-0.56294-0.62275v-0.0306c0.58045-0.0744 0.789-0.43461 0.789-1.0632 0-0.95817-0.42878-1.2324-1.4657-1.2324-0.72046 0-1.0501 6e-3 -1.5328 0.054v4.2134h0.75692v-1.6918l0.75691 5e-3c0.25669 0 0.40252 0.10499 0.48858 0.37919l0.33543 1.3067zm-2.3932-2.3145v-1.3242h0.75691c0.53816 0 0.70879 0.13417 0.70879 0.65337 0 0.51919-0.17063 0.66503-0.70879 0.67087zm3.8458 2.3145v-4.2134h-0.76274v4.2134zm3.1939-1.1901 0.3471 1.1901h0.78171l-1.263-4.0106c-0.0365-0.1298-0.14729-0.20272-0.27564-0.20272h-0.74379c-0.12833 0-0.23917 0.0729-0.27563 0.20272l-1.263 4.0106h0.78025l0.34856-1.1901zm-0.18376-0.63003h-1.1959l0.42148-1.4526 0.0962-0.36022h0.16627c0.0175 0.11667 0.0598 0.24355 0.0904 0.36022zm2.5654-2.3932h-0.76421v3.3529c0 0.50607 0.24501 0.87213 0.9465 0.87213 0.56879 0 1.142-6e-3 1.6728-0.054l-0.0306-0.59211h-1.4642c-0.2698 0-0.36022-0.0919-0.36022-0.34857zm3.9494 2.5464c0.30626 0.0977 0.44627 0.17064 0.44627 0.55567 0 0.43314-0.15314 0.51335-0.70296 0.51335-0.29313 0-0.5367-5e-3 -1.3374-0.0248l-0.0481 0.56148c0.61107 0.12252 1.1113 0.13418 1.368 0.13418 1.0807 0 1.4949-0.22022 1.4949-1.1784 0-0.61691-0.20126-1.0136-0.8663-1.2265l-0.81234-0.25084c-0.3296-0.1035-0.4696-0.1896-0.4696-0.56149 0-0.45211 0.18959-0.48274 0.70149-0.48274 0.41564 0 0.90422 0.0131 1.2528 0.0248l0.0481-0.54398c-0.4521-0.11522-0.92171-0.14002-1.3242-0.14002-1.0078 0-1.4482 0.1648-1.4482 1.1288 0 0.63003 0.22606 1.0209 0.8488 1.2221z" fill="#211e1e"/>
 </g>
</svg>
