<?xml version="1.0" encoding="UTF-8"?>
<svg width="79.375mm" height="18.82mm" version="1.1" viewBox="0 0 79.375 18.82" xmlns="http://www.w3.org/2000/svg" xmlns:cc="http://creativecommons.org/ns#" xmlns:dc="http://purl.org/dc/elements/1.1/" xmlns:rdf="http://www.w3.org/1999/02/22-rdf-syntax-ns#">
 <metadata>
  <rdf:RDF>
   <cc:Work rdf:about="">
    <dc:format>image/svg+xml</dc:format>
    <dc:type rdf:resource="http://purl.org/dc/dcmitype/StillImage"/>
    <dc:title/>
   </cc:Work>
  </rdf:RDF>
 </metadata>
 <g transform="matrix(.10502 0 0 .10502 36.001 5.5883)" stroke-width=".17639">
  <path d="m-342.27 125.65-0.34829-0.34828-0.0969-0.40138-0.0969-0.40135 0.0966-149.14 27.693-27.73 1.7639-0.84266 725.51-0.0034 0.77208 0.7193v150l-28.489 28.489h-726.46zm730.75-19.299 8.5331-8.5345-0.12162-0.19679-0.12162-0.19679h-702.74l-0.38528 0.1948-0.38528 0.1948-16.669 16.631v0.44236h703.35zm-711.22-8.2659 8.5114-8.5101v-126.54l-0.2884-0.17824-17.174 17.187v126.55h0.43962zm724.42-12.001 0.31498-0.31498 0.0968-126.55-0.1854-0.76908-0.55385-0.55384h-703.83l-0.64514 0.58384v127.24l0.61736 0.53781 0.26459 0.09738 0.26458 0.09738 703.34-0.06052zm-680.59-21.237-0.39532-0.07934-0.26614-0.37996-0.26613-0.37996v-83.314l0.67432-0.83283 32.399-0.10672 4.9864 0.37099 2.9511 0.54492 3.175 0.91191 2.8222 1.1642 2.486 1.37 0.87366 0.5943 0.87365 0.5943 2.4807 2.0364 1.9389 2.2211 1.0933 1.4111 1.5973 2.6458 1.4348 3.3713 0.44477 1.671 0.44476 1.671 0.26247 1.8468 0.26246 1.8468 6e-3 4.5002-0.26042 1.7338-0.26041 1.7338-0.56228 2.4391-0.52694 1.4993-0.52693 1.4993-1.7395 3.3062-2.0271 2.8153-3.4995 3.3589-3.4612 2.2678-3.2753 1.5273-3.3514 1.0705-3.8806 0.74903-5.1153 0.33172-17.686 0.0072-0.21272 0.79375-4e-3 30.549-0.74218 0.67204-12.752 0.04636-0.39533-0.07934zm35.804-46.056 1.3659-0.37822 2.5599-1.1931 1.0676-0.80918 1.0676-0.80917 1.6092-2.051 1.1304-2.2424 0.72662-2.6965 0.018-4.5861-0.30187-1.2347-0.30186-1.2347-0.71699-1.4522-0.71698-1.4522-2.2821-2.4649-2.5344-1.5772-3.175-1.0547-2.7596-0.37731h-18.306l-0.1826 0.34118-0.18258 0.34118v24.741l0.18819 0.35163 0.18818 0.35163 20.173-0.13466zm22.956 46.008-0.37234-0.15468-0.10755-0.28027-0.10756-0.28027 0.32331-1.0133 0.3233-1.0133 28.48-80.61 0.23437-0.56155 0.23438-0.56155 1.0686-0.5526h12.029l0.51518 0.26641 0.51517 0.26641 0.34146 0.63801 28.74 82.526 0.10573 0.36203 0.10571 0.36203-0.25125 0.34353-0.25125 0.34352h-13.641l-0.38562-0.44836-0.38561-0.44836-2.5372-7.4891-2.5372-7.4891-0.67546-1.8521h-31.87l-1.3912 4.1451-4.3265 12.7-0.84739 0.88194-12.957 0.0743zm47.204-30.944v-0.06834l-11.099-32.541-0.1896-0.18967-0.22428 0.22428-11.037 32.025-0.24152 0.61736h22.792zm37.368 30.914-0.46731-0.17124-0.19618-0.47629-0.1962-0.47629 0.0922-83.155 0.62959-0.62995 12.937-0.10098 0.96296 0.39887 0.18784 0.53883 0.18783 0.53883v70.112l0.27902 0.10707 0.27901 0.10707h39.633l0.73117 0.92952v11.441l-0.17267 0.32263-0.17267 0.32263-1.1184 0.38988-53.129-0.02784-0.4673-0.17124zm68.082-1.77e-4 -0.47135-0.17375-0.38022-1.0907v-82.515l0.53005-1.025 0.57282-0.10255 0.57282-0.10254 53.565 0.10108 0.33717 0.41642 0.33718 0.41642v11.555l-0.36498 0.46401-0.365 0.46401-40.104 0.089681v21.872l33.918 0.17639 0.74249 0.67204v11.94l-0.70556 0.70556h-33.485l-0.55802 0.21413v22.502l0.55802 0.21413h39.597l0.38352 0.40824 0.38352 0.40824v11.668l-0.33718 0.41642-0.33717 0.41642-53.918 0.06266-0.47135-0.17375zm88.81 0.02489-0.38536-0.15849-0.18791-0.35113-0.18792-0.35113v-70.332l-0.42333-0.42333h-22.883l-0.66693-0.35693-0.18313-0.65938-0.18311-0.65938v-10.054l0.17593-0.63339 0.17595-0.63339 0.89747-0.40891h60.991l0.84982 0.3231 0.21108 0.50963 0.2111 0.50963-0.10252 11.389-0.83284 0.67401h-23.055l-0.3652 0.68236v70.348l-0.37109 0.33602-0.3711 0.33602-12.928 0.0723zm36.173 0.0058-0.37234-0.15468-0.10754-0.28027-0.10756-0.28027 0.32304-1.0133 0.32302-1.0133 28.661-81.139 0.16335-0.30686 0.16335-0.30686 1.0304-0.53282h12.029l1.0304 0.53282 0.16736 0.31272 0.16738 0.31272 28.745 82.538 0.10645 0.36203 0.10644 0.36203-0.25125 0.34353-0.25125 0.34352h-13.641l-0.39208-0.45586-0.39206-0.45586-2.3534-6.9525-2.3534-6.9525-1.0382-2.9104h-31.851l-3.8089 11.201-1.0101 2.8885-1.0101 2.8885-0.74895 0.74937-12.955 0.0743zm47.204-30.944v-0.06834l-5.5496-16.27-5.5496-16.27-0.09484-0.094836-0.09483-0.094834-0.10945 0.10944-0.10943 0.10944-11.238 32.56-0.0084 0.0882h22.754v-0.06834zm59.311 30.931-0.39687-0.15952v-1.0462l29.072-82.353 0.27507-0.5319 0.27504-0.5319 1.1217-0.39102 11.854 0.0052 0.43132 0.21828 0.43131 0.21828 0.30125 0.52877 0.30126 0.52877 28.802 82.687-0.1078 0.5598-0.87883 0.44463-12.447 0.0052-0.61283-0.25605-0.61281-0.25605-0.1926-0.4936-0.19261-0.4936-5.5538-16.228-31.9-0.09004-5.6058 16.494-0.27628 0.48771-0.27626 0.48771-1.2437 0.34553-12.171-0.0204-0.39688-0.15952zm47.228-30.989v-0.12687l-10.991-32.29-0.146-0.16463-0.14602-0.16463-0.1698 0.16974-10.458 30.322-0.82264 2.3812h22.733zm37.364 30.971-0.47134-0.17259-0.19012-0.54536-0.19011-0.54536v-82.268l0.18784-0.53883 0.18783-0.53883 0.49137-0.20353 0.49139-0.20353 36.477 0.1411 3.8806 0.74393 3.175 0.91637 3.514 1.5675 2.7873 1.6791 1.6483 1.3625 1.6483 1.3625 0.99916 1.1952 0.99915 1.1952 1.8546 2.8222 0.53618 1.0689 0.53621 1.0689 1.2806 3.8276 0.72912 4.2652-0.1912 6.1736-0.34412 1.5875-0.3441 1.5875-0.48387 1.4111-0.48385 1.4111-0.78708 1.5799-0.78709 1.5799-1.8054 2.661-3.741 3.7537-3.3319 2.2001-2.7275 1.3295-1.0797 0.37638 1.4078 2.6965 1.4078 2.6965 15.199 29.457-0.0484 0.52514-0.0484 0.52514-0.88194 0.45176-14.703-0.09094-0.47123-0.35278-0.47122-0.35278-16.457-33.599-15.169 0.08544-0.1764 33.338-0.29286 0.59271-1.0827 0.37743-12.206-0.02784-0.47135-0.17259zm36.962-48.091 1.3896-0.38913 2.6888-1.2884 2.8351-2.8596 1.1139-2.1291 0.38769-1.4049 0.38768-1.4049-8e-3 -3.8806-0.29251-1.2347-0.2925-1.2347-0.62848-1.2732-0.62847-1.2732-2.0995-2.2912-2.5383-1.5773-2.6458-0.87902-2.7596-0.37896h-19.172l-0.55802 0.21413v23.569l0.44097 0.18724 20.99-0.08228 1.3896-0.38912zm57.789 48.169-0.26458-0.10048-0.61736-0.53781v-70.348l-0.3652-0.68236h-23.055l-0.41642-0.33701-0.41641-0.33701-0.1026-11.389 0.2111-0.50963 0.21108-0.50963 0.84983-0.3231h61.031l0.77055 0.40559 0.12959 0.19408 0.1296 0.19408 6e-3 11.906-0.70556 0.70556h-23.036l-0.21166 0.21167-0.21167 0.21167v70.446l-0.33704 0.41642-0.33705 0.41642-12.996 0.06674-0.26458-0.10048z" fill="#cecece"/>
  <path d="m-342.06 125.78-0.39802-0.19191-0.18271-0.634-0.18271-0.63399 0.0516-74.48 0.0516-74.48 27.693-27.717 1.4111-0.77022 725.7-0.08854 0.92996 0.7315v149.99l-27.958 27.986-0.47631 0.25281-0.47632 0.25281-725.77-0.024-0.39803-0.19191zm730.6-19.315 8.4304-8.4183v-0.6258h-703.34l-17.03 17.017v0.44588h703.51zm-711.1-8.3783 8.3344-8.3546v-126.7l-0.39631-0.24493-17.066 17.077v126.67l0.22277 0.22277 0.57098-0.31584zm724.31-12.107 0.33792-0.41731-0.0448-63.582-0.0448-63.582-0.68479-0.50072h-703.78l-0.64514 0.58384 3e-3 63.605 3e-3 63.605 0.12959 0.19146 0.12959 0.19146 0.70556 0.40024 703.56-0.07762 0.33791-0.41731zm-680.72-21.206-0.45958-0.1729-0.20188-0.44307-0.20187-0.44307v-82.687l0.16842-0.44299 0.16842-0.44299 1.3388-0.39866 34.749 0.149 2.6458 0.42045 2.6458 0.54429 3.3514 1.0766 3.6063 1.6881 3.0814 2.0576 3.5511 3.4073 1.0121 1.4057 1.0121 1.4057 1.7374 3.3062 1.0709 2.9986 0.34691 1.5875 0.34692 1.5875 0.20996 1.9403 0.20995 1.9403-0.21534 4.4097-0.26231 1.5928-0.26232 1.5928-0.44374 1.5312-0.44373 1.5312-1.5625 3.5504-1.1898 1.8036-1.1898 1.8036-1.7799 1.772-1.78 1.772-1.1465 0.81369-1.1465 0.81369-2.6303 1.4905-3.1905 1.3148-2.4694 0.72182-1.9403 0.41448-1.9403 0.36804-22.503 0.22035-0.16713 0.26458-0.16712 0.26458-3e-3 15.37-3e-3 15.37-0.33702 0.41642-0.33702 0.41642-12.82 0.0688-0.45959-0.1729zm35.914-45.982 1.4111-0.38843 3.175-1.58 2.014-1.7914 1.7402-2.6019 0.45554-1.3807 0.45553-1.3807 0.40618-2.6458-0.10473-1.6757-0.10472-1.6757-0.741-2.6401-1.2326-2.3456-1.5741-1.8441-1.6672-1.3934-2.829-1.3809-2.8154-0.77717-20.047-0.13516-0.50268 0.41718v25.286l0.44098 0.44144 20.108-0.1197zm23.019 46.018-0.44097-0.12164-0.0534-0.54174-0.0534-0.54174 28.807-81.629 0.73096-1.7198 1.161-0.48509h11.664l1.1803 0.49317 0.12675 0.2051 0.12676 0.20509 28.91 82.96-0.0523 0.52708-0.0524 0.52708-0.88194 0.24328-11.994 0.0332-0.64238-0.17842-0.64235-0.17843-0.19544-0.23549-0.19546-0.23549-5.7727-16.897-31.941-0.09006-0.29192 0.83878-0.29193 0.83878-5.1103 14.991-0.50994 0.77826-1.3262 0.36831-11.818-0.0332zm47.091-31.02-5e-3 -0.13229-11.069-32.456h-0.42861l-5.537 16.051-5.537 16.051-0.197 0.61736h22.778l-5e-3 -0.13229zm37.638 31.055-0.37844-0.07403-0.32711-0.36144-0.3271-0.36144-0.1034-82.601 0.37892-1.312 1.312-0.38469 12.399 0.10922 0.37109 0.33602 0.37106 0.33602v70.125l0.17202 0.45246 0.17203 0.45246h39.834l0.83284 0.67401 0.10252 11.389-0.40767 0.9842-1.2823 0.35619-52.74-0.04608zm68.086 0-0.37844-0.07403-0.32711-0.36144-0.3271-0.36144-0.10344-82.601 0.18614-0.64495 0.18614-0.64495 1.1067-0.3858h53.234l0.498 0.25752 0.49798 0.25752 0.1082 0.40394 0.10822 0.40394 0.0025 5.5808 0.0025 5.5808-0.33717 0.41642-0.33717 0.41642-40.16 0.17639-0.04544 10.896-0.04546 10.896 0.45381 0.17254 0.4538 0.17254h33.138l0.70556 0.70556v11.757l-0.81458 0.76527-33.846 0.08998v22.754l40.16 0.17638 0.67433 0.83283v11.233l-0.2007 0.44049-0.20071 0.44049-1.0623 0.37034-52.952-0.04804-0.37846-0.07403zm88.555-0.12546-0.54688-0.24241-0.11458-0.29862-0.1146-0.29862v-70.28l-0.42333-0.42333h-22.707l-0.77055-0.40559-0.12959-0.19408-0.12959-0.19408-0.00265-5.9258-0.00265-5.9258 0.74256-0.67204 60.905-0.10382 1.2899 0.37268 0.3858 1.1067v10.478l-0.19494 0.55921-0.19494 0.55921-0.32262 0.17267-0.32263 0.17267h-22.883l-0.42333 0.42333v70.446l-0.33703 0.41642-0.33701 0.41642-12.82 0.08308-0.54686-0.24241zm36.285 0.09417-0.42204-0.1182-0.13487-0.36455-0.13485-0.36455 29.242-82.872 0.22341-0.42415 0.22343-0.42415 1.1352-0.47462h11.664l1.1803 0.49317 0.11977 0.19376 0.11975 0.19376 28.923 82.992-0.0519 0.52224-0.0519 0.52223-0.88195 0.24328-11.994 0.0332-0.64238-0.17842-0.64235-0.17843-0.19877-0.23951-0.19879-0.23951-5.7695-16.889-31.936-0.09006-0.41127 1.1484-2.6429 7.7611-2.6429 7.7611-0.25414 0.38812-0.25416 0.38812-0.66312 0.18416-0.66313 0.18416-11.818-0.0332zm47.072-31.023-0.00476-0.13229-11.069-32.456h-0.43584l-11.067 32.103-0.19678 0.61736h22.778l-5e-3 -0.13229zm59.404 30.977-0.48507-0.18235 2e-3 -0.47037 2e-3 -0.47037 29.257-82.875 0.45445-0.45469 0.45447-0.45469 11.899-0.11169 1.3244 0.39086 0.25451 0.38958 0.25453 0.38958 28.722 82.425 0.10819 0.43109 0.1082 0.4311-0.4928 0.6744-12.541 0.10496-0.72471-0.19514-0.7247-0.19514-0.64374-1.4379-5.4151-16-31.965-0.0038-5.7263 16.845-0.857 0.88194-12.781 0.0707-0.48507-0.18234zm47.14-31.008v-0.16375l-10.972-32.216-0.15534-0.16463-0.15537-0.16463-0.10119 0.1012-0.10121 0.1012-8.9288 25.88-2.3302 6.791h22.744zm37.659 31.081-0.35278-0.08594-0.61736-0.54742v-83.675l0.37125-0.33602 0.37126-0.33602 32.33-0.10629 5.6444 0.38036 3.4784 0.68412 3.4008 1.1018 3.175 1.5214 3.3514 2.2 4.074 4.0964 1.6179 2.4843 1.5011 2.9837 0.99254 2.862 0.39775 1.8322 0.39778 1.8322v7.0556l-0.39061 1.7971-0.39064 1.7971-1.0966 3.1085-0.59939 1.1908-0.5994 1.1908-1.2892 2.0281-2.0231 2.4877-2.1911 2.0286-1.8424 1.3611-2.4391 1.5078-2.9986 1.3188 0.1136 0.45629 17.79 34.458v0.71784l-0.27025 0.27025-0.27026 0.27026-1.1352 0.21118-13.951-0.10914-0.88516-0.58042-8.2752-16.865-8.2752-16.865-15.18 0.09188-0.1764 33.338-0.29968 0.61047-1.2878 0.3577-11.818-0.03896zm36.601-48.101 1.1465-0.32164 2.4694-1.1385 2.1576-1.6353 1.4515-1.8814 1.1974-2.6221 0.47618-1.9403-0.014-4.0569-0.39483-1.4049-0.39485-1.4049-1.0742-2.0155-1.5979-1.8775-0.90301-0.68806-0.903-0.68806-2.4694-1.14-2.4694-0.65889h-21.343l-0.0914 23.46 0.1752 0.45865 21.436-0.12279 1.1465-0.32164zm57.901 48.104-0.39532-0.07624-0.26614-0.37996-0.26613-0.37996v-70.407l-0.21167-0.21167-0.21166-0.21167h-22.883l-0.32263-0.17267-0.32262-0.17267-0.19494-0.55921-0.19495-0.55921v-10.478l0.3858-1.1067 1.2899-0.37268 60.905 0.10382 0.74256 0.67204-3e-3 5.9258-3e-3 5.9258-0.12959 0.19408-0.12959 0.19408-0.77056 0.40559h-22.707l-0.21166 0.21167-0.21167 0.21167-6e-3 35.198-6e-3 35.198-0.4585 0.60349-0.96436 0.36665-12.06-0.04804-0.39532-0.07624z" fill="#b2b2b2"/>
  <path d="m-341.75 125.87-0.26458-0.0973-0.61736-0.53781v-149.96l27.958-27.933 1.9432-0.55483 725.01 0.08846 0.7426 0.67204v149.95l-27.958 27.992-0.47631 0.2524-0.47632 0.25239-725.59-0.0278zm730.29-19.407 8.4269-8.4201v-0.62233h-703.34l-17.03 17.017v0.44588h703.52zm-711.28-8.2088 8.5083-8.515v-126.71l-0.39631-0.24493-17.066 17.077v126.67l0.11759 0.11759 0.1176 0.11759h0.2107zm724.39-12.203 0.43295-0.43295v-126.94l-0.27459-0.39202-0.27458-0.39203-704.04 0.0054-0.4189 0.26636-0.18742 0.49296-0.18743 0.49296v125.87l0.19848 0.56934 0.19847 0.56934 0.74958 0.30271 703.37 0.02236 0.43297-0.43296zm-680.9-21.401-0.20945-0.13318-0.18742-0.49296-0.18742-0.49296v-82.51l0.41088-0.90179 1.2648-0.37723 34.572 0.1496 3.6583 0.58093 3.4972 0.88406 3.2515 1.2539 1.3229 0.72296 1.3229 0.72296 2.6458 1.7709 3.9024 3.9083 1.9592 2.9986 1.3026 2.5893 0.59516 1.7921 0.59515 1.7921 0.27631 1.3582 0.2763 1.3582 0.20649 2.2444 0.20648 2.2444-0.21182 2.4828-0.21182 2.4828-0.8196 3.5278-0.90408 2.4694-1.0937 2.3876-1.6307 2.5441-1.8538 2.3234-1.209 1.111-1.2091 1.111-2.9202 2.0805-3.4298 1.7255-3.175 1.1171-2.8635 0.68315-3.6629 0.52062-20.7 0.0064-0.27718 0.27718-0.27719 0.27718v30.843l-0.35277 0.35278-0.35278 0.35278-13.317-0.0054-0.20946-0.13318zm35.046-45.621 1.3229-0.23878 2.293-0.76872 2.4694-1.4488 2.3206-2.3197 1.3726-2.465 0.82434-2.8267 0.20872-3.5942-0.22133-1.3779-0.22134-1.3779-0.484-1.3291-0.48401-1.3291-0.49459-0.78761-0.49458-0.78761-1.2267-1.5046-2.158-1.633-2.4694-1.1783-2.8222-0.7858-20.05-0.12057-0.4998 0.41479v25.286l0.42334 0.42333 19.068-0.0124 1.3229-0.23877zm23.857 45.643-0.22049-0.08897v-0.97138l29.109-82.472 0.60392-1.0224 1.2437-0.34553h11.112l1.3224 0.36724 0.54972 1.063 28.731 82.441 9e-5 0.4662 9e-5 0.4662-0.55802 0.21413h-13.338l-0.36503-0.30868-0.36502-0.30868-5.7634-16.933h-32.036l-5.7678 16.933-0.75983 0.61736-13.278-0.02784-0.22049-0.08897zm47.405-30.892v-0.14057l-5.5587-16.295-5.5587-16.295-0.1714-0.17146-0.1001 0.10009-0.10009 0.10009-5.5206 16.025-5.5206 16.025-0.12382 0.39688-0.12381 0.39688h22.778zm36.937 30.637-0.33602-0.3713v-83.385l0.80368-0.80355h13.182l0.37123 0.33602 0.37122 0.33602v70.348l0.3652 0.68236h39.812l0.83284 0.67439v11.812l-0.67204 0.74259h-54.395zm68.13 0.04873-0.29192-0.32257v-83.614l0.74256-0.67204 53.321-0.10404 1.2807 0.37015 0.20465 0.49403 0.20463 0.49403-0.05126 5.6727-0.05126 5.6727-0.31496 0.31475-0.31494 0.31475-40.018 0.092636-0.18546 0.34651-0.18544 0.34651 0.09628 21.146 0.29386 0.29381 34.042 0.17639 0.25033 0.34239 0.25031 0.34239v11.725l-0.92952 0.73116h-33.63l-0.3652 0.68236v21.566l0.3652 0.68236h39.812l0.83284 0.674 0.05177 5.6161 0.05175 5.6161-0.09611 0.38454-0.09613 0.38454-0.27691 0.27692-0.27693 0.27692h-54.424zm88.885 0.04539-0.27718-0.27718-0.08604-0.063-0.089273-35.454-0.08927-35.454-23.335-0.17639-0.37123-0.33602-0.37121-0.33602v-11.885l0.74258-0.67204h61.662l0.7426 0.67204-0.0026 5.9258-0.0026 5.9258-0.12959 0.19408-0.12959 0.19408-0.77056 0.40559h-22.707l-0.42333 0.42333v70.485l-0.70556 0.70556h-13.38l-0.2772-0.27718zm36.279 0.16036-0.22049-0.08897v-0.97138l29.109-82.472 0.60392-1.0224 1.2437-0.34553h11.112l1.3224 0.36724 0.27215 0.5263 0.27217 0.5263 28.735 82.451 2e-3 0.4662 2e-3 0.4662-0.55802 0.21413h-13.338l-0.7336-0.61736-4.7838-14.078-0.50265-1.4278-0.50264-1.4278h-32.008l-5.7717 16.933-0.75523 0.61736-13.278-0.02784-0.22049-0.08897zm47.405-30.892v-0.14057l-11.117-32.591-0.08573-0.08573-0.08572-0.085728-0.19918 0.19918-11.045 32.051-0.12222 0.39688-0.12224 0.39688h22.778zm59.126 30.797-0.21167-0.21167v-0.63806l29.291-82.988 0.4397-0.44097 0.43972-0.44097 11.796-0.10578 1.4268 0.38421 0.49774 0.7799 28.798 82.726 0.159 0.46653-0.18196 0.34-0.18196 0.34h-13.732l-0.34502-0.37033-0.34501-0.37033-3.1543-9.2253-2.6076-7.6692-31.973-0.0038-3.225 9.4368-2.5372 7.4083-0.78944 0.79375h-13.351l-0.21166-0.21167zm46.785-32.905-0.78677-2.249-4.8295-14.193-4.8295-14.193-0.32416-0.10805-11.192 32.467-0.2014 0.52482h22.95zm37.609 32.794-0.29192-0.32257v-83.614l0.74286-0.67204h35.858l3.175 0.47507 3.017 0.65674 3.1566 1.1026 3.4657 1.7412 2.5962 1.7519 3.2215 3.0657 2.2804 3.0249 1.0475 2.1167 1.0475 2.1167 1.0738 3.6756 0.28251 2.1309 0.2825 2.1309-0.10142 2.4694-0.10143 2.4694-0.27548 1.4111-0.27547 1.4111-0.90126 2.9638-1.3915 3.0119-2.3287 3.498-3.0431 3.0927-2.9986 2.1926-4.658 2.3029 0.72124 1.435 0.72123 1.435 16.343 31.635 0.11582 0.46142 0.1158 0.46142-0.62565 0.69134h-15.213l-0.69891-0.48954-16.549-33.734-15.198 0.0919-0.1764 33.389-0.33602 0.37124-0.33602 0.37124h-13.473zm37.6-47.799 1.2913-0.39356 2.4115-1.2144 1.0414-0.86672 1.0415-0.86672 0.8308-1.2159 0.83077-1.2159 0.42945-1.2349 0.42946-1.2349 0.20606-1.3188 0.20605-1.3188-0.10957-1.4993-0.10955-1.4993-0.49996-1.8586-1.1076-2.3669-1.4393-1.8656-2.1576-1.6353-2.6254-1.2234-3.2622-0.66642-20.394 0.09107-0.0457 11.73-0.0457 11.73 0.0876 0.22926 0.0876 0.22926 21.612-0.12056zm57.005 47.769-0.35278-0.35278v-70.485l-0.21167-0.21167-0.21166-0.21167h-22.707l-0.77056-0.40559-0.12959-0.19408-0.12959-0.19408-3e-3 -5.9258-3e-3 -5.9258 0.37129-0.33602 0.3713-0.33602h61.662l0.74258 0.67204v11.885l-0.37121 0.33602-0.37123 0.33602-23.335 0.17639-0.1786 70.908-0.086 0.063-0.27717 0.27718-0.2772 0.27718h-13.38l-0.35278-0.35278z" fill="#959595"/>
  <path d="m-341.75 125.87-0.26458-0.0973-0.61736-0.53781-2.9e-4 -74.982-2.8e-4 -74.982 27.958-27.917 1.4111-0.48125h725.61l0.3372 0.41642 0.33719 0.41642v149.63l-28.576 28.574-725.93 0.0605zm721.55-10.996 0.49656-0.18453 16.669-16.651v-0.61875h-703.35l-17.205 17.207 0.43148 0.43148h702.46zm-702.54-16.621 8.5083-8.515v-126.9h-0.44589l-17.017 17.03v126.67l0.11759 0.11759 0.1176 0.11759h0.2107zm724.36-12.135 0.46477-0.36558v-127.11l-0.67439-0.83283-703.03-0.10241-1.2808 0.36852-0.19931 0.48431-0.19931 0.4843 0.0918 126.77 0.83283 0.67438h703.53zm-681.03-21.702-0.33602-0.37129-0.0502-41.212-0.0502-41.212 0.20254-1.1352 0.54051-0.54051h35.187l3.8581 0.52131 2.8222 0.70277 2.1167 0.67776 2.4694 1.0405 2.6458 1.4994 1.1465 0.81178 1.1465 0.81178 1.7746 1.7739 1.7746 1.7739 2.3514 3.5488 1.0989 2.4235 0.4945 1.3411 0.49449 1.3411 0.37126 1.7916 0.37127 1.7916 0.18801 2.2001 0.18802 2.2001-0.18429 2.2982-0.18428 2.2982-0.28378 1.3772-0.28377 1.3772-1.0702 3.3514-0.77252 1.5403-0.77253 1.5403-1.214 1.8978-2.0995 2.642-2.9027 2.5578-2.9684 1.9349-3.6031 1.6946-2.9986 0.94342-2.4694 0.52381-3.5278 0.50529-20.396 0.0064-0.68237 0.36519v31.032l-0.35277 0.35278-0.35278 0.35278h-13.351l-0.33602-0.37129zm36.587-45.634 1.2923-0.39345 2.2276-1.01 1.9252-1.4223 1.8397-2.0569 1.3854-2.8222 0.56236-2.1167 0.1924-4.0776-0.60106-2.978-0.99314-2.3701-1.6477-2.3091-2.1297-1.7723-2.7514-1.3834-2.7705-0.79386-20.429-0.12112-0.2915 0.45958-3e-3 12.553-3e-3 12.553 0.22106 0.57608 20.681-0.1218 1.2923-0.39345zm22.467 45.794-0.21167-0.21167 2e-3 -0.72319 29.267-82.869 0.38894-0.414 0.38904-0.414h12.93l0.79935 0.85086 28.771 82.493 0.0826 0.48668 0.0826 0.48669-0.4365 0.52594h-13.539l-0.64485-0.64484-2.1252-6.1461-3.6681-10.846-32.067 0.08582-2.887 8.4667-2.887 8.4667-0.73924 0.61736h-13.296zm47.413-30.819v-0.16282l-10.445-30.631-0.7052-2.0452-0.17507 0.058358-0.17508 0.058358-11.247 32.62-3e-3 0.13229-3e-3 0.13229h22.754v-0.16282zm36.981 30.708-0.29192-0.32257v-83.614l0.32256-0.29192 0.32258-0.29192h13.411l0.58384 0.64514v70.545l0.42334 0.42333h39.418l0.88598 0.33685 0.19798 0.66942 0.198 0.66942-0.11246 10.811-0.67204 0.742h-54.395zm68.086 0-0.29192-0.32257v-83.614l0.32256-0.29192 0.32258-0.29192 54.3 0.0054 0.41891 0.26636 0.18741 0.49296 0.18743 0.49296v10.508l-0.37035 1.0624-0.44048 0.2007-0.4405 0.2007h-39.424l-0.42333 0.42333v21.247l0.27718 0.27718 0.2772 0.27718 33.577 0.0054 0.19408 0.12959 0.19408 0.12959 0.40559 0.77056v11.328l-0.43295 0.43295-0.43296 0.43296h-33.694l-0.3652 0.68236v21.652l0.22049 0.29747 0.22049 0.29747 39.94 0.08986 0.31494 0.31491 0.31496 0.31491v11.768l-0.33602 0.37139-0.33602 0.37139h-54.395l-0.29192-0.32257zm88.856-0.048713-0.33602-0.37128-0.088195-35.392-0.088194-35.392-23.335-0.17639-0.74239-0.67204v-11.685l0.54917-0.78405h62.014l0.29192 0.32257 0.29192 0.32257v11.824l-0.37121 0.33602-0.37123 0.33602-23.142 0.09571-0.13767 0.21673-0.13769 0.21673-0.0026 35.2-0.0026 35.2-0.7193 0.77208h-13.337l-0.33602-0.37128zm36.3 0.15962-0.21167-0.21167 0.0042-0.72319 29.25-82.852 0.39658-0.42213 0.39658-0.42213h12.93l0.79315 0.84428 28.57 81.97 0.19854 0.736 0.19853 0.736-0.23091 0.27824-0.23093 0.27824h-13.539l-0.64627-0.64627-0.88539-2.5432-0.88536-2.5432-2.0106-5.9519-2.0106-5.9519-32.072 0.08578-5.771 16.933-0.73748 0.61736h-13.296l-0.21167-0.21167zm47.413-30.814v-0.15727l-10.445-30.642-0.70506-2.0452-0.35306 0.11769-11.246 32.619-0.0021 0.13229-0.0021 0.13229h22.754v-0.15727zm59.126 30.814-0.21167-0.21167v-0.57862l29.296-83.047 0.44333-0.39688 0.44334-0.39688h12.883l0.74489 0.83627 28.713 82.331 0.20016 1.3586-0.49221 0.31167-13.27 0.0054-0.8751-0.68836-2.8829-8.4753-2.8829-8.4753h-32.003l-1.0382 2.9104-4.7151 13.935-0.79047 0.79375h-13.351zm45.663-36.257-1.9108-5.6003-3.6616-10.76-3.6616-10.76-0.14915-0.16463-0.14916-0.16463-0.0882 0.08826-0.0883 0.088258-11.295 32.744v0.12852h22.914zm38.792 36.116-0.35278-0.35278v-83.353l0.27459-0.39202 0.27458-0.39203 36.228 0.0064 3.5838 0.50952 1.7079 0.40612 2.9986 0.88109 3.8905 1.8392 3.1651 2.1287 2.7842 2.6008 1.8284 2.2996 0.6444 1.0117 0.64439 1.0117 0.53837 1.0665 0.53836 1.0665 1.0402 2.8993 0.35609 1.4993 0.35611 1.4993 0.21072 2.4362 0.21069 2.4362-0.21353 2.1527-0.21354 2.1527-0.35332 1.4793-0.35333 1.4793-0.46969 1.323-0.46968 1.323-0.77809 1.5163-0.77811 1.5163-0.9974 1.3982-0.99741 1.3982-3.0059 3.0244-2.193 1.5875-2.915 1.684-2.3769 0.9618-2e-3 0.10653-2e-3 0.10653 8.9141 17.263 8.9141 17.263 0.10264 0.40893 0.10263 0.40893-0.62566 0.69134h-15.109l-0.52033-0.48507-0.52031-0.48507-16.135-32.985-0.17251-0.22598-0.17251-0.22598-14.793 0.09919-0.25026 0.34239-0.25025 0.34239v33.039l-0.32256 0.29192-0.32258 0.29192h-13.29l-0.35278-0.35278zm36.365-47.521 1.2943-0.24853 2.4204-0.91297 2.4096-1.6019 0.80949-0.90035 0.8095-0.90035 1.1927-2.1547 0.37862-1.2347 0.3786-1.2347 0.10224-1.7671 0.10221-1.7671-0.30097-1.4853-0.30097-1.4853-0.42062-1.0352-0.42063-1.0352-1.59-2.2282-1.6896-1.4136-0.88847-0.52345-0.88845-0.52345-1.0518-0.39506-1.0518-0.39506-2.5887-0.49807h-20.418l-0.18259 0.34118-0.1826 0.34118v22.624l0.1826 0.34118 0.18259 0.34118h20.418zm58.18 47.521-0.35278-0.35278v-70.35l-0.10707-0.27901-0.10707-0.27901h-22.693l-0.98593-0.37485-0.13317-0.20945-0.13319-0.20945-3e-3 -5.9258-3e-3 -5.9258 0.32256-0.29192 0.32258-0.29192h61.953l0.27459 0.39203 0.27458 0.39202v11.685l-0.37119 0.33602-0.3712 0.33602-23.335 0.17639-0.0882 35.392-0.0882 35.392-0.67204 0.74257h-13.351l-0.35278-0.35278z" fill="#6d6d6d"/>
  <path d="m-342.34 125.5-0.29192-0.32258v-149.9l27.605-27.594 1.5875-0.71349 725.91-0.0078 0.27458 0.39203 0.27459 0.39202v149.58l-28.484 28.492h-726.58zm730.95-19.104 8.5783-8.5783-0.2436-0.39414h-703.5l-17.096 17.085 0.22974 0.27683 0.22975 0.27683 703.22-0.0884zm-711.36-8.1339 8.5114-8.5101v-126.91h-0.43962l-17.023 17.02v126.91h0.43962zm724.42-12.158 0.40826-0.38353v-127.24l-0.7426-0.67204h-703.92l-0.62996 0.62995-0.0896 127.18 0.86735 0.86736h703.7zm-681.04-21.635-0.29193-0.32257v-83.614l0.64514-0.58384h34.92l3.8581 0.51128 2.4694 0.56179 2.293 0.73657 1.0583 0.43174 1.0583 0.43174 2.4694 1.256 2.9986 2.0503 2.5862 2.3655 1.862 2.3337 1.5742 2.4623 1.4365 3.175 0.72614 2.2931 0.51226 2.1167 0.21406 1.4993 0.21407 1.4993-7.1e-4 2.6458-7e-4 2.6458-0.41994 2.8222-0.42056 1.6805-0.42055 1.6805-0.44842 1.1913-0.44841 1.1913-1.2032 2.3702-1.5297 2.3521-2.3844 2.7868-1.8489 1.5945-2.7962 2.0047-3.9066 1.9091-3.3514 1.0663-2.3862 0.54165-4.3061 0.5331h-19.96l-0.42334 0.42333v30.644l-0.20279 0.38528-0.2028 0.38528-0.19408 0.12959-0.19408 0.12959-13.263 0.0054-0.29192-0.32257zm33.171-45.179 1.9778-0.16364 2.3944-0.5803 3.2668-1.5657 2.45-2.3112 0.59322-0.91217 0.59323-0.91217 0.9348-2.202 0.29252-1.4437 0.29253-1.4437-0.1778-4.4356-0.87828-2.7046-1.3422-2.4107-2.3206-2.3197-2.4694-1.4522-2.668-0.88887-2.4473-0.37445-19.226 0.096416-0.0453 12.926-0.0452 12.926 0.79604 0.3199 16.051 0.0166 1.9778-0.16364zm25.839 45.29-0.21167-0.21167v-0.6315l29.29-82.994 0.44614-0.39688 0.44615-0.39688h12.661l0.45099 0.39688 0.45098 0.39688 28.927 83.039v0.58719l-0.42333 0.42333h-13.362l-0.47151-0.48507-0.4715-0.48507-5.6418-16.671-32.105 0.09004-2.828 8.2903-2.828 8.2903-0.42006 0.75225-0.56782 0.21789h-13.13zm46.523-33.699-1.053-3.0427-9.1305-26.811h-0.438l-5.5388 16.051-5.5388 16.051-0.10133 0.39688-0.10134 0.39688h22.955zm37.932 33.558-0.35277-0.35278v-83.554l0.32256-0.29192 0.32258-0.29192h13.29l0.35278 0.35278 0.35277 0.35278v70.485l0.42334 0.42333h39.464l0.77056 0.40559 0.12959 0.19408 0.12959 0.19408 0.0026 5.9258 0.0026 5.9258-0.32256 0.29192-0.32258 0.29192h-54.212l-0.35278-0.35278zm68.086 0-0.35278-0.35278v-83.554l0.32256-0.29192 0.32258-0.29192h54.334l0.29192 0.32257 0.29192 0.32257-0.0026 5.8951-0.0026 5.8951-0.13319 0.20945-0.13317 0.20945-0.98593 0.37485h-39.241l-0.42333 0.42333v21.247l0.27718 0.27718 0.2772 0.27718h33.639l0.37232 0.47331 0.3723 0.47332-0.05082 5.7824-0.05083 5.7824-0.62988 0.62953-33.736 0.09346-0.47078 0.39071v22.111l0.42333 0.42333h39.464l0.77056 0.40559 0.12959 0.19408 0.12959 0.19408 0.0026 5.9258 0.0026 5.9258-0.32256 0.29192-0.32258 0.29192h-54.212zm88.795-0.018503-0.33602-0.37128-0.088195-35.392-0.088194-35.392-23.403-0.17639-0.3371-0.41642-0.33711-0.41642v-11.603l0.70556-0.70556h61.858l0.29192 0.32257 0.29192 0.32257v11.824l-0.37118 0.33602-0.37119 0.33602-23.335 0.17639-0.17638 70.783-0.67204 0.74257h-13.296zm36.3 0.15961-0.21167-0.21167v-0.64306l29.288-82.983 0.89459-0.79375h12.661l0.89796 0.79375 28.931 83.05v0.57622l-0.42333 0.42333h-13.362l-0.47151-0.48507-0.4715-0.48507-5.6444-16.67-32.103 0.08936-5.4693 16.051-0.24407 0.58001-0.24405 0.58-0.63398 0.3393h-13.182zm46.609-33.435-0.96402-2.7781-9.3077-27.34h-0.4433l-11.07 32.103-0.2026 0.79375h22.952zm59.884 33.368-0.2308-0.27812 0.18245-0.64793 0.18246-0.64793 28.421-80.433 0.38024-1.0127 0.38024-1.0127 0.75985-0.53222h12.767l0.41705 0.49563 0.41704 0.49563 28.831 82.731v0.69711l-0.21166 0.21167-0.21167 0.21167h-13.315l-0.87219-0.79375-2.8369-8.3493-2.8369-8.3493v-0.1484l-32.143 0.09005-2.8872 8.4667-2.8872 8.4667-0.37554 0.30868-0.37555 0.30868h-13.323zm47.552-30.899-0.12155-0.30868-10.936-32.103-0.15914-0.16463-0.15914-0.16463-0.21646 0.21647-11.036 32.039-0.24242 0.79375h22.992zm36.949 30.824-0.35278-0.35278v-83.432l0.70556-0.70556h35.741l3.8581 0.52409 2.2931 0.54289 2.8222 0.92218 3.3252 1.5435 3.554 2.3646 3.5521 3.5396 1.1717 1.7706 1.1717 1.7706 0.70113 1.5808 0.70111 1.5808 0.52793 1.8521 0.52791 1.8521 0.21677 1.4111 0.21678 1.4111 4e-3 5.4681-0.31348 1.7639-0.31346 1.7639-0.58094 1.7773-0.58093 1.7773-1.4867 2.9569-1.5224 2.308-2.0528 2.3604-1.0393 0.90534-1.0393 0.90534-1.8375 1.3575-2.9887 1.7137-2.1792 0.86556v0.2631l18.056 34.979-0.25931 0.46209-0.25933 0.46209-15.234 0.09194-0.51444-0.48694-0.51442-0.48694-16.134-32.985-0.1806-0.22593-0.18059-0.22593-14.954 0.09908-0.16714 0.26458-0.16717 0.26458-3e-3 16.615-3e-3 16.615-0.39202 0.27459-0.39203 0.27458h-13.151l-0.35278-0.35278zm36.689-47.53 1.3226-0.30463 2.0972-0.85218 1.122-0.73105 1.122-0.73104 1.9472-2.1509 1.3758-2.8222 0.58494-2.9824-0.0955-1.8602-0.0956-1.8602-0.3843-1.2347-0.38432-1.2347-1.2609-2.2931-2.3446-2.2931-1.9435-1.1506-2.0927-0.73698-2.2931-0.4875-20.713-0.00614-0.18388 0.34357-0.18387 0.34357 0.0908 23.027 0.44098 0.23177 0.44097 0.23177 20.108-0.14124 1.3226-0.30463zm57.957 47.605-0.27717-0.27718-0.086-0.063-0.1786-70.908-23.335-0.17639-0.3712-0.33602-0.37117-0.33602v-11.885l0.32256-0.29192 0.32258-0.29192h61.797l0.35278 0.35278 0.35277 0.35278v11.603l-0.67421 0.83283-23.403 0.17639-0.1764 70.783-0.67204 0.74256h-13.326z" fill="#525252"/>
  <path d="m-342.36 125.43-0.27458-0.39202v-149.59l27.958-27.945 1.3116-0.54135h725.61l0.3424 0.25036 0.34239 0.25036 0.0447 74.932 0.0447 74.932-28.485 28.493h-726.62zm730.92-18.989 8.6266-8.6213-0.12247-0.19814-0.12245-0.19814h-703.5l-16.701 16.669-0.34595 0.62465 0.10676 0.17275 0.10676 0.17274h703.32zm-711.26-8.2245 8.5542-8.5555 0.0968-126.03-0.1916-0.79375h-0.43561l-17.108 17.111-0.0484 63.014-0.0484 63.014 0.0958 0.39688 0.0958 0.39687h0.43562zm724.43-12.082 0.35278-0.35278v-127.33l-0.46477-0.36558-0.46475-0.36558h-703.58l-0.43295 0.43295-0.43296 0.43296v126.97l0.73116 0.92952h703.94zm-681-21.618-0.39203-0.27459v-83.71l0.64514-0.58384h34.735l4.1808 0.54829 3.9364 1.0149 2.7294 1.0842 2.1916 1.0996 2.8222 1.8483 2.7369 2.355 1.959 2.3684 1.5251 2.308 1.4074 2.8073 0.45117 1.2559 0.45118 1.2559 0.35017 1.4781 0.35016 1.4781 0.39452 2.8222 2e-3 2.6129 2e-3 2.6129-0.40346 2.8881-0.69384 2.8222-0.86246 2.4118-1.183 2.5605-1.9822 3.01-2.4278 2.6729-1.9001 1.6473-3.0173 2.0023-1.49 0.72541-1.49 0.72541-3.5278 1.219-3.8806 0.74924-3.6534 0.35611h-19.295l-0.42334 0.42333v30.75l-0.73116 0.92952h-13.125l-0.39202-0.27458zm33.651-45.239 1.6757-0.17562 2.6259-0.71862 2.6658-1.3892 1.5875-1.3053 1.672-1.9621 0.61125-1.2347 0.61126-1.2347 0.29426-1.0583 0.29427-1.0583 0.1732-4.6527-0.29833-1.3778-0.29833-1.3778-1.5866-3.3013-2.7076-2.6959-1.0157-0.5957-1.0157-0.5957-2.3783-0.86758-2.4694-0.53903-18.874-0.1651-0.97014 0.37312v25.744l0.61736 0.35958 17.11 0.0046 1.6757-0.17562zm25.212 45.236-0.23081-0.27812 0.35898-1.2959 29.01-82.197 0.8791-0.79375h12.661l0.88554 0.79375 28.646 82.197 0.36368 1.2959-0.2308 0.27812-0.23083 0.27812h-13.343l-0.88954-0.79375-5.7453-16.933h-32.057l-5.7697 16.933-0.45465 0.39688-0.45466 0.39688h-13.166zm47.519-30.546 0.0797-0.13229-11.191-32.808h-0.4871l-11.33 32.808 0.0682 0.13229 0.0682 0.13229h22.713zm36.983 30.471-0.35277-0.35278v-83.432l0.35277-0.35278 0.35278-0.35278h13.229l0.35278 0.35278 0.35277 0.35278v70.35l0.10707 0.27901 0.10707 0.27901h39.45l0.98593 0.37485 0.13317 0.20945 0.13319 0.20945 0.0026 5.9431 0.0026 5.9431-0.78405 0.54917h-54.073l-0.35278-0.35278zm68.086 0-0.35278-0.35278v-83.432l0.70556-0.70556h54.273l0.29192 0.32257 0.29192 0.32257-0.0026 5.8951-0.0026 5.8951-0.16723 0.26458-0.16722 0.26458-40.243 0.17639-0.16722 0.26458-0.16723 0.26458-0.0026 10.68-0.0026 10.68 0.42333 0.42333h33.741l0.67204 0.74259v11.768l-0.31494 0.31498-0.31492 0.31498-33.738 0.09516-0.23435 0.1945-0.23437 0.1945v22.111l0.42333 0.42333h39.241l0.98593 0.37485 0.13317 0.20945 0.13319 0.20945 0.0026 5.9431 0.0026 5.9431-0.78405 0.54917h-54.073zm88.939 0.07819-0.39202-0.27459v-70.536l-0.70556-0.70556h-23.099l-0.55114-0.84115 0.051029-5.8556 0.051012-5.8556 0.34239-0.2502 0.34241-0.2502h61.669l0.35278 0.35278 0.35278 0.35278v11.763l-0.32256 0.29192-0.32258 0.29192h-22.615l-0.90234 0.34307-0.04539 35.352-0.04538 35.352-0.67204 0.74257h-13.096zm36.156 0.06292-0.21167-0.21167v-0.58495l29.304-83.041 0.87856-0.79375h12.661l0.44215 0.39688 0.44214 0.39688 28.823 82.726 0.164 0.79578-0.43749 0.52714h-13.343l-0.88896-0.79375-5.754-16.933h-32.048l-2.8873 8.4667-2.8873 8.4667-0.90581 0.79375h-13.139zm47.471-30.612 0.07888-0.13229-5.597-16.404-5.597-16.404h-0.4844l-5.6647 16.404-5.6647 16.404 0.06874 0.13229 0.06872 0.13229h22.713zm59.016 30.417-0.18542-0.40698 29.387-83.235 0.39271-0.39688 0.39272-0.39688h12.696l0.9123 0.79375 28.585 82.021 0.19914 0.736 0.19915 0.736-0.23091 0.27824-0.23093 0.27824h-13.378l-0.39677-0.39688-0.39675-0.39688-2.0971-6.1736-2.0971-6.1736-0.80836-2.2931-0.80833-2.2931-31.961-0.09006-0.72103 2.0735-0.72101 2.0735-4.4384 13.053-0.36655 0.30868-0.36656 0.30868h-13.374zm47.642-30.409v-0.12477l-11.201-32.914-0.24022 0.045431-0.24024 0.045429-11.246 32.632-4e-3 0.44097h22.931v-0.12477zm36.872 30.43-0.35966-0.38604v-83.365l0.70556-0.70556h35.565l3.9856 0.52568 3.5767 0.90357 3.175 1.2586 2.9406 1.5905 2.8803 2.1275 1.3306 1.3391 1.3306 1.3391 1.8284 2.4694 1.9129 3.7042 0.53509 1.5875 0.53511 1.5875 0.28198 1.3863 0.28197 1.3863 0.16549 2.1682 0.16551 2.1682-0.1735 1.9771-0.17351 1.9771-0.55108 2.6951-0.43818 1.3229-0.43819 1.3229-0.84684 1.7639-0.84685 1.7639-2.1994 3.0664-3.4057 3.3029-2.6458 1.7746-2.2931 1.2468-2.0285 0.81655v0.32842l17.775 34.443 0.11719 0.38785 0.11721 0.38785-0.36179 0.3618-0.36181 0.3618h-14.945l-0.43374-0.34118-0.43373-0.34118-16.542-33.713h-14.892l-0.55437 0.55437v33.136l-0.70556 0.70556h-13.215zm34.83-47.238 1.5875-0.16936 2.1167-0.54062 2.9986-1.4625 2.6791-2.6791 1.4724-2.9986 0.25834-1.2347 0.25836-1.2347 3e-3 -1.6201 3e-3 -1.6201-0.27115-1.2904-0.27116-1.2904-0.71879-1.4857-0.71878-1.4857-2.7216-2.7216-2.9714-1.435-2.1167-0.5556-3.3514-0.33294-18.001-0.0091-0.78404 0.54917 3e-3 11.588 3e-3 11.588 0.25918 0.38808 0.26459 0.10072 0.26458 0.10072 18.168 0.02173 1.5875-0.16936zm59.779 47.253-0.33602-0.37129-0.0908-70.705-0.90233-0.34307h-22.677l-0.29193-0.32257-0.29192-0.32257v-11.702l0.70556-0.70556h61.711l0.27693 0.27692 0.27692 0.27692 0.1922 0.76908-0.0517 5.5735-0.0518 5.5735-0.24208 0.29141-0.24209 0.29141h-23.064l-0.70555 0.70556v70.536l-0.78405 0.54917h-13.096z" fill="#2d2d2d"/>
  <path d="m-342.28 125.47-0.35278-0.35278v-149.66l27.781-27.823 1.4111-0.66121 725.73-0.0078 0.7324 0.93108-0.0894 149.53-28.403 28.397h-726.45zm730.86-19.057 8.6468-8.6504-0.68479-0.5144h-702.32l-1.1352 0.49409-16.72 16.757 0.10833 0.28231 0.10834 0.28231h703.35zm-711.34-7.9646 8.3316-8.3248 0.18509-0.45059 0.18508-0.45059-0.0914-126.29-0.33423-0.06436-0.33422-0.06437-16.552 16.528-0.25312 0.47631-0.25313 0.47631v126.25l0.11759 0.11759 0.1176 0.11759h0.5499zm724.45-12.235 0.39203-0.27459v-127.5l-0.38605-0.35965-0.38603-0.35965h-703.74l-0.43295 0.43295-0.43296 0.43296v127.13l0.7193 0.77208h703.88zm-681-21.774-0.35278-0.35278v-83.432l0.70556-0.70556h33.829l3.6534 0.3619 3.6863 0.73279 3.5457 1.2203 2.9837 1.4626 3.0136 1.9998 1.9001 1.6473 1.2139 1.3364 1.2139 1.3364 1.8861 2.867 0.52916 1.0583 0.52915 1.0583 0.54245 1.4993 0.54246 1.4993 0.26854 1.0583 0.26855 1.0583 0.54256 3.6137-6e-3 5.2058-0.48808 3.175-0.36516 1.4209-0.36517 1.4209-0.45935 1.2249-0.45934 1.2249-0.88795 1.7016-0.88796 1.7016-2.2497 2.9976-3.1418 2.9575-3.0316 2.0381-3.6208 1.7252-3.3488 1.0815-3.5649 0.68795-4.5147 0.3666-18.381 0.0054-0.43528 0.27648-0.0469 15.573-0.047 15.573-0.83283 0.67432h-13.014zm36.16-45.49 1.4993-0.40228 2.8222-1.3542 1.168-0.96813 1.168-0.96813 1.7768-2.6565 0.75942-2.0297 0.54646-2.3107-0.014-4.2333-0.36635-1.4009-0.36636-1.4009-1.3109-2.6663-3.0077-3.0224-2.9196-1.4981-3.4304-0.92368-19.461-0.1403-0.73527 0.3935v25.67l0.22049 0.22231 0.22048 0.22231 19.932-0.12992 1.4993-0.40228zm22.886 45.652-0.30869-0.17979v-0.52046l28.547-80.865 0.89658-2.4694 0.37913-0.30868 0.37914-0.30868h12.622l0.37914 0.30868 0.37913 0.30868 0.44857 1.2347 0.44856 1.2347 28.193 80.898v0.30359l-0.27718 0.27718-0.27719 0.27718h-13.22l-0.79435-0.79435-3.6113-10.583-1.0964-3.2182-1.0965-3.2182-32.087 0.08636-2.8808 8.4667-2.8808 8.4667-0.88884 0.79375-12.945-0.0108-0.30868-0.17979zm47.462-30.752-0.057-0.25106-11.112-32.653-0.52917-0.002116-11.257 32.716-0.1578 0.44097h23.171l-0.057-0.25105zm37.008 30.577-0.46476-0.36558v-83.406l0.35277-0.35278 0.35278-0.35278h13.204l0.73116 0.92952v70.517l0.90492 0.34405h39.433l0.58385 0.64514v11.702l-0.70556 0.70556h-53.927zm68.086 0-0.46477-0.36558v-83.406l0.70556-0.70556h54.151l0.70556 0.70556v11.763l-0.32256 0.29192-0.32258 0.29192h-39.595l-0.34117 0.18259-0.34119 0.1826v21.613l0.42333 0.42333h33.541l0.78405 0.54917v11.949l-0.27718 0.27718-0.2772 0.27718h-33.289l-0.90491 0.34405v22.595l0.90491 0.34405h39.433l0.29192 0.32257 0.29192 0.32257v11.702l-0.70556 0.70556h-53.927zm88.788 0.0128-0.35278-0.35278v-70.53l-0.27718-0.27718-0.2772-0.27718h-23.057l-0.27693-0.27692-0.27691-0.27692-0.096167-0.38454-0.096185-0.38454 0.051805-5.4939 0.051823-5.4939 0.67204-0.74206h61.681l0.35278 0.35278 0.35278 0.35278v11.642l-0.70556 0.70556h-22.863l-0.59572 0.44097-0.04454 35.337-0.04454 35.337-0.83284 0.67437h-13.014zm36.292 0.16226-0.30868-0.17979v-0.5449l28.792-81.547 0.34466-0.92452 0.34466-0.92452 0.37992-0.26611 0.37992-0.26611h12.638l0.79063 0.79375 0.93486 2.6458 28.068 80.553v0.29564l-0.27718 0.27718-0.27719 0.27718h-13.22l-0.7947-0.7947-3.1962-9.3477-2.6076-7.6708-32.094 0.08612-2.877 8.4667-2.877 8.4667-0.88896 0.79375-12.945-0.0108-0.30868-0.17979zm47.462-30.745-0.057-0.24389-11.112-32.667-0.52917-0.003175-5.6281 16.359-5.6281 16.359-0.0793 0.22049-0.07932 0.22049h23.171l-0.057-0.24389zm59.04 30.652-0.28318-0.28317 0.2183-0.75658 29.162-82.672 0.84185-0.84776h12.632l0.89131 0.79375 28.644 82.197 0.1879 0.67804 0.18789 0.67804-0.6946 0.5079-13.353-0.10009-0.58589-0.72541-5.7818-17.004-32.094 0.09004-2.8821 8.4667-2.8822 8.4667-0.45869 0.39688-0.4587 0.39688h-13.008zm47.536-30.541 5e-3 -0.13229-11.201-32.907-0.51985 0.10012-11.202 32.454-9e-3 0.30868-9e-3 0.30868h22.931l5e-3 -0.13229zm36.94 30.391-0.43295-0.43295v-83.048l0.36558-0.46476 0.36559-0.46476h34.686l3.6534 0.36143 2.8222 0.56138 3.175 0.98741 0.70556 0.2954 0.70555 0.2954 1.4111 0.7134 1.4111 0.7134 2.1167 1.4231 1.0583 0.867 1.0583 0.867 1.3051 1.4405 1.3051 1.4405 1.8448 2.8222 0.52431 1.0583 0.52434 1.0583 0.45878 1.2347 0.45879 1.2347 0.6943 2.8222 0.19601 1.304 0.19598 1.304v5.0555l-0.26365 1.6384-0.26363 1.6384-0.45379 1.5659-0.45378 1.5659-1.0295 2.4192-0.72002 1.2329-0.72003 1.2329-2.0994 2.786-2.8116 2.645-2.2346 1.5946-1.6684 0.88703-1.6684 0.88703-1.5875 0.61102-0.0852 0.05728 17.989 34.854v1.0238l-0.93384 0.35504-14.755-0.09919-0.3435-0.35278-0.34348-0.35278-16.434-33.514-15.039-0.09202-0.24086 0.1999-0.24086 0.1999-3e-3 16.603-3e-3 16.603-0.1296 0.19408-0.12959 0.19408-0.77055 0.40559h-12.739l-0.43297-0.43296zm37.099-47.51 1.4607-0.38445 2.62-1.2955 0.87274-0.72064 0.87275-0.72064 0.73177-0.88194 0.73178-0.88194 0.61465-1.2674 0.61462-1.2674 0.25471-1.202 0.25469-1.202 3e-3 -1.868 3e-3 -1.868-0.33961-1.3278-0.33958-1.3278-0.58646-1.2139-0.58644-1.2139-2.8222-2.86-2.9986-1.4636-2.8222-0.77363-20.854-0.12871-0.57682 0.57682v23.233l0.5746 0.5746 20.857-0.13052 1.4606-0.38445zm57.517 47.606-0.41642-0.33718-0.0445-35.337-0.0445-35.337-0.59572-0.44097h-22.863l-0.70556-0.70556v-11.642l0.70556-0.70556h61.681l0.67204 0.74206 0.1036 10.988-0.1924 0.76908-0.27692 0.27692-0.27693 0.27692h-23.057l-0.2772 0.27718-0.27717 0.27718v70.53l-0.70556 0.70556h-13.014z"/>
 </g>
</svg>
