<?xml version="1.0" encoding="UTF-8"?>
<svg width="79.375mm" height="15.126mm" version="1.1" viewBox="0 0 79.375 15.126" xmlns="http://www.w3.org/2000/svg" xmlns:cc="http://creativecommons.org/ns#" xmlns:dc="http://purl.org/dc/elements/1.1/" xmlns:rdf="http://www.w3.org/1999/02/22-rdf-syntax-ns#">
 <metadata>
  <rdf:RDF>
   <cc:Work rdf:about="">
    <dc:format>image/svg+xml</dc:format>
    <dc:type rdf:resource="http://purl.org/dc/dcmitype/StillImage"/>
    <dc:title/>
   </cc:Work>
  </rdf:RDF>
 </metadata>
 <g transform="translate(24.875 -71.273)">
  <g transform="matrix(.52065 0 0 .52065 -11.924 34.164)" fill-rule="evenodd" stroke-width=".26458">
   <path d="m122.42 90.781c0.26506-0.69956 0.67175-1.3683 1.1018-1.8766 0.39728-0.46733 0.90821-0.89898 1.462-1.1679 0.45775-0.22236 1.0222-0.3656 1.5144-0.16854 0.0976 0.03903 0.18949 0.09073 0.27405 0.15412 0.11179 0.08533 0.20209 0.1919 0.26408 0.31835 0.19445 0.39664 0.0642 0.87207-0.12753 1.2429-0.25619 0.49559-0.67826 0.93779-1.1193 1.2755-0.46823 0.34742-1.5524 0.76851-2.1839 0.81121-0.10663 0.28938-0.17256 0.64291-0.19338 0.93914-0.0365 0.51924 0.0311 1.224 0.70127 1.224 1.4184 0 2.337-1.8656 2.8155-2.9686 0.23371-0.5256 0.83841-0.3996 0.58306 0.1366-0.71813 1.5528-1.5012 3.4973-3.5415 3.4973-1.0049 0-1.7256-0.65775-1.842-1.6187-0.50678 0.7793-1.146 1.4536-1.8976 1.5359 0.049 0.79602-0.0506 1.6373-0.23011 2.4076-0.29995 1.2868-1.1537 3.5149-2.6558 3.7787-0.11544 0.0203-0.23217 0.0279-0.34851 0.0225-0.67839-0.0242-1.0493-0.36828-1.0668-1.0681-0.0232-0.7552 0.2807-1.7444 0.51856-2.4567 0.35253-1.0556 0.77899-2.1003 1.2125-3.1279-0.29683 0.24204-0.6196 0.40592-0.96623 0.44384 0.049 0.79602-0.0506 1.6373-0.23011 2.4076-0.29996 1.2868-1.1537 3.5149-2.6558 3.7787-0.11544 0.0203-0.23214 0.0279-0.34851 0.0225-0.67839-0.0242-1.0493-0.36828-1.0668-1.0681-0.0232-0.7552 0.28072-1.7444 0.51858-2.4567 0.34912-1.0454 0.7707-2.0799 1.1999-3.098-0.29014 0.26027-0.59412 0.43426-0.90151 0.46069-0.40542 0.02458-0.78296-0.15671-0.99983-0.50406-0.2181-0.34922-0.24668-0.80087-0.19622-1.236-0.27017 0.3856-0.57094 0.76136-0.89302 1.0723-0.43566 0.41735-1.108 0.84966-1.7258 0.55856-0.49236-0.23207-0.68426-0.78814-0.72702-1.3274-0.46207 0.66508-1.0169 1.2442-1.8336 1.8222-2.1085 1.447-4.7054 1.8355-7.0854 0.8178-4.5798-1.9358-3.4627-8.2147-0.9757-11.403-0.3107-1.2506-0.38822-2.8558-0.05435-4.0908 0.11687-0.49673 0.75882-0.52732 0.6382 0.14819-0.16804 0.9625-0.07601 2.0499 0.08781 3.0314 1.8471-2.2298 4.4402-3.4066 7.3597-3.074 1.0215 0.11525 2.0672 0.42259 2.8845 1.0681 0.64439 0.50895 1.091 1.1891 1.2635 1.9948 0.32578 1.5215-0.3923 3.0662-1.514 4.0765-1.5261 1.3746-3.6152 1.7395-5.5999 1.4504-1.9365-0.27932-3.4971-1.1515-4.4241-2.8908-0.06903 0.12195-0.13218 0.25477-0.1841 0.36483-0.15862 0.33621-0.29774 0.68524-0.42275 1.0352-0.32681 0.91506-0.57536 1.8957-0.68223 2.862-0.12343 1.116-0.07144 2.3928 0.51747 3.3817 0.43527 0.73091 1.0946 1.1875 1.8999 1.4358 1.1511 0.34425 2.4155 0.36944 3.5898 0.13123 0.79827-0.16192 1.5781-0.4499 2.279-0.8676 1.1967-0.70377 1.8307-1.5592 2.4114-2.6391 0.25849-0.90956 0.78626-1.7728 1.374-2.4765 0.21212-0.25101 0.45786-0.47556 0.72345-0.66887 1.003-0.72998 2.6692-1.2087 3.6352-0.15798 0.31882 0.34166 0.14597 0.84069-0.32663 0.75718l-0.0874-0.0154-0.0253-0.08509c-0.18788-0.63196-0.81002-0.63246-1.3111-0.36163-0.88646 0.49244-1.792 1.6341-2.3206 2.5004-0.28115 0.49199-0.62587 1.1922-0.7144 1.7525-0.0268 0.18735-0.0573 0.58473 0.14531 0.69932 0.14459 0.0817 0.36531-0.0011 0.49861-0.06935 0.28257-0.14459 0.54467-0.39476 0.74689-0.63571 0.62529-0.7503 1.1164-1.6153 1.5727-2.4752 0.29192-0.55726 0.61082-1.2658 1.3521-1.2195 0.21812 0.01675 0.4967 0.11983 0.70961 0.07427l0.47551-0.10189-0.34391 0.34385c-0.16401 0.1641-0.34604 0.46662-0.46627 0.6659-0.21953 0.36383-0.42162 0.74358-0.60457 1.127-0.21506 0.45093-0.44686 0.98549-0.55089 1.4735-0.0415 0.21238-0.0831 0.47903-0.0598 0.69562 5e-3 0.04434 0.0254 0.17822 0.0749 0.20029 7e-3 0.0031 0.0151 4e-3 0.0226 4e-3h3e-3l3e-3 1.59e-4c0.19558 0.0093 0.44728-0.21153 0.68197-0.48458-0.0191-0.13512-0.0204-0.27305-4e-3 -0.40913 0.0339-0.27895 0.15322-0.59931 0.38513-0.77012 0.16256-0.12793 0.36073-0.21651 0.56668-0.23199 0.18669-0.32872 0.36245-0.6654 0.52777-1.0029 0.47347-1.0425 0.95821-2.08 1.4545-3.1116 0.55237-1.148 1.1184-2.2947 1.7187-3.4171 0.3633-0.70731 0.77131-1.3247 1.6456-1.3247 0.24979 0 0.51863 0.12367 0.76692 0.09054l0.44545-0.05937-0.32842 0.30676c-0.33513 0.3129-0.65337 0.7574-0.91377 1.1337-0.41918 0.60566-0.80661 1.2403-1.1772 1.8767-0.95078 1.6328-1.8199 3.3374-2.6182 5.0495-0.1546 0.33152-0.30655 0.66421-0.45575 0.99817 0.2866 0.3837 0.4526 0.86344 0.54549 1.3255l0.0275 0.11935c0.32041-0.02566 0.6432-0.26085 0.9467-0.59584-0.0162-0.1279-0.0164-0.25802-7.9e-4 -0.38653 0.0339-0.27895 0.15322-0.59931 0.38515-0.77012 0.15963-0.12565 0.35367-0.21336 0.55571-0.23106 0.2373-0.4313 0.42791-0.8342 0.54837-1.0891l2e-3 -0.0034 2e-3 -0.0033c0.0228-0.04228 0.0489-0.07763 0.0772-0.1065 0.44479-0.9757 0.89945-1.9471 1.3642-2.9132 0.55237-1.148 1.1184-2.2947 1.7187-3.4171 0.36333-0.70731 0.77134-1.3247 1.6457-1.3247 0.24977 0 0.51861 0.12367 0.76689 0.09054l0.44548-0.05937-0.32845 0.30676c-0.3351 0.3129-0.65334 0.7574-0.91377 1.1337-0.41918 0.60566-0.8066 1.2403-1.1772 1.8767-0.95078 1.6328-1.8199 3.3374-2.6182 5.0495-0.1546 0.33152-0.30658 0.66421-0.45575 0.99817 0.2866 0.3837 0.4526 0.86344 0.54547 1.3255l0.0275 0.11935c0.89149-0.07133 1.8011-1.765 2.2645-2.716zm-22.471-5.9463c0.75843 1.8713 2.219 2.8023 4.1947 3.0198 1.661 0.18404 3.4392-0.14253 4.6595-1.3612 0.86228-0.86119 1.35-2.1387 1.0145-3.3446-0.37311-1.341-1.5817-2.019-2.8886-2.207-2.8688-0.42362-5.4758 1.6331-6.9801 3.893zm16.074 9.3695c-0.27398-0.0038-0.58748-0.08041-0.82654-0.21751-0.0389 0.09853-0.0775 0.19719-0.11575 0.29602-0.26966 0.69564-0.52538 1.3979-0.76028 2.1061-0.19902 0.59992-0.38777 1.2109-0.53658 1.8248-0.0742 0.31872-0.15779 0.72946-0.13808 1.0583 4e-3 0.06585 0.0237 0.26262 0.10075 0.29369 0.0805 0.03246 0.24575-0.07895 0.3048-0.12314 0.19309-0.14449 0.37248-0.35277 0.51737-0.54515 0.86982-1.136 1.4476-3.2236 1.4543-4.6931zm-0.0493-0.63669c-0.0215-0.2046-0.0636-0.4096-0.13745-0.60031-0.0293-0.06541-0.0652-0.13213-0.1052-0.19653l-0.25969 0.58828c0.1125 0.13454 0.33089 0.19828 0.50234 0.20857zm3.5856 0.63669c-0.27395-0.0038-0.58746-0.08041-0.82651-0.21751-0.0389 0.09853-0.0775 0.19719-0.11578 0.29602-0.26966 0.69564-0.52538 1.3979-0.76025 2.1061-0.19905 0.59992-0.38778 1.2109-0.53658 1.8248-0.0742 0.31872-0.15782 0.72946-0.13808 1.0583 4e-3 0.06585 0.0237 0.26262 0.10072 0.29369 0.0805 0.03246 0.24577-0.07895 0.3048-0.12314 0.1931-0.14449 0.37251-0.35277 0.51737-0.54515 0.86982-1.136 1.4477-3.2236 1.4543-4.6931zm-0.0493-0.63669c-0.0215-0.2046-0.0636-0.4096-0.13745-0.60031-0.0293-0.06541-0.0652-0.13213-0.1052-0.19653l-0.25969 0.58828c0.11253 0.13454 0.33089 0.19828 0.50234 0.20857zm4.3732-2.8149c0.14918-0.03021 0.3056-0.07771 0.42151-0.11681 0.32525-0.1098 0.65082-0.26334 0.93353-0.45868 0.0667-0.04612 0.13158-0.09496 0.19362-0.14666 0.35619-0.29967 0.66797-0.71559 0.8318-1.1536 0.0494-0.13189 0.18013-0.57946 0.0342-0.69016-0.0983-0.07459-0.34238 0.0666-0.42215 0.11755-0.3847 0.24585-0.77396 0.68543-1.0618 1.0342-0.33327 0.41016-0.66858 0.92816-0.93065 1.4142z" fill="#15130e"/>
   <path d="m75.235 85.025c-0.66776 0.07228-1.3475 0.11562-2.0063 0.15764-0.70247 0.05022-1.4356 0.10467-2.1419 0.20709-0.48337 1.1027-1.0501 2.2007-1.5987 3.2634l-0.01257 0.02445-0.01434 0.02344c-0.44514 0.7298-1.1249 1.1544-1.9863 1.1544-0.59378 0-1.1258-0.20886-1.5776-0.5924-0.49432-0.4195-0.75208-0.98134-0.75208-1.6295 0-0.43952 0.28837-1.1145 0.459-1.5182 0.327-0.77362 0.69458-1.5395 1.0665-2.2948-0.05479-0.20294-0.07975-0.41227-0.06757-0.62667l5.29e-4 -0.0109 0.0011-0.0108c0.06294-0.74012 0.66678-1.1546 1.3038-1.3928 1.0549-1.8094 2.1648-3.5871 3.3172-5.3361 0.70146-1.0637 1.44-2.1665 2.2439-3.1556 0.39775-0.48927 1.0614-1.3165 1.753-1.3165 1.2681 0 2.0237 0.85095 2.3462 2.0157l0.0089 0.03196 6e-3 0.03254c0.21672 1.1612 0.45196 2.3206 0.68469 3.4787 0.50488 2.3884 1.0496 4.7692 1.6131 7.1444 0.03582 0.13494 0.09861 0.28739 0.14891 0.41693 0.11766 0.30303 0.24384 0.60481 0.37153 0.90622 0.20913 0.50186 0.45008 1.1539 0.45008 1.7029 0 0.64326-0.2503 1.2009-0.72866 1.6342-0.45191 0.40412-1.012 0.62103-1.6197 0.59828-1.2252-0.04771-1.9823-1.5102-2.4081-2.484-0.3511-0.78031-0.62992-1.5975-0.86053-2.4238zm-0.9616-4.0451c-0.05374-0.28231-0.10819-0.56444-0.16317-0.84653-0.17402 0.29509-0.34814 0.59007-0.5225 0.88503 0.0067-5.29e-4 0.01333-0.0011 0.01995-0.0013 0.21347-0.01262 0.43924-0.02323 0.66572-0.03715z" fill="#15130e"/>
   <path d="m78.533 89.161c-0.57224-0.02228-1.1519-0.69861-1.7316-2.0252-0.38648-0.85834-0.71348-1.8431-0.99216-2.9616-0.53512 0.07805-1.4121 0.15981-2.6346 0.23786-1.1445 0.08176-2.0215 0.17462-2.6309 0.28239-0.33443 0.79891-0.91411 1.9991-1.7428 3.6045-0.31954 0.5239-0.76174 0.78401-1.3266 0.78401-0.40132 0-0.75803-0.13748-1.0776-0.40876-0.31956-0.27122-0.47937-0.61685-0.47937-1.0404 0-0.36788 0.53134-1.6239 1.5904-3.7642-0.10403-0.22667-0.14491-0.43482-0.13375-0.63172 0.02971-0.34933 0.38277-0.62055 1.0553-0.81754 1.0331-1.7836 2.1776-3.6342 3.441-5.5516 1.8134-2.7498 2.9319-4.1247 3.3518-4.1247 0.79891 0 1.334 0.48308 1.6015 1.4492 0.14491 0.77666 0.37534 1.9397 0.68744 3.4929 0.4422 2.0921 0.98097 4.4814 1.6202 7.1755 0.05204 0.20063 0.23778 0.67998 0.5574 1.4343 0.26014 0.62428 0.39015 1.0925 0.39015 1.4046 0 0.4236-0.15608 0.77293-0.47191 1.059-0.31583 0.28239-0.67633 0.41622-1.0739 0.40132zm-4.0615-11.17c-0.56851 0.97361-1.3489 2.2964-2.341 3.9723 0.327-0.07432 0.83235-0.1301 1.5236-0.1747 0.81373-0.04826 1.3265-0.08914 1.5347-0.11885-0.1747-0.9439-0.41248-2.1701-0.71721-3.6788z" fill="#e51069"/>
   <path d="m48.48 71.899c0.39881-0.27704 0.86278-0.41817 1.3673-0.41817 1.1934 0 1.8988 0.77446 2.1286 1.8941 0.15031 0.7474 0.20103 1.5247 0.20103 2.2861 0 0.52488-0.15391 1.012-0.45752 1.4381-0.43392 0.61576-1.0818 0.9139-1.8275 0.9139-1.0156 0-1.7416-0.58073-2.1528-1.4863l-0.0029-0.0064c-0.02072-0.04683-0.05808-0.12867-0.09594-0.19288-0.15925-0.0158-0.36782-0.01265-0.4944-0.01265-0.91279 0-2.0446 1.2273-2.575 1.8581-1.1707 1.3888-2.3339 3.2041-2.3339 5.0872 0 0.58843 0.18447 1.078 0.58571 1.5073 0.37272 0.39619 0.79679 0.60349 1.3431 0.60349 0.64365 0 1.2589-0.1896 1.8301-0.4767 0.52374-0.28546 1.0838-0.68736 1.5764-1.0237l0.0081-0.0055c0.47747-0.31724 1.1241-0.6939 1.7134-0.6939 0.64955 0 1.2224 0.2491 1.6711 0.71954 0.40876 0.43034 0.6363 0.95964 0.6363 1.5544 0 0.69043-0.31591 1.2672-0.83791 1.7116-1.8831 1.5886-4.0904 2.7101-6.5974 2.7101-1.8474 0-3.4304-0.68308-4.6996-2.0279-1.2008-1.2839-1.8217-2.8197-1.8217-4.5789 0-3.0046 1.4847-5.6966 3.3698-7.9442 1.5519-1.8419 3.6087-3.4969 6.1354-3.4969 0.30956 0 0.62034 0.0095 0.92824 0.03625 0.13388 0.01151 0.26839 0.02529 0.40214 0.04376z" fill="#15130e"/>
   <path d="m49.891 77.24c-0.654 0-1.1371-0.3456-1.4493-1.033-0.14491-0.327-0.28982-0.52395-0.43474-0.59084-0.10776-0.04831-0.39759-0.07432-0.86207-0.07432-0.91411 0-1.9694 0.70977-3.166 2.133-1.6759 1.988-2.5157 3.8497-2.5157 5.585 0 0.79153 0.26384 1.4678 0.79518 2.0364 0.53142 0.56478 1.1631 0.84717 1.9063 0.84717 0.71721 0 1.4455-0.18947 2.1887-0.56478 0.26011-0.14121 0.81008-0.49427 1.6536-1.0702 0.56483-0.37531 0.99586-0.56478 1.2857-0.56478 0.43476 0 0.80634 0.15976 1.1111 0.47929 0.28239 0.29729 0.42357 0.63918 0.42357 1.022 0 0.43103-0.18952 0.80261-0.56478 1.1222-1.9955 1.6833-4.0281 2.5268-6.0979 2.5268-1.635 0-3.0137-0.59457-4.1358-1.7836-1.0739-1.1483-1.6127-2.4971-1.6127-4.0504 0-2.4302 1.0628-4.9125 3.1883-7.4467 1.8097-2.1479 3.6564-3.2217 5.5442-3.2217 0.31581 0 0.60566 0.01109 0.86206 0.03342 0.26011 0.02228 0.48681 0.05199 0.68368 0.0966 0.31591-0.3121 0.70234-0.46821 1.152-0.46821 0.73948 0 1.1965 0.4236 1.3712 1.2746 0.12256 0.60939 0.18571 1.3192 0.18571 2.133 0 0.36417-0.10403 0.69488-0.31581 0.99216-0.27496 0.39016-0.67628 0.58711-1.1965 0.58711z" fill="#e51069"/>
   <path d="m60.557 76.532c-0.08326 1.4802-0.09694 2.9784-0.09694 4.4552l-0.0093 4.0969c0.72522-0.01206 1.4505-0.01791 2.1759-0.01791 0.62661 0 1.1899 0.21757 1.6312 0.66461 0.42929 0.43476 0.65394 0.97938 0.65394 1.5907 0 0.61579-0.23085 1.1603-0.67186 1.5901-0.45098 0.43953-1.0186 0.65043-1.6467 0.65043-0.61696 0-1.235 0.01207-1.8518 0.02585-0.62802 0.01405-1.2583 0.02992-1.8864 0.02992-0.68138 0-1.4254 0.0958-2.1011 0.1832-0.74573 0.09602-1.5501 0.19576-2.3023 0.19576-0.62815 0-1.1957-0.21087-1.6466-0.6504-0.44117-0.42992-0.67186-0.97811-0.67186-1.5937 0-0.62934 0.24572-1.1747 0.70086-1.6078 0.46474-0.44201 1.0496-0.64762 1.6882-0.64762 0.42823 0 0.86754-0.0309 1.3019-0.07496-0.01672-1.4099-0.01222-2.8231-0.01222-4.232 0-1.6185 0.04916-3.2379 0.15812-4.853l-1.5191 0.04061h-0.01035c-0.61976 0-1.1805-0.20878-1.6282-0.63939-0.44966-0.43257-0.67916-0.98885-0.67916-1.6122 0-0.61838 0.2132-1.1772 0.6627-1.6031 0.39275-0.37589 0.87815-0.58468 1.4213-0.63786 1.0717-0.09692 2.2203-0.08879 3.2964-0.08879 1.7961 0 3.6591 0.21553 5.4366 0.46469 1.2501 0.17703 1.9616 1.0058 1.9616 2.2664 0 0.67702-0.25733 1.2735-0.78719 1.6997-0.40968 0.33618-0.89347 0.51102-1.4236 0.51102-0.34266 0-0.71559-0.04382-1.0565-0.08001-0.36266-0.03847-0.72522-0.08125-1.0875-0.12636z" fill="#15130e"/>
   <path d="m62.701 75.966c-0.3456 0-1.3005-0.10033-2.8613-0.30467-0.10033 1.334-0.15237 3.1102-0.15237 5.3249l-0.01109 4.8865c0.96607-0.02228 1.9471-0.03344 2.9504-0.03344 0.43476 0 0.79521 0.14491 1.0813 0.43476 0.2862 0.28982 0.43111 0.6391 0.43111 1.0479 0 0.40505-0.14491 0.75065-0.43847 1.0368-0.29358 0.28612-0.66146 0.43103-1.1074 0.43103-0.41619 0-1.0367 0.0074-1.8691 0.02606-0.82862 0.01855-1.4529 0.02971-1.8691 0.02971-0.48681 0-1.2226 0.06316-2.1998 0.18952-0.981 0.12631-1.713 0.18944-2.2036 0.18944-0.44585 0-0.81373-0.14491-1.1073-0.43101-0.29356-0.28612-0.43847-0.63545-0.43847-1.0404 0-0.40878 0.1523-0.75438 0.46075-1.0479 0.30472-0.28985 0.69114-0.43476 1.1556-0.43476 0.52768 0 1.2226-0.05204 2.0846-0.15981-0.01482-0.8546-0.02225-2.497-0.02225-4.9198 0-1.9731 0.07432-3.8571 0.21923-5.6482l-2.3633 0.06316c-0.43474 0-0.79896-0.14118-1.0925-0.42357-0.29358-0.28239-0.44215-0.63545-0.44215-1.0553 0-0.42738 0.14121-0.77666 0.4236-1.0442 0.26011-0.24897 0.57968-0.39016 0.95872-0.42733 0.61682-0.05577 1.6945-0.08549 3.2254-0.08549 1.3786 0 3.1548 0.15237 5.3286 0.4571 0.86577 0.12258 1.2969 0.62428 1.2969 1.5012 0 0.46445-0.16727 0.83235-0.5017 1.0999-0.27496 0.2267-0.58711 0.33811-0.93639 0.33811z" fill="#e51069"/>
   <path d="m85.72 76.917c0.11795-0.12589 0.23566-0.25186 0.35335-0.37793 1.2912-1.3836 2.5718-2.7799 3.8514-4.1778 0.45794-0.49361 1.0422-0.79068 1.723-0.79068 0.61473 0 1.163 0.22381 1.6105 0.6445 0.45956 0.43188 0.708 0.98682 0.708 1.6184 0 0.56526-0.47421 1.2346-0.79812 1.6732-0.60407 0.81793-1.3085 1.6046-1.9962 2.3544-1.1289 1.2241-2.2918 2.4174-3.4869 3.5771 0.59576 0.56105 1.1917 1.1207 1.7868 1.6798 0.77875 0.71946 1.5873 1.4218 2.4362 2.0578 0.30065 0.21572 0.62455 0.38354 0.97629 0.49572 1.0268 0.32433 1.7026 1.0509 1.7026 2.1636 0 0.48583-0.15534 0.93731-0.42857 1.3394-0.41362 0.60306-1.0291 0.92345-1.7599 0.92345-1.5987 0-3.3451-1.2426-4.5306-2.2128-0.4382-0.36182-0.86466-0.767-1.2793-1.1558-0.31948-0.29959-0.63733-0.60116-0.95401-0.90392l-0.0067 2.7683c0 0.47625-0.13692 0.91895-0.40243 1.3145l-0.0077 0.01117c-0.41262 0.59211-1.0268 0.88456-1.7449 0.88456-0.82119 0-1.5124-0.34983-1.9814-1.0236-0.338-0.48014-0.52298-1.0231-0.52298-1.6108 0-2.4244 0.07747-4.8617 0.15272-7.285 0.07482-2.4071 0.152-4.8285 0.152-7.2369 0-0.6124 0.2281-1.1576 0.66109-1.5906 0.44439-0.44439 1.0096-0.66109 1.6351-0.66109 0.62661 0 1.1899 0.21754 1.6312 0.66458 0.42802 0.43349 0.65394 0.97756 0.65394 1.5871 0 0.89395-0.0472 1.7985-0.09813 2.6932-0.01209 0.19172-0.02432 0.38375-0.03633 0.5761z" fill="#15130e"/>
   <path d="m84.866 84.011-0.01117 4.5817c0 0.31954-0.08922 0.61312-0.27128 0.88432-0.25641 0.3679-0.62428 0.55369-1.111 0.55369-0.57229 0-1.0256-0.23035-1.349-0.69488-0.25641-0.36415-0.38269-0.7543-0.38269-1.1668 0-1.609 0.05204-4.0318 0.15235-7.2609 0.10033-3.2291 0.15237-5.6482 0.15237-7.2609 0-0.40502 0.14491-0.75438 0.43476-1.0442 0.28982-0.28982 0.654-0.43476 1.0887-0.43476 0.43476 0 0.7952 0.14494 1.0813 0.43476 0.2862 0.28982 0.43111 0.63918 0.43111 1.0442 0 0.654-0.03344 1.5347-0.09665 2.6458-0.0817 1.2931-0.12631 2.1738-0.14121 2.6457 0.50908-0.47937 2.3931-2.4971 5.6482-6.0532 0.33446-0.36052 0.72088-0.54258 1.1556-0.54258 0.41249 0 0.77293 0.14491 1.0814 0.43482 0.30837 0.28982 0.46448 0.64283 0.46448 1.0553 0 0.44958-0.86207 1.6201-2.59 3.5041-1.2783 1.386-2.6234 2.7572-4.0392 4.1061 0.79153 0.74687 1.5867 1.4938 2.3819 2.2407 0.929 0.85834 1.7651 1.5606 2.5045 2.1143 0.37161 0.26757 0.7692 0.47191 1.2002 0.60939 0.77666 0.2453 1.1631 0.72094 1.1631 1.4269 0 0.31218-0.0966 0.6132-0.29356 0.90302-0.26757 0.39016-0.64283 0.58711-1.1222 0.58711-1.0367 0-2.3819-0.68003-4.0392-2.0364-0.49048-0.40502-1.6573-1.4975-3.493-3.2774z" fill="#e51069"/>
   <path d="m-17.689 86.08c1.8604-0.1506 3.8462-0.66656 5.5741-1.1885l0.0091-0.0028c0.22569-0.06511 0.45842-0.10454 0.69368-0.10454 0.67281 0 1.2594 0.25866 1.6951 0.77272 0.36859 0.42865 0.56766 0.93893 0.56766 1.5049 0 0.96869-0.5343 1.6763-1.4084 2.067-1.2362 0.54287-2.8297 0.84572-4.1568 1.066-1.354 0.22662-2.7917 0.42294-4.1665 0.42294-2.0361 0-3.4407-0.97136-3.4407-3.1137v-0.77272h0.05284c0.0034-0.06316 7e-3 -0.1261 0.01088-0.18841 0.02355-0.38171 0.04672-0.76356 0.06969-1.1454l-0.03625 0.01257c-0.96779 0.33549-2.0304-0.17947-2.3666-1.1474l-0.1818-0.52475c-0.33536-0.96777 0.1792-2.0309 1.1471-2.3661l1.6762-0.5815c0.09025-2.4168 0.12581-4.8363 0.12581-7.2545 0-0.61304 0.22315-1.1619 0.65384-1.5982 0.44143-0.44704 1.0047-0.66458 1.6313-0.66458 0.62548 0 1.1908 0.21669 1.6351 0.66109 0.43574 0.43572 0.66109 0.98568 0.66109 1.6017 0 1.8825-0.0227 3.7654-0.07488 5.6473l1.3948-0.48392c0.96742-0.33472 2.0294 0.18047 2.3652 1.1476l0.18243 0.52517c0.33523 0.96734-0.17976 2.0307-1.1471 2.3664l-2.9862 1.0358c-0.0094 0.16634-0.0191 0.33277-0.02913 0.49903l-0.0011 0.01855-2e-3 0.01847c-0.06379 0.58592-0.10943 1.1784-0.14822 1.7697z" fill="#15130e"/>
   <path d="m-10.869 88.422c-0.85468 0.37531-2.1812 0.71348-3.9723 1.0108-1.6425 0.27496-2.9876 0.41243-4.0392 0.41243-1.7799 0-2.668-0.78031-2.668-2.341 0 0.11856 0.06588-0.95115 0.20124-3.2159l-1.1299 0.3919c-0.5652 0.19592-1.1872-0.10544-1.3834-0.67043l-0.18174-0.52467c-0.1959-0.56528 0.10568-1.1875 0.67016-1.383l2.1746-0.75446c0.09835-2.4178 0.14695-5.0227 0.14695-7.8116 0-0.41248 0.14494-0.76547 0.43103-1.0553 0.2862-0.28982 0.64662-0.43476 1.0814-0.43476 0.43476 0 0.79891 0.14494 1.0887 0.43476 0.28985 0.28985 0.43476 0.64283 0.43476 1.0553 0 2.362-0.0363 4.6104-0.10917 6.7452l2.4546-0.85159c0.56457-0.19537 1.1863 0.10591 1.3824 0.67085l0.1823 0.5248c0.19571 0.56478-0.10581 1.1873-0.6703 1.3832l-3.4762 1.2058c-0.01807 0.34076-0.03702 0.67815-0.05726 1.0125-0.06316 0.57968-0.13375 1.4715-0.20434 2.668 1.7205-0.02971 3.9277-0.44966 6.6218-1.2635 0.16719-0.04826 0.327-0.07424 0.47937-0.07424 0.45701 0 0.82489 0.16719 1.1074 0.50162 0.25638 0.29729 0.38269 0.63175 0.38269 1.0033 0 0.62426-0.31583 1.0776-0.94755 1.36z" fill="#e51069"/>
   <path d="m11.666 76.917c0.11795-0.12589 0.23569-0.25186 0.35335-0.37793 1.2913-1.3836 2.5718-2.7799 3.8514-4.1778 0.45794-0.49361 1.0422-0.79068 1.723-0.79068 0.61473 0 1.163 0.22381 1.6105 0.6445 0.45956 0.43188 0.70802 0.98682 0.70802 1.6184 0 0.56526-0.47424 1.2346-0.79814 1.6732-0.60404 0.81793-1.3085 1.6046-1.9962 2.3544-1.1289 1.2241-2.2918 2.4174-3.4869 3.5771 0.59576 0.56105 1.1917 1.1207 1.7868 1.6798 0.77875 0.71946 1.5873 1.4218 2.4362 2.0578 0.30065 0.21572 0.62458 0.38354 0.97629 0.49572 1.0268 0.32433 1.7026 1.0509 1.7026 2.1636 0 0.48583-0.15531 0.93731-0.42857 1.3394-0.41362 0.60306-1.0291 0.92345-1.7599 0.92345-1.5987 0-3.3451-1.2426-4.5306-2.2128-0.4382-0.36182-0.86466-0.767-1.2793-1.1558-0.31946-0.29959-0.63733-0.60116-0.95401-0.90392l-0.0067 2.7683c0 0.47625-0.1369 0.91895-0.40243 1.3145l-0.0077 0.01117c-0.41262 0.59211-1.0268 0.88456-1.7449 0.88456-0.82119 0-1.5124-0.34983-1.9814-1.0236-0.33805-0.48014-0.52302-1.0231-0.52302-1.6108 0-2.4244 0.077497-4.8617 0.15272-7.285 0.074824-2.4071 0.15203-4.8285 0.15203-7.2369 0-0.6124 0.22807-1.1576 0.66109-1.5906 0.44437-0.44439 1.0096-0.66109 1.6351-0.66109 0.62661 0 1.1899 0.21754 1.6312 0.66458 0.42799 0.43349 0.65392 0.97756 0.65392 1.5871 0 0.89395-0.0472 1.7985-0.09813 2.6932-0.01209 0.19172-0.02431 0.38375-0.03633 0.5761z" fill="#15130e"/>
   <path d="m10.812 84.011-0.01119 4.5817c0 0.31954-0.08919 0.61312-0.27128 0.88432-0.25641 0.3679-0.62428 0.55369-1.111 0.55369-0.57229 0-1.0256-0.23035-1.349-0.69488-0.25638-0.36415-0.3827-0.7543-0.3827-1.1668 0-1.609 0.052044-4.0318 0.15237-7.2609 0.1003-3.2291 0.15235-5.6482 0.15235-7.2609 0-0.40502 0.14494-0.75438 0.43476-1.0442 0.28982-0.28982 0.654-0.43476 1.0887-0.43476 0.43476 0 0.79521 0.14494 1.0813 0.43476 0.28617 0.28982 0.43109 0.63918 0.43109 1.0442 0 0.654-0.03344 1.5347-0.09665 2.6458-0.0817 1.2931-0.12631 2.1738-0.14121 2.6457 0.50908-0.47937 2.3931-2.4971 5.6482-6.0532 0.33446-0.36052 0.72088-0.54258 1.1556-0.54258 0.41251 0 0.77293 0.14491 1.0814 0.43482 0.3084 0.28982 0.46448 0.64283 0.46448 1.0553 0 0.44958-0.86207 1.6201-2.59 3.5041-1.2783 1.386-2.6234 2.7572-4.0392 4.1061 0.79153 0.74687 1.5867 1.4938 2.3819 2.2407 0.929 0.85834 1.7651 1.5606 2.5046 2.1143 0.37158 0.26757 0.7692 0.47191 1.2002 0.60939 0.77663 0.2453 1.1631 0.72094 1.1631 1.4269 0 0.31218-0.0966 0.6132-0.29356 0.90302-0.26757 0.39016-0.64283 0.58711-1.1222 0.58711-1.0368 0-2.3819-0.68003-4.0392-2.0364-0.49046-0.40502-1.6573-1.4975-3.4929-3.2774z" fill="#e51069"/>
   <path d="m28.466 90.272c-2.2154 0-4.2555-0.61682-5.9782-2.0255-1.7957-1.4723-2.6983-3.4048-2.6983-5.7257 0-2.6788 0.85587-5.0851 2.4762-7.2155 1.7991-2.3693 4.1667-3.7351 7.1665-3.7351 2.1882 0 4.5532 0.41164 6.2156 1.9466 1.6356 1.5008 2.1451 3.6567 2.1451 5.8047 0 2.6216-0.75689 5.0135-2.2752 7.1502-1.7175 2.4264-4.0569 3.8004-7.0516 3.8004zm3.9328-13.549c-0.67437-0.57933-2.1293-0.65701-2.9666-0.65701-1.5285 0-2.6541 0.84106-3.5365 2.0384-0.97179 1.3158-1.4691 2.7804-1.4691 4.4163 0 0.96896 0.36184 1.7295 1.1166 2.3376 0.83915 0.67612 1.8601 0.91779 2.9227 0.91779 1.4843 0 2.5435-0.81971 3.3563-2.015 0.91461-1.3354 1.3334-2.8239 1.3334-4.4397 0-0.80806-0.10271-2.0198-0.75692-2.5983z" fill="#15130e"/>
   <path d="m28.466 89.499c-2.1478 0-3.9798-0.61685-5.4884-1.8506-1.609-1.3192-2.4154-3.0284-2.4154-5.128 0-2.4673 0.7729-4.7155 2.3188-6.7481 1.7353-2.2853 3.9166-3.4298 6.5512-3.4298 2.5343 0 4.4331 0.57973 5.6927 1.7428 1.2635 1.1593 1.8952 2.9058 1.8952 5.2357 0 2.4673-0.70977 4.7006-2.133 6.7035-1.6387 2.3149-3.7828 3.4744-6.4211 3.4744zm0.96615-14.206c-1.6164 0-3.0025 0.78401-4.1582 2.3522-1.0813 1.4641-1.6201 3.0916-1.6201 4.8752 0 1.204 0.46818 2.185 1.4046 2.9393 0.89929 0.72459 2.0364 1.0887 3.4075 1.0887 1.5942 0 2.9281-0.78401 3.9946-2.3521 0.97726-1.4269 1.4678-3.0545 1.4678-4.8753 0-1.5236-0.34189-2.5826-1.0219-3.1808-0.654-0.56486-1.8134-0.84725-3.4744-0.84725z" fill="#e51069"/>
   <path d="m29.432 75.293c-1.6164 0-3.0025 0.78401-4.1582 2.3522-1.0813 1.4641-1.6201 3.0916-1.6201 4.8752 0 1.204 0.46818 2.185 1.4046 2.9393 0.89929 0.72459 2.0364 1.0887 3.4075 1.0887 1.5942 0 2.9281-0.78401 3.9946-2.3521 0.97726-1.4269 1.4678-3.0545 1.4678-4.8753 0-1.5236-0.34189-2.5826-1.0219-3.1808-0.654-0.56486-1.8134-0.84725-3.4744-0.84725zm2.9666 1.4297c-0.67437-0.57933-2.1293-0.65701-2.9666-0.65701-1.5285 0-2.6541 0.84106-3.5365 2.0384-0.97179 1.3158-1.4691 2.7804-1.4691 4.4163 0 0.96896 0.36184 1.7295 1.1166 2.3376 0.83915 0.67612 1.8601 0.91779 2.9227 0.91779 1.4843 0 2.5435-0.81971 3.3563-2.015 0.91461-1.3354 1.3334-2.8239 1.3334-4.4397 0-0.80806-0.10271-2.0198-0.75692-2.5983z" fill="#15130e"/>
   <path d="m1.0573 85.025c-0.66776 0.07228-1.3475 0.11562-2.0063 0.15764-0.70244 0.05022-1.4355 0.10467-2.1419 0.20709-0.48337 1.1027-1.0501 2.2007-1.5987 3.2634l-0.012568 0.02445-0.01434 0.02344c-0.44514 0.7298-1.1249 1.1544-1.9863 1.1544-0.59378 0-1.1258-0.20886-1.5776-0.5924-0.49432-0.4195-0.75208-0.98134-0.75208-1.6295 0-0.43952 0.28837-1.1145 0.459-1.5182 0.327-0.77362 0.69458-1.5395 1.0665-2.2948-0.054795-0.20294-0.079719-0.41227-0.067575-0.62667l5.556e-4 -0.0109 9.789e-4 -0.0108c0.062944-0.74012 0.66678-1.1546 1.3038-1.3928 1.0549-1.8094 2.1648-3.5871 3.3172-5.3361 0.70146-1.0637 1.44-2.1665 2.2439-3.1556 0.39775-0.48927 1.0614-1.3165 1.753-1.3165 1.2682 0 2.0237 0.85095 2.3462 2.0157l0.00886 0.03196 0.00603 0.03254c0.21672 1.1612 0.45196 2.3206 0.68469 3.4787 0.50488 2.3884 1.0496 4.7692 1.6131 7.1444 0.035824 0.13494 0.09861 0.28739 0.14891 0.41693 0.11766 0.30303 0.24384 0.60481 0.37153 0.90622 0.20913 0.50186 0.45008 1.1539 0.45008 1.7029 0 0.64326-0.2503 1.2009-0.72866 1.6342-0.45191 0.40412-1.012 0.62103-1.6197 0.59828-1.2252-0.047696-1.9823-1.5102-2.4081-2.484-0.3511-0.78031-0.62992-1.5975-0.86053-2.4238zm-0.9616-4.0451c-0.053737-0.28231-0.10819-0.56444-0.16317-0.84653-0.17402 0.29509-0.34814 0.59007-0.5225 0.88503 0.006667-5.29e-4 0.013335-0.0011 0.01995-0.0013 0.21347-0.01262 0.43926-0.02323 0.66572-0.03715z" fill="#15130e"/>
   <path d="m4.3557 89.161c-0.57224-0.022278-1.1519-0.69861-1.7316-2.0252-0.38648-0.85834-0.71348-1.8431-0.99213-2.9616-0.53515 0.07805-1.4121 0.15981-2.6346 0.23786-1.1445 0.08176-2.0215 0.17462-2.6309 0.28239-0.33443 0.79891-0.91411 1.9991-1.7428 3.6045-0.31954 0.5239-0.76174 0.78401-1.3266 0.78401-0.40132 0-0.75803-0.13748-1.0776-0.40876-0.31956-0.27122-0.47937-0.61685-0.47937-1.0404 0-0.36788 0.53134-1.6239 1.5904-3.7642-0.10403-0.22667-0.14491-0.43482-0.13375-0.63172 0.029713-0.34933 0.38277-0.62055 1.0553-0.81754 1.033-1.7836 2.1775-3.6342 3.4409-5.5516 1.8134-2.7498 2.9319-4.1247 3.3518-4.1247 0.79891 0 1.334 0.48308 1.6015 1.4492 0.14491 0.77666 0.37534 1.9397 0.68744 3.4929 0.4422 2.0921 0.98097 4.4814 1.6201 7.1755 0.052043 0.20063 0.23778 0.67998 0.5574 1.4343 0.26014 0.62428 0.39015 1.0925 0.39015 1.4046 0 0.4236-0.15608 0.77293-0.47191 1.059-0.31583 0.28239-0.67633 0.41622-1.0739 0.40132zm-4.0615-11.17c-0.56851 0.97361-1.3489 2.2964-2.341 3.9723 0.327-0.07432 0.83235-0.1301 1.5236-0.1747 0.81373-0.04826 1.3265-0.08914 1.5347-0.11885-0.17468-0.9439-0.41249-2.1701-0.71721-3.6788z" fill="#e51069"/>
  </g>
 </g>
</svg>
