<?xml version="1.0" encoding="UTF-8"?>
<svg width="79.375mm" height="60.489mm" version="1.1" viewBox="0 0 79.375 60.489" xmlns="http://www.w3.org/2000/svg" xmlns:cc="http://creativecommons.org/ns#" xmlns:dc="http://purl.org/dc/elements/1.1/" xmlns:rdf="http://www.w3.org/1999/02/22-rdf-syntax-ns#">
 <metadata>
  <rdf:RDF>
   <cc:Work rdf:about="">
    <dc:format>image/svg+xml</dc:format>
    <dc:type rdf:resource="http://purl.org/dc/dcmitype/StillImage"/>
    <dc:title/>
   </cc:Work>
  </rdf:RDF>
 </metadata>
 <path d="m67.317 60.466c0-0.074 0.22-0.63026 0.48889-1.2361 0.38284-0.86255 0.46794-2.0606 0.39234-5.5229l-0.09655-4.4214 0.91106 7e-4 0.91105 7.1e-4 -0.18857 4.2155c-0.19774 4.4203-0.62436 6.0192-1.7937 6.7226-0.34347 0.20647-0.6245 0.31494-0.6245 0.24091zm-29.721-2.7044c-1.2644-0.59356-1.7879-2.017-1.9681-5.3522l-0.16878-3.1227 1.0985 5e-3c0.6042 3e-3 0.95344 0.12211 0.77609 0.26466-0.4598 0.3696-0.55871 4.0144-0.15469 5.7008 0.38008 1.5865 1.2472 2.3123 2.3805 1.9926 1.1607-0.32743 1.4454-1.3534 1.3355-4.8116l-0.10023-3.1533 1.5861 0.00141-0.22144 2.734c-0.12179 1.5037-0.23149 3.003-0.24378 3.3317-0.0637 1.705-2.6943 3.172-4.3197 2.409zm-37.421-0.96798c0.1892-0.55931 0.26358-2.6204 0.17824-4.9389l-0.14646-3.979 0.83406-0.0634c1.6174-0.12293 3.039 0.11412 3.7374 0.6232 0.91895 0.66987 0.94532 2.5312 0.053916 3.8049l-0.65231 0.93208 1.0225 1.4967c0.56239 0.82321 1.315 1.771 1.6724 2.1063 0.662 0.62088 1.7347 0.84001 1.7653 0.36062 0.00934-0.14552 0.13405-1.5209 0.27721-3.0564 0.14316-1.5355 0.14541-3.2421 0.00534-3.7924l-0.2553-1.0005h2.1752c1.6771 0 2.1752 0.11554 2.1752 0.50454 0 0.39497-0.2084 0.43737-0.9596 0.19522-1.4524-0.46816-1.9141-0.11643-1.8033 1.3736 0.09054 1.2176 0.15775 1.2864 1.4204 1.4544 1.5763 0.20978 1.4034 0.88195-0.22684 0.88195-0.91444 0-1.1161 0.13903-1.203 0.82963-0.05748 0.45629-0.01948 1.2104 0.08443 1.6757 0.15137 0.67784 0.39369 0.84606 1.2187 0.84606 0.56638 0 1.1993-0.1905 1.4064-0.42333 0.29294-0.32926 0.37664-0.25086 0.37664 0.35278 0 0.75636-0.09552 0.77611-3.7531 0.77611h-3.7531l-0.87652-1.2933c-2.383-3.5162-3.2305-3.8432-3.2305-1.2467 0 0.93133 0.16949 1.8838 0.37665 2.1167 0.29295 0.32925 0.085412 0.42333-0.93385 0.42333-1.2965 0-1.307-0.0102-0.98578-0.95989zm3.9934-5.8512c0.10885-1.4264-0.75584-2.7139-1.8226-2.7139-0.56263 0-0.62774 0.23519-0.62774 2.2672 0 1.8679 0.096729 2.2931 0.54927 2.4145 0.95977 0.25736 1.7975-0.60971 1.9011-1.9677zm10.84 6.2667c-0.29231-0.85621 0.07883-0.9763 0.97586-0.31571 0.66397 0.48898 0.97524 0.53034 1.5966 0.21214 1.2376-0.63378 1.0294-1.9826-0.47017-3.0466-1.8969-1.3459-2.4545-3.0596-1.3474-4.1408 1.087-1.0617 3.531-1.1251 3.531-0.0916 0 0.35653-0.19741 0.37363-0.89532 0.0775-0.49244-0.20891-1.128-0.27948-1.4124-0.15682-0.94479 0.40749-0.54935 1.5602 1.0523 3.0674 1.7635 1.6595 2.0571 2.9795 0.94161 4.2333-0.80213 0.90156-3.6794 1.0183-3.972 0.16118zm8.3081-3.3839 0.09883-3.9297-1.4466 0.18326c-0.99832 0.12648-1.4101 0.0595-1.3288-0.21612 0.1806-0.61218 6.815-0.74596 6.815-0.13742 0 0.32459-0.36474 0.42314-1.2248 0.33095l-1.2248-0.13128-0.22462 3.0308c-0.18621 2.5126-0.13654 3.1819 0.29043 3.9143l0.51505 0.8835-1.1842 7.1e-4 -1.1842 7e-4 0.09884-3.9297zm4.0916 2.9439c0.34301-0.54143 1.1467-2.4532 1.786-4.2484 0.64934-1.8235 1.3185-3.2065 1.5163-3.1338 0.19472 0.0716 0.919 1.6636 1.6095 3.5379 0.69051 1.8743 1.5013 3.7275 1.8017 4.1182 0.53261 0.69281 0.52019 0.7105-0.49903 0.7105-0.94114 0-1.0865-0.14054-1.4596-1.4111-0.39631-1.3497-0.47196-1.4111-1.7384-1.4111-1.1693 0-1.3688 0.12127-1.7063 1.037-0.21019 0.57037-0.28962 1.2054-0.17649 1.4111 0.12818 0.23311-0.16415 0.37407-0.77582 0.37407h-0.9815zm3.5821-3.9583c-0.27197-0.7782-0.53858-1.3654-0.59246-1.3048-0.05392 0.0606-0.31624 0.69727-0.58301 1.4149l-0.48505 1.3048h2.155zm13.289 4.6727c0.4701-0.35208 0.78539-6.8072 0.37295-7.6355-0.30066-0.60384-0.17785-0.6363 1.9066-0.50392 1.2253 0.0778 2.3559 0.29522 2.5123 0.48311 0.71164 0.85494 0.67639 1.8648-0.10135 2.9037l-0.78973 1.0549 1.2774 1.6311c0.70257 0.8971 1.4141 1.6311 1.5811 1.6311 0.16702 0 0.72955-1.0716 1.2501-2.3812 2.126-5.3494 2.1919-5.4844 2.5057-5.1316 0.17096 0.19215 0.88176 1.8421 1.5796 3.6665 0.6978 1.8244 1.4899 3.595 1.7602 3.9345 0.45863 0.57611 0.41481 0.61736-0.65572 0.61736-0.79397 0-1.1472-0.15782-1.1472-0.51257 0-0.28191-0.16391-0.91691-0.36425-1.4111-0.307-0.7573-0.57352-0.89854-1.6956-0.89854-1.208 0-1.3629 0.10181-1.6721 1.0988-0.18744 0.60438-0.26355 1.2394-0.16912 1.4111 0.09444 0.17173-0.48291 0.31225-1.283 0.31225-1.1884 0-1.5796-0.16977-2.1371-0.92749-1.4401-1.9571-2.1263-2.6474-2.4961-2.5109-0.51831 0.19122-0.65945 1.8236-0.2348 2.7154 0.32228 0.67682 0.25836 0.72265-1.0007 0.7176-0.73974-3e-3 -1.1893-0.12203-0.99892-0.26458zm10.737-4.4043c-0.5252-1.7691-0.73842-1.8153-1.2761-0.27682l-0.49745 1.4234h1.057c1.0531 0 1.0557-4e-3 0.71659-1.1465zm-7.3985 0.35278c0.62501-0.54138 0.75074-1.21 0.45992-2.4459-0.22318-0.9485-1.1937-1.5847-1.7878-1.172-0.46375 0.32214-0.39872 3.6101 0.07563 3.8253 0.61347 0.27823 0.71016 0.26222 1.2522-0.20734zm13.523 3.8146c-2.5054-1.2447-2.89-5.649-0.63246-7.2439 0.96544-0.68204 2.986-1.0638 4.3752-0.82667 1.0071 0.17193 1.177 0.33131 1.177 1.1043v0.90337l-0.63997-0.77207c-0.91907-1.1088-2.8975-1.0615-3.9254 0.0938-0.62654 0.70421-0.76911 1.2148-0.76342 2.734 0.0071 1.9973 0.50828 3.0366 1.8308 3.7994 0.93147 0.53722 2.7421 0.18321 3.184-0.62255 0.28123-0.51269 0.31782-0.47087 0.24394 0.27877-0.08096 0.82122-0.21658 0.8876-1.9701 0.96418-1.0929 0.0477-2.3014-0.12548-2.8796-0.41274zm10.193-0.36537c0.33574-0.47974 1.2831-2.8054 2.1052-5.1681 1.7106-4.9162 1.5251-4.9285 3.3193 0.21957 1.268 3.6382 2.0549 5.358 2.5552 5.584 0.22041 0.0996-0.17475 0.19361-0.87811 0.20893-1.2578 0.0274-1.2864 2.7e-4 -1.7403-1.6478-0.4547-1.6513-0.48227-1.6772-1.8939-1.7812-1.3362-0.0984-1.459-0.0334-1.828 0.96769-0.21752 0.59024-0.32137 1.3918-0.23077 1.7812 0.14161 0.60862 0.01148 0.708-0.92721 0.708h-1.0919zm4.2793-4.1548c-0.40329-1.4551-0.74695-2.3812-0.88358-2.3812-0.07438 0-0.35176 0.71437-0.61645 1.5875l-0.48125 1.5875h1.1006c0.99735 0 1.08-0.0745 0.88064-0.79375zm-55.623-8.7394c-0.28259-0.50859-0.30429-0.90744-0.07554-1.3879 0.44066-0.92545 0.40235-1.8749-0.12143-3.0097-0.43474-0.94185-0.44861-0.9457-0.79405-0.22023-0.19336 0.4061-0.47447 0.70025-0.62468 0.65368-0.15021-0.0466-0.28723 0.0344-0.3045 0.1799-0.09309 0.78475 0.03087 0.97013 0.64867 0.97013 0.9084 0 0.64972 0.20197-0.60159 0.46968l-1.0201 0.21824-0.01-1.6669c-0.0089-1.4617-0.0613-1.5909-0.42694-1.0495-0.22933 0.33955-0.67045 0.61736-0.98027 0.61736-0.52585 0-0.52877-0.0429-0.04386-0.64514 0.63465-0.78821 0.69471-1.8778 0.08911-1.6166-0.45888 0.19792-1.2502-0.53408-1.7799-1.6464-0.17757-0.37293-0.56506-0.68304-0.86109-0.68913-0.63756-0.0131-1.7543-1.6064-1.4781-2.1088 0.10573-0.19228 0.38065-0.3496 0.61094-0.3496 0.23029 0 0.51204-0.27337 0.62611-0.60747 0.1675-0.49061 0.25843-0.51466 0.47268-0.12502 0.19897 0.36184 0.39885 0.19217 0.79948-0.67862 0.37704-0.81949 0.60729-1.0282 0.78263-0.70927 0.18451 0.33555 0.34176 0.25584 0.61105-0.30974 0.28803-0.60488 0.2673-0.86869-0.10078-1.2824-0.25487-0.28646-0.68534-0.52084-0.95662-0.52084-0.27127 0-0.49323-0.15875-0.49323-0.35277 0-0.19403 0.21187-0.35278 0.47081-0.35278 0.25906 0 0.47081-0.31235 0.47081-0.69448 0-0.47239 0.15056-0.62955 0.4708-0.49143 0.32366 0.1396 0.47081-0.0218 0.47081-0.51646 0-0.41143 0.27075-0.81611 0.6323-0.94509 0.34776-0.12406 0.54194-0.38989 0.4315-0.59073-0.12542-0.22809 0.02989-0.2829 0.41358-0.14601 0.40201 0.14341 0.81276-0.0272 1.1882-0.49353 0.78693-0.97734 0.42057-1.2312-0.77446-0.5366-0.97393 0.56606-0.9857 0.56332-0.64587-0.15038 0.228-0.47883 0.6584-0.72696 1.261-0.72696 0.50316 0 1.5427-0.47625 2.31-1.0583 0.76736-0.58208 1.4901-1.0583 1.606-1.0583s0.67377-0.39688 1.2396-0.88195 1.3402-0.88194 1.7209-0.88194c0.38069 0 1.0875-0.2298 1.5708-0.51067 0.48324-0.28087 1.5708-0.68644 2.4169-0.90127 0.84606-0.21483 2.0326-0.5328 2.6368-0.70661 0.6042-0.17381 1.4927-0.4079 1.9745-0.52019 0.51357-0.1197 0.79003-0.36048 0.66822-0.58199-0.14-0.25461 0.28889-0.33752 1.3152-0.25424 1.3203 0.10713 1.5388 0.0297 1.6423-0.58198 0.06566-0.38805 0.31552-0.8325 0.55521-0.98767 0.23971-0.15516 0.43582-0.55997 0.43582-0.89958s0.12909-0.76828 0.28687-0.95261c0.38524-0.45005 0.49108-1.9506 0.19253-2.7295-0.14694-0.38334-0.07296-0.86735 0.18873-1.2347 0.83436-1.1713 1.2151-2.1936 1.2151-3.2628 0-0.59435 0.21764-1.5537 0.48364-2.1318 0.266-0.57815 0.41655-1.1732 0.33458-1.3222-0.08194-0.14909-0.01931-0.50161 0.1393-0.78339 0.22063-0.392 0.29112-0.30519 0.30014 0.36962 0.0062 0.48507 0.27767 1.2708 0.60265 1.7461 0.40561 0.59319 0.54054 1.2127 0.43034 1.9759-0.11686 0.8094 0.06201 1.5079 0.65764 2.5684 0.55364 0.98574 0.81815 1.9468 0.81815 2.9727 0 0.8338 0.20688 1.848 0.45972 2.2537 0.25285 0.40574 0.37142 0.83697 0.26348 0.95828-0.10793 0.12131 0.06094 0.54001 0.37534 0.93045 0.31437 0.39043 0.48187 0.81071 0.37222 0.93395s-1.2688 0.0302-2.5758-0.20682c-3.0047-0.5448-4.7798-0.24881-5.2345 0.87285-0.38031 0.93817-0.11476 2.0923 0.39926 1.7353 0.19154-0.13305 0.25542-0.62283 0.14547-1.1152-0.14069-0.63002-0.08141-0.83463 0.20996-0.72449 0.23403 0.0885 0.36328 0.55143 0.3051 1.0929-0.05552 0.51664 0.05045 0.93935 0.2354 0.93935 0.18499 0 0.33634-0.39687 0.33634-0.88194 0-0.81008 0.11508-0.88194 1.4124-0.88194 1.4049 0 1.4124 7e-3 1.4124 1.2347 0 0.67909 0.14124 1.2347 0.31387 1.2347 0.17263 0 0.31387-0.55563 0.31387-1.2347 0-0.99954 0.11957-1.2347 0.62774-1.2347 0.52464 0 0.62774 0.23518 0.62774 1.4319 0 0.86478 0.12431 1.3456 0.31386 1.2139 0.17263-0.11992 0.31387-0.76429 0.31387-1.4319v-1.2139h1.6599c1.0518 0 2.1154 0.26271 2.9033 0.7171 0.68386 0.39441 2.4439 1.1168 3.9113 1.6052 4.7014 1.5651 5.3793 1.9065 5.1809 2.6094-0.14145 0.50092 0.05223 0.67871 0.94428 0.8668 0.76412 0.16112 1.2087 0.49234 1.3933 1.038 0.14908 0.44072 0.67235 1.0919 1.1628 1.4471 1.0357 0.75001 4.5013 4.7349 4.5013 5.1759 0 0.16439-0.16895 0.29889-0.37544 0.29889s0.08532 0.53433 0.6485 1.1874l1.0239 1.1874-0.93506 1.1507c-0.84012 1.0338-1.0574 1.1274-2.1394 0.9213-1.1188-0.21309-1.1597-0.1921-0.57658 0.29573 1.3537 1.1323 1.4922 1.334 1.1024 1.6048-0.20422 0.14187-0.35926 0.35926-0.34451 0.48308 0.01477 0.12383-0.04377 0.22514-0.13013 0.22514h-0.78467c-0.38157 0-0.62774-0.23518-0.62774-0.59972 0-0.44668-0.09072-0.49774-0.35555-0.2001-0.56446 0.63443-0.06611 1.4911 1.2143 2.0876 1.5151 0.70574 1.5057 0.69127 0.89617 1.3763-0.42652 0.4794-0.60191 0.50173-1.0029 0.12768-0.3988-0.372-0.53714-0.36246-0.77112 0.0532-0.21766 0.38661-0.28628 0.39649-0.28995 0.0417-0.0036-0.30057-0.22238-0.38713-0.6207-0.24504-0.33873 0.12083-0.9037 0.0466-1.2555-0.16503-0.78021-0.46932-0.88894 0.15375-0.1121 0.64238 0.4563 0.28701 0.46689 0.39651 0.07847 0.81128-0.53206 0.56815-2.4164 0.80128-2.9201 0.36127-0.69567-0.60772-1.7996-0.72347-1.9759-0.20718-0.22658 0.66365-1.3307 0.64427-1.56-0.0274-0.09937-0.29104-0.40566-0.52916-0.68066-0.52916-0.38889 0-0.4163 0.0941-0.12336 0.42333 0.20716 0.23283 0.37665 0.63734 0.37665 0.89889 0 0.31415-0.45276 0.13078-1.334-0.54025-1.6632-1.2666-6.0242-3.9597-6.3945-3.949-0.15138 4e-3 -0.49883 0.52034-0.77213 1.1465-0.2733 0.62618-1.0501 1.4904-1.7263 1.9206-1.5792 1.0046-4.2006 1.6639-4.6422 1.1676-0.22039-0.24771-0.17839-0.36327 0.13289-0.36562 1.0943-8e-3 3.729-1.7482 4.2011-2.7744 1.0155-2.2071 0.74307-2.6011-2.0982-3.035l-1.4909-0.22766-0.0018 1.3445c-0.0018 1.1232-0.1567 1.4435-0.94161 1.9455l-0.93973 0.60094v-1.9616c0-1.7283-0.0653-1.9319-0.54927-1.7116-2.6292 1.1969-4.5889 1.9421-5.1076 1.9421-0.34131 0-0.62057 0.14108-0.62057 0.31352 0 0.17243-0.47853 0.41442-1.0634 0.53774-0.58488 0.12333-1.6795 0.74909-2.4325 1.3906s-2.4284 1.8537-3.7231 2.6938c-1.2947 0.84007-2.6909 1.8195-3.1026 2.1764-0.9401 0.81515-1.0509 0.81049-1.5372-0.0646zm1.2272-0.25646c0.39041-0.55952 0.37931-0.572-0.1185-0.13319-0.3021 0.26629-0.54927 0.54411-0.54927 0.61736 0 0.29035 0.25774 0.10347 0.66777-0.48417zm34.486-3.066c0-0.0856-0.14124-0.25368-0.31387-0.3736-0.17263-0.11992-0.31387-0.0499-0.31387 0.15557 0 0.20548 0.14124 0.3736 0.31387 0.3736 0.17263 0 0.31387-0.07 0.31387-0.15557zm-37.355-2.7757c0.0027-0.15697-0.13644-0.18729-0.30906-0.0674-0.17263 0.11991-0.31171 0.48647-0.30907 0.81457 0.0044 0.51409 0.04689 0.5234 0.30907 0.0674 0.16734-0.29104 0.30642-0.6576 0.30906-0.81457zm-0.80606-1.1762c0.10885-0.31881 0.14418-0.64005 0.07847-0.71386-0.25542-0.28708-1.1509 0.337-1.1509 0.8021 0 0.6851 0.83169 0.61666 1.0724-0.0882zm28.431-1.0416c0-0.57127-1.1334-2.2555-1.7794-2.644-0.86185-0.51843-0.8771-0.63199-0.26266-1.9562 0.59886-1.2906 0.59303-1.8952-0.02794-2.8915-0.39387-0.63203-0.74527-0.78043-1.6478-0.69586-1.0413 0.0976-1.1563 0.21332-1.2455 1.254-0.09392 1.0948 0.31484 1.5417 0.72609 0.79375 0.10669-0.19403 0.55406-0.35278 0.99416-0.35278 0.71178 0 0.77678 0.10478 0.58835 0.94862-0.11651 0.52174-0.49385 1.3938-0.83855 1.9379-0.34469 0.54409-0.53701 1.1524-0.42737 1.3518 0.21714 0.3949 3.303 2.4558 3.6853 2.4612 0.12947 2e-3 0.2354-0.0913 0.2354-0.20685zm10.362-1.6419c0.01166-2.1536 0.23979-2.3812 2.3863-2.3812 1.9844 0 2.1805-0.12956 1.8152-1.1994-0.1479-0.43318-0.32274-0.4707-0.8146-0.17483-0.34446 0.2072-1.425 0.32335-2.4011 0.25812l-1.7748-0.11861-0.09345 2.2049c-0.07634 1.8002-0.0044 2.2049 0.39234 2.2049 0.29326 0 0.48748-0.31457 0.49007-0.79375zm-16.152 0.0575c0.11599-0.21093 0.05374-0.56018-0.13841-0.77611-0.19211-0.21593-0.34929-1.0622-0.34929-1.8807 0-2.119-0.24055-2.6041-1.2911-2.6041-0.88296 0-1.558 0.91313-3.8465 5.2035-0.18121 0.3397 0.41354 0.44098 2.5896 0.44098 1.6956 0 2.9091-0.15332 3.0357-0.38352zm-3.9403-0.51516c0-0.48231 1.3791-2.9819 1.6452-2.9819 0.15076 0 0.23068 0.67469 0.1776 1.4993-0.08639 1.3416-0.18731 1.511-0.95966 1.6109-0.47473 0.0614-0.86314 4e-3 -0.86314-0.12836zm-8.8878-1.647c-0.25164-0.6769-0.94928-1.5698-1.5555-1.991-1.8143-1.2603-1.9282-1.5848-0.9943-2.8323 0.73763-0.98529 2.0149-1.5106 2.0258-0.83322 0.0027 0.14552 0.09522 0.6466 0.20638 1.1135 0.1417 0.5952 0.09351 0.77349-0.16122 0.59654-0.21509-0.14941-0.3633-0.0307-0.3633 0.29089 0 0.2988 0.31779 0.61852 0.70621 0.71048 3.4096 0.80731 3.6587 0.8201 4.1475 0.21295 0.66274-0.8231 0.32498-1.0723-1.4535-1.0723-1.4004 0-1.517-0.0664-1.517-0.86377 0-0.47507-0.34586-1.2832-0.76858-1.7959-0.62601-0.75921-0.94351-0.88894-1.7115-0.69934-1.2796 0.31589-2.5418 1.4898-2.5418 2.364 0 0.4717-0.15127 0.65245-0.44131 0.52735-0.54036-0.23305-1.4419 0.82058-1.4419 1.6851 0 0.49701 0.09263 0.54637 0.43172 0.23006 0.33862-0.31587 0.82971-0.0665 2.2772 1.1565 1.015 0.85757 2.1168 1.8962 2.4485 2.3081 0.84952 1.0551 1.2673 0.40018 0.70671-1.1078zm27.844-1.8206c1.7711-2.1994 2.1384-2.846 1.8792-3.3079-0.53828-0.95915-0.87459-0.84592-1.5841 0.53335-0.37346 0.72598-1.3275 2.1673-2.1202 3.2029-1.3059 1.7062-1.6217 2.772-0.72147 2.4347 0.18985-0.0711 1.3358-1.3595 2.5466-2.8631zm-19.896-3.6727c0.34396-1.0259 0.62539-2.639 0.62539-3.5846 0-1.4868-0.1306-1.8428-0.96569-2.6326-0.62734-0.59332-1.3421-0.91331-2.0402-0.91331-0.93397 0-1.0745 0.11417-1.0745 0.87322 0 0.79048 0.07589 0.84077 0.8013 0.53079 0.72988-0.3119 0.84176-0.23354 1.2555 0.87935 0.2498 0.67197 0.45419 1.3856 0.45419 1.5859 0 0.4586-0.52916 0.47602-0.77685 0.0256-0.10239-0.1862-0.95412-0.61063-1.8927-0.94318-1.36-0.48185-1.8678-0.5221-2.5003-0.19819-1.117 0.572-0.98624 1.1271 0.2654 1.1271 1.155 0 3.4015 0.79495 4.4698 1.5816 0.64523 0.47517 0.65646 0.58194 0.26182 2.49-0.22677 1.0964-0.63374 2.2686-0.90439 2.6047-0.27065 0.33614-0.49148 0.83678-0.49075 1.1126 0.0018 0.80173 1.8268-2.4952 2.512-4.5389zm16.005 4.3348c0-0.29104-0.12359-0.52917-0.27464-0.52917-0.15106 0-0.75133-0.091-1.334-0.20228l-1.0593-0.20228 0.74098 0.73145c0.86418 0.85306 1.9269 0.96462 1.9269 0.20228zm-33.427-1.2347c0.10668-0.19403 0.0444-0.35278-0.13841-0.35278-0.18282 0-0.3324 0.15875-0.3324 0.35278s0.06228 0.35278 0.13841 0.35278c0.07616 0 0.2257-0.15875 0.3324-0.35278zm29.482-1.2377c-0.45743-1.2305-0.34264-2.8102 0.23325-3.2102 0.16462-0.11435 1.0649 0.3634 2.0006 1.0617 2.2606 1.687 2.4862 1.6091 0.49642-0.17154-0.8857-0.79262-1.6103-1.5903-1.6103-1.7726 0-0.55985 1.6628-1.0784 2.7339-0.85257 0.55775 0.11761 1.4257 0.60307 1.9287 1.0788 0.80427 0.76064 0.96221 0.80047 1.3094 0.33022 0.21717-0.29412 0.33942-0.57076 0.27166-0.61475-1.6092-1.0449-4.4708-2.3724-5.114-2.3724-2.0624 0-3.5013 1.931-3.4392 4.6153 0.02865 1.2383 0.87029 3.1458 1.388 3.1458 0.14397 0 0.05472-0.55696-0.19834-1.2377zm-2.6466-4.7595c0-3.9982-0.03488-4.2333-0.62774-4.2333-0.52403 0-0.62774 0.23519-0.62774 1.4235 0 1.2981-0.05347 1.3913-0.6071 1.0583-0.33391-0.20086-0.84731-0.36519-1.1409-0.36519-0.41742 0-0.36276 0.15119 0.25075 0.6936 0.97231 0.85962 1.6312 2.5729 1.3894 3.6125-0.17639 0.75815 0.5144 2.0439 1.0981 2.0439 0.14588 0 0.26522-1.905 0.26522-4.2333zm-5.089-0.12677c0.0774-2.932 0.16401-3.4026 0.62773-3.4122 0.78309-0.0162-1.0336-1.7527-1.8336-1.7527-0.57168 0-0.61024 0.27711-0.61024 4.3857v4.3856l1.7263-0.2054zm1.0087-12.905c0-0.80588-0.49486-1.2534-0.7908-0.71524-0.26366 0.4795 0.04342 1.4 0.46708 1.4 0.17805 0 0.32372-0.30813 0.32372-0.68473zm2.0402-0.0501c0-0.27496-0.3178-0.55066-0.70621-0.61266-0.52004-0.083-0.70621 0.0642-0.70621 0.55841 0 0.47813 0.20308 0.65432 0.70621 0.61266 0.38841-0.0322 0.70621-0.28345 0.70621-0.55841zm1.0985-0.14715c0-0.48507-0.14124-0.88194-0.31387-0.88194-0.17263 0-0.31387 0.39687-0.31387 0.88194 0 0.48507 0.14124 0.88194 0.31387 0.88194 0.17263 0 0.31387-0.39687 0.31387-0.88194zm-2.9243-5.887c-0.1002-0.28142-0.17457-0.19783-0.18963 0.21314-0.01361 0.37188 0.06059 0.58024 0.16485 0.46302 0.10429-0.11723 0.11544-0.4215 0.02473-0.67616zm1.3549 0.30133c0-0.2587-0.21186-0.47037-0.47081-0.47037-0.25894 0-0.4708 0.21167-0.4708 0.47037 0 0.25871 0.21186 0.47037 0.4708 0.47037 0.25895 0 0.47081-0.21166 0.47081-0.47037zm18.832 36.454c0-0.19402 0.14958-0.35277 0.3324-0.35277 0.18282 0 0.2451 0.15875 0.1384 0.35277-0.10668 0.19403-0.25626 0.35278-0.33239 0.35278-0.07616 0-0.13841-0.15875-0.13841-0.35278zm-44.883-0.33195c0-0.18258 0.14124-0.43007 0.31387-0.54999 0.17262-0.11992 0.31386 0.0295 0.31386 0.33196 0 0.30249-0.14124 0.54998-0.31386 0.54998-0.17263 0-0.31387-0.14938-0.31387-0.33195zm45.982-0.0208c-0.12528-0.22784-0.08657-0.57301 0.08612-0.76703 0.20925-0.23519 0.38981-0.2147 0.54166 0.0615 0.12528 0.22784 0.08657 0.573-0.08612 0.76703-0.20924 0.23519-0.3898 0.2147-0.54166-0.0615zm3.0467-3.1225c-0.31504-0.22463-0.25645-0.48013 0.26167-1.1411 0.45777-0.58401 0.61432-0.66121 0.4981-0.24563-0.09322 0.33334-0.03443 0.69989 0.13066 0.81457 0.43107 0.29945 0.37006 0.87339-0.09217 0.86702-0.21579-3e-3 -0.575-0.13565-0.79826-0.29484z" stroke-width=".33276"/>
</svg>
