<?xml version="1.0" encoding="UTF-8"?>
<svg width="259.58" height="300" clip-rule="evenodd" fill-rule="evenodd" stroke-linecap="round" stroke-miterlimit="100" version="1.1" viewBox="0 0 259.58 300" xml:space="preserve" xmlns="http://www.w3.org/2000/svg" xmlns:cc="http://creativecommons.org/ns#" xmlns:dc="http://purl.org/dc/elements/1.1/" xmlns:rdf="http://www.w3.org/1999/02/22-rdf-syntax-ns#"><metadata><rdf:RDF><cc:Work rdf:about=""><dc:format>image/svg+xml</dc:format><dc:type rdf:resource="http://purl.org/dc/dcmitype/StillImage"/><dc:title/></cc:Work></rdf:RDF></metadata><g fill="none" stroke="#000"><path d="m158.01 10.671h19.527c6.5911 0 11.942 5.3511 11.942 11.942v215.72c0 6.5908-5.3511 11.942-11.942 11.942h-19.014" stroke-width="5.1223px"/><path d="m100.32 10.671h-18.287c-6.5911 0-11.942 5.3511-11.942 11.942v215.72c0 6.5908 5.3511 11.942 11.942 11.942 0 0 12.314 0.10337 18.47 0.15523" stroke-linejoin="bevel" stroke-miterlimit="1" stroke-width="5.1223px"/><g stroke-width="5.1756px"><path d="m80.583 214.57 38.814 38.283c5.7063 5.6285 14.676 5.8015 20.017 0.38648l38.144-38.673"/><path d="m80.534 44.963 38.635-38.106c5.68-5.6026 14.658-5.7244 20.035-0.27246l38.404 38.936"/><path d="m202.48 191.43 50.262-50.959c5.8228-5.9031 5.6526-15.527-0.37973-21.476l-50.278-49.591"/><path d="m56.936 191.05-50.099-50.794c-5.804-5.8842-5.6651-15.446 0.3094-21.339l49.798-49.118"/></g></g><g transform="scale(.70382 1.4208)" stroke-width=".25001" aria-label="M"><path d="m141.32 38.524h19.309l24.441 65.177 24.57-65.177h19.309v95.777h-12.638v-84.101l-24.698 65.69h-13.023l-24.698-65.69v84.101h-12.573z" stroke-width=".25001"/></g><g transform="scale(.83887 1.1921)" stroke-width=".29799" style="font-variant-caps:normal;font-variant-east-asian:normal;font-variant-ligatures:normal;font-variant-numeric:normal" aria-label="UNIQUE FORMS ZONE"><path d="m0.38428 227.16h2.8305v12.647q0 3.3464 1.2131 4.8244 1.2131 1.4641 3.9321 1.4641 2.705 0 3.9181-1.4641 1.2131-1.478 1.2131-4.8244v-12.647h2.8305v12.995q0 4.0715-2.0218 6.1491-2.0079 2.0776-5.9399 2.0776-3.946 0-5.9678-2.0776-2.0079-2.0776-2.0079-6.1491z"/><path d="m21.62 227.16h3.7926l9.2306 17.415v-17.415h2.7329v20.818h-3.7926l-9.2306-17.415v17.415h-2.7329z"/><path d="m42.982 227.16h2.8166v20.818h-2.8166z"/><path d="m59.853 229.07q-3.0676 0-4.8802 2.2867-1.7987 2.2867-1.7987 6.2328 0 3.9321 1.7987 6.2188 1.8127 2.2867 4.8802 2.2867t4.8523-2.2867q1.7987-2.2867 1.7987-6.2188 0-3.946-1.7987-6.2328-1.7848-2.2867-4.8523-2.2867zm3.946 18.531 3.709 4.0576h-3.4022l-3.0815-3.3325q-0.46014 0.0279-0.71112 0.0418-0.23704 0.0139-0.46014 0.0139-4.3922 0-7.0275-2.9281-2.6214-2.9421-2.6214-7.8641 0-4.936 2.6214-7.8641 2.6353-2.9421 7.0275-2.9421 4.3783 0 6.9996 2.9421 2.6214 2.9281 2.6214 7.8641 0 3.6253-1.4641 6.2049-1.4501 2.5796-4.2109 3.8066z"/><path d="m73.56 227.16h2.8305v12.647q0 3.3464 1.2131 4.8244 1.2131 1.4641 3.9321 1.4641 2.705 0 3.9181-1.4641 1.2131-1.478 1.2131-4.8244v-12.647h2.8305v12.995q0 4.0715-2.0218 6.1491-2.0079 2.0776-5.9399 2.0776-3.946 0-5.9678-2.0776-2.0079-2.0776-2.0079-6.1491z"/><path d="m94.796 227.16h13.163v2.3704h-10.346v6.163h9.9138v2.3704h-9.9138v7.5434h10.597v2.3704h-13.414z"/><path d="m121.96 227.16h11.964v2.3704h-9.1469v6.1352h8.2546v2.3704h-8.2546v9.9417h-2.8166z"/><path d="m146.86 229.07q-3.0676 0-4.8802 2.2867-1.7987 2.2867-1.7987 6.2328 0 3.9321 1.7987 6.2188 1.8126 2.2867 4.8802 2.2867 3.0676 0 4.8523-2.2867 1.7987-2.2867 1.7987-6.2188 0-3.946-1.7987-6.2328-1.7848-2.2867-4.8523-2.2867zm0-2.2867q4.3783 0 6.9996 2.9421 2.6214 2.9281 2.6214 7.8641 0 4.9221-2.6214 7.8641-2.6214 2.9281-6.9996 2.9281-4.3922 0-7.0275-2.9281-2.6214-2.9281-2.6214-7.8641t2.6214-7.8641q2.6353-2.9421 7.0275-2.9421z"/><path d="m170.76 238.22q0.90633 0.30676 1.7569 1.3107 0.8645 1.0039 1.729 2.7608l2.8584 5.689h-3.0257l-2.6632-5.3404q-1.0318-2.0915-2.0079-2.7748-0.9621-0.68323-2.6353-0.68323h-3.0676v8.7984h-2.8166v-20.818h6.3582q3.5695 0 5.3264 1.492 1.7569 1.492 1.7569 4.5038 0 1.966-0.92027 3.2628-0.90633 1.2967-2.6493 1.7987zm-7.0554-8.7426v7.3901h3.5416q2.0358 0 3.0676-0.93422 1.0458-0.94815 1.0458-2.7748t-1.0458-2.7469q-1.0318-0.93422-3.0676-0.93422z"/><path d="m180.74 227.16h4.197l5.3125 14.167 5.3404-14.167h4.197v20.818h-2.7469v-18.28l-5.3682 14.278h-2.8305l-5.3682-14.278v18.28h-2.7329z"/><path d="m217.88 227.85v2.7469q-1.6035-0.76689-3.0257-1.1434-1.4222-0.37647-2.7469-0.37647-2.3007 0-3.5556 0.89238-1.241 0.89239-1.241 2.5377 0 1.3804 0.82266 2.0915 0.83661 0.69717 3.1512 1.1294l1.7011 0.34859q3.1512 0.59957 4.6432 2.1194 1.5059 1.5059 1.5059 4.0436 0 3.0257-2.0358 4.5874-2.0218 1.5617-5.9399 1.5617-1.478 0-3.1512-0.33464-1.6593-0.33464-3.444-0.98999v-2.9002q1.7151 0.9621 3.3604 1.4501 1.6453 0.48802 3.2349 0.48802 2.4122 0 3.7229-0.94816t1.3107-2.705q0-1.5338-0.94816-2.3983-0.93422-0.8645-3.0815-1.2968l-1.7151-0.33464q-3.1512-0.62746-4.5595-1.966-1.4083-1.3386-1.4083-3.7229 0-2.7608 1.9382-4.3504 1.9521-1.5896 5.3682-1.5896 1.4641 0 2.9839 0.26493t3.1094 0.79478z"/><path d="m231.41 227.16h16.356v2.1473l-13.163 16.3h13.483v2.3704h-16.997v-2.1473l13.163-16.3h-12.842z"/><path d="m260.64 229.07q-3.0676 0-4.8802 2.2867-1.7987 2.2867-1.7987 6.2328 0 3.9321 1.7987 6.2188 1.8126 2.2867 4.8802 2.2867t4.8523-2.2867q1.7987-2.2867 1.7987-6.2188 0-3.946-1.7987-6.2328-1.7848-2.2867-4.8523-2.2867zm0-2.2867q4.3783 0 6.9996 2.9421 2.6214 2.9281 2.6214 7.8641 0 4.9221-2.6214 7.8641-2.6214 2.9281-6.9996 2.9281-4.3922 0-7.0275-2.9281-2.6214-2.9281-2.6214-7.8641t2.6214-7.8641q2.6353-2.9421 7.0275-2.9421z"/><path d="m274.67 227.16h3.7926l9.2306 17.415v-17.415h2.7329v20.818h-3.7926l-9.2306-17.415v17.415h-2.7329z"/><path d="m296.03 227.16h13.163v2.3704h-10.346v6.163h9.9138v2.3704h-9.9138v7.5434h10.597v2.3704h-13.414z"/></g></svg>
