<?xml version="1.0" encoding="UTF-8" standalone="no"?><!DOCTYPE svg PUBLIC "-//W3C//DTD SVG 1.1//EN" "http://www.w3.org/Graphics/SVG/1.1/DTD/svg11.dtd"><svg width="100%" height="100%" viewBox="0 0 1130 1043" version="1.1" xmlns="http://www.w3.org/2000/svg" xmlns:xlink="http://www.w3.org/1999/xlink" xml:space="preserve" xmlns:serif="http://www.serif.com/" style="fill-rule:evenodd;clip-rule:evenodd;stroke-linecap:round;stroke-miterlimit:100;"><g><path d="M644.455,106.268l54.971,-0c18.555,-0 33.619,15.064 33.619,33.619l-0,607.29c-0,18.554 -15.064,33.618 -33.619,33.618l-53.526,0" style="fill:none;stroke:#000;stroke-width:14.42px;"/><path d="M482.055,106.268l-51.481,-0c-18.555,-0 -33.619,15.064 -33.619,33.619l0,607.29c0,18.554 15.064,33.618 33.619,33.618c-0,0 34.665,0.291 51.997,0.437" style="fill:none;stroke:#000;stroke-width:14.42px;stroke-linejoin:bevel;stroke-miterlimit:1;"/></g><g><path d="M426.487,680.273l109.266,107.772c16.064,15.845 41.314,16.332 56.35,1.088l107.381,-108.869" style="fill:none;stroke:#000;stroke-width:14.57px;"/><path d="M426.347,202.804l108.762,-107.275c15.99,-15.772 41.263,-16.115 56.402,-0.767l108.113,109.611" style="fill:none;stroke:#000;stroke-width:14.57px;"/><path d="M769.643,615.142l141.494,-143.456c16.392,-16.618 15.913,-43.71 -1.069,-60.459l-141.541,-139.606" style="fill:none;stroke:#000;stroke-width:14.57px;"/><path d="M359.916,614.049l-141.037,-142.991c-16.339,-16.565 -15.948,-43.483 0.871,-60.072l140.189,-138.273" style="fill:none;stroke:#000;stroke-width:14.57px;"/></g><g transform="matrix(0.495356,0,0,1,123.66,1.77636e-15)"><text x="667.07px" y="613.406px" style="font-family:'Corbel', sans-serif;font-size:525.499px;">M</text></g><g transform="matrix(0.817137,0,0,1,28.0043,1.42109e-14)"><text x="202.818px" y="908.417px" style="font-family:'CorbelLight', 'Corbel', sans-serif;font-weight:300;font-size:95.831px;">UNIQUE FORMS <tspan x="864.93px 919.63px " y="908.417px 908.417px ">ZO</tspan>NE</text></g></svg>