<?xml version="1.0" encoding="UTF-8" standalone="no"?>
<svg
   width="459.54102pt"
   height="459.54102pt"
   viewBox="0 0 459.541 459.54101"
   version="1.2"
   id="svg927"
   sodipodi:docname="LOGO CHILLOUT KOÅO.svg"
   inkscape:version="1.1.1 (3bf5ae0d25, 2021-09-20)"
   xmlns:inkscape="http://www.inkscape.org/namespaces/inkscape"
   xmlns:sodipodi="http://sodipodi.sourceforge.net/DTD/sodipodi-0.dtd"
   xmlns="http://www.w3.org/2000/svg"
   xmlns:svg="http://www.w3.org/2000/svg">
  <defs
     id="defs931" />
  <sodipodi:namedview
     id="namedview929"
     pagecolor="#ffffff"
     bordercolor="#666666"
     borderopacity="1.0"
     inkscape:pageshadow="2"
     inkscape:pageopacity="0.0"
     inkscape:pagecheckerboard="0"
     inkscape:document-units="pt"
     showgrid="false"
     fit-margin-top="0"
     fit-margin-left="0"
     fit-margin-right="0"
     fit-margin-bottom="0"
     inkscape:zoom="0.91326207"
     inkscape:cx="314.80558"
     inkscape:cy="310.97317"
     inkscape:window-width="1920"
     inkscape:window-height="1026"
     inkscape:window-x="0"
     inkscape:window-y="0"
     inkscape:window-maximized="1"
     inkscape:current-layer="svg927" />
  <g
     id="g1283">
    <rect
       style="fill:none;stroke-width:0.678843;stroke-linecap:round"
       id="rect1059"
       width="459.54102"
       height="459.54102"
       x="8.8817842e-16"
       y="-1.4210855e-14" />
    <g
       id="surface22013"
       transform="translate(6.0536294,-85.427979)">
      <path
         style="fill:#211e1e;fill-opacity:1;fill-rule:nonzero;stroke:none"
         d="m 326.83594,434.76562 c 0,59.3711 -48.12891,107.5 -107.5,107.5 -59.3711,0 -107.5,-48.1289 -107.5,-107.5 0,-59.37109 48.1289,-107.5 107.5,-107.5 59.37109,0 107.5,48.12891 107.5,107.5"
         id="path914" />
      <path
         style="fill:#38bfcc;fill-opacity:1;fill-rule:nonzero;stroke:none"
         d="m 326.58594,195.76562 c 0,59.3711 -48.12891,107.5 -107.5,107.5 -59.3711,0 -107.5,-48.1289 -107.5,-107.5 0,-59.37109 48.1289,-107.499995 107.5,-107.499995 59.37109,0 107.5,48.128905 107.5,107.499995"
         id="path916" />
      <path
         style="fill:#211e1e;fill-opacity:1;fill-rule:nonzero;stroke:none"
         d="m 138.04297,172.48047 -0.85938,-0.13672 c -1.50781,0.66406 -2.57031,1.07812 -3.1914,1.24219 -1.11719,1.3125 -1.76953,1.96875 -1.96875,1.96875 -0.64844,0.98047 -1.0625,1.47265 -1.24219,1.47265 0,1.04297 -0.32422,1.85547 -0.97266,2.44532 -0.0898,1.44921 -0.3789,3.09375 -0.86328,4.93359 v 0.72266 c 0,0.67968 -0.16406,1.46484 -0.49609,2.35546 0,0.23829 0.12109,0.56641 0.36328,0.97266 l -0.11328,0.74609 0.49609,1.58594 c 0,0.45313 -0.0469,1.02344 -0.13672,1.71875 0.33203,0.92188 0.5,1.45703 0.5,1.60547 0,0.99609 0.89844,2.42969 2.69141,4.30078 0.0156,0.39453 0.55078,1.05078 1.60937,1.96875 1.92969,0.80078 2.95704,1.28906 3.07813,1.47266 l 0.85937,-0.11328 h 0.2461 c 0.18359,0 0.67187,0.16406 1.47265,0.49609 1.32813,-0.34766 2.26954,-0.63281 2.82813,-0.85937 l 2.46875,-0.5 c 0.34766,-0.73438 0.63281,-1.10547 0.85937,-1.10547 0.13672,0 0.46094,0.082 0.97266,0.25 0.24219,0 0.40625,-0.53907 0.5,-1.60938 l 0.97266,-0.72265 c 0,-0.0937 -0.0391,-0.21875 -0.11328,-0.38672 0,-0.26953 0.28515,-0.76172 0.85937,-1.47266 0.0742,-1.58203 0.24219,-2.5625 0.49609,-2.9375 -0.39062,-1.40625 -0.89062,-2.10547 -1.49218,-2.10547 -0.17969,0 -0.79297,0.082 -1.83594,0.2461 -0.53906,0.98437 -0.86719,1.47265 -0.96875,1.47265 0,1.33985 -0.29688,2.21094 -0.88281,2.60156 0,1.39063 -1.10157,2.61719 -3.30469,3.6875 -0.53125,0 -0.85938,-0.16406 -0.99609,-0.49609 0,-0.82812 -0.89844,-1.24609 -2.69532,-1.24609 -0.30078,0.15234 -0.67187,0.48437 -1.10937,0.99609 l -0.60938,-0.11328 c -0.51172,-0.91797 -0.96484,-1.5 -1.35547,-1.74219 -0.8164,-0.39062 -1.22265,-1.12109 -1.22265,-2.19531 -0.90625,-1.61328 -1.35938,-3.54297 -1.35938,-5.79297 l 0.11328,-0.85937 c -0.16796,-1.16016 -0.25,-1.81641 -0.25,-1.96875 0.16797,-1.25391 0.33204,-1.99219 0.5,-2.21875 0,-0.0742 -0.0391,-0.19532 -0.11328,-0.36329 l 0.2461,0.13672 c 0,-1.08593 0.20703,-1.87109 0.61328,-2.35156 0,-0.86328 0.48828,-1.63672 1.47265,-2.33203 0,-0.67969 0.48829,-1.13281 1.46875,-1.35938 0.4961,-0.64843 0.82813,-0.97265 0.9961,-0.97265 0.30078,0 0.625,0.16797 0.97265,0.5 h 0.36329 c 0.42187,-0.21094 0.70703,-0.66406 0.85937,-1.35938 1.97656,0.22657 2.96484,0.51172 2.96484,0.85938 0.10547,0.8164 0.26954,1.22265 0.4961,1.22265 0.8164,0.30469 1.22265,0.875 1.22265,1.71875 0.98047,1.34375 1.47266,2.53516 1.47266,3.57813 -0.0742,0.42187 -0.11328,0.66406 -0.11328,0.72266 v 0.25 c 0.72266,1.71875 1.41797,2.57812 2.08203,2.57812 0.39063,0 0.67969,-0.12109 0.85938,-0.35937 0.73828,0 1.10937,-1.1836 1.10937,-3.55469 -0.66406,-1.66016 -0.99609,-2.60156 -0.99609,-2.82813 v -0.13672 c 0.22656,-0.48437 0.39062,-0.72265 0.49609,-0.72265 0.0937,-1.13281 0.25781,-2.28906 0.5,-3.46485 -0.67969,-1.79296 -1.45703,-2.6914 -2.33203,-2.6914 h -0.25 c -0.12109,0 -0.36719,0.32422 -0.74609,0.97265 -0.54297,1.07032 -0.86719,1.60547 -0.97266,1.60547 h -0.13672 c -0.44922,0 -0.82031,-0.24609 -1.10937,-0.74609 v -0.36328 l 0.38671,-0.4961 v -0.11328 c 0,-0.13672 -0.0859,-0.21875 -0.25,-0.25 -0.0742,0 -0.40625,0.082 -0.99609,0.25 h -0.22656 c -0.42188,0 -0.63281,-0.082 -0.63281,-0.25 -1.29688,-0.16406 -2.19532,-0.48828 -2.69141,-0.97265 -0.57422,0.21093 -0.86328,0.41406 -0.86328,0.61328 m 15.7539,0.20312 c -0.0625,0 -0.30859,-0.0391 -0.75,-0.11328 -0.49609,0.28516 -0.74218,0.65625 -0.74218,1.10938 0,0.23828 0.043,0.52734 0.13281,0.85937 0,0.22656 0.65625,0.59375 1.96875,1.10938 1.62891,0 2.44531,0.44922 2.44531,1.35547 0,0.34765 -0.0742,0.67187 -0.22656,0.97656 0.0742,0.57031 0.28125,1.26562 0.61328,2.08203 -0.16797,0.39062 -0.25,0.76172 -0.25,1.10547 0,0.41015 0.0352,0.90625 0.11328,1.49609 l -0.11328,0.72266 c 0,0.21094 0.082,0.66406 0.25,1.35937 -0.0937,0.66407 -0.17578,1.07032 -0.25,1.21875 0.16406,0.41016 0.25,0.74219 0.25,0.9961 0,0.19922 -0.0859,0.6875 -0.25,1.47265 0.0742,0.15235 0.19531,0.72266 0.35938,1.71875 l -0.4961,1.72266 v 0.11328 c 0.25781,0.63281 0.42188,1.91016 0.4961,3.82422 l -0.10938,0.60937 c 0.0742,0.16797 0.10938,0.28907 0.10938,0.36329 0,0.63281 -0.36719,1.08593 -1.10938,1.35937 -1.92969,0 -3.03125,0.44922 -3.30078,1.35547 v 0.36328 c 0.0898,0.40625 1.07031,0.82031 2.94141,1.24609 h 0.25 l 2.07812,-0.86328 h 0.38672 c 0.0742,0 0.39844,0.0781 0.97266,0.22657 h 0.11328 c 0.48437,0 1.14062,-0.0352 1.96875,-0.11329 l 0.86328,0.36329 c 0.82812,0 1.24219,-0.40625 1.24219,-1.22266 -0.25782,-0.30078 -0.38282,-0.55078 -0.38282,-0.74609 -2.08203,-0.73829 -3.18359,-1.35157 -3.30468,-1.83204 -0.15235,-0.42187 -0.31641,-1.44921 -0.5,-3.07812 0,-0.45313 0.0391,-1.02734 0.11328,-1.72266 -0.0742,-0.32812 -0.11328,-0.61718 -0.11328,-0.85937 0.83203,-2.85156 1.48828,-4.36719 1.96875,-4.54688 0.48437,0 0.9375,-0.53906 1.35937,-1.60937 0,-0.53906 0.8125,-1.03125 2.44531,-1.46875 h 0.7461 c 0.26953,-0.5 0.59375,-0.7461 0.97265,-0.7461 0.45313,0 0.78516,0.21094 0.9961,0.63282 1.14453,0.55859 1.71875,1.13281 1.71875,1.71875 0,0.0898 -0.0352,0.5 -0.11328,1.22265 0,0.13672 0.0781,0.33985 0.22656,0.60938 0,1.17969 0.0469,2.12109 0.13672,2.83203 -0.0898,1.20703 -0.13672,2.60156 -0.13672,4.18359 v 0.11328 c -0.31641,1.28516 -0.47656,2.10547 -0.47656,2.46875 0,0.72657 -0.82032,1.29688 -2.46485,1.71875 -0.13672,-0.0742 -0.30078,-0.11328 -0.5,-0.11328 -0.17969,0 -0.46484,0.1211 -0.85937,0.36328 v 0.11329 c 0,1.07031 0.25,1.72656 0.74609,1.96875 h 0.25 C 167.00391,200.24219 167.24609,200 167.30859,200 h 1.49219 c 0.26953,0 0.47656,0.0352 0.60938,0.11328 0.58984,0.40625 1.08203,0.60938 1.47265,0.60938 h 0.11328 c 0.42188,0 0.79297,-0.1211 1.10938,-0.36329 h 1.35547 c 0.92187,0.33204 1.49609,0.5 1.72265,0.5 h 0.4961 c 0.18359,0 0.38672,-0.45312 0.61328,-1.35937 -0.15235,-0.45313 -0.60547,-1.10938 -1.35938,-1.96875 -1.3125,-0.0742 -1.96875,-0.32422 -1.96875,-0.74609 v -0.22657 c 0,-0.40625 0.12891,-0.82031 0.38672,-1.24609 -0.0898,-0.4375 -0.13672,-0.80469 -0.13672,-1.10938 v -0.97265 c 0,-0.23828 0.16407,-0.69141 0.4961,-1.35547 -0.4961,-0.90625 -0.7461,-1.51563 -0.7461,-1.83594 v -1.10937 c 0,-0.32813 0.082,-0.86328 0.25,-1.60547 0,-2.05078 -0.52734,-3.89453 -1.58593,-5.52344 -0.0898,0 -0.13282,0.0391 -0.13282,0.11328 h -0.11718 l 0.11718,-0.24609 c -0.16797,0 -0.41797,-0.1211 -0.75,-0.36328 l -0.22656,0.11328 c 0,-0.0742 0.0391,-0.11328 0.11719,-0.11328 v -0.13672 c -1.67578,-0.98047 -2.70313,-1.46875 -3.08203,-1.46875 -0.16407,0 -0.73828,0.082 -1.71875,0.24609 l -0.60938,-0.11328 c 0,0.0469 -0.25,0.20703 -0.74609,0.47656 0,0.0898 0.043,0.13672 0.13281,0.13672 v 0.11328 c -0.0898,0 -0.13281,-0.0391 -0.13281,-0.11328 -0.23047,0 -0.59766,0.1211 -1.10938,0.35938 -0.85937,1.07422 -1.67578,1.60937 -2.44531,1.60937 -0.18359,0 -0.34766,-0.0469 -0.49609,-0.13672 -0.28907,0 -0.57422,-1.02343 -0.86328,-3.07812 0.0742,-1.99219 0.11328,-3.25781 0.11328,-3.80078 l 0.13672,-0.60938 c -0.27344,-0.57422 -0.47657,-0.86328 -0.61329,-0.86328 0,-0.0898 0.0391,-0.13672 0.11719,-0.13672 0,-0.52734 -0.49219,-1.01562 -1.47265,-1.46875 -1.35938,0.16406 -2.70704,0.28516 -4.05079,0.36328 m 30.39454,2.66797 c 0,1.58594 0.65625,2.62891 1.96875,3.125 1.3125,-0.0625 1.96875,-0.18359 1.96875,-0.36328 0.73828,0 1.35546,-0.50391 1.85546,-1.51562 0.19532,-1.35938 0.39844,-2.1875 0.60938,-2.48829 v -0.13671 c -1.3125,-1.32813 -2.50391,-1.99219 -3.57422,-1.99219 -1.48047,0 -2.42187,1.125 -2.82812,3.37109 m -0.36329,4.86719 c -0.62109,-0.16797 -0.98828,-0.25 -1.10937,-0.25 -0.57422,0.13672 -0.85938,0.26562 -0.85938,0.38672 -1.38671,0.10547 -2.08203,0.35156 -2.08203,0.74609 h 0.11328 c -0.16796,0.24219 -0.33203,0.69922 -0.49609,1.37891 0,0.5 0.28516,0.8789 0.85938,1.13281 0.10546,-0.0898 0.67968,-0.17187 1.71875,-0.25 l 0.88281,0.11328 1.22265,-0.26953 c 0.17969,0 0.34375,0.0508 0.4961,0.15625 0.98047,0 1.47265,0.83203 1.47265,2.49219 v 0.74609 c 0,0.28516 -0.1289,0.78516 -0.38671,1.49219 l 0.13671,0.85937 c 0,0.21094 -0.0469,0.83985 -0.13671,1.87891 0.0898,0.4375 0.13671,0.6875 0.13671,0.74609 -0.0898,0.16797 -0.13671,0.29688 -0.13671,0.38672 l 0.25,1.13282 c -0.0586,0.48046 -0.14454,0.72265 -0.25,0.72265 0,2.33985 -0.57422,3.50781 -1.71875,3.50781 h -0.11329 l -0.74609,-0.11328 -0.85937,0.36328 c -0.53125,0 -0.9375,-0.0391 -1.22266,-0.11328 -2.46094,0 -3.6875,0.57813 -3.6875,1.74219 0,0.85938 0.82031,1.47656 2.46484,1.85547 0,-0.13672 0.40625,-0.21094 1.22266,-0.22656 h 0.74609 c 0.39453,0 0.80078,0.12109 1.22266,0.36328 1.40234,-0.57422 2.55078,-0.86328 3.4375,-0.86328 h 1.47266 c 0.22656,0 0.47656,0.0859 0.74609,0.25 0.18359,0 0.63672,-0.043 1.35937,-0.13672 0.67969,0.25781 2.64063,0.46094 5.88282,0.61328 0.30078,-0.31641 0.55078,-0.89844 0.74609,-1.74219 -0.26953,-0.33203 -0.64062,-0.71094 -1.10937,-1.13281 l -0.2461,0.13672 c 0,-0.19531 -0.57422,-0.40235 -1.72265,-0.61328 -0.64844,0.16797 -1.05469,0.25 -1.21875,0.25 h -0.13672 c -0.75391,0 -1.44922,-0.043 -2.08203,-0.13282 -0.90625,0 -1.35938,-0.78515 -1.35938,-2.35546 0,-0.96485 0.0469,-1.63672 0.13672,-2.01563 -0.0898,-1.16016 -0.13672,-2.28516 -0.13672,-3.37109 v -4.86719 c 0,-0.49609 -0.12109,-1.11328 -0.35937,-1.85547 l 0.10937,-1.24219 -0.10937,-0.25 c 0,-1.34375 -1.14844,-2.01562 -3.44141,-2.01562 z m 8.71094,2.08203 c 0.0625,0.42188 0.22266,0.63281 0.47656,0.63281 h 0.63282 v -0.79297 c -0.21094,0 -0.31641,-0.10546 -0.31641,-0.3164 h -0.63281 c 0,0.10547 -0.0508,0.26562 -0.16016,0.47656 m 0.75,21.16016 c 0,0.16406 0.082,0.25 0.2461,0.25 h 0.38671 c 0.15235,0 0.22657,-0.0859 0.22657,-0.25 v -0.13672 c -0.0742,0 -0.19532,-0.0352 -0.36328,-0.11328 z m 9.23438,-30.77735 -2.10547,-0.36328 c -0.69531,0 -1.47266,0.49219 -2.33203,1.46875 v 0.25 c 0.66406,1.07422 1.60547,1.60938 2.82812,1.60938 l 1.10938,-0.13672 c 0.13672,0 0.46093,0.082 0.97265,0.24609 0.39453,0 0.8086,-0.0352 1.2461,-0.10937 0.4375,0.0742 0.89062,0.10937 1.35937,0.10937 1.09766,0 1.79297,0.53906 2.08203,1.60938 0,0.71093 0.0352,1.60547 0.10938,2.69531 l -0.10938,0.49609 c 0,0.0898 0.0352,0.21094 0.10938,0.36328 -0.0742,1.07032 -0.10938,1.9375 -0.10938,2.60157 v 0.97265 c 0,0.16407 -0.0859,0.57422 -0.25,1.22266 0,0.22656 0.082,0.47266 0.25,0.74609 0,0.4375 -0.0469,0.8086 -0.13672,1.10938 0.0898,1.66015 0.21875,2.84375 0.38282,3.55078 v 0.38672 c 0,0.19531 -0.125,0.5664 -0.38282,1.10937 0.11719,0.48438 0.28516,0.72266 0.4961,0.72266 l -0.11328,0.25 v 0.99609 c 0,0.46485 0.0391,1.125 0.11328,1.96875 -0.39063,0.81641 -0.91797,1.22266 -1.58594,1.22266 h -0.99219 c -0.80078,0 -2.03125,0.16797 -3.6914,0.49609 -0.19532,0 -0.5625,-0.082 -1.10938,-0.24609 -1.05469,0.40625 -1.58203,1.09766 -1.58203,2.08203 v 0.35938 c 0,0.39453 0.69531,0.64062 2.08203,0.74609 0.8125,-0.16406 2.65625,-0.36719 5.52344,-0.60938 l 0.74609,0.11329 c 0.0742,-0.0742 0.85157,-0.15625 2.33203,-0.25 0.30079,0.25781 1.32813,0.42578 3.07813,0.5 0.34375,-0.16797 0.59375,-0.25 0.74609,-0.25 1.20703,0.17968 2.23047,0.38671 3.07422,0.60937 l 1.08985,-0.47266 c 0.72265,0.0742 1.13671,0.11329 1.24218,0.11329 0.45313,0 0.74219,-0.20313 0.86328,-0.61329 0,-1.47656 -0.57421,-2.21484 -1.72265,-2.21484 -1.40235,-0.18359 -2.34766,-0.34766 -2.82813,-0.5 -0.0742,0 -0.36328,0.21094 -0.85937,0.63281 h -0.25 c -0.52735,0 -1.10156,-0.082 -1.71875,-0.24609 -0.76953,0 -1.30469,-0.53906 -1.60938,-1.60938 v -1.35546 c 0,-0.95313 0.0469,-1.9336 0.13672,-2.94532 -0.0898,-0.43359 -0.13672,-0.80468 -0.13672,-1.10937 0,-0.19531 0.0469,-0.80469 0.13672,-1.83203 l -0.25,-4.1836 0.11328,-0.61328 -0.11328,-0.63281 c 0,-0.0586 0.0859,-0.46875 0.25,-1.22266 0,-0.375 -0.0469,-1.32031 -0.13672,-2.82812 l 0.13672,-0.85938 c -0.16406,-1.58593 -0.33203,-2.76953 -0.49609,-3.55468 0.16406,-0.30079 0.24609,-0.63282 0.24609,-0.9961 v -0.11328 c 0,-0.875 -0.33203,-1.41016 -0.99219,-1.60547 0,0.0742 -0.0391,0.11328 -0.11328,0.11328 v -0.22656 h -0.25 c -0.46875,0 -1.16406,-0.12891 -2.08203,-0.38672 -1.73437,0.0937 -3.33594,0.29688 -4.79687,0.61328 m 14.46093,18.08203 v 0.88282 h 0.4961 l 0.36328,-0.45313 -0.25,-0.67969 z m 2.82813,0.42969 c -0.0625,0 -0.30078,-0.0742 -0.72656,-0.22656 -0.13282,0 -0.21875,0.14453 -0.2461,0.42969 0,0.30078 0.082,0.45312 0.2461,0.45312 0.21093,0 0.45312,-0.15234 0.72656,-0.45312 l 0.74609,0.25 h 0.60938 v -0.67969 c 0,-0.24219 -0.082,-0.39453 -0.2461,-0.45313 h -0.11328 c -0.25781,0 -0.58984,0.22657 -0.99609,0.67969 m 3.57812,0 v 0.20313 c 0.11719,0.4375 0.23829,0.65625 0.35938,0.65625 h 0.49609 v -0.85938 c -0.0898,0 -0.21093,-0.0742 -0.35937,-0.22656 -0.15235,0.15234 -0.31641,0.22656 -0.4961,0.22656 m -1,0.45313 v 0.20312 h 0.38672 c 0.16407,0 0.25,-0.15234 0.25,-0.45312 v -0.20313 h -0.38672 c -0.13671,0 -0.21875,0.14844 -0.25,0.45313 m 2.5586,-18.96485 -2.10547,-0.36328 c -0.69141,0 -1.46875,0.49219 -2.32813,1.46875 v 0.25 c 0.66407,1.07422 1.60547,1.60938 2.82813,1.60938 l 1.10937,-0.13672 c 0.13282,0 0.45704,0.082 0.97266,0.24609 0.39063,0 0.80469,-0.0352 1.24219,-0.10937 0.4375,0.0742 0.89062,0.10937 1.35937,0.10937 1.10157,0 1.79688,0.53906 2.08203,1.60938 0,0.71093 0.0391,1.60547 0.11329,2.69531 l -0.11329,0.49609 c 0,0.0898 0.0391,0.21094 0.11329,0.36328 -0.0742,1.07032 -0.11329,1.9375 -0.11329,2.60157 v 0.97265 c 0,0.16407 -0.082,0.57422 -0.25,1.22266 0,0.22656 0.082,0.47266 0.25,0.74609 0,0.4375 -0.043,0.8086 -0.13671,1.10938 0.0937,1.66015 0.21875,2.84375 0.38671,3.55078 v 0.38672 c 0,0.19531 -0.1289,0.5664 -0.38671,1.10937 0.12109,0.48438 0.28906,0.72266 0.5,0.72266 l -0.11329,0.25 v 0.99609 c 0,0.46485 0.0352,1.125 0.11329,1.96875 -0.39454,0.81641 -0.92188,1.22266 -1.58594,1.22266 h -0.9961 c -0.79687,0 -2.02734,0.16797 -3.6875,0.49609 -0.19531,0 -0.5664,-0.082 -1.10937,-0.24609 -1.05469,0.40625 -1.58203,1.09766 -1.58203,2.08203 v 0.35938 c 0,0.39453 0.6914,0.64062 2.08203,0.74609 0.8125,-0.16406 2.65234,-0.36719 5.51953,-0.60938 l 0.74609,0.11329 c 0.0781,-0.0742 0.85157,-0.15625 2.33204,-0.25 0.30078,0.25781 1.32812,0.42578 3.07812,0.5 0.34766,-0.16797 0.59375,-0.25 0.74609,-0.25 1.20704,0.17968 2.23438,0.38671 3.07813,0.60937 l 1.08594,-0.47266 c 0.72656,0.0742 1.14062,0.11329 1.24609,0.11329 0.45313,0 0.73828,-0.20313 0.85938,-0.61329 0,-1.47656 -0.57422,-2.21484 -1.71875,-2.21484 -1.40625,-0.18359 -2.34766,-0.34766 -2.82813,-0.5 -0.0781,0 -0.36328,0.21094 -0.86328,0.63281 h -0.24609 c -0.53125,0 -1.10157,-0.082 -1.72266,-0.24609 -0.76953,0 -1.30469,-0.53906 -1.60547,-1.60938 v -1.35546 c 0,-0.95313 0.0469,-1.9336 0.13672,-2.94532 -0.0898,-0.43359 -0.13672,-0.80468 -0.13672,-1.10937 0,-0.19531 0.0469,-0.80469 0.13672,-1.83203 l -0.25,-4.1836 0.11328,-0.61328 -0.11328,-0.63281 c 0,-0.0586 0.082,-0.46875 0.25,-1.22266 0,-0.375 -0.0469,-1.32031 -0.13672,-2.82812 l 0.13672,-0.85938 c -0.16797,-1.58593 -0.33203,-2.76953 -0.5,-3.55468 0.16797,-0.30079 0.25,-0.63282 0.25,-0.9961 v -0.11328 c 0,-0.875 -0.33203,-1.41016 -0.99609,-1.60547 0,0.0742 -0.0391,0.11328 -0.11329,0.11328 v -0.22656 h -0.25 c -0.46484,0 -1.16015,-0.12891 -2.08203,-0.38672 -1.73437,0.0937 -3.33203,0.29688 -4.79687,0.61328 m 14.46094,18.08203 v 0.88282 h 0.5 l 0.36328,-0.45313 -0.25,-0.67969 z m 2.82812,0.42969 c -0.0586,0 -0.30078,-0.0742 -0.72266,-0.22656 -0.13671,0 -0.21875,0.14453 -0.25,0.42969 0,0.30078 0.082,0.45312 0.25,0.45312 0.21094,0 0.45313,-0.15234 0.72266,-0.45312 l 0.75,0.25 h 0.60938 v -0.67969 c 0,-0.24219 -0.082,-0.39453 -0.25,-0.45313 h -0.11329 c -0.2539,0 -0.58593,0.22657 -0.99609,0.67969 m 3.57813,0 v 0.20313 c 0.12109,0.4375 0.24218,0.65625 0.36328,0.65625 h 0.49609 v -0.85938 c -0.0898,0 -0.21094,-0.0742 -0.36328,-0.22656 -0.14844,0.15234 -0.31641,0.22656 -0.49609,0.22656 m -0.9961,0.45313 v 0.20312 h 0.38281 c 0.16797,0 0.25,-0.15234 0.25,-0.45312 v -0.20313 h -0.38281 c -0.13672,0 -0.21875,0.14844 -0.25,0.45313 m 1.42578,-8.78125 c -0.33203,0.72265 -0.78515,1.55468 -1.35937,2.48828 -0.4375,0.21094 -0.88281,2.07422 -1.33203,5.58984 0.13281,0.15235 0.33984,0.82422 0.60937,2.01563 -0.16797,0.30078 -0.25,0.63281 -0.25,0.99609 v 0.11328 c 0.85938,1.94531 1.35156,2.91797 1.47266,2.91797 0.3164,0.73828 0.76953,1.45703 1.35547,2.14844 1.08593,0.25781 1.74218,0.67969 1.96875,1.26953 l 2.94531,1.13281 h 0.13281 c 0.52735,-0.34765 0.89844,-0.51953 1.10938,-0.51953 0.66406,0 1.60547,-0.29687 2.82812,-0.88672 l 0.85938,0.16016 c 0.41015,-0.10547 1.1875,-0.45313 2.33203,-1.04297 1.40234,-1.28125 2.38672,-3.33984 2.94531,-6.17578 v -1.90235 c 0,-0.0586 0.082,-0.39062 0.24609,-0.99609 v -0.25 c -0.24218,-0.8125 -0.36328,-1.31641 -0.36328,-1.51562 l 0.11719,-0.76954 c 0,-0.63281 -0.20703,-1.13671 -0.61328,-1.51562 0,-0.96484 -0.45313,-1.67578 -1.35938,-2.12891 -0.375,-1.09765 -0.69921,-1.65234 -0.97265,-1.65234 0,-0.0703 0.0391,-0.10938 0.11328,-0.10938 0,-0.19921 -0.12109,-0.45312 -0.35938,-0.76953 -0.71093,0 -1.40625,-0.29687 -2.08593,-0.88281 l -0.2461,0.11328 0.11328,-0.22656 c -0.15234,0 -0.89062,-0.21875 -2.21875,-0.65625 l -1.71875,0.13281 c -0.0937,0 -0.21093,-0.043 -0.36328,-0.13281 -1.07031,0 -3.03906,1.01562 -5.90625,3.05469 m 6.40625,0.25 v 0.24609 l 1.21875,-0.13281 h 0.5 c 0.48047,0.39062 0.72266,0.64844 0.72266,0.76562 0.0898,0 0.13672,-0.043 0.13672,-0.13281 h 0.11328 l -0.11328,0.24609 v 0.13672 c 0.54297,0 1.03515,0.3711 1.47265,1.10938 0.0742,0 0.11329,-0.0391 0.11329,-0.11328 h 0.13281 l -0.13281,0.27343 c 0.16406,0 0.24609,0.0352 0.24609,0.11329 0.57422,0 0.85937,0.42187 0.85937,1.26562 l 1.35938,2.89844 -0.11328,0.74609 v 1.40235 c 0,0.40625 -0.12891,0.70312 -0.38672,0.88281 -0.16406,1.76562 -0.32422,2.64844 -0.47266,2.64844 0,0.0898 0.0391,0.13671 0.11328,0.13671 0,0.14844 -0.12109,0.22266 -0.36328,0.22266 -0.54297,0.69531 -0.875,1.04297 -0.99609,1.04297 -0.82813,0.83203 -1.80859,1.24609 -2.94141,1.24609 l -1.10937,-0.11328 c -0.0742,0 -0.39844,0.0352 -0.97266,0.11328 -1.02344,-0.3164 -1.60547,-0.47656 -1.74219,-0.47656 -1.46484,-1.03906 -2.40625,-2.09766 -2.82812,-3.16797 0,-0.22656 0.043,-0.5664 0.13672,-1.01953 0,-1.17578 -0.16797,-1.76562 -0.5,-1.76562 0,-0.0742 0.0469,-0.11329 0.13672,-0.11329 l -0.25,-0.76562 c 0,-0.5 0.12109,-1.13281 0.36328,-1.90234 0,-0.90625 0.40625,-1.78907 1.22265,-2.64844 l -0.11328,-0.25 c 0.0742,0 0.11328,0.0391 0.11328,0.11328 0.46485,-0.33203 0.79688,-0.70703 0.99219,-1.12891 1.96485,-1 2.94531,-1.625 2.94531,-1.8789 z m 26.90625,-3.14844 c -2.125,0 -3.1914,0.50781 -3.1914,1.51562 0.55859,1.4336 1.05078,2.15235 1.47265,2.15235 0.17969,0 0.80078,-0.16797 1.85547,-0.5 0.1211,0.30469 0.57422,0.76172 1.35938,1.38281 l -0.38672,1.65234 c 0.0898,0.73829 0.13672,1.16016 0.13672,1.26563 0,0.33203 -0.16797,1.05078 -0.5,2.14844 l 0.13672,0.75 v 0.76953 c 0,0.76953 -0.53516,1.70312 -1.60547,2.80469 -0.57422,1.29687 -1.51563,2.47265 -2.83203,3.53125 0,0.0898 0.0391,0.13671 0.11328,0.13671 v 0.13282 c -0.0742,0 -0.11328,-0.043 -0.11328,-0.13282 l -0.99219,0.4961 -0.72656,-0.13672 c -0.5586,0.0937 -1.01172,0.13672 -1.35547,0.13672 -0.92188,0 -1.61719,-1.4336 -2.08203,-4.30078 0.0742,-0.30078 0.10937,-0.47266 0.10937,-0.51953 0,-0.16407 -0.0352,-0.625 -0.10937,-1.37891 0.16406,-2.41406 0.24609,-3.72656 0.24609,-3.9375 0,-0.0781 -0.082,-0.49219 -0.24609,-1.24609 0.0117,-0.96485 0.17187,-1.81641 0.47265,-2.5586 0,-0.0742 -0.0391,-0.11328 -0.11328,-0.11328 0,-1.58203 -0.45312,-2.80469 -1.35547,-3.66406 h -1.72265 c -0.8125,0 -1.79688,-0.0391 -2.94141,-0.11328 -0.46875,0 -0.88281,0.375 -1.24609,1.13281 0.46875,0.75391 0.92187,1.12891 1.35937,1.12891 1.72266,0.13671 2.58203,0.67968 2.58203,1.6289 v 8.375 c 0,0.42188 0.082,0.92969 0.2461,1.51563 -0.23829,1.40234 -0.35938,2.20312 -0.35938,2.39843 v 0.40625 c 0,0.39454 0.65234,1.39844 1.96875,3.01172 l 0.24609,-0.11328 c 0,0.0742 -0.043,0.11328 -0.13281,0.11328 0,0.27344 0.90235,0.52735 2.71485,0.76953 h 1.47265 l 0.4961,0.38672 h 0.25 l 0.47265,-0.38672 h 0.13672 c 0.17969,0 0.33984,0.0469 0.47656,0.13672 0.45313,-0.25781 0.98828,-0.38672 1.60547,-0.38672 0.69531,-0.85937 1.3125,-1.28906 1.85547,-1.28906 h 0.36328 c 1.3125,1.02735 2.4961,1.53906 3.55078,1.53906 l 1.7461,-0.13671 c 0.0742,0 0.35937,0.21093 0.85937,0.63671 h 0.35938 l 0.61328,-0.36328 c 0.46484,0.24219 0.80078,0.36328 0.99609,0.36328 0.31641,-0.19921 0.47266,-0.36328 0.47266,-0.5 v -0.13671 l -0.10938,-0.25 0.2461,0.13671 v -0.63281 l -0.60938,-0.76953 -0.25,0.11328 c 0,-0.19531 -0.28515,-0.52734 -0.85937,-0.99609 l -0.85938,0.11328 h -0.74609 c -0.58985,0 -0.96094,-0.20313 -1.10938,-0.60938 v -1.90234 c 0,-1.83984 0.11719,-3.10547 0.35938,-3.80078 0,-0.34766 -0.0352,-0.80859 -0.11328,-1.38281 0,-0.0898 0.0391,-0.4375 0.11328,-1.03907 l -0.11328,-0.88281 0.11328,-1.13281 c -0.24219,-0.64844 -0.35938,-1.10938 -0.35938,-1.37891 v -1.40234 c 0.23828,-0.74219 0.35938,-1.15625 0.35938,-1.24609 v -0.27344 c 0,-0.26953 -0.1211,-0.73828 -0.35938,-1.40235 0,-1.07031 -1.10937,-1.70312 -3.32812,-1.90234 -0.30078,0.0937 -0.67188,0.13672 -1.10938,0.13672 m 17.13282,-7.375 v 0.35937 c 0,1.04297 -0.0469,2.23438 -0.13672,3.57813 0.16797,0.93359 0.25,1.58984 0.25,1.96875 -0.36328,0.67578 -1.42578,1.25 -3.19141,1.71875 L 293,180.08203 l -1.46875,0.13672 -1.46875,-0.13672 c -0.42578,0 -0.79297,0.41016 -1.11328,1.22266 0.0625,1.73437 0.34765,2.60156 0.86328,2.60156 0.33203,0 1.51562,-0.24609 3.55078,-0.74609 h 0.99609 c 0.42188,0 0.91407,0.16796 1.47266,0.5 0.39063,0 0.63281,1.26562 0.72266,3.80078 0,0.19531 -0.1211,0.5664 -0.36328,1.10937 0.0937,3.60547 0.21484,5.41016 0.36328,5.41016 0,1.37109 0.37109,2.80469 1.10937,4.29687 0.9961,0.95313 1.65235,1.77344 1.96875,2.46875 l 0.25,-0.11328 v 0.22656 h 0.60938 l 1.24609,0.38282 h 0.25 c 0.23828,0 0.56641,-0.12891 0.97266,-0.38282 l 0.85937,0.13672 c 0.84375,0 1.82422,-0.41015 2.94141,-1.22265 l 1.85547,-2.35547 c 0.33203,-0.76953 0.70312,-1.95313 1.10937,-3.55078 v -0.25 c 0,-1.3125 -0.57422,-1.96875 -1.71875,-1.96875 -0.80078,0 -1.5039,0.40625 -2.10547,1.22265 -0.22656,0.96485 -0.55078,1.90625 -0.97265,2.82813 -1.01172,1.14453 -1.83203,1.71875 -2.46875,1.71875 h -0.11328 c -0.66407,0 -0.99219,-0.32422 -0.99219,-0.97266 -0.81641,-0.66406 -1.22656,-1.15234 -1.22656,-1.47265 v -0.13282 c 0,-0.27343 0.0391,-0.47656 0.11328,-0.61328 l -0.11328,-0.74609 v -0.36328 l 0.11328,-1.21875 c -0.13282,0 -0.25391,-0.28907 -0.35938,-0.86328 0.33203,-2.3086 0.4961,-3.78516 0.4961,-4.4336 0,-0.41015 -0.043,-1.01953 -0.13672,-1.83203 0.16797,0 0.25,-0.0859 0.25,-0.25 1.34375,-0.25781 2.70312,-0.625 4.07422,-1.10937 l 0.72265,0.25 c 0.66406,-0.24219 0.9961,-0.49219 0.9961,-0.75 h 0.25 c 0,0.22656 0.24218,0.42968 0.72656,0.61328 1.07031,-0.5586 1.60547,-1.13282 1.60547,-1.72266 v -0.72266 c 0,-0.60156 -0.98828,-0.97265 -2.96485,-1.10937 -0.46875,0 -1.82031,0.082 -4.05078,0.25 -0.40625,-0.0898 -0.61328,-0.17188 -0.61328,-0.25 -1.07031,0 -1.60547,-0.33203 -1.60547,-0.99609 v -0.11329 c 0,-0.17968 0.0469,-0.34765 0.13672,-0.49609 l -0.13672,-0.25 c 0,-0.46484 -0.0351,-1.81641 -0.11328,-4.05078 -0.40625,-1.3125 -0.77734,-1.96875 -1.10937,-1.96875 -1.14454,0 -1.71875,0.16406 -1.71875,0.5"
         id="path918" />
      <path
         style="fill:#ffffff;fill-opacity:1;fill-rule:nonzero;stroke:none"
         d="m 172.60547,219.29297 h 1.09375 v -3.83594 h 3.34765 V 214.375 h -3.35937 v -2 h 3.35937 v -1.09375 h -4.4414 z m 8.26562,-3.25781 c 0,1.16015 0.28516,2.03906 0.85938,2.63281 0.57031,0.59765 1.33203,0.89453 2.28515,0.89453 0.92969,0 1.67579,-0.29297 2.23438,-0.88281 0.55859,-0.58594 0.83984,-1.36719 0.83984,-2.34766 v -5.03906 h -1.09375 v 5.11328 c 0,0.66797 -0.17968,1.18359 -0.53125,1.55078 -0.35547,0.36719 -0.85156,0.54688 -1.48828,0.54688 -0.64062,0 -1.13672,-0.19922 -1.48437,-0.59375 -0.35157,-0.39844 -0.52735,-0.96485 -0.52735,-1.69141 v -4.92578 h -1.09375 z m 10.32813,3.25781 h 1.09375 v -5.69141 l 5.92187,6.0625 v -8.38281 h -1.09375 v 5.76953 l -5.92187,-6.08984 z m 22.08984,-6.39844 c 0,-0.52734 -0.1914,-0.97266 -0.57031,-1.33984 C 212.33594,211.18359 211.875,211 211.32812,211 c -0.625,0 -1.125,0.19141 -1.49609,0.57812 -0.37109,0.38282 -0.55859,0.8086 -0.55859,1.27735 0,0.16797 0.0352,0.36328 0.10156,0.58594 0.0703,0.21875 0.28906,0.5625 0.65625,1.03125 0.0547,0.0742 0.12109,0.16796 0.19922,0.28515 -0.85547,0.58594 -1.40625,1.03125 -1.64453,1.33594 -0.23828,0.30469 -0.35547,0.69141 -0.35547,1.16016 0,0.6289 0.26562,1.17187 0.80469,1.63281 0.53515,0.45703 1.17187,0.6875 1.90625,0.6875 0.85937,0 1.73828,-0.4336 2.64062,-1.29688 l 0.95313,1 h 1.42968 l -1.68359,-1.78125 0.94922,-1.0664 -0.77344,-0.69141 -0.90234,0.99219 -1.66407,-1.77344 c 0.9336,-0.62109 1.39844,-1.30859 1.39844,-2.0625 m -2.94922,-0.0547 c 0,-0.22656 0.0898,-0.41797 0.26953,-0.57031 0.17969,-0.15234 0.40625,-0.22656 0.6836,-0.22656 0.29687,0 0.53125,0.0781 0.70312,0.23437 0.17578,0.15235 0.26172,0.35938 0.26172,0.61719 0,0.21875 -0.0898,0.42969 -0.27734,0.625 -0.1836,0.19922 -0.46094,0.42188 -0.82813,0.67578 -0.54297,-0.5664 -0.8125,-1.01953 -0.8125,-1.35547 m 1.53125,5.44141 c -0.28906,0.16797 -0.59765,0.25 -0.92578,0.25 -0.4414,0 -0.8164,-0.12891 -1.1289,-0.37891 -0.3125,-0.2539 -0.46875,-0.55859 -0.46875,-0.91015 0,-0.23438 0.0937,-0.46485 0.28125,-0.69532 0.1914,-0.23046 0.64062,-0.57812 1.35156,-1.03906 l 1.8789,1.99219 c -0.375,0.35547 -0.70312,0.61719 -0.98828,0.78125 m 13.87891,1.01172 h 1.09375 v -3.83594 h 3.34375 V 214.375 h -3.35547 v -2 h 3.35547 v -1.09375 H 225.75 Z m 9.25781,-0.99219 c 0.85938,0.83984 1.90235,1.26172 3.125,1.26172 1.24219,0 2.28906,-0.41797 3.14063,-1.25391 0.85156,-0.83593 1.27734,-1.85937 1.27734,-3.07031 0,-1.14062 -0.42969,-2.12891 -1.29297,-2.96094 -0.86328,-0.82812 -1.89062,-1.24609 -3.08594,-1.24609 -1.22656,0 -2.27343,0.41406 -3.14453,1.23828 -0.87109,0.82422 -1.30859,1.81641 -1.30859,2.96875 0,1.19922 0.42969,2.21875 1.28906,3.0625 m 5.44141,-0.80859 c -0.625,0.61718 -1.3711,0.92578 -2.23438,0.92578 -0.9375,0 -1.73437,-0.30469 -2.3789,-0.90625 -0.64844,-0.60547 -0.97266,-1.34766 -0.97266,-2.22266 0,-0.86328 0.31641,-1.60156 0.94531,-2.21484 0.63282,-0.61719 1.39063,-0.92188 2.27344,-0.92188 0.92969,0 1.71484,0.30078 2.35156,0.90625 0.63672,0.60547 0.95703,1.34766 0.95703,2.23047 0,0.85156 -0.3125,1.58594 -0.9414,2.20313 m 7.05859,0.80859 c 0.85938,0.83984 1.90235,1.26172 3.125,1.26172 1.24219,0 2.28906,-0.41797 3.14063,-1.25391 0.85547,-0.83593 1.28125,-1.85937 1.28125,-3.07031 0,-1.14062 -0.4336,-2.12891 -1.29688,-2.96094 -0.86328,-0.82812 -1.89062,-1.24609 -3.08594,-1.24609 -1.22265,0 -2.27343,0.41406 -3.14062,1.23828 -0.875,0.82422 -1.30859,1.81641 -1.30859,2.96875 0,1.19922 0.42578,2.21875 1.28515,3.0625 m 5.44141,-0.80859 c -0.625,0.61718 -1.3711,0.92578 -2.23438,0.92578 -0.9375,0 -1.73047,-0.30469 -2.3789,-0.90625 -0.64844,-0.60547 -0.97266,-1.34766 -0.97266,-2.22266 0,-0.86328 0.31641,-1.60156 0.94922,-2.21484 0.62891,-0.61719 1.38672,-0.92188 2.27344,-0.92188 0.92968,0 1.71093,0.30078 2.34765,0.90625 0.64063,0.60547 0.95703,1.34766 0.95703,2.23047 0,0.85156 -0.3125,1.58594 -0.9414,2.20313 m 6.11719,1.80078 h 1.95703 c 1.48047,0 2.60547,-0.40625 3.38281,-1.21485 0.77344,-0.80859 1.16016,-1.73828 1.16016,-2.79296 0,-1.04297 -0.375,-1.96875 -1.125,-2.78516 -0.75,-0.8125 -1.89063,-1.21875 -3.42969,-1.21875 h -1.94531 z m 1.64843,-6.94141 c 0.81641,0 1.46875,0.0859 1.95313,0.25781 0.48437,0.17188 0.89844,0.50782 1.24609,1.00391 0.34766,0.5 0.52344,1.05859 0.52344,1.67188 0,0.49218 -0.10938,0.9414 -0.32813,1.35156 -0.21875,0.40625 -0.51171,0.73437 -0.8789,0.98437 -0.3711,0.2461 -0.75781,0.40625 -1.16797,0.48047 -0.41406,0.0742 -1.02344,0.10938 -1.83984,0.10938 h -0.0625 v -5.85938 z m 0,0"
         id="path920" />
      <path
         style="fill:#38bfcc;fill-opacity:1;fill-rule:nonzero;stroke:none"
         d="m 138.29297,411.48047 -0.85938,-0.13672 c -1.50781,0.66406 -2.57031,1.07812 -3.1914,1.24609 -1.11719,1.3086 -1.76953,1.96485 -1.96875,1.96485 -0.64844,0.98437 -1.0625,1.47265 -1.24219,1.47265 0,1.04297 -0.32422,1.85547 -0.97266,2.44532 -0.0898,1.44921 -0.3789,3.09375 -0.86328,4.93359 v 0.72266 c 0,0.67968 -0.16406,1.46484 -0.49609,2.35546 0,0.24219 0.12109,0.56641 0.36328,0.97266 l -0.11328,0.74609 0.49609,1.58594 c 0,0.45313 -0.0469,1.02344 -0.13672,1.71875 0.33203,0.92188 0.5,1.45703 0.5,1.60547 0,0.99609 0.89844,2.42969 2.69141,4.30078 0.0156,0.39453 0.55078,1.05078 1.60937,1.96875 1.92969,0.80078 2.95704,1.29297 3.07813,1.47266 l 0.85937,-0.11328 h 0.2461 c 0.18359,0 0.67187,0.16406 1.47265,0.49609 1.32813,-0.34766 2.26954,-0.63281 2.82813,-0.85937 l 2.46875,-0.4961 c 0.34766,-0.73828 0.63281,-1.10937 0.85937,-1.10937 0.13672,0 0.46094,0.082 0.97266,0.25 0.24219,0 0.40625,-0.53907 0.5,-1.60938 l 0.97266,-0.72265 c 0,-0.0899 -0.0391,-0.21875 -0.11328,-0.38672 0,-0.26953 0.28515,-0.76172 0.85937,-1.46875 0.0742,-1.58594 0.24219,-2.56641 0.49609,-2.94141 -0.39062,-1.40625 -0.89062,-2.10547 -1.49218,-2.10547 -0.17969,0 -0.79297,0.082 -1.83594,0.25 -0.53906,0.98047 -0.86719,1.46875 -0.96875,1.46875 0,1.34375 -0.29688,2.21094 -0.88281,2.60156 0,1.39063 -1.10157,2.61719 -3.30469,3.69141 -0.53125,0 -0.85938,-0.16797 -0.99609,-0.5 0,-0.82812 -0.89844,-1.24219 -2.69532,-1.24219 -0.30078,0.14844 -0.67187,0.48047 -1.10937,0.9961 l -0.60938,-0.11719 c -0.51172,-0.91797 -0.96484,-1.5 -1.35547,-1.74219 -0.8164,-0.39062 -1.22265,-1.12109 -1.22265,-2.1914 -0.90625,-1.61719 -1.35938,-3.54688 -1.35938,-5.79688 l 0.11328,-0.85937 c -0.16796,-1.16016 -0.25,-1.81641 -0.25,-1.96875 0.16797,-1.25 0.33204,-1.99219 0.5,-2.21875 0,-0.0742 -0.0391,-0.19532 -0.11328,-0.35938 l 0.2461,0.13281 c 0,-1.08593 0.20703,-1.87109 0.61328,-2.35156 0,-0.85937 0.48828,-1.63672 1.47265,-2.33203 0,-0.67969 0.48829,-1.12891 1.46875,-1.35938 0.4961,-0.64453 0.82813,-0.97265 0.9961,-0.97265 0.30078,0 0.625,0.16797 0.97265,0.5 h 0.36329 c 0.42187,-0.21094 0.70703,-0.66406 0.85937,-1.35938 1.97656,0.22657 2.96484,0.51172 2.96484,0.85938 0.10547,0.8164 0.26954,1.22265 0.4961,1.22265 0.8164,0.30469 1.22265,0.875 1.22265,1.71875 0.98047,1.34375 1.47266,2.53516 1.47266,3.57813 -0.0742,0.42187 -0.11328,0.66406 -0.11328,0.72266 v 0.25 c 0.72266,1.71875 1.41797,2.57812 2.08203,2.57812 0.39063,0 0.67969,-0.11719 0.85938,-0.35937 0.73828,0 1.10937,-1.1836 1.10937,-3.55469 -0.66406,-1.66016 -0.99609,-2.60156 -0.99609,-2.82813 v -0.13672 c 0.22656,-0.48046 0.39062,-0.72265 0.49609,-0.72265 0.0937,-1.13281 0.25781,-2.28516 0.5,-3.46485 -0.67969,-1.79296 -1.45703,-2.6914 -2.33203,-2.6914 h -0.25 c -0.12109,0 -0.36719,0.32422 -0.74609,0.97265 -0.54297,1.07032 -0.86719,1.60547 -0.97266,1.60547 h -0.13672 c -0.44922,0 -0.82031,-0.24609 -1.10937,-0.74609 v -0.35938 l 0.38671,-0.5 v -0.11328 c 0,-0.13672 -0.0859,-0.21875 -0.25,-0.25 -0.0742,0 -0.40625,0.0859 -0.99609,0.25 h -0.22656 c -0.42188,0 -0.63281,-0.082 -0.63281,-0.25 -1.29688,-0.16406 -2.19532,-0.48828 -2.69141,-0.97265 -0.57422,0.21093 -0.86328,0.41406 -0.86328,0.61328 m 15.7539,0.20312 c -0.0625,0 -0.30859,-0.0391 -0.75,-0.11328 -0.49609,0.28516 -0.74218,0.65625 -0.74218,1.10938 0,0.24218 0.043,0.52734 0.13281,0.85937 0,0.22656 0.65625,0.59766 1.96875,1.10938 1.62891,0 2.44531,0.45312 2.44531,1.35547 0,0.34765 -0.0742,0.67187 -0.22656,0.97656 0.0742,0.57031 0.28125,1.26562 0.61328,2.07812 -0.16797,0.39453 -0.25,0.76563 -0.25,1.11328 0,0.40625 0.0352,0.90235 0.11328,1.49219 l -0.11328,0.72266 c 0,0.21094 0.082,0.66406 0.25,1.35937 -0.0937,0.66407 -0.17578,1.07032 -0.25,1.22266 0.16406,0.40625 0.25,0.73828 0.25,0.99609 0,0.19532 -0.0859,0.6836 -0.25,1.46875 0.0742,0.15235 0.19531,0.72266 0.35938,1.71875 l -0.4961,1.72266 v 0.11328 c 0.25781,0.63281 0.42188,1.91016 0.4961,3.82422 l -0.10938,0.60937 c 0.0742,0.16797 0.10938,0.28907 0.10938,0.36329 0,0.63281 -0.36719,1.08593 -1.10938,1.35937 -1.92969,0 -3.03125,0.44922 -3.30078,1.35547 v 0.36328 c 0.0898,0.40625 1.07031,0.82031 2.94141,1.24609 h 0.25 l 2.07812,-0.85937 h 0.38672 c 0.0742,0 0.39844,0.0742 0.97266,0.22266 h 0.11328 c 0.48437,0 1.14062,-0.0352 1.96875,-0.11329 l 0.86328,0.36329 c 0.82812,0 1.24219,-0.40625 1.24219,-1.22266 -0.25782,-0.30078 -0.38282,-0.54688 -0.38282,-0.74609 -2.08203,-0.73829 -3.18359,-1.35157 -3.30468,-1.83204 -0.15235,-0.42187 -0.31641,-1.44921 -0.5,-3.07812 0,-0.45313 0.0391,-1.02734 0.11328,-1.71875 -0.0742,-0.33203 -0.11328,-0.62109 -0.11328,-0.86328 0.83203,-2.84766 1.48828,-4.36719 1.96875,-4.54688 0.48437,0 0.9375,-0.53515 1.35937,-1.60937 0,-0.53906 0.8125,-1.03125 2.44531,-1.46875 h 0.7461 c 0.26953,-0.4961 0.59375,-0.7461 0.97265,-0.7461 0.45313,0 0.78516,0.21094 0.9961,0.63282 1.14453,0.55859 1.71875,1.13281 1.71875,1.71875 0,0.0898 -0.0352,0.5 -0.11328,1.22265 0,0.13672 0.0781,0.33985 0.22656,0.61328 0,1.17579 0.0469,2.11719 0.13672,2.82813 -0.0898,1.20703 -0.13672,2.60156 -0.13672,4.1875 v 0.11328 c -0.31641,1.28125 -0.47656,2.10156 -0.47656,2.46484 0,0.72657 -0.82032,1.29688 -2.46485,1.71875 -0.13672,-0.0742 -0.30078,-0.11328 -0.5,-0.11328 -0.17969,0 -0.46484,0.1211 -0.85937,0.36328 v 0.11329 c 0,1.07031 0.25,1.72656 0.74609,1.96875 h 0.25 C 167.25391,439.24219 167.49609,439 167.55859,439 h 1.49219 c 0.26953,0 0.47656,0.0391 0.60938,0.11328 0.58984,0.40625 1.08203,0.60938 1.47265,0.60938 h 0.11328 c 0.42188,0 0.79297,-0.1211 1.10938,-0.36329 h 1.35547 c 0.92187,0.33204 1.49609,0.5 1.72265,0.5 h 0.4961 c 0.18359,0 0.38672,-0.45312 0.61328,-1.35937 -0.15235,-0.45313 -0.60547,-1.10938 -1.35938,-1.96875 -1.3125,-0.0742 -1.96875,-0.32422 -1.96875,-0.74609 v -0.22657 c 0,-0.40625 0.12891,-0.82031 0.38672,-1.24609 -0.0898,-0.43359 -0.13672,-0.80469 -0.13672,-1.10547 v -0.97656 c 0,-0.23828 0.16407,-0.69141 0.4961,-1.35547 -0.4961,-0.90625 -0.7461,-1.51563 -0.7461,-1.83203 v -1.10938 c 0,-0.33203 0.082,-0.86718 0.25,-1.60547 0,-2.05468 -0.52734,-3.89453 -1.58593,-5.52343 -0.0898,0 -0.13282,0.0391 -0.13282,0.11328 h -0.11718 l 0.11718,-0.25 c -0.16797,0 -0.41797,-0.1211 -0.75,-0.36328 l -0.22656,0.11328 c 0,-0.0742 0.0391,-0.11328 0.11719,-0.11328 v -0.13282 c -1.67578,-0.98437 -2.70313,-1.47265 -3.08203,-1.47265 -0.16407,0 -0.73828,0.082 -1.71875,0.24609 l -0.60938,-0.10937 c 0,0.043 -0.25,0.20312 -0.74609,0.47265 0,0.0899 0.043,0.13672 0.13281,0.13672 v 0.11328 c -0.0898,0 -0.13281,-0.0391 -0.13281,-0.11328 -0.23047,0 -0.59766,0.1211 -1.10938,0.36328 -0.85937,1.07032 -1.67578,1.60547 -2.44531,1.60547 -0.18359,0 -0.34766,-0.043 -0.49609,-0.13672 -0.28907,0 -0.57422,-1.02343 -0.86328,-3.07422 0.0742,-1.99218 0.11328,-3.26171 0.11328,-3.80468 l 0.13672,-0.60938 c -0.27344,-0.57422 -0.47657,-0.85937 -0.61329,-0.85937 0,-0.0937 0.0391,-0.13672 0.11719,-0.13672 0,-0.53125 -0.49219,-1.01953 -1.47265,-1.47266 -1.35938,0.16406 -2.70704,0.28516 -4.05079,0.36328 m 30.39454,2.66797 c 0,1.58594 0.65625,2.62891 1.96875,3.125 1.3125,-0.0586 1.96875,-0.17969 1.96875,-0.36328 0.73828,0 1.35546,-0.50391 1.85546,-1.51562 0.19532,-1.35938 0.39844,-2.1875 0.60938,-2.48829 v -0.13671 c -1.3125,-1.32813 -2.50391,-1.99219 -3.57422,-1.99219 -1.48047,0 -2.42187,1.125 -2.82812,3.37109 m -0.36329,4.86719 c -0.62109,-0.16406 -0.98828,-0.25 -1.10937,-0.25 -0.57422,0.13672 -0.85938,0.26562 -0.85938,0.38672 -1.38671,0.10547 -2.08203,0.35547 -2.08203,0.74609 h 0.11328 c -0.16796,0.24219 -0.33203,0.70313 -0.49609,1.37891 0,0.5 0.28516,0.8789 0.85938,1.13281 0.10546,-0.0898 0.67968,-0.17187 1.71875,-0.25 l 0.88281,0.11328 1.22265,-0.26953 c 0.17969,0 0.34375,0.0547 0.4961,0.15625 0.98047,0 1.47265,0.83203 1.47265,2.49219 v 0.74609 c 0,0.28516 -0.1289,0.78516 -0.38671,1.49219 l 0.13671,0.86328 c 0,0.21094 -0.0469,0.83594 -0.13671,1.875 0.0898,0.4375 0.13671,0.6875 0.13671,0.75 -0.0898,0.16406 -0.13671,0.29297 -0.13671,0.38281 l 0.25,1.13282 c -0.0586,0.48046 -0.14454,0.72265 -0.25,0.72265 0,2.33985 -0.57422,3.50781 -1.71875,3.50781 h -0.11329 l -0.74609,-0.11328 -0.85937,0.36328 c -0.53125,0 -0.9375,-0.0391 -1.22266,-0.11328 -2.46094,0 -3.6875,0.58203 -3.6875,1.74219 0,0.85938 0.82031,1.47656 2.46484,1.85547 0,-0.13672 0.40625,-0.21094 1.22266,-0.22656 h 0.74609 c 0.39453,0 0.80078,0.12109 1.22266,0.36328 1.40234,-0.57422 2.55078,-0.85938 3.4375,-0.85938 h 1.47266 c 0.22656,0 0.47656,0.082 0.74609,0.25 0.18359,0 0.63672,-0.0469 1.35937,-0.13672 0.67969,0.25391 2.64063,0.45704 5.88282,0.60938 0.30078,-0.31641 0.55078,-0.89844 0.74609,-1.74219 -0.26953,-0.33203 -0.64062,-0.71094 -1.10937,-1.13281 l -0.2461,0.13672 c 0,-0.19531 -0.57422,-0.39844 -1.72265,-0.60938 -0.64844,0.16407 -1.05469,0.2461 -1.21875,0.2461 h -0.13672 c -0.75391,0 -1.44922,-0.043 -2.08203,-0.13282 -0.90625,0 -1.35938,-0.78515 -1.35938,-2.35546 0,-0.96485 0.0469,-1.63672 0.13672,-2.01563 -0.0898,-1.16016 -0.13672,-2.28516 -0.13672,-3.37109 v -4.86328 c 0,-0.5 -0.12109,-1.11719 -0.35937,-1.85938 l 0.10937,-1.24219 -0.10937,-0.25 c 0,-1.34375 -1.14844,-2.01562 -3.44141,-2.01562 z m 8.71094,2.08203 c 0.0625,0.42188 0.22266,0.63281 0.47656,0.63281 h 0.63282 v -0.79297 c -0.21094,0 -0.31641,-0.10156 -0.31641,-0.3125 h -0.63281 c 0,0.10547 -0.0508,0.26172 -0.16016,0.47266 m 0.75,21.16016 c 0,0.16797 0.082,0.25 0.2461,0.25 h 0.38671 c 0.15235,0 0.22657,-0.082 0.22657,-0.25 v -0.13672 c -0.0742,0 -0.19532,-0.0352 -0.36328,-0.10938 z m 9.23438,-30.77735 -2.10547,-0.36328 c -0.69531,0 -1.47266,0.49219 -2.33203,1.47266 v 0.24609 c 0.66406,1.07422 1.60547,1.60938 2.82812,1.60938 l 1.10938,-0.13672 c 0.13672,0 0.46093,0.082 0.97265,0.25 0.39453,0 0.8086,-0.0391 1.2461,-0.11328 0.4375,0.0742 0.89062,0.11328 1.35937,0.11328 1.09766,0 1.79297,0.53515 2.08203,1.60547 0,0.71093 0.0352,1.60547 0.10938,2.6914 l -0.10938,0.5 c 0,0.0899 0.0352,0.21094 0.10938,0.36328 -0.0742,1.07032 -0.10938,1.9375 -0.10938,2.60157 v 0.97265 c 0,0.16797 -0.0859,0.57422 -0.25,1.22266 0,0.22656 0.082,0.47266 0.25,0.74609 0,0.4375 -0.0469,0.8086 -0.13672,1.10938 0.0898,1.66015 0.21875,2.84375 0.38282,3.55469 v 0.38281 c 0,0.19922 -0.125,0.5664 -0.38282,1.10937 0.11719,0.48438 0.28516,0.72266 0.4961,0.72266 l -0.11328,0.25 v 0.99609 c 0,0.46875 0.0391,1.125 0.11328,1.96875 -0.39063,0.81641 -0.91797,1.22266 -1.58594,1.22266 h -0.99219 c -0.80078,0 -2.03125,0.16797 -3.6914,0.49609 -0.19532,0 -0.5625,-0.082 -1.10938,-0.24609 -1.05469,0.40625 -1.58203,1.10156 -1.58203,2.08203 v 0.35938 c 0,0.39453 0.69531,0.64062 2.08203,0.75 0.8125,-0.16797 2.65625,-0.3711 5.52344,-0.61329 l 0.74609,0.11329 c 0.0742,-0.0742 0.85157,-0.15625 2.33203,-0.25 0.30079,0.25781 1.32813,0.42578 3.07813,0.5 0.34375,-0.16797 0.59375,-0.25 0.74609,-0.25 1.20703,0.17968 2.23047,0.38671 3.07422,0.61328 l 1.08985,-0.47657 c 0.72265,0.0742 1.13671,0.11329 1.24218,0.11329 0.45313,0 0.74219,-0.20313 0.86328,-0.61329 0,-1.47656 -0.57421,-2.21484 -1.72265,-2.21484 -1.40235,-0.18359 -2.34766,-0.34766 -2.82813,-0.5 -0.0742,0 -0.36328,0.21094 -0.85937,0.63281 h -0.25 c -0.52735,0 -1.10156,-0.082 -1.71875,-0.24609 -0.76953,0 -1.30469,-0.53516 -1.60938,-1.60938 v -1.35546 c 0,-0.95313 0.0469,-1.9336 0.13672,-2.94141 -0.0898,-0.4375 -0.13672,-0.80859 -0.13672,-1.10938 0,-0.19921 0.0469,-0.80859 0.13672,-1.83593 l -0.25,-4.1836 0.11328,-0.61328 -0.11328,-0.63281 c 0,-0.0586 0.0859,-0.46875 0.25,-1.22266 0,-0.375 -0.0469,-1.32031 -0.13672,-2.82812 l 0.13672,-0.85938 c -0.16406,-1.58593 -0.33203,-2.76953 -0.49609,-3.55468 0.16406,-0.30079 0.24609,-0.63282 0.24609,-0.9961 v -0.11328 c 0,-0.875 -0.33203,-1.41016 -0.99219,-1.60547 0,0.0742 -0.0391,0.11328 -0.11328,0.11328 v -0.22656 h -0.25 c -0.46875,0 -1.16406,-0.12891 -2.08203,-0.38672 -1.73437,0.0937 -3.33594,0.29688 -4.79687,0.61328 m 14.46093,18.08203 v 0.88282 h 0.4961 l 0.36328,-0.45313 -0.25,-0.67969 z m 2.82813,0.42969 c -0.0625,0 -0.30078,-0.0742 -0.72656,-0.22656 -0.13282,0 -0.21875,0.14453 -0.2461,0.42969 0,0.30468 0.082,0.45312 0.2461,0.45312 0.21093,0 0.45312,-0.14844 0.72656,-0.45312 l 0.74609,0.25 h 0.60938 v -0.67969 c 0,-0.24219 -0.082,-0.39063 -0.2461,-0.45313 h -0.11328 c -0.25781,0 -0.58984,0.22657 -0.99609,0.67969 m 3.57812,0 v 0.20313 c 0.11719,0.4375 0.23829,0.65625 0.35938,0.65625 h 0.49609 v -0.85938 c -0.0898,0 -0.21093,-0.0742 -0.35937,-0.22656 -0.15235,0.15234 -0.31641,0.22656 -0.4961,0.22656 m -1,0.45313 v 0.20312 h 0.38672 c 0.16407,0 0.25,-0.14844 0.25,-0.45312 v -0.20313 h -0.38672 c -0.13671,0 -0.21875,0.15235 -0.25,0.45313 m 2.5586,-18.96485 -2.10547,-0.36328 c -0.69141,0 -1.46875,0.49219 -2.32813,1.47266 v 0.24609 c 0.66407,1.07422 1.60547,1.60938 2.82813,1.60938 l 1.10937,-0.13672 c 0.13282,0 0.45704,0.082 0.97266,0.25 0.39063,0 0.80469,-0.0391 1.24219,-0.11328 0.4375,0.0742 0.89062,0.11328 1.35937,0.11328 1.10157,0 1.79688,0.53515 2.08203,1.60547 0,0.71093 0.0391,1.60547 0.11329,2.6914 l -0.11329,0.5 c 0,0.0899 0.0391,0.21094 0.11329,0.36328 -0.0742,1.07032 -0.11329,1.9375 -0.11329,2.60157 v 0.97265 c 0,0.16797 -0.082,0.57422 -0.25,1.22266 0,0.22656 0.082,0.47266 0.25,0.74609 0,0.4375 -0.043,0.8086 -0.13671,1.10938 0.0937,1.66015 0.21875,2.84375 0.38671,3.55469 v 0.38281 c 0,0.19922 -0.1289,0.5664 -0.38671,1.10937 0.12109,0.48438 0.28906,0.72266 0.5,0.72266 l -0.11329,0.25 v 0.99609 c 0,0.46875 0.0352,1.125 0.11329,1.96875 -0.39454,0.81641 -0.92188,1.22266 -1.58594,1.22266 h -0.9961 c -0.79687,0 -2.02734,0.16797 -3.6875,0.49609 -0.19531,0 -0.5664,-0.082 -1.10937,-0.24609 -1.05469,0.40625 -1.58203,1.10156 -1.58203,2.08203 v 0.35938 c 0,0.39453 0.6914,0.64062 2.08203,0.75 0.8125,-0.16797 2.65234,-0.3711 5.51953,-0.61329 l 0.74609,0.11329 c 0.0781,-0.0742 0.85157,-0.15625 2.33204,-0.25 0.30078,0.25781 1.32812,0.42578 3.07812,0.5 0.34766,-0.16797 0.59375,-0.25 0.74609,-0.25 1.20704,0.17968 2.23438,0.38671 3.07813,0.61328 l 1.08594,-0.47657 c 0.72656,0.0742 1.14062,0.11329 1.24609,0.11329 0.45313,0 0.73828,-0.20313 0.85938,-0.61329 0,-1.47656 -0.57422,-2.21484 -1.71875,-2.21484 -1.40625,-0.18359 -2.34766,-0.34766 -2.82813,-0.5 -0.0781,0 -0.36328,0.21094 -0.86328,0.63281 h -0.24609 c -0.53125,0 -1.10157,-0.082 -1.72266,-0.24609 -0.76953,0 -1.30469,-0.53516 -1.60547,-1.60938 v -1.35546 c 0,-0.95313 0.0469,-1.9336 0.13672,-2.94141 -0.0898,-0.4375 -0.13672,-0.80859 -0.13672,-1.10938 0,-0.19921 0.0469,-0.80859 0.13672,-1.83593 l -0.25,-4.1836 0.11328,-0.61328 -0.11328,-0.63281 c 0,-0.0586 0.082,-0.46875 0.25,-1.22266 0,-0.375 -0.0469,-1.32031 -0.13672,-2.82812 l 0.13672,-0.85938 c -0.16797,-1.58593 -0.33203,-2.76953 -0.5,-3.55468 0.16797,-0.30079 0.25,-0.63282 0.25,-0.9961 v -0.11328 c 0,-0.875 -0.33203,-1.41016 -0.99609,-1.60547 0,0.0742 -0.0391,0.11328 -0.11329,0.11328 v -0.22656 h -0.25 c -0.46484,0 -1.16015,-0.12891 -2.08203,-0.38672 -1.73437,0.0937 -3.33203,0.29688 -4.79687,0.61328 m 14.46094,18.08203 v 0.88282 h 0.5 l 0.36328,-0.45313 -0.25,-0.67969 z m 2.82812,0.42969 c -0.0586,0 -0.30078,-0.0742 -0.72266,-0.22656 -0.13671,0 -0.21875,0.14453 -0.25,0.42969 0,0.30468 0.082,0.45312 0.25,0.45312 0.21094,0 0.45313,-0.14844 0.72266,-0.45312 l 0.75,0.25 h 0.60938 v -0.67969 c 0,-0.24219 -0.082,-0.39063 -0.25,-0.45313 h -0.11329 c -0.2539,0 -0.58593,0.22657 -0.99609,0.67969 m 3.57813,0 v 0.20313 c 0.12109,0.4375 0.24218,0.65625 0.36328,0.65625 h 0.49609 v -0.85938 c -0.0898,0 -0.21094,-0.0742 -0.36328,-0.22656 -0.14844,0.15234 -0.31641,0.22656 -0.49609,0.22656 m -0.9961,0.45313 v 0.20312 h 0.38281 c 0.16797,0 0.25,-0.14844 0.25,-0.45312 v -0.20313 h -0.38281 c -0.13672,0 -0.21875,0.15235 -0.25,0.45313 m 1.42578,-8.78125 c -0.33203,0.72265 -0.78515,1.55468 -1.35937,2.48828 -0.4375,0.21094 -0.88281,2.07422 -1.33203,5.58984 0.13281,0.15235 0.33984,0.82422 0.60937,2.01563 -0.16797,0.30078 -0.25,0.63281 -0.25,0.99609 v 0.11328 c 0.85938,1.94531 1.35156,2.91797 1.47266,2.91797 0.3164,0.73828 0.76953,1.45703 1.35547,2.15234 1.08593,0.25391 1.74218,0.67579 1.96875,1.26563 l 2.94531,1.13281 h 0.13281 c 0.52735,-0.34765 0.89844,-0.51953 1.10938,-0.51953 0.66406,0 1.60547,-0.29687 2.82812,-0.88281 l 0.85938,0.15625 c 0.41015,-0.10547 1.1875,-0.45313 2.33203,-1.03906 1.40234,-1.28516 2.38672,-3.34375 2.94531,-6.17969 v -1.90235 c 0,-0.0586 0.082,-0.39062 0.24609,-0.99609 v -0.24609 c -0.24218,-0.81641 -0.36328,-1.32032 -0.36328,-1.51563 l 0.11719,-0.77344 c 0,-0.63281 -0.20703,-1.13671 -0.61328,-1.51562 0,-0.96484 -0.45313,-1.67188 -1.35938,-2.125 -0.375,-1.10156 -0.69921,-1.65234 -0.97265,-1.65234 0,-0.0742 0.0391,-0.11329 0.11328,-0.11329 0,-0.19531 -0.12109,-0.45312 -0.35938,-0.76953 -0.71093,0 -1.40625,-0.29297 -2.08593,-0.88281 l -0.2461,0.11328 0.11328,-0.22656 c -0.15234,0 -0.89062,-0.21875 -2.21875,-0.65625 l -1.71875,0.13281 c -0.0937,0 -0.21093,-0.043 -0.36328,-0.13281 -1.07031,0 -3.03906,1.01953 -5.90625,3.05469 m 6.40625,0.25 v 0.24609 l 1.21875,-0.13281 h 0.5 c 0.48047,0.39062 0.72266,0.64844 0.72266,0.76953 0.0898,0 0.13672,-0.0469 0.13672,-0.13672 h 0.11328 l -0.11328,0.24609 v 0.13672 c 0.54297,0 1.03515,0.3711 1.47265,1.10938 0.0742,0 0.11329,-0.0391 0.11329,-0.11328 h 0.13281 l -0.13281,0.27343 c 0.16406,0 0.24609,0.0391 0.24609,0.11329 0.57422,0 0.85937,0.42187 0.85937,1.26562 l 1.35938,2.89844 -0.11328,0.74609 v 1.40235 c 0,0.40625 -0.12891,0.70312 -0.38672,0.88281 -0.16406,1.76562 -0.32422,2.64844 -0.47266,2.64844 0,0.0898 0.0391,0.13671 0.11328,0.13671 0,0.15235 -0.12109,0.22657 -0.36328,0.22657 -0.54297,0.6914 -0.875,1.03906 -0.99609,1.03906 -0.82813,0.83203 -1.80859,1.24609 -2.94141,1.24609 l -1.10937,-0.11328 c -0.0742,0 -0.39844,0.0391 -0.97266,0.11328 -1.02344,-0.3164 -1.60547,-0.47656 -1.74219,-0.47656 -1.46484,-1.03906 -2.40625,-2.09766 -2.82812,-3.16797 0,-0.22656 0.043,-0.5664 0.13672,-1.01953 0,-1.17578 -0.16797,-1.76562 -0.5,-1.76562 0,-0.0742 0.0469,-0.10938 0.13672,-0.10938 l -0.25,-0.76953 c 0,-0.5 0.12109,-1.13281 0.36328,-1.90234 0,-0.90625 0.40625,-1.78907 1.22265,-2.64844 l -0.11328,-0.25 c 0.0742,0 0.11328,0.0391 0.11328,0.11328 0.46485,-0.33203 0.79688,-0.70703 0.99219,-1.12891 1.96485,-0.99609 2.94531,-1.625 2.94531,-1.8789 z m 26.90625,-3.14844 c -2.125,0 -3.1914,0.50781 -3.1914,1.51562 0.55859,1.4375 1.05078,2.15235 1.47265,2.15235 0.17969,0 0.80078,-0.16797 1.85547,-0.4961 0.1211,0.30079 0.57422,0.75782 1.35938,1.37891 l -0.38672,1.65234 c 0.0898,0.73829 0.13672,1.16016 0.13672,1.26563 0,0.33203 -0.16797,1.05078 -0.5,2.15234 l 0.13672,0.7461 v 0.76953 c 0,0.76953 -0.53516,1.70312 -1.60547,2.80469 -0.57422,1.30078 -1.51563,2.47656 -2.83203,3.53125 0,0.0898 0.0391,0.13671 0.11328,0.13671 v 0.13672 c -0.0742,0 -0.11328,-0.0469 -0.11328,-0.13672 l -0.99219,0.4961 -0.72656,-0.13672 c -0.5586,0.0937 -1.01172,0.13672 -1.35547,0.13672 -0.92188,0 -1.61719,-1.4336 -2.08203,-4.30078 0.0742,-0.30078 0.10937,-0.47266 0.10937,-0.51953 0,-0.16407 -0.0352,-0.625 -0.10937,-1.37891 0.16406,-2.41406 0.24609,-3.72656 0.24609,-3.9375 0,-0.0781 -0.082,-0.49219 -0.24609,-1.24609 0.0117,-0.96485 0.17187,-1.81641 0.47265,-2.55469 0,-0.0781 -0.0391,-0.11719 -0.11328,-0.11719 0,-1.58203 -0.45312,-2.80469 -1.35547,-3.66406 h -1.72265 c -0.8125,0 -1.79688,-0.0391 -2.94141,-0.11328 -0.46875,0 -0.88281,0.3789 -1.24609,1.13281 0.46875,0.75391 0.92187,1.12891 1.35937,1.12891 1.72266,0.13671 2.58203,0.67968 2.58203,1.63281 v 8.37109 c 0,0.42188 0.082,0.92969 0.2461,1.51563 -0.23829,1.40234 -0.35938,2.20312 -0.35938,2.39843 v 0.41016 c 0,0.39063 0.65234,1.39453 1.96875,3.00781 l 0.24609,-0.11328 c 0,0.0781 -0.043,0.11328 -0.13281,0.11328 0,0.27344 0.90235,0.53125 2.71485,0.76953 h 1.47265 l 0.4961,0.38672 h 0.25 l 0.47265,-0.38672 h 0.13672 c 0.17969,0 0.33984,0.0469 0.47656,0.13672 0.45313,-0.25781 0.98828,-0.38672 1.60547,-0.38672 0.69531,-0.85937 1.3125,-1.28906 1.85547,-1.28906 h 0.36328 c 1.3125,1.02735 2.4961,1.53906 3.55078,1.53906 l 1.7461,-0.13671 c 0.0742,0 0.35937,0.21093 0.85937,0.63671 h 0.35938 l 0.61328,-0.36328 c 0.46484,0.24219 0.80078,0.36328 0.99609,0.36328 0.31641,-0.19921 0.47266,-0.36328 0.47266,-0.5 v -0.13671 l -0.10938,-0.2461 0.2461,0.13281 v -0.63281 l -0.60938,-0.76953 -0.25,0.11328 c 0,-0.19531 -0.28515,-0.52734 -0.85937,-0.99609 l -0.85938,0.11328 h -0.74609 c -0.58985,0 -0.96094,-0.20313 -1.10938,-0.60938 v -1.90234 c 0,-1.83984 0.11719,-3.10547 0.35938,-3.80078 0,-0.34766 -0.0352,-0.80859 -0.11328,-1.38281 0,-0.0899 0.0391,-0.4375 0.11328,-1.03907 l -0.11328,-0.88281 0.11328,-1.13281 c -0.24219,-0.64844 -0.35938,-1.10547 -0.35938,-1.37891 v -1.40234 c 0.23828,-0.73828 0.35938,-1.15625 0.35938,-1.24609 v -0.26954 c 0,-0.27343 -0.1211,-0.74218 -0.35938,-1.40625 0,-1.07031 -1.10937,-1.70312 -3.32812,-1.89843 -0.30078,0.0898 -0.67188,0.13281 -1.10938,0.13281 m 17.13282,-7.375 v 0.35937 c 0,1.04297 -0.0469,2.23438 -0.13672,3.57813 0.16797,0.93359 0.25,1.58984 0.25,1.96875 -0.36328,0.67969 -1.42578,1.25 -3.19141,1.71875 l -0.61328,-0.13281 -1.46875,0.13281 -1.46875,-0.13281 c -0.42578,0 -0.79297,0.40625 -1.11328,1.21875 0.0625,1.73437 0.34765,2.60156 0.86328,2.60156 0.33203,0 1.51562,-0.24609 3.55078,-0.74609 h 0.99609 c 0.42188,0 0.91407,0.16796 1.47266,0.5 0.39063,0 0.63281,1.26562 0.72266,3.80078 0,0.19531 -0.1211,0.5664 -0.36328,1.10937 0.0937,3.60547 0.21484,5.41016 0.36328,5.41016 0,1.37109 0.37109,2.80469 1.10937,4.29687 0.9961,0.95313 1.65235,1.77344 1.96875,2.46875 l 0.25,-0.11328 v 0.22656 h 0.60938 l 1.24609,0.38672 h 0.25 c 0.23828,0 0.56641,-0.13281 0.97266,-0.38672 l 0.85937,0.13672 c 0.84375,0 1.82422,-0.40625 2.94141,-1.22265 l 1.85547,-2.35547 c 0.33203,-0.76953 0.70312,-1.95313 1.10937,-3.55078 v -0.25 c 0,-1.3125 -0.57422,-1.96875 -1.71875,-1.96875 -0.80078,0 -1.5039,0.40625 -2.10547,1.22265 -0.22656,0.96485 -0.55078,1.90625 -0.97265,2.82813 -1.01172,1.14844 -1.83203,1.71875 -2.46875,1.71875 h -0.11328 c -0.66407,0 -0.99219,-0.32422 -0.99219,-0.97266 -0.81641,-0.66406 -1.22656,-1.15234 -1.22656,-1.47265 v -0.13282 c 0,-0.27343 0.0391,-0.47656 0.11328,-0.61328 l -0.11328,-0.74609 v -0.35938 l 0.11328,-1.22265 c -0.13282,0 -0.25391,-0.28907 -0.35938,-0.85938 0.33203,-2.3125 0.4961,-3.78906 0.4961,-4.4375 0,-0.41015 -0.043,-1.01953 -0.13672,-1.83203 0.16797,0 0.25,-0.0859 0.25,-0.25 1.34375,-0.25781 2.70312,-0.625 4.07422,-1.10937 l 0.72265,0.25 c 0.66406,-0.24219 0.9961,-0.49219 0.9961,-0.7461 h 0.25 c 0,0.22656 0.24218,0.42969 0.72656,0.60938 1.07031,-0.5586 1.60547,-1.13282 1.60547,-1.71875 v -0.72657 c 0,-0.60156 -0.98828,-0.97265 -2.96485,-1.10937 -0.46875,0 -1.82031,0.0859 -4.05078,0.25 -0.40625,-0.0898 -0.61328,-0.17188 -0.61328,-0.25 -1.07031,0 -1.60547,-0.33203 -1.60547,-0.99609 v -0.11329 c 0,-0.17968 0.0469,-0.34375 0.13672,-0.49609 l -0.13672,-0.25 c 0,-0.46484 -0.0351,-1.81641 -0.11328,-4.05078 -0.40625,-1.3125 -0.77734,-1.96875 -1.10937,-1.96875 -1.14454,0 -1.71875,0.16797 -1.71875,0.5"
         id="path922" />
      <path
         style="fill:#ffffff;fill-opacity:1;fill-rule:nonzero;stroke:none"
         d="m 172.85547,458.29297 h 1.09375 v -3.83594 h 3.34765 V 453.375 h -3.35937 v -1.99609 h 3.35937 v -1.09766 h -4.4414 z m 8.26562,-3.25781 c 0,1.16015 0.28516,2.03906 0.85938,2.63671 0.57031,0.59375 1.33203,0.89063 2.28515,0.89063 0.92969,0 1.67579,-0.29297 2.23438,-0.87891 0.55859,-0.58984 0.83984,-1.37109 0.83984,-2.35156 v -5.03516 h -1.09375 v 5.10938 c 0,0.66797 -0.17968,1.18359 -0.53125,1.55078 -0.35547,0.36719 -0.85156,0.55078 -1.48828,0.55078 -0.64062,0 -1.13672,-0.19922 -1.48437,-0.59765 -0.35157,-0.39844 -0.52735,-0.96485 -0.52735,-1.69141 v -4.92188 h -1.09375 z m 10.32813,3.25781 h 1.09375 v -5.69141 l 5.92187,6.0625 v -8.38281 h -1.09375 v 5.76953 l -5.92187,-6.08984 z m 22.08984,-6.39844 c 0,-0.52344 -0.1914,-0.97266 -0.57031,-1.33984 C 212.58594,450.18359 212.125,450 211.57812,450 c -0.625,0 -1.125,0.19141 -1.49609,0.57812 -0.37109,0.38672 -0.55859,0.8125 -0.55859,1.27735 0,0.17187 0.0352,0.36719 0.10156,0.58594 0.0703,0.21875 0.28906,0.5664 0.65625,1.03515 0.0547,0.0703 0.12109,0.16406 0.19922,0.28125 -0.85547,0.58594 -1.40625,1.03125 -1.64453,1.33594 -0.23828,0.30469 -0.35547,0.69141 -0.35547,1.16016 0,0.6289 0.26562,1.17187 0.80469,1.63281 0.53515,0.46094 1.17187,0.6875 1.90625,0.6875 0.85937,0 1.73828,-0.42969 2.64062,-1.29688 l 0.95313,1 h 1.42968 l -1.68359,-1.77734 0.94922,-1.07031 -0.77344,-0.69141 -0.90234,0.99219 -1.66407,-1.77344 c 0.9336,-0.62109 1.39844,-1.30859 1.39844,-2.0625 m -2.94922,-0.0508 c 0,-0.23047 0.0898,-0.42188 0.26953,-0.57422 0.17969,-0.14844 0.40625,-0.22656 0.6836,-0.22656 0.29687,0 0.53125,0.0781 0.70312,0.23437 0.17578,0.15235 0.26172,0.35938 0.26172,0.61719 0,0.21875 -0.0898,0.42969 -0.27734,0.625 -0.1836,0.19922 -0.46094,0.42188 -0.82813,0.67578 -0.54297,-0.5664 -0.8125,-1.01562 -0.8125,-1.35156 m 1.53125,5.4375 c -0.28906,0.16797 -0.59765,0.25 -0.92578,0.25 -0.4414,0 -0.8164,-0.12891 -1.1289,-0.37891 -0.3125,-0.2539 -0.46875,-0.55859 -0.46875,-0.91015 0,-0.23438 0.0937,-0.46485 0.28125,-0.69532 0.1914,-0.23046 0.64062,-0.57812 1.35156,-1.03906 l 1.8789,1.99219 c -0.375,0.35547 -0.70312,0.61719 -0.98828,0.78125 M 226,458.29297 h 1.09375 v -3.83594 h 3.34375 V 453.375 h -3.35547 v -1.99609 h 3.35547 v -1.09766 H 226 Z m 9.25781,-0.99219 c 0.85938,0.83984 1.90235,1.26172 3.125,1.26172 1.24219,0 2.28906,-0.41797 3.14063,-1.25391 0.85156,-0.83593 1.27734,-1.85547 1.27734,-3.07031 0,-1.14062 -0.42969,-2.12891 -1.29297,-2.96094 -0.86328,-0.82812 -1.89062,-1.24609 -3.08594,-1.24609 -1.22656,0 -2.27343,0.41406 -3.14453,1.23828 -0.87109,0.82422 -1.30859,1.81641 -1.30859,2.96875 0,1.19922 0.42969,2.21875 1.28906,3.0625 m 5.44141,-0.80859 c -0.625,0.61718 -1.3711,0.92578 -2.23438,0.92578 -0.9375,0 -1.73437,-0.30078 -2.3789,-0.90625 -0.64844,-0.60547 -0.97266,-1.34375 -0.97266,-2.21875 0,-0.86328 0.31641,-1.60547 0.94531,-2.21875 0.63282,-0.61719 1.39063,-0.92188 2.27344,-0.92188 0.92969,0 1.71484,0.30078 2.35156,0.90625 0.63672,0.60547 0.95703,1.34766 0.95703,2.23438 0,0.84765 -0.3125,1.58203 -0.9414,2.19922 m 7.05859,0.80859 c 0.85938,0.83984 1.90235,1.26172 3.125,1.26172 1.24219,0 2.28906,-0.41797 3.14063,-1.25391 0.85547,-0.83593 1.28125,-1.85547 1.28125,-3.07031 0,-1.14062 -0.4336,-2.12891 -1.29688,-2.96094 -0.86328,-0.82812 -1.89062,-1.24609 -3.08594,-1.24609 -1.22265,0 -2.27343,0.41406 -3.14062,1.23828 -0.875,0.82422 -1.30859,1.81641 -1.30859,2.96875 0,1.19922 0.42578,2.21875 1.28515,3.0625 m 5.44141,-0.80859 c -0.625,0.61718 -1.3711,0.92578 -2.23438,0.92578 -0.9375,0 -1.73047,-0.30078 -2.3789,-0.90625 -0.64844,-0.60547 -0.97266,-1.34375 -0.97266,-2.21875 0,-0.86328 0.31641,-1.60547 0.94922,-2.21875 0.62891,-0.61719 1.38672,-0.92188 2.27344,-0.92188 0.92968,0 1.71093,0.30078 2.34765,0.90625 0.64063,0.60547 0.95703,1.34766 0.95703,2.23438 0,0.84765 -0.3125,1.58203 -0.9414,2.19922 m 6.11719,1.80078 h 1.95703 c 1.48047,0 2.60547,-0.40625 3.38281,-1.21485 0.77344,-0.80859 1.16016,-1.73828 1.16016,-2.78906 0,-1.04297 -0.375,-1.97265 -1.125,-2.78515 -0.75,-0.81641 -1.89063,-1.22266 -3.42969,-1.22266 h -1.94531 z m 1.64843,-6.94141 c 0.81641,0 1.46875,0.0859 1.95313,0.25781 0.48437,0.17188 0.89844,0.50782 1.24609,1.00391 0.34766,0.5 0.52344,1.05859 0.52344,1.67578 0,0.48828 -0.10938,0.9375 -0.32813,1.34766 -0.21875,0.41015 -0.51171,0.73828 -0.8789,0.98437 -0.3711,0.2461 -0.75781,0.40625 -1.16797,0.48047 -0.41406,0.0742 -1.02344,0.10938 -1.83984,0.10938 h -0.0625 v -5.85938 z m 0,0"
         id="path924" />
    </g>
  </g>
</svg>
