<?xml version="1.0" encoding="UTF-8"?>
<svg width="131.93mm" height="22.2mm" version="1.1" viewBox="0 0 131.93 22.2" xmlns="http://www.w3.org/2000/svg" xmlns:cc="http://creativecommons.org/ns#" xmlns:dc="http://purl.org/dc/elements/1.1/" xmlns:rdf="http://www.w3.org/1999/02/22-rdf-syntax-ns#">
 <defs>
  <clipPath id="clipPath3693">
   <path d="M 0,62.93 H 373.967 V 0 H 0 Z"/>
  </clipPath>
 </defs>
 <metadata>
  <rdf:RDF>
   <cc:Work rdf:about="">
    <dc:format>image/svg+xml</dc:format>
    <dc:type rdf:resource="http://purl.org/dc/dcmitype/StillImage"/>
    <dc:title/>
   </cc:Work>
  </rdf:RDF>
 </metadata>
 <g transform="translate(-40.069 -50.139)">
  <g transform="matrix(.35278 0 0 -.35278 40.069 72.339)">
   <g transform="translate(33.712 29.062)">
    <path d="m0 0-1.778 8.953-1.934-8.953zm7.423-13.534-4.527 2e-3 -1.931 9.106-5.594 1e-3 -1.936-9.105-4.427 2e-3 6.928 34.08 4.425-3e-3z" fill="#100f0d"/>
   </g>
   <g clip-path="url(#clipPath3693)">
    <g transform="translate(64.788 15.522)">
     <path d="m0 0-4.374 1e-3 4e-3 17.448c0 2.407-0.524 3.613-1.575 3.613-0.712 0-1.188-0.22-1.426-0.663-0.237-0.441-0.356-1.423-0.355-2.949l-6e-3 -17.448h-4.425l4e-3 17.449c2e-3 2.306-0.557 3.459-1.678 3.459-0.881 2e-3 -1.424-0.355-1.626-1.067-0.103-0.339-0.155-1.102-0.155-2.289l-5e-3 -17.55-4.323 1e-3 6e-3 24.874h4.324v-1.322c0.441 1.287 1.357 1.932 2.748 1.931 1.287 1e-3 2.219-0.187 2.798-0.56 0.473-0.272 0.932-0.883 1.372-1.832 0.646 1.595 1.883 2.391 3.714 2.39 3.324 0 4.985-2.646 4.983-7.937z" fill="#100f0d"/>
    </g>
    <g transform="translate(78.17 28.184)">
     <path d="m0 0c0 2.543-0.033 4.103-0.101 4.68-0.237 2.373-0.914 3.56-2.034 3.561-1.187 1e-3 -1.78-1.034-1.781-3.102l-1e-3 -9.817c-2e-3 -2.612 0.59-3.917 1.778-3.918 0.882 0 1.474 0.728 1.782 2.187 0.235 1.152 0.355 3.288 0.357 6.409m4.324-2e-3c-3e-3 -8.852-1.92-13.274-5.753-13.274-1.051 1e-3 -1.932 0.525-2.645 1.578v-0.967l-4.172 1e-3 0.01 32.047 4.325 2.593-2e-3 -9.918c0.948 0.44 1.813 0.66 2.594 0.659 3.764-1e-3 5.645-4.241 5.643-12.719" fill="#100f0d"/>
    </g>
    <g transform="translate(93.529 21.715)">
     <path d="m0 0 2e-3 5.392c-0.238 0.577-0.865 0.865-1.882 0.864-1.359 1e-3 -2.035-1.321-2.036-3.965-1e-3 -1.358 0.083-2.323 0.252-2.899 0.307-1.087 0.967-1.63 1.985-1.629 1.118-1e-3 1.678 0.744 1.679 2.237m4.323-5.953-3.969 1e-3 1e-3 0.712c-0.577-0.711-1.526-1.068-2.85-1.067-1.661 1e-3 -3.035 0.823-4.119 2.469-1.084 1.645-1.627 3.721-1.626 6.231 1e-3 2.238 0.51 4.171 1.528 5.797 1.119 1.832 2.578 2.748 4.376 2.748 0.746-1e-3 1.525-0.172 2.339-0.509l1e-3 1.778c0 1.764-0.628 2.647-1.881 2.647-1.494 0-2.9-1.204-4.224-3.61l-1.067 5.391c1.696 1.934 3.409 2.899 5.139 2.899 4.238-2e-3 6.357-2.952 6.356-8.853z" fill="#100f0d"/>
    </g>
    <g transform="translate(112.25 22.32)">
     <path d="m0 0c0-1.898-0.442-3.442-1.324-4.628-1.154-1.594-2.749-2.389-4.782-2.389-2.069 1e-3 -3.696 0.865-4.883 2.595l1.222 5.037c1.084-2.41 2.237-3.614 3.459-3.614 1.424 0 2.136 1.049 2.137 3.154 1e-3 0.611-0.221 1.374-0.661 2.289-0.543 1.152-1.322 2.136-2.339 2.951-1.357 1.085-2.306 2.103-2.849 3.053-0.643 1.119-0.964 2.526-0.964 4.222 0 1.695 0.408 3.103 1.222 4.223 0.949 1.354 2.306 2.032 4.07 2.032 1.628 0 3.255-1.002 4.882-3.002l-1.324-4.577c-1.356 2.407-2.473 3.612-3.355 3.612-0.884 0-1.323-0.712-1.325-2.136 1e-3 -0.713 0.237-1.475 0.712-2.291 0.17-0.271 1.171-1.34 3.001-3.205 2.066-2.136 3.103-4.578 3.101-7.326" fill="#100f0d"/>
    </g>
    <g transform="translate(122.22 21.706)">
     <path d="m0 0 1e-3 5.393c-0.238 0.576-0.866 0.866-1.882 0.865-1.356 0-2.036-1.322-2.036-3.966-1e-3 -1.358 0.085-2.323 0.253-2.9 0.306-1.085 0.968-1.627 1.983-1.629 1.12 2e-3 1.681 0.745 1.681 2.237m4.322-5.952-3.968 2e-3v0.712c-0.577-0.713-1.526-1.068-2.849-1.068-1.661 1e-3 -3.036 0.824-4.12 2.47-1.085 1.644-1.627 3.72-1.627 6.231 2e-3 2.236 0.512 4.171 1.529 5.797 1.12 1.832 2.578 2.747 4.377 2.748 0.744-2e-3 1.525-0.171 2.339-0.51v1.778c0 1.764-0.627 2.646-1.881 2.647-1.493 0-2.9-1.203-4.224-3.608l-1.066 5.39c1.697 1.933 3.409 2.898 5.138 2.898 4.239-1e-3 6.358-2.952 6.356-8.853z" fill="#100f0d"/>
    </g>
    <g transform="translate(138.85 23.738)">
     <path d="m0 0 3e-3 9.817c1e-3 2.068-0.559 3.103-1.678 3.103s-1.797-1.152-2.038-3.457c-0.067-0.544-0.1-2.136-0.101-4.783-1e-3 -3.186 0.1-5.324 0.303-6.408 0.271-1.46 0.88-2.189 1.831-2.189 1.118 0 1.68 1.306 1.68 3.917m4.32-7.987h-4.222l1e-3 0.966c-0.679-1.05-1.544-1.574-2.595-1.575-3.832 1e-3 -5.746 4.426-5.743 13.278 1e-3 3.526 0.374 6.375 1.121 8.546 1.324 3.9 3.697 5.068 7.122 3.508l2e-3 7.324 4.326 2.593z" fill="#100f0d"/>
    </g>
    <g transform="translate(155.23 21.698)">
     <path d="m0 0 2e-3 5.392c-0.237 0.577-0.866 0.866-1.882 0.864-1.357 3e-3 -2.035-1.321-2.037-3.965 0-1.356 0.085-2.323 0.253-2.9 0.306-1.085 0.967-1.626 1.984-1.628 1.12-1e-3 1.68 0.744 1.68 2.237m4.324-5.952-3.969 1e-3 1e-3 0.711c-0.579-0.711-1.527-1.067-2.851-1.066-1.66 0-3.035 0.822-4.12 2.469-1.085 1.645-1.627 3.72-1.626 6.231 2e-3 2.237 0.509 4.171 1.529 5.797 1.12 1.831 2.577 2.747 4.376 2.747 0.745 0 1.526-0.171 2.339-0.509l1e-3 1.78c-1e-3 1.762-0.628 2.645-1.881 2.645-1.493 0-2.901-1.202-4.223-3.608l-1.067 5.391c1.695 1.932 3.408 2.897 5.138 2.898 4.238-1e-3 6.358-2.952 6.356-8.853z" fill="#100f0d"/>
    </g>
    <g transform="translate(186.87 23.012)">
     <path d="m0 0c-2e-3 -2.611-0.918-4.714-2.749-6.306-1.189-1.052-2.664-1.575-4.426-1.575-4.782 1e-3 -7.291 3.035-7.526 9.107l4.426-2e-3c-1e-3 -0.882 0.117-1.729 0.354-2.544 0.407-1.422 1.322-2.136 2.747-2.138 1.832 0 2.748 1.153 2.748 3.459 0 2.849-1.237 5.731-3.712 8.65-0.543 0.61-1.542 1.797-2.999 3.562-1.831 2.204-2.745 4.56-2.744 7.07 0 2.342 0.651 4.255 1.959 5.748 1.305 1.49 2.977 2.238 5.011 2.235 4.137-1e-3 6.441-2.662 6.915-7.986l-4.425 1e-3c-0.101 2.475-0.898 3.713-2.39 3.714-1.764 1e-3 -2.647-1.237-2.646-3.714-1e-3 -1.354 0.795-2.917 2.39-4.681 2.813-3.085 4.61-5.476 5.39-7.171 1.118-2.376 1.675-4.852 1.677-7.429" fill="#100f0d"/>
    </g>
    <g transform="translate(197.91 21.686)">
     <path d="m0 0 1e-3 5.393c-0.237 0.576-0.865 0.866-1.884 0.865-1.357 1e-3 -2.036-1.322-2.033-3.967-3e-3 -1.356 0.082-2.323 0.251-2.899 0.306-1.085 0.968-1.628 1.985-1.629 1.119 0 1.677 0.745 1.68 2.237m4.321-5.952-3.968 2e-3 1e-3 0.712c-0.58-0.713-1.529-1.069-2.851-1.068-1.659 0-3.035 0.823-4.118 2.468-1.085 1.646-1.628 3.722-1.627 6.232 1e-3 2.238 0.51 4.172 1.525 5.798 1.122 1.832 2.58 2.746 4.377 2.747 0.746 0 1.526-0.171 2.34-0.509l2e-3 1.781c-2e-3 1.761-0.626 2.643-1.882 2.643-1.493 0-2.899-1.202-4.224-3.608l-1.066 5.392c1.696 1.932 3.409 2.897 5.139 2.896 4.238 1e-3 6.357-2.951 6.356-8.852z" fill="#100f0d"/>
    </g>
    <g transform="translate(219.37 15.729)">
     <path d="m0 0h-4.272l4e-3 17.092c2e-3 2.645-0.593 3.97-1.78 3.971-1.118-1e-3 -1.678-1.324-1.68-3.97l-3e-3 -17.091-4.325 1e-3 7e-3 24.874 4.323-1e-3 1e-3 -1.067c0.678 1.152 1.678 1.727 3 1.728 0.239-2e-3 0.459-0.017 0.663-0.05 1.593-0.204 2.678-1.293 3.253-3.257 0.541-1.832 0.813-5.019 0.811-9.564z" fill="#100f0d"/>
    </g>
    <g transform="translate(247.09 15.721)">
     <path d="m0 0-13.022 3e-3 8e-3 34.082 12.566-4e-3 -1e-3 -4.424-8.29 3e-3 -3e-3 -8.751 5.544-1e-3v-4.526l-5.548 2e-3v-11.956l8.747-3e-3z" fill="#100f0d"/>
    </g>
    <g transform="translate(260.83 22.279)">
     <path d="m0 0c-1e-3 -1.898-0.443-3.441-1.323-4.628-1.154-1.594-2.748-2.391-4.784-2.391-2.069 2e-3 -3.697 0.867-4.883 2.598l1.223 5.035c1.084-2.408 2.238-3.614 3.456-3.613 1.425 1e-3 2.138 1.051 2.139 3.154 0 0.612-0.221 1.373-0.66 2.288-0.544 1.153-1.324 2.138-2.339 2.952-1.358 1.085-2.307 2.103-2.848 3.053-0.645 1.119-0.965 2.526-0.966 4.221 2e-3 1.697 0.408 3.104 1.221 4.223 0.949 1.355 2.306 2.034 4.072 2.034 1.627-2e-3 3.254-1.003 4.881-3.005l-1.323-4.576c-1.356 2.408-2.475 3.613-3.354 3.613-0.884 1e-3 -1.325-0.713-1.326-2.137 1e-3 -0.712 0.238-1.474 0.712-2.29 0.169-0.27 1.171-1.34 2.999-3.203 2.068-2.137 3.104-4.579 3.103-7.328" fill="#100f0d"/>
    </g>
    <g transform="translate(275.17 21.818)">
     <path d="m0 0c-0.951-4.373-2.868-6.562-5.75-6.561-4.204 0-6.308 4.14-6.305 12.414 1e-3 4.273 0.341 7.393 1.02 9.36 0.951 2.779 2.714 4.17 5.292 4.169 3.017 0 4.932-2.154 5.746-6.461l-3.918-1.932c-0.169 2.475-0.779 3.714-1.829 3.713-1.053 0-1.696-1.255-1.934-3.764-0.068-0.474-0.103-2.137-0.105-4.984 1e-3 -5.663 0.729-8.495 2.186-8.495 0.781 0.101 1.339 1.424 1.681 3.967z" fill="#100f0d"/>
    </g>
    <g transform="translate(285.76 28.276)">
     <path d="m0 0c2e-3 2.848-0.015 4.441-0.049 4.782-0.203 2.371-0.779 3.56-1.727 3.559-1.392 0-2.087-1.899-2.088-5.696-1e-3 -0.407 0-0.916 0-1.526 0.031-0.643 0.05-1.018 0.051-1.119-2e-3 -5.799 0.674-8.664 2.03-8.597 1.189 0.033 1.783 2.899 1.783 8.597m4.323-1e-3c-1e-3 -8.682-2.038-13.022-6.105-13.021-4.308 1e-3 -6.461 4.291-6.458 12.871 2e-3 4.238 0.343 7.29 1.019 9.156 0.985 2.611 2.799 3.915 5.446 3.915 2.338 0 4-1.273 4.983-3.816 0.746-2.001 1.119-5.037 1.115-9.105" fill="#100f0d"/>
    </g>
    <g transform="translate(305.8 24.658)">
     <path d="m0 0c2e-3 2.679-0.186 4.485-0.559 5.418-0.373 0.931-1.101 1.399-2.185 1.4l-3.255 1e-3 -5e-3 -11.345h3.358c1.018 0 1.711 0.321 2.086 0.966 0.372 0.643 0.562 1.831 0.56 3.56m-0.606 16.024c1e-3 1.695-0.212 2.898-0.636 3.613-0.423 0.711-1.161 1.068-2.21 1.069l-2.545 1e-3 -2e-3 -9.362 3.003-1e-3c1.119 0 1.848 0.543 2.185 1.628 0.134 0.51 0.206 1.527 0.205 3.052m5.031-15.669c-1e-3 -6.206-2.19-9.309-6.564-9.307l-8.138 2e-3 8e-3 34.082 6.207-2e-3c2.983-2e-3 5.042-0.663 6.181-1.985 1.135-1.323 1.701-3.698 1.7-7.122 0-2.951-0.56-5.258-1.68-6.918 0.881-1.085 1.405-2.087 1.576-3.001 0.474-1.325 0.709-3.24 0.71-5.749" fill="#100f0d"/>
    </g>
    <g transform="translate(323.96 29.23)">
     <path d="m0 0-1.778 8.954-1.936-8.952zm7.423-13.532h-4.528l-1.93 9.108h-5.595l-1.935-9.105-4.427 2e-3 6.926 34.077 4.427 1e-3z" fill="#100f0d"/>
    </g>
    <g transform="translate(346.34 40.313)">
     <path d="m0 0c3e-3 1.933-0.262 3.256-0.786 3.97-0.528 0.711-1.535 1.069-3.027 1.069l-2.189 1e-3v-9.362l2.898-1e-3c1.186 0 2 0.314 2.442 0.943 0.44 0.627 0.662 1.754 0.662 3.38m4.426-0.102c-1e-3 -3.562-1.206-6.07-3.614-7.526l3.504-16.992-4.424 1e-3 -3.862 15.923-2.036 1e-3 -4e-3 -15.922h-4.272l0.01 34.082 6.662-2e-3c5.359-1e-3 8.038-3.189 8.036-9.565" fill="#100f0d"/>
    </g>
    <path d="m371.47 2.5h-368.97v57.93h368.97z" fill="none" stroke="#100f0d" stroke-miterlimit="10" stroke-width="5"/>
   </g>
  </g>
 </g>
</svg>
