<?xml version="1.0" encoding="UTF-8"?>
<svg width="79.375mm" height="25.613mm" version="1.1" viewBox="0 0 79.375 25.613" xmlns="http://www.w3.org/2000/svg" xmlns:cc="http://creativecommons.org/ns#" xmlns:dc="http://purl.org/dc/elements/1.1/" xmlns:rdf="http://www.w3.org/1999/02/22-rdf-syntax-ns#">
 <metadata>
  <rdf:RDF>
   <cc:Work rdf:about="">
    <dc:format>image/svg+xml</dc:format>
    <dc:type rdf:resource="http://purl.org/dc/dcmitype/StillImage"/>
    <dc:title/>
   </cc:Work>
  </rdf:RDF>
 </metadata>
 <path d="m75.946 25.524c-0.79775-0.2133-1.4241-0.65991-1.7832-1.2716-0.24252-0.41302-0.24231-0.43803 0.0048-0.5873l0.21538-0.1301 0.14592 0.31182c0.28705 0.61341 0.89051 1.0679 1.5874 1.1955 0.46066 0.08434 1.4027 0.0312 1.7368-0.09799 0.63206-0.24436 0.97677-0.7494 0.98273-1.4398 0.0076-0.88484-0.3868-1.2171-2.1358-1.7992-0.45486-0.15139-1.0128-0.36437-1.2398-0.47329-0.95495-0.45813-1.351-1.1821-1.1474-2.0973 0.18072-0.81229 0.75029-1.3575 1.6616-1.5906 0.47679-0.12194 0.87704-0.12194 1.3538 0 0.4878 0.12476 0.80419 0.29906 1.1816 0.65093 0.2609 0.24326 0.69389 0.8366 0.63994 0.87694-0.06286 0.047-0.37379 0.22451-0.39326 0.22451-0.0131 0-0.10268-0.12775-0.19905-0.28389-0.23246-0.37661-0.55205-0.66338-0.94877-0.85133-0.31297-0.14827-0.34826-0.15395-0.95737-0.15395-0.5909 0-0.65158 0.0089-0.92431 0.13632-0.59311 0.27701-0.85559 0.65671-0.89022 1.2878-0.05024 0.91554 0.28549 1.2179 2.0091 1.8093 0.48161 0.16524 1.0551 0.38651 1.2743 0.4917 0.50102 0.24036 0.9335 0.63025 1.1197 1.0094 0.12116 0.24673 0.13557 0.3281 0.13499 0.76268-5.84e-4 0.42849-0.01668 0.52086-0.1351 0.77496-0.26852 0.57614-0.70006 0.95252-1.3509 1.1783-0.51082 0.17717-1.4131 0.20793-1.943 0.06625zm-75.657-0.22921c0.048972-0.12844 0.74281-1.9146 1.5419-3.9693l1.4528-3.7358 0.59027 0.02852 1.5182 3.9161c0.83499 2.1539 1.5192 3.9326 1.5204 3.9526 0.00124 0.02007-0.11588 0.03649-0.26028 0.03649h-0.26254l-0.17343-0.45c-0.095387-0.2475-0.27024-0.70174-0.38856-1.0094l-0.21513-0.55945-4.0847-0.025374-0.77106 2.0199-0.55688 0.02923zm5.0691-2.4089c0-0.13462-1.7305-4.5624-1.7831-4.5624-0.031511 0-0.15706 0.25722-0.279 0.57161-0.85367 2.2009-1.489 3.8925-1.489 3.9648-8.75e-5 0.07953 0.11686 0.08513 1.7755 0.08513 1.3615 0 1.7756-0.01379 1.7756-0.05915zm2.8562 2.6073c-0.019071-0.01907-0.034674-1.8042-0.034674-3.967v-3.9324l1.7148 5.78e-4c1.2766 4.39e-4 1.777 0.01721 1.9581 0.06565 0.80691 0.21587 1.4614 0.86577 1.6854 1.6737 0.20465 0.73802 0.0211 1.4828-0.51576 2.0927-0.22528 0.25593-0.68779 0.56999-0.95914 0.65129-0.10239 0.03068-0.18616 0.07768-0.18616 0.10446 0 0.0395 1.6311 2.8329 1.8886 3.2343l0.07182 0.11197-0.61641-0.02936-1.9071-3.2594-1.2988-0.01295-1.2988-0.01296-0.025618 3.2853-0.22073 0.0144c-0.1214 0.0079-0.23633-0.0012-0.2554-0.02027zm3.7827-3.9066c0.74125-0.29597 1.195-1.1474 1.0566-1.9826-0.10203-0.61575-0.43549-1.0756-0.97136-1.3395l-0.32462-0.15989-3.0429-0.031646v3.6622l1.4959-0.01632c1.4428-0.01574 1.5062-0.02044 1.7863-0.13227zm4.7933 0.21523v-3.7216h-2.5297v-0.48648h5.5945v0.48648h-2.5297v7.4431h-0.53513zm7.4291 3.6913c-0.01904-0.01904-0.03462-1.8042-0.03462-3.967v-3.9324h0.71432l1.4063 2.3344c0.90179 1.4969 1.4312 2.3303 1.4757 2.3229 0.03814-0.0063 0.69713-1.0513 1.4644-2.3222l1.395-2.3108 0.74468-0.02843-0.02488 7.9094h-0.53513l-0.02433-3.513c-0.01734-2.5041-0.03945-3.5031-0.07697-3.4783-0.02896 0.0191-0.69507 1.1019-1.4802 2.4063-0.78517 1.3044-1.4418 2.3716-1.4592 2.3716-0.01738 0-0.67469-1.0672-1.4607-2.3716-0.786-1.3044-1.4573-2.4004-1.4918-2.4355-0.05124-0.05224-0.06504 0.5854-0.07523 3.4783l-0.01248 3.5423-0.24511 0.01435c-0.13481 0.0079-0.26069-0.0012-0.27972-0.02027zm8.4448-0.12538c0.03672-0.08832 0.73172-1.8736 1.5444-3.9673l1.4777-3.8067 0.58743 4.86e-4 1.5202 3.9306c0.83613 2.1618 1.5202 3.9459 1.5202 3.9645 0 0.06034-0.47905 0.03649-0.52009-0.0259-0.02165-0.0329-0.20395-0.48715-0.40512-1.0094l-0.36576-0.9496-4.0899-0.02538-0.77311 2.0199-0.56282 0.02928zm5.0945-2.4835c0.0027-0.1355-1.7229-4.5607-1.7785-4.5607-0.05829 0-1.774 4.3974-1.774 4.5468 0 0.06589 0.21082 0.07476 1.7756 0.07476 1.3874 0 1.7759-0.0133 1.7769-0.06081zm4.069 2.6067c-0.01784-0.01784-0.03243-1.6925-0.03243-3.7216v-3.6891h-2.5297v-0.48648h5.5945v0.48648h-2.5297v7.4431h-0.23513c-0.12932 0-0.24973-0.01459-0.26756-0.03243zm4.3783 0c-0.01784-0.01784-0.03243-1.802-0.03243-3.9648v-3.9324h4.4756v0.48648h-3.9405v3.1621h3.6486v0.53512h-3.6486v3.2108h3.9891v0.53513h-2.2297c-1.2263 0-2.2443-0.01459-2.2621-0.03243zm6.081 0c-0.01784-0.01784-0.03244-1.802-0.03244-3.9648v-3.9324l1.7148 5.78e-4c1.8501 6.24e-4 1.9708 0.01363 2.4675 0.26595 0.32475 0.16498 0.80702 0.64348 0.98532 0.97763 0.48734 0.91329 0.32609 1.9161-0.4316 2.684-0.27444 0.27816-0.79584 0.5959-0.97802 0.59602-0.03344 2.1e-5 -0.06081 0.02541-0.06081 0.05642 0 0.04494 1.6032 2.7972 1.8886 3.242l0.07182 0.11197-0.61553-0.02935-1.9074-3.2594-1.2998-0.01295-1.2998-0.01296v3.3096h-0.23513c-0.12932 0-0.24973-0.01459-0.26756-0.03243zm3.7849-3.9043c0.74125-0.29597 1.195-1.1474 1.0566-1.9826-0.10203-0.61575-0.43548-1.0756-0.97136-1.3395l-0.32462-0.15989-3.0429-0.03164v3.6622l1.4959-0.01632c1.4428-0.01574 1.5062-0.02044 1.7863-0.13227zm3.1879-0.02801v-3.9648h0.53512v7.9296h-0.53512zm1.8 3.9265c0-0.02108 0.68493-1.7998 1.5221-3.9526l1.5221-3.9143 0.58948-0.02858 0.54268 1.4008c0.29847 0.77041 0.98767 2.5501 1.5315 3.9548l0.98886 2.554-0.21654 0.01507c-0.1191 0.0083-0.24342 0.0048-0.27628-0.0078-0.03284-0.01261-0.23166-0.47387-0.44179-1.025l-0.38207-1.0021-4.0901 0.02538-0.36525 0.94904c-0.20089 0.52198-0.38297 0.97622-0.40461 1.0094-0.04281 0.06569-0.52009 0.08593-0.52009 0.02206zm5.108-2.629c0-0.15947-1.6921-4.5077-1.7594-4.5212-0.04413-0.0088-0.34086 0.70794-0.92836 2.2425-0.47492 1.2405-0.8635 2.2807-0.8635 2.3116 0 0.04138 0.46665 0.05613 1.7756 0.05613 1.688 0 1.7756-0.0044 1.7756-0.089zm2.8545 2.6354c-0.01812-0.01812-0.03293-1.8025-0.03293-3.9653v-3.9324h0.58377v7.3945h3.751l-0.0147 0.2554-0.01471 0.2554-2.1197 0.01267c-1.1658 7e-3 -2.1345-0.0021-2.1527-0.02027zm-50.556-11.21c-2.2399-0.20028-3.9453-1.3693-4.5951-3.15-0.29351-0.80423-0.29192-0.77126-0.29192-6.0467v-4.8098h3.8894l0.01342 4.5851c0.01261 4.3092 0.01878 4.5988 0.10247 4.8144 0.24655 0.63492 1.0162 0.95495 1.9684 0.81852 0.58063-0.08319 0.89607-0.28213 1.1215-0.70732l0.12897-0.24324 0.0267-9.2674h3.9381l-4.1e-5 4.5364c-2.4e-5 2.6898-0.02012 4.748-0.04935 5.0563-0.23756 2.5052-2.1206 4.1872-4.9441 4.4165-0.67064 0.05446-0.66846 0.05446-1.3084-0.0027zm26.223 1e-3c-1.2125-0.11977-2.4256-0.55483-3.4695-1.2443-0.58666-0.38745-1.4593-1.2702-1.8717-1.8932-0.5266-0.79565-0.85154-1.5691-1.0682-2.5424-0.14222-0.63901-0.15438-2.1924-0.022258-2.8436 0.29481-1.4531 0.9361-2.649 1.9766-3.6859 1.0308-1.0273 2.1898-1.6531 3.6613-1.9767 0.58802-0.12935 2.461-0.12824 3.0545 0.0018269 1.4127 0.30953 2.6662 0.9911 3.6771 1.9995 1.0218 1.0192 1.6513 2.2134 1.9508 3.7005 0.12331 0.61236 0.12331 2.0597 0 2.6721-0.29945 1.4871-0.92798 2.6786-1.9517 3.6997-1.2386 1.2355-2.7554 1.942-4.5421 2.1158-0.53581 0.05214-0.8403 0.0514-1.3949-0.0035zm1.654-3.91c0.89766-0.23685 1.6782-0.85624 2.0597-1.6344 0.28751-0.58647 0.36804-0.93735 0.36804-1.6037 0-0.66638-0.08052-1.0173-0.36804-1.6037-0.37366-0.7622-1.0725-1.33-1.9867-1.6142-0.52566-0.1634-1.4689-0.1634-1.9946 0-1.1417 0.35489-1.8907 1.1039-2.2448 2.245-0.16242 0.52331-0.16242 1.4226 0 1.9459 0.32528 1.0481 1.0401 1.8196 2.0099 2.1694 0.61236 0.22087 1.5283 0.26155 2.1565 0.09578zm-46.309 3.5122c0.018994-0.060491 0.62085-1.9489 1.3375-4.1964 0.71661-2.2475 1.6828-5.2795 2.1471-6.7377l0.84418-2.6513 4.5897-0.025272 0.31572 0.98559c0.17365 0.54208 1.1168 3.5031 2.096 6.5801 0.97915 3.077 1.8219 5.7204 1.8728 5.8742l0.09253 0.27972h-4.2022l-0.18963-0.71755c-0.1043-0.39466-0.20926-0.78894-0.23326-0.8762l-0.043622-0.15864-4.004 0.0254-0.45247 1.7027-4.2049 0.025353zm7.7569-4.8166c0.0014107-0.093547-1.0786-4.0935-1.1166-4.1356-0.018411-0.02036-0.28209 0.88814-0.58596 2.0189-0.30387 1.1307-0.5621 2.0833-0.57385 2.1167-0.016695 0.04753 0.22937 0.060815 1.1271 0.060815 0.88582 0 1.1486-0.013905 1.1493-0.060815zm18.777-1.9567v-6.8822l2.7364-0.001116c1.505-5.978e-4 2.979 0.020431 3.2755 0.046718 1.3866 0.12297 2.5912 0.65653 3.3871 1.5002 0.40185 0.42598 0.58464 0.69213 0.81832 1.1915 0.29743 0.63559 0.39533 1.0717 0.42357 1.8865 0.03593 1.0369-0.12489 1.7288-0.58034 2.497-0.23402 0.39469-0.85634 1.0609-1.234 1.321-0.14551 0.10022-0.26456 0.19073-0.26456 0.20115 0 0.010413 0.60202 1.1572 1.3378 2.5485 0.7358 1.3913 1.3378 2.5393 1.3378 2.5513 0 0.01197-0.93868 0.02175-2.086 0.02175h-2.086l-0.05129-0.13378c-0.0282-0.07358-0.06514-0.18291-0.08206-0.24295-0.01693-0.06004-0.0605-0.1389-0.09684-0.17523-0.03633-0.03634-0.48373-0.90118-0.99422-1.9219l-0.92815-1.8558h-1.0214v4.3296h-3.8918zm5.9976-0.78375c0.51044-0.17392 0.80273-0.68274 0.7524-1.3098-0.040902-0.50952-0.28078-0.86545-0.71709-1.064-0.1919-0.087346-0.3401-0.10226-1.1803-0.11882l-0.96079-0.018939v2.5885h0.93996c0.72945 0 0.99054-0.017234 1.1658-0.076942zm21.634 0.78233v-6.8837l2.7608 1.6543e-4c2.9385 1.7457e-4 3.5906 0.033138 4.3211 0.21844 2.3233 0.58935 3.7175 2.4684 3.6069 4.861-0.06342 1.3722-0.69044 2.5463-1.7741 3.3219-0.16723 0.1197-0.30393 0.23213-0.30379 0.24985 0 0.017721 0.42822 0.8422 0.95129 1.8322 0.52307 0.98998 0.95531 1.8219 0.96054 1.8486 0.0052 0.02675 0.02252 0.0596 0.03844 0.07297 0.01591 0.01338 0.18734 0.32533 0.38095 0.69323l0.35201 0.66891-4.1672-0.001751-2.1891-4.3261-0.99728-0.0017528v4.3297h-3.9405zm6.1056-0.81978c0.77663-0.36166 0.94909-1.4687 0.32326-2.0751-0.32663-0.31649-0.46905-0.351-1.552-0.37607l-0.93647-0.021679v2.5873l0.96079-4.872e-4c0.90375-4.374e-4 0.97526-0.00721 1.2044-0.11391zm5.4356 7.6183c0.01268-0.04682 0.99443-3.1335 2.1817-6.8593l2.1586-6.7742h4.5926l0.03253 0.10946c0.01788 0.060206 0.25106 0.79657 0.51816 1.6364 0.2671 0.83981 0.49436 1.5622 0.50502 1.6054 0.01067 0.043145 0.75314 2.3742 1.6499 5.1802 0.89681 2.806 1.6306 5.121 1.6306 5.1445 0 0.02388-0.91931 0.04274-2.0841 0.04274h-2.0841l-0.23316-0.87566-0.23316-0.87566h-4.0041l-0.18902 0.71755c-0.10396 0.39466-0.20817 0.7887-0.23159 0.87566l-0.04257 0.1581h-2.0952c-1.9718 0-2.0939-5e-3 -2.0722-0.08513zm7.7701-4.8405c-0.0049-0.16058-1.0986-4.0812-1.1382-4.0802-0.03591 8.942e-4 -1.1416 3.9632-1.1454 4.1045-5.35e-4 0.020065 0.51347 0.036487 1.1422 0.036487 0.88314 0 1.1428-0.013834 1.1414-0.060815z" stroke-width=".048648"/>
</svg>
