<?xml version="1.0" encoding="UTF-8"?>
<svg width="79.375mm" height="67.213mm" version="1.1" viewBox="0 0 79.375 67.213" xmlns="http://www.w3.org/2000/svg" xmlns:cc="http://creativecommons.org/ns#" xmlns:dc="http://purl.org/dc/elements/1.1/" xmlns:rdf="http://www.w3.org/1999/02/22-rdf-syntax-ns#">
 <metadata>
  <rdf:RDF>
   <cc:Work rdf:about="">
    <dc:format>image/svg+xml</dc:format>
    <dc:type rdf:resource="http://purl.org/dc/dcmitype/StillImage"/>
    <dc:title/>
   </cc:Work>
  </rdf:RDF>
 </metadata>
 <g transform="matrix(1.2157 0 0 1.2157 47.057 61.039)" stroke-width=".13164">
  <path d="m-34.497-5.1893v-10.268h-4.2125v-17.903h4.2125v-16.85h55.421v30.936h5.6606v3.8176h-5.6606v20.536h-55.421zm54.894-0.19746v-10.071h-4.2125v-17.903h4.2125v-16.455h-54.499v23.3h0.13066l3.4246-6.8453h4.988l-1.0818 1.9088-0.4823 0.78985-0.18234 0.38193-1.0047 1.6538v0.09538l-1.71 2.8713-6.85e-4 0.13825-6.84e-4 0.13825 4.8707 9.7186v0.20713h-5.2344l-0.98806-2.3037-0.59207-1.3164-0.97184-2.2379-0.10914-0.11232-0.10914-0.11232-0.47348 0.74017-0.47349 0.74017v24.743h54.499zm-30.044-2.9038-0.3587-0.19466-0.13495-0.25216-0.13495-0.25216v-0.28059h0.68182l0.45982 0.56786 0.82946-0.02359 0.26679-0.16489v-0.50046l-1.119-0.29214-0.92149-0.44297v-1.0526l0.92149-0.47511 1.1353 0.11551 0.32091 0.30148 0.32091 0.30148v0.34903h-0.76168l-0.075774-0.19746-0.075773-0.19746h-1.0332l-0.14416 0.37567 0.16571 0.13752 0.1657 0.13752 1.392 0.29854 0.2494 0.2494 0.2494 0.2494v0.51418l-0.29957 0.65749-0.79285 0.27639-0.94802-0.01054-0.3587-0.19466zm3.6194 0.045676-0.29364-0.14171-0.53168-1.0983v-0.73275l0.21984-0.46327 0.21984-0.46327 0.81092-0.4945h0.78985l0.81092 0.4945 0.21984 0.46327 0.21984 0.46327v0.5526h-2.5012v0.33634l0.40985 0.58515h1.0289l0.28181-0.52656h0.64894v0.28059l-0.13554 0.25327-0.13554 0.25327-0.76897 0.39765-1.0004-0.01782-0.29364-0.14171zm1.6759-2.0784v-0.13164l-0.52656-0.52656h-0.77492l-0.40985 0.58515v0.2047h1.7113zm3.7779 2.1321-0.36885-0.044676-0.24962-0.65654v-2.0891h-0.52656v-0.52656h0.52656v-1.0531h0.78985v1.0531h0.65821v0.52656h-0.66885l0.076468 2.1721 0.59239 0.084132v0.47755l-0.46074 0.10126zm6.8317-0.095303-0.38246-0.19945-0.17283-0.22757-0.17283-0.22757-0.00419-0.56576-0.00419-0.56576 0.63095-0.58474-0.49931-0.61662v-0.61665l0.15104-0.33149 0.15104-0.33149 0.91339-0.30145 1.0587 0.142 0.36178 0.36178 0.23822 0.83063-0.22861 0.4484-0.22861 0.4484 0.61083 0.71014v0.62638l-0.12835 0.33761-0.12836 0.33761-0.86223 0.5257-0.92149-5.266e-4 -0.38246-0.19945zm1.4769-0.67741 0.17297-0.17267-0.041325-0.42472-0.041325-0.42472-0.67645-0.3778-0.65749 0.16502-0.35486 0.66306 0.15222 0.33408 0.15221 0.33407 0.58471 0.2163 0.53638-0.13995zm-0.23013-2.0223 0.25463-0.13627v-0.72793l-0.15797-0.15797-0.15797-0.15797h-0.71838l-0.41373 0.41373v0.37612l0.52656 0.52656h0.41223zm2.411 2.6494-0.41064-0.2504-0.29768-0.85392v-0.22399l0.72403 0.00568 0.39492 0.84997 0.97145 0.080769 0.45444-0.69356-0.12321-0.35181-0.12321-0.35181-0.98201-0.2439v-0.44722l0.77553-0.1551 0.29631-0.55367-0.4197-0.64055h-0.75154l-0.26719 0.3291-0.0964 0.52656-0.7589 0.0869 0.087572-0.43837 0.08757-0.43837 0.65781-0.65821h1.4209l0.33971 0.31914 0.33971 0.31914v1.0072l-0.50621 0.50621 0.38646 0.1483 0.396 0.94777-0.1517 0.45964-0.1517 0.45964-0.41426 0.2526-0.41426 0.2526h-1.0531l-0.41064-0.25041zm3.9238 0.11976-0.30438-0.12924-0.4193-0.4193-0.1235-1.2853 0.66008-0.58795-0.2646-0.3579-0.2646-0.3579 0.17018-0.90715 0.51875-0.46946 1.2533-0.1079 0.84138 0.52866 0.08966 0.47792 0.08966 0.47793-0.54458 0.73659 0.64284 0.60391v1.0896l-0.77754 0.74493-1.2629 0.0918zm1.5365-0.98262 0.17898-0.36403-0.25782-0.34691-0.25781-0.34691-0.69295-0.08282-0.63451 0.63451 0.13892 0.72676 0.80649 0.33911 0.26986-0.097836 0.26986-0.097834zm-0.34353-1.8335 0.23037-0.17488v-0.64234l-0.15797-0.15797-0.15797-0.15797h-0.68453l-0.31594 0.31594v0.72411l0.46074 0.26836 0.39492-2.63e-4 0.23037-0.17488zm-17.936 1.1706v-1.6455h0.65821v3.291h-0.65821zm6.5821 0.065821v-1.5797h-1.0531v-0.65821h0.79159l0.5723-0.65821h0.61073v4.4758h-0.92149zm-6.5821-2.6986v-0.3291h0.65821v0.65821h-0.65821zm8.7367-2.8951-0.80727-0.17557-1.0183-0.65235-0.80825-0.88438-0.45612-0.7358-0.25639-1.0025-0.25639-1.0025v-13.517h4.5987l0.07454 14.198 0.2759 0.37154 0.2759 0.37154 0.94007 0.23852 0.79338-0.32863 0.4134-0.87117v-13.98h4.7391l-0.0011 6.0226-0.0011 6.0226-0.12918 1.1272-0.12918 1.1272-0.51361 1.4928-0.79744 1.159-1.2131 0.80354-0.90445 0.20572-0.90451 0.20571-3.1074-0.02093zm-30.063-9.0184v-8.9516l7.0428 0.0142 2.013 0.21143 1.7197 0.80475 0.92423 1.2734 0.41126 1.4653v2.1271l-0.26294 0.85131-0.26294 0.8513-0.72471 0.80465-1.0492 0.54822h-0.46464v0.22963l0.98731 0.16206 0.82541 0.50753 0.37597 0.76807 0.37597 0.76807 0.07732 2.6986 0.07732 2.6986 0.14704 0.27411 0.14704 0.27411 0.4093 0.33969v0.23104h-4.99l-0.14862-0.49365-0.14862-0.49366-0.12496-4.7391-0.38685-1.0798-0.66377-0.30243h-1.6989v7.1086h-4.6074v-8.9516zm6.8503-1.7819 0.38393-0.36782 0.15123-0.45822 0.15123-0.45822-0.07076-0.78038-0.07076-0.78038-0.24197-0.27172-0.24197-0.27173-0.84721-0.35859h-1.4565v4.2479l1.8589-0.133zm7.2354 1.7819v-8.9516h10.531v3.8126l-5.858 0.07086-0.037089 1.5468-0.037087 1.5468h5.6689v3.5543h-5.6606v3.5543h6.1871v3.8176h-10.795z" fill="#11110e"/>
  <path d="m-34.497-5.1893v-10.268h-4.2125v-17.861l3.8834-0.0184 0.16455-0.01186 0.16455-0.01184v-16.806l55.421-8.31e-4v30.892h5.6287l0.0042 1.9088 0.0042 1.9088h-5.6371v20.536h-55.421v-10.268zm54.96-0.19746v-10.071h-4.2545l0.042-17.837h4.2125l-0.02616-7.9643-0.02616-7.9643-0.0068-0.29619-0.0068-0.29619h-54.499l0.0142 23.498 3.5214-7.0035 4.9774 0.0044-0.46038 0.8283-0.46038 0.8283-0.10869-0.06717-0.10869-0.06717 0.07797 0.20319 0.07797 0.20319-0.40562 0.15566 0.07117 0.18546 0.07117 0.18546-0.42224 0.16202v0.4984h-0.23258l-0.0734 0.23037-0.0734 0.23037-0.89833 1.5797-1.4867 2.5243v0.25334l4.8707 9.7186v0.20713h-5.2332l-0.28484-0.66213-0.28484-0.66213 0.18302-0.29612-0.30396 0.18786-0.01975-0.13941-0.01975-0.13941-0.01316-0.16455-0.01316-0.16455-0.16576-0.17516-0.16576-0.17516 0.1496-0.24206h-0.27882v-0.52656h-0.26328v-0.34547l-0.50084-1.0368-0.67335-1.5227-0.52012 0.32482 0.05852 0.09468 0.05851 0.09468-0.16576 0.18026-0.16576 0.18026-0.16455 0.28932-0.16455 0.28932v24.752h54.565zm-30.11-2.9038-0.3587-0.19466-0.13495-0.25216-0.13495-0.25216v-0.28059h0.80538l-0.069096 0.1118-0.069097 0.1118 0.71504 0.36836 0.096716 0.13185 0.096714 0.13185 0.00201-0.16455 0.00202-0.16455h0.49433l0.30461-0.36703-0.39147-0.39147 0.094688-0.097164-1.0644-0.062442-0.81996-0.47888v-1.0384l0.92149-0.47511 1.1353 0.11552 0.64181 0.60295v0.30896l-0.76867 0.02186-0.14456-0.37671h-1.0332l-0.14416 0.37567 0.31345 0.25031 0.65821 0.21603 0.20217-0.05374 0.90741 0.37914 0.17084 0.68067-0.31797 0.76765-0.80427 0.28037-0.94802-0.01054-0.3587-0.19466zm3.6194 0.045676-0.29364-0.14171-0.53168-1.0983v-0.71721l0.52915-1.0372 0.77419-0.40035 0.7371 0.001053 0.81092 0.4945 0.21984 0.46327 0.21984 0.46327v0.5526h-2.6571l0.24899 0.42783 0.24899 0.42783 1.089 0.080131 0.28947-0.54088h0.63382l-0.051143 0.26557-0.051144 0.26557-0.34877 0.34877-0.56964 0.30486-1.0046-0.01782-0.29364-0.14171zm1.6013-2.227-0.17896-0.34606-0.42619-0.16354h-0.6306l-0.42369 0.64663 0.12919 0.20904h1.7092zm3.8524 2.2807-0.36885-0.044676-0.22075-0.5806-0.00444-0.65469-0.00444-0.65469-0.00999-0.42783-0.010006-0.42783h-0.47054l-0.019833-0.26328-0.019832-0.26328h0.5102l0.015597-0.36201 0.015598-0.36201-0.042736-0.3291h0.80139v1.0531h0.65821v0.52656h-0.66885l0.076468 2.1609 0.52656 0.1428 0.035028 0.21446 0.035027 0.21446-0.46498 0.10236zm6.918-0.029972-0.29619-0.11906v-0.31565l-0.085714 0.085714-0.085716 0.085714-0.17338-0.22833-0.17338-0.22833-0.00838-1.119h0.27882l-0.15455-0.25007 0.54226-0.29021-0.26744-0.34-0.26744-0.34v-0.61031l0.15104-0.33149 0.15104-0.33149 0.81688-0.26439 1.1715 0.12129 0.34543 0.34543 0.22806 0.7952-0.22995 0.47275-0.22995 0.47275 0.26171 0.2617 0.26171 0.26171 0.0948 0.81421-0.12563 0.33043-0.12563 0.33043-0.86223 0.5257-0.46074-0.00785-0.46074-0.00786-0.29619-0.11906zm0.97477-0.52246h0.1959l0.38724-0.38724-0.030001-0.50847-0.030002-0.50847-0.28022-0.03948-0.82215-0.161-0.56045 0.60157 0.028292 0.37131 0.028294 0.37131 0.73363 0.32474 0.0104 0.13242 0.010387 0.13242 0.1328-0.3291h0.19589zm0.21244-2.248 0.31102-0.14171-0.055863-0.38062-0.055863-0.38062-0.3965-0.32907-0.56216-0.0086-0.46074 0.50103v0.35464l0.52656 0.52656h0.38253zm2.5317 2.7482-0.26328-0.15002-0.45528-0.51579 0.13047-0.21111-0.26758-0.16537v-0.36178l0.72432 0.020588 0.19731 0.40873 0.19731 0.40873 0.98172 0.08138 0.24985-0.41085 0.24985-0.41085-0.14832-0.31485-0.14832-0.31485-0.98731-0.16702v-0.50342l0.46074-0.0094 0.55327-0.31977-0.02476-0.3029-0.02476-0.3029-0.42673-0.42673-0.65582-0.0287-0.253 0.53466-0.14726 0.46074h-0.69936l0.17093-0.85567 0.65785-0.65821 1.4569 0.0186 0.64336 0.69384v0.94852l-0.26027-0.16086 0.15594 0.40638-0.39324 0.1509 0.65602 0.65602-0.06695 0.25604-0.06696 0.25604 0.11936-0.073772 0.11936-0.07377v0.28728l-0.37418 0.89554-0.79752 0.41241-1.0004-8e-3 -0.26328-0.15002zm3.7765 0.026406-0.30438-0.12924-0.39009-0.39009-0.1554-1.3121 0.66277-0.59034-0.2646-0.3579-0.2646-0.3579 0.17018-0.90715 0.52313-0.47342 1.2489-0.05778 0.70733 0.36155 0.14488 0.23443 0.15074 0.94852-0.60849 0.60849 0.72448 0.59999v1.1155l-0.77754 0.74493-1.2629 0.0918zm1.528-0.96499 0.17053-0.34641-0.15733-0.29871-0.15733-0.29871-0.28969-0.19342-0.60435-4e-3 -0.61751 0.61751 0.13892 0.72676 0.80649 0.33911 0.26986-0.097836 0.26986-0.097835 0.17053-0.34641zm-0.33508-1.8511 0.23037-0.17488v-0.66276l-0.19351-0.1606-0.19351-0.1606-0.78123-0.05408 0.11222 0.18158-0.36484 0.3028 0.06904 0.29135 0.06904 0.29135 0.41163 0.3291 0.41042-0.0084 0.23037-0.17488zm-17.936 1.1706v-1.6455h0.65821v3.291h-0.65821zm6.5821 0.065821v-1.5797h-1.0531v-0.65821h0.79159l0.5723-0.65821h0.61073v4.4758h-0.92149zm-6.5821-2.7259v-0.29892l0.65821 0.05448v0.59783l-0.65821-0.05448zm9.4488-2.7447-0.073281-0.07328-1.1056-0.10998-1.1809-0.58977-1.1669-1.2822 0.065943-0.1067 0.065944-0.1067-0.21036-0.08072-0.21036-0.08073 0.15069-0.3927h-0.21191l-0.41903-1.7772 0.00286-6.7264 0.00286-6.7264 4.5169 0.02538v13.757l0.16455-1.3e-5 0.075811 0.37906 0.075812 0.37906 0.20816 0.20816 0.20816 0.20816 0.91741 0.1721 0.76699-0.3177 0.43855-0.92417 5.265e-4 -6.9431 5.266e-4 -6.9431 4.7128 0.0046v12.417l-0.1471 0.1471-0.10204 1.6739-0.51522 1.481-0.35629 0.5384-0.35629 0.5384-0.89415 0.682-0.30241-0.1869 0.18132 0.29337-1.2596 0.37115-0.7075-0.0454 0.13066 0.21141h-3.3943l-0.073281-0.07328zm-30.775-9.1298v-8.9398l8.4909 0.0682 1.119 0.34488v0.26549l0.16424-0.16424 1.0053 0.51286 0.67346 0.88295v0.30425h0.20493l0.4377 1.5139v2.1063l-0.4377 1.5139h-0.22047l0.15486 0.25058-0.92489 0.95238-0.23998-0.14832-0.0727 0.18944-0.0727 0.18944-0.46766 0.08774-0.46766 0.08773v0.20033l1.0531 0.1684v0.27571l0.23586-0.14576 0.53718 0.45933 0.52802 0.96798 0.12968 0.50332 0.12968 0.50332 0.08302 5.0024 0.33361 0.35033-0.08813 0.15394-0.08814 0.15394 0.21545-0.19518 0.35333 0.29324v0.23104h-4.9922l-0.29401-1.0919 0.0589-0.22522 0.0589-0.22522-0.21191-0.37866-0.05126-4.332-0.20785-0.13414-0.04347-0.19464-0.04347-0.19464-0.75426-0.33226h-1.6811v7.1086h-4.6074zm6.675-1.4852 0.15876-0.01853-0.05693-0.09211-0.05692-0.09211 0.51044-0.46195 0.30803-0.93335 0.01549-0.57064 0.01549-0.57064-0.19746 2.04e-4v-0.49433l-0.39202-0.32535 0.08548-0.14964 0.08548-0.14964-0.19532 0.17506-0.89156-0.37252h-1.4565v4.2479l0.9544-0.08692 0.9544-0.08691zm7.4554 1.5063 0.021-8.9187 10.465-0.0249v3.7355l-5.5687-0.02464-0.18253 0.13349-0.18253 0.13349-0.055924 2.9585 5.7264-2.58e-4v3.5543h-5.6606l-0.00823 0.26328-0.00823 0.26328v2.2379l0.01646 0.78985h6.1871v3.8176h-10.771z"/>
 </g>
</svg>
