<?xml version="1.0" encoding="UTF-8"?>
<svg width="79.375mm" height="24.429mm" version="1.1" viewBox="0 0 79.375 24.429" xmlns="http://www.w3.org/2000/svg" xmlns:cc="http://creativecommons.org/ns#" xmlns:dc="http://purl.org/dc/elements/1.1/" xmlns:rdf="http://www.w3.org/1999/02/22-rdf-syntax-ns#">
 <metadata>
  <rdf:RDF>
   <cc:Work rdf:about="">
    <dc:format>image/svg+xml</dc:format>
    <dc:type rdf:resource="http://purl.org/dc/dcmitype/StillImage"/>
    <dc:title/>
   </cc:Work>
  </rdf:RDF>
 </metadata>
 <g transform="matrix(.32738 0 0 .32738 -57.839 -31.453)">
  <g fill="#211e1e" fill-rule="evenodd">
   <path d="m202.18 135.75c-1.1172 0.0586-4.1328 0.33594-9.0508 0.83985-3.5781 0.39062-6.1211 0.55859-7.6289 0.5039-2.625 4.4688-4.75 8.4961-6.3711 12.07-0.38672 0.89453-0.89453 0.94921-1.5078 0.16796-0.5586-0.72656-0.83594-1.7344-0.83594-3.0195 0-2.5703 1.1719-6.0039 3.5195-10.309-1.3984-0.78516-2.3203-1.7305-2.7656-2.8516-0.22266-0.5586-0.28125-0.92188-0.16797-1.0898 0.16797-0.22265 0.55859-0.27734 1.1719-0.16797 1.625 0.22266 2.8789 0.36329 3.7734 0.42188 3.6875-6.4297 7.9062-12.824 12.656-19.195 5.4766-7.3242 10.281-12.688 14.418-16.094 0.66797-0.5625 1.2305-0.83984 1.6758-0.83984 0.44922 0 0.86719 0.26562 1.2578 0.79688 0.39063 0.53125 1.0625 1.7188 2.0117 3.5625 0.72656 1.8438 0.72656 3.8867 0 6.1172-2.6797 8.0469-4.7227 16.18-6.1211 24.395 2.0703 0.66797 3.3281 2.0938 3.7734 4.2734 0.0547 0.39454 0.0273 0.64063-0.082 0.75391-0.16797 0.11328-0.44531 0.11328-0.83984 0-0.83594-0.15234-2.0391-0.26172-3.6055-0.33594-0.72266 5.2969-1.1445 9.7266-1.2578 13.262 0 0.87891-0.41797 1.1289-1.2539 0.73828-2.0156-0.89453-3.0469-3.4375-3.1016-7.6289 0-1.7852 0.10937-3.9102 0.33203-6.3711zm-13.492-3.6875c3.4062-0.44531 8.1289-0.92187 14.164-1.4219 1.5664-10.676 3.6328-19.281 6.2031-25.82-6.9297 7.7656-13.719 16.852-20.367 27.242"/>
   <path d="m225.9 148.07c-2.0664 1.3945-4.0781 2.0938-6.0352 2.0938-2.1797 0-3.8711-0.7539-5.0703-2.2617-1.2031-1.5117-1.8008-3.4922-1.8008-5.9492 0-4.082 1.4805-8.2734 4.4414-12.578 3.0742-4.5234 6.3164-7.9883 9.7227-10.391 2.9062-2.0664 5.5312-3.1016 7.8789-3.1016 1.7344 0 3.0469 0.58594 3.9414 1.7578 0.89453 1.1758 1.2852 2.6016 1.1719 4.2773 1.5078-2.7266 2.7109-4.5391 3.6016-5.4336 0.39453-0.40625 0.73047-0.60157 1.0078-0.60157 0.33594 0 0.69922 0.28125 1.0898 0.83985 0.39453 0.83593 0.58984 1.8125 0.58984 2.9336 0 2.3047-0.8125 4.9023-2.4336 7.8086-5.1406 9.1758-8.5781 15.395-10.309 18.637-4.75 9.0078-8.5508 16.902-11.398 23.676-0.39453 0.95313-0.89453 1.0664-1.5117 0.33594-0.94922-1.1172-1.4219-2.3711-1.4219-3.7695 0-1.0625 0.22266-2.375 0.66797-3.9414 1.1758-3.9648 3.1289-8.7461 5.8672-14.332zm6.9609-13.242c3.2969-5.7578 4.9414-9.9492 4.9414-12.578 0-1.3398-0.44531-2.0352-1.3398-2.0938-1.3984-0.11328-3.3789 1.0352-5.9531 3.4375-2.7383 2.5156-5.2226 5.5586-7.457 9.1367-2.7969 4.4688-4.1914 8.3828-4.1914 11.734 0 2.0664 0.64063 3.1016 1.9258 3.1016 3.1875 0 7.2109-4.2461 12.074-12.738"/>
   <path d="m260.69 142.12c-4.1367 5.5352-8.1602 8.1602-12.07 7.8828-3.5234-0.22656-5.2812-2.3789-5.2812-6.457 0-1.7305 0.33203-3.6328 1.0039-5.6992 2.1797-6.4844 6.0352-13.609 11.566-21.375 0.67187-0.94922 1.3984-0.97656 2.1836-0.082 0.72266 1.1172 1.0898 2.3711 1.0898 3.7695 0 2.1797-0.89844 4.6953-2.6875 7.5469-2.5664 4.0781-4.75 8.1836-6.5352 12.32-0.78125 1.8438-1.1758 3.4375-1.1758 4.7773 0 1.5664 0.53516 2.4023 1.5938 2.5156 2.793 0.22265 6.9297-4.082 12.406-12.91 1.7305-2.793 3.7969-6.3984 6.1992-10.812 1.9023-3.5195 3.3008-5.8945 4.1953-7.125 0.50391-0.67187 0.92188-1.0078 1.2578-1.0078 0.67188 0 1.1992 0.64453 1.5898 1.9336 0.28125 1 0.42187 1.8945 0.42187 2.6797 0 1.7305-0.42187 3.4922-1.2578 5.2812-2.0117 3.3516-4.668 8.1289-7.9648 14.332-0.94922 2.0703-1.4258 3.8281-1.4258 5.2812 0 2.0117 0.86719 2.9609 2.6016 2.8477 3.1836-0.16407 6.8711-4.0234 11.062-11.566 0.22265-0.39063 0.47656-0.58594 0.7539-0.58594 0.33594-0.0547 0.58985 0.11328 0.75391 0.50391 0.61719 1.3398 0.36719 3.0976-0.75391 5.2773-1.2305 2.4609-3.0273 4.5703-5.4062 6.332-2.375 1.7617-4.7617 2.6406-7.1641 2.6406-4.6953 0-7.043-2.207-7.043-6.625 0-0.5586 0.0274-1.1172 0.0859-1.6758"/>
   <path d="m305.28 121.67c1.2266-2.293 2.2344-3.9961 3.0156-5.1172 0.44532-0.61328 0.86719-0.91797 1.2578-0.91797 0.61328 0 1.1172 0.64063 1.5078 1.9258 0.28125 0.94922 0.41797 1.8164 0.41797 2.5977 0 1.7344-0.41797 3.4648-1.2539 5.1992-2.0117 3.3516-4.6953 8.1836-8.0469 14.5-1.0078 2.2891-1.5078 4.1641-1.5078 5.6172 0 1.7305 0.72266 2.5664 2.1758 2.5156 1.6211-0.11328 3.5234-1.3711 5.7031-3.7734 1.8984-2.125 3.6602-4.75 5.2812-7.8789 0.5-0.94922 0.94531-0.98047 1.3398-0.0859 0.55469 1.2305 0.3086 2.9648-0.75781 5.1953-1.1133 2.4609-2.8203 4.5586-5.1094 6.2891-2.4024 1.9024-4.7227 2.7969-6.9609 2.6836-4.582-0.28125-6.8711-2.5703-6.8711-6.875-3.4102 4.3594-6.9024 6.5391-10.477 6.5391-2.1836 0-3.8711-0.75391-5.0703-2.2656-1.2031-1.5078-1.8047-3.4922-1.8047-5.9492 0-4.0781 1.4805-8.2695 4.4453-12.574 3.1836-4.6367 6.4531-8.1562 9.8047-10.562 2.8477-2.0664 5.4492-3.0977 7.793-3.0977 1.7344 0 3.0469 0.57032 3.9414 1.7148 0.89453 1.1484 1.2891 2.5859 1.1758 4.3203zm-7.293 12.988c3.2969-5.6992 4.9453-9.8906 4.9453-12.57 0-1.2852-0.44922-1.9844-1.3438-2.0977-1.3945-0.10937-3.3789 1.0352-5.9492 3.4414-2.7383 2.5117-5.2266 5.5859-7.4609 9.2188-2.793 4.4688-4.1875 8.3516-4.1875 11.648 0 1.957 0.64062 2.9609 1.9258 3.0195 3.1289 0.0547 7.1523-4.1641 12.07-12.66"/>
   <path d="m326.08 122.42c2.5156-0.33594 5.3945-1.6211 8.6367-3.8555 1.0039-0.67188 1.7578-0.72657 2.2617-0.17188 1.5078 1.7344 2.2617 3.4961 2.2617 5.2812 0 1.1172-0.35937 2.0977-1.0898 2.9375-5.082 5.7539-8.1562 10.391-9.2188 13.914-0.39063 1.2852-0.58594 2.4844-0.58594 3.6016 0 2.6836 0.89453 4.0508 2.6797 4.1094 1.5664 0.0547 3.2969-1.0039 5.1992-3.1836 1.7305-2.0703 3.3242-4.6992 4.7773-7.8828 0.39453-0.89453 0.78125-0.92187 1.1758-0.082 0.61328 1.2852 0.47266 3.0195-0.42187 5.1953-0.94922 2.4023-2.5 4.4023-4.6484 5.9922-2.1562 1.5977-4.3477 2.3359-6.582 2.2227-2.2344-0.10938-3.9805-0.87891-5.2422-2.3047-1.2539-1.4258-1.8828-3.2539-1.8828-5.4883 0-4.8047 3.6055-11.348 10.812-19.613-3.2383 2.1211-6.5117 3.1836-9.8086 3.1836-2.3438 4.0234-4.6953 8.043-7.0391 12.07-3.1836 5.7539-5.1133 10.199-5.7852 13.324-0.22265 1.0078-0.69531 1.1484-1.4258 0.42188-1.2266-1.2852-1.8438-2.8789-1.8438-4.7773 0-1.7891 0.54688-3.7305 1.6367-5.8281 1.0859-2.0938 4.6524-7.4453 10.688-16.051-1.0625-0.67187-1.5938-1.7031-1.5938-3.1016 0-1.957 0.89453-4.1367 2.6836-6.5391 1.7891-2.2344 3.2969-3.3789 4.5273-3.4336 1.1172-0.0586 1.6719 0.78125 1.6719 2.5117 0 1.9023-0.61328 4.4141-1.8438 7.5469"/>
   <path d="m359.6 110.43c0.38671 0.78516 0.58593 1.5938 0.58593 2.4336 0 2.5664-0.95312 3.8555-2.8516 3.8555-1.2266 0-2.2344-0.64453-3.0156-1.9297-0.5625-0.94922-0.83985-1.9258-0.83985-2.9336 0-0.89454 0.25-1.7734 0.75391-2.6406 0.5039-0.86719 1.1719-1.3008 2.0117-1.3008 1.3984 0 2.5156 0.83984 3.3555 2.5156zm-13.668 39.73c-4.4141 0-6.6172-2.2617-6.6172-6.7891 0-1.6172 0.33203-3.4375 1.0039-5.4492 1.0039-2.9023 2.6523-6.5078 4.9453-10.812 2.1797-4.0195 4.1055-7.207 5.7852-9.5547 0.44532-0.61328 0.86329-0.92187 1.2539-0.92187 0.61719 0 1.1172 0.61328 1.5117 1.8438 0.27734 0.89453 0.41797 1.7344 0.41797 2.5156 0 1.6758-0.41797 3.4102-1.2578 5.1953-1.7891 3.1289-4.1328 7.6562-7.043 13.582-0.89453 2.1797-1.3398 3.9648-1.3398 5.3633 0 1.7891 0.72657 2.6562 2.1836 2.5976 1.7852-0.11328 3.7695-1.3438 5.9453-3.6875 1.9609-2.1797 3.6094-4.7812 4.9453-7.7969 0.44922-0.83984 0.89453-0.83984 1.3438 0 0.67188 1.2852 0.47656 3.0156-0.58594 5.1953-1.2305 2.5742-3.0195 4.668-5.3672 6.2891-2.3438 1.6211-4.7188 2.4297-7.125 2.4297"/>
   <path d="m373.01 142.12c-4.1367 5.5352-8.1562 8.1602-12.07 7.8828-3.5195-0.22656-5.2812-2.3789-5.2812-6.457 0-1.7305 0.33594-3.6328 1.0039-5.6992 2.1836-6.4844 6.0352-13.609 11.57-21.375 0.67187-0.94922 1.3945-0.97656 2.1797-0.082 0.72656 1.1172 1.0898 2.3711 1.0898 3.7695 0 2.1797-0.89453 4.6953-2.6836 7.5469-2.5703 4.0781-4.75 8.1836-6.5391 12.32-0.78125 1.8438-1.1719 3.4375-1.1719 4.7773 0 1.5664 0.53125 2.4023 1.5898 2.5156 2.7969 0.22265 6.9297-4.082 12.406-12.91 1.7344-2.793 3.8008-6.3984 6.2031-10.812 1.9023-3.5195 3.3008-5.8945 4.1953-7.125 0.5-0.67187 0.91797-1.0078 1.2539-1.0078 0.67187 0 1.1992 0.64453 1.5938 1.9336 0.27734 1 0.41796 1.8945 0.41796 2.6797 0 1.7305-0.41796 3.4922-1.2578 5.2812-2.0078 3.3516-4.6641 8.1289-7.9609 14.332-0.94921 2.0703-1.4258 3.8281-1.4258 5.2812 0 2.0117 0.86719 2.9609 2.5977 2.8477 3.1836-0.16407 6.875-4.0234 11.062-11.566 0.22656-0.39063 0.47656-0.58594 0.75781-0.58594 0.33594-0.0547 0.58594 0.11328 0.75391 0.50391 0.61328 1.3398 0.36328 3.0976-0.75391 5.2773-1.2305 2.4609-3.0312 4.5703-5.4062 6.332s-4.7656 2.6406-7.168 2.6406c-4.6914 0-7.043-2.207-7.043-6.625 0-0.5586 0.0312-1.1172 0.0859-1.6758"/>
   <path d="m393.38 135.16c4.3008-5.8711 7.5156-10.676 9.6367-14.422 0.33594-2.793 1.3438-4.9453 3.0195-6.4531 1.2266-1.1172 2.375-1.6758 3.4336-1.6758 1.0078 0 1.5117 0.47656 1.5117 1.4258 0 0.44532-0.66797 1.8711-2.0117 4.2734-0.11328 1.1172-0.16797 2.2891-0.16797 3.5195 0 1.957 0.19531 4.8633 0.58594 8.7188 0.28125 3.5234 0.39062 6.1211 0.33594 7.7969-0.22266 4.3008-1.4805 7.2383-3.7734 8.8008 4.6953-1.7344 8.4375-5.6172 11.234-11.652 0.22266-0.44531 0.5-0.64062 0.83594-0.58593 0.33594 0 0.58594 0.19531 0.75391 0.58593 0.55859 1.2305 0.16797 3.0742-1.1719 5.5312-3.2383 5.8711-8.1875 8.9414-14.836 9.2227-5.8672 0.22266-10.004-1.875-12.406-6.2891-0.89453-1.6211-1.3398-3.4336-1.3398-5.4492 0-2.7891 0.80859-4.8594 2.4297-6.1992 0.39062-0.28125 0.69922-0.42188 0.92187-0.42188 0.44922 0 0.72657 0.44922 0.83985 1.3398 0.0547 0.67187 0.10937 1.3164 0.16797 1.9336zm9.4726-9.0547c-1.957 3.5781-4.8633 8.1016-8.7188 13.578 1.2812 5.0859 3.1562 7.6289 5.6172 7.6289 2.4023 0 3.6016-3.4375 3.6016-10.312 0-1.0586-0.16797-4.6914-0.5-10.895"/>
  </g>
  <g fill="none" stroke="#211e1e" stroke-miterlimit="10" stroke-width=".216">
   <path transform="matrix(1,0,0,-1,0,842)" d="m202.18 706.25c-1.1172-0.0586-4.1328-0.33594-9.0508-0.83985-3.5781-0.39062-6.1211-0.55859-7.6289-0.5039-2.625-4.4688-4.75-8.4961-6.3711-12.07-0.38672-0.89453-0.89453-0.94922-1.5078-0.16797-0.5586 0.72657-0.83594 1.7344-0.83594 3.0195 0 2.5703 1.1719 6.0039 3.5195 10.309-1.3984 0.78516-2.3203 1.7305-2.7656 2.8516-0.22266 0.5586-0.28125 0.92188-0.16797 1.0898 0.16797 0.22265 0.55859 0.27734 1.1719 0.16796 1.625-0.22265 2.8789-0.36328 3.7734-0.42187 3.6875 6.4297 7.9062 12.824 12.656 19.195 5.4766 7.3242 10.281 12.688 14.418 16.094 0.66797 0.5625 1.2305 0.83985 1.6758 0.83985 0.44922 0 0.86719-0.26563 1.2578-0.79688 0.39063-0.53125 1.0625-1.7188 2.0117-3.5625 0.72656-1.8438 0.72656-3.8867 0-6.1172-2.6797-8.0469-4.7227-16.18-6.1211-24.395 2.0703-0.66797 3.3281-2.0938 3.7734-4.2734 0.0547-0.39453 0.0273-0.64062-0.082-0.7539-0.16797-0.11328-0.44531-0.11328-0.83984 0-0.83594 0.15234-2.0391 0.26172-3.6055 0.33594-0.72266-5.2969-1.1445-9.7266-1.2578-13.262 0-0.87891-0.41797-1.1289-1.2539-0.73828-2.0156 0.89453-3.0469 3.4375-3.1016 7.6289 0 1.7852 0.10937 3.9102 0.33203 6.3711zm-13.492 3.6875c3.4062 0.44531 8.1289 0.92187 14.164 1.4219 1.5664 10.676 3.6328 19.281 6.2031 25.82-6.9297-7.7656-13.719-16.852-20.367-27.242z"/>
   <path transform="matrix(1,0,0,-1,0,842)" d="m225.9 693.93c-2.0664-1.3945-4.0781-2.0938-6.0352-2.0938-2.1797 0-3.8711 0.7539-5.0703 2.2617-1.2031 1.5117-1.8008 3.4922-1.8008 5.9492 0 4.082 1.4805 8.2734 4.4414 12.578 3.0742 4.5234 6.3164 7.9883 9.7227 10.391 2.9062 2.0664 5.5312 3.1016 7.8789 3.1016 1.7344 0 3.0469-0.58594 3.9414-1.7578 0.89453-1.1758 1.2852-2.6016 1.1719-4.2773 1.5078 2.7266 2.7109 4.5391 3.6016 5.4336 0.39453 0.40625 0.73047 0.60157 1.0078 0.60157 0.33594 0 0.69922-0.28125 1.0898-0.83985 0.39453-0.83593 0.58984-1.8125 0.58984-2.9336 0-2.3047-0.8125-4.9023-2.4336-7.8086-5.1406-9.1758-8.5781-15.395-10.309-18.637-4.75-9.0078-8.5508-16.902-11.398-23.676-0.39453-0.95313-0.89453-1.0664-1.5117-0.33594-0.94922 1.1172-1.4219 2.3711-1.4219 3.7695 0 1.0625 0.22266 2.375 0.66797 3.9414 1.1758 3.9648 3.1289 8.7461 5.8672 14.332zm6.9609 13.242c3.2969 5.7578 4.9414 9.9492 4.9414 12.578 0 1.3398-0.44531 2.0352-1.3398 2.0938-1.3984 0.11328-3.3789-1.0352-5.9531-3.4375-2.7383-2.5156-5.2226-5.5586-7.457-9.1367-2.7969-4.4688-4.1914-8.3828-4.1914-11.734 0-2.0664 0.64063-3.1016 1.9258-3.1016 3.1875 0 7.2109 4.2461 12.074 12.738z"/>
   <path transform="matrix(1,0,0,-1,0,842)" d="m260.69 699.88c-4.1367-5.5352-8.1602-8.1602-12.07-7.8828-3.5234 0.22656-5.2812 2.3789-5.2812 6.457 0 1.7305 0.33203 3.6328 1.0039 5.6992 2.1797 6.4844 6.0352 13.609 11.566 21.375 0.67187 0.94922 1.3984 0.97656 2.1836 0.082 0.72266-1.1172 1.0898-2.3711 1.0898-3.7695 0-2.1797-0.89844-4.6953-2.6875-7.5469-2.5664-4.0781-4.75-8.1836-6.5352-12.32-0.78125-1.8438-1.1758-3.4375-1.1758-4.7773 0-1.5664 0.53516-2.4024 1.5938-2.5156 2.793-0.22265 6.9297 4.082 12.406 12.91 1.7305 2.793 3.7969 6.3984 6.1992 10.812 1.9023 3.5195 3.3008 5.8945 4.1953 7.125 0.50391 0.67187 0.92188 1.0078 1.2578 1.0078 0.67188 0 1.1992-0.64453 1.5898-1.9336 0.28125-1 0.42187-1.8945 0.42187-2.6797 0-1.7305-0.42187-3.4922-1.2578-5.2812-2.0117-3.3516-4.668-8.1289-7.9648-14.332-0.94922-2.0703-1.4258-3.8281-1.4258-5.2812 0-2.0117 0.86719-2.9609 2.6016-2.8477 3.1836 0.16407 6.8711 4.0234 11.062 11.566 0.22265 0.39062 0.47656 0.58594 0.7539 0.58594 0.33594 0.0547 0.58985-0.11328 0.75391-0.50391 0.61719-1.3398 0.36719-3.0977-0.75391-5.2773-1.2305-2.4609-3.0273-4.5703-5.4062-6.332-2.375-1.7617-4.7617-2.6406-7.1641-2.6406-4.6953 0-7.043 2.207-7.043 6.625 0 0.55859 0.0274 1.1172 0.0859 1.6758z"/>
   <path transform="matrix(1,0,0,-1,0,842)" d="m305.28 720.33c1.2266 2.293 2.2344 3.9961 3.0156 5.1172 0.44532 0.61328 0.86719 0.91797 1.2578 0.91797 0.61328 0 1.1172-0.64063 1.5078-1.9258 0.28125-0.94922 0.41797-1.8164 0.41797-2.5977 0-1.7344-0.41797-3.4648-1.2539-5.1992-2.0117-3.3516-4.6953-8.1836-8.0469-14.5-1.0078-2.2891-1.5078-4.1641-1.5078-5.6172 0-1.7305 0.72266-2.5664 2.1758-2.5156 1.6211 0.11328 3.5234 1.3711 5.7031 3.7734 1.8984 2.125 3.6602 4.75 5.2812 7.8789 0.5 0.94922 0.94531 0.98047 1.3398 0.0859 0.55469-1.2305 0.3086-2.9648-0.75781-5.1953-1.1133-2.4609-2.8203-4.5586-5.1094-6.2891-2.4024-1.9023-4.7227-2.7969-6.9609-2.6836-4.582 0.28125-6.8711 2.5703-6.8711 6.875-3.4102-4.3594-6.9024-6.5391-10.477-6.5391-2.1836 0-3.8711 0.7539-5.0703 2.2656-1.2031 1.5078-1.8047 3.4922-1.8047 5.9492 0 4.0781 1.4805 8.2695 4.4453 12.574 3.1836 4.6367 6.4531 8.1562 9.8047 10.562 2.8477 2.0664 5.4492 3.0977 7.793 3.0977 1.7344 0 3.0469-0.57032 3.9414-1.7148 0.89453-1.1484 1.2891-2.5859 1.1758-4.3203zm-7.293-12.988c3.2969 5.6992 4.9453 9.8906 4.9453 12.57 0 1.2852-0.44922 1.9844-1.3438 2.0977-1.3945 0.10937-3.3789-1.0352-5.9492-3.4414-2.7383-2.5117-5.2266-5.5859-7.4609-9.2188-2.793-4.4688-4.1875-8.3516-4.1875-11.648 0-1.957 0.64062-2.9609 1.9258-3.0195 3.1289-0.0547 7.1523 4.1641 12.07 12.66z"/>
   <path transform="matrix(1,0,0,-1,0,842)" d="m326.08 719.58c2.5156 0.33594 5.3945 1.6211 8.6367 3.8555 1.0039 0.67188 1.7578 0.72657 2.2617 0.17188 1.5078-1.7344 2.2617-3.4961 2.2617-5.2812 0-1.1172-0.35937-2.0977-1.0898-2.9375-5.082-5.7539-8.1562-10.391-9.2188-13.914-0.39063-1.2852-0.58594-2.4844-0.58594-3.6016 0-2.6836 0.89453-4.0508 2.6797-4.1094 1.5664-0.0547 3.2969 1.0039 5.1992 3.1836 1.7305 2.0703 3.3242 4.6992 4.7773 7.8828 0.39453 0.89454 0.78125 0.92188 1.1758 0.082 0.61328-1.2852 0.47266-3.0195-0.42187-5.1953-0.94922-2.4023-2.5-4.4023-4.6484-5.9922-2.1562-1.5977-4.3477-2.3359-6.582-2.2227-2.2344 0.10937-3.9805 0.87891-5.2422 2.3047-1.2539 1.4258-1.8828 3.2539-1.8828 5.4883 0 4.8047 3.6055 11.348 10.812 19.613-3.2383-2.1211-6.5117-3.1836-9.8086-3.1836-2.3438-4.0234-4.6953-8.043-7.0391-12.07-3.1836-5.7539-5.1133-10.199-5.7852-13.324-0.22265-1.0078-0.69531-1.1484-1.4258-0.42187-1.2266 1.2852-1.8438 2.8789-1.8438 4.7773 0 1.7891 0.54688 3.7305 1.6367 5.8281 1.0859 2.0938 4.6524 7.4453 10.688 16.051-1.0625 0.67187-1.5938 1.7031-1.5938 3.1016 0 1.957 0.89453 4.1367 2.6836 6.5391 1.7891 2.2344 3.2969 3.3789 4.5273 3.4336 1.1172 0.0586 1.6719-0.78125 1.6719-2.5117 0-1.9023-0.61328-4.4141-1.8438-7.5469z"/>
   <path transform="matrix(1,0,0,-1,0,842)" d="m359.6 731.57c0.38671-0.78516 0.58593-1.5938 0.58593-2.4336 0-2.5664-0.95312-3.8555-2.8516-3.8555-1.2266 0-2.2344 0.64453-3.0156 1.9297-0.5625 0.94922-0.83985 1.9258-0.83985 2.9336 0 0.89454 0.25 1.7734 0.75391 2.6406 0.5039 0.86719 1.1719 1.3008 2.0117 1.3008 1.3984 0 2.5156-0.83984 3.3555-2.5156zm-13.668-39.73c-4.4141 0-6.6172 2.2617-6.6172 6.7891 0 1.6172 0.33203 3.4375 1.0039 5.4492 1.0039 2.9023 2.6523 6.5078 4.9453 10.812 2.1797 4.0195 4.1055 7.207 5.7852 9.5547 0.44532 0.61328 0.86329 0.92187 1.2539 0.92187 0.61719 0 1.1172-0.61328 1.5117-1.8438 0.27734-0.89453 0.41797-1.7344 0.41797-2.5156 0-1.6758-0.41797-3.4102-1.2578-5.1953-1.7891-3.1289-4.1328-7.6562-7.043-13.582-0.89453-2.1797-1.3398-3.9648-1.3398-5.3633 0-1.7891 0.72657-2.6562 2.1836-2.5977 1.7852 0.11329 3.7695 1.3438 5.9453 3.6875 1.9609 2.1797 3.6094 4.7812 4.9453 7.7969 0.44922 0.83984 0.89453 0.83984 1.3438 0 0.67188-1.2852 0.47656-3.0156-0.58594-5.1953-1.2305-2.5742-3.0195-4.668-5.3672-6.2891-2.3438-1.6211-4.7188-2.4297-7.125-2.4297z"/>
   <path transform="matrix(1,0,0,-1,0,842)" d="m373.01 699.88c-4.1367-5.5352-8.1562-8.1602-12.07-7.8828-3.5195 0.22656-5.2812 2.3789-5.2812 6.457 0 1.7305 0.33594 3.6328 1.0039 5.6992 2.1836 6.4844 6.0352 13.609 11.57 21.375 0.67187 0.94922 1.3945 0.97656 2.1797 0.082 0.72656-1.1172 1.0898-2.3711 1.0898-3.7695 0-2.1797-0.89453-4.6953-2.6836-7.5469-2.5703-4.0781-4.75-8.1836-6.5391-12.32-0.78125-1.8438-1.1719-3.4375-1.1719-4.7773 0-1.5664 0.53125-2.4024 1.5898-2.5156 2.7969-0.22265 6.9297 4.082 12.406 12.91 1.7344 2.793 3.8008 6.3984 6.2031 10.812 1.9023 3.5195 3.3008 5.8945 4.1953 7.125 0.5 0.67187 0.91797 1.0078 1.2539 1.0078 0.67187 0 1.1992-0.64453 1.5938-1.9336 0.27734-1 0.41796-1.8945 0.41796-2.6797 0-1.7305-0.41796-3.4922-1.2578-5.2812-2.0078-3.3516-4.6641-8.1289-7.9609-14.332-0.94921-2.0703-1.4258-3.8281-1.4258-5.2812 0-2.0117 0.86719-2.9609 2.5977-2.8477 3.1836 0.16407 6.875 4.0234 11.062 11.566 0.22656 0.39062 0.47656 0.58594 0.75781 0.58594 0.33594 0.0547 0.58594-0.11328 0.75391-0.50391 0.61328-1.3398 0.36328-3.0977-0.75391-5.2773-1.2305-2.4609-3.0312-4.5703-5.4062-6.332-2.375-1.7617-4.7656-2.6406-7.168-2.6406-4.6914 0-7.043 2.207-7.043 6.625 0 0.55859 0.0312 1.1172 0.0859 1.6758z"/>
   <path transform="matrix(1,0,0,-1,0,842)" d="m393.38 706.84c4.3008 5.8711 7.5156 10.676 9.6367 14.422 0.33594 2.793 1.3438 4.9453 3.0195 6.4531 1.2266 1.1172 2.375 1.6758 3.4336 1.6758 1.0078 0 1.5117-0.47656 1.5117-1.4258 0-0.44532-0.66797-1.8711-2.0117-4.2734-0.11328-1.1172-0.16797-2.2891-0.16797-3.5195 0-1.957 0.19531-4.8633 0.58594-8.7188 0.28125-3.5234 0.39062-6.1211 0.33594-7.7969-0.22266-4.3008-1.4805-7.2383-3.7734-8.8008 4.6953 1.7344 8.4375 5.6172 11.234 11.652 0.22266 0.44531 0.5 0.64062 0.83594 0.58593 0.33594 0 0.58594-0.19531 0.75391-0.58593 0.55859-1.2305 0.16797-3.0742-1.1719-5.5312-3.2383-5.8711-8.1875-8.9414-14.836-9.2227-5.8672-0.22266-10.004 1.875-12.406 6.2891-0.89453 1.6211-1.3398 3.4336-1.3398 5.4492 0 2.7891 0.80859 4.8594 2.4297 6.1992 0.39062 0.28125 0.69922 0.42187 0.92187 0.42187 0.44922 0 0.72657-0.44921 0.83985-1.3398 0.0547-0.67187 0.10937-1.3164 0.16797-1.9336zm9.4726 9.0547c-1.957-3.5781-4.8633-8.1016-8.7188-13.578 1.2812-5.0859 3.1562-7.6289 5.6172-7.6289 2.4023 0 3.6016 3.4375 3.6016 10.312 0 1.0586-0.16797 4.6914-0.5 10.895z"/>
  </g>
  <path d="m357.61 117.74c-3.0039-0.25391-4.3633-1.9336-4.6836-3.9258-0.32032-1.9922 0.14843-4.5781 1.7109-6.2617 1.8047-2.1484 2.8047-5.6797 2.9727-6.5742" fill="#211e1e" fill-rule="evenodd"/>
  <path d="m357.61 117.74c3.0039-0.25391 4.3672-1.9336 4.6836-3.9258 0.32032-1.9922-0.14843-4.5781-1.707-6.2617-1.8086-2.1484-2.8047-5.6797-2.9766-6.5742" fill="#211e1e" fill-rule="evenodd"/>
 </g>
</svg>
