<?xml version="1.0" encoding="UTF-8" standalone="no"?>
<svg
   xmlns:dc="http://purl.org/dc/elements/1.1/"
   xmlns:cc="http://creativecommons.org/ns#"
   xmlns:rdf="http://www.w3.org/1999/02/22-rdf-syntax-ns#"
   xmlns:svg="http://www.w3.org/2000/svg"
   xmlns="http://www.w3.org/2000/svg"
   xmlns:sodipodi="http://sodipodi.sourceforge.net/DTD/sodipodi-0.dtd"
   xmlns:inkscape="http://www.inkscape.org/namespaces/inkscape"
   version="1.1"
   id="svg901"
   xml:space="preserve"
   width="300"
   height="58.385536"
   viewBox="0 0 300 58.385537"
   sodipodi:docname="300Moleskine.svg"
   inkscape:version="1.0.2 (1.0.2+r75+1)"
   inkscape:export-filename="/home/dora/Pulpit/strona uskpoland/moleskine.png"
   inkscape:export-xdpi="96"
   inkscape:export-ydpi="96"><metadata
     id="metadata907"><rdf:RDF><cc:Work
         rdf:about=""><dc:format>image/svg+xml</dc:format><dc:type
           rdf:resource="http://purl.org/dc/dcmitype/StillImage" /><dc:title /></cc:Work></rdf:RDF></metadata><defs
     id="defs905"><clipPath
       clipPathUnits="userSpaceOnUse"
       id="clipPath917"><path
         d="M 0,708.661 H 1417.32 V 0 H 0 Z"
         id="path915" /></clipPath></defs><sodipodi:namedview
     pagecolor="#ffffff"
     bordercolor="#666666"
     borderopacity="1"
     objecttolerance="10"
     gridtolerance="10"
     guidetolerance="10"
     inkscape:pageopacity="0"
     inkscape:pageshadow="2"
     inkscape:window-width="1920"
     inkscape:window-height="1031"
     id="namedview903"
     showgrid="false"
     fit-margin-left="5"
     fit-margin-right="5"
     fit-margin-top="15"
     fit-margin-bottom="15"
     inkscape:zoom="0.6672805"
     inkscape:cx="383.24264"
     inkscape:cy="164.28719"
     inkscape:window-x="0"
     inkscape:window-y="0"
     inkscape:window-maximized="1"
     inkscape:current-layer="g909"
     inkscape:document-rotation="0" /><g
     id="g909"
     inkscape:groupmode="layer"
     inkscape:label="Moleskine_Black_Logo"
     transform="matrix(1.3333333,0,0,-1.3333333,-222.95466,551.54025)"><g
       id="g911"
       transform="matrix(0.20571218,0,0,0.20571218,135.79621,319.62555)"><g
         id="g913"
         clip-path="url(#clipPath917)"><g
           id="g919"
           transform="translate(303.71,400.9351)"><path
             d="m 0,0 v -5.586 c -3.381,0 -6.027,-1.176 -6.027,-4.705 v -79.234 c 0,-3.528 2.646,-5.439 6.027,-5.439 v -5.586 h -35.281 v 5.586 c 5.439,0 8.232,1.911 8.232,5.439 v 57.331 h -1.764 l -37.338,-68.356 h -2.794 l -36.456,68.65 h -1.765 v -57.625 c 0,-3.528 2.646,-5.439 8.38,-5.439 v -5.586 h -33.958 v 5.586 c 3.381,0 6.027,1.911 6.027,5.439 v 79.234 c 0,3.529 -2.646,4.705 -6.027,4.705 V 0 h 23.961 c 5.734,0 10.144,-3.087 12.643,-7.645 l 29.106,-56.154 h 0.735 l 29.695,56.154 C -34.252,-3.087 -29.842,0 -24.109,0 Z"
             style="fill:#231f20;fill-opacity:1;fill-rule:nonzero;stroke:none"
             id="path921" /></g><g
           id="g923"
           transform="translate(342.9697,350.6592)"><path
             d="m 0,0 c 0,-23.078 17.935,-33.075 38.956,-33.075 21.022,0 38.956,9.997 38.956,33.075 0,23.08 -17.934,33.076 -38.956,33.076 C 17.935,33.076 0,23.08 0,0 m 100.109,0 c 0,-37.044 -31.164,-51.744 -61.153,-51.744 -29.989,0 -61.153,14.7 -61.153,51.744 0,37.045 31.164,51.746 61.153,51.746 29.989,0 61.153,-14.701 61.153,-51.746"
             style="fill:#231f20;fill-opacity:1;fill-rule:nonzero;stroke:none"
             id="path925" /></g><g
           id="g927"
           transform="translate(480.1934,400.9351)"><path
             d="M 0,0 C 4.41,0 7.791,-3.528 7.791,-7.938 V -82.911 H 61.3 c 6.174,0 10.584,2.942 10.584,7.94 h 5.587 v -25.579 h -97.464 v 5.586 c 3.382,0 6.028,1.911 6.028,5.439 v 79.234 c 0,3.529 -2.646,4.705 -6.028,4.705 V 0 Z"
             style="fill:#231f20;fill-opacity:1;fill-rule:nonzero;stroke:none"
             id="path929" /></g><g
           id="g931"
           transform="translate(650.6978,343.751)"><path
             d="M 0,0 H -50.716 V -25.727 H 5.88 c 8.673,0 11.613,2.354 11.613,6.763 h 5.586 V -43.366 H -78.5 v 5.586 c 3.381,0 6.027,1.911 6.027,5.439 v 79.235 c 0,3.528 -2.646,4.704 -6.027,4.704 v 5.586 H 21.903 V 33.811 h -5.439 c 0,4.41 -3.087,6.909 -11.76,6.909 h -55.42 V 16.464 H 0 Z"
             style="fill:#231f20;fill-opacity:1;fill-rule:nonzero;stroke:none"
             id="path933" /></g><g
           id="g935"
           transform="translate(738.8359,316.8486)"><path
             d="m 0,0 c 8.379,0 30.871,0.735 30.871,12.201 0,11.612 -13.377,9.996 -26.314,11.612 L -5.88,25.139 c -21.021,2.793 -40.867,5.438 -40.867,28.077 0,18.228 14.701,32.046 46.601,32.046 27.489,0 50.274,-12.936 50.274,-12.936 L 38.809,51.011 34.398,52.333 c 0.295,2.793 0,5.292 -3.233,7.792 -7.644,6.174 -25.138,8.673 -30.87,8.673 -14.407,0 -25.432,-4.263 -25.432,-12.642 0,-7.203 5.145,-9.114 14.112,-10.29 L 6.909,43.513 c 21.757,-2.793 45.718,-4.116 45.718,-28.224 0,-27.931 -30.43,-32.93 -52.186,-32.93 -30.723,0 -48.805,13.231 -48.805,13.231 l 7.938,20.287 4.116,-1.176 c 0.294,-2.94 0.588,-5.586 4.264,-7.498 C -24.402,3.234 -8.525,0 0,0"
             style="fill:#231f20;fill-opacity:1;fill-rule:nonzero;stroke:none"
             id="path937" /></g><g
           id="g939"
           transform="translate(836.6924,350.0713)"><path
             d="m 0,0 54.832,50.864 h 25.726 v -5.587 c -3.97,0 -6.322,-1.91 -9.704,-4.557 L 36.456,9.115 66.592,-29.253 c 7.644,-9.997 9.262,-12.643 17.199,-14.848 v -5.586 H 64.534 c -6.321,0 -10.879,3.234 -14.112,7.498 L 21.168,-4.851 0,-24.255 v -14.406 c 0,-3.528 2.646,-5.44 8.379,-5.44 v -5.586 h -36.31 v 5.586 c 3.381,0 6.027,1.912 6.027,5.44 v 79.234 c 0,3.529 -2.646,4.704 -6.027,4.704 v 5.587 H -7.938 C -3.528,50.864 0,47.335 0,42.925 Z"
             style="fill:#231f20;fill-opacity:1;fill-rule:nonzero;stroke:none"
             id="path941" /></g><g
           id="g943"
           transform="translate(962.3457,311.4102)"><path
             d="m 0,0 c 0,-3.528 2.646,-5.439 6.027,-5.439 v -5.586 h -33.958 v 5.586 c 3.381,0 6.174,1.911 6.174,5.439 v 79.234 c 0,3.529 -2.793,4.704 -6.174,4.704 v 5.587 h 20.14 C -3.528,89.525 0,85.997 0,81.586 Z"
             style="fill:#231f20;fill-opacity:1;fill-rule:nonzero;stroke:none"
             id="path945" /></g><g
           id="g947"
           transform="translate(1013.9707,370.6523)"><path
             d="m 0,0 v -59.242 c 0,-3.529 2.646,-5.44 8.379,-5.44 v -5.586 h -34.84 v 5.586 c 3.528,0 6.174,1.911 6.174,5.44 v 79.234 c 0,3.529 -2.646,4.704 -6.174,4.704 v 5.587 h 17.053 c 7.497,0 12.935,-3.235 17.638,-7.939 L 65.857,-37.339 V 19.11 c 0,3.676 -2.646,5.586 -8.379,5.586 v 5.587 h 34.838 v -5.587 c -3.526,0 -6.172,-1.175 -6.172,-4.704 v -79.234 c 0,-3.529 2.646,-5.44 6.172,-5.44 v -5.586 H 77.323 c -7.349,0 -12.936,3.234 -17.493,7.791 z"
             style="fill:#231f20;fill-opacity:1;fill-rule:nonzero;stroke:none"
             id="path949" /></g><g
           id="g951"
           transform="translate(1205.1885,343.751)"><path
             d="M 0,0 H -50.716 V -25.727 H 5.881 c 8.673,0 11.613,2.354 11.613,6.763 H 23.08 V -43.366 H -78.499 v 5.586 c 3.381,0 6.026,1.911 6.026,5.439 v 79.235 c 0,3.528 -2.645,4.704 -6.026,4.704 v 5.586 H 21.903 V 33.811 h -5.438 c 0,4.41 -3.087,6.909 -11.761,6.909 h -55.42 V 16.464 H 0 Z"
             style="fill:#231f20;fill-opacity:1;fill-rule:nonzero;stroke:none"
             id="path953" /></g></g></g></g></svg>
