<?xml version="1.0" encoding="UTF-8"?>
<svg width="79.375mm" height="24.49mm" version="1.1" viewBox="0 0 79.375 24.49" xmlns="http://www.w3.org/2000/svg" xmlns:cc="http://creativecommons.org/ns#" xmlns:dc="http://purl.org/dc/elements/1.1/" xmlns:rdf="http://www.w3.org/1999/02/22-rdf-syntax-ns#">
 <metadata>
  <rdf:RDF>
   <cc:Work rdf:about="">
    <dc:format>image/svg+xml</dc:format>
    <dc:type rdf:resource="http://purl.org/dc/dcmitype/StillImage"/>
    <dc:title/>
   </cc:Work>
  </rdf:RDF>
 </metadata>
 <g transform="matrix(1.0787 0 0 1.0787 -3.0598 -1.023)" stroke-width=".097331">
  <path d="m33.546 23.522-1.168-0.07405-4.5746-0.2208-3.6986-0.28699-3.8932-0.38909-3.7959-0.49006-3.0173-0.49141-3.5039-0.68153-3.1146-0.75894-2.3063-0.6993-1.637-0.59233 0.02501-6.5847 0.02501-6.5847 3.2892-1.1012 4.0106-0.98359 3.5447-0.68259 4.5338-0.67873 3.4066-0.39339 3.1146-0.29222 4.1852-0.29171 4.4772-0.248h12.361l4.4772 0.248 4.1852 0.29171 3.1146 0.29222 3.4066 0.39339 4.5338 0.67873 3.5447 0.68259 4.0106 0.98359 3.2892 1.1012 0.05002 13.169-1.637 0.59233-2.3063 0.6993-3.1146 0.75894-3.5039 0.68153-3.0173 0.49141-3.7959 0.49006-3.8932 0.38909-3.6986 0.28699-4.5746 0.21928-2.4333 0.1559-9.7331-0.0062-1.168-0.07405zm3.5471-4.7386-0.0055-0.073-1.3184-0.62829-1.6957-1.5865-1.1624-1.4225-1.4577-2.157v-0.1915h0.29846l0.95477-0.48382 0.52153-0.68376 0.26064-0.73038 0.0043-0.44466 0.0043-0.44466-0.15337-0.51627-0.15332-0.51628-0.93394-0.93394-1.3105-0.40478h-3.5826l0.02526 4.7449 0.02526 4.7449 1.606 0.05654v-5.0691l0.146 0.0066 1.0683 1.5994 1.9756 2.6341 1.3983 1.4122 1.0344 0.68679 1.1419 0.4695 1.314 0.0046-0.0055-0.073zm-8.0081-6.9024-0.06489-0.06489v-3.4016l1.6182 0.10096 0.60318 0.31191 0.39521 0.50243 0.11314 0.50557 0.11314 0.50557-0.11716 0.43508-0.11716 0.43508-0.32342 0.30502-0.32342 0.30502-0.62347 0.1247h-1.2085zm-15.211 5.1226 0.67062-0.09694 1.2221-0.58325 0.90885-1.0109 0.47134-0.93015 0.14518-0.5574 0.14519-0.5574v-1.6041l-0.11001-0.51578-0.11001-0.51578-0.45086-1.0226-1.0297-1.0887-0.79693-0.46703-1.1524-0.4187-3.5526-0.090204v9.43l0.12978 0.12978 2.8388-0.0038 0.67062-0.09694zm-1.9846-4.7168v-3.8717l1.5086 0.12986 1.2057 0.5851 0.59906 0.75638 0.19214 0.43436 0.19214 0.43436 0.23295 1.4984-0.11321 0.77672-0.11321 0.77672-0.51861 1.1556-0.86137 0.79398-0.71823 0.30097-1.606 0.10094zm13.286 4.3309 0.24661-0.48666h-3.9938v-3.6012h3.1647l0.52911-0.87598h-3.6986l0.02674-1.5816 0.02674-1.5816 3.3626-0.097331 0.49296-0.82731-5.5102-1e-6 0.0234 4.7449 0.02339 4.7449 9.73e-4 0.02433 9.74e-4 0.02433h5.0579l0.24661-0.48665zm13.766-1.533 0.69716-2.0196 0.72056-2.0915 0.09733 0.0034 2.3193 6.1372 0.68075-0.0585 1.5437-4.4772 1.7269-5.0125-1.0148 0.0012263-2.0926 6.0883v0.23701h-0.1573l-0.90892-2.409-0.90892-2.4089-0.57251-1.5086h-0.54215l-0.56075 1.6303-0.56075 1.6303-0.96421 2.8713h-0.1777v-0.26156l-1.5585-4.459-0.5052-1.4113h-1.7012l1.1232 3.4552 1.9705 6.0832h0.64899l0.69716-2.0196zm14.912 1.5321 0.25709-0.48584h-3.9694v-3.6012h3.1121l0.4891-0.77478v-0.1012h-3.6012v-3.2119h3.3705l0.18582-0.36499 0.18582-0.36499 0.06996-0.146h-5.4668v9.5384l5.1099-0.001557 0.25709-0.48584zm3.3186-2.8787 0.02559-3.3662 4.8421 6.7324h0.65714v-9.5384h-0.97331v5.8399h-0.14784l-0.13538-0.21899-0.13538-0.219-3.8831-5.4019h-1.3435v9.5384h1.0681zm11.096-0.94068 0.02535-4.3069 1.7652-0.0555 0.42226-0.86914h-5.7887v0.87598h1.9953v8.6624h1.5553z" fill="#f9c6b9"/>
  <path d="m35.784 23.581-0.09733-0.04074-5.7425-0.20995-4.4772-0.29332-5.1585-0.49271-3.6986-0.47848-3.6986-0.59828-3.7559-0.76448-3.0572-0.78422-3.2606-1.0831v-13.104l1.022-0.38006 2.2386-0.72159 3.3092-0.84968 2.8358-0.58412 3.4907-0.58188 2.7253-0.39153 3.4066-0.3916 4.3799-0.38966 5.0612-0.29629 5.6452-0.1964h5.3532l5.6452 0.1964 5.0612 0.29629 4.3799 0.38966 3.4066 0.3916 2.7253 0.39153 3.4907 0.58188 2.8358 0.58412 3.3092 0.84968 2.2386 0.72159 1.022 0.38006v13.104l-3.2606 1.0831-3.0572 0.78422-3.7559 0.76448-3.6986 0.59828-3.6986 0.47848-5.1585 0.49291-4.5746 0.29662-4.6719 0.21346-8.6624 0.07446zm1.2288-4.7239h0.1825v-0.17032l-0.53532-0.10818-1.168-0.75682-1.2197-1.1297-1.2867-1.5426-1.5263-2.2588 0.1022-0.16538h0.28826l0.37499-0.1913 0.37499-0.1913 0.67922-0.79351 0.24403-0.87158-0.04891-0.6093-0.048898-0.60932-0.39813-0.77292-0.64971-0.61086-0.58398-0.29338-0.81802-0.22007-3.5619-0.00894-0.0505 9.5524h1.6532l0.0519-5.1099 0.67504 0.97331 0.67503 0.97331 1.1653 1.5573 1.3494 1.6183 1.2938 1.0689 1.168 0.5757 0.43799 0.08895 0.43799 0.08896 0.55965-0.08284zm-7.823-6.9719-0.17033-0.0502v-3.295h1.609l0.67828 0.36092 0.21739 0.37919 0.21739 0.37919 0.0016 0.5855 0.0016 0.5855-0.36267 0.67828-0.6324 0.37129-0.69476 0.02775-0.69476 0.02774zm-15.148 5.1221 0.52427-0.09784 1.2014-0.58765 0.97463-1.0664 0.49388-1.044 0.22608-0.95086-9e-3 -1.8493-0.20111-0.63968-0.20106-0.63967-0.75116-1.1622-0.76034-0.59895-1.0187-0.51371-1.1226-0.29314-3.1146-0.01484-0.0505 9.556h3.2845zm-2.1523-4.6575v-3.8098h1.23l1.0415 0.3093 1.0975 1.102 0.41471 1.3626 0.11266 0.99499-0.09749 0.68742-0.09749 0.68742-0.39368 1.0522-0.34238 0.4-0.34239 0.4-1.0551 0.5162-1.5678 0.10746zm13.282 4.3331 0.24743-0.42221v-0.12486l-3.9419-0.0527v-3.5039l3.1475-0.05342 0.50237-0.85723v-0.11134h-3.6986v-3.0172h3.4033l0.24497-0.48342 0.24497-0.48342 4e-6 -0.055136-5.4992 0.042439-0.0505 9.5447h5.1522zm14.146-2.6194 1.0292-2.9929 0.10946 0.001362 1.535 4.0378 0.38825 1.0028 0.38825 1.0028 0.35287-0.02948 0.35287-0.02945 3.2453-9.3438 0.0154-0.19466-1.0221 0.021381-2.1261 6.2078-0.0319 0.04055-0.03191 0.04055-0.09716-0.09716-2.2311-5.9211-0.1653-0.27671-0.42939-0.031634-0.16558 0.21102-1.1973 3.6012-0.85535 2.4333-0.10494-0.29199-1.9799-5.7425-0.07435-0.081278-0.07436-0.081278-1.6792-0.032106 0.07276 0.19466 2.971 9.2464 0.09118 0.15666 0.68526-0.05934zm14.561 2.5549 0.26487-0.48666h-4.0027v-3.6012l3.1633-0.001557 0.24333-0.41291 0.24333-0.41291 0.06488-0.146h-3.7148v-3.0127l3.3519-0.053262 0.22038-0.38932 0.22038-0.38932 0.0032-0.19466h-5.4505v9.5871h5.1276l0.26487-0.48666zm3.27-2.8226v-3.3092h0.15269l0.16274 0.26766 0.16274 0.26766 4.3583 6.0345 0.81056 0.05994-0.02525-4.7878-0.02525-4.7878-1.0331 2.62e-5 0.0083 2.8932 0.0083 2.8932-0.1907-0.06668-1.9579-2.7253-1.9578-2.7253-0.25719-0.26332-1.2871-0.028671 1.06e-4 9.5871h1.0706zm11.193-0.96952v-4.2788l1.6977-0.056245 0.44038-0.77865 0.0032-0.19466-5.7912 0.042748v0.93056l1.9953 0.055476v8.5583h1.6546v-4.2788z" fill="#f6a59f"/>
  <path d="m36.411 23.59-0.04285-0.04069-3.8932-0.12846-5.4505-0.28445-3.6012-0.2914-3.6986-0.39181-3.0173-0.39363-4.0879-0.66312-3.4066-0.69819-3.4066-0.88201-2.6096-0.8714-0.359-0.19213v-13.014l1.9953-0.70443 1.6546-0.49303 3.0173-0.75839 2.3359-0.48694 2.7253-0.48979 3.9906-0.58135 3.5039-0.39762 3.2119-0.2913 4.3799-0.29052 5.0612-0.23603h9.8304l5.0612 0.23603 4.3799 0.29052 3.2119 0.2913 3.5039 0.39762 3.9906 0.58135 2.7253 0.48979 2.3359 0.48694 3.0173 0.75839 1.6546 0.49303 1.9953 0.70443v13.014l-0.359 0.19214-2.6096 0.8714-3.4066 0.88201-3.4066 0.69819-4.0879 0.66165-2.2386 0.2999-3.4066 0.38636-4.5746 0.38701-5.7425 0.291-2.5306 0.11982-7.6034 0.08852zm0.48031-4.6966 0.30416-0.06083v-0.15486l-0.54878-0.12054-1.1545-0.75547-1.1956-1.0833-1.4974-1.8428-1.3361-2.0022 1.1092-0.51208 0.62278-0.65816 0.30186-0.72373-9.73e-4 -0.66011-9.73e-4 -0.66011-0.2284-0.48665-0.2284-0.48665-0.56178-0.55594-0.90436-0.45827-0.61921-0.10048-0.61916-0.10048-2.9686-0.0014705v9.6358h1.6514l0.02595-2.5501 0.02595-2.5501 1.8285 2.6183 0.63385 0.8156 0.63385 0.81561 1.1771 1.2584 1.1772 0.83321 0.68132 0.34792 0.87598 0.24311 0.51099 0.0174 0.30416-0.06083zm-7.604-7.0111-0.26766-0.04615v-3.2963l1.5086 0.00428 0.79926 0.36297 0.41738 0.86218v1.0313l-0.2106 0.37472-0.2106 0.37472-0.67373 0.31971-1.095 0.0587-0.26766-0.04615zm-15.14 5.1142 0.51578-0.10848 1.0046-0.47026 0.80682-0.78299 0.58128-0.91439 0.41953-1.3626 5e-3 -1.752-0.1324-0.53532-0.13238-0.53532-0.57576-1.1506-1.0034-1.002-1.0961-0.53546-1.0451-0.29373-3.2606-0.111v9.6627h3.397zm-2.1933-0.92971-0.06489-0.06489v-7.4864l1.606 0.088512 0.97331 0.5025 0.62211 0.65003 0.54586 1.168v2.6279l-0.18536 0.48665-0.18536 0.48665-0.57574 0.84544-0.86325 0.54746-1.2235 0.21306h-0.58426zm13.25 0.5976 0.21406-0.44059 5.4e-5 -0.0704 5.3e-5 -0.07039h-3.942v-3.5039l3.1579-0.05346 0.49205-0.83962v-0.1289h-3.6986v-3.0173h3.4033l0.24497-0.48342 0.24497-0.48342v-0.1038h-5.5479v9.6358h5.2171zm14.123-2.6006 1.0317-2.9925 0.09733 0.0036 2.2654 5.9815 0.75188 0.05614 1.6331-4.7486 1.6331-4.7486-0.0056-0.146h-0.98324l-0.12788 0.31633-0.12792 0.31633-1.9032 5.5479-0.13078 0.14876-1.8175-4.8206-0.28583-0.75431-0.28582-0.75431h-0.54044l-1.127 3.2606-0.96591 2.8877-0.14688-0.16246-1.9558-5.6452-0.06717-0.17033-0.06716-0.17033h-1.7442l0.1328 0.43799 2.9167 9.0518 0.09634 0.15666 0.69242-0.05934zm14.559 2.5578 0.24497-0.48342 1.06e-4 -0.05514h-3.942l-0.02653-1.7763-0.02653-1.7763 3.1676-0.001557 0.24333-0.41291 0.24333-0.41291 0.06488-0.146h-3.7148v-3.0173h3.3678l0.47228-0.92464 0.03469-0.072998 0.03469-0.07294h-5.5641v9.6358h5.1553zm3.2622-2.8453v-3.3287l0.21231 0.21231 4.6079 6.3965 0.82686 0.05994-0.0505-9.5984h-1.0706v5.7912l-0.09733-0.0044-4.1852-5.8348-1.314-7.948e-4v9.6358h1.0706zm11.193-0.95005v-4.2788l1.6911-0.056245 0.26611-0.43799 0.26612-0.43799 0.0076-0.072998 0.0077-0.072998h-5.9372v1.0706h2.0439v8.5651h1.6546z" fill="#f48a7b"/>
  <path d="m36.411 23.59-0.04285-0.04069-3.8932-0.12846-5.4505-0.28445-3.6012-0.2914-3.6986-0.39181-3.0173-0.39363-4.0879-0.66312-3.4066-0.69819-3.4066-0.88201-2.6096-0.8714-0.359-0.19213v-13.014l1.9953-0.70443 1.6546-0.49303 3.0173-0.75839 2.3359-0.48694 2.7253-0.48979 3.9906-0.58135 3.5039-0.39762 3.2119-0.2913 4.3799-0.29052 5.0612-0.23603h9.8304l5.0612 0.23603 4.3799 0.29052 3.2119 0.2913 3.5039 0.39762 3.9906 0.58135 2.7253 0.48979 2.3359 0.48694 3.0173 0.75839 1.6546 0.49303 1.9953 0.70443v13.014l-0.359 0.19214-2.6096 0.8714-3.4066 0.88201-3.4066 0.69819-4.0879 0.66165-2.2386 0.2999-3.4066 0.38636-4.5746 0.38701-5.7425 0.291-2.5306 0.11982-7.6034 0.08852zm0.57764-4.6966 0.30416-0.06083v-0.17032h-0.29846l-0.94665-0.4797-1.4808-1.1912-1.5729-1.8816-1.4779-2.1882 0.08288-0.0676 0.88663-0.41978 0.6514-0.63369 0.35565-0.77865 0.0021-0.7352 0.0021-0.7352-0.25089-0.50366-0.25098-0.50364-0.76904-0.60909-1.0163-0.40406-3.8446-0.08204v9.6561h1.6514l0.0519-5.0846 1.2533 1.824 1.9884 2.6279 1.4302 1.3833 1.165 0.74454 1.0736 0.34366 0.70565 0.0104 0.30416-0.06083zm-7.5066-7.0249-0.46232-0.030086v-3.318l1.738 0.068034 0.53724 0.40135 0.40135 0.53751v1.4308l-0.40967 0.55029-0.56364 0.31784-0.77865 0.07232zm-14.639 4.9555 0.56877-0.22652 0.98119-0.8065 0.75831-1.2615 0.14742-0.48857 0.14742-0.48857 0.05397-0.77865 0.05398-0.77865-0.15497-0.72768-0.15497-0.72768-0.52414-1.0752-1.0935-1.0967-0.96286-0.48759-1.0706-0.33575-3.3579-0.099799v9.6744l4.0392-0.06852zm-2.9534-4.5389v-3.7731l1.5678 0.10746 1.0551 0.5162 0.34239 0.4 0.34238 0.4 0.21634 0.54304 0.21634 0.54304v2.5306l-0.43038 1.08-0.57486 0.7817-1.0318 0.5622-1.7033 0.0819zm13.337 4.3576 0.23614-0.46232 0.06938-0.146h-4.0068v-3.4016l1.5317-0.02681 1.5317-0.0268 0.6368-0.97331-1.8501-0.02643-1.8501-0.02644v-3.013h3.2908l0.50515-0.86198v-0.20866h-5.5479v9.6358h5.2171zm13.559-0.94898 0.47071-1.3626 1.1335-3.3092 0.05842 0.146 0.05842 0.146 2.2014 5.7425 0.78072 0.05824 3.2453-9.402-5.1e-5 -0.12166-5.1e-5 -0.12166h-1.0473l-2.0974 6.1805-0.11704 0.13742-2.3622-6.2693h-0.62825l-2.0623 6.0743-0.0839-0.0839-2.0848-5.9904-1.7806-0.05597v0.14365l3.0644 9.5083 0.78019-0.05756zm15.101 0.92788 0.24497-0.48342v-0.1038h-3.9906v-3.4066h3.0979l0.60068-0.97623v-0.0944h-3.6986v-3.0173l3.3579-0.0028 0.53532-0.97061v-0.10021l-5.5517 0.05165 9.93e-4 4.7449 9.93e-4 4.7449 9.73e-4 0.04866 9.74e-4 0.04867h5.1553l0.24497-0.48342zm3.2652-2.8502-0.0078-3.2849h0.08096l4.7417 6.612 0.82731 0.0064v-9.6357h-1.168v5.8675l-2.1116-2.9338-2.1116-2.9338h-1.3246v9.6455l1.0815-0.05838-0.0078-3.2849zm11.19-0.94898v-4.2826h1.7132l0.47228-0.92464 0.06938-0.146h-5.9534v1.0706h1.9466v8.5651h1.752z" fill="#f37488"/>
  <path d="m37.78 23.602-0.04867-0.04937-4.6719-0.12818-4.1852-0.19241-4.1852-0.29399-3.9906-0.38691-3.1146-0.38834-3.8932-0.5957-2.5306-0.47589-3.0313-0.67671-2.8334-0.77688-2.4084-0.83532-0.025022-6.4912-0.025022-6.4912 0.5367-0.27407 2.7322-0.88993 3.0224-0.77785 3.3945-0.70004 3.4066-0.56947 3.6012-0.48338 3.6012-0.39236 5.0612-0.38774 3.9906-0.19691 3.5039-0.13928h7.8838l3.5039 0.13928 3.9906 0.19691 5.0612 0.38774 3.6012 0.39236 3.6012 0.48338 3.4066 0.56947 3.3945 0.70004 3.0224 0.77785 2.7322 0.88993 0.5367 0.27407-0.02502 6.4912-0.02502 6.4912-2.4084 0.83532-2.8334 0.77688-3.0313 0.67671-2.5306 0.47589-3.8932 0.5957-3.1146 0.38834-3.9906 0.38691-4.1852 0.29498-4.4772 0.19065-2.6279 0.10222-5.4505 0.12546zm-0.79081-4.7089 0.30416-0.06083v-0.17032h-0.29846l-0.94665-0.4797-1.4808-1.1912-1.5729-1.8816-1.4779-2.1882 0.08288-0.0676 0.88663-0.41978 0.6514-0.63369 0.35565-0.77865 0.0021-0.7352 0.0021-0.7352-0.25089-0.50366-0.25098-0.50364-0.76904-0.60909-1.0163-0.40406-3.8446-0.08204v9.6561h1.6514l0.0519-5.0846 1.2533 1.824 1.9884 2.6279 1.4302 1.3833 1.165 0.74454 1.0736 0.34366 0.70565 0.0104 0.30416-0.06083zm-7.5066-7.0249-0.46232-0.030086v-3.318l1.738 0.068034 0.53724 0.40135 0.40135 0.53751v1.4308l-0.40967 0.55029-0.56364 0.31784-0.77865 0.07232zm-14.639 4.9555 0.56877-0.22652 0.98119-0.8065 0.75831-1.2615 0.14742-0.48857 0.14742-0.48857 0.05397-0.77865 0.05398-0.77865-0.15497-0.72768-0.15497-0.72768-0.52414-1.0752-1.0935-1.0967-0.96286-0.48759-1.0706-0.33575-3.3579-0.099799v9.6744l4.0392-0.06852zm-2.9534-4.5389v-3.7731l1.5678 0.10746 1.0551 0.5162 0.34239 0.4 0.34238 0.4 0.21634 0.54304 0.21634 0.54304v2.5306l-0.43038 1.08-0.57486 0.7817-1.0318 0.5622-1.7033 0.0819zm13.337 4.3576 0.23614-0.46232 0.06938-0.146h-4.0068v-3.4016l1.5317-0.02681 1.5317-0.0268 0.6368-0.97331-1.8501-0.02643-1.8501-0.02644v-3.013h3.2908l0.50515-0.86198v-0.20866h-5.5479v9.6358h5.2171zm13.559-0.94898 0.47071-1.3626 1.1335-3.3092 0.05842 0.146 0.05842 0.146 2.2014 5.7425 0.78072 0.05824 3.2453-9.402-5.1e-5 -0.12166-5.1e-5 -0.12166h-1.0473l-2.0974 6.1805-0.11704 0.13742-2.3622-6.2693h-0.62825l-2.0623 6.0743-0.0839-0.0839-2.0848-5.9904-1.7806-0.05597v0.14365l3.0644 9.5083 0.78019-0.05756zm15.101 0.92788 0.24497-0.48342v-0.1038h-3.9906v-3.4066h3.0979l0.60068-0.97623v-0.0944h-3.6986v-3.0173l3.3579-0.0028 0.53532-0.97061v-0.10021l-5.5517 0.05165 9.93e-4 4.7449 9.93e-4 4.7449 9.73e-4 0.04866 9.74e-4 0.04867h5.1553l0.24497-0.48342zm3.2652-2.8502-0.0078-3.2849h0.08096l4.7417 6.612 0.82731 0.0064v-9.6357h-1.168v5.8675l-2.1116-2.9338-2.1116-2.9338h-1.3246v9.6455l1.0815-0.05838-0.0078-3.2849zm11.19-0.94898v-4.2826h1.7132l0.47228-0.92464 0.06938-0.146h-5.9534v1.0706h1.9466v8.5651h1.752z" fill="#f05f64"/>
  <path d="m33.594 23.423-2.2873-0.075201-3.7959-0.21673-3.6986-0.28594-3.7959-0.39062-3.7959-0.49314-4.5746-0.77193-3.9763-0.89133-2.6422-0.76392-2.0926-0.72585v-13.073l1.606-0.58018 2.3359-0.69731 3.2119-0.77044 2.4333-0.49201 3.5039-0.58802 3.6986-0.49801 4.6719-0.47056 4.0879-0.29666 4.3799-0.24635h13.529l4.3799 0.24635 4.0879 0.29666 4.6719 0.47056 3.6986 0.49801 3.5039 0.58802 2.4333 0.49201 3.2119 0.77044 2.3359 0.69731 1.606 0.58018v13.073l-2.0926 0.72585-2.6422 0.76392-3.9763 0.89133-4.5746 0.77193-3.7959 0.49294-3.6986 0.38291-3.8932 0.29836-3.5039 0.19938-5.8399 0.19184-6.4238-0.02858zm3.4796-4.5302 0.21899-0.05869v-0.15649l-0.59414-0.1305-1.4074-0.9413-1.7474-1.8149-1.091-1.46-0.93631-1.4487 0.2527-0.08424 0.98801-0.51614 0.64924-0.90386 0.2146-1.0376-0.1175-0.55868-0.1175-0.55867-0.61925-0.92535-1.0423-0.62212-0.96252-0.20642h-3.397v9.6358h1.7584l-0.02754-2.482-0.02754-2.482 0.09733 0.001752 0.3887 0.60321 0.3887 0.60321 1.9655 2.6488 1.0386 1.1468 0.54252 0.47595 0.54252 0.47595 0.87344 0.5137 0.97585 0.33744 0.48665 0.0018 0.48665 0.0019 0.219-0.05869zm-7.9568-8.6984v-1.6546h1.3214l0.86411 0.43799 0.39378 0.68132v1.2997l-0.20158 0.2748-0.20158 0.2748-0.33374 0.17018-0.33374 0.17018-1.5086 3.89e-4v-1.6546zm10.212 3.9675 1.03-2.9917 0.09733 0.001947 2.2653 5.9815 0.70821 0.06071 0.26658-0.64469 3.022-8.7598 0.06698-0.17033 0.06699-0.17033h-1.1676l-0.96469 2.7739-1.2254 3.5567-2.3652-6.282h-0.65855l-2.0754 6.1023-2.1252-6.1023-1.7999-0.05597v0.21043l3.0229 9.363 0.10976 0.1776 0.69589-0.05934zm23.441-1.8505 0.02524-4.8422h-1.1698v5.851l-3.4671-4.829-0.73643-1.022h-1.4417v9.6358h1.2627l0.02563-3.248 0.02563-3.248 4.749 6.6033 0.70157-0.05872zm-47.646 4.3783 0.74113-0.36654 0.8428-0.9374 0.52893-1.0548 0.29816-1.1602-0.0028-1.4677-0.29398-1.2472-0.6106-1.1456-1.1088-1.0266-1.1463-0.54276-1.266-0.2684-2.8713-0.00338v9.6496l4.1477-0.06252zm-3.1368-4.4168v-3.7614l1.314 0.1152 0.96017 0.33275 0.79643 0.79691 0.20822 0.44328 0.20822 0.44328 0.10578 0.57224 0.10578 0.57224-0.0028 1.1809-0.14455 0.61314-0.14455 0.61314-0.30851 0.5966-0.7803 0.84653-1.0598 0.39651h-1.258v-3.7614zm13.27 4.3565 0.2588-0.47549v-0.11965h-3.9906v-3.4066h3.0855l0.30654-0.49312 0.30654-0.49312v-0.0844h-3.6986v-3.0173h3.366l0.52509-1.0706h-5.6431v9.6358h5.2249zm28.627 0.05328 0.24743-0.42221v-0.22622h-3.9906v-3.4066h3.1121l0.50089-0.79346 0.05318-0.13859 0.05318-0.13859h-3.7194v-3.0173h3.4033l0.48993-0.96684v-0.1038h-5.6452v9.6358h5.2477zm14.458-3.8604v-4.2826h1.721l0.51759-0.95099v-0.11965h-5.9372v1.0706h1.9466v8.5651h1.752z" fill="#ed3248"/>
  <path d="m35.59 23.47-1.3626-0.031161-4.7692-0.20787-4.3799-0.29272-4.0879-0.38901-2.4333-0.29473-3.5003-0.49063-3.7886-0.6729-3.5149-0.79326-2.9199-0.84259-1.8493-0.64706-0.025016-6.5411-0.025016-6.5411 3.3228-1.0805 3.4431-0.86198 2.9199-0.58601 3.5039-0.58672 3.6012-0.48381 4.9639-0.49446 4.0879-0.28971 4.3799-0.24401h12.945l4.3799 0.24401 4.0879 0.28971 4.9639 0.49446 3.6012 0.48381 3.5039 0.58672 2.9199 0.58601 3.4431 0.86198 3.3228 1.0805-0.02502 6.5411-0.02502 6.5411-1.8493 0.64706-2.9199 0.84259-3.5149 0.79326-3.7886 0.6729-3.5003 0.49063-2.4333 0.29473-4.0879 0.38926-4.4772 0.29516-4.0879 0.1942-8.6624 0.0733zm1.4965-4.5768 0.30416-0.06083v-0.17032h-0.31219l-1.336-0.70203-1.6543-1.5478-1.1952-1.4857-1.3422-2.0005v-0.07266l0.82731-0.27025 0.89661-0.89158 0.34487-1.0383-0.05931-0.56743-0.059306-0.56743-0.20809-0.44269-0.20809-0.44269-0.8848-0.77883-1.2831-0.38974-3.5999 0.05324-0.0505 9.5871h1.8478l0.026-2.4439 0.026-2.4439 0.97331 1.4279 2.0033 2.683 1.4098 1.4283 1.0901 0.72377 1.1419 0.4695 0.99764 0.0046 0.30416-0.06083zm-7.969-8.7009v-1.6804l1.5563 0.10667 0.62671 0.36602 0.19121 0.32739 0.19121 0.32739 0.0032 0.59381 0.0032 0.59381-0.32324 0.60374-0.54527 0.35923-1.7033 0.0828v-1.6804zm-3.8715 6.4745 0.26572-0.48665 0.0046-0.146h-3.9906v-3.4066h3.0979l0.60068-0.97623v-0.0944h-3.6986v-3.0173h3.3678l0.47228-0.92464 0.0347-0.072998 0.03469-0.072998h-5.6614v9.7363l5.2065-0.05184zm13.54-0.87598 0.47071-1.3626 1.1335-3.3092 0.059 0.146 0.059 0.146 2.2045 5.7425 0.77649 0.05824 3.2746-9.4993 0.09262-0.25326-1.2167 0.058594-2.0826 6.081-0.04343 0.04344-0.04344 0.04344-2.3323-6.2136-0.68132-0.0010122-2.0439 6.043-0.11482-0.27289-0.11482-0.27289-1.9071-5.4992h-1.8807l1.1102 3.4552 2.0225 6.2871 0.78739-0.0579zm15.124 0.90031 0.26874-0.51099 0.066-0.146h-4.0555v-3.4066l3.1146-0.0038 0.62345-1.0668h-3.738v-3.0173h3.3546l0.48993-0.96684v-0.1038h-5.6452v9.7331h5.2526zm8.8836-4.3556v-4.8665h-1.1651l-0.02578 2.879-0.02578 2.879-4.099-5.7094-1.4975-0.056854v9.6439h1.2653v-6.5645l0.33009 0.4813 3.9849 5.5479 0.4773 0.63265h0.75554zm5.5479 0.53532v-4.3312h1.7487l0.24497-0.48342 0.24497-0.48342v-0.1038h-5.9372v1.0706h1.9466v8.6624h1.752zm-53.411 3.9587 0.55933-0.22516 1.0226-0.93875 0.6608-1.0987 0.36118-1.3025v-1.6666l-0.29806-1.1443-0.30213-0.56684-0.30212-0.56684-0.94011-0.94011-0.96567-0.52558-1.5056-0.38507h-3.0834v9.6463l4.2339-0.06062zm-2.9439-4.5413v-3.7737l1.4113 0.12763 1.2653 0.62908 0.63435 0.9476 0.1676 0.54738 0.1676 0.54738-0.0042 2.0439-0.44086 1.2989-0.38499 0.43738-0.38499 0.43737-0.87629 0.42421-1.5548 0.10656v-3.7737z" fill="#ec1939"/>
 </g>
</svg>
