<svg xmlns="http://www.w3.org/2000/svg" xmlns:xlink="http://www.w3.org/1999/xlink" version="1.1" width="107.7165pt" height="107.7165pt" viewBox="0 0 107.7165 107.7165">
<g id="layer_1" data-name="Warstwa 1">
<path transform="matrix(1,0,0,-1,0,107.7165)" d="M89.1451 29.4942C89.1451 29.8834 88.8293 30.1972 88.4407 30.1972H60.5497C60.1611 30.1972 59.8453 29.8834 59.8453 29.4942V28.0845C59.8453 27.6953 60.1611 27.3776 60.5497 27.3776H88.4407C88.8293 27.3776 89.1451 27.6953 89.1451 28.0845Z" fill="#231f20" fill-rule="evenodd"/>
<path transform="matrix(1,0,0,-1,0,107.7165)" stroke-width=".216" stroke-linecap="round" stroke-miterlimit="5" stroke-linejoin="miter" fill="none" stroke="#ffffff" d="M89.1451 29.4942C89.1451 29.8834 88.8293 30.1972 88.4407 30.1972H60.5497C60.1611 30.1972 59.8453 29.8834 59.8453 29.4942V28.0845C59.8453 27.6953 60.1611 27.3776 60.5497 27.3776H88.4407C88.8293 27.3776 89.1451 27.6953 89.1451 28.0845Z"/>
<path transform="matrix(1,0,0,-1,0,107.7165)" d="M20.867 43.3341C21.96 43.3341 22.822 44.1967 22.822 45.2574 22.822 46.3504 21.96 47.213 20.867 47.213 19.8077 47.213 18.9791 46.3504 18.9791 45.2574 18.9791 44.1967 19.8077 43.3341 20.867 43.3341ZM19.3433 28.1143C19.3433 27.7832 19.6415 27.4864 19.9726 27.4864H21.8614C22.1927 27.4864 22.4906 27.7832 22.4906 28.1143V40.1165C22.4906 40.4498 22.1927 40.7463 21.8614 40.7463H19.9726C19.6415 40.7463 19.3433 40.4498 19.3433 40.1165Z" fill="#231f20"/>
<path transform="matrix(1,0,0,-1,0,107.7165)" d="M26.8061 28.1143C26.8061 27.7832 27.1049 27.4864 27.4363 27.4864H29.1586C29.7215 27.4864 29.9197 27.6846 29.9197 28.1143V36.2086C30.0861 36.6724 31.513 38.1986 33.6044 38.1986 35.3302 38.1986 36.3591 37.0375 36.3591 34.9149V28.1143C36.3591 27.7832 36.6242 27.4864 36.9884 27.4864H38.8766C39.2077 27.4864 39.5059 27.7832 39.5059 28.1143V34.7837C39.5059 38.2317 38.0151 41.0811 33.9695 41.0811 31.3143 41.0811 29.5554 39.4906 29.3241 39.2247L28.9261 40.3517C28.8598 40.5822 28.6617 40.7463 28.3966 40.7463H27.4363C27.1049 40.7463 26.8061 40.4498 26.8061 40.1165Z" fill="#231f20"/>
<path transform="matrix(1,0,0,-1,0,107.7165)" d="M43.6555 28.1143C43.6555 27.7832 43.9537 27.4864 44.2851 27.4864H46.2067C46.5381 27.4864 46.836 27.7832 46.836 28.1143V33.9182L52.8395 27.75C52.939 27.6177 53.2046 27.4864 53.4365 27.4864H56.1557C56.7204 27.4864 56.8196 28.0483 56.5209 28.347L50.0199 34.8466 55.5259 39.8543C55.8247 40.1165 55.7252 40.7463 55.1616 40.7463H52.8395C52.5076 40.7463 52.2425 40.5496 52.0101 40.3517L46.836 35.7092V46.067C46.836 46.3997 46.5381 46.6977 46.2067 46.6977H44.2851C43.9537 46.6977 43.6555 46.3997 43.6555 46.067Z" fill="#231f20"/>
<path transform="matrix(1,0,0,-1,0,107.7165)" d="M18.5715 53.3324C18.5715 52.8262 18.9607 52.397 19.5055 52.397H22.932C23.4386 52.397 23.8663 52.8262 23.8663 53.3324V65.5889L34.0379 52.6674C34.1155 52.5518 34.3494 52.397 34.7389 52.397H38.9866C39.7661 52.397 40.0776 53.2553 39.6884 53.7619L28.8706 67.0935 39.4152 78.5486C39.9223 79.1334 39.439 80.0447 38.6986 80.0447H34.8015C34.4509 80.0447 34.217 79.8486 34.0608 79.6558L23.8663 68.5902V79.109C23.8663 79.6153 23.4386 80.0447 22.932 80.0447H19.5055C18.9607 80.0447 18.5715 79.6153 18.5715 79.109Z" fill="#231f20"/>
<path transform="matrix(1,0,0,-1,0,107.7165)" d="M45.0771 52.8335C45.1551 52.52 45.4666 52.2862 45.7781 52.2862H46.4023C46.7915 52.2862 46.9477 52.4829 47.0648 52.7153L53.7752 70.086H53.9697L60.7586 52.7153C60.8363 52.4829 61.0702 52.2862 61.4211 52.2862H62.0444C62.3565 52.2862 62.6683 52.52 62.746 52.8335L70.4854 79.109C70.6414 79.6558 70.3298 80.0447 69.7844 80.0447H66.0118C65.7 80.0447 65.3885 79.7743 65.31 79.4991L61.1481 64.1415H60.9925L54.9445 79.9135C54.866 80.1473 54.6715 80.3392 54.282 80.3392H53.5805C53.1904 80.3392 52.9957 80.1473 52.918 79.9135L46.9086 64.1415H46.7529L42.5126 79.4991C42.4349 79.7743 42.1231 80.0447 41.811 80.0447H38.039C37.4933 80.0447 37.1818 79.6558 37.3374 79.109Z" fill="#231f20"/>
<path transform="matrix(1,0,0,-1,0,107.7165)" d="M69.5032 53.1366C69.5032 52.7479 69.8539 52.397 70.2439 52.397H88.4049C88.8335 52.397 89.1451 52.7479 89.1451 53.1366V56.3669C89.1451 56.755 88.8335 57.1065 88.4049 57.1065H77.1335V57.1842L88.8712 78.8V79.3052C88.8712 79.6932 88.5212 80.0447 88.1311 80.0447H66.0569C65.6668 80.0447 65.3162 79.6932 65.3162 79.3052V76.0745C65.3162 75.6853 65.6668 75.335 66.0569 75.335H81.3971V75.1782L69.5032 53.8362Z" fill="#231f20"/>
</g>
</svg>
