<?xml version="1.0" encoding="UTF-8" standalone="no"?>
<svg
   xmlns:dc="http://purl.org/dc/elements/1.1/"
   xmlns:cc="http://creativecommons.org/ns#"
   xmlns:rdf="http://www.w3.org/1999/02/22-rdf-syntax-ns#"
   xmlns:svg="http://www.w3.org/2000/svg"
   xmlns="http://www.w3.org/2000/svg"
   xmlns:sodipodi="http://sodipodi.sourceforge.net/DTD/sodipodi-0.dtd"
   xmlns:inkscape="http://www.inkscape.org/namespaces/inkscape"
   version="1.1"
   id="svg867"
   xml:space="preserve"
   width="300"
   height="56.377239"
   viewBox="0 0 300 56.377239"
   sodipodi:docname="300Leniar.svg"
   inkscape:version="1.0.2 (1.0.2+r75+1)"><metadata
     id="metadata873"><rdf:RDF><cc:Work
         rdf:about=""><dc:format>image/svg+xml</dc:format><dc:type
           rdf:resource="http://purl.org/dc/dcmitype/StillImage" /><dc:title></dc:title></cc:Work></rdf:RDF></metadata><defs
     id="defs871" /><sodipodi:namedview
     pagecolor="#ffffff"
     bordercolor="#666666"
     borderopacity="1"
     objecttolerance="10"
     gridtolerance="10"
     guidetolerance="10"
     inkscape:pageopacity="0"
     inkscape:pageshadow="2"
     inkscape:window-width="1920"
     inkscape:window-height="1031"
     id="namedview869"
     showgrid="false"
     fit-margin-top="0"
     fit-margin-left="0"
     fit-margin-right="0"
     fit-margin-bottom="0"
     inkscape:zoom="2.0531667"
     inkscape:cx="197.86659"
     inkscape:cy="81.850312"
     inkscape:window-x="0"
     inkscape:window-y="0"
     inkscape:window-maximized="1"
     inkscape:current-layer="g875" /><g
     id="g875"
     inkscape:groupmode="layer"
     inkscape:label="logo leniar2022"
     transform="matrix(1.3333333,0,0,-1.3333333,-48.506799,448.12492)"><g
       id="g907"
       transform="matrix(0.12713597,0,0,0.12713597,31.754881,293.3641)"><path
         d="M 690.2354,321.3561 H 650.1336 V 18.2514 H 840.5892 V 58.3537 H 690.2354 Z"
         style="fill:#283779;fill-opacity:1;fill-rule:nonzero;stroke:none"
         id="path877" /><path
         d="m 1366.6025,18.7665 h 40.1003 v 208.9168 h -40.1003 z"
         style="fill:#283779;fill-opacity:1;fill-rule:nonzero;stroke:none"
         id="path879" /><path
         d="m 1366.6025,276.0109 h 40.1003 v 41.6676 h -40.1003 z"
         style="fill:#283779;fill-opacity:1;fill-rule:nonzero;stroke:none"
         id="path881" /><path
         d="m 901.6546,143.5575 c 8.6099,28.2648 34.9081,48.8942 65.9514,48.8942 31.0374,0 57.3333,-20.6294 65.9449,-48.8942 z m 65.9514,88.9965 c -60.1291,0 -109.048,-48.9149 -109.048,-109.0459 0,-60.1249 48.9189,-109.0361 109.048,-109.0361 32.8054,0 63.5627,14.5661 84.3812,39.964 5.752,7.0288 10.5525,14.682 14.362,22.8177 h -47.7626 c -13.0771,-14.4071 -31.419,-22.6814 -50.9806,-22.6814 -31.0419,0 -57.3392,20.6291 -65.9514,48.8843 h 72.0686 59.6268 41.4121 c 1.2243,6.5784 1.8837,13.2721 1.8837,20.0515 0,60.131 -48.9189,109.0459 -109.0398,109.0459"
         style="fill:#283779;fill-opacity:1;fill-rule:nonzero;stroke:none"
         id="path883" /><path
         d="M 566.7452,336.0937 263.6391,32.991 293.1222,3.5133 596.2289,306.6137 Z"
         style="fill:#283779;fill-opacity:1;fill-rule:nonzero;stroke:none"
         id="path885" /><path
         d="M 453.2556,336.0937 150.1475,32.991 179.6312,3.5133 482.7393,306.6137 Z"
         style="fill:#283779;fill-opacity:1;fill-rule:nonzero;stroke:none"
         id="path887" /><path
         d="M 339.4865,336.0937 36.3801,32.991 65.8638,3.5133 368.97,306.6137 Z"
         style="fill:#283779;fill-opacity:1;fill-rule:nonzero;stroke:none"
         id="path889" /><path
         d="m 1221.6243,232.554 c -60.1251,0 -109.0417,-48.9149 -109.0417,-109.0476 V 18.6622 h 40.1023 v 104.8442 c 0,38.0174 30.9279,68.9453 68.9394,68.9453 38.0123,0 68.94,-30.9279 68.94,-68.9453 V 18.6622 h 40.102 v 104.8442 c 0,60.1327 -48.9189,109.0476 -109.042,109.0476"
         style="fill:#283779;fill-opacity:1;fill-rule:nonzero;stroke:none"
         id="path891" /><path
         d="m 1806.139,192.5569 c -38.012,0 -68.94,-30.9277 -68.94,-68.9454 V 18.7671 h -40.102 v 104.8444 c 0,60.1345 48.9169,109.0474 109.042,109.0474 z"
         style="fill:#283779;fill-opacity:1;fill-rule:nonzero;stroke:none"
         id="path893" /><path
         d="m 1552.1196,54.6775 c -38.0177,0 -68.9454,30.9279 -68.9454,68.934 0,38.0177 30.9277,68.9454 68.9454,68.9454 38.012,0 68.9397,-30.9277 68.9397,-68.9454 0,-38.0061 -30.9277,-68.934 -68.9397,-68.934 z m 109.0341,68.9394 c 0,34.0662 -15.6277,64.4732 -40.0944,84.4674 v -0.072 c -18.8042,15.387 -42.8068,24.6466 -68.9397,24.6466 -60.1308,0 -109.048,-48.9129 -109.048,-109.0474 0,-60.1234 48.9172,-109.0363 109.048,-109.0363 26.1329,0 50.1355,9.2599 68.9397,24.645 V 18.7671 h 40.1003 v 104.8858 l -0.01,-0.036 z"
         style="fill:#283779;fill-opacity:1;fill-rule:nonzero;stroke:none"
         id="path895" /></g></g></svg>
