<?xml version="1.0" encoding="UTF-8"?>
<svg width="236.64" height="300" version="1.1" viewBox="0 0 236.64 300" xml:space="preserve" xmlns="http://www.w3.org/2000/svg" xmlns:cc="http://creativecommons.org/ns#" xmlns:dc="http://purl.org/dc/elements/1.1/" xmlns:rdf="http://www.w3.org/1999/02/22-rdf-syntax-ns#"><metadata><rdf:RDF><cc:Work rdf:about=""><dc:format>image/svg+xml</dc:format><dc:type rdf:resource="http://purl.org/dc/dcmitype/StillImage"/><dc:title/></cc:Work></rdf:RDF></metadata><defs><clipPath id="clipPath885"><path d="m0 425.2h425.2v-425.2h-425.2z"/></clipPath></defs><g transform="matrix(1.3333 0 0 -1.3333 -104.3 530.61)"><g transform="matrix(.63565 0 0 .63565 31.828 145.56)"><g clip-path="url(#clipPath885)"><g transform="translate(104.27 65.226)"><path d="m0 0c0.601-0.062 1.038-0.062 1.19-0.062 3.21 0 4.627 1.37 4.627 4.615 0 2.765-0.986 3.81-3.538 3.81-1.575 0-2.279-0.488-2.279-2.133zm15.921-20.872h-6.141c-5.324 10.102-7.557 15.421-9.553 15.421h-0.227v-4.831c0-3.798 0.159-5.214 3.754-5.259l-2.127-5.331h-14.775l2.12 5.331c2.115 0.383 2.5 1.409 2.5 3.673v14.741c0 4.179-0.113 5.49-3.753 5.529l2.07 5.345c1.899-0.067 3.033-0.067 3.419-0.067 3.368 0 7.019 0.271 10.926 0.271 6.679 0 10.16-3.1 10.16-8.856 0-4.876-2.727-7.705-7.989-8.31 2.778-0.216 4.23-2.236 6.464-5.756 2.607-4.083 3.532-6.57 5.216-6.57h0.057z"/></g><g transform="translate(127.63 53.426)"><path d="m0 0v14.673c0 4.179-0.107 5.49-3.753 5.529l2.076 5.345h24.278v-7.4l-5.92-1.786c-0.114 2.877-1.305 3.802-4.785 3.802-2.824 0-3.368-0.596-3.368-3.38v-5.592h1.633c1.519 0 2.171 0.387 2.228 1.632l6.14 1.691v-11.47l-6.14-1.673v1.287c0 2.499-0.709 2.67-2.938 2.67h-0.923v-8.528c1.519-0.383 2.723-0.383 3.526-0.383 2.995 0 4.298 0.872 4.57 3.419l6.629 1.795v-10.703h-27.867l2.119 5.331c2.11 0.383 2.495 1.409 2.495 3.741"/></g><g transform="translate(168.97 49.628)"><path d="m0 0c0.272 0 0.862 0 1.793 0.057l-2.121-5.331h-15.649l2.064 5.331c0.108 0 0.272-0.057 0.385-0.057 2.121 0 2.665 3.196 2.665 10.862v6.849c0 4.559-0.931 6.289-4.241 6.289h-0.165l2.115 5.345h7.558c6.521-9.683 12.496-17.067 17.604-22.446l-0.77 12.167c-0.267 4.02-1.243 4.895-5.59 4.895-0.159 0-0.652 0.039-1.47 0.039l2.127 5.345h15.535l-2.121-5.345h-0.216c-2.499 0-2.72-3.138-2.72-10.791v-2.176c0-4.742 0.17-9.687 0.443-14.838l-5.71-2.717c-6.895 9.889-12.769 17.055-17.277 21.898l0.431-10.491c0.165-3.754 0.986-4.885 5.33-4.885"/></g><g transform="translate(196.36 53.426)"><path d="m0 0v14.673c0 4.179-0.112 5.49-3.765 5.529l2.077 5.345h24.277v-7.4l-5.92-1.786c-0.107 2.877-1.304 3.802-4.778 3.802-2.826 0-3.37-0.596-3.37-3.38v-5.592h1.628c1.532 0 2.182 0.387 2.234 1.632l6.135 1.691v-11.47l-6.135-1.673v1.287c0 2.499-0.702 2.67-2.937 2.67h-0.925v-8.528c1.527-0.383 2.716-0.383 3.534-0.383 2.988 0 4.297 0.872 4.563 3.419l6.629 1.795v-10.703h-27.873l2.12 5.331c2.121 0.383 2.506 1.409 2.506 3.741"/></g><g transform="translate(240.36 67.878)"><path d="m0 0v1.583c0 3.577-0.862 4.999-4.559 4.999-2.563 0-4.133-1.422-4.133-3.583 0-2.677 2.064-3.494 6.088-5.012 7.326-2.831 11.028-5.704 11.028-11.89 0-6.692-4.185-10.28-12.449-10.28-4.401 0-7.277 0.443-8.688 0.443-0.271 0-1.246 0-2.937-0.057v11.027l6.028 3.259c0-0.7-0.051-1.341-0.051-1.954 0-5.381 0.981-7.762 5-7.762 2.937 0 4.887 1.734 4.887 4.128 0 4.503-4.513 5.052-10.324 7.666-4.185 1.841-6.243 4.82-6.243 8.903 0 7.222 4.288 10.158 12.825 10.158 1.839 0 4.673-0.273 8.421-0.273h0.98v-8.034z"/></g><g transform="translate(264.96 69.404)"><path d="m0 0-2.115-8.098h4.667zm14.402-16.364c0.873-2.325 1.576-3.356 3.583-3.356l-2.121-5.331h-15.261l2.12 5.331c1.893 0 2.766 0.577 2.766 1.949 0 0.488-0.158 0.975-0.379 1.628l-0.925 2.994h-7.983l-0.55-1.844c-0.211-0.707-0.267-1.371-0.267-1.916 0-2.167 1.349-2.652 4.894-2.811l-2.121-5.331h-14.453l2.121 5.331h0.047c1.528 0 2.72 1.886 4.184 5.907l5.651 15.705c0.817 2.293 1.583 4.411 2.069 6.409 2.223 0.496 4.559 1.097 6.903 1.851 1.246-4.133 2.657-7.983 4.07-11.748z"/></g><g transform="translate(299.57 49.628)"><path d="m0 0c0.273 0 0.873 0 1.792 0.057l-2.12-5.331h-15.649l2.07 5.331c0.107 0 0.266-0.057 0.38-0.057 2.114 0 2.657 3.196 2.657 10.862v6.849c0 4.559-0.922 6.289-4.234 6.289h-0.17l2.121 5.345h7.551c6.526-9.683 12.498-17.067 17.606-22.446l-0.748 12.167c-0.279 4.02-1.26 4.895-5.603 4.895-0.165 0-0.663 0.039-1.468 0.039l2.115 5.345h15.541l-2.127-5.345h-0.209c-2.495 0-2.723-3.138-2.723-10.791v-2.176c0-4.742 0.16-9.687 0.444-14.838l-5.704-2.717c-6.906 9.889-12.77 17.055-17.282 21.898l0.431-10.491c0.17-3.754 0.986-4.885 5.329-4.885"/></g><g transform="translate(340.47 67.878)"><path d="m0 0v1.583c0 3.577-0.862 4.999-4.553 4.999-2.552 0-4.134-1.422-4.134-3.583 0-2.677 2.081-3.494 6.101-5.012 7.313-2.831 11.011-5.704 11.011-11.89 0-6.692-4.185-10.28-12.445-10.28-4.389 0-7.269 0.443-8.687 0.443-0.272 0-1.242 0-2.925-0.057v11.027l6.021 3.259c0-0.7-0.051-1.341-0.051-1.954 0-5.381 0.975-7.762 5.007-7.762 2.925 0 4.882 1.734 4.882 4.128 0 4.503-4.508 5.052-10.314 7.666-4.201 1.841-6.255 4.82-6.255 8.903 0 7.222 4.282 10.158 12.826 10.158 1.848 0 4.661-0.273 8.42-0.273h0.97v-8.034z"/></g><g transform="translate(144.88 112.23)"><path d="m0 0c-4.264 4.009-18.688 11.73-16.954 14.338 1.741 2.601 20.435 8.692 24.779 10.874 4.343 2.168 19.991 9.561 20.433 13.042 0.386 3.127 1.734 18.028 1.734 19.111 0 1.571 52.062 4.781 80.411-17.382 23.905-18.695 30.867-33.913 32.17-38.681 1.304-4.789 5.897-3.158 8.249-5.22 2.729-2.383 4.124-6.897 4.593-9.998h-149.8c-0.861 3.754-2.879 11.33-5.612 13.916m162.13 138.22c0.435 3.89 11.736 13.466 11.736 13.466l11.3-15.201-11.749-20.87s-0.714 12.82-1.28 13.036c-8.268 3.044-10.445 5.646-10.007 9.569m-9.566 7.383c-2.167 0-11.09 14.124-8.256 16.952 1.736 1.741 12.61-4.337 12.61-4.337s-2.177-12.615-4.354-12.615m45.772-159.52c-0.039 0.144-0.073 0.291-0.124 0.425-2.184 5.67-5.652 11.306-10.88 15.218-5.206 3.919-15.195 7.393-15.195 7.393s-4.357 15.218-4.792 19.562c-0.436 4.342-3.906 18.257-1.74 20.865 2.175 2.598 11.736 14.34 14.77 30.424 1.501 7.875 0.889 26.082 0.889 26.082l8.256 4.785-1.304 10.433 11.72 11.295s-8.25 11.305-10.416 14.774c-2.188 3.488-9.145 8.268-9.145 11.306 0 3.04 8.703 12.167 8.703 12.167s-20.423 3.477-44.77 1.306c-24.345-2.168-42.161-18.258-42.161-18.258s-13.041 40.426-43.47 58.252c-13.953 8.176-32.607 11.113-58.677 22.601-25.65 11.305-39.99 36.677-41.299 38.407-1.305 1.746-17.158 24.448-4.781 1.582 16.954-31.293 33.038-39.547 40.863-46.079 7.824-6.52 34.609-15.49 57.81-28.679 22.169-12.609 28.689-40.425 30.426-54.77 1.744-14.345-2.178-33.906-2.178-33.906s5.658-1.734 9.139-3.481c3.469-1.735 8.249-8.244 8.249-8.244s5.427 11.998 9.124 16.947c2.62 3.476 6.531 9.123 12.61 7.383 27.385-7.831 34.461-37.95 35.646-43.472 1.309-6.089-3.477-37.804-3.045-39.553 2.177-8.686 7.399-32.612 12.178-34.779 7.677-3.493 6.849-1.961 13.462-7.381 3.82-3.107 7.075-8.426 8.016-12.218-0.075 0.011-0.108 0.026-0.182 0.038-5.663 1.305-23.473 5.649-28.689 12.605-3.912 5.223-7.133 1.425-7.825 3.487-2.176 6.519-16.872 31.429-30.424 43.034-48.249 41.289-86.936 37.385-86.936 37.385s3.477-20-13.04-35.217c-11.539-10.614-19.567-18.247-38.697-27.383-7.733-3.699-6.077-6.513-3.906-8.69 2.176-2.166 11.312-14.571 12.173-18.689 0.096-0.434-19.777 7.156-19.992 7.816-0.737 2.232-2.614 9.131-4.348 13.05-1.741 3.901-10.064 15.717-9.124 16.51 24.551 20.866 49.113 49.985 49.113 49.985s-2.586 3.846-5.864 8.686c-4.568 6.747-4.138 13.716-4.138 13.716s-1.293-15.003-7.813-25.44c-4.547-7.267-26.087-37.829-31.298-39.11-0.578-0.153 15.644 25.203 22.385 38.031 7.597 14.458 14.016 33.896 15.433 36.72 2.172 4.348 36.944 6.078 41.719 5.653 4.786-0.437 36.957-3.04 38.69-3.919 1.737-0.861 5.648 41.735-9.558 61.943-20.054 26.643-40.211 24.347-67.817 36.735-13.331 5.976-27.97 22.43-29.341 24.131-3.687 4.553-8.04 10.637-2.824-1.967 3.629-8.766 21.953-28.683 28.043-32.165 6.084-3.471 31.944-20.435 30.639-23.469-0.703-1.649-24.335 5.649-46.946 27.812-7.32 7.189-10.432 10.432-0.862-5.648 7.151-12.031 41.493-36.338 48.023-41.94 1.521-1.31 1.446-3.016-1.95-2.176-19.345 4.779-35.425 18.477-40.861 24.124-4.1 4.264-13.262 13.914-1.741-3.697 6.474-9.892 26.739-28.042 41.73-41.934 2.55-2.381-34.677-5.998-36.946-13.913-5.215-18.269-23.744-72.89-31.729-80.421-3.695-3.482-7.937-0.614-8.265-3.045-0.862-6.53-14.935-29.545-14.935-29.545l21.46 16.942c1.74 0 5.217 3.911 9.124-20.436 1.27-7.914-2.285-15.978-4.638-19.986h-11.873v-9.558h265.13v9.558z"/></g></g></g></g></svg>
