<?xml version="1.0" encoding="UTF-8"?>
<svg width="300" height="66.326" data-name="Calque 1" version="1.1" viewBox="0 0 300 66.326" xmlns="http://www.w3.org/2000/svg" xmlns:cc="http://creativecommons.org/ns#" xmlns:dc="http://purl.org/dc/elements/1.1/" xmlns:rdf="http://www.w3.org/1999/02/22-rdf-syntax-ns#">
 <metadata>
  <rdf:RDF>
   <cc:Work rdf:about="">
    <dc:format>image/svg+xml</dc:format>
    <dc:type rdf:resource="http://purl.org/dc/dcmitype/StillImage"/>
    <dc:title/>
   </cc:Work>
  </rdf:RDF>
 </metadata>
 <defs>
  <style>.cls-1{fill:#8bc26e;}.cls-2{fill:#425063;}</style>
 </defs>
 <g transform="matrix(.64376 0 0 .64376 .0062376 0)">
  <path class="cls-1" transform="translate(-67.76,-322.62)" d="m425.6 322.62a0.29 0.29 0 0 0 0.23 0.1 4.81 4.81 0 0 1 1.92 0.58l16.64 8 27.43 13.25 19.35 9.34 27 13.06 12.83 6.23a5.32 5.32 0 0 1 1.54 1.07 4.72 4.72 0 0 1 1.22 3.39 4.54 4.54 0 0 1-3 4.16 4.73 4.73 0 0 1-3.67-0.22l-8-3.88-23.21-11.22-0.48-0.21c-0.11 0.2 0 0.34 0.11 0.48a40.89 40.89 0 0 1 3.5 10.31 40.46 40.46 0 0 1 0.69 10.24 39.44 39.44 0 0 1-4.57 16.48 40.41 40.41 0 0 1-22.13 19.4 37.08 37.08 0 0 1-9.41 2.22l-2.59 0.25h-4.17a41.21 41.21 0 0 1-16.14-4.26l-0.3-0.12c-0.13-0.08-0.25-0.17-0.38-0.24a40.71 40.71 0 0 1-10.52-7.91 1.41 1.41 0 0 0-0.49-0.42 6.82 6.82 0 0 0-0.91-1.1 40.55 40.55 0 0 1-9.27-19.22 38.85 38.85 0 0 1-0.65-9.32 40.89 40.89 0 0 1 28.6-37.06 38 38 0 0 1 3.77-1 4.26 4.26 0 0 0 0.43-0.12 1.33 1.33 0 0 0-0.6-0.37l-26.37-12.77-0.59-0.28a4.63 4.63 0 0 1 1.56-8.73c0.14 0 0.31 0 0.42-0.11zm33.4 93.8a31.52 31.52 0 1 0-31.56-31.48 31.55 31.55 0 0 0 31.56 31.48z"/>
  <path class="cls-2" transform="translate(-67.76,-322.62)" d="m350.37 387.52 1.18 0.21a15.41 15.41 0 0 1 4.19 1.39 11.3 11.3 0 0 1 6.14 8.32 16 16 0 0 1 0.3 3.24v9.05a14.78 14.78 0 0 1-0.49 3.92 10.72 10.72 0 0 1-5.41 6.77 20 20 0 0 1-6.2 2.09 42.39 42.39 0 0 1-7.71 0.65h-67.68a1.88 1.88 0 0 1-0.69-0.06q-4.44-8-8.93-16.06h-47.65a1.4 1.4 0 0 0-0.38 0.57c-2.72 5-5.42 9.94-8.14 14.91-0.42 0.77-0.21 0.64-1.08 0.64h-12.34l39.94-69.11h0.68 10.55a1 1 0 0 1 1 0.58q17.61 29.78 35.24 59.53 2.41 4.05 4.81 8.12l0.34 0.56c0-0.12 0 0 0.08-0.05a0.11 0.11 0 0 0 0-0.06 0.49 0.49 0 0 0 0-0.12 2.25 2.25 0 0 0 0-0.26q0-34 0-68v-0.13-0.07c0-0.02 0.32-0.1 0.49-0.11h57.58a26.7 26.7 0 0 1 6.84 0.72 12.49 12.49 0 0 1 4.35 2 10.2 10.2 0 0 1 3.76 6.13 21.49 21.49 0 0 1 0.48 4.59q0 4 0 8.07a16.85 16.85 0 0 1-0.42 3.81 9.3 9.3 0 0 1-5.47 6.54 26.08 26.08 0 0 1-5.36 1.62zm-49.07 25.48h40a15.89 15.89 0 0 0 3.3-0.29 5 5 0 0 0 4.16-4 12.25 12.25 0 0 0 0.35-2.83v-6.19a15.08 15.08 0 0 0-0.26-2.84 5.2 5.2 0 0 0-4.62-4.61 14.68 14.68 0 0 0-2.65-0.25h-39.78c-0.16 0-0.35-0.05-0.5 0.1zm0-48.76v17.65h40.27c0.61 0 1.22 0 1.83-0.05a9.37 9.37 0 0 0 2.61-0.47 3.51 3.51 0 0 0 2.3-2.46 7 7 0 0 0 0.28-1.93v-6.25-1.89c-0.2-2.39-1.17-3.82-3.7-4.36a15.28 15.28 0 0 0-3.17-0.3h-39.72a1.32 1.32 0 0 0-0.68 0.08zm-41.81 32.76-18.32-32.73c-0.53 0.65-18 32.27-18.12 32.73z"/>
  <path class="cls-2" transform="translate(-67.76,-322.62)" d="m67.77 409v-3.35c0-0.21-0.11-0.49 0.19-0.62q5.69 3.74 11.36 7.48a1.2 1.2 0 0 0 0.79 0.23h0.33 49.81c0.14-0.53 0.2-17.79 0.08-19.3a1.37 1.37 0 0 0-0.75-0.07h-33.15-12.12a26.3 26.3 0 0 1-7.58-1 9.32 9.32 0 0 1-6.4-6 15.79 15.79 0 0 1-0.68-2.51 31.54 31.54 0 0 1-0.52-5.89v-8.92a27.54 27.54 0 0 1 0.87-6.76 9.75 9.75 0 0 1 7.45-7.31 26.33 26.33 0 0 1 5.07-0.77c1.32-0.07 2.65-0.1 4-0.1q18.87 0 37.72 0a34.91 34.91 0 0 1 8 0.72 14.12 14.12 0 0 1 3.76 1.41 9.18 9.18 0 0 1 3.56 3.62 1.1 1.1 0 0 0 0.35 0.48v-6.2h78.29c0.12 0.46 0.17 9.1 0.05 10.18a0.1 0.1 0 0 1 0 0.05h-0.06a1.08 1.08 0 0 1-0.19 0h-32.24l-0.15 0.05v7.29 7.36 44h-13v-2.76-56h-31.61c0.08 1.09 0.26 2.14 0.27 3.2s0 2.1 0 3.2a2.15 2.15 0 0 1-0.7-0.31l-10.67-5.85a2 2 0 0 0-1.05-0.28h-47.13a1.56 1.56 0 0 0-0.57 0c-0.13 0.46-0.18 16.79-0.05 17.75a1.27 1.27 0 0 0 0.75 0.08h44a33.42 33.42 0 0 1 7.12 0.67 16.46 16.46 0 0 1 1.94 0.55 9.41 9.41 0 0 1 6.13 6.26 22 22 0 0 1 0.88 4.46 42 42 0 0 1 0.17 4.49v10.35a24.67 24.67 0 0 1-0.79 5.92 9.59 9.59 0 0 1-7.21 7.29 25.39 25.39 0 0 1-4.81 0.78c-1.65 0.13-3.3 0.14-5 0.14h-39.69a39.24 39.24 0 0 1-6.93-0.52 17.84 17.84 0 0 1-2.59-0.65 9.36 9.36 0 0 1-6.33-6.47 23.85 23.85 0 0 1-0.91-5.37z"/>
  <path class="cls-2" transform="translate(-67.76,-322.62)" d="m429 412.7a1.41 1.41 0 0 1 0.49 0.42 40.71 40.71 0 0 0 10.56 7.88c0.13 0.07 0.25 0.16 0.38 0.24 0 0.59 0 1.17-0.05 1.76v0.05c-0.5 0.1-65.64 0.13-66.66 0-0.11-0.47-0.16-68 0-69h13v58.51a1.27 1.27 0 0 0 0.78 0.11h40.84z"/>
 </g>
</svg>
