<?xml version="1.0" encoding="UTF-8"?>
<svg width="249.44" height="300" version="1.1" viewBox="0 0 249.44 300" xml:space="preserve" xmlns="http://www.w3.org/2000/svg" xmlns:cc="http://creativecommons.org/ns#" xmlns:dc="http://purl.org/dc/elements/1.1/" xmlns:rdf="http://www.w3.org/1999/02/22-rdf-syntax-ns#"><metadata><rdf:RDF><cc:Work rdf:about=""><dc:format>image/svg+xml</dc:format><dc:type rdf:resource="http://purl.org/dc/dcmitype/StillImage"/><dc:title/></cc:Work></rdf:RDF></metadata><g transform="matrix(1.3333 0 0 -1.3333 3.8455e-6 95.733)"><g transform="matrix(.83442 0 0 .83442 -187.09 -340.25)"><g fill="#231f20"><path d="m227.07 245.22-0.156-10.227 4.328 0.168c1.543 0.418 3.438 2.254 3.438 4.942 0 3.015-1.965 4.949-5.207 5.047zm12.688-20.293-2.91-0.723-6.36 9.219-3.574 0.059 0.156-8.918-2.851-0.196v22.453l5.578 0.164c2.527 0.098 4.492-0.457 5.84-1.601 1.336-1.18 2.031-2.723 2.031-4.59 0-1.25-0.43-2.488-1.25-3.699-0.82-1.25-2.004-2.199-3.535-2.824v-0.098l6.875-9.246"/><path d="m253.67 226.04c4.922 0 8.332 3.641 8.332 9.473 0 5.808-4.004 9.969-8.555 9.969-4.855 0-8.332-3.602-8.332-9.512 0-5.664 4.063-9.93 8.555-9.93zm-0.457-1.867c-6.262 0-11.145 4.66-11.145 11.602 0 6.398 5.579 11.613 11.797 11.613 6.301 0 11.184-4.688 11.184-11.641 0-6.457-5.84-11.574-11.836-11.574"/><path d="m277.35 224.56-2.852-0.196v10.657l-8.457 11.601 3.074 0.399 7.121-10.391 7.344 10.391 2.449-0.399-8.711-11.699 0.032-10.363"/><path d="m294.76 243.11-4.492-11.113 9.277-0.156zm10.683-18.515-3.007-0.332-2.235 5.937-10.781-0.195-2.227-5.672-2.461 0.262 9.668 22.382 1.317 0.333 9.726-22.715"/><path d="m315.4 224.56-5.929-0.157v22.383l2.883 0.195-0.137-9.472 0.066-11.172 9.543 0.363-0.195-2.14h-6.231"/><path d="m345.27 224.56-2.852-0.196v20.782l-8.68-0.321 0.196 2.156h9.636l10.129 0.196-0.195-2.293-8.164 0.301-0.168-8.231 0.098-12.394"/><path d="m362.2 243.11-4.492-11.113 9.277-0.156zm10.684-18.515-3.02-0.332-2.226 5.937-10.781-0.195-2.235-5.672-2.453 0.262 9.668 22.382 1.309 0.333 9.738-22.715"/><path d="m382.83 224.56-5.937-0.157v22.383l2.882 0.195-0.128-9.472 0.07-11.172 9.531 0.363-0.195-2.14h-6.223"/><path d="m397.09 224.56-3.77-0.157v22.414l5.383 0.164h6.68l-0.195-2.156-8.977 0.36-0.203-8.496 7.84 0.234-0.457-2.129-7.383 0.227 0.203-8.653 9.961 0.332-0.195-2.14h-8.887"/><path d="m413.21 224.56-2.559-0.196 0.235 22.422 2.09 0.195 13.836-17.332-0.262 17.137 2.558 0.195-0.293-22.449-0.957-0.168-14.941 18.164 0.293-17.968"/><path d="m440.38 224.34c-1.309 0-2.59 0.262-3.867 0.781-1.282 0.528-2.227 1.153-2.91 1.836l1.406 1.512c1.738-1.309 3.601-2.293 6.133-2.293 2.754 0 4.687 1.277 4.687 3.73 0 1.317-0.461 2.293-1.348 2.918-0.89 0.625-2.07 1.211-3.546 1.836-3.075 1.211-6.387 2.492-6.387 6.594 0 3.27 2.98 5.965 7.082 5.965 2.129 0 4.355-0.594 5.633-1.543l-0.516-1.934c-1.32 0.625-3.84 1.504-5.703 1.504-2.141 0-3.906-1.015-3.906-3.144 0-1.375 0.457-2.391 1.347-3.016 0.879-0.656 2.059-1.281 3.504-1.867 3.047-1.309 6.426-2.363 6.426-6.395 0-4.328-3.906-6.484-8.035-6.484"/></g><path d="m224.22 493.82v-224.19h224.2v224.19h-224.2" fill="#fff"/><g fill="#ed1c24"><path d="m336.32 278.94c-56.765 0-102.78 46.016-102.78 102.78 0 56.761 46.016 102.77 102.78 102.77 56.758 0 102.77-46.012 102.77-102.77 0-56.762-46.016-102.78-102.77-102.78zm-112.11 214.87v-224.19h224.2v224.19h-224.2"/><path d="m246.08 363.7c1.914-10.082 12.52-35.078 29.805-28.843 12.851 4.613 13.769 16.461 16.211 29.957 2.332 12.953 5.351 36.906 9.687 42.289 0.293 0.265-0.09 0.757-0.558 0.738-10.282-0.332-17.098-23.277-20.743-34.047-7.078-20.914-29.343-22.605-33.035-9.953-0.097 0.492-1.504 0.379-1.367-0.141"/><path d="m416.26 416.4c-0.188 0.422-0.371 0.848-0.559 1.305-6.453 15.387 2.344 17.598 2.871 11.156 0.266-3.211-0.886-7.921-2.312-12.461zm-58.067-35.628c-0.351 1.226-0.586 2.628-0.5 4.3 0.274 5.125 3.196 10.797 6.563 11.551 1.301 0.277 2.59-8e-3 2.726-2.109 0-4.657-4.835-10.114-8.789-13.742zm-41.66-13.747c-0.519-5.269-3.761-10.496-6.797-10.539-3.046-0.031-5.039 4.325-4.211 10.411 0.715 5.222 3.399 9.578 6.418 9.609 3.067 0.027 5.086-4.203 4.59-9.481zm108.14 32.957c-2.492 5.555-4.278 7.762-6.77 12.825 2.207 6.008 4.59 14.109 4.172 17.664-1.758 14.398-21.387-0.918-17.226-19.641 1.113-5.043 2.351-8.953 3.66-12.34-5.789-11.984-8.465-9.812-7.957-5.605 0.332 3.152 1.035 8.855 1.035 8.855 1.863 11.489-4.375 12.289-8.235 9.766-2.128-1.399-4.882-5.371-6.23-8.203l1.133 5.558-10.547-4.074-3.309-17.574c-4.433-9.887-8.722-11.535-11.777-11.074-1.035 0.172-1.867 0.699-2.629 1.402 9.727 8.656 13.281 15.719 12.363 21-0.886 5.328-5.027 5.566-7.879 4.668-7.792-2.363-14.238-10.102-15.917-20.668-0.559-3.476-0.442-6.648 0.203-9.316-6.668-10.602-7.352-4.618-6.563-0.543 1.926 9.902 8.938 49.992 8.938 49.992l-10.567-4.203s-6.554-35.418-8.82-48.895c-4.941-12.129-6.445-7.64-5.691-3.566 1.875 9.902 4.238 22.383 4.238 22.383l-10.227-3.926s-0.742-3.176-1.719-8.051c-1.386 3.887-3.886 6.484-7.148 6.82-6.316 0.688-13.094-7.39-15.117-18.011-2-10.621 1.476-19.782 7.812-20.418 4.473-0.481 9.161 3.453 12.258 9.558 1.668-3.808 5.809-3.523 8.289-1.859 2.656 1.762 5.246 5.746 6.926 9.312 0.945-5.054 4.941-5.093 7.879-3.511 4.543 2.457 9.004 8.398 10.969 11.156 1.777-3.106 4.636-4.809 8.164-4.379 4.687 0.582 10.437 6.195 14.285 12.973l-1.473-7.856 10.555 4.082 3.691 19.469c5.293 12.5 6.692 8.227 6.243 4.398 0 0-0.403-3.593-1.036-9.113-1.3-11.32 3.828-12.062 7.489-9.867 5.429 3.258 8.867 9.844 11.847 15.762 2.313-5.274 4.746-9.575 6.973-15.867 15.262-42.969-42.492-38.68-65.488-39.415-21.301-0.886-23.575-19.21-25.735-33.261 79.426 0 114.91 58.109 98.938 93.593"/><path d="m347.07 460.2c-1.296-9.82-1.921-30.078-21.14-33.32-31.262-5.266-73.449-18.711-80.196-49.207-0.058-0.422-1.144-0.602-1.242-0.199-1.269 48.105 41.758 82.711 102.58 82.726"/></g></g></g></svg>
